  0
SECTION
  2
HEADER
  9
$ACADVER
  1
AC1009
  9
$DWGCODEPAGE
  3
ANSI_1252
  9
$INSBASE
 10
0.0
 20
0.0
 30
0.0
  9
$EXTMIN
 10
1e+20
 20
1e+20
 30
1e+20
  9
$EXTMAX
 10
-1e+20
 20
-1e+20
 30
-1e+20
  9
$LIMMIN
 10
0.0
 20
0.0
  9
$LIMMAX
 10
420.0
 20
297.0
  9
$ORTHOMODE
 70
0
  9
$REGENMODE
 70
1
  9
$FILLMODE
 70
1
  9
$DRAGMODE
 70
2
  9
$QTEXTMODE
 70
0
  9
$MIRRTEXT
 70
1
  9
$OSMODE
 70
20583
  9
$LTSCALE
 40
1.0
  9
$ATTMODE
 70
1
  9
$TEXTSIZE
 40
2.5
  9
$TRACEWID
 40
1.0
  9
$TEXTSTYLE
  7
OpenSans
  9
$CLAYER
  8
0
  9
$CELTYPE
  6
ByLayer
  9
$CECOLOR
 62
256
  9
$DIMSCALE
 40
1.0
  9
$DIMASZ
 40
0.175
  9
$DIMEXO
 40
0.125
  9
$DIMDLI
 40
3.75
  9
$DIMRND
 40
0.0
  9
$DIMDLE
 40
0.0
  9
$DIMEXE
 40
0.375
  9
$DIMTP
 40
0.0
  9
$DIMTM
 40
0.0
  9
$DIMTXT
 40
0.25
  9
$DIMCEN
 40
2.5
  9
$DIMTSZ
 40
0.0
  9
$DIMTOL
 70
0
  9
$DIMLIM
 70
0
  9
$DIMTIH
 70
0
  9
$DIMTOH
 70
0
  9
$DIMSE1
 70
0
  9
$DIMSE2
 70
0
  9
$DIMTAD
 70
1
  9
$DIMZIN
 70
12
  9
$DIMBLK
  1
ARCHTICK
  9
$DIMASO
 70
1
  9
$DIMSHO
 70
1
  9
$DIMPOST
  1

  9
$DIMAPOST
  1

  9
$DIMALT
 70
0
  9
$DIMALTD
 70
3
  9
$DIMALTF
 40
0.03937007874
  9
$DIMLFAC
 40
100.0
  9
$DIMTOFL
 70
1
  9
$DIMTVP
 40
0.0
  9
$DIMTIX
 70
0
  9
$DIMSOXD
 70
0
  9
$DIMSAH
 70
0
  9
$DIMBLK1
  1

  9
$DIMBLK2
  1

  9
$DIMSTYLE
  2
EZDXF
  9
$DIMCLRD
 70
0
  9
$DIMCLRE
 70
0
  9
$DIMCLRT
 70
0
  9
$DIMTFAC
 40
0.5
  9
$DIMGAP
 40
0.1
  9
$COORDS
 70
1
  9
$ATTDIA
 70
0
  9
$ATTREQ
 70
1
  9
$HANDLING
 70
1
  9
$LUNITS
 70
2
  9
$LUPREC
 70
4
  9
$SKETCHINC
 40
1.0
  9
$FILLETRAD
 40
10.0
  9
$AUNITS
 70
0
  9
$AUPREC
 70
2
  9
$MENU
  1
.
  9
$ELEVATION
 40
0.0
  9
$PELEVATION
 40
0.0
  9
$THICKNESS
 40
0.0
  9
$LIMCHECK
 70
0
  9
$CHAMFERA
 40
0.0
  9
$CHAMFERB
 40
0.0
  9
$SKPOLY
 70
0
  9
$TDCREATE
 40
2460244.9527430558
  9
$TDUPDATE
 40
2460244.9527430558
  9
$TDINDWG
 40
0.0
  9
$TDUSRTIMER
 40
0.0
  9
$USRTIMER
 70
1
  9
$ANGBASE
 50
0.0
  9
$ANGDIR
 70
0
  9
$PDMODE
 70
0
  9
$PDSIZE
 40
0.0
  9
$PLINEWID
 40
0.0
  9
$SPLFRAME
 70
0
  9
$SPLINETYPE
 70
6
  9
$SPLINESEGS
 70
8
  9
$HANDSEED
  5
243
  9
$SURFTAB1
 70
6
  9
$SURFTAB2
 70
6
  9
$SURFTYPE
 70
6
  9
$SURFU
 70
6
  9
$SURFV
 70
6
  9
$UCSNAME
  2

  9
$UCSORG
 10
0.0
 20
0.0
 30
0.0
  9
$UCSXDIR
 10
1.0
 20
0.0
 30
0.0
  9
$UCSYDIR
 10
0.0
 20
1.0
 30
0.0
  9
$PUCSNAME
  2

  9
$PUCSORG
 10
0.0
 20
0.0
 30
0.0
  9
$PUCSXDIR
 10
1.0
 20
0.0
 30
0.0
  9
$PUCSYDIR
 10
0.0
 20
1.0
 30
0.0
  9
$USERI1
 70
0
  9
$USERI2
 70
0
  9
$USERI3
 70
0
  9
$USERI4
 70
0
  9
$USERI5
 70
0
  9
$USERR1
 40
0.0
  9
$USERR2
 40
0.0
  9
$USERR3
 40
0.0
  9
$USERR4
 40
0.0
  9
$USERR5
 40
0.0
  9
$WORLDVIEW
 70
1
  9
$SHADEDGE
 70
3
  9
$SHADEDIF
 70
70
  9
$TILEMODE
 70
1
  9
$MAXACTVP
 70
64
  9
$PLIMCHECK
 70
0
  9
$PEXTMIN
 10
1e+20
 20
1e+20
 30
1e+20
  9
$PEXTMAX
 10
-1e+20
 20
-1e+20
 30
-1e+20
  9
$PLIMMIN
 10
0.0
 20
0.0
  9
$PLIMMAX
 10
420.0
 20
297.0
  9
$UNITMODE
 70
0
  9
$VISRETAIN
 70
1
  9
$PLINEGEN
 70
0
  9
$PSLTSCALE
 70
1
  0
ENDSEC
  0
SECTION
  2
TABLES
  0
TABLE
  2
VPORT
 70
1
  0
VPORT
  5
23
  2
*Active
 70
0
 10
0.0
 20
0.0
 11
1.0
 21
1.0
 12
0.0
 22
0.0
 13
0.0
 23
0.0
 14
0.5
 24
0.5
 15
0.5
 25
0.5
 16
0.0
 26
0.0
 36
1.0
 17
0.0
 27
0.0
 37
0.0
 40
1000.0
 41
1.34
 42
50.0
 43
0.0
 44
0.0
 50
0.0
 51
0.0
 71
0
 72
1000
 73
1
 74
3
 75
0
 76
0
 77
0
 78
0
  0
ENDTAB
  0
TABLE
  2
LTYPE
 70
21
  0
LTYPE
  5
24
  2
ByBlock
 70
0
  3

 72
65
 73
0
 40
0.0
  0
LTYPE
  5
25
  2
ByLayer
 70
0
  3

 72
65
 73
0
 40
0.0
  0
LTYPE
  5
26
  2
Continuous
 70
0
  3

 72
65
 73
0
 40
0.0
  0
LTYPE
  5
2D
  2
CENTER
 70
0
  3
Center ____ _ ____ _ ____ _ ____ _ ____ _ ____
 72
65
 73
4
 40
5.08
 49
3.175
 49
-0.635
 49
0.635
 49
-0.635
  0
LTYPE
  5
2E
  2
CENTERX2
 70
0
  3
Center (2x) ________  __  ________  __  ________
 72
65
 73
4
 40
8.89
 49
6.35
 49
-0.635
 49
1.27
 49
-0.635
  0
LTYPE
  5
2F
  2
CENTER2
 70
0
  3
Center (.5x) ____ _ ____ _ ____ _ ____ _ ____
 72
65
 73
4
 40
2.54
 49
1.587
 49
-0.318
 49
0.318
 49
-0.318
  0
LTYPE
  5
30
  2
DASHED
 70
0
  3
Dashed __ __ __ __ __ __ __ __ __ __ __ __ __ _
 72
65
 73
2
 40
1.524
 49
1.27
 49
-0.254
  0
LTYPE
  5
31
  2
DASHEDX2
 70
0
  3
Dashed (2x) ____  ____  ____  ____  ____  ____
 72
65
 73
2
 40
3.048
 49
2.54
 49
-0.508
  0
LTYPE
  5
32
  2
DASHED2
 70
0
  3
Dashed (.5x) _ _ _ _ _ _ _ _ _ _ _ _ _ _
 72
65
 73
2
 40
0.762
 49
0.635
 49
-0.127
  0
LTYPE
  5
33
  2
PHANTOM
 70
0
  3
Phantom ______  __  __  ______  __  __  ______
 72
65
 73
6
 40
6.35
 49
3.175
 49
-0.635
 49
0.635
 49
-0.635
 49
0.635
 49
-0.635
  0
LTYPE
  5
34
  2
PHANTOMX2
 70
0
  3
Phantom (2x)____________    ____    ____    ____________
 72
65
 73
6
 40
10.795
 49
6.35
 49
-0.635
 49
1.27
 49
-0.635
 49
1.27
 49
-0.635
  0
LTYPE
  5
35
  2
PHANTOM2
 70
0
  3
Phantom (.5x) ___ _ _ ___ _ _ ___ _ _ ___ _ _ ___
 72
65
 73
6
 40
3.175
 49
1.587
 49
-0.318
 49
0.318
 49
-0.318
 49
0.318
 49
-0.318
  0
LTYPE
  5
36
  2
DASHDOT
 70
0
  3
Dash dot __ . __ . __ . __ . __ . __ . __ . __
 72
65
 73
4
 40
3.556
 49
2.54
 49
-0.508
 49
0.0
 49
-0.508
  0
LTYPE
  5
37
  2
DASHDOTX2
 70
0
  3
Dash dot (2x) ____  .  ____  .  ____  .  ____
 72
65
 73
4
 40
6.096
 49
5.08
 49
-0.508
 49
0.0
 49
-0.508
  0
LTYPE
  5
38
  2
DASHDOT2
 70
0
  3
Dash dot (.5x) _ . _ . _ . _ . _ . _ . _ . _
 72
65
 73
4
 40
1.778
 49
1.27
 49
-0.254
 49
0.0
 49
-0.254
  0
LTYPE
  5
39
  2
DOT
 70
0
  3
Dot .  .  .  .  .  .  .  .  .  .  .  .  .  .  .  .
 72
65
 73
2
 40
0.508
 49
0.0
 49
-0.508
  0
LTYPE
  5
3A
  2
DOTX2
 70
0
  3
Dot (2x) .    .    .    .    .    .    .    . 
 72
65
 73
2
 40
1.016
 49
0.0
 49
-1.016
  0
LTYPE
  5
3B
  2
DOT2
 70
0
  3
Dot (.5) . . . . . . . . . . . . . . . . . . . 
 72
65
 73
2
 40
0.254
 49
0.0
 49
-0.254
  0
LTYPE
  5
3C
  2
DIVIDE
 70
0
  3
Divide __ . . __ . . __ . . __ . . __ . . __
 72
65
 73
6
 40
4.064
 49
2.54
 49
-0.508
 49
0.0
 49
-0.508
 49
0.0
 49
-0.508
  0
LTYPE
  5
3D
  2
DIVIDEX2
 70
0
  3
Divide (2x) ____  . .  ____  . .  ____  . .  ____
 72
65
 73
6
 40
6.604
 49
5.08
 49
-0.508
 49
0.0
 49
-0.508
 49
0.0
 49
-0.508
  0
LTYPE
  5
3E
  2
DIVIDE2
 70
0
  3
Divide(.5x) _ . _ . _ . _ . _ . _ . _ . _
 72
65
 73
6
 40
2.032
 49
1.27
 49
-0.254
 49
0.0
 49
-0.254
 49
0.0
 49
-0.254
  0
ENDTAB
  0
TABLE
  2
LAYER
 70
3
  0
LAYER
  5
27
  2
0
 70
0
 62
7
  6
Continuous
  0
LAYER
  5
28
  2
Defpoints
 70
0
 62
7
  6
Continuous
  0
LAYER
  5
8F
  2
VIEWPORTS
 70
0
 62
-7
  6
Continuous
  0
ENDTAB
  0
TABLE
  2
STYLE
 70
26
  0
STYLE
  5
29
  2
Standard
 70
0
 40
0.0
 41
1.0
 50
0.0
 71
0
 42
2.5
  3
txt
  4

  0
STYLE
  5
3F
  2
OpenSans-Light
 70
0
 40
0.0
 41
1.0
 50
0.0
 71
0
 42
2.5
  3
OpenSans-Light.ttf
  4

  0
STYLE
  5
40
  2
OpenSans-Light-Italic
 70
0
 40
0.0
 41
1.0
 50
0.0
 71
0
 42
2.5
  3
OpenSans-LightItalic.ttf
  4

  0
STYLE
  5
41
  2
OpenSans
 70
0
 40
0.0
 41
1.0
 50
0.0
 71
0
 42
2.5
  3
OpenSans-Regular.ttf
  4

  0
STYLE
  5
42
  2
OpenSans-Italic
 70
0
 40
0.0
 41
1.0
 50
0.0
 71
0
 42
2.5
  3
OpenSans-Italic.ttf
  4

  0
STYLE
  5
43
  2
OpenSans-SemiBold
 70
0
 40
0.0
 41
1.0
 50
0.0
 71
0
 42
2.5
  3
OpenSans-SemiBold.ttf
  4

  0
STYLE
  5
44
  2
OpenSans-SemiBoldItalic
 70
0
 40
0.0
 41
1.0
 50
0.0
 71
0
 42
2.5
  3
OpenSans-SemiBoldItalic.ttf
  4

  0
STYLE
  5
45
  2
OpenSans-Bold
 70
0
 40
0.0
 41
1.0
 50
0.0
 71
0
 42
2.5
  3
OpenSans-Bold.ttf
  4

  0
STYLE
  5
46
  2
OpenSans-BoldItalic
 70
0
 40
0.0
 41
1.0
 50
0.0
 71
0
 42
2.5
  3
OpenSans-BoldItalic.ttf
  4

  0
STYLE
  5
47
  2
OpenSans-ExtraBold
 70
0
 40
0.0
 41
1.0
 50
0.0
 71
0
 42
2.5
  3
OpenSans-ExtraBold.ttf
  4

  0
STYLE
  5
48
  2
OpenSans-ExtraBoldItalic
 70
0
 40
0.0
 41
1.0
 50
0.0
 71
0
 42
2.5
  3
OpenSans-ExtraBoldItalic.ttf
  4

  0
STYLE
  5
49
  2
OpenSansCondensed-Bold
 70
0
 40
0.0
 41
1.0
 50
0.0
 71
0
 42
2.5
  3
OpenSansCondensed-Bold.ttf
  4

  0
STYLE
  5
4A
  2
OpenSansCondensed-Light
 70
0
 40
0.0
 41
1.0
 50
0.0
 71
0
 42
2.5
  3
OpenSansCondensed-Light.ttf
  4

  0
STYLE
  5
4B
  2
OpenSansCondensed-Italic
 70
0
 40
0.0
 41
1.0
 50
0.0
 71
0
 42
2.5
  3
OpenSansCondensed-LightItalic.ttf
  4

  0
STYLE
  5
4C
  2
LiberationSans
 70
0
 40
0.0
 41
1.0
 50
0.0
 71
0
 42
2.5
  3
LiberationSans-Regular.ttf
  4

  0
STYLE
  5
4D
  2
LiberationSans-Bold
 70
0
 40
0.0
 41
1.0
 50
0.0
 71
0
 42
2.5
  3
LiberationSans-Bold.ttf
  4

  0
STYLE
  5
4E
  2
LiberationSans-BoldItalic
 70
0
 40
0.0
 41
1.0
 50
0.0
 71
0
 42
2.5
  3
LiberationSans-BoldItalic.ttf
  4

  0
STYLE
  5
4F
  2
LiberationSans-Italic
 70
0
 40
0.0
 41
1.0
 50
0.0
 71
0
 42
2.5
  3
LiberationSans-Italic.ttf
  4

  0
STYLE
  5
50
  2
LiberationSerif
 70
0
 40
0.0
 41
1.0
 50
0.0
 71
0
 42
2.5
  3
LiberationSerif-Regular.ttf
  4

  0
STYLE
  5
51
  2
LiberationSerif-Bold
 70
0
 40
0.0
 41
1.0
 50
0.0
 71
0
 42
2.5
  3
LiberationSerif-Bold.ttf
  4

  0
STYLE
  5
52
  2
LiberationSerif-BoldItalic
 70
0
 40
0.0
 41
1.0
 50
0.0
 71
0
 42
2.5
  3
LiberationSerif-BoldItalic.ttf
  4

  0
STYLE
  5
53
  2
LiberationSerif-Italic
 70
0
 40
0.0
 41
1.0
 50
0.0
 71
0
 42
2.5
  3
LiberationSerif-Italic.ttf
  4

  0
STYLE
  5
54
  2
LiberationMono
 70
0
 40
0.0
 41
1.0
 50
0.0
 71
0
 42
2.5
  3
LiberationMono-Regular.ttf
  4

  0
STYLE
  5
55
  2
LiberationMono-Bold
 70
0
 40
0.0
 41
1.0
 50
0.0
 71
0
 42
2.5
  3
LiberationMono-Bold.ttf
  4

  0
STYLE
  5
56
  2
LiberationMono-BoldItalic
 70
0
 40
0.0
 41
1.0
 50
0.0
 71
0
 42
2.5
  3
LiberationMono-BoldItalic.ttf
  4

  0
STYLE
  5
57
  2
LiberationMono-Italic
 70
0
 40
0.0
 41
1.0
 50
0.0
 71
0
 42
2.5
  3
LiberationMono-Italic.ttf
  4

  0
ENDTAB
  0
TABLE
  2
VIEW
 70
0
  0
ENDTAB
  0
TABLE
  2
UCS
 70
0
  0
ENDTAB
  0
TABLE
  2
APPID
 70
3
  0
APPID
  5
2A
  2
ACAD
 70
0
  0
APPID
  5
241
  2
HATCHBACKGROUNDCOLOR
 70
0
  0
APPID
  5
242
  2
EZDXF
 70
0
  0
ENDTAB
  0
TABLE
  2
DIMSTYLE
 70
12
  0
DIMSTYLE
105
2B
  2
Standard
 70
0
  3

  4

  5

  6

  7

 40
1.0
 41
2.5
 42
0.625
 43
3.75
 44
1.25
 45
0.0
 46
0.0
 47
0.0
 48
0.0
140
2.5
141
2.5
142
0.0
143
0.03937007874
144
1.0
145
0.0
146
1.0
147
0.625
 71
0
 72
0
 73
0
 74
0
 75
0
 76
0
 77
1
 78
8
170
0
171
3
172
1
173
0
174
0
175
0
176
0
177
0
178
0
  0
DIMSTYLE
105
71
  2
EZDXF
 70
0
  3

  4

  5
ARCHTICK
  6

  7

 40
1.0
 41
0.175
 42
0.125
 43
3.75
 44
0.375
 45
0.0
 46
0.0
 47
0.0
 48
0.0
140
0.25
141
2.5
142
0.0
143
0.03937007874
144
100.0
145
0.0
146
0.5
147
0.1
 71
0
 72
0
 73
0
 74
0
 75
0
 76
0
 77
1
 78
12
170
0
171
3
172
1
173
0
174
0
175
0
176
0
177
0
178
0
  0
DIMSTYLE
105
7D
  2
EZ_M_100_H25_CM
 70
0
  3

  4

  5

  6

  7

 40
1.0
 41
0.25
 42
0.125
 43
3.75
 44
0.375
 45
0.0
 46
0.0
 47
0.0
 48
0.0
140
0.25
141
2.5
142
0.125
143
0.03937007874
144
100.0
145
0.0
146
0.5
147
0.1
 71
0
 72
0
 73
0
 74
0
 75
0
 76
0
 77
1
 78
12
170
0
171
3
172
1
173
0
174
0
175
0
176
0
177
0
178
0
  0
DIMSTYLE
105
7E
  2
EZ_M_50_H25_CM
 70
0
  3

  4

  5

  6

  7

 40
1.0
 41
0.125
 42
0.0625
 43
3.75
 44
0.1875
 45
0.0
 46
0.0
 47
0.0
 48
0.0
140
0.125
141
2.5
142
0.0625
143
0.03937007874
144
100.0
145
0.0
146
0.5
147
0.05
 71
0
 72
0
 73
0
 74
0
 75
0
 76
0
 77
1
 78
12
170
0
171
3
172
1
173
0
174
0
175
0
176
0
177
0
178
0
  0
DIMSTYLE
105
7F
  2
EZ_M_25_H25_CM
 70
0
  3

  4

  5

  6

  7

 40
1.0
 41
0.0625
 42
0.03125
 43
3.75
 44
0.09375
 45
0.0
 46
0.0
 47
0.0
 48
0.0
140
0.0625
141
2.5
142
0.03125
143
0.03937007874
144
100.0
145
0.0
146
0.5
147
0.025
 71
0
 72
0
 73
0
 74
0
 75
0
 76
0
 77
1
 78
12
170
0
171
3
172
1
173
0
174
0
175
0
176
0
177
0
178
0
  0
DIMSTYLE
105
80
  2
EZ_M_20_H25_CM
 70
0
  3

  4

  5

  6

  7

 40
1.0
 41
0.05
 42
0.025
 43
3.75
 44
0.07500000000000001
 45
0.0
 46
0.0
 47
0.0
 48
0.0
140
0.05
141
2.5
142
0.025
143
0.03937007874
144
100.0
145
0.0
146
0.5
147
0.020000000000000004
 71
0
 72
0
 73
0
 74
0
 75
0
 76
0
 77
1
 78
12
170
0
171
3
172
1
173
0
174
0
175
0
176
0
177
0
178
0
  0
DIMSTYLE
105
81
  2
EZ_M_10_H25_CM
 70
0
  3

  4

  5

  6

  7

 40
1.0
 41
0.025
 42
0.0125
 43
3.75
 44
0.037500000000000006
 45
0.0
 46
0.0
 47
0.0
 48
0.0
140
0.025
141
2.5
142
0.0125
143
0.03937007874
144
100.0
145
0.0
146
0.5
147
0.010000000000000002
 71
0
 72
0
 73
0
 74
0
 75
0
 76
0
 77
1
 78
12
170
0
171
3
172
1
173
0
174
0
175
0
176
0
177
0
178
0
  0
DIMSTYLE
105
82
  2
EZ_M_5_H25_CM
 70
0
  3

  4

  5

  6

  7

 40
1.0
 41
0.0125
 42
0.00625
 43
3.75
 44
0.018750000000000003
 45
0.0
 46
0.0
 47
0.0
 48
0.0
140
0.0125
141
2.5
142
0.00625
143
0.03937007874
144
100.0
145
0.0
146
0.5
147
0.005000000000000001
 71
0
 72
0
 73
0
 74
0
 75
0
 76
0
 77
1
 78
12
170
0
171
3
172
1
173
0
174
0
175
0
176
0
177
0
178
0
  0
DIMSTYLE
105
83
  2
EZ_M_1_H25_CM
 70
0
  3

  4

  5

  6

  7

 40
1.0
 41
0.0025
 42
0.00125
 43
3.75
 44
0.00375
 45
0.0
 46
0.0
 47
0.0
 48
0.0
140
0.0025
141
2.5
142
0.00125
143
0.03937007874
144
100.0
145
0.0
146
0.5
147
0.001
 71
0
 72
0
 73
0
 74
0
 75
0
 76
0
 77
1
 78
12
170
0
171
3
172
1
173
0
174
0
175
0
176
0
177
0
178
0
  0
DIMSTYLE
105
84
  2
EZ_RADIUS
 70
0
  3

  4

  5
CLOSEDBLANK
  6

  7

 40
1.0
 41
0.25
 42
0.125
 43
3.75
 44
0.375
 45
0.0
 46
0.0
 47
0.0
 48
0.0
140
0.25
141
0.0
142
0.0
143
0.03937007874
144
100.0
145
0.0
146
0.5
147
0.1
 71
0
 72
0
 73
0
 74
0
 75
0
 76
0
 77
1
 78
12
170
0
171
3
172
0
173
0
174
0
175
0
176
0
177
0
178
0
  0
DIMSTYLE
105
8D
  2
EZ_RADIUS_INSIDE
 70
0
  3

  4

  5
CLOSEDBLANK
  6

  7

 40
1.0
 41
0.25
 42
0.125
 43
3.75
 44
0.375
 45
0.0
 46
0.0
 47
0.0
 48
0.0
140
0.25
141
0.0
142
0.0
143
0.03937007874
144
100.0
145
0.0
146
0.5
147
0.1
 71
0
 72
0
 73
0
 74
0
 75
0
 76
0
 77
0
 78
12
170
0
171
3
172
0
173
0
174
1
175
0
176
0
177
0
178
0
  0
DIMSTYLE
105
8E
  2
EZ_CURVED
 70
0
  3

  4

  5

  6

  7

 40
1.0
 41
0.25
 42
0.125
 43
3.75
 44
0.375
 45
0.0
 46
0.0
 47
0.0
 48
0.0
140
0.25
141
2.5
142
0.0
143
0.03937007874
144
100.0
145
0.0
146
0.5
147
0.1
 71
0
 72
0
 73
0
 74
0
 75
0
 76
0
 77
1
 78
12
170
0
171
3
172
1
173
0
174
0
175
0
176
0
177
0
178
0
  0
ENDTAB
  0
ENDSEC
  0
SECTION
  2
BLOCKS
  0
BLOCK
  5
18
  8
0
  2
$Model_Space
 70
0
 10
0.0
 20
0.0
 30
0.0
  3
$Model_Space
  1

1001
EZDXF
1000
CREATED_BY_EZDXF
1000
1.1.1 @ 2023-10-27T01:51:57.551073+00:00
1000
WRITTEN_BY_EZDXF
1000
1.1.1 @ 2023-10-27T01:51:57.564997+00:00
  0
ENDBLK
  5
19
  8
0
  0
BLOCK
  5
1C
  8
0
  2
$Paper_Space
 70
0
 10
0.0
 20
0.0
 30
0.0
  3
$Paper_Space
  1

  0
ENDBLK
  5
1D
  8
0
  0
BLOCK
  5
73
  8
0
  2
_ARCHTICK
 70
0
 10
0.0
 20
0.0
 30
0.0
  3
_ARCHTICK
  1

  0
POLYLINE
  5
75
  8
0
  6
BYBLOCK
 62
0
 66
1
 10
0.0
 20
0.0
 30
0.0
 70
0
 40
0.15
 41
0.15
  0
VERTEX
  5
77
  8
0
  6
BYBLOCK
 10
-0.5
 20
-0.5000000000000001
 30
0.0
 70
0
  0
VERTEX
  5
78
  8
0
  6
BYBLOCK
 10
0.5000000000000001
 20
0.5000000000000001
 30
0.0
 70
0
  0
SEQEND
  5
76
  8
0
  0
ENDBLK
  5
74
  8
0
  0
BLOCK
  5
7A
  8
0
  2
_CLOSEDFILLED
 70
0
 10
0.0
 20
0.0
 30
0.0
  3
_CLOSEDFILLED
  1

  0
SOLID
  5
7C
  8
0
  6
BYBLOCK
 62
0
 10
-1.0
 20
0.1643989837240255
 30
0.0
 11
0.0
 21
0.0
 31
0.0
 12
-1.0
 22
-0.1643989837240255
 32
0.0
 13
-1.0
 23
-0.1643989837240255
 33
0.0
  0
ENDBLK
  5
7B
  8
0
  0
BLOCK
  5
86
  8
0
  2
_CLOSEDBLANK
 70
0
 10
0.0
 20
0.0
 30
0.0
  3
_CLOSEDBLANK
  1

  0
POLYLINE
  5
88
  8
0
  6
BYBLOCK
 62
0
 66
1
 10
0.0
 20
0.0
 30
0.0
 70
1
  0
VERTEX
  5
8A
  8
0
  6
BYBLOCK
 10
-1.0
 20
0.1643989837240255
 30
0.0
 70
0
  0
VERTEX
  5
8B
  8
0
  6
BYBLOCK
 10
0.0
 20
0.0
 30
0.0
 70
0
  0
VERTEX
  5
8C
  8
0
  6
BYBLOCK
 10
-1.0
 20
-0.1643989837240255
 30
0.0
 70
0
  0
SEQEND
  5
89
  8
0
  0
ENDBLK
  5
87
  8
0
  0
ENDSEC
  0
SECTION
  2
ENTITIES
  0
POLYLINE
  5
90
  8
0
 62
1
 66
1
 10
0.0
 20
0.0
 30
0.0
 70
1
  0
VERTEX
  5
92
  8
0
 10
5.0
 20
5.0
 30
0.0
 70
0
  0
VERTEX
  5
93
  8
0
 10
10.0
 20
5.0
 30
0.0
 70
0
  0
VERTEX
  5
94
  8
0
 10
10.0
 20
10.0
 30
0.0
 70
0
  0
VERTEX
  5
95
  8
0
 10
5.0
 20
10.0
 30
0.0
 70
0
  0
SEQEND
  5
91
  8
0
  0
CIRCLE
  5
96
  8
0
 62
3
 10
10.0
 20
5.0
 30
0.0
 40
2.5
  0
POLYLINE
  5
97
  8
0
 62
4
 66
1
 10
0.0
 20
0.0
 30
0.0
 70
1
  0
VERTEX
  5
99
  8
0
 10
10.0
 20
7.5
 30
0.0
 70
0
  0
VERTEX
  5
9A
  8
0
 10
15.0
 20
5.0
 30
0.0
 70
0
  0
VERTEX
  5
9B
  8
0
 10
15.0
 20
10.0
 30
0.0
 70
0
  0
SEQEND
  5
98
  8
0
  0
POLYLINE
  5
9C
  8
0
 62
6
 66
1
 10
0.0
 20
0.0
 30
0.0
 70
16
 71
20
 72
20
  0
VERTEX
  5
9E
  8
0
 10
30.0
 20
30.0
 30
0.0
 70
64
  0
VERTEX
  5
9F
  8
0
 10
30.0
 20
31.0
 30
0.0
 70
64
  0
VERTEX
  5
A0
  8
0
 10
30.0
 20
32.0
 30
0.0
 70
64
  0
VERTEX
  5
A1
  8
0
 10
30.0
 20
33.0
 30
0.0
 70
64
  0
VERTEX
  5
A2
  8
0
 10
30.0
 20
34.0
 30
0.0
 70
64
  0
VERTEX
  5
A3
  8
0
 10
30.0
 20
35.0
 30
0.0
 70
64
  0
VERTEX
  5
A4
  8
0
 10
30.0
 20
36.0
 30
0.0
 70
64
  0
VERTEX
  5
A5
  8
0
 10
30.0
 20
37.0
 30
0.0
 70
64
  0
VERTEX
  5
A6
  8
0
 10
30.0
 20
38.0
 30
0.0
 70
64
  0
VERTEX
  5
A7
  8
0
 10
30.0
 20
39.0
 30
0.0
 70
64
  0
VERTEX
  5
A8
  8
0
 10
30.0
 20
40.0
 30
0.0
 70
64
  0
VERTEX
  5
A9
  8
0
 10
30.0
 20
41.0
 30
-0.0
 70
64
  0
VERTEX
  5
AA
  8
0
 10
30.0
 20
42.0
 30
-0.0
 70
64
  0
VERTEX
  5
AB
  8
0
 10
30.0
 20
43.0
 30
-0.0
 70
64
  0
VERTEX
  5
AC
  8
0
 10
30.0
 20
44.0
 30
-0.0
 70
64
  0
VERTEX
  5
AD
  8
0
 10
30.0
 20
45.0
 30
-0.0
 70
64
  0
VERTEX
  5
AE
  8
0
 10
30.0
 20
46.0
 30
-0.0
 70
64
  0
VERTEX
  5
AF
  8
0
 10
30.0
 20
47.0
 30
-0.0
 70
64
  0
VERTEX
  5
B0
  8
0
 10
30.0
 20
48.0
 30
-0.0
 70
64
  0
VERTEX
  5
B1
  8
0
 10
30.0
 20
49.0
 30
-0.0
 70
64
  0
VERTEX
  5
B2
  8
0
 10
31.0
 20
30.0
 30
0.46930339512069263
 70
64
  0
VERTEX
  5
B3
  8
0
 10
31.0
 20
31.0
 30
0.4635254915624212
 70
64
  0
VERTEX
  5
B4
  8
0
 10
31.0
 20
32.0
 30
0.44633405204897386
 70
64
  0
VERTEX
  5
B5
  8
0
 10
31.0
 20
33.0
 30
0.41815238687628864
 70
64
  0
VERTEX
  5
B6
  8
0
 10
31.0
 20
34.0
 30
0.3796744221705012
 70
64
  0
VERTEX
  5
B7
  8
0
 10
31.0
 20
35.0
 30
0.33184761312371147
 70
64
  0
VERTEX
  5
B8
  8
0
 10
31.0
 20
36.0
 30
0.27584961450273054
 70
64
  0
VERTEX
  5
B9
  8
0
 10
31.0
 20
37.0
 30
0.21305928288030923
 70
64
  0
VERTEX
  5
BA
  8
0
 10
31.0
 20
38.0
 30
0.1450227246101548
 70
64
  0
VERTEX
  5
BB
  8
0
 10
31.0
 20
39.0
 30
0.07341522555726968
 70
64
  0
VERTEX
  5
BC
  8
0
 10
31.0
 20
40.0
 30
2.873654503317709e-17
 70
64
  0
VERTEX
  5
BD
  8
0
 10
31.0
 20
41.0
 30
-0.07341522555726962
 70
64
  0
VERTEX
  5
BE
  8
0
 10
31.0
 20
42.0
 30
-0.14502272461015475
 70
64
  0
VERTEX
  5
BF
  8
0
 10
31.0
 20
43.0
 30
-0.2130592828803092
 70
64
  0
VERTEX
  5
C0
  8
0
 10
31.0
 20
44.0
 30
-0.27584961450273043
 70
64
  0
VERTEX
  5
C1
  8
0
 10
31.0
 20
45.0
 30
-0.3318476131237114
 70
64
  0
VERTEX
  5
C2
  8
0
 10
31.0
 20
46.0
 30
-0.37967442217050107
 70
64
  0
VERTEX
  5
C3
  8
0
 10
31.0
 20
47.0
 30
-0.41815238687628853
 70
64
  0
VERTEX
  5
C4
  8
0
 10
31.0
 20
48.0
 30
-0.44633405204897386
 70
64
  0
VERTEX
  5
C5
  8
0
 10
31.0
 20
49.0
 30
-0.46352549156242107
 70
64
  0
VERTEX
  5
C6
  8
0
 10
32.0
 20
30.0
 30
0.9270509831248421
 70
64
  0
VERTEX
  5
C7
  8
0
 10
32.0
 20
31.0
 30
0.9156374471696664
 70
64
  0
VERTEX
  5
C8
  8
0
 10
32.0
 20
32.0
 30
0.8816778784387096
 70
64
  0
VERTEX
  5
C9
  8
0
 10
32.0
 20
33.0
 30
0.8260084742194749
 70
64
  0
VERTEX
  5
CA
  8
0
 10
32.0
 20
34.0
 30
0.7499999999999999
 70
64
  0
VERTEX
  5
CB
  8
0
 10
32.0
 20
35.0
 30
0.6555240366732316
 70
64
  0
VERTEX
  5
CC
  8
0
 10
32.0
 20
36.0
 30
0.5449068960040206
 70
64
  0
VERTEX
  5
CD
  8
0
 10
32.0
 20
37.0
 30
0.4208723391128853
 70
64
  0
VERTEX
  5
CE
  8
0
 10
32.0
 20
38.0
 30
0.2864745084375789
 70
64
  0
VERTEX
  5
CF
  8
0
 10
32.0
 20
39.0
 30
0.14502272461015484
 70
64
  0
VERTEX
  5
D0
  8
0
 10
32.0
 20
40.0
 30
5.676550095651224e-17
 70
64
  0
VERTEX
  5
D1
  8
0
 10
32.0
 20
41.0
 30
-0.14502272461015472
 70
64
  0
VERTEX
  5
D2
  8
0
 10
32.0
 20
42.0
 30
-0.2864745084375787
 70
64
  0
VERTEX
  5
D3
  8
0
 10
32.0
 20
43.0
 30
-0.42087233911288524
 70
64
  0
VERTEX
  5
D4
  8
0
 10
32.0
 20
44.0
 30
-0.5449068960040205
 70
64
  0
VERTEX
  5
D5
  8
0
 10
32.0
 20
45.0
 30
-0.6555240366732314
 70
64
  0
VERTEX
  5
D6
  8
0
 10
32.0
 20
46.0
 30
-0.7499999999999998
 70
64
  0
VERTEX
  5
D7
  8
0
 10
32.0
 20
47.0
 30
-0.8260084742194748
 70
64
  0
VERTEX
  5
D8
  8
0
 10
32.0
 20
48.0
 30
-0.8816778784387096
 70
64
  0
VERTEX
  5
D9
  8
0
 10
32.0
 20
49.0
 30
-0.9156374471696664
 70
64
  0
VERTEX
  5
DA
  8
0
 10
33.0
 20
30.0
 30
1.3619714992186402
 70
64
  0
VERTEX
  5
DB
  8
0
 10
33.0
 20
31.0
 30
1.3452033700011308
 70
64
  0
VERTEX
  5
DC
  8
0
 10
33.0
 20
32.0
 30
1.2953118693401675
 70
64
  0
VERTEX
  5
DD
  8
0
 10
33.0
 20
33.0
 30
1.213525491562421
 70
64
  0
VERTEX
  5
DE
  8
0
 10
33.0
 20
34.0
 30
1.1018580887222054
 70
64
  0
VERTEX
  5
DF
  8
0
 10
33.0
 20
35.0
 30
0.9630592828803091
 70
64
  0
VERTEX
  5
E0
  8
0
 10
33.0
 20
36.0
 30
0.8005467612833863
 70
64
  0
VERTEX
  5
E1
  8
0
 10
33.0
 20
37.0
 30
0.6183221215612903
 70
64
  0
VERTEX
  5
E2
  8
0
 10
33.0
 20
38.0
 30
0.4208723391128853
 70
64
  0
VERTEX
  5
E3
  8
0
 10
33.0
 20
39.0
 30
0.2130592828803093
 70
64
  0
VERTEX
  5
E4
  8
0
 10
33.0
 20
40.0
 30
8.339670185240148e-17
 70
64
  0
VERTEX
  5
E5
  8
0
 10
33.0
 20
41.0
 30
-0.21305928288030912
 70
64
  0
VERTEX
  5
E6
  8
0
 10
33.0
 20
42.0
 30
-0.42087233911288513
 70
64
  0
VERTEX
  5
E7
  8
0
 10
33.0
 20
43.0
 30
-0.6183221215612902
 70
64
  0
VERTEX
  5
E8
  8
0
 10
33.0
 20
44.0
 30
-0.8005467612833862
 70
64
  0
VERTEX
  5
E9
  8
0
 10
33.0
 20
45.0
 30
-0.9630592828803091
 70
64
  0
VERTEX
  5
EA
  8
0
 10
33.0
 20
46.0
 30
-1.1018580887222051
 70
64
  0
VERTEX
  5
EB
  8
0
 10
33.0
 20
47.0
 30
-1.2135254915624207
 70
64
  0
VERTEX
  5
EC
  8
0
 10
33.0
 20
48.0
 30
-1.2953118693401675
 70
64
  0
VERTEX
  5
ED
  8
0
 10
33.0
 20
49.0
 30
-1.3452033700011305
 70
64
  0
VERTEX
  5
EE
  8
0
 10
34.0
 20
30.0
 30
1.7633557568774194
 70
64
  0
VERTEX
  5
EF
  8
0
 10
34.0
 20
31.0
 30
1.7416459213891415
 70
64
  0
VERTEX
  5
F0
  8
0
 10
34.0
 20
32.0
 30
1.6770509831248424
 70
64
  0
VERTEX
  5
F1
  8
0
 10
34.0
 20
33.0
 30
1.5711614838428982
 70
64
  0
VERTEX
  5
F2
  8
0
 10
34.0
 20
34.0
 30
1.4265847744427305
 70
64
  0
VERTEX
  5
F3
  8
0
 10
34.0
 20
35.0
 30
1.2468808133323603
 70
64
  0
VERTEX
  5
F4
  8
0
 10
34.0
 20
36.0
 30
1.0364745084375788
 70
64
  0
VERTEX
  5
F5
  8
0
 10
34.0
 20
37.0
 30
0.8005467612833863
 70
64
  0
VERTEX
  5
F6
  8
0
 10
34.0
 20
38.0
 30
0.5449068960040208
 70
64
  0
VERTEX
  5
F7
  8
0
 10
34.0
 20
39.0
 30
0.2758496145027306
 70
64
  0
VERTEX
  5
F8
  8
0
 10
34.0
 20
40.0
 30
1.079743991708995e-16
 70
64
  0
VERTEX
  5
F9
  8
0
 10
34.0
 20
41.0
 30
-0.2758496145027304
 70
64
  0
VERTEX
  5
FA
  8
0
 10
34.0
 20
42.0
 30
-0.5449068960040205
 70
64
  0
VERTEX
  5
FB
  8
0
 10
34.0
 20
43.0
 30
-0.8005467612833863
 70
64
  0
VERTEX
  5
FC
  8
0
 10
34.0
 20
44.0
 30
-1.0364745084375786
 70
64
  0
VERTEX
  5
FD
  8
0
 10
34.0
 20
45.0
 30
-1.2468808133323601
 70
64
  0
VERTEX
  5
FE
  8
0
 10
34.0
 20
46.0
 30
-1.4265847744427302
 70
64
  0
VERTEX
  5
FF
  8
0
 10
34.0
 20
47.0
 30
-1.5711614838428982
 70
64
  0
VERTEX
  5
100
  8
0
 10
34.0
 20
48.0
 30
-1.6770509831248424
 70
64
  0
VERTEX
  5
101
  8
0
 10
34.0
 20
49.0
 30
-1.7416459213891413
 70
64
  0
VERTEX
  5
102
  8
0
 10
35.0
 20
30.0
 30
2.121320343559643
 70
64
  0
VERTEX
  5
103
  8
0
 10
35.0
 20
31.0
 30
2.095203370001131
 70
64
  0
VERTEX
  5
104
  8
0
 10
35.0
 20
32.0
 30
2.017495535891872
 70
64
  0
VERTEX
  5
105
  8
0
 10
35.0
 20
33.0
 30
1.8901102660051516
 70
64
  0
VERTEX
  5
106
  8
0
 10
35.0
 20
34.0
 30
1.7161842084530532
 70
64
  0
VERTEX
  5
107
  8
0
 10
35.0
 20
35.0
 30
1.5000000000000004
 70
64
  0
VERTEX
  5
108
  8
0
 10
35.0
 20
36.0
 30
1.2468808133323603
 70
64
  0
VERTEX
  5
109
  8
0
 10
35.0
 20
37.0
 30
0.9630592828803093
 70
64
  0
VERTEX
  5
10A
  8
0
 10
35.0
 20
38.0
 30
0.6555240366732318
 70
64
  0
VERTEX
  5
10B
  8
0
 10
35.0
 20
39.0
 30
0.3318476131237116
 70
64
  0
VERTEX
  5
10C
  8
0
 10
35.0
 20
40.0
 30
1.29893408435324e-16
 70
64
  0
VERTEX
  5
10D
  8
0
 10
35.0
 20
41.0
 30
-0.33184761312371136
 70
64
  0
VERTEX
  5
10E
  8
0
 10
35.0
 20
42.0
 30
-0.6555240366732314
 70
64
  0
VERTEX
  5
10F
  8
0
 10
35.0
 20
43.0
 30
-0.9630592828803091
 70
64
  0
VERTEX
  5
110
  8
0
 10
35.0
 20
44.0
 30
-1.2468808133323601
 70
64
  0
VERTEX
  5
111
  8
0
 10
35.0
 20
45.0
 30
-1.5
 70
64
  0
VERTEX
  5
112
  8
0
 10
35.0
 20
46.0
 30
-1.7161842084530528
 70
64
  0
VERTEX
  5
113
  8
0
 10
35.0
 20
47.0
 30
-1.8901102660051512
 70
64
  0
VERTEX
  5
114
  8
0
 10
35.0
 20
48.0
 30
-2.017495535891872
 70
64
  0
VERTEX
  5
115
  8
0
 10
35.0
 20
49.0
 30
-2.0952033700011308
 70
64
  0
VERTEX
  5
116
  8
0
 10
36.0
 20
30.0
 30
2.4270509831248424
 70
64
  0
VERTEX
  5
117
  8
0
 10
36.0
 20
31.0
 30
2.3971699580623733
 70
64
  0
VERTEX
  5
118
  8
0
 10
36.0
 20
32.0
 30
2.30826265288144
 70
64
  0
VERTEX
  5
119
  8
0
 10
36.0
 20
33.0
 30
2.1625182605020266
 70
64
  0
VERTEX
  5
11A
  8
0
 10
36.0
 20
34.0
 30
1.9635254915624212
 70
64
  0
VERTEX
  5
11B
  8
0
 10
36.0
 20
35.0
 30
1.7161842084530532
 70
64
  0
VERTEX
  5
11C
  8
0
 10
36.0
 20
36.0
 30
1.4265847744427305
 70
64
  0
VERTEX
  5
11D
  8
0
 10
36.0
 20
37.0
 30
1.1018580887222056
 70
64
  0
VERTEX
  5
11E
  8
0
 10
36.0
 20
38.0
 30
0.7500000000000002
 70
64
  0
VERTEX
  5
11F
  8
0
 10
36.0
 20
39.0
 30
0.37967442217050124
 70
64
  0
VERTEX
  5
120
  8
0
 10
36.0
 20
40.0
 30
1.4861401089256375e-16
 70
64
  0
VERTEX
  5
121
  8
0
 10
36.0
 20
41.0
 30
-0.37967442217050096
 70
64
  0
VERTEX
  5
122
  8
0
 10
36.0
 20
42.0
 30
-0.7499999999999998
 70
64
  0
VERTEX
  5
123
  8
0
 10
36.0
 20
43.0
 30
-1.1018580887222054
 70
64
  0
VERTEX
  5
124
  8
0
 10
36.0
 20
44.0
 30
-1.42658477444273
 70
64
  0
VERTEX
  5
125
  8
0
 10
36.0
 20
45.0
 30
-1.7161842084530528
 70
64
  0
VERTEX
  5
126
  8
0
 10
36.0
 20
46.0
 30
-1.9635254915624207
 70
64
  0
VERTEX
  5
127
  8
0
 10
36.0
 20
47.0
 30
-2.1625182605020266
 70
64
  0
VERTEX
  5
128
  8
0
 10
36.0
 20
48.0
 30
-2.30826265288144
 70
64
  0
VERTEX
  5
129
  8
0
 10
36.0
 20
49.0
 30
-2.397169958062373
 70
64
  0
VERTEX
  5
12A
  8
0
 10
37.0
 20
30.0
 30
2.6730195725651034
 70
64
  0
VERTEX
  5
12B
  8
0
 10
37.0
 20
31.0
 30
2.640110266005151
 70
64
  0
VERTEX
  5
12C
  8
0
 10
37.0
 20
32.0
 30
2.5421926826725274
 70
64
  0
VERTEX
  5
12D
  8
0
 10
37.0
 20
33.0
 30
2.3816778784387096
 70
64
  0
VERTEX
  5
12E
  8
0
 10
37.0
 20
34.0
 30
2.1625182605020266
 70
64
  0
VERTEX
  5
12F
  8
0
 10
37.0
 20
35.0
 30
1.8901102660051512
 70
64
  0
VERTEX
  5
130
  8
0
 10
37.0
 20
36.0
 30
1.5711614838428982
 70
64
  0
VERTEX
  5
131
  8
0
 10
37.0
 20
37.0
 30
1.213525491562421
 70
64
  0
VERTEX
  5
132
  8
0
 10
37.0
 20
38.0
 30
0.8260084742194749
 70
64
  0
VERTEX
  5
133
  8
0
 10
37.0
 20
39.0
 30
0.4181523868762887
 70
64
  0
VERTEX
  5
134
  8
0
 10
37.0
 20
40.0
 30
1.6367524318000401e-16
 70
64
  0
VERTEX
  5
135
  8
0
 10
37.0
 20
41.0
 30
-0.41815238687628836
 70
64
  0
VERTEX
  5
136
  8
0
 10
37.0
 20
42.0
 30
-0.8260084742194748
 70
64
  0
VERTEX
  5
137
  8
0
 10
37.0
 20
43.0
 30
-1.2135254915624207
 70
64
  0
VERTEX
  5
138
  8
0
 10
37.0
 20
44.0
 30
-1.5711614838428978
 70
64
  0
VERTEX
  5
139
  8
0
 10
37.0
 20
45.0
 30
-1.8901102660051512
 70
64
  0
VERTEX
  5
13A
  8
0
 10
37.0
 20
46.0
 30
-2.1625182605020266
 70
64
  0
VERTEX
  5
13B
  8
0
 10
37.0
 20
47.0
 30
-2.381677878438709
 70
64
  0
VERTEX
  5
13C
  8
0
 10
37.0
 20
48.0
 30
-2.5421926826725274
 70
64
  0
VERTEX
  5
13D
  8
0
 10
37.0
 20
49.0
 30
-2.640110266005151
 70
64
  0
VERTEX
  5
13E
  8
0
 10
38.0
 20
30.0
 30
2.8531695488854605
 70
64
  0
VERTEX
  5
13F
  8
0
 10
38.0
 20
31.0
 30
2.8180422971752583
 70
64
  0
VERTEX
  5
140
  8
0
 10
38.0
 20
32.0
 30
2.7135254915624207
 70
64
  0
VERTEX
  5
141
  8
0
 10
38.0
 20
33.0
 30
2.542192682672528
 70
64
  0
VERTEX
  5
142
  8
0
 10
38.0
 20
34.0
 30
2.30826265288144
 70
64
  0
VERTEX
  5
143
  8
0
 10
38.0
 20
35.0
 30
2.017495535891872
 70
64
  0
VERTEX
  5
144
  8
0
 10
38.0
 20
36.0
 30
1.6770509831248424
 70
64
  0
VERTEX
  5
145
  8
0
 10
38.0
 20
37.0
 30
1.2953118693401677
 70
64
  0
VERTEX
  5
146
  8
0
 10
38.0
 20
38.0
 30
0.8816778784387097
 70
64
  0
VERTEX
  5
147
  8
0
 10
38.0
 20
39.0
 30
0.44633405204897403
 70
64
  0
VERTEX
  5
148
  8
0
 10
38.0
 20
40.0
 30
1.7470624777336384e-16
 70
64
  0
VERTEX
  5
149
  8
0
 10
38.0
 20
41.0
 30
-0.4463340520489737
 70
64
  0
VERTEX
  5
14A
  8
0
 10
38.0
 20
42.0
 30
-0.8816778784387094
 70
64
  0
VERTEX
  5
14B
  8
0
 10
38.0
 20
43.0
 30
-1.2953118693401675
 70
64
  0
VERTEX
  5
14C
  8
0
 10
38.0
 20
44.0
 30
-1.677050983124842
 70
64
  0
VERTEX
  5
14D
  8
0
 10
38.0
 20
45.0
 30
-2.0174955358918716
 70
64
  0
VERTEX
  5
14E
  8
0
 10
38.0
 20
46.0
 30
-2.3082626528814396
 70
64
  0
VERTEX
  5
14F
  8
0
 10
38.0
 20
47.0
 30
-2.5421926826725274
 70
64
  0
VERTEX
  5
150
  8
0
 10
38.0
 20
48.0
 30
-2.7135254915624207
 70
64
  0
VERTEX
  5
151
  8
0
 10
38.0
 20
49.0
 30
-2.818042297175258
 70
64
  0
VERTEX
  5
152
  8
0
 10
39.0
 20
30.0
 30
2.9630650217854133
 70
64
  0
VERTEX
  5
153
  8
0
 10
39.0
 20
31.0
 30
2.9265847744427305
 70
64
  0
VERTEX
  5
154
  8
0
 10
39.0
 20
32.0
 30
2.8180422971752583
 70
64
  0
VERTEX
  5
155
  8
0
 10
39.0
 20
33.0
 30
2.6401102660051516
 70
64
  0
VERTEX
  5
156
  8
0
 10
39.0
 20
34.0
 30
2.3971699580623733
 70
64
  0
VERTEX
  5
157
  8
0
 10
39.0
 20
35.0
 30
2.095203370001131
 70
64
  0
VERTEX
  5
158
  8
0
 10
39.0
 20
36.0
 30
1.7416459213891415
 70
64
  0
VERTEX
  5
159
  8
0
 10
39.0
 20
37.0
 30
1.3452033700011308
 70
64
  0
VERTEX
  5
15A
  8
0
 10
39.0
 20
38.0
 30
0.9156374471696666
 70
64
  0
VERTEX
  5
15B
  8
0
 10
39.0
 20
39.0
 30
0.46352549156242134
 70
64
  0
VERTEX
  5
15C
  8
0
 10
39.0
 20
40.0
 30
1.8143540472974943e-16
 70
64
  0
VERTEX
  5
15D
  8
0
 10
39.0
 20
41.0
 30
-0.463525491562421
 70
64
  0
VERTEX
  5
15E
  8
0
 10
39.0
 20
42.0
 30
-0.9156374471696662
 70
64
  0
VERTEX
  5
15F
  8
0
 10
39.0
 20
43.0
 30
-1.3452033700011308
 70
64
  0
VERTEX
  5
160
  8
0
 10
39.0
 20
44.0
 30
-1.7416459213891413
 70
64
  0
VERTEX
  5
161
  8
0
 10
39.0
 20
45.0
 30
-2.0952033700011308
 70
64
  0
VERTEX
  5
162
  8
0
 10
39.0
 20
46.0
 30
-2.397169958062373
 70
64
  0
VERTEX
  5
163
  8
0
 10
39.0
 20
47.0
 30
-2.640110266005151
 70
64
  0
VERTEX
  5
164
  8
0
 10
39.0
 20
48.0
 30
-2.8180422971752583
 70
64
  0
VERTEX
  5
165
  8
0
 10
39.0
 20
49.0
 30
-2.92658477444273
 70
64
  0
VERTEX
  5
166
  8
0
 10
40.0
 20
30.0
 30
3.0
 70
64
  0
VERTEX
  5
167
  8
0
 10
40.0
 20
31.0
 30
2.9630650217854133
 70
64
  0
VERTEX
  5
168
  8
0
 10
40.0
 20
32.0
 30
2.8531695488854605
 70
64
  0
VERTEX
  5
169
  8
0
 10
40.0
 20
33.0
 30
2.673019572565104
 70
64
  0
VERTEX
  5
16A
  8
0
 10
40.0
 20
34.0
 30
2.4270509831248424
 70
64
  0
VERTEX
  5
16B
  8
0
 10
40.0
 20
35.0
 30
2.121320343559643
 70
64
  0
VERTEX
  5
16C
  8
0
 10
40.0
 20
36.0
 30
1.7633557568774194
 70
64
  0
VERTEX
  5
16D
  8
0
 10
40.0
 20
37.0
 30
1.3619714992186405
 70
64
  0
VERTEX
  5
16E
  8
0
 10
40.0
 20
38.0
 30
0.9270509831248424
 70
64
  0
VERTEX
  5
16F
  8
0
 10
40.0
 20
39.0
 30
0.46930339512069275
 70
64
  0
VERTEX
  5
170
  8
0
 10
40.0
 20
40.0
 30
1.8369701987210297e-16
 70
64
  0
VERTEX
  5
171
  8
0
 10
40.0
 20
41.0
 30
-0.4693033951206924
 70
64
  0
VERTEX
  5
172
  8
0
 10
40.0
 20
42.0
 30
-0.927050983124842
 70
64
  0
VERTEX
  5
173
  8
0
 10
40.0
 20
43.0
 30
-1.3619714992186402
 70
64
  0
VERTEX
  5
174
  8
0
 10
40.0
 20
44.0
 30
-1.7633557568774192
 70
64
  0
VERTEX
  5
175
  8
0
 10
40.0
 20
45.0
 30
-2.1213203435596424
 70
64
  0
VERTEX
  5
176
  8
0
 10
40.0
 20
46.0
 30
-2.427050983124842
 70
64
  0
VERTEX
  5
177
  8
0
 10
40.0
 20
47.0
 30
-2.6730195725651034
 70
64
  0
VERTEX
  5
178
  8
0
 10
40.0
 20
48.0
 30
-2.8531695488854605
 70
64
  0
VERTEX
  5
179
  8
0
 10
40.0
 20
49.0
 30
-2.963065021785413
 70
64
  0
VERTEX
  5
17A
  8
0
 10
41.0
 20
30.0
 30
2.9630650217854133
 70
64
  0
VERTEX
  5
17B
  8
0
 10
41.0
 20
31.0
 30
2.9265847744427305
 70
64
  0
VERTEX
  5
17C
  8
0
 10
41.0
 20
32.0
 30
2.8180422971752583
 70
64
  0
VERTEX
  5
17D
  8
0
 10
41.0
 20
33.0
 30
2.6401102660051516
 70
64
  0
VERTEX
  5
17E
  8
0
 10
41.0
 20
34.0
 30
2.3971699580623733
 70
64
  0
VERTEX
  5
17F
  8
0
 10
41.0
 20
35.0
 30
2.095203370001131
 70
64
  0
VERTEX
  5
180
  8
0
 10
41.0
 20
36.0
 30
1.7416459213891415
 70
64
  0
VERTEX
  5
181
  8
0
 10
41.0
 20
37.0
 30
1.3452033700011308
 70
64
  0
VERTEX
  5
182
  8
0
 10
41.0
 20
38.0
 30
0.9156374471696666
 70
64
  0
VERTEX
  5
183
  8
0
 10
41.0
 20
39.0
 30
0.46352549156242134
 70
64
  0
VERTEX
  5
184
  8
0
 10
41.0
 20
40.0
 30
1.8143540472974943e-16
 70
64
  0
VERTEX
  5
185
  8
0
 10
41.0
 20
41.0
 30
-0.463525491562421
 70
64
  0
VERTEX
  5
186
  8
0
 10
41.0
 20
42.0
 30
-0.9156374471696662
 70
64
  0
VERTEX
  5
187
  8
0
 10
41.0
 20
43.0
 30
-1.3452033700011308
 70
64
  0
VERTEX
  5
188
  8
0
 10
41.0
 20
44.0
 30
-1.7416459213891413
 70
64
  0
VERTEX
  5
189
  8
0
 10
41.0
 20
45.0
 30
-2.0952033700011308
 70
64
  0
VERTEX
  5
18A
  8
0
 10
41.0
 20
46.0
 30
-2.397169958062373
 70
64
  0
VERTEX
  5
18B
  8
0
 10
41.0
 20
47.0
 30
-2.640110266005151
 70
64
  0
VERTEX
  5
18C
  8
0
 10
41.0
 20
48.0
 30
-2.8180422971752583
 70
64
  0
VERTEX
  5
18D
  8
0
 10
41.0
 20
49.0
 30
-2.92658477444273
 70
64
  0
VERTEX
  5
18E
  8
0
 10
42.0
 20
30.0
 30
2.853169548885461
 70
64
  0
VERTEX
  5
18F
  8
0
 10
42.0
 20
31.0
 30
2.818042297175259
 70
64
  0
VERTEX
  5
190
  8
0
 10
42.0
 20
32.0
 30
2.713525491562421
 70
64
  0
VERTEX
  5
191
  8
0
 10
42.0
 20
33.0
 30
2.5421926826725283
 70
64
  0
VERTEX
  5
192
  8
0
 10
42.0
 20
34.0
 30
2.30826265288144
 70
64
  0
VERTEX
  5
193
  8
0
 10
42.0
 20
35.0
 30
2.017495535891872
 70
64
  0
VERTEX
  5
194
  8
0
 10
42.0
 20
36.0
 30
1.6770509831248424
 70
64
  0
VERTEX
  5
195
  8
0
 10
42.0
 20
37.0
 30
1.2953118693401677
 70
64
  0
VERTEX
  5
196
  8
0
 10
42.0
 20
38.0
 30
0.8816778784387098
 70
64
  0
VERTEX
  5
197
  8
0
 10
42.0
 20
39.0
 30
0.44633405204897414
 70
64
  0
VERTEX
  5
198
  8
0
 10
42.0
 20
40.0
 30
1.747062477733639e-16
 70
64
  0
VERTEX
  5
199
  8
0
 10
42.0
 20
41.0
 30
-0.4463340520489738
 70
64
  0
VERTEX
  5
19A
  8
0
 10
42.0
 20
42.0
 30
-0.8816778784387096
 70
64
  0
VERTEX
  5
19B
  8
0
 10
42.0
 20
43.0
 30
-1.2953118693401677
 70
64
  0
VERTEX
  5
19C
  8
0
 10
42.0
 20
44.0
 30
-1.677050983124842
 70
64
  0
VERTEX
  5
19D
  8
0
 10
42.0
 20
45.0
 30
-2.0174955358918716
 70
64
  0
VERTEX
  5
19E
  8
0
 10
42.0
 20
46.0
 30
-2.3082626528814396
 70
64
  0
VERTEX
  5
19F
  8
0
 10
42.0
 20
47.0
 30
-2.542192682672528
 70
64
  0
VERTEX
  5
1A0
  8
0
 10
42.0
 20
48.0
 30
-2.713525491562421
 70
64
  0
VERTEX
  5
1A1
  8
0
 10
42.0
 20
49.0
 30
-2.8180422971752583
 70
64
  0
VERTEX
  5
1A2
  8
0
 10
43.0
 20
30.0
 30
2.673019572565104
 70
64
  0
VERTEX
  5
1A3
  8
0
 10
43.0
 20
31.0
 30
2.6401102660051516
 70
64
  0
VERTEX
  5
1A4
  8
0
 10
43.0
 20
32.0
 30
2.542192682672528
 70
64
  0
VERTEX
  5
1A5
  8
0
 10
43.0
 20
33.0
 30
2.38167787843871
 70
64
  0
VERTEX
  5
1A6
  8
0
 10
43.0
 20
34.0
 30
2.1625182605020266
 70
64
  0
VERTEX
  5
1A7
  8
0
 10
43.0
 20
35.0
 30
1.8901102660051516
 70
64
  0
VERTEX
  5
1A8
  8
0
 10
43.0
 20
36.0
 30
1.5711614838428982
 70
64
  0
VERTEX
  5
1A9
  8
0
 10
43.0
 20
37.0
 30
1.2135254915624212
 70
64
  0
VERTEX
  5
1AA
  8
0
 10
43.0
 20
38.0
 30
0.8260084742194751
 70
64
  0
VERTEX
  5
1AB
  8
0
 10
43.0
 20
39.0
 30
0.4181523868762887
 70
64
  0
VERTEX
  5
1AC
  8
0
 10
43.0
 20
40.0
 30
1.6367524318000401e-16
 70
64
  0
VERTEX
  5
1AD
  8
0
 10
43.0
 20
41.0
 30
-0.4181523868762884
 70
64
  0
VERTEX
  5
1AE
  8
0
 10
43.0
 20
42.0
 30
-0.8260084742194748
 70
64
  0
VERTEX
  5
1AF
  8
0
 10
43.0
 20
43.0
 30
-1.213525491562421
 70
64
  0
VERTEX
  5
1B0
  8
0
 10
43.0
 20
44.0
 30
-1.5711614838428978
 70
64
  0
VERTEX
  5
1B1
  8
0
 10
43.0
 20
45.0
 30
-1.8901102660051512
 70
64
  0
VERTEX
  5
1B2
  8
0
 10
43.0
 20
46.0
 30
-2.1625182605020266
 70
64
  0
VERTEX
  5
1B3
  8
0
 10
43.0
 20
47.0
 30
-2.3816778784387096
 70
64
  0
VERTEX
  5
1B4
  8
0
 10
43.0
 20
48.0
 30
-2.542192682672528
 70
64
  0
VERTEX
  5
1B5
  8
0
 10
43.0
 20
49.0
 30
-2.640110266005151
 70
64
  0
VERTEX
  5
1B6
  8
0
 10
44.0
 20
30.0
 30
2.4270509831248424
 70
64
  0
VERTEX
  5
1B7
  8
0
 10
44.0
 20
31.0
 30
2.3971699580623733
 70
64
  0
VERTEX
  5
1B8
  8
0
 10
44.0
 20
32.0
 30
2.30826265288144
 70
64
  0
VERTEX
  5
1B9
  8
0
 10
44.0
 20
33.0
 30
2.1625182605020266
 70
64
  0
VERTEX
  5
1BA
  8
0
 10
44.0
 20
34.0
 30
1.9635254915624212
 70
64
  0
VERTEX
  5
1BB
  8
0
 10
44.0
 20
35.0
 30
1.7161842084530532
 70
64
  0
VERTEX
  5
1BC
  8
0
 10
44.0
 20
36.0
 30
1.4265847744427305
 70
64
  0
VERTEX
  5
1BD
  8
0
 10
44.0
 20
37.0
 30
1.1018580887222056
 70
64
  0
VERTEX
  5
1BE
  8
0
 10
44.0
 20
38.0
 30
0.7500000000000002
 70
64
  0
VERTEX
  5
1BF
  8
0
 10
44.0
 20
39.0
 30
0.37967442217050124
 70
64
  0
VERTEX
  5
1C0
  8
0
 10
44.0
 20
40.0
 30
1.4861401089256375e-16
 70
64
  0
VERTEX
  5
1C1
  8
0
 10
44.0
 20
41.0
 30
-0.37967442217050096
 70
64
  0
VERTEX
  5
1C2
  8
0
 10
44.0
 20
42.0
 30
-0.7499999999999998
 70
64
  0
VERTEX
  5
1C3
  8
0
 10
44.0
 20
43.0
 30
-1.1018580887222054
 70
64
  0
VERTEX
  5
1C4
  8
0
 10
44.0
 20
44.0
 30
-1.42658477444273
 70
64
  0
VERTEX
  5
1C5
  8
0
 10
44.0
 20
45.0
 30
-1.7161842084530528
 70
64
  0
VERTEX
  5
1C6
  8
0
 10
44.0
 20
46.0
 30
-1.9635254915624207
 70
64
  0
VERTEX
  5
1C7
  8
0
 10
44.0
 20
47.0
 30
-2.1625182605020266
 70
64
  0
VERTEX
  5
1C8
  8
0
 10
44.0
 20
48.0
 30
-2.30826265288144
 70
64
  0
VERTEX
  5
1C9
  8
0
 10
44.0
 20
49.0
 30
-2.397169958062373
 70
64
  0
VERTEX
  5
1CA
  8
0
 10
45.0
 20
30.0
 30
2.121320343559643
 70
64
  0
VERTEX
  5
1CB
  8
0
 10
45.0
 20
31.0
 30
2.095203370001131
 70
64
  0
VERTEX
  5
1CC
  8
0
 10
45.0
 20
32.0
 30
2.017495535891872
 70
64
  0
VERTEX
  5
1CD
  8
0
 10
45.0
 20
33.0
 30
1.8901102660051516
 70
64
  0
VERTEX
  5
1CE
  8
0
 10
45.0
 20
34.0
 30
1.7161842084530532
 70
64
  0
VERTEX
  5
1CF
  8
0
 10
45.0
 20
35.0
 30
1.5000000000000004
 70
64
  0
VERTEX
  5
1D0
  8
0
 10
45.0
 20
36.0
 30
1.2468808133323603
 70
64
  0
VERTEX
  5
1D1
  8
0
 10
45.0
 20
37.0
 30
0.9630592828803093
 70
64
  0
VERTEX
  5
1D2
  8
0
 10
45.0
 20
38.0
 30
0.6555240366732318
 70
64
  0
VERTEX
  5
1D3
  8
0
 10
45.0
 20
39.0
 30
0.3318476131237116
 70
64
  0
VERTEX
  5
1D4
  8
0
 10
45.0
 20
40.0
 30
1.29893408435324e-16
 70
64
  0
VERTEX
  5
1D5
  8
0
 10
45.0
 20
41.0
 30
-0.33184761312371136
 70
64
  0
VERTEX
  5
1D6
  8
0
 10
45.0
 20
42.0
 30
-0.6555240366732314
 70
64
  0
VERTEX
  5
1D7
  8
0
 10
45.0
 20
43.0
 30
-0.9630592828803091
 70
64
  0
VERTEX
  5
1D8
  8
0
 10
45.0
 20
44.0
 30
-1.2468808133323601
 70
64
  0
VERTEX
  5
1D9
  8
0
 10
45.0
 20
45.0
 30
-1.5
 70
64
  0
VERTEX
  5
1DA
  8
0
 10
45.0
 20
46.0
 30
-1.7161842084530528
 70
64
  0
VERTEX
  5
1DB
  8
0
 10
45.0
 20
47.0
 30
-1.8901102660051512
 70
64
  0
VERTEX
  5
1DC
  8
0
 10
45.0
 20
48.0
 30
-2.017495535891872
 70
64
  0
VERTEX
  5
1DD
  8
0
 10
45.0
 20
49.0
 30
-2.0952033700011308
 70
64
  0
VERTEX
  5
1DE
  8
0
 10
46.0
 20
30.0
 30
1.7633557568774196
 70
64
  0
VERTEX
  5
1DF
  8
0
 10
46.0
 20
31.0
 30
1.741645921389142
 70
64
  0
VERTEX
  5
1E0
  8
0
 10
46.0
 20
32.0
 30
1.6770509831248428
 70
64
  0
VERTEX
  5
1E1
  8
0
 10
46.0
 20
33.0
 30
1.5711614838428984
 70
64
  0
VERTEX
  5
1E2
  8
0
 10
46.0
 20
34.0
 30
1.4265847744427307
 70
64
  0
VERTEX
  5
1E3
  8
0
 10
46.0
 20
35.0
 30
1.2468808133323606
 70
64
  0
VERTEX
  5
1E4
  8
0
 10
46.0
 20
36.0
 30
1.0364745084375793
 70
64
  0
VERTEX
  5
1E5
  8
0
 10
46.0
 20
37.0
 30
0.8005467612833865
 70
64
  0
VERTEX
  5
1E6
  8
0
 10
46.0
 20
38.0
 30
0.5449068960040209
 70
64
  0
VERTEX
  5
1E7
  8
0
 10
46.0
 20
39.0
 30
0.27584961450273066
 70
64
  0
VERTEX
  5
1E8
  8
0
 10
46.0
 20
40.0
 30
1.0797439917089951e-16
 70
64
  0
VERTEX
  5
1E9
  8
0
 10
46.0
 20
41.0
 30
-0.27584961450273043
 70
64
  0
VERTEX
  5
1EA
  8
0
 10
46.0
 20
42.0
 30
-0.5449068960040206
 70
64
  0
VERTEX
  5
1EB
  8
0
 10
46.0
 20
43.0
 30
-0.8005467612833865
 70
64
  0
VERTEX
  5
1EC
  8
0
 10
46.0
 20
44.0
 30
-1.0364745084375788
 70
64
  0
VERTEX
  5
1ED
  8
0
 10
46.0
 20
45.0
 30
-1.2468808133323603
 70
64
  0
VERTEX
  5
1EE
  8
0
 10
46.0
 20
46.0
 30
-1.4265847744427305
 70
64
  0
VERTEX
  5
1EF
  8
0
 10
46.0
 20
47.0
 30
-1.5711614838428984
 70
64
  0
VERTEX
  5
1F0
  8
0
 10
46.0
 20
48.0
 30
-1.6770509831248428
 70
64
  0
VERTEX
  5
1F1
  8
0
 10
46.0
 20
49.0
 30
-1.7416459213891415
 70
64
  0
VERTEX
  5
1F2
  8
0
 10
47.0
 20
30.0
 30
1.3619714992186407
 70
64
  0
VERTEX
  5
1F3
  8
0
 10
47.0
 20
31.0
 30
1.345203370001131
 70
64
  0
VERTEX
  5
1F4
  8
0
 10
47.0
 20
32.0
 30
1.2953118693401677
 70
64
  0
VERTEX
  5
1F5
  8
0
 10
47.0
 20
33.0
 30
1.2135254915624214
 70
64
  0
VERTEX
  5
1F6
  8
0
 10
47.0
 20
34.0
 30
1.1018580887222058
 70
64
  0
VERTEX
  5
1F7
  8
0
 10
47.0
 20
35.0
 30
0.9630592828803095
 70
64
  0
VERTEX
  5
1F8
  8
0
 10
47.0
 20
36.0
 30
0.8005467612833865
 70
64
  0
VERTEX
  5
1F9
  8
0
 10
47.0
 20
37.0
 30
0.6183221215612904
 70
64
  0
VERTEX
  5
1FA
  8
0
 10
47.0
 20
38.0
 30
0.42087233911288535
 70
64
  0
VERTEX
  5
1FB
  8
0
 10
47.0
 20
39.0
 30
0.21305928288030934
 70
64
  0
VERTEX
  5
1FC
  8
0
 10
47.0
 20
40.0
 30
8.339670185240149e-17
 70
64
  0
VERTEX
  5
1FD
  8
0
 10
47.0
 20
41.0
 30
-0.21305928288030918
 70
64
  0
VERTEX
  5
1FE
  8
0
 10
47.0
 20
42.0
 30
-0.42087233911288524
 70
64
  0
VERTEX
  5
1FF
  8
0
 10
47.0
 20
43.0
 30
-0.6183221215612904
 70
64
  0
VERTEX
  5
200
  8
0
 10
47.0
 20
44.0
 30
-0.8005467612833863
 70
64
  0
VERTEX
  5
201
  8
0
 10
47.0
 20
45.0
 30
-0.9630592828803093
 70
64
  0
VERTEX
  5
202
  8
0
 10
47.0
 20
46.0
 30
-1.1018580887222056
 70
64
  0
VERTEX
  5
203
  8
0
 10
47.0
 20
47.0
 30
-1.2135254915624212
 70
64
  0
VERTEX
  5
204
  8
0
 10
47.0
 20
48.0
 30
-1.2953118693401677
 70
64
  0
VERTEX
  5
205
  8
0
 10
47.0
 20
49.0
 30
-1.3452033700011308
 70
64
  0
VERTEX
  5
206
  8
0
 10
48.0
 20
30.0
 30
0.9270509831248426
 70
64
  0
VERTEX
  5
207
  8
0
 10
48.0
 20
31.0
 30
0.9156374471696667
 70
64
  0
VERTEX
  5
208
  8
0
 10
48.0
 20
32.0
 30
0.8816778784387098
 70
64
  0
VERTEX
  5
209
  8
0
 10
48.0
 20
33.0
 30
0.8260084742194753
 70
64
  0
VERTEX
  5
20A
  8
0
 10
48.0
 20
34.0
 30
0.7500000000000002
 70
64
  0
VERTEX
  5
20B
  8
0
 10
48.0
 20
35.0
 30
0.6555240366732318
 70
64
  0
VERTEX
  5
20C
  8
0
 10
48.0
 20
36.0
 30
0.5449068960040209
 70
64
  0
VERTEX
  5
20D
  8
0
 10
48.0
 20
37.0
 30
0.42087233911288546
 70
64
  0
VERTEX
  5
20E
  8
0
 10
48.0
 20
38.0
 30
0.28647450843757893
 70
64
  0
VERTEX
  5
20F
  8
0
 10
48.0
 20
39.0
 30
0.1450227246101549
 70
64
  0
VERTEX
  5
210
  8
0
 10
48.0
 20
40.0
 30
5.676550095651227e-17
 70
64
  0
VERTEX
  5
211
  8
0
 10
48.0
 20
41.0
 30
-0.14502272461015478
 70
64
  0
VERTEX
  5
212
  8
0
 10
48.0
 20
42.0
 30
-0.2864745084375789
 70
64
  0
VERTEX
  5
213
  8
0
 10
48.0
 20
43.0
 30
-0.42087233911288535
 70
64
  0
VERTEX
  5
214
  8
0
 10
48.0
 20
44.0
 30
-0.5449068960040206
 70
64
  0
VERTEX
  5
215
  8
0
 10
48.0
 20
45.0
 30
-0.6555240366732318
 70
64
  0
VERTEX
  5
216
  8
0
 10
48.0
 20
46.0
 30
-0.7500000000000002
 70
64
  0
VERTEX
  5
217
  8
0
 10
48.0
 20
47.0
 30
-0.8260084742194751
 70
64
  0
VERTEX
  5
218
  8
0
 10
48.0
 20
48.0
 30
-0.8816778784387098
 70
64
  0
VERTEX
  5
219
  8
0
 10
48.0
 20
49.0
 30
-0.9156374471696667
 70
64
  0
VERTEX
  5
21A
  8
0
 10
49.0
 20
30.0
 30
0.46930339512069297
 70
64
  0
VERTEX
  5
21B
  8
0
 10
49.0
 20
31.0
 30
0.4635254915624215
 70
64
  0
VERTEX
  5
21C
  8
0
 10
49.0
 20
32.0
 30
0.4463340520489742
 70
64
  0
VERTEX
  5
21D
  8
0
 10
49.0
 20
33.0
 30
0.41815238687628886
 70
64
  0
VERTEX
  5
21E
  8
0
 10
49.0
 20
34.0
 30
0.3796744221705014
 70
64
  0
VERTEX
  5
21F
  8
0
 10
49.0
 20
35.0
 30
0.3318476131237117
 70
64
  0
VERTEX
  5
220
  8
0
 10
49.0
 20
36.0
 30
0.2758496145027307
 70
64
  0
VERTEX
  5
221
  8
0
 10
49.0
 20
37.0
 30
0.21305928288030937
 70
64
  0
VERTEX
  5
222
  8
0
 10
49.0
 20
38.0
 30
0.14502272461015492
 70
64
  0
VERTEX
  5
223
  8
0
 10
49.0
 20
39.0
 30
0.07341522555726973
 70
64
  0
VERTEX
  5
224
  8
0
 10
49.0
 20
40.0
 30
2.873654503317711e-17
 70
64
  0
VERTEX
  5
225
  8
0
 10
49.0
 20
41.0
 30
-0.07341522555726968
 70
64
  0
VERTEX
  5
226
  8
0
 10
49.0
 20
42.0
 30
-0.14502272461015486
 70
64
  0
VERTEX
  5
227
  8
0
 10
49.0
 20
43.0
 30
-0.21305928288030937
 70
64
  0
VERTEX
  5
228
  8
0
 10
49.0
 20
44.0
 30
-0.27584961450273066
 70
64
  0
VERTEX
  5
229
  8
0
 10
49.0
 20
45.0
 30
-0.33184761312371164
 70
64
  0
VERTEX
  5
22A
  8
0
 10
49.0
 20
46.0
 30
-0.3796744221705013
 70
64
  0
VERTEX
  5
22B
  8
0
 10
49.0
 20
47.0
 30
-0.41815238687628875
 70
64
  0
VERTEX
  5
22C
  8
0
 10
49.0
 20
48.0
 30
-0.4463340520489742
 70
64
  0
VERTEX
  5
22D
  8
0
 10
49.0
 20
49.0
 30
-0.4635254915624214
 70
64
  0
SEQEND
  5
9D
  8
0
  0
VIEWPORT
  5
22E
 67
1
  8
VIEWPORTS
 10
11.0
 20
8.0
 30
0.0
 40
26.400000000000002
 41
19.8
 68
1
 69
1
1001
ACAD
1000
MVIEW
1002
{
1070
16
1010
0.0
1020
0.0
1030
0.0
1010
0.0
1020
0.0
1030
1.0
1040
0
1040
19.8
1040
11.0
1040
8.0
1040
50
1040
0
1040
0
1070
0
1070
100
1070
0
1070
0
1070
0
1070
0
1070
0
1070
0
1040
0
1040
0.0
1040
0.0
1040
10.0
1040
10.0
1040
10.0
1040
10.0
1070
0
1002
{
1002
}
1002
}
  0
POLYLINE
  5
22F
 67
1
  8
0
 66
1
 10
0.0
 20
0.0
 30
0.0
 70
1
  0
VERTEX
  5
231
 67
1
  8
0
 10
-0.5
 20
-0.5
 30
0.0
 70
0
  0
VERTEX
  5
232
 67
1
  8
0
 10
22.5
 20
-0.5
 30
0.0
 70
0
  0
VERTEX
  5
233
 67
1
  8
0
 10
22.5
 20
16.5
 30
0.0
 70
0
  0
VERTEX
  5
234
 67
1
  8
0
 10
-0.5
 20
16.5
 30
0.0
 70
0
  0
SEQEND
  5
230
 67
1
  8
0
  0
VIEWPORT
  5
235
 67
1
  8
VIEWPORTS
 10
2.5
 20
2.5
 30
0.0
 40
5.0
 41
5.0
 68
2
 69
3
1001
ACAD
1000
MVIEW
1002
{
1070
16
1010
0.0
1020
0.0
1030
0.0
1010
0.0
1020
0.0
1030
1.0
1040
0
1040
10.0
1040
7.5
1040
7.5
1040
50
1040
0
1040
0
1070
0
1070
100
1070
0
1070
0
1070
0
1070
0
1070
0
1070
0
1040
0
1040
0.0
1040
0.0
1040
10.0
1040
10.0
1040
10.0
1040
10.0
1070
0
1002
{
1002
}
1002
}
  0
TEXT
  5
236
 67
1
  8
0
 62
5
 10
0.0
 20
5.2
 30
0.0
 40
0.18
  1
View of Rectangle Scale=1:2
  7
OpenSans-Bold
 11
0.0
 21
5.2
 31
0.0
  0
VIEWPORT
  5
237
 67
1
  8
VIEWPORTS
 10
8.5
 20
2.5
 30
0.0
 40
5.0
 41
5.0
 68
2
 69
4
1001
ACAD
1000
MVIEW
1002
{
1070
16
1010
0.0
1020
0.0
1030
0.0
1010
0.0
1020
0.0
1030
1.0
1040
0
1040
25.0
1040
10.0
1040
5.0
1040
50
1040
0
1040
0
1070
0
1070
100
1070
0
1070
0
1070
0
1070
0
1070
0
1070
0
1040
0
1040
0.0
1040
0.0
1040
10.0
1040
10.0
1040
10.0
1040
10.0
1070
0
1002
{
1002
}
1002
}
  0
TEXT
  5
238
 67
1
  8
0
 62
5
 10
6.0
 20
5.2
 30
0.0
 40
0.18
  1
View of Circle Scale=1:5
  7
OpenSans-Bold
 11
6.0
 21
5.2
 31
0.0
  0
VIEWPORT
  5
239
 67
1
  8
VIEWPORTS
 10
14.5
 20
2.5
 30
0.0
 40
5.0
 41
5.0
 68
2
 69
5
1001
ACAD
1000
MVIEW
1002
{
1070
16
1010
0.0
1020
0.0
1030
0.0
1010
0.0
1020
0.0
1030
1.0
1040
0
1040
5.0
1040
12.5
1040
7.5
1040
50
1040
0
1040
0
1070
0
1070
100
1070
0
1070
0
1070
0
1070
0
1070
0
1070
0
1040
0
1040
0.0
1040
0.0
1040
10.0
1040
10.0
1040
10.0
1040
10.0
1070
0
1002
{
1002
}
1002
}
  0
TEXT
  5
23A
 67
1
  8
0
 62
5
 10
12.0
 20
5.2
 30
0.0
 40
0.18
  1
View of Triangle Scale=1:1
  7
OpenSans-Bold
 11
12.0
 21
5.2
 31
0.0
  0
VIEWPORT
  5
23B
 67
1
  8
VIEWPORTS
 10
7.5
 20
10.0
 30
0.0
 40
15.0
 41
7.5
 68
2
 69
6
1001
ACAD
1000
MVIEW
1002
{
1070
16
1010
0.0
1020
0.0
1030
0.0
1010
0.0
1020
0.0
1030
1.0
1040
0
1040
7.5
1040
10.0
1040
6.25
1040
50
1040
0
1040
0
1070
0
1070
100
1070
0
1070
0
1070
0
1070
0
1070
0
1070
0
1040
0
1040
0.0
1040
0.0
1040
10.0
1040
10.0
1040
10.0
1040
10.0
1070
0
1002
{
1002
}
1002
}
  0
TEXT
  5
23C
 67
1
  8
0
 62
5
 10
0.0
 20
14.0
 30
0.0
 40
0.18
  1
Overall View Scale=1:1
  7
OpenSans-Bold
 11
0.0
 21
14.0
 31
0.0
  0
VIEWPORT
  5
23D
 67
1
  8
VIEWPORTS
 10
16.0
 20
13.5
 30
0.0
 40
0.3
 41
0.15
 68
2
 69
7
1001
ACAD
1000
MVIEW
1002
{
1070
16
1010
0.0
1020
0.0
1030
0.0
1010
0.0
1020
0.0
1030
1.0
1040
0
1040
7.5
1040
10.0
1040
6.25
1040
50
1040
0
1040
0
1070
0
1070
100
1070
0
1070
0
1070
0
1070
0
1070
0
1070
0
1040
0
1040
0.0
1040
0.0
1040
10.0
1040
10.0
1040
10.0
1040
10.0
1070
0
1002
{
1002
}
1002
}
  0
TEXT
  5
23E
 67
1
  8
0
 62
5
 10
16.0
 20
14.0
 30
0.0
 40
0.18
  1
Scale=1:50
  7
OpenSans-Bold
 72
1
 11
16.0
 21
14.0
 31
0.0
  0
VIEWPORT
  5
23F
 67
1
  8
VIEWPORTS
 10
16.0
 20
10.0
 30
0.0
 40
4.0
 41
4.0
 68
2
 69
8
1001
ACAD
1000
MVIEW
1002
{
1070
16
1010
40.0
1020
40.0
1030
0.0
1010
-1.0
1020
-1.0
1030
1.0
1040
0
1040
30.0
1040
0.0
1040
0.0
1040
50
1040
0
1040
0
1070
0
1070
100
1070
0
1070
0
1070
0
1070
0
1070
0
1070
0
1040
0
1040
0.0
1040
0.0
1040
10.0
1040
10.0
1040
10.0
1040
10.0
1070
0
1002
{
1002
}
1002
}
  0
TEXT
  5
240
 67
1
  8
0
 62
5
 10
16.0
 20
10.0
 30
0.0
 40
0.18
  1
Viewport to 3D Mesh
  7
OpenSans-Bold
 72
1
 11
16.0
 21
10.0
 31
0.0
  0
ENDSEC
  0
EOF
