  0
SECTION
  2
HEADER
  9
$ACADVER
  1
AC1015
  9
$ACADMAINTVER
 70
6
  9
$DWGCODEPAGE
  3
ANSI_1252
  9
$INSBASE
 10
0.0
 20
0.0
 30
0.0
  9
$EXTMIN
 10
1e+20
 20
1e+20
 30
1e+20
  9
$EXTMAX
 10
-1e+20
 20
-1e+20
 30
-1e+20
  9
$LIMMIN
 10
0.0
 20
0.0
  9
$LIMMAX
 10
420.0
 20
297.0
  9
$ORTHOMODE
 70
0
  9
$REGENMODE
 70
1
  9
$FILLMODE
 70
1
  9
$QTEXTMODE
 70
0
  9
$MIRRTEXT
 70
1
  9
$LTSCALE
 40
1.0
  9
$ATTMODE
 70
1
  9
$TEXTSIZE
 40
2.5
  9
$TRACEWID
 40
1.0
  9
$TEXTSTYLE
  7
Standard
  9
$CLAYER
  8
0
  9
$CELTYPE
  6
ByLayer
  9
$CECOLOR
 62
256
  9
$CELTSCALE
 40
1.0
  9
$DISPSILH
 70
0
  9
$DIMSCALE
 40
1.0
  9
$DIMASZ
 40
2.5
  9
$DIMEXO
 40
0.625
  9
$DIMDLI
 40
3.75
  9
$DIMRND
 40
0.0
  9
$DIMDLE
 40
0.0
  9
$DIMEXE
 40
1.25
  9
$DIMTP
 40
0.0
  9
$DIMTM
 40
0.0
  9
$DIMTXT
 40
2.5
  9
$DIMCEN
 40
2.5
  9
$DIMTSZ
 40
0.0
  9
$DIMTOL
 70
0
  9
$DIMLIM
 70
0
  9
$DIMTIH
 70
0
  9
$DIMTOH
 70
0
  9
$DIMSE1
 70
0
  9
$DIMSE2
 70
0
  9
$DIMTAD
 70
1
  9
$DIMZIN
 70
8
  9
$DIMBLK
  1

  9
$DIMASO
 70
1
  9
$DIMSHO
 70
1
  9
$DIMPOST
  1

  9
$DIMAPOST
  1

  9
$DIMALT
 70
0
  9
$DIMALTD
 70
3
  9
$DIMALTF
 40
0.03937007874
  9
$DIMLFAC
 40
1.0
  9
$DIMTOFL
 70
1
  9
$DIMTVP
 40
0.0
  9
$DIMTIX
 70
0
  9
$DIMSOXD
 70
0
  9
$DIMSAH
 70
0
  9
$DIMBLK1
  1

  9
$DIMBLK2
  1

  9
$DIMSTYLE
  2
ISO-25
  9
$DIMCLRD
 70
0
  9
$DIMCLRE
 70
0
  9
$DIMCLRT
 70
0
  9
$DIMTFAC
 40
1.0
  9
$DIMGAP
 40
0.625
  9
$DIMJUST
 70
0
  9
$DIMSD1
 70
0
  9
$DIMSD2
 70
0
  9
$DIMTOLJ
 70
0
  9
$DIMTZIN
 70
8
  9
$DIMALTZ
 70
0
  9
$DIMALTTZ
 70
0
  9
$DIMUPT
 70
0
  9
$DIMDEC
 70
2
  9
$DIMTDEC
 70
2
  9
$DIMALTU
 70
2
  9
$DIMALTTD
 70
3
  9
$DIMTXSTY
  7
Standard
  9
$DIMAUNIT
 70
0
  9
$DIMADEC
 70
0
  9
$DIMALTRND
 40
0.0
  9
$DIMAZIN
 70
0
  9
$DIMDSEP
 70
44
  9
$DIMATFIT
 70
3
  9
$DIMFRAC
 70
0
  9
$DIMLDRBLK
  1

  9
$DIMLUNIT
 70
2
  9
$DIMLWD
 70
-2
  9
$DIMLWE
 70
-2
  9
$DIMTMOVE
 70
0
  9
$LUNITS
 70
2
  9
$LUPREC
 70
4
  9
$SKETCHINC
 40
1.0
  9
$FILLETRAD
 40
10.0
  9
$AUNITS
 70
0
  9
$AUPREC
 70
2
  9
$MENU
  1
.
  9
$ELEVATION
 40
0.0
  9
$PELEVATION
 40
0.0
  9
$THICKNESS
 40
0.0
  9
$LIMCHECK
 70
0
  9
$CHAMFERA
 40
0.0
  9
$CHAMFERB
 40
0.0
  9
$CHAMFERC
 40
0.0
  9
$CHAMFERD
 40
0.0
  9
$SKPOLY
 70
0
  9
$TDCREATE
 40
2460242.9762962963
  9
$TDUCREATE
 40
2458532.153996898
  9
$TDUPDATE
 40
2460242.9762962963
  9
$TDUUPDATE
 40
2458532.1544311
  9
$TDINDWG
 40
0.0
  9
$TDUSRTIMER
 40
0.0
  9
$USRTIMER
 70
1
  9
$ANGBASE
 50
0.0
  9
$ANGDIR
 70
0
  9
$PDMODE
 70
0
  9
$PDSIZE
 40
0.0
  9
$PLINEWID
 40
0.0
  9
$SPLFRAME
 70
0
  9
$SPLINETYPE
 70
6
  9
$SPLINESEGS
 70
8
  9
$HANDSEED
  5
3DC
  9
$SURFTAB1
 70
6
  9
$SURFTAB2
 70
6
  9
$SURFTYPE
 70
6
  9
$SURFU
 70
6
  9
$SURFV
 70
6
  9
$UCSBASE
  2

  9
$UCSNAME
  2

  9
$UCSORG
 10
0.0
 20
0.0
 30
0.0
  9
$UCSXDIR
 10
1.0
 20
0.0
 30
0.0
  9
$UCSYDIR
 10
0.0
 20
1.0
 30
0.0
  9
$UCSORTHOREF
  2

  9
$UCSORTHOVIEW
 70
0
  9
$UCSORGTOP
 10
0.0
 20
0.0
 30
0.0
  9
$UCSORGBOTTOM
 10
0.0
 20
0.0
 30
0.0
  9
$UCSORGLEFT
 10
0.0
 20
0.0
 30
0.0
  9
$UCSORGRIGHT
 10
0.0
 20
0.0
 30
0.0
  9
$UCSORGFRONT
 10
0.0
 20
0.0
 30
0.0
  9
$UCSORGBACK
 10
0.0
 20
0.0
 30
0.0
  9
$PUCSBASE
  2

  9
$PUCSNAME
  2

  9
$PUCSORG
 10
0.0
 20
0.0
 30
0.0
  9
$PUCSXDIR
 10
1.0
 20
0.0
 30
0.0
  9
$PUCSYDIR
 10
0.0
 20
1.0
 30
0.0
  9
$PUCSORTHOREF
  2

  9
$PUCSORTHOVIEW
 70
0
  9
$PUCSORGTOP
 10
0.0
 20
0.0
 30
0.0
  9
$PUCSORGBOTTOM
 10
0.0
 20
0.0
 30
0.0
  9
$PUCSORGLEFT
 10
0.0
 20
0.0
 30
0.0
  9
$PUCSORGRIGHT
 10
0.0
 20
0.0
 30
0.0
  9
$PUCSORGFRONT
 10
0.0
 20
0.0
 30
0.0
  9
$PUCSORGBACK
 10
0.0
 20
0.0
 30
0.0
  9
$USERI1
 70
0
  9
$USERI2
 70
0
  9
$USERI3
 70
0
  9
$USERI4
 70
0
  9
$USERI5
 70
0
  9
$USERR1
 40
0.0
  9
$USERR2
 40
0.0
  9
$USERR3
 40
0.0
  9
$USERR4
 40
0.0
  9
$USERR5
 40
0.0
  9
$WORLDVIEW
 70
1
  9
$SHADEDGE
 70
3
  9
$SHADEDIF
 70
70
  9
$TILEMODE
 70
1
  9
$MAXACTVP
 70
64
  9
$PINSBASE
 10
0.0
 20
0.0
 30
0.0
  9
$PLIMCHECK
 70
0
  9
$PEXTMIN
 10
1e+20
 20
1e+20
 30
1e+20
  9
$PEXTMAX
 10
-1e+20
 20
-1e+20
 30
-1e+20
  9
$PLIMMIN
 10
-0.5
 20
-0.5
  9
$PLIMMAX
 10
10.5
 20
8.0
  9
$UNITMODE
 70
0
  9
$VISRETAIN
 70
1
  9
$PLINEGEN
 70
0
  9
$PSLTSCALE
 70
1
  9
$TREEDEPTH
 70
3020
  9
$CMLSTYLE
  2
Standard
  9
$CMLJUST
 70
0
  9
$CMLSCALE
 40
20.0
  9
$PROXYGRAPHICS
 70
1
  9
$MEASUREMENT
 70
1
  9
$CELWEIGHT
370
-1
  9
$ENDCAPS
280
0
  9
$JOINSTYLE
280
0
  9
$LWDISPLAY
290
0
  9
$INSUNITS
 70
6
  9
$HYPERLINKBASE
  1

  9
$STYLESHEET
  1

  9
$XEDIT
290
1
  9
$CEPSNTYPE
380
0
  9
$PSTYLEMODE
290
1
  9
$FINGERPRINTGUID
  2
{78CDEAC1-8ABF-4AFA-B6BE-2B8DFAC87DDE}
  9
$VERSIONGUID
  2
{19FE7AB4-C4D3-4A75-9285-2D4D1C7BE852}
  9
$EXTNAMES
290
1
  9
$PSVPSCALE
 40
0.0
  9
$OLESTARTUP
290
0
  0
ENDSEC
  0
SECTION
  2
CLASSES
  0
CLASS
  1
ACDBDICTIONARYWDFLT
  2
AcDbDictionaryWithDefault
  3
ObjectDBX Classes
 90
0
280
0
281
0
  0
CLASS
  1
SUN
  2
AcDbSun
  3
SCENEOE
 90
1153
280
0
281
0
  0
CLASS
  1
VISUALSTYLE
  2
AcDbVisualStyle
  3
ObjectDBX Classes
 90
4095
280
0
281
0
  0
CLASS
  1
MATERIAL
  2
AcDbMaterial
  3
ObjectDBX Classes
 90
1153
280
0
281
0
  0
CLASS
  1
SCALE
  2
AcDbScale
  3
ObjectDBX Classes
 90
1153
280
0
281
0
  0
CLASS
  1
TABLESTYLE
  2
AcDbTableStyle
  3
ObjectDBX Classes
 90
4095
280
0
281
0
  0
CLASS
  1
MLEADERSTYLE
  2
AcDbMLeaderStyle
  3
ACDB_MLEADERSTYLE_CLASS
 90
4095
280
0
281
0
  0
CLASS
  1
DICTIONARYVAR
  2
AcDbDictionaryVar
  3
ObjectDBX Classes
 90
0
280
0
281
0
  0
CLASS
  1
CELLSTYLEMAP
  2
AcDbCellStyleMap
  3
ObjectDBX Classes
 90
1152
280
0
281
0
  0
CLASS
  1
MENTALRAYRENDERSETTINGS
  2
AcDbMentalRayRenderSettings
  3
SCENEOE
 90
1024
280
0
281
0
  0
CLASS
  1
ACDBDETAILVIEWSTYLE
  2
AcDbDetailViewStyle
  3
ObjectDBX Classes
 90
1025
280
0
281
0
  0
CLASS
  1
ACDBSECTIONVIEWSTYLE
  2
AcDbSectionViewStyle
  3
ObjectDBX Classes
 90
1025
280
0
281
0
  0
CLASS
  1
RASTERVARIABLES
  2
AcDbRasterVariables
  3
ISM
 90
0
280
0
281
0
  0
CLASS
  1
ACDBPLACEHOLDER
  2
AcDbPlaceHolder
  3
ObjectDBX Classes
 90
0
280
0
281
0
  0
CLASS
  1
LAYOUT
  2
AcDbLayout
  3
ObjectDBX Classes
 90
0
280
0
281
0
  0
ENDSEC
  0
SECTION
  2
TABLES
  0
TABLE
  2
VPORT
  5
8
330
0
100
AcDbSymbolTable
 70
2
  0
VPORT
  5
3BB
330
8
100
AcDbSymbolTableRecord
100
AcDbViewportTableRecord
  2
*ACTIVE
 70
0
 10
0.0
 20
0.0
 11
0.5
 21
1.0
 12
40.0
 22
30.0
 13
0.0
 23
0.0
 14
0.5
 24
0.5
 15
0.5
 25
0.5
 16
0.0
 26
0.0
 36
1.0
 17
0.0
 27
0.0
 37
0.0
 40
15.0
 41
1.0
 42
50.0
 43
0.0
 44
0.0
 50
0.0
 51
0.0
 71
0
 72
1000
 73
1
 74
3
 75
0
 76
0
 77
0
 78
0
281
0
 65
0
146
0.0
  0
VPORT
  5
3BC
330
8
100
AcDbSymbolTableRecord
100
AcDbViewportTableRecord
  2
*ACTIVE
 70
0
 10
0.5
 20
0.0
 11
1.0
 21
1.0
 12
0.0
 22
0.0
 13
0.0
 23
0.0
 14
0.5
 24
0.5
 15
0.5
 25
0.5
 16
0.0
 26
0.0
 36
1.0
 17
60.0
 27
20.0
 37
0.0
 40
15.0
 41
2.0
 42
50.0
 43
0.0
 44
0.0
 50
0.0
 51
0.0
 71
0
 72
1000
 73
1
 74
3
 75
0
 76
0
 77
0
 78
0
281
0
 65
0
146
0.0
  0
ENDTAB
  0
TABLE
  2
LTYPE
  5
2
330
0
100
AcDbSymbolTable
 70
3
  0
LTYPE
  5
24
330
2
100
AcDbSymbolTableRecord
100
AcDbLinetypeTableRecord
  2
ByBlock
 70
0
  3

 72
65
 73
0
 40
0.0
  0
LTYPE
  5
25
330
2
100
AcDbSymbolTableRecord
100
AcDbLinetypeTableRecord
  2
ByLayer
 70
0
  3

 72
65
 73
0
 40
0.0
  0
LTYPE
  5
26
330
2
100
AcDbSymbolTableRecord
100
AcDbLinetypeTableRecord
  2
Continuous
 70
0
  3

 72
65
 73
0
 40
0.0
  0
ENDTAB
  0
TABLE
  2
LAYER
  5
1
330
0
100
AcDbSymbolTable
 70
2
  0
LAYER
  5
27
330
1
100
AcDbSymbolTableRecord
100
AcDbLayerTableRecord
  2
0
 70
0
 62
7
  6
Continuous
370
-3
390
13
  0
LAYER
  5
28
330
1
100
AcDbSymbolTableRecord
100
AcDbLayerTableRecord
  2
Defpoints
 70
0
 62
7
  6
Continuous
290
0
370
-3
390
13
  0
ENDTAB
  0
TABLE
  2
STYLE
  5
5
330
0
100
AcDbSymbolTable
 70
1
  0
STYLE
  5
29
330
5
100
AcDbSymbolTableRecord
100
AcDbTextStyleTableRecord
  2
Standard
 70
0
 40
0.0
 41
1.0
 50
0.0
 71
0
 42
2.5
  3
txt
  4

  0
ENDTAB
  0
TABLE
  2
VIEW
  5
7
330
0
100
AcDbSymbolTable
 70
0
  0
ENDTAB
  0
TABLE
  2
UCS
  5
6
330
0
100
AcDbSymbolTable
 70
0
  0
ENDTAB
  0
TABLE
  2
APPID
  5
3
330
0
100
AcDbSymbolTable
 70
3
  0
APPID
  5
2A
330
3
100
AcDbSymbolTableRecord
100
AcDbRegAppTableRecord
  2
ACAD
 70
0
  0
APPID
  5
3D9
330
3
100
AcDbSymbolTableRecord
100
AcDbRegAppTableRecord
  2
HATCHBACKGROUNDCOLOR
 70
0
  0
APPID
  5
3DA
330
3
100
AcDbSymbolTableRecord
100
AcDbRegAppTableRecord
  2
EZDXF
 70
0
  0
ENDTAB
  0
TABLE
  2
DIMSTYLE
  5
4
330
0
100
AcDbSymbolTable
 70
1
100
AcDbDimStyleTable
  0
DIMSTYLE
105
2B
330
4
100
AcDbSymbolTableRecord
100
AcDbDimStyleTableRecord
  2
Standard
 70
0
  3

  4

 40
1.0
 41
2.5
 42
0.625
 43
3.75
 44
1.25
 45
0.0
 46
0.0
 47
0.0
 48
0.0
140
2.5
141
2.5
142
0.0
143
0.03937007874
144
1.0
145
0.0
146
1.0
147
0.625
148
0.0
 71
0
 72
0
 73
0
 74
0
 75
0
 76
0
 77
1
 78
8
 79
3
170
0
171
3
172
1
173
0
174
0
175
0
176
0
177
0
178
0
179
2
271
2
272
2
273
2
274
3
275
0
276
0
277
2
278
44
279
0
280
0
281
0
282
0
283
0
284
8
285
0
286
0
288
0
289
3
371
-2
372
-2
  0
ENDTAB
  0
TABLE
  2
BLOCK_RECORD
  5
9
330
0
100
AcDbSymbolTable
 70
106
  0
BLOCK_RECORD
  5
17
330
9
100
AcDbSymbolTableRecord
100
AcDbBlockTableRecord
  2
*Model_Space
340
1A
  0
BLOCK_RECORD
  5
1B
330
9
100
AcDbSymbolTableRecord
100
AcDbBlockTableRecord
  2
*Paper_Space
340
1E
  0
BLOCK_RECORD
  5
2F
330
9
100
AcDbSymbolTableRecord
100
AcDbBlockTableRecord
  2
MARKER
340
0
  0
BLOCK_RECORD
  5
37
330
9
100
AcDbSymbolTableRecord
100
AcDbBlockTableRecord
  2
*U1
340
0
  0
BLOCK_RECORD
  5
40
330
9
100
AcDbSymbolTableRecord
100
AcDbBlockTableRecord
  2
*U2
340
0
  0
BLOCK_RECORD
  5
49
330
9
100
AcDbSymbolTableRecord
100
AcDbBlockTableRecord
  2
*U3
340
0
  0
BLOCK_RECORD
  5
52
330
9
100
AcDbSymbolTableRecord
100
AcDbBlockTableRecord
  2
*U4
340
0
  0
BLOCK_RECORD
  5
5B
330
9
100
AcDbSymbolTableRecord
100
AcDbBlockTableRecord
  2
*U5
340
0
  0
BLOCK_RECORD
  5
64
330
9
100
AcDbSymbolTableRecord
100
AcDbBlockTableRecord
  2
*U6
340
0
  0
BLOCK_RECORD
  5
6D
330
9
100
AcDbSymbolTableRecord
100
AcDbBlockTableRecord
  2
*U7
340
0
  0
BLOCK_RECORD
  5
76
330
9
100
AcDbSymbolTableRecord
100
AcDbBlockTableRecord
  2
*U8
340
0
  0
BLOCK_RECORD
  5
7F
330
9
100
AcDbSymbolTableRecord
100
AcDbBlockTableRecord
  2
*U9
340
0
  0
BLOCK_RECORD
  5
88
330
9
100
AcDbSymbolTableRecord
100
AcDbBlockTableRecord
  2
*U10
340
0
  0
BLOCK_RECORD
  5
91
330
9
100
AcDbSymbolTableRecord
100
AcDbBlockTableRecord
  2
*U11
340
0
  0
BLOCK_RECORD
  5
9A
330
9
100
AcDbSymbolTableRecord
100
AcDbBlockTableRecord
  2
*U12
340
0
  0
BLOCK_RECORD
  5
A3
330
9
100
AcDbSymbolTableRecord
100
AcDbBlockTableRecord
  2
*U13
340
0
  0
BLOCK_RECORD
  5
AC
330
9
100
AcDbSymbolTableRecord
100
AcDbBlockTableRecord
  2
*U14
340
0
  0
BLOCK_RECORD
  5
B5
330
9
100
AcDbSymbolTableRecord
100
AcDbBlockTableRecord
  2
*U15
340
0
  0
BLOCK_RECORD
  5
BE
330
9
100
AcDbSymbolTableRecord
100
AcDbBlockTableRecord
  2
*U16
340
0
  0
BLOCK_RECORD
  5
C7
330
9
100
AcDbSymbolTableRecord
100
AcDbBlockTableRecord
  2
*U17
340
0
  0
BLOCK_RECORD
  5
D0
330
9
100
AcDbSymbolTableRecord
100
AcDbBlockTableRecord
  2
*U18
340
0
  0
BLOCK_RECORD
  5
D9
330
9
100
AcDbSymbolTableRecord
100
AcDbBlockTableRecord
  2
*U19
340
0
  0
BLOCK_RECORD
  5
E2
330
9
100
AcDbSymbolTableRecord
100
AcDbBlockTableRecord
  2
*U20
340
0
  0
BLOCK_RECORD
  5
EB
330
9
100
AcDbSymbolTableRecord
100
AcDbBlockTableRecord
  2
*U21
340
0
  0
BLOCK_RECORD
  5
F4
330
9
100
AcDbSymbolTableRecord
100
AcDbBlockTableRecord
  2
*U22
340
0
  0
BLOCK_RECORD
  5
FD
330
9
100
AcDbSymbolTableRecord
100
AcDbBlockTableRecord
  2
*U23
340
0
  0
BLOCK_RECORD
  5
106
330
9
100
AcDbSymbolTableRecord
100
AcDbBlockTableRecord
  2
*U24
340
0
  0
BLOCK_RECORD
  5
10F
330
9
100
AcDbSymbolTableRecord
100
AcDbBlockTableRecord
  2
*U25
340
0
  0
BLOCK_RECORD
  5
118
330
9
100
AcDbSymbolTableRecord
100
AcDbBlockTableRecord
  2
*U26
340
0
  0
BLOCK_RECORD
  5
121
330
9
100
AcDbSymbolTableRecord
100
AcDbBlockTableRecord
  2
*U27
340
0
  0
BLOCK_RECORD
  5
12A
330
9
100
AcDbSymbolTableRecord
100
AcDbBlockTableRecord
  2
*U28
340
0
  0
BLOCK_RECORD
  5
133
330
9
100
AcDbSymbolTableRecord
100
AcDbBlockTableRecord
  2
*U29
340
0
  0
BLOCK_RECORD
  5
13C
330
9
100
AcDbSymbolTableRecord
100
AcDbBlockTableRecord
  2
*U30
340
0
  0
BLOCK_RECORD
  5
145
330
9
100
AcDbSymbolTableRecord
100
AcDbBlockTableRecord
  2
*U31
340
0
  0
BLOCK_RECORD
  5
14E
330
9
100
AcDbSymbolTableRecord
100
AcDbBlockTableRecord
  2
*U32
340
0
  0
BLOCK_RECORD
  5
157
330
9
100
AcDbSymbolTableRecord
100
AcDbBlockTableRecord
  2
*U33
340
0
  0
BLOCK_RECORD
  5
160
330
9
100
AcDbSymbolTableRecord
100
AcDbBlockTableRecord
  2
*U34
340
0
  0
BLOCK_RECORD
  5
169
330
9
100
AcDbSymbolTableRecord
100
AcDbBlockTableRecord
  2
*U35
340
0
  0
BLOCK_RECORD
  5
172
330
9
100
AcDbSymbolTableRecord
100
AcDbBlockTableRecord
  2
*U36
340
0
  0
BLOCK_RECORD
  5
17B
330
9
100
AcDbSymbolTableRecord
100
AcDbBlockTableRecord
  2
*U37
340
0
  0
BLOCK_RECORD
  5
184
330
9
100
AcDbSymbolTableRecord
100
AcDbBlockTableRecord
  2
*U38
340
0
  0
BLOCK_RECORD
  5
18D
330
9
100
AcDbSymbolTableRecord
100
AcDbBlockTableRecord
  2
*U39
340
0
  0
BLOCK_RECORD
  5
196
330
9
100
AcDbSymbolTableRecord
100
AcDbBlockTableRecord
  2
*U40
340
0
  0
BLOCK_RECORD
  5
19F
330
9
100
AcDbSymbolTableRecord
100
AcDbBlockTableRecord
  2
*U41
340
0
  0
BLOCK_RECORD
  5
1A8
330
9
100
AcDbSymbolTableRecord
100
AcDbBlockTableRecord
  2
*U42
340
0
  0
BLOCK_RECORD
  5
1B1
330
9
100
AcDbSymbolTableRecord
100
AcDbBlockTableRecord
  2
*U43
340
0
  0
BLOCK_RECORD
  5
1BA
330
9
100
AcDbSymbolTableRecord
100
AcDbBlockTableRecord
  2
*U44
340
0
  0
BLOCK_RECORD
  5
1C3
330
9
100
AcDbSymbolTableRecord
100
AcDbBlockTableRecord
  2
*U45
340
0
  0
BLOCK_RECORD
  5
1CC
330
9
100
AcDbSymbolTableRecord
100
AcDbBlockTableRecord
  2
*U46
340
0
  0
BLOCK_RECORD
  5
1D5
330
9
100
AcDbSymbolTableRecord
100
AcDbBlockTableRecord
  2
*U47
340
0
  0
BLOCK_RECORD
  5
1DE
330
9
100
AcDbSymbolTableRecord
100
AcDbBlockTableRecord
  2
*U48
340
0
  0
BLOCK_RECORD
  5
1E7
330
9
100
AcDbSymbolTableRecord
100
AcDbBlockTableRecord
  2
*U49
340
0
  0
BLOCK_RECORD
  5
1F0
330
9
100
AcDbSymbolTableRecord
100
AcDbBlockTableRecord
  2
*U50
340
0
  0
BLOCK_RECORD
  5
1F9
330
9
100
AcDbSymbolTableRecord
100
AcDbBlockTableRecord
  2
*U51
340
0
  0
BLOCK_RECORD
  5
202
330
9
100
AcDbSymbolTableRecord
100
AcDbBlockTableRecord
  2
*U52
340
0
  0
BLOCK_RECORD
  5
20B
330
9
100
AcDbSymbolTableRecord
100
AcDbBlockTableRecord
  2
*U53
340
0
  0
BLOCK_RECORD
  5
214
330
9
100
AcDbSymbolTableRecord
100
AcDbBlockTableRecord
  2
*U54
340
0
  0
BLOCK_RECORD
  5
21D
330
9
100
AcDbSymbolTableRecord
100
AcDbBlockTableRecord
  2
*U55
340
0
  0
BLOCK_RECORD
  5
226
330
9
100
AcDbSymbolTableRecord
100
AcDbBlockTableRecord
  2
*U56
340
0
  0
BLOCK_RECORD
  5
22F
330
9
100
AcDbSymbolTableRecord
100
AcDbBlockTableRecord
  2
*U57
340
0
  0
BLOCK_RECORD
  5
238
330
9
100
AcDbSymbolTableRecord
100
AcDbBlockTableRecord
  2
*U58
340
0
  0
BLOCK_RECORD
  5
241
330
9
100
AcDbSymbolTableRecord
100
AcDbBlockTableRecord
  2
*U59
340
0
  0
BLOCK_RECORD
  5
24A
330
9
100
AcDbSymbolTableRecord
100
AcDbBlockTableRecord
  2
*U60
340
0
  0
BLOCK_RECORD
  5
253
330
9
100
AcDbSymbolTableRecord
100
AcDbBlockTableRecord
  2
*U61
340
0
  0
BLOCK_RECORD
  5
25C
330
9
100
AcDbSymbolTableRecord
100
AcDbBlockTableRecord
  2
*U62
340
0
  0
BLOCK_RECORD
  5
265
330
9
100
AcDbSymbolTableRecord
100
AcDbBlockTableRecord
  2
*U63
340
0
  0
BLOCK_RECORD
  5
26E
330
9
100
AcDbSymbolTableRecord
100
AcDbBlockTableRecord
  2
*U64
340
0
  0
BLOCK_RECORD
  5
277
330
9
100
AcDbSymbolTableRecord
100
AcDbBlockTableRecord
  2
*U65
340
0
  0
BLOCK_RECORD
  5
280
330
9
100
AcDbSymbolTableRecord
100
AcDbBlockTableRecord
  2
*U66
340
0
  0
BLOCK_RECORD
  5
289
330
9
100
AcDbSymbolTableRecord
100
AcDbBlockTableRecord
  2
*U67
340
0
  0
BLOCK_RECORD
  5
292
330
9
100
AcDbSymbolTableRecord
100
AcDbBlockTableRecord
  2
*U68
340
0
  0
BLOCK_RECORD
  5
29B
330
9
100
AcDbSymbolTableRecord
100
AcDbBlockTableRecord
  2
*U69
340
0
  0
BLOCK_RECORD
  5
2A4
330
9
100
AcDbSymbolTableRecord
100
AcDbBlockTableRecord
  2
*U70
340
0
  0
BLOCK_RECORD
  5
2AD
330
9
100
AcDbSymbolTableRecord
100
AcDbBlockTableRecord
  2
*U71
340
0
  0
BLOCK_RECORD
  5
2B6
330
9
100
AcDbSymbolTableRecord
100
AcDbBlockTableRecord
  2
*U72
340
0
  0
BLOCK_RECORD
  5
2BF
330
9
100
AcDbSymbolTableRecord
100
AcDbBlockTableRecord
  2
*U73
340
0
  0
BLOCK_RECORD
  5
2C8
330
9
100
AcDbSymbolTableRecord
100
AcDbBlockTableRecord
  2
*U74
340
0
  0
BLOCK_RECORD
  5
2D1
330
9
100
AcDbSymbolTableRecord
100
AcDbBlockTableRecord
  2
*U75
340
0
  0
BLOCK_RECORD
  5
2DA
330
9
100
AcDbSymbolTableRecord
100
AcDbBlockTableRecord
  2
*U76
340
0
  0
BLOCK_RECORD
  5
2E3
330
9
100
AcDbSymbolTableRecord
100
AcDbBlockTableRecord
  2
*U77
340
0
  0
BLOCK_RECORD
  5
2EC
330
9
100
AcDbSymbolTableRecord
100
AcDbBlockTableRecord
  2
*U78
340
0
  0
BLOCK_RECORD
  5
2F5
330
9
100
AcDbSymbolTableRecord
100
AcDbBlockTableRecord
  2
*U79
340
0
  0
BLOCK_RECORD
  5
2FE
330
9
100
AcDbSymbolTableRecord
100
AcDbBlockTableRecord
  2
*U80
340
0
  0
BLOCK_RECORD
  5
307
330
9
100
AcDbSymbolTableRecord
100
AcDbBlockTableRecord
  2
*U81
340
0
  0
BLOCK_RECORD
  5
310
330
9
100
AcDbSymbolTableRecord
100
AcDbBlockTableRecord
  2
*U82
340
0
  0
BLOCK_RECORD
  5
319
330
9
100
AcDbSymbolTableRecord
100
AcDbBlockTableRecord
  2
*U83
340
0
  0
BLOCK_RECORD
  5
322
330
9
100
AcDbSymbolTableRecord
100
AcDbBlockTableRecord
  2
*U84
340
0
  0
BLOCK_RECORD
  5
32B
330
9
100
AcDbSymbolTableRecord
100
AcDbBlockTableRecord
  2
*U85
340
0
  0
BLOCK_RECORD
  5
334
330
9
100
AcDbSymbolTableRecord
100
AcDbBlockTableRecord
  2
*U86
340
0
  0
BLOCK_RECORD
  5
33D
330
9
100
AcDbSymbolTableRecord
100
AcDbBlockTableRecord
  2
*U87
340
0
  0
BLOCK_RECORD
  5
346
330
9
100
AcDbSymbolTableRecord
100
AcDbBlockTableRecord
  2
*U88
340
0
  0
BLOCK_RECORD
  5
34F
330
9
100
AcDbSymbolTableRecord
100
AcDbBlockTableRecord
  2
*U89
340
0
  0
BLOCK_RECORD
  5
358
330
9
100
AcDbSymbolTableRecord
100
AcDbBlockTableRecord
  2
*U90
340
0
  0
BLOCK_RECORD
  5
361
330
9
100
AcDbSymbolTableRecord
100
AcDbBlockTableRecord
  2
*U91
340
0
  0
BLOCK_RECORD
  5
36A
330
9
100
AcDbSymbolTableRecord
100
AcDbBlockTableRecord
  2
*U92
340
0
  0
BLOCK_RECORD
  5
373
330
9
100
AcDbSymbolTableRecord
100
AcDbBlockTableRecord
  2
*U93
340
0
  0
BLOCK_RECORD
  5
37C
330
9
100
AcDbSymbolTableRecord
100
AcDbBlockTableRecord
  2
*U94
340
0
  0
BLOCK_RECORD
  5
385
330
9
100
AcDbSymbolTableRecord
100
AcDbBlockTableRecord
  2
*U95
340
0
  0
BLOCK_RECORD
  5
38E
330
9
100
AcDbSymbolTableRecord
100
AcDbBlockTableRecord
  2
*U96
340
0
  0
BLOCK_RECORD
  5
397
330
9
100
AcDbSymbolTableRecord
100
AcDbBlockTableRecord
  2
*U97
340
0
  0
BLOCK_RECORD
  5
3A0
330
9
100
AcDbSymbolTableRecord
100
AcDbBlockTableRecord
  2
*U98
340
0
  0
BLOCK_RECORD
  5
3A9
330
9
100
AcDbSymbolTableRecord
100
AcDbBlockTableRecord
  2
*U99
340
0
  0
BLOCK_RECORD
  5
3B2
330
9
100
AcDbSymbolTableRecord
100
AcDbBlockTableRecord
  2
*U100
340
0
  0
BLOCK_RECORD
  5
3C1
330
9
100
AcDbSymbolTableRecord
100
AcDbBlockTableRecord
  2
*Paper_Space0
340
3C4
  0
BLOCK_RECORD
  5
3CA
330
9
100
AcDbSymbolTableRecord
100
AcDbBlockTableRecord
  2
*Paper_Space1
340
3CD
  0
BLOCK_RECORD
  5
3D1
330
9
100
AcDbSymbolTableRecord
100
AcDbBlockTableRecord
  2
*Paper_Space2
340
3D4
  0
ENDTAB
  0
ENDSEC
  0
SECTION
  2
BLOCKS
  0
BLOCK
  5
18
330
17
100
AcDbEntity
  8
0
100
AcDbBlockBegin
  2
*Model_Space
 70
0
 10
0.0
 20
0.0
 30
0.0
  3
*Model_Space
  1

  0
ENDBLK
  5
19
330
17
100
AcDbEntity
  8
0
100
AcDbBlockEnd
  0
BLOCK
  5
1C
330
1B
100
AcDbEntity
  8
0
100
AcDbBlockBegin
  2
*Paper_Space
 70
0
 10
0.0
 20
0.0
 30
0.0
  3
*Paper_Space
  1

  0
ENDBLK
  5
1D
330
1B
100
AcDbEntity
  8
0
100
AcDbBlockEnd
  0
BLOCK
  5
30
330
2F
100
AcDbEntity
  8
0
100
AcDbBlockBegin
  2
MARKER
 70
2
 10
0.0
 20
0.0
 30
0.0
  3
MARKER
  1

  0
LINE
  5
32
330
2F
100
AcDbEntity
  8
0
 62
2
100
AcDbLine
 10
-1.0
 20
0.0
 30
0.0
 11
1.0
 21
0.0
 31
0.0
  0
LINE
  5
33
330
2F
100
AcDbEntity
  8
0
 62
2
100
AcDbLine
 10
0.0
 20
-1.0
 30
0.0
 11
0.0
 21
1.0
 31
0.0
  0
CIRCLE
  5
34
330
2F
100
AcDbEntity
  8
0
 62
2
100
AcDbCircle
 10
0.0
 20
0.0
 30
0.0
 40
0.4
  0
ATTDEF
  5
35
330
2F
100
AcDbEntity
  8
0
 62
4
100
AcDbText
 10
0.5
 20
-1.0
 30
0.0
 40
0.25
  1

100
AcDbAttributeDefinition
  3

  2
XPOS
 70
0
  0
ATTDEF
  5
36
330
2F
100
AcDbEntity
  8
0
 62
4
100
AcDbText
 10
0.5
 20
-1.5
 30
0.0
 40
0.25
  1

100
AcDbAttributeDefinition
  3

  2
YPOS
 70
0
  0
ENDBLK
  5
31
330
2F
100
AcDbEntity
  8
0
100
AcDbBlockEnd
  0
BLOCK
  5
38
330
37
100
AcDbEntity
  8
0
100
AcDbBlockBegin
  2
*U1
 70
1
 10
0.0
 20
0.0
 30
0.0
  3
*U1
  1

  0
INSERT
  5
3A
330
37
100
AcDbEntity
  8
0
100
AcDbBlockReference
 66
1
  2
MARKER
 10
0.0
 20
0.0
 30
0.0
  0
ATTRIB
  5
3C
330
37
100
AcDbEntity
  8
0
 62
4
100
AcDbText
 10
0.5
 20
-1.0
 30
0.0
 40
0.25
  1
x = 0
100
AcDbAttribute
  2
XPOS
 70
0
  0
ATTRIB
  5
3D
330
37
100
AcDbEntity
  8
0
 62
4
100
AcDbText
 10
0.5
 20
-1.5
 30
0.0
 40
0.25
  1
y = 0
100
AcDbAttribute
  2
YPOS
 70
0
  0
SEQEND
  5
3B
330
3A
100
AcDbEntity
  8
0
  0
ENDBLK
  5
39
330
37
100
AcDbEntity
  8
0
100
AcDbBlockEnd
  0
BLOCK
  5
41
330
40
100
AcDbEntity
  8
0
100
AcDbBlockBegin
  2
*U2
 70
1
 10
0.0
 20
0.0
 30
0.0
  3
*U2
  1

  0
INSERT
  5
43
330
40
100
AcDbEntity
  8
0
100
AcDbBlockReference
 66
1
  2
MARKER
 10
0.0
 20
0.0
 30
0.0
  0
ATTRIB
  5
45
330
40
100
AcDbEntity
  8
0
 62
4
100
AcDbText
 10
0.5
 20
-1.0
 30
0.0
 40
0.25
  1
x = 0
100
AcDbAttribute
  2
XPOS
 70
0
  0
ATTRIB
  5
46
330
40
100
AcDbEntity
  8
0
 62
4
100
AcDbText
 10
0.5
 20
-1.5
 30
0.0
 40
0.25
  1
y = 10
100
AcDbAttribute
  2
YPOS
 70
0
  0
SEQEND
  5
44
330
43
100
AcDbEntity
  8
0
  0
ENDBLK
  5
42
330
40
100
AcDbEntity
  8
0
100
AcDbBlockEnd
  0
BLOCK
  5
4A
330
49
100
AcDbEntity
  8
0
100
AcDbBlockBegin
  2
*U3
 70
1
 10
0.0
 20
0.0
 30
0.0
  3
*U3
  1

  0
INSERT
  5
4C
330
49
100
AcDbEntity
  8
0
100
AcDbBlockReference
 66
1
  2
MARKER
 10
0.0
 20
0.0
 30
0.0
  0
ATTRIB
  5
4E
330
49
100
AcDbEntity
  8
0
 62
4
100
AcDbText
 10
0.5
 20
-1.0
 30
0.0
 40
0.25
  1
x = 0
100
AcDbAttribute
  2
XPOS
 70
0
  0
ATTRIB
  5
4F
330
49
100
AcDbEntity
  8
0
 62
4
100
AcDbText
 10
0.5
 20
-1.5
 30
0.0
 40
0.25
  1
y = 20
100
AcDbAttribute
  2
YPOS
 70
0
  0
SEQEND
  5
4D
330
4C
100
AcDbEntity
  8
0
  0
ENDBLK
  5
4B
330
49
100
AcDbEntity
  8
0
100
AcDbBlockEnd
  0
BLOCK
  5
53
330
52
100
AcDbEntity
  8
0
100
AcDbBlockBegin
  2
*U4
 70
1
 10
0.0
 20
0.0
 30
0.0
  3
*U4
  1

  0
INSERT
  5
55
330
52
100
AcDbEntity
  8
0
100
AcDbBlockReference
 66
1
  2
MARKER
 10
0.0
 20
0.0
 30
0.0
  0
ATTRIB
  5
57
330
52
100
AcDbEntity
  8
0
 62
4
100
AcDbText
 10
0.5
 20
-1.0
 30
0.0
 40
0.25
  1
x = 0
100
AcDbAttribute
  2
XPOS
 70
0
  0
ATTRIB
  5
58
330
52
100
AcDbEntity
  8
0
 62
4
100
AcDbText
 10
0.5
 20
-1.5
 30
0.0
 40
0.25
  1
y = 30
100
AcDbAttribute
  2
YPOS
 70
0
  0
SEQEND
  5
56
330
55
100
AcDbEntity
  8
0
  0
ENDBLK
  5
54
330
52
100
AcDbEntity
  8
0
100
AcDbBlockEnd
  0
BLOCK
  5
5C
330
5B
100
AcDbEntity
  8
0
100
AcDbBlockBegin
  2
*U5
 70
1
 10
0.0
 20
0.0
 30
0.0
  3
*U5
  1

  0
INSERT
  5
5E
330
5B
100
AcDbEntity
  8
0
100
AcDbBlockReference
 66
1
  2
MARKER
 10
0.0
 20
0.0
 30
0.0
  0
ATTRIB
  5
60
330
5B
100
AcDbEntity
  8
0
 62
4
100
AcDbText
 10
0.5
 20
-1.0
 30
0.0
 40
0.25
  1
x = 0
100
AcDbAttribute
  2
XPOS
 70
0
  0
ATTRIB
  5
61
330
5B
100
AcDbEntity
  8
0
 62
4
100
AcDbText
 10
0.5
 20
-1.5
 30
0.0
 40
0.25
  1
y = 40
100
AcDbAttribute
  2
YPOS
 70
0
  0
SEQEND
  5
5F
330
5E
100
AcDbEntity
  8
0
  0
ENDBLK
  5
5D
330
5B
100
AcDbEntity
  8
0
100
AcDbBlockEnd
  0
BLOCK
  5
65
330
64
100
AcDbEntity
  8
0
100
AcDbBlockBegin
  2
*U6
 70
1
 10
0.0
 20
0.0
 30
0.0
  3
*U6
  1

  0
INSERT
  5
67
330
64
100
AcDbEntity
  8
0
100
AcDbBlockReference
 66
1
  2
MARKER
 10
0.0
 20
0.0
 30
0.0
  0
ATTRIB
  5
69
330
64
100
AcDbEntity
  8
0
 62
4
100
AcDbText
 10
0.5
 20
-1.0
 30
0.0
 40
0.25
  1
x = 0
100
AcDbAttribute
  2
XPOS
 70
0
  0
ATTRIB
  5
6A
330
64
100
AcDbEntity
  8
0
 62
4
100
AcDbText
 10
0.5
 20
-1.5
 30
0.0
 40
0.25
  1
y = 50
100
AcDbAttribute
  2
YPOS
 70
0
  0
SEQEND
  5
68
330
67
100
AcDbEntity
  8
0
  0
ENDBLK
  5
66
330
64
100
AcDbEntity
  8
0
100
AcDbBlockEnd
  0
BLOCK
  5
6E
330
6D
100
AcDbEntity
  8
0
100
AcDbBlockBegin
  2
*U7
 70
1
 10
0.0
 20
0.0
 30
0.0
  3
*U7
  1

  0
INSERT
  5
70
330
6D
100
AcDbEntity
  8
0
100
AcDbBlockReference
 66
1
  2
MARKER
 10
0.0
 20
0.0
 30
0.0
  0
ATTRIB
  5
72
330
6D
100
AcDbEntity
  8
0
 62
4
100
AcDbText
 10
0.5
 20
-1.0
 30
0.0
 40
0.25
  1
x = 0
100
AcDbAttribute
  2
XPOS
 70
0
  0
ATTRIB
  5
73
330
6D
100
AcDbEntity
  8
0
 62
4
100
AcDbText
 10
0.5
 20
-1.5
 30
0.0
 40
0.25
  1
y = 60
100
AcDbAttribute
  2
YPOS
 70
0
  0
SEQEND
  5
71
330
70
100
AcDbEntity
  8
0
  0
ENDBLK
  5
6F
330
6D
100
AcDbEntity
  8
0
100
AcDbBlockEnd
  0
BLOCK
  5
77
330
76
100
AcDbEntity
  8
0
100
AcDbBlockBegin
  2
*U8
 70
1
 10
0.0
 20
0.0
 30
0.0
  3
*U8
  1

  0
INSERT
  5
79
330
76
100
AcDbEntity
  8
0
100
AcDbBlockReference
 66
1
  2
MARKER
 10
0.0
 20
0.0
 30
0.0
  0
ATTRIB
  5
7B
330
76
100
AcDbEntity
  8
0
 62
4
100
AcDbText
 10
0.5
 20
-1.0
 30
0.0
 40
0.25
  1
x = 0
100
AcDbAttribute
  2
XPOS
 70
0
  0
ATTRIB
  5
7C
330
76
100
AcDbEntity
  8
0
 62
4
100
AcDbText
 10
0.5
 20
-1.5
 30
0.0
 40
0.25
  1
y = 70
100
AcDbAttribute
  2
YPOS
 70
0
  0
SEQEND
  5
7A
330
79
100
AcDbEntity
  8
0
  0
ENDBLK
  5
78
330
76
100
AcDbEntity
  8
0
100
AcDbBlockEnd
  0
BLOCK
  5
80
330
7F
100
AcDbEntity
  8
0
100
AcDbBlockBegin
  2
*U9
 70
1
 10
0.0
 20
0.0
 30
0.0
  3
*U9
  1

  0
INSERT
  5
82
330
7F
100
AcDbEntity
  8
0
100
AcDbBlockReference
 66
1
  2
MARKER
 10
0.0
 20
0.0
 30
0.0
  0
ATTRIB
  5
84
330
7F
100
AcDbEntity
  8
0
 62
4
100
AcDbText
 10
0.5
 20
-1.0
 30
0.0
 40
0.25
  1
x = 0
100
AcDbAttribute
  2
XPOS
 70
0
  0
ATTRIB
  5
85
330
7F
100
AcDbEntity
  8
0
 62
4
100
AcDbText
 10
0.5
 20
-1.5
 30
0.0
 40
0.25
  1
y = 80
100
AcDbAttribute
  2
YPOS
 70
0
  0
SEQEND
  5
83
330
82
100
AcDbEntity
  8
0
  0
ENDBLK
  5
81
330
7F
100
AcDbEntity
  8
0
100
AcDbBlockEnd
  0
BLOCK
  5
89
330
88
100
AcDbEntity
  8
0
100
AcDbBlockBegin
  2
*U10
 70
1
 10
0.0
 20
0.0
 30
0.0
  3
*U10
  1

  0
INSERT
  5
8B
330
88
100
AcDbEntity
  8
0
100
AcDbBlockReference
 66
1
  2
MARKER
 10
0.0
 20
0.0
 30
0.0
  0
ATTRIB
  5
8D
330
88
100
AcDbEntity
  8
0
 62
4
100
AcDbText
 10
0.5
 20
-1.0
 30
0.0
 40
0.25
  1
x = 0
100
AcDbAttribute
  2
XPOS
 70
0
  0
ATTRIB
  5
8E
330
88
100
AcDbEntity
  8
0
 62
4
100
AcDbText
 10
0.5
 20
-1.5
 30
0.0
 40
0.25
  1
y = 90
100
AcDbAttribute
  2
YPOS
 70
0
  0
SEQEND
  5
8C
330
8B
100
AcDbEntity
  8
0
  0
ENDBLK
  5
8A
330
88
100
AcDbEntity
  8
0
100
AcDbBlockEnd
  0
BLOCK
  5
92
330
91
100
AcDbEntity
  8
0
100
AcDbBlockBegin
  2
*U11
 70
1
 10
0.0
 20
0.0
 30
0.0
  3
*U11
  1

  0
INSERT
  5
94
330
91
100
AcDbEntity
  8
0
100
AcDbBlockReference
 66
1
  2
MARKER
 10
0.0
 20
0.0
 30
0.0
  0
ATTRIB
  5
96
330
91
100
AcDbEntity
  8
0
 62
4
100
AcDbText
 10
0.5
 20
-1.0
 30
0.0
 40
0.25
  1
x = 10
100
AcDbAttribute
  2
XPOS
 70
0
  0
ATTRIB
  5
97
330
91
100
AcDbEntity
  8
0
 62
4
100
AcDbText
 10
0.5
 20
-1.5
 30
0.0
 40
0.25
  1
y = 0
100
AcDbAttribute
  2
YPOS
 70
0
  0
SEQEND
  5
95
330
94
100
AcDbEntity
  8
0
  0
ENDBLK
  5
93
330
91
100
AcDbEntity
  8
0
100
AcDbBlockEnd
  0
BLOCK
  5
9B
330
9A
100
AcDbEntity
  8
0
100
AcDbBlockBegin
  2
*U12
 70
1
 10
0.0
 20
0.0
 30
0.0
  3
*U12
  1

  0
INSERT
  5
9D
330
9A
100
AcDbEntity
  8
0
100
AcDbBlockReference
 66
1
  2
MARKER
 10
0.0
 20
0.0
 30
0.0
  0
ATTRIB
  5
9F
330
9A
100
AcDbEntity
  8
0
 62
4
100
AcDbText
 10
0.5
 20
-1.0
 30
0.0
 40
0.25
  1
x = 10
100
AcDbAttribute
  2
XPOS
 70
0
  0
ATTRIB
  5
A0
330
9A
100
AcDbEntity
  8
0
 62
4
100
AcDbText
 10
0.5
 20
-1.5
 30
0.0
 40
0.25
  1
y = 10
100
AcDbAttribute
  2
YPOS
 70
0
  0
SEQEND
  5
9E
330
9D
100
AcDbEntity
  8
0
  0
ENDBLK
  5
9C
330
9A
100
AcDbEntity
  8
0
100
AcDbBlockEnd
  0
BLOCK
  5
A4
330
A3
100
AcDbEntity
  8
0
100
AcDbBlockBegin
  2
*U13
 70
1
 10
0.0
 20
0.0
 30
0.0
  3
*U13
  1

  0
INSERT
  5
A6
330
A3
100
AcDbEntity
  8
0
100
AcDbBlockReference
 66
1
  2
MARKER
 10
0.0
 20
0.0
 30
0.0
  0
ATTRIB
  5
A8
330
A3
100
AcDbEntity
  8
0
 62
4
100
AcDbText
 10
0.5
 20
-1.0
 30
0.0
 40
0.25
  1
x = 10
100
AcDbAttribute
  2
XPOS
 70
0
  0
ATTRIB
  5
A9
330
A3
100
AcDbEntity
  8
0
 62
4
100
AcDbText
 10
0.5
 20
-1.5
 30
0.0
 40
0.25
  1
y = 20
100
AcDbAttribute
  2
YPOS
 70
0
  0
SEQEND
  5
A7
330
A6
100
AcDbEntity
  8
0
  0
ENDBLK
  5
A5
330
A3
100
AcDbEntity
  8
0
100
AcDbBlockEnd
  0
BLOCK
  5
AD
330
AC
100
AcDbEntity
  8
0
100
AcDbBlockBegin
  2
*U14
 70
1
 10
0.0
 20
0.0
 30
0.0
  3
*U14
  1

  0
INSERT
  5
AF
330
AC
100
AcDbEntity
  8
0
100
AcDbBlockReference
 66
1
  2
MARKER
 10
0.0
 20
0.0
 30
0.0
  0
ATTRIB
  5
B1
330
AC
100
AcDbEntity
  8
0
 62
4
100
AcDbText
 10
0.5
 20
-1.0
 30
0.0
 40
0.25
  1
x = 10
100
AcDbAttribute
  2
XPOS
 70
0
  0
ATTRIB
  5
B2
330
AC
100
AcDbEntity
  8
0
 62
4
100
AcDbText
 10
0.5
 20
-1.5
 30
0.0
 40
0.25
  1
y = 30
100
AcDbAttribute
  2
YPOS
 70
0
  0
SEQEND
  5
B0
330
AF
100
AcDbEntity
  8
0
  0
ENDBLK
  5
AE
330
AC
100
AcDbEntity
  8
0
100
AcDbBlockEnd
  0
BLOCK
  5
B6
330
B5
100
AcDbEntity
  8
0
100
AcDbBlockBegin
  2
*U15
 70
1
 10
0.0
 20
0.0
 30
0.0
  3
*U15
  1

  0
INSERT
  5
B8
330
B5
100
AcDbEntity
  8
0
100
AcDbBlockReference
 66
1
  2
MARKER
 10
0.0
 20
0.0
 30
0.0
  0
ATTRIB
  5
BA
330
B5
100
AcDbEntity
  8
0
 62
4
100
AcDbText
 10
0.5
 20
-1.0
 30
0.0
 40
0.25
  1
x = 10
100
AcDbAttribute
  2
XPOS
 70
0
  0
ATTRIB
  5
BB
330
B5
100
AcDbEntity
  8
0
 62
4
100
AcDbText
 10
0.5
 20
-1.5
 30
0.0
 40
0.25
  1
y = 40
100
AcDbAttribute
  2
YPOS
 70
0
  0
SEQEND
  5
B9
330
B8
100
AcDbEntity
  8
0
  0
ENDBLK
  5
B7
330
B5
100
AcDbEntity
  8
0
100
AcDbBlockEnd
  0
BLOCK
  5
BF
330
BE
100
AcDbEntity
  8
0
100
AcDbBlockBegin
  2
*U16
 70
1
 10
0.0
 20
0.0
 30
0.0
  3
*U16
  1

  0
INSERT
  5
C1
330
BE
100
AcDbEntity
  8
0
100
AcDbBlockReference
 66
1
  2
MARKER
 10
0.0
 20
0.0
 30
0.0
  0
ATTRIB
  5
C3
330
BE
100
AcDbEntity
  8
0
 62
4
100
AcDbText
 10
0.5
 20
-1.0
 30
0.0
 40
0.25
  1
x = 10
100
AcDbAttribute
  2
XPOS
 70
0
  0
ATTRIB
  5
C4
330
BE
100
AcDbEntity
  8
0
 62
4
100
AcDbText
 10
0.5
 20
-1.5
 30
0.0
 40
0.25
  1
y = 50
100
AcDbAttribute
  2
YPOS
 70
0
  0
SEQEND
  5
C2
330
C1
100
AcDbEntity
  8
0
  0
ENDBLK
  5
C0
330
BE
100
AcDbEntity
  8
0
100
AcDbBlockEnd
  0
BLOCK
  5
C8
330
C7
100
AcDbEntity
  8
0
100
AcDbBlockBegin
  2
*U17
 70
1
 10
0.0
 20
0.0
 30
0.0
  3
*U17
  1

  0
INSERT
  5
CA
330
C7
100
AcDbEntity
  8
0
100
AcDbBlockReference
 66
1
  2
MARKER
 10
0.0
 20
0.0
 30
0.0
  0
ATTRIB
  5
CC
330
C7
100
AcDbEntity
  8
0
 62
4
100
AcDbText
 10
0.5
 20
-1.0
 30
0.0
 40
0.25
  1
x = 10
100
AcDbAttribute
  2
XPOS
 70
0
  0
ATTRIB
  5
CD
330
C7
100
AcDbEntity
  8
0
 62
4
100
AcDbText
 10
0.5
 20
-1.5
 30
0.0
 40
0.25
  1
y = 60
100
AcDbAttribute
  2
YPOS
 70
0
  0
SEQEND
  5
CB
330
CA
100
AcDbEntity
  8
0
  0
ENDBLK
  5
C9
330
C7
100
AcDbEntity
  8
0
100
AcDbBlockEnd
  0
BLOCK
  5
D1
330
D0
100
AcDbEntity
  8
0
100
AcDbBlockBegin
  2
*U18
 70
1
 10
0.0
 20
0.0
 30
0.0
  3
*U18
  1

  0
INSERT
  5
D3
330
D0
100
AcDbEntity
  8
0
100
AcDbBlockReference
 66
1
  2
MARKER
 10
0.0
 20
0.0
 30
0.0
  0
ATTRIB
  5
D5
330
D0
100
AcDbEntity
  8
0
 62
4
100
AcDbText
 10
0.5
 20
-1.0
 30
0.0
 40
0.25
  1
x = 10
100
AcDbAttribute
  2
XPOS
 70
0
  0
ATTRIB
  5
D6
330
D0
100
AcDbEntity
  8
0
 62
4
100
AcDbText
 10
0.5
 20
-1.5
 30
0.0
 40
0.25
  1
y = 70
100
AcDbAttribute
  2
YPOS
 70
0
  0
SEQEND
  5
D4
330
D3
100
AcDbEntity
  8
0
  0
ENDBLK
  5
D2
330
D0
100
AcDbEntity
  8
0
100
AcDbBlockEnd
  0
BLOCK
  5
DA
330
D9
100
AcDbEntity
  8
0
100
AcDbBlockBegin
  2
*U19
 70
1
 10
0.0
 20
0.0
 30
0.0
  3
*U19
  1

  0
INSERT
  5
DC
330
D9
100
AcDbEntity
  8
0
100
AcDbBlockReference
 66
1
  2
MARKER
 10
0.0
 20
0.0
 30
0.0
  0
ATTRIB
  5
DE
330
D9
100
AcDbEntity
  8
0
 62
4
100
AcDbText
 10
0.5
 20
-1.0
 30
0.0
 40
0.25
  1
x = 10
100
AcDbAttribute
  2
XPOS
 70
0
  0
ATTRIB
  5
DF
330
D9
100
AcDbEntity
  8
0
 62
4
100
AcDbText
 10
0.5
 20
-1.5
 30
0.0
 40
0.25
  1
y = 80
100
AcDbAttribute
  2
YPOS
 70
0
  0
SEQEND
  5
DD
330
DC
100
AcDbEntity
  8
0
  0
ENDBLK
  5
DB
330
D9
100
AcDbEntity
  8
0
100
AcDbBlockEnd
  0
BLOCK
  5
E3
330
E2
100
AcDbEntity
  8
0
100
AcDbBlockBegin
  2
*U20
 70
1
 10
0.0
 20
0.0
 30
0.0
  3
*U20
  1

  0
INSERT
  5
E5
330
E2
100
AcDbEntity
  8
0
100
AcDbBlockReference
 66
1
  2
MARKER
 10
0.0
 20
0.0
 30
0.0
  0
ATTRIB
  5
E7
330
E2
100
AcDbEntity
  8
0
 62
4
100
AcDbText
 10
0.5
 20
-1.0
 30
0.0
 40
0.25
  1
x = 10
100
AcDbAttribute
  2
XPOS
 70
0
  0
ATTRIB
  5
E8
330
E2
100
AcDbEntity
  8
0
 62
4
100
AcDbText
 10
0.5
 20
-1.5
 30
0.0
 40
0.25
  1
y = 90
100
AcDbAttribute
  2
YPOS
 70
0
  0
SEQEND
  5
E6
330
E5
100
AcDbEntity
  8
0
  0
ENDBLK
  5
E4
330
E2
100
AcDbEntity
  8
0
100
AcDbBlockEnd
  0
BLOCK
  5
EC
330
EB
100
AcDbEntity
  8
0
100
AcDbBlockBegin
  2
*U21
 70
1
 10
0.0
 20
0.0
 30
0.0
  3
*U21
  1

  0
INSERT
  5
EE
330
EB
100
AcDbEntity
  8
0
100
AcDbBlockReference
 66
1
  2
MARKER
 10
0.0
 20
0.0
 30
0.0
  0
ATTRIB
  5
F0
330
EB
100
AcDbEntity
  8
0
 62
4
100
AcDbText
 10
0.5
 20
-1.0
 30
0.0
 40
0.25
  1
x = 20
100
AcDbAttribute
  2
XPOS
 70
0
  0
ATTRIB
  5
F1
330
EB
100
AcDbEntity
  8
0
 62
4
100
AcDbText
 10
0.5
 20
-1.5
 30
0.0
 40
0.25
  1
y = 0
100
AcDbAttribute
  2
YPOS
 70
0
  0
SEQEND
  5
EF
330
EE
100
AcDbEntity
  8
0
  0
ENDBLK
  5
ED
330
EB
100
AcDbEntity
  8
0
100
AcDbBlockEnd
  0
BLOCK
  5
F5
330
F4
100
AcDbEntity
  8
0
100
AcDbBlockBegin
  2
*U22
 70
1
 10
0.0
 20
0.0
 30
0.0
  3
*U22
  1

  0
INSERT
  5
F7
330
F4
100
AcDbEntity
  8
0
100
AcDbBlockReference
 66
1
  2
MARKER
 10
0.0
 20
0.0
 30
0.0
  0
ATTRIB
  5
F9
330
F4
100
AcDbEntity
  8
0
 62
4
100
AcDbText
 10
0.5
 20
-1.0
 30
0.0
 40
0.25
  1
x = 20
100
AcDbAttribute
  2
XPOS
 70
0
  0
ATTRIB
  5
FA
330
F4
100
AcDbEntity
  8
0
 62
4
100
AcDbText
 10
0.5
 20
-1.5
 30
0.0
 40
0.25
  1
y = 10
100
AcDbAttribute
  2
YPOS
 70
0
  0
SEQEND
  5
F8
330
F7
100
AcDbEntity
  8
0
  0
ENDBLK
  5
F6
330
F4
100
AcDbEntity
  8
0
100
AcDbBlockEnd
  0
BLOCK
  5
FE
330
FD
100
AcDbEntity
  8
0
100
AcDbBlockBegin
  2
*U23
 70
1
 10
0.0
 20
0.0
 30
0.0
  3
*U23
  1

  0
INSERT
  5
100
330
FD
100
AcDbEntity
  8
0
100
AcDbBlockReference
 66
1
  2
MARKER
 10
0.0
 20
0.0
 30
0.0
  0
ATTRIB
  5
102
330
FD
100
AcDbEntity
  8
0
 62
4
100
AcDbText
 10
0.5
 20
-1.0
 30
0.0
 40
0.25
  1
x = 20
100
AcDbAttribute
  2
XPOS
 70
0
  0
ATTRIB
  5
103
330
FD
100
AcDbEntity
  8
0
 62
4
100
AcDbText
 10
0.5
 20
-1.5
 30
0.0
 40
0.25
  1
y = 20
100
AcDbAttribute
  2
YPOS
 70
0
  0
SEQEND
  5
101
330
100
100
AcDbEntity
  8
0
  0
ENDBLK
  5
FF
330
FD
100
AcDbEntity
  8
0
100
AcDbBlockEnd
  0
BLOCK
  5
107
330
106
100
AcDbEntity
  8
0
100
AcDbBlockBegin
  2
*U24
 70
1
 10
0.0
 20
0.0
 30
0.0
  3
*U24
  1

  0
INSERT
  5
109
330
106
100
AcDbEntity
  8
0
100
AcDbBlockReference
 66
1
  2
MARKER
 10
0.0
 20
0.0
 30
0.0
  0
ATTRIB
  5
10B
330
106
100
AcDbEntity
  8
0
 62
4
100
AcDbText
 10
0.5
 20
-1.0
 30
0.0
 40
0.25
  1
x = 20
100
AcDbAttribute
  2
XPOS
 70
0
  0
ATTRIB
  5
10C
330
106
100
AcDbEntity
  8
0
 62
4
100
AcDbText
 10
0.5
 20
-1.5
 30
0.0
 40
0.25
  1
y = 30
100
AcDbAttribute
  2
YPOS
 70
0
  0
SEQEND
  5
10A
330
109
100
AcDbEntity
  8
0
  0
ENDBLK
  5
108
330
106
100
AcDbEntity
  8
0
100
AcDbBlockEnd
  0
BLOCK
  5
110
330
10F
100
AcDbEntity
  8
0
100
AcDbBlockBegin
  2
*U25
 70
1
 10
0.0
 20
0.0
 30
0.0
  3
*U25
  1

  0
INSERT
  5
112
330
10F
100
AcDbEntity
  8
0
100
AcDbBlockReference
 66
1
  2
MARKER
 10
0.0
 20
0.0
 30
0.0
  0
ATTRIB
  5
114
330
10F
100
AcDbEntity
  8
0
 62
4
100
AcDbText
 10
0.5
 20
-1.0
 30
0.0
 40
0.25
  1
x = 20
100
AcDbAttribute
  2
XPOS
 70
0
  0
ATTRIB
  5
115
330
10F
100
AcDbEntity
  8
0
 62
4
100
AcDbText
 10
0.5
 20
-1.5
 30
0.0
 40
0.25
  1
y = 40
100
AcDbAttribute
  2
YPOS
 70
0
  0
SEQEND
  5
113
330
112
100
AcDbEntity
  8
0
  0
ENDBLK
  5
111
330
10F
100
AcDbEntity
  8
0
100
AcDbBlockEnd
  0
BLOCK
  5
119
330
118
100
AcDbEntity
  8
0
100
AcDbBlockBegin
  2
*U26
 70
1
 10
0.0
 20
0.0
 30
0.0
  3
*U26
  1

  0
INSERT
  5
11B
330
118
100
AcDbEntity
  8
0
100
AcDbBlockReference
 66
1
  2
MARKER
 10
0.0
 20
0.0
 30
0.0
  0
ATTRIB
  5
11D
330
118
100
AcDbEntity
  8
0
 62
4
100
AcDbText
 10
0.5
 20
-1.0
 30
0.0
 40
0.25
  1
x = 20
100
AcDbAttribute
  2
XPOS
 70
0
  0
ATTRIB
  5
11E
330
118
100
AcDbEntity
  8
0
 62
4
100
AcDbText
 10
0.5
 20
-1.5
 30
0.0
 40
0.25
  1
y = 50
100
AcDbAttribute
  2
YPOS
 70
0
  0
SEQEND
  5
11C
330
11B
100
AcDbEntity
  8
0
  0
ENDBLK
  5
11A
330
118
100
AcDbEntity
  8
0
100
AcDbBlockEnd
  0
BLOCK
  5
122
330
121
100
AcDbEntity
  8
0
100
AcDbBlockBegin
  2
*U27
 70
1
 10
0.0
 20
0.0
 30
0.0
  3
*U27
  1

  0
INSERT
  5
124
330
121
100
AcDbEntity
  8
0
100
AcDbBlockReference
 66
1
  2
MARKER
 10
0.0
 20
0.0
 30
0.0
  0
ATTRIB
  5
126
330
121
100
AcDbEntity
  8
0
 62
4
100
AcDbText
 10
0.5
 20
-1.0
 30
0.0
 40
0.25
  1
x = 20
100
AcDbAttribute
  2
XPOS
 70
0
  0
ATTRIB
  5
127
330
121
100
AcDbEntity
  8
0
 62
4
100
AcDbText
 10
0.5
 20
-1.5
 30
0.0
 40
0.25
  1
y = 60
100
AcDbAttribute
  2
YPOS
 70
0
  0
SEQEND
  5
125
330
124
100
AcDbEntity
  8
0
  0
ENDBLK
  5
123
330
121
100
AcDbEntity
  8
0
100
AcDbBlockEnd
  0
BLOCK
  5
12B
330
12A
100
AcDbEntity
  8
0
100
AcDbBlockBegin
  2
*U28
 70
1
 10
0.0
 20
0.0
 30
0.0
  3
*U28
  1

  0
INSERT
  5
12D
330
12A
100
AcDbEntity
  8
0
100
AcDbBlockReference
 66
1
  2
MARKER
 10
0.0
 20
0.0
 30
0.0
  0
ATTRIB
  5
12F
330
12A
100
AcDbEntity
  8
0
 62
4
100
AcDbText
 10
0.5
 20
-1.0
 30
0.0
 40
0.25
  1
x = 20
100
AcDbAttribute
  2
XPOS
 70
0
  0
ATTRIB
  5
130
330
12A
100
AcDbEntity
  8
0
 62
4
100
AcDbText
 10
0.5
 20
-1.5
 30
0.0
 40
0.25
  1
y = 70
100
AcDbAttribute
  2
YPOS
 70
0
  0
SEQEND
  5
12E
330
12D
100
AcDbEntity
  8
0
  0
ENDBLK
  5
12C
330
12A
100
AcDbEntity
  8
0
100
AcDbBlockEnd
  0
BLOCK
  5
134
330
133
100
AcDbEntity
  8
0
100
AcDbBlockBegin
  2
*U29
 70
1
 10
0.0
 20
0.0
 30
0.0
  3
*U29
  1

  0
INSERT
  5
136
330
133
100
AcDbEntity
  8
0
100
AcDbBlockReference
 66
1
  2
MARKER
 10
0.0
 20
0.0
 30
0.0
  0
ATTRIB
  5
138
330
133
100
AcDbEntity
  8
0
 62
4
100
AcDbText
 10
0.5
 20
-1.0
 30
0.0
 40
0.25
  1
x = 20
100
AcDbAttribute
  2
XPOS
 70
0
  0
ATTRIB
  5
139
330
133
100
AcDbEntity
  8
0
 62
4
100
AcDbText
 10
0.5
 20
-1.5
 30
0.0
 40
0.25
  1
y = 80
100
AcDbAttribute
  2
YPOS
 70
0
  0
SEQEND
  5
137
330
136
100
AcDbEntity
  8
0
  0
ENDBLK
  5
135
330
133
100
AcDbEntity
  8
0
100
AcDbBlockEnd
  0
BLOCK
  5
13D
330
13C
100
AcDbEntity
  8
0
100
AcDbBlockBegin
  2
*U30
 70
1
 10
0.0
 20
0.0
 30
0.0
  3
*U30
  1

  0
INSERT
  5
13F
330
13C
100
AcDbEntity
  8
0
100
AcDbBlockReference
 66
1
  2
MARKER
 10
0.0
 20
0.0
 30
0.0
  0
ATTRIB
  5
141
330
13C
100
AcDbEntity
  8
0
 62
4
100
AcDbText
 10
0.5
 20
-1.0
 30
0.0
 40
0.25
  1
x = 20
100
AcDbAttribute
  2
XPOS
 70
0
  0
ATTRIB
  5
142
330
13C
100
AcDbEntity
  8
0
 62
4
100
AcDbText
 10
0.5
 20
-1.5
 30
0.0
 40
0.25
  1
y = 90
100
AcDbAttribute
  2
YPOS
 70
0
  0
SEQEND
  5
140
330
13F
100
AcDbEntity
  8
0
  0
ENDBLK
  5
13E
330
13C
100
AcDbEntity
  8
0
100
AcDbBlockEnd
  0
BLOCK
  5
146
330
145
100
AcDbEntity
  8
0
100
AcDbBlockBegin
  2
*U31
 70
1
 10
0.0
 20
0.0
 30
0.0
  3
*U31
  1

  0
INSERT
  5
148
330
145
100
AcDbEntity
  8
0
100
AcDbBlockReference
 66
1
  2
MARKER
 10
0.0
 20
0.0
 30
0.0
  0
ATTRIB
  5
14A
330
145
100
AcDbEntity
  8
0
 62
4
100
AcDbText
 10
0.5
 20
-1.0
 30
0.0
 40
0.25
  1
x = 30
100
AcDbAttribute
  2
XPOS
 70
0
  0
ATTRIB
  5
14B
330
145
100
AcDbEntity
  8
0
 62
4
100
AcDbText
 10
0.5
 20
-1.5
 30
0.0
 40
0.25
  1
y = 0
100
AcDbAttribute
  2
YPOS
 70
0
  0
SEQEND
  5
149
330
148
100
AcDbEntity
  8
0
  0
ENDBLK
  5
147
330
145
100
AcDbEntity
  8
0
100
AcDbBlockEnd
  0
BLOCK
  5
14F
330
14E
100
AcDbEntity
  8
0
100
AcDbBlockBegin
  2
*U32
 70
1
 10
0.0
 20
0.0
 30
0.0
  3
*U32
  1

  0
INSERT
  5
151
330
14E
100
AcDbEntity
  8
0
100
AcDbBlockReference
 66
1
  2
MARKER
 10
0.0
 20
0.0
 30
0.0
  0
ATTRIB
  5
153
330
14E
100
AcDbEntity
  8
0
 62
4
100
AcDbText
 10
0.5
 20
-1.0
 30
0.0
 40
0.25
  1
x = 30
100
AcDbAttribute
  2
XPOS
 70
0
  0
ATTRIB
  5
154
330
14E
100
AcDbEntity
  8
0
 62
4
100
AcDbText
 10
0.5
 20
-1.5
 30
0.0
 40
0.25
  1
y = 10
100
AcDbAttribute
  2
YPOS
 70
0
  0
SEQEND
  5
152
330
151
100
AcDbEntity
  8
0
  0
ENDBLK
  5
150
330
14E
100
AcDbEntity
  8
0
100
AcDbBlockEnd
  0
BLOCK
  5
158
330
157
100
AcDbEntity
  8
0
100
AcDbBlockBegin
  2
*U33
 70
1
 10
0.0
 20
0.0
 30
0.0
  3
*U33
  1

  0
INSERT
  5
15A
330
157
100
AcDbEntity
  8
0
100
AcDbBlockReference
 66
1
  2
MARKER
 10
0.0
 20
0.0
 30
0.0
  0
ATTRIB
  5
15C
330
157
100
AcDbEntity
  8
0
 62
4
100
AcDbText
 10
0.5
 20
-1.0
 30
0.0
 40
0.25
  1
x = 30
100
AcDbAttribute
  2
XPOS
 70
0
  0
ATTRIB
  5
15D
330
157
100
AcDbEntity
  8
0
 62
4
100
AcDbText
 10
0.5
 20
-1.5
 30
0.0
 40
0.25
  1
y = 20
100
AcDbAttribute
  2
YPOS
 70
0
  0
SEQEND
  5
15B
330
15A
100
AcDbEntity
  8
0
  0
ENDBLK
  5
159
330
157
100
AcDbEntity
  8
0
100
AcDbBlockEnd
  0
BLOCK
  5
161
330
160
100
AcDbEntity
  8
0
100
AcDbBlockBegin
  2
*U34
 70
1
 10
0.0
 20
0.0
 30
0.0
  3
*U34
  1

  0
INSERT
  5
163
330
160
100
AcDbEntity
  8
0
100
AcDbBlockReference
 66
1
  2
MARKER
 10
0.0
 20
0.0
 30
0.0
  0
ATTRIB
  5
165
330
160
100
AcDbEntity
  8
0
 62
4
100
AcDbText
 10
0.5
 20
-1.0
 30
0.0
 40
0.25
  1
x = 30
100
AcDbAttribute
  2
XPOS
 70
0
  0
ATTRIB
  5
166
330
160
100
AcDbEntity
  8
0
 62
4
100
AcDbText
 10
0.5
 20
-1.5
 30
0.0
 40
0.25
  1
y = 30
100
AcDbAttribute
  2
YPOS
 70
0
  0
SEQEND
  5
164
330
163
100
AcDbEntity
  8
0
  0
ENDBLK
  5
162
330
160
100
AcDbEntity
  8
0
100
AcDbBlockEnd
  0
BLOCK
  5
16A
330
169
100
AcDbEntity
  8
0
100
AcDbBlockBegin
  2
*U35
 70
1
 10
0.0
 20
0.0
 30
0.0
  3
*U35
  1

  0
INSERT
  5
16C
330
169
100
AcDbEntity
  8
0
100
AcDbBlockReference
 66
1
  2
MARKER
 10
0.0
 20
0.0
 30
0.0
  0
ATTRIB
  5
16E
330
169
100
AcDbEntity
  8
0
 62
4
100
AcDbText
 10
0.5
 20
-1.0
 30
0.0
 40
0.25
  1
x = 30
100
AcDbAttribute
  2
XPOS
 70
0
  0
ATTRIB
  5
16F
330
169
100
AcDbEntity
  8
0
 62
4
100
AcDbText
 10
0.5
 20
-1.5
 30
0.0
 40
0.25
  1
y = 40
100
AcDbAttribute
  2
YPOS
 70
0
  0
SEQEND
  5
16D
330
16C
100
AcDbEntity
  8
0
  0
ENDBLK
  5
16B
330
169
100
AcDbEntity
  8
0
100
AcDbBlockEnd
  0
BLOCK
  5
173
330
172
100
AcDbEntity
  8
0
100
AcDbBlockBegin
  2
*U36
 70
1
 10
0.0
 20
0.0
 30
0.0
  3
*U36
  1

  0
INSERT
  5
175
330
172
100
AcDbEntity
  8
0
100
AcDbBlockReference
 66
1
  2
MARKER
 10
0.0
 20
0.0
 30
0.0
  0
ATTRIB
  5
177
330
172
100
AcDbEntity
  8
0
 62
4
100
AcDbText
 10
0.5
 20
-1.0
 30
0.0
 40
0.25
  1
x = 30
100
AcDbAttribute
  2
XPOS
 70
0
  0
ATTRIB
  5
178
330
172
100
AcDbEntity
  8
0
 62
4
100
AcDbText
 10
0.5
 20
-1.5
 30
0.0
 40
0.25
  1
y = 50
100
AcDbAttribute
  2
YPOS
 70
0
  0
SEQEND
  5
176
330
175
100
AcDbEntity
  8
0
  0
ENDBLK
  5
174
330
172
100
AcDbEntity
  8
0
100
AcDbBlockEnd
  0
BLOCK
  5
17C
330
17B
100
AcDbEntity
  8
0
100
AcDbBlockBegin
  2
*U37
 70
1
 10
0.0
 20
0.0
 30
0.0
  3
*U37
  1

  0
INSERT
  5
17E
330
17B
100
AcDbEntity
  8
0
100
AcDbBlockReference
 66
1
  2
MARKER
 10
0.0
 20
0.0
 30
0.0
  0
ATTRIB
  5
180
330
17B
100
AcDbEntity
  8
0
 62
4
100
AcDbText
 10
0.5
 20
-1.0
 30
0.0
 40
0.25
  1
x = 30
100
AcDbAttribute
  2
XPOS
 70
0
  0
ATTRIB
  5
181
330
17B
100
AcDbEntity
  8
0
 62
4
100
AcDbText
 10
0.5
 20
-1.5
 30
0.0
 40
0.25
  1
y = 60
100
AcDbAttribute
  2
YPOS
 70
0
  0
SEQEND
  5
17F
330
17E
100
AcDbEntity
  8
0
  0
ENDBLK
  5
17D
330
17B
100
AcDbEntity
  8
0
100
AcDbBlockEnd
  0
BLOCK
  5
185
330
184
100
AcDbEntity
  8
0
100
AcDbBlockBegin
  2
*U38
 70
1
 10
0.0
 20
0.0
 30
0.0
  3
*U38
  1

  0
INSERT
  5
187
330
184
100
AcDbEntity
  8
0
100
AcDbBlockReference
 66
1
  2
MARKER
 10
0.0
 20
0.0
 30
0.0
  0
ATTRIB
  5
189
330
184
100
AcDbEntity
  8
0
 62
4
100
AcDbText
 10
0.5
 20
-1.0
 30
0.0
 40
0.25
  1
x = 30
100
AcDbAttribute
  2
XPOS
 70
0
  0
ATTRIB
  5
18A
330
184
100
AcDbEntity
  8
0
 62
4
100
AcDbText
 10
0.5
 20
-1.5
 30
0.0
 40
0.25
  1
y = 70
100
AcDbAttribute
  2
YPOS
 70
0
  0
SEQEND
  5
188
330
187
100
AcDbEntity
  8
0
  0
ENDBLK
  5
186
330
184
100
AcDbEntity
  8
0
100
AcDbBlockEnd
  0
BLOCK
  5
18E
330
18D
100
AcDbEntity
  8
0
100
AcDbBlockBegin
  2
*U39
 70
1
 10
0.0
 20
0.0
 30
0.0
  3
*U39
  1

  0
INSERT
  5
190
330
18D
100
AcDbEntity
  8
0
100
AcDbBlockReference
 66
1
  2
MARKER
 10
0.0
 20
0.0
 30
0.0
  0
ATTRIB
  5
192
330
18D
100
AcDbEntity
  8
0
 62
4
100
AcDbText
 10
0.5
 20
-1.0
 30
0.0
 40
0.25
  1
x = 30
100
AcDbAttribute
  2
XPOS
 70
0
  0
ATTRIB
  5
193
330
18D
100
AcDbEntity
  8
0
 62
4
100
AcDbText
 10
0.5
 20
-1.5
 30
0.0
 40
0.25
  1
y = 80
100
AcDbAttribute
  2
YPOS
 70
0
  0
SEQEND
  5
191
330
190
100
AcDbEntity
  8
0
  0
ENDBLK
  5
18F
330
18D
100
AcDbEntity
  8
0
100
AcDbBlockEnd
  0
BLOCK
  5
197
330
196
100
AcDbEntity
  8
0
100
AcDbBlockBegin
  2
*U40
 70
1
 10
0.0
 20
0.0
 30
0.0
  3
*U40
  1

  0
INSERT
  5
199
330
196
100
AcDbEntity
  8
0
100
AcDbBlockReference
 66
1
  2
MARKER
 10
0.0
 20
0.0
 30
0.0
  0
ATTRIB
  5
19B
330
196
100
AcDbEntity
  8
0
 62
4
100
AcDbText
 10
0.5
 20
-1.0
 30
0.0
 40
0.25
  1
x = 30
100
AcDbAttribute
  2
XPOS
 70
0
  0
ATTRIB
  5
19C
330
196
100
AcDbEntity
  8
0
 62
4
100
AcDbText
 10
0.5
 20
-1.5
 30
0.0
 40
0.25
  1
y = 90
100
AcDbAttribute
  2
YPOS
 70
0
  0
SEQEND
  5
19A
330
199
100
AcDbEntity
  8
0
  0
ENDBLK
  5
198
330
196
100
AcDbEntity
  8
0
100
AcDbBlockEnd
  0
BLOCK
  5
1A0
330
19F
100
AcDbEntity
  8
0
100
AcDbBlockBegin
  2
*U41
 70
1
 10
0.0
 20
0.0
 30
0.0
  3
*U41
  1

  0
INSERT
  5
1A2
330
19F
100
AcDbEntity
  8
0
100
AcDbBlockReference
 66
1
  2
MARKER
 10
0.0
 20
0.0
 30
0.0
  0
ATTRIB
  5
1A4
330
19F
100
AcDbEntity
  8
0
 62
4
100
AcDbText
 10
0.5
 20
-1.0
 30
0.0
 40
0.25
  1
x = 40
100
AcDbAttribute
  2
XPOS
 70
0
  0
ATTRIB
  5
1A5
330
19F
100
AcDbEntity
  8
0
 62
4
100
AcDbText
 10
0.5
 20
-1.5
 30
0.0
 40
0.25
  1
y = 0
100
AcDbAttribute
  2
YPOS
 70
0
  0
SEQEND
  5
1A3
330
1A2
100
AcDbEntity
  8
0
  0
ENDBLK
  5
1A1
330
19F
100
AcDbEntity
  8
0
100
AcDbBlockEnd
  0
BLOCK
  5
1A9
330
1A8
100
AcDbEntity
  8
0
100
AcDbBlockBegin
  2
*U42
 70
1
 10
0.0
 20
0.0
 30
0.0
  3
*U42
  1

  0
INSERT
  5
1AB
330
1A8
100
AcDbEntity
  8
0
100
AcDbBlockReference
 66
1
  2
MARKER
 10
0.0
 20
0.0
 30
0.0
  0
ATTRIB
  5
1AD
330
1A8
100
AcDbEntity
  8
0
 62
4
100
AcDbText
 10
0.5
 20
-1.0
 30
0.0
 40
0.25
  1
x = 40
100
AcDbAttribute
  2
XPOS
 70
0
  0
ATTRIB
  5
1AE
330
1A8
100
AcDbEntity
  8
0
 62
4
100
AcDbText
 10
0.5
 20
-1.5
 30
0.0
 40
0.25
  1
y = 10
100
AcDbAttribute
  2
YPOS
 70
0
  0
SEQEND
  5
1AC
330
1AB
100
AcDbEntity
  8
0
  0
ENDBLK
  5
1AA
330
1A8
100
AcDbEntity
  8
0
100
AcDbBlockEnd
  0
BLOCK
  5
1B2
330
1B1
100
AcDbEntity
  8
0
100
AcDbBlockBegin
  2
*U43
 70
1
 10
0.0
 20
0.0
 30
0.0
  3
*U43
  1

  0
INSERT
  5
1B4
330
1B1
100
AcDbEntity
  8
0
100
AcDbBlockReference
 66
1
  2
MARKER
 10
0.0
 20
0.0
 30
0.0
  0
ATTRIB
  5
1B6
330
1B1
100
AcDbEntity
  8
0
 62
4
100
AcDbText
 10
0.5
 20
-1.0
 30
0.0
 40
0.25
  1
x = 40
100
AcDbAttribute
  2
XPOS
 70
0
  0
ATTRIB
  5
1B7
330
1B1
100
AcDbEntity
  8
0
 62
4
100
AcDbText
 10
0.5
 20
-1.5
 30
0.0
 40
0.25
  1
y = 20
100
AcDbAttribute
  2
YPOS
 70
0
  0
SEQEND
  5
1B5
330
1B4
100
AcDbEntity
  8
0
  0
ENDBLK
  5
1B3
330
1B1
100
AcDbEntity
  8
0
100
AcDbBlockEnd
  0
BLOCK
  5
1BB
330
1BA
100
AcDbEntity
  8
0
100
AcDbBlockBegin
  2
*U44
 70
1
 10
0.0
 20
0.0
 30
0.0
  3
*U44
  1

  0
INSERT
  5
1BD
330
1BA
100
AcDbEntity
  8
0
100
AcDbBlockReference
 66
1
  2
MARKER
 10
0.0
 20
0.0
 30
0.0
  0
ATTRIB
  5
1BF
330
1BA
100
AcDbEntity
  8
0
 62
4
100
AcDbText
 10
0.5
 20
-1.0
 30
0.0
 40
0.25
  1
x = 40
100
AcDbAttribute
  2
XPOS
 70
0
  0
ATTRIB
  5
1C0
330
1BA
100
AcDbEntity
  8
0
 62
4
100
AcDbText
 10
0.5
 20
-1.5
 30
0.0
 40
0.25
  1
y = 30
100
AcDbAttribute
  2
YPOS
 70
0
  0
SEQEND
  5
1BE
330
1BD
100
AcDbEntity
  8
0
  0
ENDBLK
  5
1BC
330
1BA
100
AcDbEntity
  8
0
100
AcDbBlockEnd
  0
BLOCK
  5
1C4
330
1C3
100
AcDbEntity
  8
0
100
AcDbBlockBegin
  2
*U45
 70
1
 10
0.0
 20
0.0
 30
0.0
  3
*U45
  1

  0
INSERT
  5
1C6
330
1C3
100
AcDbEntity
  8
0
100
AcDbBlockReference
 66
1
  2
MARKER
 10
0.0
 20
0.0
 30
0.0
  0
ATTRIB
  5
1C8
330
1C3
100
AcDbEntity
  8
0
 62
4
100
AcDbText
 10
0.5
 20
-1.0
 30
0.0
 40
0.25
  1
x = 40
100
AcDbAttribute
  2
XPOS
 70
0
  0
ATTRIB
  5
1C9
330
1C3
100
AcDbEntity
  8
0
 62
4
100
AcDbText
 10
0.5
 20
-1.5
 30
0.0
 40
0.25
  1
y = 40
100
AcDbAttribute
  2
YPOS
 70
0
  0
SEQEND
  5
1C7
330
1C6
100
AcDbEntity
  8
0
  0
ENDBLK
  5
1C5
330
1C3
100
AcDbEntity
  8
0
100
AcDbBlockEnd
  0
BLOCK
  5
1CD
330
1CC
100
AcDbEntity
  8
0
100
AcDbBlockBegin
  2
*U46
 70
1
 10
0.0
 20
0.0
 30
0.0
  3
*U46
  1

  0
INSERT
  5
1CF
330
1CC
100
AcDbEntity
  8
0
100
AcDbBlockReference
 66
1
  2
MARKER
 10
0.0
 20
0.0
 30
0.0
  0
ATTRIB
  5
1D1
330
1CC
100
AcDbEntity
  8
0
 62
4
100
AcDbText
 10
0.5
 20
-1.0
 30
0.0
 40
0.25
  1
x = 40
100
AcDbAttribute
  2
XPOS
 70
0
  0
ATTRIB
  5
1D2
330
1CC
100
AcDbEntity
  8
0
 62
4
100
AcDbText
 10
0.5
 20
-1.5
 30
0.0
 40
0.25
  1
y = 50
100
AcDbAttribute
  2
YPOS
 70
0
  0
SEQEND
  5
1D0
330
1CF
100
AcDbEntity
  8
0
  0
ENDBLK
  5
1CE
330
1CC
100
AcDbEntity
  8
0
100
AcDbBlockEnd
  0
BLOCK
  5
1D6
330
1D5
100
AcDbEntity
  8
0
100
AcDbBlockBegin
  2
*U47
 70
1
 10
0.0
 20
0.0
 30
0.0
  3
*U47
  1

  0
INSERT
  5
1D8
330
1D5
100
AcDbEntity
  8
0
100
AcDbBlockReference
 66
1
  2
MARKER
 10
0.0
 20
0.0
 30
0.0
  0
ATTRIB
  5
1DA
330
1D5
100
AcDbEntity
  8
0
 62
4
100
AcDbText
 10
0.5
 20
-1.0
 30
0.0
 40
0.25
  1
x = 40
100
AcDbAttribute
  2
XPOS
 70
0
  0
ATTRIB
  5
1DB
330
1D5
100
AcDbEntity
  8
0
 62
4
100
AcDbText
 10
0.5
 20
-1.5
 30
0.0
 40
0.25
  1
y = 60
100
AcDbAttribute
  2
YPOS
 70
0
  0
SEQEND
  5
1D9
330
1D8
100
AcDbEntity
  8
0
  0
ENDBLK
  5
1D7
330
1D5
100
AcDbEntity
  8
0
100
AcDbBlockEnd
  0
BLOCK
  5
1DF
330
1DE
100
AcDbEntity
  8
0
100
AcDbBlockBegin
  2
*U48
 70
1
 10
0.0
 20
0.0
 30
0.0
  3
*U48
  1

  0
INSERT
  5
1E1
330
1DE
100
AcDbEntity
  8
0
100
AcDbBlockReference
 66
1
  2
MARKER
 10
0.0
 20
0.0
 30
0.0
  0
ATTRIB
  5
1E3
330
1DE
100
AcDbEntity
  8
0
 62
4
100
AcDbText
 10
0.5
 20
-1.0
 30
0.0
 40
0.25
  1
x = 40
100
AcDbAttribute
  2
XPOS
 70
0
  0
ATTRIB
  5
1E4
330
1DE
100
AcDbEntity
  8
0
 62
4
100
AcDbText
 10
0.5
 20
-1.5
 30
0.0
 40
0.25
  1
y = 70
100
AcDbAttribute
  2
YPOS
 70
0
  0
SEQEND
  5
1E2
330
1E1
100
AcDbEntity
  8
0
  0
ENDBLK
  5
1E0
330
1DE
100
AcDbEntity
  8
0
100
AcDbBlockEnd
  0
BLOCK
  5
1E8
330
1E7
100
AcDbEntity
  8
0
100
AcDbBlockBegin
  2
*U49
 70
1
 10
0.0
 20
0.0
 30
0.0
  3
*U49
  1

  0
INSERT
  5
1EA
330
1E7
100
AcDbEntity
  8
0
100
AcDbBlockReference
 66
1
  2
MARKER
 10
0.0
 20
0.0
 30
0.0
  0
ATTRIB
  5
1EC
330
1E7
100
AcDbEntity
  8
0
 62
4
100
AcDbText
 10
0.5
 20
-1.0
 30
0.0
 40
0.25
  1
x = 40
100
AcDbAttribute
  2
XPOS
 70
0
  0
ATTRIB
  5
1ED
330
1E7
100
AcDbEntity
  8
0
 62
4
100
AcDbText
 10
0.5
 20
-1.5
 30
0.0
 40
0.25
  1
y = 80
100
AcDbAttribute
  2
YPOS
 70
0
  0
SEQEND
  5
1EB
330
1EA
100
AcDbEntity
  8
0
  0
ENDBLK
  5
1E9
330
1E7
100
AcDbEntity
  8
0
100
AcDbBlockEnd
  0
BLOCK
  5
1F1
330
1F0
100
AcDbEntity
  8
0
100
AcDbBlockBegin
  2
*U50
 70
1
 10
0.0
 20
0.0
 30
0.0
  3
*U50
  1

  0
INSERT
  5
1F3
330
1F0
100
AcDbEntity
  8
0
100
AcDbBlockReference
 66
1
  2
MARKER
 10
0.0
 20
0.0
 30
0.0
  0
ATTRIB
  5
1F5
330
1F0
100
AcDbEntity
  8
0
 62
4
100
AcDbText
 10
0.5
 20
-1.0
 30
0.0
 40
0.25
  1
x = 40
100
AcDbAttribute
  2
XPOS
 70
0
  0
ATTRIB
  5
1F6
330
1F0
100
AcDbEntity
  8
0
 62
4
100
AcDbText
 10
0.5
 20
-1.5
 30
0.0
 40
0.25
  1
y = 90
100
AcDbAttribute
  2
YPOS
 70
0
  0
SEQEND
  5
1F4
330
1F3
100
AcDbEntity
  8
0
  0
ENDBLK
  5
1F2
330
1F0
100
AcDbEntity
  8
0
100
AcDbBlockEnd
  0
BLOCK
  5
1FA
330
1F9
100
AcDbEntity
  8
0
100
AcDbBlockBegin
  2
*U51
 70
1
 10
0.0
 20
0.0
 30
0.0
  3
*U51
  1

  0
INSERT
  5
1FC
330
1F9
100
AcDbEntity
  8
0
100
AcDbBlockReference
 66
1
  2
MARKER
 10
0.0
 20
0.0
 30
0.0
  0
ATTRIB
  5
1FE
330
1F9
100
AcDbEntity
  8
0
 62
4
100
AcDbText
 10
0.5
 20
-1.0
 30
0.0
 40
0.25
  1
x = 50
100
AcDbAttribute
  2
XPOS
 70
0
  0
ATTRIB
  5
1FF
330
1F9
100
AcDbEntity
  8
0
 62
4
100
AcDbText
 10
0.5
 20
-1.5
 30
0.0
 40
0.25
  1
y = 0
100
AcDbAttribute
  2
YPOS
 70
0
  0
SEQEND
  5
1FD
330
1FC
100
AcDbEntity
  8
0
  0
ENDBLK
  5
1FB
330
1F9
100
AcDbEntity
  8
0
100
AcDbBlockEnd
  0
BLOCK
  5
203
330
202
100
AcDbEntity
  8
0
100
AcDbBlockBegin
  2
*U52
 70
1
 10
0.0
 20
0.0
 30
0.0
  3
*U52
  1

  0
INSERT
  5
205
330
202
100
AcDbEntity
  8
0
100
AcDbBlockReference
 66
1
  2
MARKER
 10
0.0
 20
0.0
 30
0.0
  0
ATTRIB
  5
207
330
202
100
AcDbEntity
  8
0
 62
4
100
AcDbText
 10
0.5
 20
-1.0
 30
0.0
 40
0.25
  1
x = 50
100
AcDbAttribute
  2
XPOS
 70
0
  0
ATTRIB
  5
208
330
202
100
AcDbEntity
  8
0
 62
4
100
AcDbText
 10
0.5
 20
-1.5
 30
0.0
 40
0.25
  1
y = 10
100
AcDbAttribute
  2
YPOS
 70
0
  0
SEQEND
  5
206
330
205
100
AcDbEntity
  8
0
  0
ENDBLK
  5
204
330
202
100
AcDbEntity
  8
0
100
AcDbBlockEnd
  0
BLOCK
  5
20C
330
20B
100
AcDbEntity
  8
0
100
AcDbBlockBegin
  2
*U53
 70
1
 10
0.0
 20
0.0
 30
0.0
  3
*U53
  1

  0
INSERT
  5
20E
330
20B
100
AcDbEntity
  8
0
100
AcDbBlockReference
 66
1
  2
MARKER
 10
0.0
 20
0.0
 30
0.0
  0
ATTRIB
  5
210
330
20B
100
AcDbEntity
  8
0
 62
4
100
AcDbText
 10
0.5
 20
-1.0
 30
0.0
 40
0.25
  1
x = 50
100
AcDbAttribute
  2
XPOS
 70
0
  0
ATTRIB
  5
211
330
20B
100
AcDbEntity
  8
0
 62
4
100
AcDbText
 10
0.5
 20
-1.5
 30
0.0
 40
0.25
  1
y = 20
100
AcDbAttribute
  2
YPOS
 70
0
  0
SEQEND
  5
20F
330
20E
100
AcDbEntity
  8
0
  0
ENDBLK
  5
20D
330
20B
100
AcDbEntity
  8
0
100
AcDbBlockEnd
  0
BLOCK
  5
215
330
214
100
AcDbEntity
  8
0
100
AcDbBlockBegin
  2
*U54
 70
1
 10
0.0
 20
0.0
 30
0.0
  3
*U54
  1

  0
INSERT
  5
217
330
214
100
AcDbEntity
  8
0
100
AcDbBlockReference
 66
1
  2
MARKER
 10
0.0
 20
0.0
 30
0.0
  0
ATTRIB
  5
219
330
214
100
AcDbEntity
  8
0
 62
4
100
AcDbText
 10
0.5
 20
-1.0
 30
0.0
 40
0.25
  1
x = 50
100
AcDbAttribute
  2
XPOS
 70
0
  0
ATTRIB
  5
21A
330
214
100
AcDbEntity
  8
0
 62
4
100
AcDbText
 10
0.5
 20
-1.5
 30
0.0
 40
0.25
  1
y = 30
100
AcDbAttribute
  2
YPOS
 70
0
  0
SEQEND
  5
218
330
217
100
AcDbEntity
  8
0
  0
ENDBLK
  5
216
330
214
100
AcDbEntity
  8
0
100
AcDbBlockEnd
  0
BLOCK
  5
21E
330
21D
100
AcDbEntity
  8
0
100
AcDbBlockBegin
  2
*U55
 70
1
 10
0.0
 20
0.0
 30
0.0
  3
*U55
  1

  0
INSERT
  5
220
330
21D
100
AcDbEntity
  8
0
100
AcDbBlockReference
 66
1
  2
MARKER
 10
0.0
 20
0.0
 30
0.0
  0
ATTRIB
  5
222
330
21D
100
AcDbEntity
  8
0
 62
4
100
AcDbText
 10
0.5
 20
-1.0
 30
0.0
 40
0.25
  1
x = 50
100
AcDbAttribute
  2
XPOS
 70
0
  0
ATTRIB
  5
223
330
21D
100
AcDbEntity
  8
0
 62
4
100
AcDbText
 10
0.5
 20
-1.5
 30
0.0
 40
0.25
  1
y = 40
100
AcDbAttribute
  2
YPOS
 70
0
  0
SEQEND
  5
221
330
220
100
AcDbEntity
  8
0
  0
ENDBLK
  5
21F
330
21D
100
AcDbEntity
  8
0
100
AcDbBlockEnd
  0
BLOCK
  5
227
330
226
100
AcDbEntity
  8
0
100
AcDbBlockBegin
  2
*U56
 70
1
 10
0.0
 20
0.0
 30
0.0
  3
*U56
  1

  0
INSERT
  5
229
330
226
100
AcDbEntity
  8
0
100
AcDbBlockReference
 66
1
  2
MARKER
 10
0.0
 20
0.0
 30
0.0
  0
ATTRIB
  5
22B
330
226
100
AcDbEntity
  8
0
 62
4
100
AcDbText
 10
0.5
 20
-1.0
 30
0.0
 40
0.25
  1
x = 50
100
AcDbAttribute
  2
XPOS
 70
0
  0
ATTRIB
  5
22C
330
226
100
AcDbEntity
  8
0
 62
4
100
AcDbText
 10
0.5
 20
-1.5
 30
0.0
 40
0.25
  1
y = 50
100
AcDbAttribute
  2
YPOS
 70
0
  0
SEQEND
  5
22A
330
229
100
AcDbEntity
  8
0
  0
ENDBLK
  5
228
330
226
100
AcDbEntity
  8
0
100
AcDbBlockEnd
  0
BLOCK
  5
230
330
22F
100
AcDbEntity
  8
0
100
AcDbBlockBegin
  2
*U57
 70
1
 10
0.0
 20
0.0
 30
0.0
  3
*U57
  1

  0
INSERT
  5
232
330
22F
100
AcDbEntity
  8
0
100
AcDbBlockReference
 66
1
  2
MARKER
 10
0.0
 20
0.0
 30
0.0
  0
ATTRIB
  5
234
330
22F
100
AcDbEntity
  8
0
 62
4
100
AcDbText
 10
0.5
 20
-1.0
 30
0.0
 40
0.25
  1
x = 50
100
AcDbAttribute
  2
XPOS
 70
0
  0
ATTRIB
  5
235
330
22F
100
AcDbEntity
  8
0
 62
4
100
AcDbText
 10
0.5
 20
-1.5
 30
0.0
 40
0.25
  1
y = 60
100
AcDbAttribute
  2
YPOS
 70
0
  0
SEQEND
  5
233
330
232
100
AcDbEntity
  8
0
  0
ENDBLK
  5
231
330
22F
100
AcDbEntity
  8
0
100
AcDbBlockEnd
  0
BLOCK
  5
239
330
238
100
AcDbEntity
  8
0
100
AcDbBlockBegin
  2
*U58
 70
1
 10
0.0
 20
0.0
 30
0.0
  3
*U58
  1

  0
INSERT
  5
23B
330
238
100
AcDbEntity
  8
0
100
AcDbBlockReference
 66
1
  2
MARKER
 10
0.0
 20
0.0
 30
0.0
  0
ATTRIB
  5
23D
330
238
100
AcDbEntity
  8
0
 62
4
100
AcDbText
 10
0.5
 20
-1.0
 30
0.0
 40
0.25
  1
x = 50
100
AcDbAttribute
  2
XPOS
 70
0
  0
ATTRIB
  5
23E
330
238
100
AcDbEntity
  8
0
 62
4
100
AcDbText
 10
0.5
 20
-1.5
 30
0.0
 40
0.25
  1
y = 70
100
AcDbAttribute
  2
YPOS
 70
0
  0
SEQEND
  5
23C
330
23B
100
AcDbEntity
  8
0
  0
ENDBLK
  5
23A
330
238
100
AcDbEntity
  8
0
100
AcDbBlockEnd
  0
BLOCK
  5
242
330
241
100
AcDbEntity
  8
0
100
AcDbBlockBegin
  2
*U59
 70
1
 10
0.0
 20
0.0
 30
0.0
  3
*U59
  1

  0
INSERT
  5
244
330
241
100
AcDbEntity
  8
0
100
AcDbBlockReference
 66
1
  2
MARKER
 10
0.0
 20
0.0
 30
0.0
  0
ATTRIB
  5
246
330
241
100
AcDbEntity
  8
0
 62
4
100
AcDbText
 10
0.5
 20
-1.0
 30
0.0
 40
0.25
  1
x = 50
100
AcDbAttribute
  2
XPOS
 70
0
  0
ATTRIB
  5
247
330
241
100
AcDbEntity
  8
0
 62
4
100
AcDbText
 10
0.5
 20
-1.5
 30
0.0
 40
0.25
  1
y = 80
100
AcDbAttribute
  2
YPOS
 70
0
  0
SEQEND
  5
245
330
244
100
AcDbEntity
  8
0
  0
ENDBLK
  5
243
330
241
100
AcDbEntity
  8
0
100
AcDbBlockEnd
  0
BLOCK
  5
24B
330
24A
100
AcDbEntity
  8
0
100
AcDbBlockBegin
  2
*U60
 70
1
 10
0.0
 20
0.0
 30
0.0
  3
*U60
  1

  0
INSERT
  5
24D
330
24A
100
AcDbEntity
  8
0
100
AcDbBlockReference
 66
1
  2
MARKER
 10
0.0
 20
0.0
 30
0.0
  0
ATTRIB
  5
24F
330
24A
100
AcDbEntity
  8
0
 62
4
100
AcDbText
 10
0.5
 20
-1.0
 30
0.0
 40
0.25
  1
x = 50
100
AcDbAttribute
  2
XPOS
 70
0
  0
ATTRIB
  5
250
330
24A
100
AcDbEntity
  8
0
 62
4
100
AcDbText
 10
0.5
 20
-1.5
 30
0.0
 40
0.25
  1
y = 90
100
AcDbAttribute
  2
YPOS
 70
0
  0
SEQEND
  5
24E
330
24D
100
AcDbEntity
  8
0
  0
ENDBLK
  5
24C
330
24A
100
AcDbEntity
  8
0
100
AcDbBlockEnd
  0
BLOCK
  5
254
330
253
100
AcDbEntity
  8
0
100
AcDbBlockBegin
  2
*U61
 70
1
 10
0.0
 20
0.0
 30
0.0
  3
*U61
  1

  0
INSERT
  5
256
330
253
100
AcDbEntity
  8
0
100
AcDbBlockReference
 66
1
  2
MARKER
 10
0.0
 20
0.0
 30
0.0
  0
ATTRIB
  5
258
330
253
100
AcDbEntity
  8
0
 62
4
100
AcDbText
 10
0.5
 20
-1.0
 30
0.0
 40
0.25
  1
x = 60
100
AcDbAttribute
  2
XPOS
 70
0
  0
ATTRIB
  5
259
330
253
100
AcDbEntity
  8
0
 62
4
100
AcDbText
 10
0.5
 20
-1.5
 30
0.0
 40
0.25
  1
y = 0
100
AcDbAttribute
  2
YPOS
 70
0
  0
SEQEND
  5
257
330
256
100
AcDbEntity
  8
0
  0
ENDBLK
  5
255
330
253
100
AcDbEntity
  8
0
100
AcDbBlockEnd
  0
BLOCK
  5
25D
330
25C
100
AcDbEntity
  8
0
100
AcDbBlockBegin
  2
*U62
 70
1
 10
0.0
 20
0.0
 30
0.0
  3
*U62
  1

  0
INSERT
  5
25F
330
25C
100
AcDbEntity
  8
0
100
AcDbBlockReference
 66
1
  2
MARKER
 10
0.0
 20
0.0
 30
0.0
  0
ATTRIB
  5
261
330
25C
100
AcDbEntity
  8
0
 62
4
100
AcDbText
 10
0.5
 20
-1.0
 30
0.0
 40
0.25
  1
x = 60
100
AcDbAttribute
  2
XPOS
 70
0
  0
ATTRIB
  5
262
330
25C
100
AcDbEntity
  8
0
 62
4
100
AcDbText
 10
0.5
 20
-1.5
 30
0.0
 40
0.25
  1
y = 10
100
AcDbAttribute
  2
YPOS
 70
0
  0
SEQEND
  5
260
330
25F
100
AcDbEntity
  8
0
  0
ENDBLK
  5
25E
330
25C
100
AcDbEntity
  8
0
100
AcDbBlockEnd
  0
BLOCK
  5
266
330
265
100
AcDbEntity
  8
0
100
AcDbBlockBegin
  2
*U63
 70
1
 10
0.0
 20
0.0
 30
0.0
  3
*U63
  1

  0
INSERT
  5
268
330
265
100
AcDbEntity
  8
0
100
AcDbBlockReference
 66
1
  2
MARKER
 10
0.0
 20
0.0
 30
0.0
  0
ATTRIB
  5
26A
330
265
100
AcDbEntity
  8
0
 62
4
100
AcDbText
 10
0.5
 20
-1.0
 30
0.0
 40
0.25
  1
x = 60
100
AcDbAttribute
  2
XPOS
 70
0
  0
ATTRIB
  5
26B
330
265
100
AcDbEntity
  8
0
 62
4
100
AcDbText
 10
0.5
 20
-1.5
 30
0.0
 40
0.25
  1
y = 20
100
AcDbAttribute
  2
YPOS
 70
0
  0
SEQEND
  5
269
330
268
100
AcDbEntity
  8
0
  0
ENDBLK
  5
267
330
265
100
AcDbEntity
  8
0
100
AcDbBlockEnd
  0
BLOCK
  5
26F
330
26E
100
AcDbEntity
  8
0
100
AcDbBlockBegin
  2
*U64
 70
1
 10
0.0
 20
0.0
 30
0.0
  3
*U64
  1

  0
INSERT
  5
271
330
26E
100
AcDbEntity
  8
0
100
AcDbBlockReference
 66
1
  2
MARKER
 10
0.0
 20
0.0
 30
0.0
  0
ATTRIB
  5
273
330
26E
100
AcDbEntity
  8
0
 62
4
100
AcDbText
 10
0.5
 20
-1.0
 30
0.0
 40
0.25
  1
x = 60
100
AcDbAttribute
  2
XPOS
 70
0
  0
ATTRIB
  5
274
330
26E
100
AcDbEntity
  8
0
 62
4
100
AcDbText
 10
0.5
 20
-1.5
 30
0.0
 40
0.25
  1
y = 30
100
AcDbAttribute
  2
YPOS
 70
0
  0
SEQEND
  5
272
330
271
100
AcDbEntity
  8
0
  0
ENDBLK
  5
270
330
26E
100
AcDbEntity
  8
0
100
AcDbBlockEnd
  0
BLOCK
  5
278
330
277
100
AcDbEntity
  8
0
100
AcDbBlockBegin
  2
*U65
 70
1
 10
0.0
 20
0.0
 30
0.0
  3
*U65
  1

  0
INSERT
  5
27A
330
277
100
AcDbEntity
  8
0
100
AcDbBlockReference
 66
1
  2
MARKER
 10
0.0
 20
0.0
 30
0.0
  0
ATTRIB
  5
27C
330
277
100
AcDbEntity
  8
0
 62
4
100
AcDbText
 10
0.5
 20
-1.0
 30
0.0
 40
0.25
  1
x = 60
100
AcDbAttribute
  2
XPOS
 70
0
  0
ATTRIB
  5
27D
330
277
100
AcDbEntity
  8
0
 62
4
100
AcDbText
 10
0.5
 20
-1.5
 30
0.0
 40
0.25
  1
y = 40
100
AcDbAttribute
  2
YPOS
 70
0
  0
SEQEND
  5
27B
330
27A
100
AcDbEntity
  8
0
  0
ENDBLK
  5
279
330
277
100
AcDbEntity
  8
0
100
AcDbBlockEnd
  0
BLOCK
  5
281
330
280
100
AcDbEntity
  8
0
100
AcDbBlockBegin
  2
*U66
 70
1
 10
0.0
 20
0.0
 30
0.0
  3
*U66
  1

  0
INSERT
  5
283
330
280
100
AcDbEntity
  8
0
100
AcDbBlockReference
 66
1
  2
MARKER
 10
0.0
 20
0.0
 30
0.0
  0
ATTRIB
  5
285
330
280
100
AcDbEntity
  8
0
 62
4
100
AcDbText
 10
0.5
 20
-1.0
 30
0.0
 40
0.25
  1
x = 60
100
AcDbAttribute
  2
XPOS
 70
0
  0
ATTRIB
  5
286
330
280
100
AcDbEntity
  8
0
 62
4
100
AcDbText
 10
0.5
 20
-1.5
 30
0.0
 40
0.25
  1
y = 50
100
AcDbAttribute
  2
YPOS
 70
0
  0
SEQEND
  5
284
330
283
100
AcDbEntity
  8
0
  0
ENDBLK
  5
282
330
280
100
AcDbEntity
  8
0
100
AcDbBlockEnd
  0
BLOCK
  5
28A
330
289
100
AcDbEntity
  8
0
100
AcDbBlockBegin
  2
*U67
 70
1
 10
0.0
 20
0.0
 30
0.0
  3
*U67
  1

  0
INSERT
  5
28C
330
289
100
AcDbEntity
  8
0
100
AcDbBlockReference
 66
1
  2
MARKER
 10
0.0
 20
0.0
 30
0.0
  0
ATTRIB
  5
28E
330
289
100
AcDbEntity
  8
0
 62
4
100
AcDbText
 10
0.5
 20
-1.0
 30
0.0
 40
0.25
  1
x = 60
100
AcDbAttribute
  2
XPOS
 70
0
  0
ATTRIB
  5
28F
330
289
100
AcDbEntity
  8
0
 62
4
100
AcDbText
 10
0.5
 20
-1.5
 30
0.0
 40
0.25
  1
y = 60
100
AcDbAttribute
  2
YPOS
 70
0
  0
SEQEND
  5
28D
330
28C
100
AcDbEntity
  8
0
  0
ENDBLK
  5
28B
330
289
100
AcDbEntity
  8
0
100
AcDbBlockEnd
  0
BLOCK
  5
293
330
292
100
AcDbEntity
  8
0
100
AcDbBlockBegin
  2
*U68
 70
1
 10
0.0
 20
0.0
 30
0.0
  3
*U68
  1

  0
INSERT
  5
295
330
292
100
AcDbEntity
  8
0
100
AcDbBlockReference
 66
1
  2
MARKER
 10
0.0
 20
0.0
 30
0.0
  0
ATTRIB
  5
297
330
292
100
AcDbEntity
  8
0
 62
4
100
AcDbText
 10
0.5
 20
-1.0
 30
0.0
 40
0.25
  1
x = 60
100
AcDbAttribute
  2
XPOS
 70
0
  0
ATTRIB
  5
298
330
292
100
AcDbEntity
  8
0
 62
4
100
AcDbText
 10
0.5
 20
-1.5
 30
0.0
 40
0.25
  1
y = 70
100
AcDbAttribute
  2
YPOS
 70
0
  0
SEQEND
  5
296
330
295
100
AcDbEntity
  8
0
  0
ENDBLK
  5
294
330
292
100
AcDbEntity
  8
0
100
AcDbBlockEnd
  0
BLOCK
  5
29C
330
29B
100
AcDbEntity
  8
0
100
AcDbBlockBegin
  2
*U69
 70
1
 10
0.0
 20
0.0
 30
0.0
  3
*U69
  1

  0
INSERT
  5
29E
330
29B
100
AcDbEntity
  8
0
100
AcDbBlockReference
 66
1
  2
MARKER
 10
0.0
 20
0.0
 30
0.0
  0
ATTRIB
  5
2A0
330
29B
100
AcDbEntity
  8
0
 62
4
100
AcDbText
 10
0.5
 20
-1.0
 30
0.0
 40
0.25
  1
x = 60
100
AcDbAttribute
  2
XPOS
 70
0
  0
ATTRIB
  5
2A1
330
29B
100
AcDbEntity
  8
0
 62
4
100
AcDbText
 10
0.5
 20
-1.5
 30
0.0
 40
0.25
  1
y = 80
100
AcDbAttribute
  2
YPOS
 70
0
  0
SEQEND
  5
29F
330
29E
100
AcDbEntity
  8
0
  0
ENDBLK
  5
29D
330
29B
100
AcDbEntity
  8
0
100
AcDbBlockEnd
  0
BLOCK
  5
2A5
330
2A4
100
AcDbEntity
  8
0
100
AcDbBlockBegin
  2
*U70
 70
1
 10
0.0
 20
0.0
 30
0.0
  3
*U70
  1

  0
INSERT
  5
2A7
330
2A4
100
AcDbEntity
  8
0
100
AcDbBlockReference
 66
1
  2
MARKER
 10
0.0
 20
0.0
 30
0.0
  0
ATTRIB
  5
2A9
330
2A4
100
AcDbEntity
  8
0
 62
4
100
AcDbText
 10
0.5
 20
-1.0
 30
0.0
 40
0.25
  1
x = 60
100
AcDbAttribute
  2
XPOS
 70
0
  0
ATTRIB
  5
2AA
330
2A4
100
AcDbEntity
  8
0
 62
4
100
AcDbText
 10
0.5
 20
-1.5
 30
0.0
 40
0.25
  1
y = 90
100
AcDbAttribute
  2
YPOS
 70
0
  0
SEQEND
  5
2A8
330
2A7
100
AcDbEntity
  8
0
  0
ENDBLK
  5
2A6
330
2A4
100
AcDbEntity
  8
0
100
AcDbBlockEnd
  0
BLOCK
  5
2AE
330
2AD
100
AcDbEntity
  8
0
100
AcDbBlockBegin
  2
*U71
 70
1
 10
0.0
 20
0.0
 30
0.0
  3
*U71
  1

  0
INSERT
  5
2B0
330
2AD
100
AcDbEntity
  8
0
100
AcDbBlockReference
 66
1
  2
MARKER
 10
0.0
 20
0.0
 30
0.0
  0
ATTRIB
  5
2B2
330
2AD
100
AcDbEntity
  8
0
 62
4
100
AcDbText
 10
0.5
 20
-1.0
 30
0.0
 40
0.25
  1
x = 70
100
AcDbAttribute
  2
XPOS
 70
0
  0
ATTRIB
  5
2B3
330
2AD
100
AcDbEntity
  8
0
 62
4
100
AcDbText
 10
0.5
 20
-1.5
 30
0.0
 40
0.25
  1
y = 0
100
AcDbAttribute
  2
YPOS
 70
0
  0
SEQEND
  5
2B1
330
2B0
100
AcDbEntity
  8
0
  0
ENDBLK
  5
2AF
330
2AD
100
AcDbEntity
  8
0
100
AcDbBlockEnd
  0
BLOCK
  5
2B7
330
2B6
100
AcDbEntity
  8
0
100
AcDbBlockBegin
  2
*U72
 70
1
 10
0.0
 20
0.0
 30
0.0
  3
*U72
  1

  0
INSERT
  5
2B9
330
2B6
100
AcDbEntity
  8
0
100
AcDbBlockReference
 66
1
  2
MARKER
 10
0.0
 20
0.0
 30
0.0
  0
ATTRIB
  5
2BB
330
2B6
100
AcDbEntity
  8
0
 62
4
100
AcDbText
 10
0.5
 20
-1.0
 30
0.0
 40
0.25
  1
x = 70
100
AcDbAttribute
  2
XPOS
 70
0
  0
ATTRIB
  5
2BC
330
2B6
100
AcDbEntity
  8
0
 62
4
100
AcDbText
 10
0.5
 20
-1.5
 30
0.0
 40
0.25
  1
y = 10
100
AcDbAttribute
  2
YPOS
 70
0
  0
SEQEND
  5
2BA
330
2B9
100
AcDbEntity
  8
0
  0
ENDBLK
  5
2B8
330
2B6
100
AcDbEntity
  8
0
100
AcDbBlockEnd
  0
BLOCK
  5
2C0
330
2BF
100
AcDbEntity
  8
0
100
AcDbBlockBegin
  2
*U73
 70
1
 10
0.0
 20
0.0
 30
0.0
  3
*U73
  1

  0
INSERT
  5
2C2
330
2BF
100
AcDbEntity
  8
0
100
AcDbBlockReference
 66
1
  2
MARKER
 10
0.0
 20
0.0
 30
0.0
  0
ATTRIB
  5
2C4
330
2BF
100
AcDbEntity
  8
0
 62
4
100
AcDbText
 10
0.5
 20
-1.0
 30
0.0
 40
0.25
  1
x = 70
100
AcDbAttribute
  2
XPOS
 70
0
  0
ATTRIB
  5
2C5
330
2BF
100
AcDbEntity
  8
0
 62
4
100
AcDbText
 10
0.5
 20
-1.5
 30
0.0
 40
0.25
  1
y = 20
100
AcDbAttribute
  2
YPOS
 70
0
  0
SEQEND
  5
2C3
330
2C2
100
AcDbEntity
  8
0
  0
ENDBLK
  5
2C1
330
2BF
100
AcDbEntity
  8
0
100
AcDbBlockEnd
  0
BLOCK
  5
2C9
330
2C8
100
AcDbEntity
  8
0
100
AcDbBlockBegin
  2
*U74
 70
1
 10
0.0
 20
0.0
 30
0.0
  3
*U74
  1

  0
INSERT
  5
2CB
330
2C8
100
AcDbEntity
  8
0
100
AcDbBlockReference
 66
1
  2
MARKER
 10
0.0
 20
0.0
 30
0.0
  0
ATTRIB
  5
2CD
330
2C8
100
AcDbEntity
  8
0
 62
4
100
AcDbText
 10
0.5
 20
-1.0
 30
0.0
 40
0.25
  1
x = 70
100
AcDbAttribute
  2
XPOS
 70
0
  0
ATTRIB
  5
2CE
330
2C8
100
AcDbEntity
  8
0
 62
4
100
AcDbText
 10
0.5
 20
-1.5
 30
0.0
 40
0.25
  1
y = 30
100
AcDbAttribute
  2
YPOS
 70
0
  0
SEQEND
  5
2CC
330
2CB
100
AcDbEntity
  8
0
  0
ENDBLK
  5
2CA
330
2C8
100
AcDbEntity
  8
0
100
AcDbBlockEnd
  0
BLOCK
  5
2D2
330
2D1
100
AcDbEntity
  8
0
100
AcDbBlockBegin
  2
*U75
 70
1
 10
0.0
 20
0.0
 30
0.0
  3
*U75
  1

  0
INSERT
  5
2D4
330
2D1
100
AcDbEntity
  8
0
100
AcDbBlockReference
 66
1
  2
MARKER
 10
0.0
 20
0.0
 30
0.0
  0
ATTRIB
  5
2D6
330
2D1
100
AcDbEntity
  8
0
 62
4
100
AcDbText
 10
0.5
 20
-1.0
 30
0.0
 40
0.25
  1
x = 70
100
AcDbAttribute
  2
XPOS
 70
0
  0
ATTRIB
  5
2D7
330
2D1
100
AcDbEntity
  8
0
 62
4
100
AcDbText
 10
0.5
 20
-1.5
 30
0.0
 40
0.25
  1
y = 40
100
AcDbAttribute
  2
YPOS
 70
0
  0
SEQEND
  5
2D5
330
2D4
100
AcDbEntity
  8
0
  0
ENDBLK
  5
2D3
330
2D1
100
AcDbEntity
  8
0
100
AcDbBlockEnd
  0
BLOCK
  5
2DB
330
2DA
100
AcDbEntity
  8
0
100
AcDbBlockBegin
  2
*U76
 70
1
 10
0.0
 20
0.0
 30
0.0
  3
*U76
  1

  0
INSERT
  5
2DD
330
2DA
100
AcDbEntity
  8
0
100
AcDbBlockReference
 66
1
  2
MARKER
 10
0.0
 20
0.0
 30
0.0
  0
ATTRIB
  5
2DF
330
2DA
100
AcDbEntity
  8
0
 62
4
100
AcDbText
 10
0.5
 20
-1.0
 30
0.0
 40
0.25
  1
x = 70
100
AcDbAttribute
  2
XPOS
 70
0
  0
ATTRIB
  5
2E0
330
2DA
100
AcDbEntity
  8
0
 62
4
100
AcDbText
 10
0.5
 20
-1.5
 30
0.0
 40
0.25
  1
y = 50
100
AcDbAttribute
  2
YPOS
 70
0
  0
SEQEND
  5
2DE
330
2DD
100
AcDbEntity
  8
0
  0
ENDBLK
  5
2DC
330
2DA
100
AcDbEntity
  8
0
100
AcDbBlockEnd
  0
BLOCK
  5
2E4
330
2E3
100
AcDbEntity
  8
0
100
AcDbBlockBegin
  2
*U77
 70
1
 10
0.0
 20
0.0
 30
0.0
  3
*U77
  1

  0
INSERT
  5
2E6
330
2E3
100
AcDbEntity
  8
0
100
AcDbBlockReference
 66
1
  2
MARKER
 10
0.0
 20
0.0
 30
0.0
  0
ATTRIB
  5
2E8
330
2E3
100
AcDbEntity
  8
0
 62
4
100
AcDbText
 10
0.5
 20
-1.0
 30
0.0
 40
0.25
  1
x = 70
100
AcDbAttribute
  2
XPOS
 70
0
  0
ATTRIB
  5
2E9
330
2E3
100
AcDbEntity
  8
0
 62
4
100
AcDbText
 10
0.5
 20
-1.5
 30
0.0
 40
0.25
  1
y = 60
100
AcDbAttribute
  2
YPOS
 70
0
  0
SEQEND
  5
2E7
330
2E6
100
AcDbEntity
  8
0
  0
ENDBLK
  5
2E5
330
2E3
100
AcDbEntity
  8
0
100
AcDbBlockEnd
  0
BLOCK
  5
2ED
330
2EC
100
AcDbEntity
  8
0
100
AcDbBlockBegin
  2
*U78
 70
1
 10
0.0
 20
0.0
 30
0.0
  3
*U78
  1

  0
INSERT
  5
2EF
330
2EC
100
AcDbEntity
  8
0
100
AcDbBlockReference
 66
1
  2
MARKER
 10
0.0
 20
0.0
 30
0.0
  0
ATTRIB
  5
2F1
330
2EC
100
AcDbEntity
  8
0
 62
4
100
AcDbText
 10
0.5
 20
-1.0
 30
0.0
 40
0.25
  1
x = 70
100
AcDbAttribute
  2
XPOS
 70
0
  0
ATTRIB
  5
2F2
330
2EC
100
AcDbEntity
  8
0
 62
4
100
AcDbText
 10
0.5
 20
-1.5
 30
0.0
 40
0.25
  1
y = 70
100
AcDbAttribute
  2
YPOS
 70
0
  0
SEQEND
  5
2F0
330
2EF
100
AcDbEntity
  8
0
  0
ENDBLK
  5
2EE
330
2EC
100
AcDbEntity
  8
0
100
AcDbBlockEnd
  0
BLOCK
  5
2F6
330
2F5
100
AcDbEntity
  8
0
100
AcDbBlockBegin
  2
*U79
 70
1
 10
0.0
 20
0.0
 30
0.0
  3
*U79
  1

  0
INSERT
  5
2F8
330
2F5
100
AcDbEntity
  8
0
100
AcDbBlockReference
 66
1
  2
MARKER
 10
0.0
 20
0.0
 30
0.0
  0
ATTRIB
  5
2FA
330
2F5
100
AcDbEntity
  8
0
 62
4
100
AcDbText
 10
0.5
 20
-1.0
 30
0.0
 40
0.25
  1
x = 70
100
AcDbAttribute
  2
XPOS
 70
0
  0
ATTRIB
  5
2FB
330
2F5
100
AcDbEntity
  8
0
 62
4
100
AcDbText
 10
0.5
 20
-1.5
 30
0.0
 40
0.25
  1
y = 80
100
AcDbAttribute
  2
YPOS
 70
0
  0
SEQEND
  5
2F9
330
2F8
100
AcDbEntity
  8
0
  0
ENDBLK
  5
2F7
330
2F5
100
AcDbEntity
  8
0
100
AcDbBlockEnd
  0
BLOCK
  5
2FF
330
2FE
100
AcDbEntity
  8
0
100
AcDbBlockBegin
  2
*U80
 70
1
 10
0.0
 20
0.0
 30
0.0
  3
*U80
  1

  0
INSERT
  5
301
330
2FE
100
AcDbEntity
  8
0
100
AcDbBlockReference
 66
1
  2
MARKER
 10
0.0
 20
0.0
 30
0.0
  0
ATTRIB
  5
303
330
2FE
100
AcDbEntity
  8
0
 62
4
100
AcDbText
 10
0.5
 20
-1.0
 30
0.0
 40
0.25
  1
x = 70
100
AcDbAttribute
  2
XPOS
 70
0
  0
ATTRIB
  5
304
330
2FE
100
AcDbEntity
  8
0
 62
4
100
AcDbText
 10
0.5
 20
-1.5
 30
0.0
 40
0.25
  1
y = 90
100
AcDbAttribute
  2
YPOS
 70
0
  0
SEQEND
  5
302
330
301
100
AcDbEntity
  8
0
  0
ENDBLK
  5
300
330
2FE
100
AcDbEntity
  8
0
100
AcDbBlockEnd
  0
BLOCK
  5
308
330
307
100
AcDbEntity
  8
0
100
AcDbBlockBegin
  2
*U81
 70
1
 10
0.0
 20
0.0
 30
0.0
  3
*U81
  1

  0
INSERT
  5
30A
330
307
100
AcDbEntity
  8
0
100
AcDbBlockReference
 66
1
  2
MARKER
 10
0.0
 20
0.0
 30
0.0
  0
ATTRIB
  5
30C
330
307
100
AcDbEntity
  8
0
 62
4
100
AcDbText
 10
0.5
 20
-1.0
 30
0.0
 40
0.25
  1
x = 80
100
AcDbAttribute
  2
XPOS
 70
0
  0
ATTRIB
  5
30D
330
307
100
AcDbEntity
  8
0
 62
4
100
AcDbText
 10
0.5
 20
-1.5
 30
0.0
 40
0.25
  1
y = 0
100
AcDbAttribute
  2
YPOS
 70
0
  0
SEQEND
  5
30B
330
30A
100
AcDbEntity
  8
0
  0
ENDBLK
  5
309
330
307
100
AcDbEntity
  8
0
100
AcDbBlockEnd
  0
BLOCK
  5
311
330
310
100
AcDbEntity
  8
0
100
AcDbBlockBegin
  2
*U82
 70
1
 10
0.0
 20
0.0
 30
0.0
  3
*U82
  1

  0
INSERT
  5
313
330
310
100
AcDbEntity
  8
0
100
AcDbBlockReference
 66
1
  2
MARKER
 10
0.0
 20
0.0
 30
0.0
  0
ATTRIB
  5
315
330
310
100
AcDbEntity
  8
0
 62
4
100
AcDbText
 10
0.5
 20
-1.0
 30
0.0
 40
0.25
  1
x = 80
100
AcDbAttribute
  2
XPOS
 70
0
  0
ATTRIB
  5
316
330
310
100
AcDbEntity
  8
0
 62
4
100
AcDbText
 10
0.5
 20
-1.5
 30
0.0
 40
0.25
  1
y = 10
100
AcDbAttribute
  2
YPOS
 70
0
  0
SEQEND
  5
314
330
313
100
AcDbEntity
  8
0
  0
ENDBLK
  5
312
330
310
100
AcDbEntity
  8
0
100
AcDbBlockEnd
  0
BLOCK
  5
31A
330
319
100
AcDbEntity
  8
0
100
AcDbBlockBegin
  2
*U83
 70
1
 10
0.0
 20
0.0
 30
0.0
  3
*U83
  1

  0
INSERT
  5
31C
330
319
100
AcDbEntity
  8
0
100
AcDbBlockReference
 66
1
  2
MARKER
 10
0.0
 20
0.0
 30
0.0
  0
ATTRIB
  5
31E
330
319
100
AcDbEntity
  8
0
 62
4
100
AcDbText
 10
0.5
 20
-1.0
 30
0.0
 40
0.25
  1
x = 80
100
AcDbAttribute
  2
XPOS
 70
0
  0
ATTRIB
  5
31F
330
319
100
AcDbEntity
  8
0
 62
4
100
AcDbText
 10
0.5
 20
-1.5
 30
0.0
 40
0.25
  1
y = 20
100
AcDbAttribute
  2
YPOS
 70
0
  0
SEQEND
  5
31D
330
31C
100
AcDbEntity
  8
0
  0
ENDBLK
  5
31B
330
319
100
AcDbEntity
  8
0
100
AcDbBlockEnd
  0
BLOCK
  5
323
330
322
100
AcDbEntity
  8
0
100
AcDbBlockBegin
  2
*U84
 70
1
 10
0.0
 20
0.0
 30
0.0
  3
*U84
  1

  0
INSERT
  5
325
330
322
100
AcDbEntity
  8
0
100
AcDbBlockReference
 66
1
  2
MARKER
 10
0.0
 20
0.0
 30
0.0
  0
ATTRIB
  5
327
330
322
100
AcDbEntity
  8
0
 62
4
100
AcDbText
 10
0.5
 20
-1.0
 30
0.0
 40
0.25
  1
x = 80
100
AcDbAttribute
  2
XPOS
 70
0
  0
ATTRIB
  5
328
330
322
100
AcDbEntity
  8
0
 62
4
100
AcDbText
 10
0.5
 20
-1.5
 30
0.0
 40
0.25
  1
y = 30
100
AcDbAttribute
  2
YPOS
 70
0
  0
SEQEND
  5
326
330
325
100
AcDbEntity
  8
0
  0
ENDBLK
  5
324
330
322
100
AcDbEntity
  8
0
100
AcDbBlockEnd
  0
BLOCK
  5
32C
330
32B
100
AcDbEntity
  8
0
100
AcDbBlockBegin
  2
*U85
 70
1
 10
0.0
 20
0.0
 30
0.0
  3
*U85
  1

  0
INSERT
  5
32E
330
32B
100
AcDbEntity
  8
0
100
AcDbBlockReference
 66
1
  2
MARKER
 10
0.0
 20
0.0
 30
0.0
  0
ATTRIB
  5
330
330
32B
100
AcDbEntity
  8
0
 62
4
100
AcDbText
 10
0.5
 20
-1.0
 30
0.0
 40
0.25
  1
x = 80
100
AcDbAttribute
  2
XPOS
 70
0
  0
ATTRIB
  5
331
330
32B
100
AcDbEntity
  8
0
 62
4
100
AcDbText
 10
0.5
 20
-1.5
 30
0.0
 40
0.25
  1
y = 40
100
AcDbAttribute
  2
YPOS
 70
0
  0
SEQEND
  5
32F
330
32E
100
AcDbEntity
  8
0
  0
ENDBLK
  5
32D
330
32B
100
AcDbEntity
  8
0
100
AcDbBlockEnd
  0
BLOCK
  5
335
330
334
100
AcDbEntity
  8
0
100
AcDbBlockBegin
  2
*U86
 70
1
 10
0.0
 20
0.0
 30
0.0
  3
*U86
  1

  0
INSERT
  5
337
330
334
100
AcDbEntity
  8
0
100
AcDbBlockReference
 66
1
  2
MARKER
 10
0.0
 20
0.0
 30
0.0
  0
ATTRIB
  5
339
330
334
100
AcDbEntity
  8
0
 62
4
100
AcDbText
 10
0.5
 20
-1.0
 30
0.0
 40
0.25
  1
x = 80
100
AcDbAttribute
  2
XPOS
 70
0
  0
ATTRIB
  5
33A
330
334
100
AcDbEntity
  8
0
 62
4
100
AcDbText
 10
0.5
 20
-1.5
 30
0.0
 40
0.25
  1
y = 50
100
AcDbAttribute
  2
YPOS
 70
0
  0
SEQEND
  5
338
330
337
100
AcDbEntity
  8
0
  0
ENDBLK
  5
336
330
334
100
AcDbEntity
  8
0
100
AcDbBlockEnd
  0
BLOCK
  5
33E
330
33D
100
AcDbEntity
  8
0
100
AcDbBlockBegin
  2
*U87
 70
1
 10
0.0
 20
0.0
 30
0.0
  3
*U87
  1

  0
INSERT
  5
340
330
33D
100
AcDbEntity
  8
0
100
AcDbBlockReference
 66
1
  2
MARKER
 10
0.0
 20
0.0
 30
0.0
  0
ATTRIB
  5
342
330
33D
100
AcDbEntity
  8
0
 62
4
100
AcDbText
 10
0.5
 20
-1.0
 30
0.0
 40
0.25
  1
x = 80
100
AcDbAttribute
  2
XPOS
 70
0
  0
ATTRIB
  5
343
330
33D
100
AcDbEntity
  8
0
 62
4
100
AcDbText
 10
0.5
 20
-1.5
 30
0.0
 40
0.25
  1
y = 60
100
AcDbAttribute
  2
YPOS
 70
0
  0
SEQEND
  5
341
330
340
100
AcDbEntity
  8
0
  0
ENDBLK
  5
33F
330
33D
100
AcDbEntity
  8
0
100
AcDbBlockEnd
  0
BLOCK
  5
347
330
346
100
AcDbEntity
  8
0
100
AcDbBlockBegin
  2
*U88
 70
1
 10
0.0
 20
0.0
 30
0.0
  3
*U88
  1

  0
INSERT
  5
349
330
346
100
AcDbEntity
  8
0
100
AcDbBlockReference
 66
1
  2
MARKER
 10
0.0
 20
0.0
 30
0.0
  0
ATTRIB
  5
34B
330
346
100
AcDbEntity
  8
0
 62
4
100
AcDbText
 10
0.5
 20
-1.0
 30
0.0
 40
0.25
  1
x = 80
100
AcDbAttribute
  2
XPOS
 70
0
  0
ATTRIB
  5
34C
330
346
100
AcDbEntity
  8
0
 62
4
100
AcDbText
 10
0.5
 20
-1.5
 30
0.0
 40
0.25
  1
y = 70
100
AcDbAttribute
  2
YPOS
 70
0
  0
SEQEND
  5
34A
330
349
100
AcDbEntity
  8
0
  0
ENDBLK
  5
348
330
346
100
AcDbEntity
  8
0
100
AcDbBlockEnd
  0
BLOCK
  5
350
330
34F
100
AcDbEntity
  8
0
100
AcDbBlockBegin
  2
*U89
 70
1
 10
0.0
 20
0.0
 30
0.0
  3
*U89
  1

  0
INSERT
  5
352
330
34F
100
AcDbEntity
  8
0
100
AcDbBlockReference
 66
1
  2
MARKER
 10
0.0
 20
0.0
 30
0.0
  0
ATTRIB
  5
354
330
34F
100
AcDbEntity
  8
0
 62
4
100
AcDbText
 10
0.5
 20
-1.0
 30
0.0
 40
0.25
  1
x = 80
100
AcDbAttribute
  2
XPOS
 70
0
  0
ATTRIB
  5
355
330
34F
100
AcDbEntity
  8
0
 62
4
100
AcDbText
 10
0.5
 20
-1.5
 30
0.0
 40
0.25
  1
y = 80
100
AcDbAttribute
  2
YPOS
 70
0
  0
SEQEND
  5
353
330
352
100
AcDbEntity
  8
0
  0
ENDBLK
  5
351
330
34F
100
AcDbEntity
  8
0
100
AcDbBlockEnd
  0
BLOCK
  5
359
330
358
100
AcDbEntity
  8
0
100
AcDbBlockBegin
  2
*U90
 70
1
 10
0.0
 20
0.0
 30
0.0
  3
*U90
  1

  0
INSERT
  5
35B
330
358
100
AcDbEntity
  8
0
100
AcDbBlockReference
 66
1
  2
MARKER
 10
0.0
 20
0.0
 30
0.0
  0
ATTRIB
  5
35D
330
358
100
AcDbEntity
  8
0
 62
4
100
AcDbText
 10
0.5
 20
-1.0
 30
0.0
 40
0.25
  1
x = 80
100
AcDbAttribute
  2
XPOS
 70
0
  0
ATTRIB
  5
35E
330
358
100
AcDbEntity
  8
0
 62
4
100
AcDbText
 10
0.5
 20
-1.5
 30
0.0
 40
0.25
  1
y = 90
100
AcDbAttribute
  2
YPOS
 70
0
  0
SEQEND
  5
35C
330
35B
100
AcDbEntity
  8
0
  0
ENDBLK
  5
35A
330
358
100
AcDbEntity
  8
0
100
AcDbBlockEnd
  0
BLOCK
  5
362
330
361
100
AcDbEntity
  8
0
100
AcDbBlockBegin
  2
*U91
 70
1
 10
0.0
 20
0.0
 30
0.0
  3
*U91
  1

  0
INSERT
  5
364
330
361
100
AcDbEntity
  8
0
100
AcDbBlockReference
 66
1
  2
MARKER
 10
0.0
 20
0.0
 30
0.0
  0
ATTRIB
  5
366
330
361
100
AcDbEntity
  8
0
 62
4
100
AcDbText
 10
0.5
 20
-1.0
 30
0.0
 40
0.25
  1
x = 90
100
AcDbAttribute
  2
XPOS
 70
0
  0
ATTRIB
  5
367
330
361
100
AcDbEntity
  8
0
 62
4
100
AcDbText
 10
0.5
 20
-1.5
 30
0.0
 40
0.25
  1
y = 0
100
AcDbAttribute
  2
YPOS
 70
0
  0
SEQEND
  5
365
330
364
100
AcDbEntity
  8
0
  0
ENDBLK
  5
363
330
361
100
AcDbEntity
  8
0
100
AcDbBlockEnd
  0
BLOCK
  5
36B
330
36A
100
AcDbEntity
  8
0
100
AcDbBlockBegin
  2
*U92
 70
1
 10
0.0
 20
0.0
 30
0.0
  3
*U92
  1

  0
INSERT
  5
36D
330
36A
100
AcDbEntity
  8
0
100
AcDbBlockReference
 66
1
  2
MARKER
 10
0.0
 20
0.0
 30
0.0
  0
ATTRIB
  5
36F
330
36A
100
AcDbEntity
  8
0
 62
4
100
AcDbText
 10
0.5
 20
-1.0
 30
0.0
 40
0.25
  1
x = 90
100
AcDbAttribute
  2
XPOS
 70
0
  0
ATTRIB
  5
370
330
36A
100
AcDbEntity
  8
0
 62
4
100
AcDbText
 10
0.5
 20
-1.5
 30
0.0
 40
0.25
  1
y = 10
100
AcDbAttribute
  2
YPOS
 70
0
  0
SEQEND
  5
36E
330
36D
100
AcDbEntity
  8
0
  0
ENDBLK
  5
36C
330
36A
100
AcDbEntity
  8
0
100
AcDbBlockEnd
  0
BLOCK
  5
374
330
373
100
AcDbEntity
  8
0
100
AcDbBlockBegin
  2
*U93
 70
1
 10
0.0
 20
0.0
 30
0.0
  3
*U93
  1

  0
INSERT
  5
376
330
373
100
AcDbEntity
  8
0
100
AcDbBlockReference
 66
1
  2
MARKER
 10
0.0
 20
0.0
 30
0.0
  0
ATTRIB
  5
378
330
373
100
AcDbEntity
  8
0
 62
4
100
AcDbText
 10
0.5
 20
-1.0
 30
0.0
 40
0.25
  1
x = 90
100
AcDbAttribute
  2
XPOS
 70
0
  0
ATTRIB
  5
379
330
373
100
AcDbEntity
  8
0
 62
4
100
AcDbText
 10
0.5
 20
-1.5
 30
0.0
 40
0.25
  1
y = 20
100
AcDbAttribute
  2
YPOS
 70
0
  0
SEQEND
  5
377
330
376
100
AcDbEntity
  8
0
  0
ENDBLK
  5
375
330
373
100
AcDbEntity
  8
0
100
AcDbBlockEnd
  0
BLOCK
  5
37D
330
37C
100
AcDbEntity
  8
0
100
AcDbBlockBegin
  2
*U94
 70
1
 10
0.0
 20
0.0
 30
0.0
  3
*U94
  1

  0
INSERT
  5
37F
330
37C
100
AcDbEntity
  8
0
100
AcDbBlockReference
 66
1
  2
MARKER
 10
0.0
 20
0.0
 30
0.0
  0
ATTRIB
  5
381
330
37C
100
AcDbEntity
  8
0
 62
4
100
AcDbText
 10
0.5
 20
-1.0
 30
0.0
 40
0.25
  1
x = 90
100
AcDbAttribute
  2
XPOS
 70
0
  0
ATTRIB
  5
382
330
37C
100
AcDbEntity
  8
0
 62
4
100
AcDbText
 10
0.5
 20
-1.5
 30
0.0
 40
0.25
  1
y = 30
100
AcDbAttribute
  2
YPOS
 70
0
  0
SEQEND
  5
380
330
37F
100
AcDbEntity
  8
0
  0
ENDBLK
  5
37E
330
37C
100
AcDbEntity
  8
0
100
AcDbBlockEnd
  0
BLOCK
  5
386
330
385
100
AcDbEntity
  8
0
100
AcDbBlockBegin
  2
*U95
 70
1
 10
0.0
 20
0.0
 30
0.0
  3
*U95
  1

  0
INSERT
  5
388
330
385
100
AcDbEntity
  8
0
100
AcDbBlockReference
 66
1
  2
MARKER
 10
0.0
 20
0.0
 30
0.0
  0
ATTRIB
  5
38A
330
385
100
AcDbEntity
  8
0
 62
4
100
AcDbText
 10
0.5
 20
-1.0
 30
0.0
 40
0.25
  1
x = 90
100
AcDbAttribute
  2
XPOS
 70
0
  0
ATTRIB
  5
38B
330
385
100
AcDbEntity
  8
0
 62
4
100
AcDbText
 10
0.5
 20
-1.5
 30
0.0
 40
0.25
  1
y = 40
100
AcDbAttribute
  2
YPOS
 70
0
  0
SEQEND
  5
389
330
388
100
AcDbEntity
  8
0
  0
ENDBLK
  5
387
330
385
100
AcDbEntity
  8
0
100
AcDbBlockEnd
  0
BLOCK
  5
38F
330
38E
100
AcDbEntity
  8
0
100
AcDbBlockBegin
  2
*U96
 70
1
 10
0.0
 20
0.0
 30
0.0
  3
*U96
  1

  0
INSERT
  5
391
330
38E
100
AcDbEntity
  8
0
100
AcDbBlockReference
 66
1
  2
MARKER
 10
0.0
 20
0.0
 30
0.0
  0
ATTRIB
  5
393
330
38E
100
AcDbEntity
  8
0
 62
4
100
AcDbText
 10
0.5
 20
-1.0
 30
0.0
 40
0.25
  1
x = 90
100
AcDbAttribute
  2
XPOS
 70
0
  0
ATTRIB
  5
394
330
38E
100
AcDbEntity
  8
0
 62
4
100
AcDbText
 10
0.5
 20
-1.5
 30
0.0
 40
0.25
  1
y = 50
100
AcDbAttribute
  2
YPOS
 70
0
  0
SEQEND
  5
392
330
391
100
AcDbEntity
  8
0
  0
ENDBLK
  5
390
330
38E
100
AcDbEntity
  8
0
100
AcDbBlockEnd
  0
BLOCK
  5
398
330
397
100
AcDbEntity
  8
0
100
AcDbBlockBegin
  2
*U97
 70
1
 10
0.0
 20
0.0
 30
0.0
  3
*U97
  1

  0
INSERT
  5
39A
330
397
100
AcDbEntity
  8
0
100
AcDbBlockReference
 66
1
  2
MARKER
 10
0.0
 20
0.0
 30
0.0
  0
ATTRIB
  5
39C
330
397
100
AcDbEntity
  8
0
 62
4
100
AcDbText
 10
0.5
 20
-1.0
 30
0.0
 40
0.25
  1
x = 90
100
AcDbAttribute
  2
XPOS
 70
0
  0
ATTRIB
  5
39D
330
397
100
AcDbEntity
  8
0
 62
4
100
AcDbText
 10
0.5
 20
-1.5
 30
0.0
 40
0.25
  1
y = 60
100
AcDbAttribute
  2
YPOS
 70
0
  0
SEQEND
  5
39B
330
39A
100
AcDbEntity
  8
0
  0
ENDBLK
  5
399
330
397
100
AcDbEntity
  8
0
100
AcDbBlockEnd
  0
BLOCK
  5
3A1
330
3A0
100
AcDbEntity
  8
0
100
AcDbBlockBegin
  2
*U98
 70
1
 10
0.0
 20
0.0
 30
0.0
  3
*U98
  1

  0
INSERT
  5
3A3
330
3A0
100
AcDbEntity
  8
0
100
AcDbBlockReference
 66
1
  2
MARKER
 10
0.0
 20
0.0
 30
0.0
  0
ATTRIB
  5
3A5
330
3A0
100
AcDbEntity
  8
0
 62
4
100
AcDbText
 10
0.5
 20
-1.0
 30
0.0
 40
0.25
  1
x = 90
100
AcDbAttribute
  2
XPOS
 70
0
  0
ATTRIB
  5
3A6
330
3A0
100
AcDbEntity
  8
0
 62
4
100
AcDbText
 10
0.5
 20
-1.5
 30
0.0
 40
0.25
  1
y = 70
100
AcDbAttribute
  2
YPOS
 70
0
  0
SEQEND
  5
3A4
330
3A3
100
AcDbEntity
  8
0
  0
ENDBLK
  5
3A2
330
3A0
100
AcDbEntity
  8
0
100
AcDbBlockEnd
  0
BLOCK
  5
3AA
330
3A9
100
AcDbEntity
  8
0
100
AcDbBlockBegin
  2
*U99
 70
1
 10
0.0
 20
0.0
 30
0.0
  3
*U99
  1

  0
INSERT
  5
3AC
330
3A9
100
AcDbEntity
  8
0
100
AcDbBlockReference
 66
1
  2
MARKER
 10
0.0
 20
0.0
 30
0.0
  0
ATTRIB
  5
3AE
330
3A9
100
AcDbEntity
  8
0
 62
4
100
AcDbText
 10
0.5
 20
-1.0
 30
0.0
 40
0.25
  1
x = 90
100
AcDbAttribute
  2
XPOS
 70
0
  0
ATTRIB
  5
3AF
330
3A9
100
AcDbEntity
  8
0
 62
4
100
AcDbText
 10
0.5
 20
-1.5
 30
0.0
 40
0.25
  1
y = 80
100
AcDbAttribute
  2
YPOS
 70
0
  0
SEQEND
  5
3AD
330
3AC
100
AcDbEntity
  8
0
  0
ENDBLK
  5
3AB
330
3A9
100
AcDbEntity
  8
0
100
AcDbBlockEnd
  0
BLOCK
  5
3B3
330
3B2
100
AcDbEntity
  8
0
100
AcDbBlockBegin
  2
*U100
 70
1
 10
0.0
 20
0.0
 30
0.0
  3
*U100
  1

  0
INSERT
  5
3B5
330
3B2
100
AcDbEntity
  8
0
100
AcDbBlockReference
 66
1
  2
MARKER
 10
0.0
 20
0.0
 30
0.0
  0
ATTRIB
  5
3B7
330
3B2
100
AcDbEntity
  8
0
 62
4
100
AcDbText
 10
0.5
 20
-1.0
 30
0.0
 40
0.25
  1
x = 90
100
AcDbAttribute
  2
XPOS
 70
0
  0
ATTRIB
  5
3B8
330
3B2
100
AcDbEntity
  8
0
 62
4
100
AcDbText
 10
0.5
 20
-1.5
 30
0.0
 40
0.25
  1
y = 90
100
AcDbAttribute
  2
YPOS
 70
0
  0
SEQEND
  5
3B6
330
3B5
100
AcDbEntity
  8
0
  0
ENDBLK
  5
3B4
330
3B2
100
AcDbEntity
  8
0
100
AcDbBlockEnd
  0
BLOCK
  5
3C2
330
3C1
100
AcDbEntity
  8
0
100
AcDbBlockBegin
  2
*Paper_Space0
 70
0
 10
0.0
 20
0.0
 30
0.0
  3
*Paper_Space0
  1

  0
VIEWPORT
  5
3C5
330
3C1
100
AcDbEntity
 67
1
  8
VIEWPORTS
100
AcDbViewport
 10
138.5
 20
95.0
 30
0.0
 40
326.70000000000005
 41
231.00000000000003
 68
1
 69
1
 12
138.5
 22
95.0
 13
0.0
 23
0.0
 14
10.0
 24
10.0
 15
10.0
 25
10.0
 16
0.0
 26
0.0
 36
1.0
 17
0.0
 27
0.0
 37
0.0
 42
50.0
 43
0.0
 44
0.0
 45
231.00000000000003
 50
0.0
 51
0.0
 72
100
 90
557088
  1

281
0
 71
0
 74
0
110
0.0
120
0.0
130
0.0
111
1.0
121
0.0
131
0.0
112
0.0
122
1.0
132
0.0
 79
0
146
0.0
  0
VIEWPORT
  5
3C6
330
3C1
100
AcDbEntity
 67
1
  8
VIEWPORTS
100
AcDbViewport
 10
100.0
 20
100.0
 30
0.0
 40
50.0
 41
50.0
 68
1
 69
3
 12
60.0
 22
40.0
 13
0.0
 23
0.0
 14
10.0
 24
10.0
 15
10.0
 25
10.0
 16
0.0
 26
0.0
 36
1.0
 17
0.0
 27
0.0
 37
0.0
 42
50.0
 43
0.0
 44
0.0
 45
20.0
 50
0.0
 51
0.0
 72
100
 90
0
  1

281
0
 71
0
 74
0
110
0.0
120
0.0
130
0.0
111
1.0
121
0.0
131
0.0
112
0.0
122
1.0
132
0.0
 79
0
146
0.0
  0
LINE
  5
3C7
330
3C1
100
AcDbEntity
 67
1
  8
0
100
AcDbLine
 10
-10.0
 20
95.0
 30
0.0
 11
287.0
 21
95.0
 31
0.0
  0
LINE
  5
3C8
330
3C1
100
AcDbEntity
 67
1
  8
0
100
AcDbLine
 10
138.5
 20
-10.0
 30
0.0
 11
138.5
 21
200.0
 31
0.0
  0
CIRCLE
  5
3C9
330
3C1
100
AcDbEntity
 67
1
  8
0
100
AcDbCircle
 10
0.0
 20
0.0
 30
0.0
 40
5.0
  0
ENDBLK
  5
3C3
330
3C1
100
AcDbEntity
  8
0
100
AcDbBlockEnd
  0
BLOCK
  5
3CB
330
3CA
100
AcDbEntity
  8
0
100
AcDbBlockBegin
  2
*Paper_Space1
 70
0
 10
0.0
 20
0.0
 30
0.0
  3
*Paper_Space1
  1

  0
VIEWPORT
  5
3CE
330
3CA
100
AcDbEntity
 67
1
  8
VIEWPORTS
100
AcDbViewport
 10
6925.0
 20
4750.0
 30
0.0
 40
16335.000000000002
 41
11550.000000000002
 68
1
 69
1
 12
6925.0
 22
4750.0
 13
0.0
 23
0.0
 14
10.0
 24
10.0
 15
10.0
 25
10.0
 16
0.0
 26
0.0
 36
1.0
 17
0.0
 27
0.0
 37
0.0
 42
50.0
 43
0.0
 44
0.0
 45
11550.000000000002
 50
0.0
 51
0.0
 72
100
 90
557088
  1

281
0
 71
0
 74
0
110
0.0
120
0.0
130
0.0
111
1.0
121
0.0
131
0.0
112
0.0
122
1.0
132
0.0
 79
0
146
0.0
  0
VIEWPORT
  5
3CF
330
3CA
100
AcDbEntity
 67
1
  8
VIEWPORTS
100
AcDbViewport
 10
5000.0
 20
5000.0
 30
0.0
 40
5000.0
 41
2500.0
 68
1
 69
3
 12
60.0
 22
40.0
 13
0.0
 23
0.0
 14
10.0
 24
10.0
 15
10.0
 25
10.0
 16
0.0
 26
0.0
 36
1.0
 17
0.0
 27
0.0
 37
0.0
 42
50.0
 43
0.0
 44
0.0
 45
20.0
 50
0.0
 51
0.0
 72
100
 90
0
  1

281
0
 71
0
 74
0
110
0.0
120
0.0
130
0.0
111
1.0
121
0.0
131
0.0
112
0.0
122
1.0
132
0.0
 79
0
146
0.0
  0
CIRCLE
  5
3D0
330
3CA
100
AcDbEntity
 67
1
  8
0
100
AcDbCircle
 10
0.0
 20
0.0
 30
0.0
 40
250.0
  0
ENDBLK
  5
3CC
330
3CA
100
AcDbEntity
  8
0
100
AcDbBlockEnd
  0
BLOCK
  5
3D2
330
3D1
100
AcDbEntity
  8
0
100
AcDbBlockBegin
  2
*Paper_Space2
 70
0
 10
0.0
 20
0.0
 30
0.0
  3
*Paper_Space2
  1

  0
VIEWPORT
  5
3D5
330
3D1
100
AcDbEntity
 67
1
  8
VIEWPORTS
100
AcDbViewport
 10
88.5
 20
45.0
 30
0.0
 40
326.70000000000005
 41
231.00000000000003
 68
1
 69
1
 12
88.5
 22
45.0
 13
0.0
 23
0.0
 14
10.0
 24
10.0
 15
10.0
 25
10.0
 16
0.0
 26
0.0
 36
1.0
 17
0.0
 27
0.0
 37
0.0
 42
50.0
 43
0.0
 44
0.0
 45
231.00000000000003
 50
0.0
 51
0.0
 72
100
 90
557088
  1

281
0
 71
0
 74
0
110
0.0
120
0.0
130
0.0
111
1.0
121
0.0
131
0.0
112
0.0
122
1.0
132
0.0
 79
0
146
0.0
  0
LINE
  5
3D6
330
3D1
100
AcDbEntity
 67
1
  8
0
100
AcDbLine
 10
-60.0
 20
45.0
 30
0.0
 11
237.0
 21
45.0
 31
0.0
  0
LINE
  5
3D7
330
3D1
100
AcDbEntity
 67
1
  8
0
100
AcDbLine
 10
88.5
 20
-60.0
 30
0.0
 11
88.5
 21
150.0
 31
0.0
  0
CIRCLE
  5
3D8
330
3D1
100
AcDbEntity
 67
1
  8
0
100
AcDbCircle
 10
0.0
 20
0.0
 30
0.0
 40
5.0
  0
ENDBLK
  5
3D3
330
3D1
100
AcDbEntity
  8
0
100
AcDbBlockEnd
  0
ENDSEC
  0
SECTION
  2
ENTITIES
  0
INSERT
  5
3E
330
17
100
AcDbEntity
  8
0
100
AcDbBlockReference
  2
*U1
 10
0.0
 20
0.0
 30
0.0
  0
INSERT
  5
47
330
17
100
AcDbEntity
  8
0
100
AcDbBlockReference
  2
*U2
 10
0.0
 20
10.0
 30
0.0
  0
INSERT
  5
50
330
17
100
AcDbEntity
  8
0
100
AcDbBlockReference
  2
*U3
 10
0.0
 20
20.0
 30
0.0
  0
INSERT
  5
59
330
17
100
AcDbEntity
  8
0
100
AcDbBlockReference
  2
*U4
 10
0.0
 20
30.0
 30
0.0
  0
INSERT
  5
62
330
17
100
AcDbEntity
  8
0
100
AcDbBlockReference
  2
*U5
 10
0.0
 20
40.0
 30
0.0
  0
INSERT
  5
6B
330
17
100
AcDbEntity
  8
0
100
AcDbBlockReference
  2
*U6
 10
0.0
 20
50.0
 30
0.0
  0
INSERT
  5
74
330
17
100
AcDbEntity
  8
0
100
AcDbBlockReference
  2
*U7
 10
0.0
 20
60.0
 30
0.0
  0
INSERT
  5
7D
330
17
100
AcDbEntity
  8
0
100
AcDbBlockReference
  2
*U8
 10
0.0
 20
70.0
 30
0.0
  0
INSERT
  5
86
330
17
100
AcDbEntity
  8
0
100
AcDbBlockReference
  2
*U9
 10
0.0
 20
80.0
 30
0.0
  0
INSERT
  5
8F
330
17
100
AcDbEntity
  8
0
100
AcDbBlockReference
  2
*U10
 10
0.0
 20
90.0
 30
0.0
  0
INSERT
  5
98
330
17
100
AcDbEntity
  8
0
100
AcDbBlockReference
  2
*U11
 10
10.0
 20
0.0
 30
0.0
  0
INSERT
  5
A1
330
17
100
AcDbEntity
  8
0
100
AcDbBlockReference
  2
*U12
 10
10.0
 20
10.0
 30
0.0
  0
INSERT
  5
AA
330
17
100
AcDbEntity
  8
0
100
AcDbBlockReference
  2
*U13
 10
10.0
 20
20.0
 30
0.0
  0
INSERT
  5
B3
330
17
100
AcDbEntity
  8
0
100
AcDbBlockReference
  2
*U14
 10
10.0
 20
30.0
 30
0.0
  0
INSERT
  5
BC
330
17
100
AcDbEntity
  8
0
100
AcDbBlockReference
  2
*U15
 10
10.0
 20
40.0
 30
0.0
  0
INSERT
  5
C5
330
17
100
AcDbEntity
  8
0
100
AcDbBlockReference
  2
*U16
 10
10.0
 20
50.0
 30
0.0
  0
INSERT
  5
CE
330
17
100
AcDbEntity
  8
0
100
AcDbBlockReference
  2
*U17
 10
10.0
 20
60.0
 30
0.0
  0
INSERT
  5
D7
330
17
100
AcDbEntity
  8
0
100
AcDbBlockReference
  2
*U18
 10
10.0
 20
70.0
 30
0.0
  0
INSERT
  5
E0
330
17
100
AcDbEntity
  8
0
100
AcDbBlockReference
  2
*U19
 10
10.0
 20
80.0
 30
0.0
  0
INSERT
  5
E9
330
17
100
AcDbEntity
  8
0
100
AcDbBlockReference
  2
*U20
 10
10.0
 20
90.0
 30
0.0
  0
INSERT
  5
F2
330
17
100
AcDbEntity
  8
0
100
AcDbBlockReference
  2
*U21
 10
20.0
 20
0.0
 30
0.0
  0
INSERT
  5
FB
330
17
100
AcDbEntity
  8
0
100
AcDbBlockReference
  2
*U22
 10
20.0
 20
10.0
 30
0.0
  0
INSERT
  5
104
330
17
100
AcDbEntity
  8
0
100
AcDbBlockReference
  2
*U23
 10
20.0
 20
20.0
 30
0.0
  0
INSERT
  5
10D
330
17
100
AcDbEntity
  8
0
100
AcDbBlockReference
  2
*U24
 10
20.0
 20
30.0
 30
0.0
  0
INSERT
  5
116
330
17
100
AcDbEntity
  8
0
100
AcDbBlockReference
  2
*U25
 10
20.0
 20
40.0
 30
0.0
  0
INSERT
  5
11F
330
17
100
AcDbEntity
  8
0
100
AcDbBlockReference
  2
*U26
 10
20.0
 20
50.0
 30
0.0
  0
INSERT
  5
128
330
17
100
AcDbEntity
  8
0
100
AcDbBlockReference
  2
*U27
 10
20.0
 20
60.0
 30
0.0
  0
INSERT
  5
131
330
17
100
AcDbEntity
  8
0
100
AcDbBlockReference
  2
*U28
 10
20.0
 20
70.0
 30
0.0
  0
INSERT
  5
13A
330
17
100
AcDbEntity
  8
0
100
AcDbBlockReference
  2
*U29
 10
20.0
 20
80.0
 30
0.0
  0
INSERT
  5
143
330
17
100
AcDbEntity
  8
0
100
AcDbBlockReference
  2
*U30
 10
20.0
 20
90.0
 30
0.0
  0
INSERT
  5
14C
330
17
100
AcDbEntity
  8
0
100
AcDbBlockReference
  2
*U31
 10
30.0
 20
0.0
 30
0.0
  0
INSERT
  5
155
330
17
100
AcDbEntity
  8
0
100
AcDbBlockReference
  2
*U32
 10
30.0
 20
10.0
 30
0.0
  0
INSERT
  5
15E
330
17
100
AcDbEntity
  8
0
100
AcDbBlockReference
  2
*U33
 10
30.0
 20
20.0
 30
0.0
  0
INSERT
  5
167
330
17
100
AcDbEntity
  8
0
100
AcDbBlockReference
  2
*U34
 10
30.0
 20
30.0
 30
0.0
  0
INSERT
  5
170
330
17
100
AcDbEntity
  8
0
100
AcDbBlockReference
  2
*U35
 10
30.0
 20
40.0
 30
0.0
  0
INSERT
  5
179
330
17
100
AcDbEntity
  8
0
100
AcDbBlockReference
  2
*U36
 10
30.0
 20
50.0
 30
0.0
  0
INSERT
  5
182
330
17
100
AcDbEntity
  8
0
100
AcDbBlockReference
  2
*U37
 10
30.0
 20
60.0
 30
0.0
  0
INSERT
  5
18B
330
17
100
AcDbEntity
  8
0
100
AcDbBlockReference
  2
*U38
 10
30.0
 20
70.0
 30
0.0
  0
INSERT
  5
194
330
17
100
AcDbEntity
  8
0
100
AcDbBlockReference
  2
*U39
 10
30.0
 20
80.0
 30
0.0
  0
INSERT
  5
19D
330
17
100
AcDbEntity
  8
0
100
AcDbBlockReference
  2
*U40
 10
30.0
 20
90.0
 30
0.0
  0
INSERT
  5
1A6
330
17
100
AcDbEntity
  8
0
100
AcDbBlockReference
  2
*U41
 10
40.0
 20
0.0
 30
0.0
  0
INSERT
  5
1AF
330
17
100
AcDbEntity
  8
0
100
AcDbBlockReference
  2
*U42
 10
40.0
 20
10.0
 30
0.0
  0
INSERT
  5
1B8
330
17
100
AcDbEntity
  8
0
100
AcDbBlockReference
  2
*U43
 10
40.0
 20
20.0
 30
0.0
  0
INSERT
  5
1C1
330
17
100
AcDbEntity
  8
0
100
AcDbBlockReference
  2
*U44
 10
40.0
 20
30.0
 30
0.0
  0
INSERT
  5
1CA
330
17
100
AcDbEntity
  8
0
100
AcDbBlockReference
  2
*U45
 10
40.0
 20
40.0
 30
0.0
  0
INSERT
  5
1D3
330
17
100
AcDbEntity
  8
0
100
AcDbBlockReference
  2
*U46
 10
40.0
 20
50.0
 30
0.0
  0
INSERT
  5
1DC
330
17
100
AcDbEntity
  8
0
100
AcDbBlockReference
  2
*U47
 10
40.0
 20
60.0
 30
0.0
  0
INSERT
  5
1E5
330
17
100
AcDbEntity
  8
0
100
AcDbBlockReference
  2
*U48
 10
40.0
 20
70.0
 30
0.0
  0
INSERT
  5
1EE
330
17
100
AcDbEntity
  8
0
100
AcDbBlockReference
  2
*U49
 10
40.0
 20
80.0
 30
0.0
  0
INSERT
  5
1F7
330
17
100
AcDbEntity
  8
0
100
AcDbBlockReference
  2
*U50
 10
40.0
 20
90.0
 30
0.0
  0
INSERT
  5
200
330
17
100
AcDbEntity
  8
0
100
AcDbBlockReference
  2
*U51
 10
50.0
 20
0.0
 30
0.0
  0
INSERT
  5
209
330
17
100
AcDbEntity
  8
0
100
AcDbBlockReference
  2
*U52
 10
50.0
 20
10.0
 30
0.0
  0
INSERT
  5
212
330
17
100
AcDbEntity
  8
0
100
AcDbBlockReference
  2
*U53
 10
50.0
 20
20.0
 30
0.0
  0
INSERT
  5
21B
330
17
100
AcDbEntity
  8
0
100
AcDbBlockReference
  2
*U54
 10
50.0
 20
30.0
 30
0.0
  0
INSERT
  5
224
330
17
100
AcDbEntity
  8
0
100
AcDbBlockReference
  2
*U55
 10
50.0
 20
40.0
 30
0.0
  0
INSERT
  5
22D
330
17
100
AcDbEntity
  8
0
100
AcDbBlockReference
  2
*U56
 10
50.0
 20
50.0
 30
0.0
  0
INSERT
  5
236
330
17
100
AcDbEntity
  8
0
100
AcDbBlockReference
  2
*U57
 10
50.0
 20
60.0
 30
0.0
  0
INSERT
  5
23F
330
17
100
AcDbEntity
  8
0
100
AcDbBlockReference
  2
*U58
 10
50.0
 20
70.0
 30
0.0
  0
INSERT
  5
248
330
17
100
AcDbEntity
  8
0
100
AcDbBlockReference
  2
*U59
 10
50.0
 20
80.0
 30
0.0
  0
INSERT
  5
251
330
17
100
AcDbEntity
  8
0
100
AcDbBlockReference
  2
*U60
 10
50.0
 20
90.0
 30
0.0
  0
INSERT
  5
25A
330
17
100
AcDbEntity
  8
0
100
AcDbBlockReference
  2
*U61
 10
60.0
 20
0.0
 30
0.0
  0
INSERT
  5
263
330
17
100
AcDbEntity
  8
0
100
AcDbBlockReference
  2
*U62
 10
60.0
 20
10.0
 30
0.0
  0
INSERT
  5
26C
330
17
100
AcDbEntity
  8
0
100
AcDbBlockReference
  2
*U63
 10
60.0
 20
20.0
 30
0.0
  0
INSERT
  5
275
330
17
100
AcDbEntity
  8
0
100
AcDbBlockReference
  2
*U64
 10
60.0
 20
30.0
 30
0.0
  0
INSERT
  5
27E
330
17
100
AcDbEntity
  8
0
100
AcDbBlockReference
  2
*U65
 10
60.0
 20
40.0
 30
0.0
  0
INSERT
  5
287
330
17
100
AcDbEntity
  8
0
100
AcDbBlockReference
  2
*U66
 10
60.0
 20
50.0
 30
0.0
  0
INSERT
  5
290
330
17
100
AcDbEntity
  8
0
100
AcDbBlockReference
  2
*U67
 10
60.0
 20
60.0
 30
0.0
  0
INSERT
  5
299
330
17
100
AcDbEntity
  8
0
100
AcDbBlockReference
  2
*U68
 10
60.0
 20
70.0
 30
0.0
  0
INSERT
  5
2A2
330
17
100
AcDbEntity
  8
0
100
AcDbBlockReference
  2
*U69
 10
60.0
 20
80.0
 30
0.0
  0
INSERT
  5
2AB
330
17
100
AcDbEntity
  8
0
100
AcDbBlockReference
  2
*U70
 10
60.0
 20
90.0
 30
0.0
  0
INSERT
  5
2B4
330
17
100
AcDbEntity
  8
0
100
AcDbBlockReference
  2
*U71
 10
70.0
 20
0.0
 30
0.0
  0
INSERT
  5
2BD
330
17
100
AcDbEntity
  8
0
100
AcDbBlockReference
  2
*U72
 10
70.0
 20
10.0
 30
0.0
  0
INSERT
  5
2C6
330
17
100
AcDbEntity
  8
0
100
AcDbBlockReference
  2
*U73
 10
70.0
 20
20.0
 30
0.0
  0
INSERT
  5
2CF
330
17
100
AcDbEntity
  8
0
100
AcDbBlockReference
  2
*U74
 10
70.0
 20
30.0
 30
0.0
  0
INSERT
  5
2D8
330
17
100
AcDbEntity
  8
0
100
AcDbBlockReference
  2
*U75
 10
70.0
 20
40.0
 30
0.0
  0
INSERT
  5
2E1
330
17
100
AcDbEntity
  8
0
100
AcDbBlockReference
  2
*U76
 10
70.0
 20
50.0
 30
0.0
  0
INSERT
  5
2EA
330
17
100
AcDbEntity
  8
0
100
AcDbBlockReference
  2
*U77
 10
70.0
 20
60.0
 30
0.0
  0
INSERT
  5
2F3
330
17
100
AcDbEntity
  8
0
100
AcDbBlockReference
  2
*U78
 10
70.0
 20
70.0
 30
0.0
  0
INSERT
  5
2FC
330
17
100
AcDbEntity
  8
0
100
AcDbBlockReference
  2
*U79
 10
70.0
 20
80.0
 30
0.0
  0
INSERT
  5
305
330
17
100
AcDbEntity
  8
0
100
AcDbBlockReference
  2
*U80
 10
70.0
 20
90.0
 30
0.0
  0
INSERT
  5
30E
330
17
100
AcDbEntity
  8
0
100
AcDbBlockReference
  2
*U81
 10
80.0
 20
0.0
 30
0.0
  0
INSERT
  5
317
330
17
100
AcDbEntity
  8
0
100
AcDbBlockReference
  2
*U82
 10
80.0
 20
10.0
 30
0.0
  0
INSERT
  5
320
330
17
100
AcDbEntity
  8
0
100
AcDbBlockReference
  2
*U83
 10
80.0
 20
20.0
 30
0.0
  0
INSERT
  5
329
330
17
100
AcDbEntity
  8
0
100
AcDbBlockReference
  2
*U84
 10
80.0
 20
30.0
 30
0.0
  0
INSERT
  5
332
330
17
100
AcDbEntity
  8
0
100
AcDbBlockReference
  2
*U85
 10
80.0
 20
40.0
 30
0.0
  0
INSERT
  5
33B
330
17
100
AcDbEntity
  8
0
100
AcDbBlockReference
  2
*U86
 10
80.0
 20
50.0
 30
0.0
  0
INSERT
  5
344
330
17
100
AcDbEntity
  8
0
100
AcDbBlockReference
  2
*U87
 10
80.0
 20
60.0
 30
0.0
  0
INSERT
  5
34D
330
17
100
AcDbEntity
  8
0
100
AcDbBlockReference
  2
*U88
 10
80.0
 20
70.0
 30
0.0
  0
INSERT
  5
356
330
17
100
AcDbEntity
  8
0
100
AcDbBlockReference
  2
*U89
 10
80.0
 20
80.0
 30
0.0
  0
INSERT
  5
35F
330
17
100
AcDbEntity
  8
0
100
AcDbBlockReference
  2
*U90
 10
80.0
 20
90.0
 30
0.0
  0
INSERT
  5
368
330
17
100
AcDbEntity
  8
0
100
AcDbBlockReference
  2
*U91
 10
90.0
 20
0.0
 30
0.0
  0
INSERT
  5
371
330
17
100
AcDbEntity
  8
0
100
AcDbBlockReference
  2
*U92
 10
90.0
 20
10.0
 30
0.0
  0
INSERT
  5
37A
330
17
100
AcDbEntity
  8
0
100
AcDbBlockReference
  2
*U93
 10
90.0
 20
20.0
 30
0.0
  0
INSERT
  5
383
330
17
100
AcDbEntity
  8
0
100
AcDbBlockReference
  2
*U94
 10
90.0
 20
30.0
 30
0.0
  0
INSERT
  5
38C
330
17
100
AcDbEntity
  8
0
100
AcDbBlockReference
  2
*U95
 10
90.0
 20
40.0
 30
0.0
  0
INSERT
  5
395
330
17
100
AcDbEntity
  8
0
100
AcDbBlockReference
  2
*U96
 10
90.0
 20
50.0
 30
0.0
  0
INSERT
  5
39E
330
17
100
AcDbEntity
  8
0
100
AcDbBlockReference
  2
*U97
 10
90.0
 20
60.0
 30
0.0
  0
INSERT
  5
3A7
330
17
100
AcDbEntity
  8
0
100
AcDbBlockReference
  2
*U98
 10
90.0
 20
70.0
 30
0.0
  0
INSERT
  5
3B0
330
17
100
AcDbEntity
  8
0
100
AcDbBlockReference
  2
*U99
 10
90.0
 20
80.0
 30
0.0
  0
INSERT
  5
3B9
330
17
100
AcDbEntity
  8
0
100
AcDbBlockReference
  2
*U100
 10
90.0
 20
90.0
 30
0.0
  0
VIEWPORT
  5
3BD
330
1B
100
AcDbEntity
 67
1
  8
VIEWPORTS
100
AcDbViewport
 10
5.0
 20
3.75
 30
0.0
 40
12.100000000000001
 41
9.350000000000001
 68
1
 69
1
 12
5.0
 22
3.75
 13
0.0
 23
0.0
 14
10.0
 24
10.0
 15
10.0
 25
10.0
 16
0.0
 26
0.0
 36
1.0
 17
0.0
 27
0.0
 37
0.0
 42
50.0
 43
0.0
 44
0.0
 45
9.350000000000001
 50
0.0
 51
0.0
 72
100
 90
557088
  1

281
0
 71
0
 74
0
110
0.0
120
0.0
130
0.0
111
1.0
121
0.0
131
0.0
112
0.0
122
1.0
132
0.0
 79
0
146
0.0
  0
LINE
  5
3BE
330
1B
100
AcDbEntity
 67
1
  8
0
100
AcDbLine
 10
-0.5
 20
3.75
 30
0.0
 11
10.5
 21
3.75
 31
0.0
  0
LINE
  5
3BF
330
1B
100
AcDbEntity
 67
1
  8
0
100
AcDbLine
 10
5.0
 20
-0.5
 30
0.0
 11
5.0
 21
8.0
 31
0.0
  0
CIRCLE
  5
3C0
330
1B
100
AcDbEntity
 67
1
  8
0
100
AcDbCircle
 10
0.0
 20
0.0
 30
0.0
 40
0.1
  0
ENDSEC
  0
SECTION
  2
OBJECTS
  0
DICTIONARY
  5
A
330
0
100
AcDbDictionary
280
0
281
1
  3
ACAD_COLOR
350
B
  3
ACAD_GROUP
350
C
  3
ACAD_LAYOUT
350
D
  3
ACAD_MATERIAL
350
E
  3
ACAD_MLEADERSTYLE
350
F
  3
ACAD_MLINESTYLE
350
10
  3
ACAD_PLOTSETTINGS
350
11
  3
ACAD_PLOTSTYLENAME
350
12
  3
ACAD_SCALELIST
350
14
  3
ACAD_TABLESTYLE
350
15
  3
ACAD_VISUALSTYLE
350
16
  3
EZDXF_META
350
2D
  0
DICTIONARY
  5
B
330
A
100
AcDbDictionary
280
0
281
1
  0
DICTIONARY
  5
C
330
A
100
AcDbDictionary
280
0
281
1
  0
DICTIONARY
  5
D
330
A
100
AcDbDictionary
280
0
281
1
  3
Model
350
1A
  3
Layout1
350
1E
  3
scale 1-1
350
3C4
  3
scale 1-50
350
3CD
  3
scale 1-1 with offset
350
3D4
  0
DICTIONARY
  5
E
330
A
100
AcDbDictionary
280
0
281
1
  3
ByBlock
350
1F
  3
ByLayer
350
20
  3
Global
350
21
  0
DICTIONARY
  5
F
330
A
100
AcDbDictionary
280
0
281
1
  3
Standard
350
2C
  0
DICTIONARY
  5
10
330
A
100
AcDbDictionary
280
0
281
1
  3
Standard
350
22
  0
DICTIONARY
  5
11
330
A
100
AcDbDictionary
280
0
281
1
  0
ACDBDICTIONARYWDFLT
  5
12
330
A
100
AcDbDictionary
280
0
281
1
  3
Normal
350
13
100
AcDbDictionaryWithDefault
340
13
  0
ACDBPLACEHOLDER
  5
13
330
12
  0
DICTIONARY
  5
14
330
A
100
AcDbDictionary
280
0
281
1
  0
DICTIONARY
  5
15
330
A
100
AcDbDictionary
280
0
281
1
  0
DICTIONARY
  5
16
330
A
100
AcDbDictionary
280
0
281
1
  0
LAYOUT
  5
1A
330
D
100
AcDbPlotSettings
  1

  2
Adobe PDF
  4
A3
  6

 40
7.5
 41
20.0
 42
7.5
 43
20.0
 44
420.0
 45
297.0
 46
0.0
 47
0.0
 48
0.0
 49
0.0
140
0.0
141
0.0
142
1.0
143
1.0
 70
1024
 72
1
 73
0
 74
5
  7

 75
16
 76
0
 77
2
 78
300
147
1.0
148
0.0
149
0.0
100
AcDbLayout
  1
Model
 70
1
 71
0
 10
0.0
 20
0.0
 11
420.0
 21
297.0
 12
0.0
 22
0.0
 32
0.0
 14
1e+20
 24
1e+20
 34
1e+20
 15
-1e+20
 25
-1e+20
 35
-1e+20
146
0.0
 13
0.0
 23
0.0
 33
0.0
 16
1.0
 26
0.0
 36
0.0
 17
0.0
 27
1.0
 37
0.0
 76
1
330
17
  0
LAYOUT
  5
1E
330
D
100
AcDbPlotSettings
  1

  2
DWG to PDF.pc3
  4
ezdxf_(11.00_x_8.50_Inches)
  6

 40
12.7
 41
12.7
 42
12.7
 43
12.7
 44
279.4
 45
215.89999999999998
 46
0.0
 47
0.0
 48
0.0
 49
0.0
140
0.0
141
0.0
142
1.0
143
1.0
 70
672
 72
0
 73
0
 74
5
  7

 75
16
 76
0
 77
2
 78
300
147
0.03937007874015748
148
0.0
149
0.0
100
AcDbLayout
  1
Layout1
 70
1
 71
1
 10
-0.5
 20
-0.5
 11
10.5
 21
8.0
 12
0.0
 22
0.0
 32
0.0
 14
1e+20
 24
1e+20
 34
1e+20
 15
-1e+20
 25
-1e+20
 35
-1e+20
146
0.0
 13
0.0
 23
0.0
 33
0.0
 16
1.0
 26
0.0
 36
0.0
 17
0.0
 27
1.0
 37
0.0
 76
1
330
1B
331
3BD
  0
MATERIAL
  5
1F
102
{ACAD_REACTORS
330
E
102
}
330
E
100
AcDbMaterial
  1
ByBlock
  2

 70
0
 40
1.0
 71
1
 41
1.0
 91
-1023410177
 42
1.0
 72
1
  3

 73
1
 74
1
 75
1
 44
0.5
 73
0
 45
1.0
 46
1.0
 77
1
  4

 78
1
 79
1
170
1
 48
1.0
171
1
  6

172
1
173
1
174
1
140
1.0
141
1.0
175
1
  7

176
1
177
1
178
1
143
1.0
179
1
  8

270
1
271
1
272
1
145
1.0
146
1.0
273
1
  9

274
1
275
1
276
1
 42
1.0
 72
1
  3

 73
1
 74
1
 75
1
 94
63
  0
MATERIAL
  5
20
102
{ACAD_REACTORS
330
E
102
}
330
E
100
AcDbMaterial
  1
ByLayer
  2

 70
0
 40
1.0
 71
1
 41
1.0
 91
-1023410177
 42
1.0
 72
1
  3

 73
1
 74
1
 75
1
 44
0.5
 73
0
 45
1.0
 46
1.0
 77
1
  4

 78
1
 79
1
170
1
 48
1.0
171
1
  6

172
1
173
1
174
1
140
1.0
141
1.0
175
1
  7

176
1
177
1
178
1
143
1.0
179
1
  8

270
1
271
1
272
1
145
1.0
146
1.0
273
1
  9

274
1
275
1
276
1
 42
1.0
 72
1
  3

 73
1
 74
1
 75
1
 94
63
  0
MATERIAL
  5
21
102
{ACAD_REACTORS
330
E
102
}
330
E
100
AcDbMaterial
  1
Global
  2

 70
0
 40
1.0
 71
1
 41
1.0
 91
-1023410177
 42
1.0
 72
1
  3

 73
1
 74
1
 75
1
 44
0.5
 73
0
 45
1.0
 46
1.0
 77
1
  4

 78
1
 79
1
170
1
 48
1.0
171
1
  6

172
1
173
1
174
1
140
1.0
141
1.0
175
1
  7

176
1
177
1
178
1
143
1.0
179
1
  8

270
1
271
1
272
1
145
1.0
146
1.0
273
1
  9

274
1
275
1
276
1
 42
1.0
 72
1
  3

 73
1
 74
1
 75
1
 94
63
  0
MLINESTYLE
  5
22
102
{ACAD_REACTORS
330
10
102
}
330
10
100
AcDbMlineStyle
  2
Standard
 70
0
  3

 62
256
 51
90.0
 52
90.0
 71
2
 49
0.5
 62
256
  6
BYLAYER
 49
-0.5
 62
256
  6
BYLAYER
  0
MLEADERSTYLE
  5
2C
102
{ACAD_REACTORS
330
F
102
}
330
F
100
AcDbMLeaderStyle
179
2
170
2
171
1
172
0
 90
2
 40
0.0
 41
0.0
173
1
 91
-1056964608
 92
-2
290
1
 42
2.0
291
1
 43
8.0
  3
Standard
 44
4.0
300

342
29
174
1
175
1
176
0
178
1
 93
-1056964608
 45
4.0
292
0
297
0
 46
4.0
 94
-1056964608
 47
1.0
 49
1.0
140
1.0
294
1
141
0.0
177
0
142
1.0
295
0
296
0
143
3.75
271
0
272
9
273
9
  0
DICTIONARY
  5
2D
330
A
100
AcDbDictionary
281
1
  3
CREATED_BY_EZDXF
350
2E
  3
WRITTEN_BY_EZDXF
350
3DB
  0
DICTIONARYVAR
  5
2E
330
2D
100
DictionaryVariables
280
0
  1
1.0.3 @ 2023-10-25T02:25:52.227873+00:00
  0
LAYOUT
  5
3C4
330
D
100
AcDbPlotSettings
  1

  2
DWG to PDF.pc3
  4
ezdxf_(297.00_x_210.00_MM)
  6

 40
10.0
 41
10.0
 42
10.0
 43
10.0
 44
297.0
 45
210.0
 46
0.0
 47
0.0
 48
0.0
 49
0.0
140
0.0
141
0.0
142
1.0
143
1.0
 70
672
 72
1
 73
0
 74
5
  7

 75
16
 76
0
 77
2
 78
300
147
1.0
148
0.0
149
0.0
100
AcDbLayout
  1
scale 1-1
 70
1
 71
3
 10
-10.0
 20
-10.0
 11
287.0
 21
200.0
 12
0.0
 22
0.0
 32
0.0
 14
1e+20
 24
1e+20
 34
1e+20
 15
-1e+20
 25
-1e+20
 35
-1e+20
146
0.0
 13
0.0
 23
0.0
 33
0.0
 16
1.0
 26
0.0
 36
0.0
 17
0.0
 27
1.0
 37
0.0
 76
1
330
3C1
331
3C5
  0
LAYOUT
  5
3CD
330
D
100
AcDbPlotSettings
  1

  2
DWG to PDF.pc3
  4
ezdxf_(297.00_x_210.00_MM)
  6

 40
10.0
 41
10.0
 42
10.0
 43
10.0
 44
297.0
 45
210.0
 46
0.0
 47
0.0
 48
0.0
 49
0.0
140
0.0
141
0.0
142
1.0
143
50.0
 70
672
 72
1
 73
0
 74
5
  7

 75
16
 76
0
 77
2
 78
300
147
1.0
148
0.0
149
0.0
100
AcDbLayout
  1
scale 1-50
 70
1
 71
4
 10
-10.0
 20
-10.0
 11
287.0
 21
200.0
 12
0.0
 22
0.0
 32
0.0
 14
1e+20
 24
1e+20
 34
1e+20
 15
-1e+20
 25
-1e+20
 35
-1e+20
146
0.0
 13
0.0
 23
0.0
 33
0.0
 16
1.0
 26
0.0
 36
0.0
 17
0.0
 27
1.0
 37
0.0
 76
1
330
3CA
331
3CE
  0
LAYOUT
  5
3D4
330
D
100
AcDbPlotSettings
  1

  2
DWG to PDF.pc3
  4
ezdxf_(297.00_x_210.00_MM)
  6

 40
10.0
 41
10.0
 42
10.0
 43
10.0
 44
297.0
 45
210.0
 46
50.0
 47
50.0
 48
0.0
 49
0.0
140
0.0
141
0.0
142
1.0
143
1.0
 70
672
 72
1
 73
0
 74
5
  7

 75
16
 76
0
 77
2
 78
300
147
1.0
148
0.0
149
0.0
100
AcDbLayout
  1
scale 1-1 with offset
 70
1
 71
5
 10
-60.0
 20
-60.0
 11
237.0
 21
150.0
 12
0.0
 22
0.0
 32
0.0
 14
1e+20
 24
1e+20
 34
1e+20
 15
-1e+20
 25
-1e+20
 35
-1e+20
146
0.0
 13
0.0
 23
0.0
 33
0.0
 16
1.0
 26
0.0
 36
0.0
 17
0.0
 27
1.0
 37
0.0
 76
1
330
3D1
331
3D5
  0
DICTIONARYVAR
  5
3DB
330
2D
100
DictionaryVariables
280
0
  1
1.0.3 @ 2023-10-25T02:25:52.275879+00:00
  0
ENDSEC
  0
EOF
