  0
SECTION
  2
HEADER
  9
$ACADVER
  1
AC1027
  9
$ACADMAINTVER
 70
105
  9
$DWGCODEPAGE
  3
ANSI_1252
  9
$LASTSAVEDBY
  1
ezdxf
  9
$REQUIREDVERSIONS
160
0
  9
$INSBASE
 10
0.0
 20
0.0
 30
0.0
  9
$EXTMIN
 10
1e+20
 20
1e+20
 30
1e+20
  9
$EXTMAX
 10
-1e+20
 20
-1e+20
 30
-1e+20
  9
$LIMMIN
 10
0.0
 20
0.0
  9
$LIMMAX
 10
420.0
 20
297.0
  9
$ORTHOMODE
 70
0
  9
$REGENMODE
 70
1
  9
$FILLMODE
 70
1
  9
$QTEXTMODE
 70
0
  9
$MIRRTEXT
 70
1
  9
$LTSCALE
 40
1.0
  9
$ATTMODE
 70
1
  9
$TEXTSIZE
 40
2.5
  9
$TRACEWID
 40
1.0
  9
$TEXTSTYLE
  7
Standard
  9
$CLAYER
  8
0
  9
$CELTYPE
  6
ByLayer
  9
$CECOLOR
 62
256
  9
$CELTSCALE
 40
1.0
  9
$DISPSILH
 70
0
  9
$DIMSCALE
 40
1.0
  9
$DIMASZ
 40
2.5
  9
$DIMEXO
 40
0.625
  9
$DIMDLI
 40
3.75
  9
$DIMRND
 40
0.0
  9
$DIMDLE
 40
0.0
  9
$DIMEXE
 40
1.25
  9
$DIMTP
 40
0.0
  9
$DIMTM
 40
0.0
  9
$DIMTXT
 40
2.5
  9
$DIMCEN
 40
2.5
  9
$DIMTSZ
 40
0.0
  9
$DIMTOL
 70
0
  9
$DIMLIM
 70
0
  9
$DIMTIH
 70
0
  9
$DIMTOH
 70
0
  9
$DIMSE1
 70
0
  9
$DIMSE2
 70
0
  9
$DIMTAD
 70
1
  9
$DIMZIN
 70
8
  9
$DIMBLK
  1

  9
$DIMASO
 70
1
  9
$DIMSHO
 70
1
  9
$DIMPOST
  1

  9
$DIMAPOST
  1

  9
$DIMALT
 70
0
  9
$DIMALTD
 70
3
  9
$DIMALTF
 40
0.03937007874
  9
$DIMLFAC
 40
1.0
  9
$DIMTOFL
 70
1
  9
$DIMTVP
 40
0.0
  9
$DIMTIX
 70
0
  9
$DIMSOXD
 70
0
  9
$DIMSAH
 70
0
  9
$DIMBLK1
  1

  9
$DIMBLK2
  1

  9
$DIMSTYLE
  2
ISO-25
  9
$DIMCLRD
 70
0
  9
$DIMCLRE
 70
0
  9
$DIMCLRT
 70
0
  9
$DIMTFAC
 40
1.0
  9
$DIMGAP
 40
0.625
  9
$DIMJUST
 70
0
  9
$DIMSD1
 70
0
  9
$DIMSD2
 70
0
  9
$DIMTOLJ
 70
0
  9
$DIMTZIN
 70
8
  9
$DIMALTZ
 70
0
  9
$DIMALTTZ
 70
0
  9
$DIMUPT
 70
0
  9
$DIMDEC
 70
2
  9
$DIMTDEC
 70
2
  9
$DIMALTU
 70
2
  9
$DIMALTTD
 70
3
  9
$DIMTXSTY
  7
Standard
  9
$DIMAUNIT
 70
0
  9
$DIMADEC
 70
0
  9
$DIMALTRND
 40
0.0
  9
$DIMAZIN
 70
0
  9
$DIMDSEP
 70
44
  9
$DIMATFIT
 70
3
  9
$DIMFRAC
 70
0
  9
$DIMLDRBLK
  1

  9
$DIMLUNIT
 70
2
  9
$DIMLWD
 70
-2
  9
$DIMLWE
 70
-2
  9
$DIMTMOVE
 70
0
  9
$DIMFXL
 40
1.0
  9
$DIMFXLON
 70
0
  9
$DIMJOGANG
 40
0.785398163397
  9
$DIMTFILL
 70
0
  9
$DIMTFILLCLR
 70
0
  9
$DIMARCSYM
 70
0
  9
$DIMLTYPE
  6

  9
$DIMLTEX1
  6

  9
$DIMLTEX2
  6

  9
$DIMTXTDIRECTION
 70
0
  9
$LUNITS
 70
2
  9
$LUPREC
 70
4
  9
$SKETCHINC
 40
1.0
  9
$FILLETRAD
 40
10.0
  9
$AUNITS
 70
0
  9
$AUPREC
 70
2
  9
$MENU
  1
.
  9
$ELEVATION
 40
0.0
  9
$PELEVATION
 40
0.0
  9
$THICKNESS
 40
0.0
  9
$LIMCHECK
 70
0
  9
$CHAMFERA
 40
0.0
  9
$CHAMFERB
 40
0.0
  9
$CHAMFERC
 40
0.0
  9
$CHAMFERD
 40
0.0
  9
$SKPOLY
 70
0
  9
$TDCREATE
 40
2460191.544849537
  9
$TDUCREATE
 40
2458532.153996898
  9
$TDUPDATE
 40
2460191.544849537
  9
$TDUUPDATE
 40
2458532.1544311
  9
$TDINDWG
 40
0.0
  9
$TDUSRTIMER
 40
0.0
  9
$USRTIMER
 70
1
  9
$ANGBASE
 50
0.0
  9
$ANGDIR
 70
0
  9
$PDMODE
 70
0
  9
$PDSIZE
 40
0.0
  9
$PLINEWID
 40
0.0
  9
$SPLFRAME
 70
0
  9
$SPLINETYPE
 70
6
  9
$SPLINESEGS
 70
8
  9
$HANDSEED
  5
4A
  9
$SURFTAB1
 70
6
  9
$SURFTAB2
 70
6
  9
$SURFTYPE
 70
6
  9
$SURFU
 70
6
  9
$SURFV
 70
6
  9
$UCSBASE
  2

  9
$UCSNAME
  2

  9
$UCSORG
 10
0.0
 20
0.0
 30
0.0
  9
$UCSXDIR
 10
1.0
 20
0.0
 30
0.0
  9
$UCSYDIR
 10
0.0
 20
1.0
 30
0.0
  9
$UCSORTHOREF
  2

  9
$UCSORTHOVIEW
 70
0
  9
$UCSORGTOP
 10
0.0
 20
0.0
 30
0.0
  9
$UCSORGBOTTOM
 10
0.0
 20
0.0
 30
0.0
  9
$UCSORGLEFT
 10
0.0
 20
0.0
 30
0.0
  9
$UCSORGRIGHT
 10
0.0
 20
0.0
 30
0.0
  9
$UCSORGFRONT
 10
0.0
 20
0.0
 30
0.0
  9
$UCSORGBACK
 10
0.0
 20
0.0
 30
0.0
  9
$PUCSBASE
  2

  9
$PUCSNAME
  2

  9
$PUCSORG
 10
0.0
 20
0.0
 30
0.0
  9
$PUCSXDIR
 10
1.0
 20
0.0
 30
0.0
  9
$PUCSYDIR
 10
0.0
 20
1.0
 30
0.0
  9
$PUCSORTHOREF
  2

  9
$PUCSORTHOVIEW
 70
0
  9
$PUCSORGTOP
 10
0.0
 20
0.0
 30
0.0
  9
$PUCSORGBOTTOM
 10
0.0
 20
0.0
 30
0.0
  9
$PUCSORGLEFT
 10
0.0
 20
0.0
 30
0.0
  9
$PUCSORGRIGHT
 10
0.0
 20
0.0
 30
0.0
  9
$PUCSORGFRONT
 10
0.0
 20
0.0
 30
0.0
  9
$PUCSORGBACK
 10
0.0
 20
0.0
 30
0.0
  9
$USERI1
 70
0
  9
$USERI2
 70
0
  9
$USERI3
 70
0
  9
$USERI4
 70
0
  9
$USERI5
 70
0
  9
$USERR1
 40
0.0
  9
$USERR2
 40
0.0
  9
$USERR3
 40
0.0
  9
$USERR4
 40
0.0
  9
$USERR5
 40
0.0
  9
$WORLDVIEW
 70
1
  9
$SHADEDGE
 70
3
  9
$SHADEDIF
 70
70
  9
$TILEMODE
 70
1
  9
$MAXACTVP
 70
64
  9
$PINSBASE
 10
0.0
 20
0.0
 30
0.0
  9
$PLIMCHECK
 70
0
  9
$PEXTMIN
 10
1e+20
 20
1e+20
 30
1e+20
  9
$PEXTMAX
 10
-1e+20
 20
-1e+20
 30
-1e+20
  9
$PLIMMIN
 10
0.0
 20
0.0
  9
$PLIMMAX
 10
420.0
 20
297.0
  9
$UNITMODE
 70
0
  9
$VISRETAIN
 70
1
  9
$PLINEGEN
 70
0
  9
$PSLTSCALE
 70
1
  9
$TREEDEPTH
 70
3020
  9
$CMLSTYLE
  2
Standard
  9
$CMLJUST
 70
0
  9
$CMLSCALE
 40
20.0
  9
$PROXYGRAPHICS
 70
1
  9
$MEASUREMENT
 70
1
  9
$CELWEIGHT
370
-1
  9
$ENDCAPS
280
0
  9
$JOINSTYLE
280
0
  9
$LWDISPLAY
290
0
  9
$INSUNITS
 70
6
  9
$HYPERLINKBASE
  1

  9
$STYLESHEET
  1

  9
$XEDIT
290
1
  9
$CEPSNTYPE
380
0
  9
$PSTYLEMODE
290
1
  9
$FINGERPRINTGUID
  2
{BEB2F518-F9B4-4943-B2E6-D17D16584BFC}
  9
$VERSIONGUID
  2
{6D0968D8-4A4D-430A-BD34-9DB1DD9839BF}
  9
$EXTNAMES
290
1
  9
$PSVPSCALE
 40
0.0
  9
$OLESTARTUP
290
0
  9
$SORTENTS
280
127
  9
$INDEXCTL
280
0
  9
$HIDETEXT
280
1
  9
$XCLIPFRAME
280
0
  9
$HALOGAP
280
0
  9
$OBSCOLOR
 70
257
  9
$OBSLTYPE
280
0
  9
$INTERSECTIONDISPLAY
280
0
  9
$INTERSECTIONCOLOR
 70
257
  9
$DIMASSOC
280
2
  9
$PROJECTNAME
  1

  9
$CAMERADISPLAY
290
0
  9
$LENSLENGTH
 40
50.0
  9
$CAMERAHEIGHT
 40
0.0
  9
$STEPSPERSEC
 40
24.0
  9
$STEPSIZE
 40
100.0
  9
$3DDWFPREC
 40
2.0
  9
$PSOLWIDTH
 40
0.005
  9
$PSOLHEIGHT
 40
0.08
  9
$LOFTANG1
 40
1.570796326795
  9
$LOFTANG2
 40
1.570796326795
  9
$LOFTMAG1
 40
0.0
  9
$LOFTMAG2
 40
0.0
  9
$LOFTPARAM
 70
7
  9
$LOFTNORMALS
280
1
  9
$LATITUDE
 40
37.795
  9
$LONGITUDE
 40
-122.394
  9
$NORTHDIRECTION
 40
0.0
  9
$TIMEZONE
 70
-8000
  9
$LIGHTGLYPHDISPLAY
280
1
  9
$TILEMODELIGHTSYNCH
280
1
  9
$CMATERIAL
347
20
  9
$SOLIDHIST
280
0
  9
$SHOWHIST
280
1
  9
$DWFFRAME
280
2
  9
$DGNFRAME
280
2
  9
$REALWORLDSCALE
290
1
  9
$INTERFERECOLOR
 62
256
  9
$CSHADOW
280
0
  9
$SHADOWPLANELOCATION
 40
0.0
  0
ENDSEC
  0
SECTION
  2
CLASSES
  0
CLASS
  1
ACDBDICTIONARYWDFLT
  2
AcDbDictionaryWithDefault
  3
ObjectDBX Classes
 90
0
 91
0
280
0
281
0
  0
CLASS
  1
SUN
  2
AcDbSun
  3
SCENEOE
 90
1153
 91
0
280
0
281
0
  0
CLASS
  1
VISUALSTYLE
  2
AcDbVisualStyle
  3
ObjectDBX Classes
 90
4095
 91
0
280
0
281
0
  0
CLASS
  1
MATERIAL
  2
AcDbMaterial
  3
ObjectDBX Classes
 90
1153
 91
0
280
0
281
0
  0
CLASS
  1
SCALE
  2
AcDbScale
  3
ObjectDBX Classes
 90
1153
 91
0
280
0
281
0
  0
CLASS
  1
TABLESTYLE
  2
AcDbTableStyle
  3
ObjectDBX Classes
 90
4095
 91
0
280
0
281
0
  0
CLASS
  1
MLEADERSTYLE
  2
AcDbMLeaderStyle
  3
ACDB_MLEADERSTYLE_CLASS
 90
4095
 91
0
280
0
281
0
  0
CLASS
  1
DICTIONARYVAR
  2
AcDbDictionaryVar
  3
ObjectDBX Classes
 90
0
 91
0
280
0
281
0
  0
CLASS
  1
CELLSTYLEMAP
  2
AcDbCellStyleMap
  3
ObjectDBX Classes
 90
1152
 91
0
280
0
281
0
  0
CLASS
  1
MENTALRAYRENDERSETTINGS
  2
AcDbMentalRayRenderSettings
  3
SCENEOE
 90
1024
 91
0
280
0
281
0
  0
CLASS
  1
ACDBDETAILVIEWSTYLE
  2
AcDbDetailViewStyle
  3
ObjectDBX Classes
 90
1025
 91
0
280
0
281
0
  0
CLASS
  1
ACDBSECTIONVIEWSTYLE
  2
AcDbSectionViewStyle
  3
ObjectDBX Classes
 90
1025
 91
0
280
0
281
0
  0
CLASS
  1
RASTERVARIABLES
  2
AcDbRasterVariables
  3
ISM
 90
0
 91
0
280
0
281
0
  0
CLASS
  1
LAYOUT
  2
AcDbLayout
  3
ObjectDBX Classes
 90
0
 91
0
280
0
281
0
  0
CLASS
  1
ACDBPLACEHOLDER
  2
AcDbPlaceHolder
  3
ObjectDBX Classes
 90
0
 91
0
280
0
281
0
  0
ENDSEC
  0
SECTION
  2
TABLES
  0
TABLE
  2
VPORT
  5
8
330
0
100
AcDbSymbolTable
 70
1
  0
VPORT
  5
23
330
8
100
AcDbSymbolTableRecord
100
AcDbViewportTableRecord
  2
*Active
 70
0
 10
0.0
 20
0.0
 11
1.0
 21
1.0
 12
0.0
 22
0.0
 13
0.0
 23
0.0
 14
0.5
 24
0.5
 15
0.5
 25
0.5
 16
0.0
 26
0.0
 36
1.0
 17
0.0
 27
0.0
 37
0.0
 40
1000.0
 41
1.34
 42
50.0
 43
0.0
 44
0.0
 50
0.0
 51
0.0
 71
0
 72
1000
 73
1
 74
3
 75
0
 76
0
 77
0
 78
0
281
0
 65
0
146
0.0
  0
ENDTAB
  0
TABLE
  2
LTYPE
  5
2
330
0
100
AcDbSymbolTable
 70
3
  0
LTYPE
  5
24
330
2
100
AcDbSymbolTableRecord
100
AcDbLinetypeTableRecord
  2
ByBlock
 70
0
  3

 72
65
 73
0
 40
0.0
  0
LTYPE
  5
25
330
2
100
AcDbSymbolTableRecord
100
AcDbLinetypeTableRecord
  2
ByLayer
 70
0
  3

 72
65
 73
0
 40
0.0
  0
LTYPE
  5
26
330
2
100
AcDbSymbolTableRecord
100
AcDbLinetypeTableRecord
  2
Continuous
 70
0
  3

 72
65
 73
0
 40
0.0
  0
ENDTAB
  0
TABLE
  2
LAYER
  5
1
330
0
100
AcDbSymbolTable
 70
2
  0
LAYER
  5
27
330
1
100
AcDbSymbolTableRecord
100
AcDbLayerTableRecord
  2
0
 70
0
 62
7
  6
Continuous
370
-3
390
13
347
21
  0
LAYER
  5
28
330
1
100
AcDbSymbolTableRecord
100
AcDbLayerTableRecord
  2
Defpoints
 70
0
 62
7
  6
Continuous
290
0
370
-3
390
13
347
21
  0
ENDTAB
  0
TABLE
  2
STYLE
  5
5
330
0
100
AcDbSymbolTable
 70
1
  0
STYLE
  5
29
330
5
100
AcDbSymbolTableRecord
100
AcDbTextStyleTableRecord
  2
Standard
 70
0
 40
0.0
 41
1.0
 50
0.0
 71
0
 42
2.5
  3
txt
  4

  0
ENDTAB
  0
TABLE
  2
VIEW
  5
7
330
0
100
AcDbSymbolTable
 70
0
  0
ENDTAB
  0
TABLE
  2
UCS
  5
6
330
0
100
AcDbSymbolTable
 70
0
  0
ENDTAB
  0
TABLE
  2
APPID
  5
3
330
0
100
AcDbSymbolTable
 70
3
  0
APPID
  5
2A
330
3
100
AcDbSymbolTableRecord
100
AcDbRegAppTableRecord
  2
ACAD
 70
0
  0
APPID
  5
30
330
3
100
AcDbSymbolTableRecord
100
AcDbRegAppTableRecord
  2
HATCHBACKGROUNDCOLOR
 70
0
  0
APPID
  5
31
330
3
100
AcDbSymbolTableRecord
100
AcDbRegAppTableRecord
  2
EZDXF
 70
0
  0
ENDTAB
  0
TABLE
  2
DIMSTYLE
  5
4
330
0
100
AcDbSymbolTable
 70
1
100
AcDbDimStyleTable
  0
DIMSTYLE
105
2B
330
4
100
AcDbSymbolTableRecord
100
AcDbDimStyleTableRecord
  2
Standard
 70
0
 40
1.0
 41
2.5
 42
0.625
 43
3.75
 44
1.25
 45
0.0
 46
0.0
 47
0.0
 48
0.0
 49
2.5
140
2.5
141
2.5
142
0.0
143
0.03937007874
144
1.0
145
0.0
146
1.0
147
0.625
148
0.0
 69
0
 70
0
 71
0
 72
0
 73
0
 74
0
 75
0
 76
0
 77
1
 78
8
 79
3
170
0
171
3
172
1
173
0
174
0
175
0
176
0
177
0
178
0
179
2
271
2
272
2
273
2
274
3
275
0
276
0
277
2
278
44
279
0
280
0
281
0
282
0
283
0
284
8
285
0
286
0
288
0
289
3
290
0
371
-2
372
-2
  0
ENDTAB
  0
TABLE
  2
BLOCK_RECORD
  5
9
330
0
100
AcDbSymbolTable
 70
2
  0
BLOCK_RECORD
  5
17
330
9
100
AcDbSymbolTableRecord
100
AcDbBlockTableRecord
  2
*Model_Space
340
1A
 70
0
280
1
281
0
  0
BLOCK_RECORD
  5
1B
330
9
100
AcDbSymbolTableRecord
100
AcDbBlockTableRecord
  2
*Paper_Space
340
1E
 70
0
280
1
281
0
  0
ENDTAB
  0
ENDSEC
  0
SECTION
  2
BLOCKS
  0
BLOCK
  5
18
330
17
100
AcDbEntity
  8
0
100
AcDbBlockBegin
  2
*Model_Space
 70
0
 10
0.0
 20
0.0
 30
0.0
  3
*Model_Space
  1

  0
ENDBLK
  5
19
330
17
100
AcDbEntity
  8
0
100
AcDbBlockEnd
  0
BLOCK
  5
1C
330
1B
100
AcDbEntity
  8
0
100
AcDbBlockBegin
  2
*Paper_Space
 70
0
 10
0.0
 20
0.0
 30
0.0
  3
*Paper_Space
  1

  0
ENDBLK
  5
1D
330
1B
100
AcDbEntity
  8
0
100
AcDbBlockEnd
  0
ENDSEC
  0
SECTION
  2
ENTITIES
  0
LWPOLYLINE
  5
2F
330
17
100
AcDbEntity
  8
0
100
AcDbPolyline
 90
101
 70
0
 10
-175.0
 20
7.721262221711986
 10
-171.5
 20
7.415309958544991
 10
-168.0
 20
7.115553772012257
 10
-164.5
 20
6.821992729662589
 10
-161.0
 20
6.534625918316421
 10
-157.5
 20
6.25345244406274
 10
-154.0
 20
5.978471432255553
 10
-150.5
 20
5.70968202751301
 10
-147.0
 20
5.447083393712117
 10
-143.5
 20
5.190674713988292
 10
-140.0
 20
4.940455190731404
 10
-136.5
 20
4.696424045584886
 10
-133.0
 20
4.458580519441333
 10
-129.5
 20
4.22692387244118
 10
-126.0
 20
4.001453383971375
 10
-122.5
 20
3.7821683526614223
 10
-119.0
 20
3.5690680963820514
 10
-115.5
 20
3.362151952242138
 10
-112.0
 20
3.1614192765891427
 10
-108.5
 20
2.9668694450038253
 10
-105.0
 20
2.778501852301123
 10
-101.5
 20
2.5963159125261868
 10
-98.0
 20
2.4203110589539403
 10
-94.5
 20
2.250486744085996
 10
-91.0
 20
2.0868424396510945
 10
-87.5
 20
1.92937763660114
 10
-84.0
 20
1.778091845110318
 10
-80.5
 20
1.6329845945746562
 10
-77.0
 20
1.4940554336098193
 10
-73.5
 20
1.361303930048467
 10
-70.0
 20
1.234729670941575
 10
-66.5
 20
1.1143322625544692
 10
-63.0
 20
1.0001113303677074
 10
-59.5
 20
0.8920665190744351
 10
-56.0
 20
0.7901974925799456
 10
-52.5
 20
0.6945039339999163
 10
-49.0
 20
0.6049855456617313
 10
-45.5
 20
0.5216420491000755
 10
-42.0
 20
0.444473185058696
 10
-38.5
 20
0.3734787134886405
 10
-35.0
 20
0.3086584135478162
 10
-31.5
 20
0.25001208359966814
 10
-28.0
 20
0.19753954121317902
 10
-24.5
 20
0.15124062316242864
 10
-21.0
 20
0.11111518542527199
 10
-17.5
 20
0.07716310318333926
 10
-14.0
 20
0.049384270822917076
 10
-10.5
 20
0.027778601931423452
 10
-7.0
 20
0.012346029300932865
 10
-3.5
 20
0.0030865049250917947
 10
0.0
 20
0.0
 10
3.5
 20
0.0030865049250917947
 10
7.0
 20
0.012346029300932865
 10
10.5
 20
0.027778601931423452
 10
14.0
 20
0.049384270822917076
 10
17.5
 20
0.07716310318333926
 10
21.0
 20
0.11111518542527199
 10
24.5
 20
0.15124062316242864
 10
28.0
 20
0.19753954121317902
 10
31.5
 20
0.25001208359966814
 10
35.0
 20
0.3086584135478162
 10
38.5
 20
0.3734787134886405
 10
42.0
 20
0.444473185058696
 10
45.5
 20
0.5216420491000755
 10
49.0
 20
0.6049855456617313
 10
52.5
 20
0.6945039339999163
 10
56.0
 20
0.7901974925799456
 10
59.5
 20
0.8920665190744351
 10
63.0
 20
1.0001113303677074
 10
66.5
 20
1.1143322625544692
 10
70.0
 20
1.234729670941575
 10
73.5
 20
1.361303930048467
 10
77.0
 20
1.4940554336098193
 10
80.5
 20
1.6329845945746562
 10
84.0
 20
1.778091845110318
 10
87.5
 20
1.92937763660114
 10
91.0
 20
2.0868424396510945
 10
94.5
 20
2.250486744085996
 10
98.0
 20
2.4203110589539403
 10
101.5
 20
2.5963159125261868
 10
105.0
 20
2.778501852301123
 10
108.5
 20
2.9668694450038253
 10
112.0
 20
3.1614192765891427
 10
115.5
 20
3.362151952242138
 10
119.0
 20
3.5690680963820514
 10
122.5
 20
3.7821683526614223
 10
126.0
 20
4.001453383971375
 10
129.5
 20
4.22692387244118
 10
133.0
 20
4.458580519441333
 10
136.5
 20
4.696424045584886
 10
140.0
 20
4.940455190731404
 10
143.5
 20
5.190674713988292
 10
147.0
 20
5.447083393712117
 10
150.5
 20
5.70968202751301
 10
154.0
 20
5.978471432255553
 10
157.5
 20
6.25345244406274
 10
161.0
 20
6.534625918316421
 10
164.5
 20
6.821992729662589
 10
168.0
 20
7.115553772012257
 10
171.5
 20
7.415309958544991
 10
175.0
 20
7.721262221711986
  0
LWPOLYLINE
  5
33
330
17
100
AcDbEntity
  8
0
100
AcDbPolyline
 90
101
 70
0
 10
-175.0
 20
77.21262221711986
 10
-171.5
 20
74.15309958544991
 10
-168.0
 20
71.15553772012257
 10
-164.5
 20
68.21992729662588
 10
-161.0
 20
65.34625918316421
 10
-157.5
 20
62.53452444062739
 10
-154.0
 20
59.78471432255553
 10
-150.5
 20
57.0968202751301
 10
-147.0
 20
54.47083393712117
 10
-143.5
 20
51.906747139882924
 10
-140.0
 20
49.404551907314044
 10
-136.5
 20
46.96424045584885
 10
-133.0
 20
44.58580519441333
 10
-129.5
 20
42.2692387244118
 10
-126.0
 20
40.01453383971375
 10
-122.5
 20
37.82168352661422
 10
-119.0
 20
35.69068096382051
 10
-115.5
 20
33.62151952242138
 10
-112.0
 20
31.614192765891428
 10
-108.5
 20
29.668694450038252
 10
-105.0
 20
27.785018523011228
 10
-101.5
 20
25.963159125261868
 10
-98.0
 20
24.203110589539403
 10
-94.5
 20
22.50486744085996
 10
-91.0
 20
20.868424396510946
 10
-87.5
 20
19.2937763660114
 10
-84.0
 20
17.78091845110318
 10
-80.5
 20
16.329845945746563
 10
-77.0
 20
14.940554336098193
 10
-73.5
 20
13.61303930048467
 10
-70.0
 20
12.34729670941575
 10
-66.5
 20
11.143322625544691
 10
-63.0
 20
10.001113303677073
 10
-59.5
 20
8.920665190744351
 10
-56.0
 20
7.901974925799457
 10
-52.5
 20
6.945039339999163
 10
-49.0
 20
6.049855456617314
 10
-45.5
 20
5.216420491000755
 10
-42.0
 20
4.44473185058696
 10
-38.5
 20
3.734787134886405
 10
-35.0
 20
3.0865841354781622
 10
-31.5
 20
2.5001208359966816
 10
-28.0
 20
1.9753954121317903
 10
-24.5
 20
1.5124062316242863
 10
-21.0
 20
1.11115185425272
 10
-17.5
 20
0.7716310318333925
 10
-14.0
 20
0.49384270822917076
 10
-10.5
 20
0.2777860193142345
 10
-7.0
 20
0.12346029300932865
 10
-3.5
 20
0.030865049250917948
 10
0.0
 20
0.0
 10
3.5
 20
0.030865049250917948
 10
7.0
 20
0.12346029300932865
 10
10.5
 20
0.2777860193142345
 10
14.0
 20
0.49384270822917076
 10
17.5
 20
0.7716310318333925
 10
21.0
 20
1.11115185425272
 10
24.5
 20
1.5124062316242863
 10
28.0
 20
1.9753954121317903
 10
31.5
 20
2.5001208359966816
 10
35.0
 20
3.0865841354781622
 10
38.5
 20
3.734787134886405
 10
42.0
 20
4.44473185058696
 10
45.5
 20
5.216420491000755
 10
49.0
 20
6.049855456617314
 10
52.5
 20
6.945039339999163
 10
56.0
 20
7.901974925799457
 10
59.5
 20
8.920665190744351
 10
63.0
 20
10.001113303677073
 10
66.5
 20
11.143322625544691
 10
70.0
 20
12.34729670941575
 10
73.5
 20
13.61303930048467
 10
77.0
 20
14.940554336098193
 10
80.5
 20
16.329845945746563
 10
84.0
 20
17.78091845110318
 10
87.5
 20
19.2937763660114
 10
91.0
 20
20.868424396510946
 10
94.5
 20
22.50486744085996
 10
98.0
 20
24.203110589539403
 10
101.5
 20
25.963159125261868
 10
105.0
 20
27.785018523011228
 10
108.5
 20
29.668694450038252
 10
112.0
 20
31.614192765891428
 10
115.5
 20
33.62151952242138
 10
119.0
 20
35.69068096382051
 10
122.5
 20
37.82168352661422
 10
126.0
 20
40.01453383971375
 10
129.5
 20
42.2692387244118
 10
133.0
 20
44.58580519441333
 10
136.5
 20
46.96424045584885
 10
140.0
 20
49.404551907314044
 10
143.5
 20
51.906747139882924
 10
147.0
 20
54.47083393712117
 10
150.5
 20
57.0968202751301
 10
154.0
 20
59.78471432255553
 10
157.5
 20
62.53452444062739
 10
161.0
 20
65.34625918316421
 10
164.5
 20
68.21992729662588
 10
168.0
 20
71.15553772012257
 10
171.5
 20
74.15309958544991
 10
175.0
 20
77.21262221711986
  0
LWPOLYLINE
  5
34
330
17
100
AcDbEntity
  8
0
100
AcDbPolyline
 90
101
 70
0
 10
-175.0
 20
77.21262221711986
 10
-171.5
 20
74.15309958544991
 10
-168.0
 20
71.15553772012257
 10
-164.5
 20
68.21992729662588
 10
-161.0
 20
65.34625918316421
 10
-157.5
 20
62.53452444062739
 10
-154.0
 20
59.78471432255553
 10
-150.5
 20
57.0968202751301
 10
-147.0
 20
54.47083393712117
 10
-143.5
 20
51.906747139882924
 10
-140.0
 20
49.404551907314044
 10
-136.5
 20
46.96424045584885
 10
-133.0
 20
44.58580519441333
 10
-129.5
 20
42.2692387244118
 10
-126.0
 20
40.01453383971375
 10
-122.5
 20
37.82168352661422
 10
-119.0
 20
35.69068096382051
 10
-115.5
 20
33.62151952242138
 10
-112.0
 20
31.614192765891428
 10
-108.5
 20
29.668694450038252
 10
-105.0
 20
27.785018523011228
 10
-101.5
 20
25.963159125261868
 10
-98.0
 20
24.203110589539403
 10
-94.5
 20
22.50486744085996
 10
-91.0
 20
20.868424396510946
 10
-87.5
 20
19.2937763660114
 10
-84.0
 20
17.78091845110318
 10
-80.5
 20
16.329845945746563
 10
-77.0
 20
14.940554336098193
 10
-73.5
 20
13.61303930048467
 10
-70.0
 20
12.34729670941575
 10
-66.5
 20
11.143322625544691
 10
-63.0
 20
10.001113303677073
 10
-59.5
 20
8.920665190744351
 10
-56.0
 20
7.901974925799457
 10
-52.5
 20
6.945039339999163
 10
-49.0
 20
6.049855456617314
 10
-45.5
 20
5.216420491000755
 10
-42.0
 20
4.44473185058696
 10
-38.5
 20
3.734787134886405
 10
-35.0
 20
3.0865841354781622
 10
-31.5
 20
2.5001208359966816
 10
-28.0
 20
1.9753954121317903
 10
-24.5
 20
1.5124062316242863
 10
-21.0
 20
1.11115185425272
 10
-17.5
 20
0.7716310318333925
 10
-14.0
 20
0.49384270822917076
 10
-10.5
 20
0.2777860193142345
 10
-7.0
 20
0.12346029300932865
 10
-3.5
 20
0.030865049250917948
 10
0.0
 20
0.0
 10
3.5
 20
0.030865049250917948
 10
7.0
 20
0.12346029300932865
 10
10.5
 20
0.2777860193142345
 10
14.0
 20
0.49384270822917076
 10
17.5
 20
0.7716310318333925
 10
21.0
 20
1.11115185425272
 10
24.5
 20
1.5124062316242863
 10
28.0
 20
1.9753954121317903
 10
31.5
 20
2.5001208359966816
 10
35.0
 20
3.0865841354781622
 10
38.5
 20
3.734787134886405
 10
42.0
 20
4.44473185058696
 10
45.5
 20
5.216420491000755
 10
49.0
 20
6.049855456617314
 10
52.5
 20
6.945039339999163
 10
56.0
 20
7.901974925799457
 10
59.5
 20
8.920665190744351
 10
63.0
 20
10.001113303677073
 10
66.5
 20
11.143322625544691
 10
70.0
 20
12.34729670941575
 10
73.5
 20
13.61303930048467
 10
77.0
 20
14.940554336098193
 10
80.5
 20
16.329845945746563
 10
84.0
 20
17.78091845110318
 10
87.5
 20
19.2937763660114
 10
91.0
 20
20.868424396510946
 10
94.5
 20
22.50486744085996
 10
98.0
 20
24.203110589539403
 10
101.5
 20
25.963159125261868
 10
105.0
 20
27.785018523011228
 10
108.5
 20
29.668694450038252
 10
112.0
 20
31.614192765891428
 10
115.5
 20
33.62151952242138
 10
119.0
 20
35.69068096382051
 10
122.5
 20
37.82168352661422
 10
126.0
 20
40.01453383971375
 10
129.5
 20
42.2692387244118
 10
133.0
 20
44.58580519441333
 10
136.5
 20
46.96424045584885
 10
140.0
 20
49.404551907314044
 10
143.5
 20
51.906747139882924
 10
147.0
 20
54.47083393712117
 10
150.5
 20
57.0968202751301
 10
154.0
 20
59.78471432255553
 10
157.5
 20
62.53452444062739
 10
161.0
 20
65.34625918316421
 10
164.5
 20
68.21992729662588
 10
168.0
 20
71.15553772012257
 10
171.5
 20
74.15309958544991
 10
175.0
 20
77.21262221711986
  0
LWPOLYLINE
  5
35
330
17
100
AcDbEntity
  8
0
100
AcDbPolyline
 90
101
 70
0
 10
-175.0
 20
77.21262221711986
 10
-171.5
 20
74.15309958544991
 10
-168.0
 20
71.15553772012257
 10
-164.5
 20
68.21992729662588
 10
-161.0
 20
65.34625918316421
 10
-157.5
 20
62.53452444062739
 10
-154.0
 20
59.78471432255553
 10
-150.5
 20
57.0968202751301
 10
-147.0
 20
54.47083393712117
 10
-143.5
 20
51.906747139882924
 10
-140.0
 20
49.404551907314044
 10
-136.5
 20
46.96424045584885
 10
-133.0
 20
44.58580519441333
 10
-129.5
 20
42.2692387244118
 10
-126.0
 20
40.01453383971375
 10
-122.5
 20
37.82168352661422
 10
-119.0
 20
35.69068096382051
 10
-115.5
 20
33.62151952242138
 10
-112.0
 20
31.614192765891428
 10
-108.5
 20
29.668694450038252
 10
-105.0
 20
27.785018523011228
 10
-101.5
 20
25.963159125261868
 10
-98.0
 20
24.203110589539403
 10
-94.5
 20
22.50486744085996
 10
-91.0
 20
20.868424396510946
 10
-87.5
 20
19.2937763660114
 10
-84.0
 20
17.78091845110318
 10
-80.5
 20
16.329845945746563
 10
-77.0
 20
14.940554336098193
 10
-73.5
 20
13.61303930048467
 10
-70.0
 20
12.34729670941575
 10
-66.5
 20
11.143322625544691
 10
-63.0
 20
10.001113303677073
 10
-59.5
 20
8.920665190744351
 10
-56.0
 20
7.901974925799457
 10
-52.5
 20
6.945039339999163
 10
-49.0
 20
6.049855456617314
 10
-45.5
 20
5.216420491000755
 10
-42.0
 20
4.44473185058696
 10
-38.5
 20
3.734787134886405
 10
-35.0
 20
3.0865841354781622
 10
-31.5
 20
2.5001208359966816
 10
-28.0
 20
1.9753954121317903
 10
-24.5
 20
1.5124062316242863
 10
-21.0
 20
1.11115185425272
 10
-17.5
 20
0.7716310318333925
 10
-14.0
 20
0.49384270822917076
 10
-10.5
 20
0.2777860193142345
 10
-7.0
 20
0.12346029300932865
 10
-3.5
 20
0.030865049250917948
 10
0.0
 20
0.0
 10
3.5
 20
0.030865049250917948
 10
7.0
 20
0.12346029300932865
 10
10.5
 20
0.2777860193142345
 10
14.0
 20
0.49384270822917076
 10
17.5
 20
0.7716310318333925
 10
21.0
 20
1.11115185425272
 10
24.5
 20
1.5124062316242863
 10
28.0
 20
1.9753954121317903
 10
31.5
 20
2.5001208359966816
 10
35.0
 20
3.0865841354781622
 10
38.5
 20
3.734787134886405
 10
42.0
 20
4.44473185058696
 10
45.5
 20
5.216420491000755
 10
49.0
 20
6.049855456617314
 10
52.5
 20
6.945039339999163
 10
56.0
 20
7.901974925799457
 10
59.5
 20
8.920665190744351
 10
63.0
 20
10.001113303677073
 10
66.5
 20
11.143322625544691
 10
70.0
 20
12.34729670941575
 10
73.5
 20
13.61303930048467
 10
77.0
 20
14.940554336098193
 10
80.5
 20
16.329845945746563
 10
84.0
 20
17.78091845110318
 10
87.5
 20
19.2937763660114
 10
91.0
 20
20.868424396510946
 10
94.5
 20
22.50486744085996
 10
98.0
 20
24.203110589539403
 10
101.5
 20
25.963159125261868
 10
105.0
 20
27.785018523011228
 10
108.5
 20
29.668694450038252
 10
112.0
 20
31.614192765891428
 10
115.5
 20
33.62151952242138
 10
119.0
 20
35.69068096382051
 10
122.5
 20
37.82168352661422
 10
126.0
 20
40.01453383971375
 10
129.5
 20
42.2692387244118
 10
133.0
 20
44.58580519441333
 10
136.5
 20
46.96424045584885
 10
140.0
 20
49.404551907314044
 10
143.5
 20
51.906747139882924
 10
147.0
 20
54.47083393712117
 10
150.5
 20
57.0968202751301
 10
154.0
 20
59.78471432255553
 10
157.5
 20
62.53452444062739
 10
161.0
 20
65.34625918316421
 10
164.5
 20
68.21992729662588
 10
168.0
 20
71.15553772012257
 10
171.5
 20
74.15309958544991
 10
175.0
 20
77.21262221711986
  0
LWPOLYLINE
  5
36
330
17
100
AcDbEntity
  8
0
100
AcDbPolyline
 90
101
 70
0
 10
-175.0
 20
0.0
 10
-171.5
 20
0.030865049250917948
 10
-168.0
 20
0.12346029300932865
 10
-164.5
 20
0.2777860193142345
 10
-161.0
 20
0.49384270822917076
 10
-157.5
 20
0.7716310318333925
 10
-154.0
 20
1.11115185425272
 10
-150.5
 20
1.5124062316242863
 10
-147.0
 20
1.9753954121317903
 10
-143.5
 20
2.5001208359966816
 10
-140.0
 20
3.0865841354781622
 10
-136.5
 20
3.734787134886405
 10
-133.0
 20
4.44473185058696
 10
-129.5
 20
5.216420491000755
 10
-126.0
 20
6.049855456617314
 10
-122.5
 20
6.945039339999163
 10
-119.0
 20
7.901974925799457
 10
-115.5
 20
8.920665190744351
 10
-112.0
 20
10.001113303677073
 10
-108.5
 20
11.143322625544691
 10
-105.0
 20
12.34729670941575
 10
-101.5
 20
13.61303930048467
 10
-98.0
 20
14.940554336098193
 10
-94.5
 20
16.329845945746563
 10
-91.0
 20
17.78091845110318
 10
-87.5
 20
19.2937763660114
 10
-84.0
 20
20.868424396510946
 10
-80.5
 20
22.50486744085996
 10
-77.0
 20
24.203110589539403
 10
-73.5
 20
25.963159125261868
 10
-70.0
 20
27.785018523011228
 10
-66.5
 20
29.668694450038252
 10
-63.0
 20
31.614192765891428
 10
-59.5
 20
33.62151952242138
 10
-56.0
 20
35.69068096382051
 10
-52.5
 20
37.82168352661422
 10
-49.0
 20
40.01453383971375
 10
-45.5
 20
42.2692387244118
 10
-42.0
 20
44.58580519441333
 10
-38.5
 20
46.96424045584885
 10
-35.0
 20
49.404551907314044
 10
-31.5
 20
51.906747139882924
 10
-28.0
 20
54.47083393712117
 10
-24.5
 20
57.0968202751301
 10
-21.0
 20
59.78471432255553
 10
-17.5
 20
62.53452444062739
 10
-14.0
 20
65.34625918316421
 10
-10.5
 20
68.21992729662588
 10
-7.0
 20
71.15553772012257
 10
-3.5
 20
74.15309958544991
 10
0.0
 20
77.21262221711986
 10
3.5
 20
80.33411513236956
 10
7.0
 20
83.51758804123173
 10
10.5
 20
86.76305084651717
 10
14.0
 20
90.07051364388079
 10
17.5
 20
93.4399867218392
 10
21.0
 20
96.87148056179721
 10
24.5
 20
100.36500583810067
 10
28.0
 20
103.92057341804536
 10
31.5
 20
107.53819436192971
 10
35.0
 20
111.21787992306818
 10
38.5
 20
114.95964154785284
 10
42.0
 20
118.7634908757755
 10
45.5
 20
122.62943973945403
 10
49.0
 20
126.55750016468531
 10
52.5
 20
130.5476843704761
 10
56.0
 20
134.60000476908266
 10
59.5
 20
138.7144739660503
 10
63.0
 20
142.89110476024007
 10
66.5
 20
147.1299101438858
 10
70.0
 20
151.43090330263394
 10
73.5
 20
155.7940976155654
 10
77.0
 20
160.2195066552618
 10
80.5
 20
164.7071441878231
 10
84.0
 20
169.2570241729424
 10
87.5
 20
173.86916076390594
 10
91.0
 20
178.54356830768583
 10
94.5
 20
183.28026134493982
 10
98.0
 20
188.07925461008625
 10
101.5
 20
192.94056303134826
 10
105.0
 20
197.86420173077568
 10
108.5
 20
202.85018602431995
 10
112.0
 20
207.89853142186945
 10
115.5
 20
213.00925362729794
 10
119.0
 20
218.18236853851286
 10
122.5
 20
223.41789224751298
 10
126.0
 20
228.71584104041887
 10
129.5
 20
234.07623139755685
 10
133.0
 20
239.49907999346772
 10
136.5
 20
244.98440369699924
 10
140.0
 20
250.53221957132394
 10
143.5
 20
256.14254487402263
 10
147.0
 20
261.81539705711975
 10
150.5
 20
267.5507937671407
 10
154.0
 20
273.3487528451602
 10
157.5
 20
279.20929232688604
 10
161.0
 20
285.13243044266807
 10
164.5
 20
291.11818561760794
 10
168.0
 20
297.1665764715684
 10
171.5
 20
303.27762181927005
 10
175.0
 20
309.4513406703175
  0
LWPOLYLINE
  5
37
330
17
100
AcDbEntity
  8
0
100
AcDbPolyline
 90
101
 70
0
 10
-175.0
 20
309.4513406703175
 10
-171.5
 20
303.27762181927005
 10
-168.0
 20
297.1665764715684
 10
-164.5
 20
291.11818561760794
 10
-161.0
 20
285.13243044266807
 10
-157.5
 20
279.20929232688604
 10
-154.0
 20
273.3487528451602
 10
-150.5
 20
267.5507937671407
 10
-147.0
 20
261.81539705711975
 10
-143.5
 20
256.14254487402263
 10
-140.0
 20
250.53221957132394
 10
-136.5
 20
244.98440369699924
 10
-133.0
 20
239.49907999346772
 10
-129.5
 20
234.07623139755685
 10
-126.0
 20
228.71584104041887
 10
-122.5
 20
223.41789224751298
 10
-119.0
 20
218.18236853851286
 10
-115.5
 20
213.00925362729794
 10
-112.0
 20
207.89853142186945
 10
-108.5
 20
202.85018602431995
 10
-105.0
 20
197.86420173077568
 10
-101.5
 20
192.94056303134826
 10
-98.0
 20
188.07925461008625
 10
-94.5
 20
183.28026134493982
 10
-91.0
 20
178.54356830768583
 10
-87.5
 20
173.86916076390594
 10
-84.0
 20
169.2570241729424
 10
-80.5
 20
164.7071441878231
 10
-77.0
 20
160.2195066552618
 10
-73.5
 20
155.7940976155654
 10
-70.0
 20
151.43090330263394
 10
-66.5
 20
147.1299101438858
 10
-63.0
 20
142.89110476024007
 10
-59.5
 20
138.7144739660503
 10
-56.0
 20
134.60000476908266
 10
-52.5
 20
130.5476843704761
 10
-49.0
 20
126.55750016468531
 10
-45.5
 20
122.62943973945403
 10
-42.0
 20
118.7634908757755
 10
-38.5
 20
114.95964154785284
 10
-35.0
 20
111.21787992306818
 10
-31.5
 20
107.53819436192971
 10
-28.0
 20
103.92057341804536
 10
-24.5
 20
100.36500583810067
 10
-21.0
 20
96.87148056179721
 10
-17.5
 20
93.4399867218392
 10
-14.0
 20
90.07051364388079
 10
-10.5
 20
86.76305084651717
 10
-7.0
 20
83.51758804123173
 10
-3.5
 20
80.33411513236956
 10
0.0
 20
77.21262221711986
 10
3.5
 20
74.15309958544991
 10
7.0
 20
71.15553772012257
 10
10.5
 20
68.21992729662588
 10
14.0
 20
65.34625918316421
 10
17.5
 20
62.53452444062739
 10
21.0
 20
59.78471432255553
 10
24.5
 20
57.0968202751301
 10
28.0
 20
54.47083393712117
 10
31.5
 20
51.906747139882924
 10
35.0
 20
49.404551907314044
 10
38.5
 20
46.96424045584885
 10
42.0
 20
44.58580519441333
 10
45.5
 20
42.2692387244118
 10
49.0
 20
40.01453383971375
 10
52.5
 20
37.82168352661422
 10
56.0
 20
35.69068096382051
 10
59.5
 20
33.62151952242138
 10
63.0
 20
31.614192765891428
 10
66.5
 20
29.668694450038252
 10
70.0
 20
27.785018523011228
 10
73.5
 20
25.963159125261868
 10
77.0
 20
24.203110589539403
 10
80.5
 20
22.50486744085996
 10
84.0
 20
20.868424396510946
 10
87.5
 20
19.2937763660114
 10
91.0
 20
17.78091845110318
 10
94.5
 20
16.329845945746563
 10
98.0
 20
14.940554336098193
 10
101.5
 20
13.61303930048467
 10
105.0
 20
12.34729670941575
 10
108.5
 20
11.143322625544691
 10
112.0
 20
10.001113303677073
 10
115.5
 20
8.920665190744351
 10
119.0
 20
7.901974925799457
 10
122.5
 20
6.945039339999163
 10
126.0
 20
6.049855456617314
 10
129.5
 20
5.216420491000755
 10
133.0
 20
4.44473185058696
 10
136.5
 20
3.734787134886405
 10
140.0
 20
3.0865841354781622
 10
143.5
 20
2.5001208359966816
 10
147.0
 20
1.9753954121317903
 10
150.5
 20
1.5124062316242863
 10
154.0
 20
1.11115185425272
 10
157.5
 20
0.7716310318333925
 10
161.0
 20
0.49384270822917076
 10
164.5
 20
0.2777860193142345
 10
168.0
 20
0.12346029300932865
 10
171.5
 20
0.030865049250917948
 10
175.0
 20
0.0
  0
LWPOLYLINE
  5
38
330
17
100
AcDbEntity
  8
0
100
AcDbPolyline
 90
101
 70
0
 10
-175.0
 20
309.4513406703175
 10
-171.5
 20
303.27762181927005
 10
-168.0
 20
297.1665764715684
 10
-164.5
 20
291.11818561760794
 10
-161.0
 20
285.13243044266807
 10
-157.5
 20
279.20929232688604
 10
-154.0
 20
273.3487528451602
 10
-150.5
 20
267.5507937671407
 10
-147.0
 20
261.81539705711975
 10
-143.5
 20
256.14254487402263
 10
-140.0
 20
250.53221957132394
 10
-136.5
 20
244.98440369699924
 10
-133.0
 20
239.49907999346772
 10
-129.5
 20
234.07623139755685
 10
-126.0
 20
228.71584104041887
 10
-122.5
 20
223.41789224751298
 10
-119.0
 20
218.18236853851286
 10
-115.5
 20
213.00925362729794
 10
-112.0
 20
207.89853142186945
 10
-108.5
 20
202.85018602431995
 10
-105.0
 20
197.86420173077568
 10
-101.5
 20
192.94056303134826
 10
-98.0
 20
188.07925461008625
 10
-94.5
 20
183.28026134493982
 10
-91.0
 20
178.54356830768583
 10
-87.5
 20
173.86916076390594
 10
-84.0
 20
169.2570241729424
 10
-80.5
 20
164.7071441878231
 10
-77.0
 20
160.2195066552618
 10
-73.5
 20
155.7940976155654
 10
-70.0
 20
151.43090330263394
 10
-66.5
 20
147.1299101438858
 10
-63.0
 20
142.89110476024007
 10
-59.5
 20
138.7144739660503
 10
-56.0
 20
134.60000476908266
 10
-52.5
 20
130.5476843704761
 10
-49.0
 20
126.55750016468531
 10
-45.5
 20
122.62943973945403
 10
-42.0
 20
118.7634908757755
 10
-38.5
 20
114.95964154785284
 10
-35.0
 20
111.21787992306818
 10
-31.5
 20
107.53819436192971
 10
-28.0
 20
103.92057341804536
 10
-24.5
 20
100.36500583810067
 10
-21.0
 20
96.87148056179721
 10
-17.5
 20
93.4399867218392
 10
-14.0
 20
90.07051364388079
 10
-10.5
 20
86.76305084651717
 10
-7.0
 20
83.51758804123173
 10
-3.5
 20
80.33411513236956
 10
0.0
 20
77.21262221711986
 10
3.5
 20
74.15309958544991
 10
7.0
 20
71.15553772012257
 10
10.5
 20
68.21992729662588
 10
14.0
 20
65.34625918316421
 10
17.5
 20
62.53452444062739
 10
21.0
 20
59.78471432255553
 10
24.5
 20
57.0968202751301
 10
28.0
 20
54.47083393712117
 10
31.5
 20
51.906747139882924
 10
35.0
 20
49.404551907314044
 10
38.5
 20
46.96424045584885
 10
42.0
 20
44.58580519441333
 10
45.5
 20
42.2692387244118
 10
49.0
 20
40.01453383971375
 10
52.5
 20
37.82168352661422
 10
56.0
 20
35.69068096382051
 10
59.5
 20
33.62151952242138
 10
63.0
 20
31.614192765891428
 10
66.5
 20
29.668694450038252
 10
70.0
 20
27.785018523011228
 10
73.5
 20
25.963159125261868
 10
77.0
 20
24.203110589539403
 10
80.5
 20
22.50486744085996
 10
84.0
 20
20.868424396510946
 10
87.5
 20
19.2937763660114
 10
91.0
 20
17.78091845110318
 10
94.5
 20
16.329845945746563
 10
98.0
 20
14.940554336098193
 10
101.5
 20
13.61303930048467
 10
105.0
 20
12.34729670941575
 10
108.5
 20
11.143322625544691
 10
112.0
 20
10.001113303677073
 10
115.5
 20
8.920665190744351
 10
119.0
 20
7.901974925799457
 10
122.5
 20
6.945039339999163
 10
126.0
 20
6.049855456617314
 10
129.5
 20
5.216420491000755
 10
133.0
 20
4.44473185058696
 10
136.5
 20
3.734787134886405
 10
140.0
 20
3.0865841354781622
 10
143.5
 20
2.5001208359966816
 10
147.0
 20
1.9753954121317903
 10
150.5
 20
1.5124062316242863
 10
154.0
 20
1.11115185425272
 10
157.5
 20
0.7716310318333925
 10
161.0
 20
0.49384270822917076
 10
164.5
 20
0.2777860193142345
 10
168.0
 20
0.12346029300932865
 10
171.5
 20
0.030865049250917948
 10
175.0
 20
0.0
  0
LWPOLYLINE
  5
39
330
17
100
AcDbEntity
  8
0
100
AcDbPolyline
 90
101
 70
0
 10
-175.0
 20
309.4513406703175
 10
-171.5
 20
303.27762181927005
 10
-168.0
 20
297.1665764715684
 10
-164.5
 20
291.11818561760794
 10
-161.0
 20
285.13243044266807
 10
-157.5
 20
279.20929232688604
 10
-154.0
 20
273.3487528451602
 10
-150.5
 20
267.5507937671407
 10
-147.0
 20
261.81539705711975
 10
-143.5
 20
256.14254487402263
 10
-140.0
 20
250.53221957132394
 10
-136.5
 20
244.98440369699924
 10
-133.0
 20
239.49907999346772
 10
-129.5
 20
234.07623139755685
 10
-126.0
 20
228.71584104041887
 10
-122.5
 20
223.41789224751298
 10
-119.0
 20
218.18236853851286
 10
-115.5
 20
213.00925362729794
 10
-112.0
 20
207.89853142186945
 10
-108.5
 20
202.85018602431995
 10
-105.0
 20
197.86420173077568
 10
-101.5
 20
192.94056303134826
 10
-98.0
 20
188.07925461008625
 10
-94.5
 20
183.28026134493982
 10
-91.0
 20
178.54356830768583
 10
-87.5
 20
173.86916076390594
 10
-84.0
 20
169.2570241729424
 10
-80.5
 20
164.7071441878231
 10
-77.0
 20
160.2195066552618
 10
-73.5
 20
155.7940976155654
 10
-70.0
 20
151.43090330263394
 10
-66.5
 20
147.1299101438858
 10
-63.0
 20
142.89110476024007
 10
-59.5
 20
138.7144739660503
 10
-56.0
 20
134.60000476908266
 10
-52.5
 20
130.5476843704761
 10
-49.0
 20
126.55750016468531
 10
-45.5
 20
122.62943973945403
 10
-42.0
 20
118.7634908757755
 10
-38.5
 20
114.95964154785284
 10
-35.0
 20
111.21787992306818
 10
-31.5
 20
107.53819436192971
 10
-28.0
 20
103.92057341804536
 10
-24.5
 20
100.36500583810067
 10
-21.0
 20
96.87148056179721
 10
-17.5
 20
93.4399867218392
 10
-14.0
 20
90.07051364388079
 10
-10.5
 20
86.76305084651717
 10
-7.0
 20
83.51758804123173
 10
-3.5
 20
80.33411513236956
 10
0.0
 20
77.21262221711986
 10
3.5
 20
74.15309958544991
 10
7.0
 20
71.15553772012257
 10
10.5
 20
68.21992729662588
 10
14.0
 20
65.34625918316421
 10
17.5
 20
62.53452444062739
 10
21.0
 20
59.78471432255553
 10
24.5
 20
57.0968202751301
 10
28.0
 20
54.47083393712117
 10
31.5
 20
51.906747139882924
 10
35.0
 20
49.404551907314044
 10
38.5
 20
46.96424045584885
 10
42.0
 20
44.58580519441333
 10
45.5
 20
42.2692387244118
 10
49.0
 20
40.01453383971375
 10
52.5
 20
37.82168352661422
 10
56.0
 20
35.69068096382051
 10
59.5
 20
33.62151952242138
 10
63.0
 20
31.614192765891428
 10
66.5
 20
29.668694450038252
 10
70.0
 20
27.785018523011228
 10
73.5
 20
25.963159125261868
 10
77.0
 20
24.203110589539403
 10
80.5
 20
22.50486744085996
 10
84.0
 20
20.868424396510946
 10
87.5
 20
19.2937763660114
 10
91.0
 20
17.78091845110318
 10
94.5
 20
16.329845945746563
 10
98.0
 20
14.940554336098193
 10
101.5
 20
13.61303930048467
 10
105.0
 20
12.34729670941575
 10
108.5
 20
11.143322625544691
 10
112.0
 20
10.001113303677073
 10
115.5
 20
8.920665190744351
 10
119.0
 20
7.901974925799457
 10
122.5
 20
6.945039339999163
 10
126.0
 20
6.049855456617314
 10
129.5
 20
5.216420491000755
 10
133.0
 20
4.44473185058696
 10
136.5
 20
3.734787134886405
 10
140.0
 20
3.0865841354781622
 10
143.5
 20
2.5001208359966816
 10
147.0
 20
1.9753954121317903
 10
150.5
 20
1.5124062316242863
 10
154.0
 20
1.11115185425272
 10
157.5
 20
0.7716310318333925
 10
161.0
 20
0.49384270822917076
 10
164.5
 20
0.2777860193142345
 10
168.0
 20
0.12346029300932865
 10
171.5
 20
0.030865049250917948
 10
175.0
 20
0.0
  0
LWPOLYLINE
  5
3A
330
17
100
AcDbEntity
  8
0
100
AcDbPolyline
 90
101
 70
0
 10
0.0
 20
77.21262221711986
 10
3.5
 20
74.15309958544991
 10
7.0
 20
71.15553772012257
 10
10.5
 20
68.21992729662588
 10
14.0
 20
65.34625918316421
 10
17.5
 20
62.53452444062739
 10
21.0
 20
59.78471432255553
 10
24.5
 20
57.0968202751301
 10
28.0
 20
54.47083393712117
 10
31.5
 20
51.906747139882924
 10
35.0
 20
49.404551907314044
 10
38.5
 20
46.96424045584885
 10
42.0
 20
44.58580519441333
 10
45.5
 20
42.2692387244118
 10
49.0
 20
40.01453383971375
 10
52.5
 20
37.82168352661422
 10
56.0
 20
35.69068096382051
 10
59.5
 20
33.62151952242138
 10
63.0
 20
31.614192765891428
 10
66.5
 20
29.668694450038252
 10
70.0
 20
27.785018523011228
 10
73.5
 20
25.963159125261868
 10
77.0
 20
24.203110589539403
 10
80.5
 20
22.50486744085996
 10
84.0
 20
20.868424396510946
 10
87.5
 20
19.2937763660114
 10
91.0
 20
17.78091845110318
 10
94.5
 20
16.329845945746563
 10
98.0
 20
14.940554336098193
 10
101.5
 20
13.61303930048467
 10
105.0
 20
12.34729670941575
 10
108.5
 20
11.143322625544691
 10
112.0
 20
10.001113303677073
 10
115.5
 20
8.920665190744351
 10
119.0
 20
7.901974925799457
 10
122.5
 20
6.945039339999163
 10
126.0
 20
6.049855456617314
 10
129.5
 20
5.216420491000755
 10
133.0
 20
4.44473185058696
 10
136.5
 20
3.734787134886405
 10
140.0
 20
3.0865841354781622
 10
143.5
 20
2.5001208359966816
 10
147.0
 20
1.9753954121317903
 10
150.5
 20
1.5124062316242863
 10
154.0
 20
1.11115185425272
 10
157.5
 20
0.7716310318333925
 10
161.0
 20
0.49384270822917076
 10
164.5
 20
0.2777860193142345
 10
168.0
 20
0.12346029300932865
 10
171.5
 20
0.030865049250917948
 10
175.0
 20
0.0
 10
178.5
 20
0.030865049250917948
 10
182.0
 20
0.12346029300932865
 10
185.5
 20
0.2777860193142345
 10
189.0
 20
0.49384270822917076
 10
192.5
 20
0.7716310318333925
 10
196.0
 20
1.11115185425272
 10
199.5
 20
1.5124062316242863
 10
203.0
 20
1.9753954121317903
 10
206.5
 20
2.5001208359966816
 10
210.0
 20
3.0865841354781622
 10
213.5
 20
3.734787134886405
 10
217.0
 20
4.44473185058696
 10
220.5
 20
5.216420491000755
 10
224.0
 20
6.049855456617314
 10
227.5
 20
6.945039339999163
 10
231.0
 20
7.901974925799457
 10
234.5
 20
8.920665190744351
 10
238.0
 20
10.001113303677073
 10
241.5
 20
11.143322625544691
 10
245.0
 20
12.34729670941575
 10
248.5
 20
13.61303930048467
 10
252.0
 20
14.940554336098193
 10
255.5
 20
16.329845945746563
 10
259.0
 20
17.78091845110318
 10
262.5
 20
19.2937763660114
 10
266.0
 20
20.868424396510946
 10
269.5
 20
22.50486744085996
 10
273.0
 20
24.203110589539403
 10
276.5
 20
25.963159125261868
 10
280.0
 20
27.785018523011228
 10
283.5
 20
29.668694450038252
 10
287.0
 20
31.614192765891428
 10
290.5
 20
33.62151952242138
 10
294.0
 20
35.69068096382051
 10
297.5
 20
37.82168352661422
 10
301.0
 20
40.01453383971375
 10
304.5
 20
42.2692387244118
 10
308.0
 20
44.58580519441333
 10
311.5
 20
46.96424045584885
 10
315.0
 20
49.404551907314044
 10
318.5
 20
51.906747139882924
 10
322.0
 20
54.47083393712117
 10
325.5
 20
57.0968202751301
 10
329.0
 20
59.78471432255553
 10
332.5
 20
62.53452444062739
 10
336.0
 20
65.34625918316421
 10
339.5
 20
68.21992729662588
 10
343.0
 20
71.15553772012257
 10
346.5
 20
74.15309958544991
 10
350.0
 20
77.21262221711986
  0
LWPOLYLINE
  5
3B
330
17
100
AcDbEntity
  8
0
100
AcDbPolyline
 90
101
 70
0
 10
0.0
 20
77.21262221711986
 10
3.5
 20
74.15309958544991
 10
7.0
 20
71.15553772012257
 10
10.5
 20
68.21992729662588
 10
14.0
 20
65.34625918316421
 10
17.5
 20
62.53452444062739
 10
21.0
 20
59.78471432255553
 10
24.5
 20
57.0968202751301
 10
28.0
 20
54.47083393712117
 10
31.5
 20
51.906747139882924
 10
35.0
 20
49.404551907314044
 10
38.5
 20
46.96424045584885
 10
42.0
 20
44.58580519441333
 10
45.5
 20
42.2692387244118
 10
49.0
 20
40.01453383971375
 10
52.5
 20
37.82168352661422
 10
56.0
 20
35.69068096382051
 10
59.5
 20
33.62151952242138
 10
63.0
 20
31.614192765891428
 10
66.5
 20
29.668694450038252
 10
70.0
 20
27.785018523011228
 10
73.5
 20
25.963159125261868
 10
77.0
 20
24.203110589539403
 10
80.5
 20
22.50486744085996
 10
84.0
 20
20.868424396510946
 10
87.5
 20
19.2937763660114
 10
91.0
 20
17.78091845110318
 10
94.5
 20
16.329845945746563
 10
98.0
 20
14.940554336098193
 10
101.5
 20
13.61303930048467
 10
105.0
 20
12.34729670941575
 10
108.5
 20
11.143322625544691
 10
112.0
 20
10.001113303677073
 10
115.5
 20
8.920665190744351
 10
119.0
 20
7.901974925799457
 10
122.5
 20
6.945039339999163
 10
126.0
 20
6.049855456617314
 10
129.5
 20
5.216420491000755
 10
133.0
 20
4.44473185058696
 10
136.5
 20
3.734787134886405
 10
140.0
 20
3.0865841354781622
 10
143.5
 20
2.5001208359966816
 10
147.0
 20
1.9753954121317903
 10
150.5
 20
1.5124062316242863
 10
154.0
 20
1.11115185425272
 10
157.5
 20
0.7716310318333925
 10
161.0
 20
0.49384270822917076
 10
164.5
 20
0.2777860193142345
 10
168.0
 20
0.12346029300932865
 10
171.5
 20
0.030865049250917948
 10
175.0
 20
0.0
 10
178.5
 20
0.030865049250917948
 10
182.0
 20
0.12346029300932865
 10
185.5
 20
0.2777860193142345
 10
189.0
 20
0.49384270822917076
 10
192.5
 20
0.7716310318333925
 10
196.0
 20
1.11115185425272
 10
199.5
 20
1.5124062316242863
 10
203.0
 20
1.9753954121317903
 10
206.5
 20
2.5001208359966816
 10
210.0
 20
3.0865841354781622
 10
213.5
 20
3.734787134886405
 10
217.0
 20
4.44473185058696
 10
220.5
 20
5.216420491000755
 10
224.0
 20
6.049855456617314
 10
227.5
 20
6.945039339999163
 10
231.0
 20
7.901974925799457
 10
234.5
 20
8.920665190744351
 10
238.0
 20
10.001113303677073
 10
241.5
 20
11.143322625544691
 10
245.0
 20
12.34729670941575
 10
248.5
 20
13.61303930048467
 10
252.0
 20
14.940554336098193
 10
255.5
 20
16.329845945746563
 10
259.0
 20
17.78091845110318
 10
262.5
 20
19.2937763660114
 10
266.0
 20
20.868424396510946
 10
269.5
 20
22.50486744085996
 10
273.0
 20
24.203110589539403
 10
276.5
 20
25.963159125261868
 10
280.0
 20
27.785018523011228
 10
283.5
 20
29.668694450038252
 10
287.0
 20
31.614192765891428
 10
290.5
 20
33.62151952242138
 10
294.0
 20
35.69068096382051
 10
297.5
 20
37.82168352661422
 10
301.0
 20
40.01453383971375
 10
304.5
 20
42.2692387244118
 10
308.0
 20
44.58580519441333
 10
311.5
 20
46.96424045584885
 10
315.0
 20
49.404551907314044
 10
318.5
 20
51.906747139882924
 10
322.0
 20
54.47083393712117
 10
325.5
 20
57.0968202751301
 10
329.0
 20
59.78471432255553
 10
332.5
 20
62.53452444062739
 10
336.0
 20
65.34625918316421
 10
339.5
 20
68.21992729662588
 10
343.0
 20
71.15553772012257
 10
346.5
 20
74.15309958544991
 10
350.0
 20
77.21262221711986
  0
LWPOLYLINE
  5
3C
330
17
100
AcDbEntity
  8
0
100
AcDbPolyline
 90
101
 70
0
 10
0.0
 20
77.21262221711986
 10
3.5
 20
74.15309958544991
 10
7.0
 20
71.15553772012257
 10
10.5
 20
68.21992729662588
 10
14.0
 20
65.34625918316421
 10
17.5
 20
62.53452444062739
 10
21.0
 20
59.78471432255553
 10
24.5
 20
57.0968202751301
 10
28.0
 20
54.47083393712117
 10
31.5
 20
51.906747139882924
 10
35.0
 20
49.404551907314044
 10
38.5
 20
46.96424045584885
 10
42.0
 20
44.58580519441333
 10
45.5
 20
42.2692387244118
 10
49.0
 20
40.01453383971375
 10
52.5
 20
37.82168352661422
 10
56.0
 20
35.69068096382051
 10
59.5
 20
33.62151952242138
 10
63.0
 20
31.614192765891428
 10
66.5
 20
29.668694450038252
 10
70.0
 20
27.785018523011228
 10
73.5
 20
25.963159125261868
 10
77.0
 20
24.203110589539403
 10
80.5
 20
22.50486744085996
 10
84.0
 20
20.868424396510946
 10
87.5
 20
19.2937763660114
 10
91.0
 20
17.78091845110318
 10
94.5
 20
16.329845945746563
 10
98.0
 20
14.940554336098193
 10
101.5
 20
13.61303930048467
 10
105.0
 20
12.34729670941575
 10
108.5
 20
11.143322625544691
 10
112.0
 20
10.001113303677073
 10
115.5
 20
8.920665190744351
 10
119.0
 20
7.901974925799457
 10
122.5
 20
6.945039339999163
 10
126.0
 20
6.049855456617314
 10
129.5
 20
5.216420491000755
 10
133.0
 20
4.44473185058696
 10
136.5
 20
3.734787134886405
 10
140.0
 20
3.0865841354781622
 10
143.5
 20
2.5001208359966816
 10
147.0
 20
1.9753954121317903
 10
150.5
 20
1.5124062316242863
 10
154.0
 20
1.11115185425272
 10
157.5
 20
0.7716310318333925
 10
161.0
 20
0.49384270822917076
 10
164.5
 20
0.2777860193142345
 10
168.0
 20
0.12346029300932865
 10
171.5
 20
0.030865049250917948
 10
175.0
 20
0.0
 10
178.5
 20
0.030865049250917948
 10
182.0
 20
0.12346029300932865
 10
185.5
 20
0.2777860193142345
 10
189.0
 20
0.49384270822917076
 10
192.5
 20
0.7716310318333925
 10
196.0
 20
1.11115185425272
 10
199.5
 20
1.5124062316242863
 10
203.0
 20
1.9753954121317903
 10
206.5
 20
2.5001208359966816
 10
210.0
 20
3.0865841354781622
 10
213.5
 20
3.734787134886405
 10
217.0
 20
4.44473185058696
 10
220.5
 20
5.216420491000755
 10
224.0
 20
6.049855456617314
 10
227.5
 20
6.945039339999163
 10
231.0
 20
7.901974925799457
 10
234.5
 20
8.920665190744351
 10
238.0
 20
10.001113303677073
 10
241.5
 20
11.143322625544691
 10
245.0
 20
12.34729670941575
 10
248.5
 20
13.61303930048467
 10
252.0
 20
14.940554336098193
 10
255.5
 20
16.329845945746563
 10
259.0
 20
17.78091845110318
 10
262.5
 20
19.2937763660114
 10
266.0
 20
20.868424396510946
 10
269.5
 20
22.50486744085996
 10
273.0
 20
24.203110589539403
 10
276.5
 20
25.963159125261868
 10
280.0
 20
27.785018523011228
 10
283.5
 20
29.668694450038252
 10
287.0
 20
31.614192765891428
 10
290.5
 20
33.62151952242138
 10
294.0
 20
35.69068096382051
 10
297.5
 20
37.82168352661422
 10
301.0
 20
40.01453383971375
 10
304.5
 20
42.2692387244118
 10
308.0
 20
44.58580519441333
 10
311.5
 20
46.96424045584885
 10
315.0
 20
49.404551907314044
 10
318.5
 20
51.906747139882924
 10
322.0
 20
54.47083393712117
 10
325.5
 20
57.0968202751301
 10
329.0
 20
59.78471432255553
 10
332.5
 20
62.53452444062739
 10
336.0
 20
65.34625918316421
 10
339.5
 20
68.21992729662588
 10
343.0
 20
71.15553772012257
 10
346.5
 20
74.15309958544991
 10
350.0
 20
77.21262221711986
  0
LWPOLYLINE
  5
3D
330
17
100
AcDbEntity
  8
0
100
AcDbPolyline
 90
100
 70
0
 10
0.0
 20
77.21262221711986
 10
3.5353535353535355
 20
74.12251142640568
 10
7.070707070707071
 20
71.09561935982023
 10
10.606060606060606
 20
68.13193641043509
 10
14.141414141414142
 20
65.2314531719431
 10
17.67676767676768
 20
62.39416043862762
 10
21.21212121212121
 20
59.62004920533167
 10
24.747474747474747
 20
56.90911066741378
 10
28.282828282828284
 20
54.261336220748134
 10
31.81818181818182
 20
51.67671746168039
 10
35.35353535353536
 20
49.15524618699248
 10
38.88888888888889
 20
46.696914393902595
 10
42.42424242424242
 20
44.301714280016725
 10
45.95959595959596
 20
41.96963824330663
 10
49.494949494949495
 20
39.70067888209661
 10
53.03030303030303
 20
37.49482899504145
 10
56.56565656565657
 20
35.35208158108242
 10
60.101010101010104
 20
33.27242983945163
 10
63.63636363636364
 20
31.255867169623567
 10
67.17171717171718
 20
29.302387171323918
 10
70.70707070707071
 20
27.411983644485517
 10
74.24242424242425
 20
25.584650589235093
 10
77.77777777777779
 20
23.82038220588008
 10
81.31313131313132
 20
22.11917289488658
 10
84.84848484848484
 20
20.481017256857324
 10
88.38383838383838
 20
18.905910092522852
 10
91.91919191919192
 20
17.393846402715102
 10
95.45454545454545
 20
15.944821388362973
 10
98.98989898989899
 20
14.55883045047031
 10
102.52525252525253
 20
13.235869190093876
 10
106.06060606060606
 20
11.975933408347746
 10
109.5959595959596
 20
10.77901910637687
 10
113.13131313131314
 20
9.645122485343869
 10
116.66666666666667
 20
8.574239946424608
 10
120.20202020202021
 20
7.566368090790586
 10
123.73737373737374
 20
6.621503719600117
 10
127.27272727272728
 20
5.739643833989517
 10
130.8080808080808
 20
4.9207856350642905
 10
134.34343434343435
 20
4.164926523881513
 10
137.87878787878788
 20
3.472064101454226
 10
141.41414141414143
 20
2.842196168733819
 10
144.94949494949495
 20
2.2753207266144324
 10
148.4848484848485
 20
1.7714359759109288
 10
152.02020202020202
 20
1.3305403173632966
 10
155.55555555555557
 20
0.9526323516366515
 10
159.0909090909091
 20
0.6377108793036101
 10
162.62626262626264
 20
0.38577490084429095
 10
166.16161616161617
 20
0.19682361665953269
 10
169.6969696969697
 20
0.07085642703564382
 10
173.23232323232324
 20
0.007872932170840563
 10
176.76767676767676
 20
0.007872932170840563
 10
180.3030303030303
 20
0.07085642703564382
 10
183.83838383838383
 20
0.19682361665953269
 10
187.37373737373738
 20
0.38577490084429095
 10
190.9090909090909
 20
0.6377108793036101
 10
194.44444444444446
 20
0.9526323516366515
 10
197.97979797979798
 20
1.3305403173632966
 10
201.51515151515153
 20
1.7714359759109288
 10
205.05050505050505
 20
2.2753207266144324
 10
208.5858585858586
 20
2.842196168733819
 10
212.12121212121212
 20
3.472064101454226
 10
215.65656565656568
 20
4.164926523881513
 10
219.1919191919192
 20
4.9207856350642905
 10
222.72727272727275
 20
5.739643833989517
 10
226.26262626262627
 20
6.621503719600117
 10
229.7979797979798
 20
7.566368090790586
 10
233.33333333333334
 20
8.574239946424608
 10
236.86868686868686
 20
9.645122485343869
 10
240.40404040404042
 20
10.77901910637687
 10
243.93939393939394
 20
11.975933408347746
 10
247.4747474747475
 20
13.235869190093876
 10
251.010101010101
 20
14.55883045047031
 10
254.54545454545456
 20
15.944821388362973
 10
258.0808080808081
 20
17.393846402715102
 10
261.6161616161616
 20
18.905910092522852
 10
265.1515151515152
 20
20.481017256857324
 10
268.6868686868687
 20
22.11917289488658
 10
272.22222222222223
 20
23.82038220588008
 10
275.75757575757575
 20
25.584650589235093
 10
279.29292929292933
 20
27.411983644485517
 10
282.82828282828285
 20
29.302387171323918
 10
286.3636363636364
 20
31.255867169623567
 10
289.8989898989899
 20
33.27242983945163
 10
293.4343434343434
 20
35.35208158108242
 10
296.969696969697
 20
37.49482899504145
 10
300.5050505050505
 20
39.70067888209661
 10
304.04040404040404
 20
41.96963824330663
 10
307.57575757575756
 20
44.301714280016725
 10
311.11111111111114
 20
46.696914393902595
 10
314.64646464646466
 20
49.15524618699248
 10
318.1818181818182
 20
51.67671746168039
 10
321.7171717171717
 20
54.261336220748134
 10
325.2525252525253
 20
56.90911066741378
 10
328.7878787878788
 20
59.62004920533167
 10
332.32323232323233
 20
62.39416043862762
 10
335.85858585858585
 20
65.2314531719431
 10
339.3939393939394
 20
68.13193641043509
 10
342.92929292929296
 20
71.09561935982023
 10
346.4646464646465
 20
74.12251142640568
 10
350.0
 20
77.21262221711986
  0
LWPOLYLINE
  5
3E
330
17
100
AcDbEntity
  8
0
100
AcDbPolyline
 90
100
 70
0
 10
0.0
 20
77.21262221711986
 10
3.5353535353535355
 20
74.12251142640568
 10
7.070707070707071
 20
71.09561935982023
 10
10.606060606060606
 20
68.13193641043509
 10
14.141414141414142
 20
65.2314531719431
 10
17.67676767676768
 20
62.39416043862762
 10
21.21212121212121
 20
59.62004920533167
 10
24.747474747474747
 20
56.90911066741378
 10
28.282828282828284
 20
54.261336220748134
 10
31.81818181818182
 20
51.67671746168039
 10
35.35353535353536
 20
49.15524618699248
 10
38.88888888888889
 20
46.696914393902595
 10
42.42424242424242
 20
44.301714280016725
 10
45.95959595959596
 20
41.96963824330663
 10
49.494949494949495
 20
39.70067888209661
 10
53.03030303030303
 20
37.49482899504145
 10
56.56565656565657
 20
35.35208158108242
 10
60.101010101010104
 20
33.27242983945163
 10
63.63636363636364
 20
31.255867169623567
 10
67.17171717171718
 20
29.302387171323918
 10
70.70707070707071
 20
27.411983644485517
 10
74.24242424242425
 20
25.584650589235093
 10
77.77777777777779
 20
23.82038220588008
 10
81.31313131313132
 20
22.11917289488658
 10
84.84848484848484
 20
20.481017256857324
 10
88.38383838383838
 20
18.905910092522852
 10
91.91919191919192
 20
17.393846402715102
 10
95.45454545454545
 20
15.944821388362973
 10
98.98989898989899
 20
14.55883045047031
 10
102.52525252525253
 20
13.235869190093876
 10
106.06060606060606
 20
11.975933408347746
 10
109.5959595959596
 20
10.77901910637687
 10
113.13131313131314
 20
9.645122485343869
 10
116.66666666666667
 20
8.574239946424608
 10
120.20202020202021
 20
7.566368090790586
 10
123.73737373737374
 20
6.621503719600117
 10
127.27272727272728
 20
5.739643833989517
 10
130.8080808080808
 20
4.9207856350642905
 10
134.34343434343435
 20
4.164926523881513
 10
137.87878787878788
 20
3.472064101454226
 10
141.41414141414143
 20
2.842196168733819
 10
144.94949494949495
 20
2.2753207266144324
 10
148.4848484848485
 20
1.7714359759109288
 10
152.02020202020202
 20
1.3305403173632966
 10
155.55555555555557
 20
0.9526323516366515
 10
159.0909090909091
 20
0.6377108793036101
 10
162.62626262626264
 20
0.38577490084429095
 10
166.16161616161617
 20
0.19682361665953269
 10
169.6969696969697
 20
0.07085642703564382
 10
173.23232323232324
 20
0.007872932170840563
 10
176.76767676767676
 20
0.007872932170840563
 10
180.3030303030303
 20
0.07085642703564382
 10
183.83838383838383
 20
0.19682361665953269
 10
187.37373737373738
 20
0.38577490084429095
 10
190.9090909090909
 20
0.6377108793036101
 10
194.44444444444446
 20
0.9526323516366515
 10
197.97979797979798
 20
1.3305403173632966
 10
201.51515151515153
 20
1.7714359759109288
 10
205.05050505050505
 20
2.2753207266144324
 10
208.5858585858586
 20
2.842196168733819
 10
212.12121212121212
 20
3.472064101454226
 10
215.65656565656568
 20
4.164926523881513
 10
219.1919191919192
 20
4.9207856350642905
 10
222.72727272727275
 20
5.739643833989517
 10
226.26262626262627
 20
6.621503719600117
 10
229.7979797979798
 20
7.566368090790586
 10
233.33333333333334
 20
8.574239946424608
 10
236.86868686868686
 20
9.645122485343869
 10
240.40404040404042
 20
10.77901910637687
 10
243.93939393939394
 20
11.975933408347746
 10
247.4747474747475
 20
13.235869190093876
 10
251.010101010101
 20
14.55883045047031
 10
254.54545454545456
 20
15.944821388362973
 10
258.0808080808081
 20
17.393846402715102
 10
261.6161616161616
 20
18.905910092522852
 10
265.1515151515152
 20
20.481017256857324
 10
268.6868686868687
 20
22.11917289488658
 10
272.22222222222223
 20
23.82038220588008
 10
275.75757575757575
 20
25.584650589235093
 10
279.29292929292933
 20
27.411983644485517
 10
282.82828282828285
 20
29.302387171323918
 10
286.3636363636364
 20
31.255867169623567
 10
289.8989898989899
 20
33.27242983945163
 10
293.4343434343434
 20
35.35208158108242
 10
296.969696969697
 20
37.49482899504145
 10
300.5050505050505
 20
39.70067888209661
 10
304.04040404040404
 20
41.96963824330663
 10
307.57575757575756
 20
44.301714280016725
 10
311.11111111111114
 20
46.696914393902595
 10
314.64646464646466
 20
49.15524618699248
 10
318.1818181818182
 20
51.67671746168039
 10
321.7171717171717
 20
54.261336220748134
 10
325.2525252525253
 20
56.90911066741378
 10
328.7878787878788
 20
59.62004920533167
 10
332.32323232323233
 20
62.39416043862762
 10
335.85858585858585
 20
65.2314531719431
 10
339.3939393939394
 20
68.13193641043509
 10
342.92929292929296
 20
71.09561935982023
 10
346.4646464646465
 20
74.12251142640568
 10
350.0
 20
77.21262221711986
  0
LWPOLYLINE
  5
3F
330
17
100
AcDbEntity
  8
0
100
AcDbPolyline
 90
100
 70
0
 10
0.0
 20
77.21262221711986
 10
3.5353535353535355
 20
74.12251142640568
 10
7.070707070707071
 20
71.09561935982023
 10
10.606060606060606
 20
68.13193641043509
 10
14.141414141414142
 20
65.2314531719431
 10
17.67676767676768
 20
62.39416043862762
 10
21.21212121212121
 20
59.62004920533167
 10
24.747474747474747
 20
56.90911066741378
 10
28.282828282828284
 20
54.261336220748134
 10
31.81818181818182
 20
51.67671746168039
 10
35.35353535353536
 20
49.15524618699248
 10
38.88888888888889
 20
46.696914393902595
 10
42.42424242424242
 20
44.301714280016725
 10
45.95959595959596
 20
41.96963824330663
 10
49.494949494949495
 20
39.70067888209661
 10
53.03030303030303
 20
37.49482899504145
 10
56.56565656565657
 20
35.35208158108242
 10
60.101010101010104
 20
33.27242983945163
 10
63.63636363636364
 20
31.255867169623567
 10
67.17171717171718
 20
29.302387171323918
 10
70.70707070707071
 20
27.411983644485517
 10
74.24242424242425
 20
25.584650589235093
 10
77.77777777777779
 20
23.82038220588008
 10
81.31313131313132
 20
22.11917289488658
 10
84.84848484848484
 20
20.481017256857324
 10
88.38383838383838
 20
18.905910092522852
 10
91.91919191919192
 20
17.393846402715102
 10
95.45454545454545
 20
15.944821388362973
 10
98.98989898989899
 20
14.55883045047031
 10
102.52525252525253
 20
13.235869190093876
 10
106.06060606060606
 20
11.975933408347746
 10
109.5959595959596
 20
10.77901910637687
 10
113.13131313131314
 20
9.645122485343869
 10
116.66666666666667
 20
8.574239946424608
 10
120.20202020202021
 20
7.566368090790586
 10
123.73737373737374
 20
6.621503719600117
 10
127.27272727272728
 20
5.739643833989517
 10
130.8080808080808
 20
4.9207856350642905
 10
134.34343434343435
 20
4.164926523881513
 10
137.87878787878788
 20
3.472064101454226
 10
141.41414141414143
 20
2.842196168733819
 10
144.94949494949495
 20
2.2753207266144324
 10
148.4848484848485
 20
1.7714359759109288
 10
152.02020202020202
 20
1.3305403173632966
 10
155.55555555555557
 20
0.9526323516366515
 10
159.0909090909091
 20
0.6377108793036101
 10
162.62626262626264
 20
0.38577490084429095
 10
166.16161616161617
 20
0.19682361665953269
 10
169.6969696969697
 20
0.07085642703564382
 10
173.23232323232324
 20
0.007872932170840563
 10
176.76767676767676
 20
0.007872932170840563
 10
180.3030303030303
 20
0.07085642703564382
 10
183.83838383838383
 20
0.19682361665953269
 10
187.37373737373738
 20
0.38577490084429095
 10
190.9090909090909
 20
0.6377108793036101
 10
194.44444444444446
 20
0.9526323516366515
 10
197.97979797979798
 20
1.3305403173632966
 10
201.51515151515153
 20
1.7714359759109288
 10
205.05050505050505
 20
2.2753207266144324
 10
208.5858585858586
 20
2.842196168733819
 10
212.12121212121212
 20
3.472064101454226
 10
215.65656565656568
 20
4.164926523881513
 10
219.1919191919192
 20
4.9207856350642905
 10
222.72727272727275
 20
5.739643833989517
 10
226.26262626262627
 20
6.621503719600117
 10
229.7979797979798
 20
7.566368090790586
 10
233.33333333333334
 20
8.574239946424608
 10
236.86868686868686
 20
9.645122485343869
 10
240.40404040404042
 20
10.77901910637687
 10
243.93939393939394
 20
11.975933408347746
 10
247.4747474747475
 20
13.235869190093876
 10
251.010101010101
 20
14.55883045047031
 10
254.54545454545456
 20
15.944821388362973
 10
258.0808080808081
 20
17.393846402715102
 10
261.6161616161616
 20
18.905910092522852
 10
265.1515151515152
 20
20.481017256857324
 10
268.6868686868687
 20
22.11917289488658
 10
272.22222222222223
 20
23.82038220588008
 10
275.75757575757575
 20
25.584650589235093
 10
279.29292929292933
 20
27.411983644485517
 10
282.82828282828285
 20
29.302387171323918
 10
286.3636363636364
 20
31.255867169623567
 10
289.8989898989899
 20
33.27242983945163
 10
293.4343434343434
 20
35.35208158108242
 10
296.969696969697
 20
37.49482899504145
 10
300.5050505050505
 20
39.70067888209661
 10
304.04040404040404
 20
41.96963824330663
 10
307.57575757575756
 20
44.301714280016725
 10
311.11111111111114
 20
46.696914393902595
 10
314.64646464646466
 20
49.15524618699248
 10
318.1818181818182
 20
51.67671746168039
 10
321.7171717171717
 20
54.261336220748134
 10
325.2525252525253
 20
56.90911066741378
 10
328.7878787878788
 20
59.62004920533167
 10
332.32323232323233
 20
62.39416043862762
 10
335.85858585858585
 20
65.2314531719431
 10
339.3939393939394
 20
68.13193641043509
 10
342.92929292929296
 20
71.09561935982023
 10
346.4646464646465
 20
74.12251142640568
 10
350.0
 20
77.21262221711986
  0
LWPOLYLINE
  5
40
330
17
100
AcDbEntity
  8
0
100
AcDbPolyline
 90
100
 70
0
 10
0.0
 20
77.21262221711986
 10
3.5353535353535355
 20
74.12251142640568
 10
7.070707070707071
 20
71.09561935982023
 10
10.606060606060606
 20
68.13193641043509
 10
14.141414141414142
 20
65.2314531719431
 10
17.67676767676768
 20
62.39416043862762
 10
21.21212121212121
 20
59.62004920533167
 10
24.747474747474747
 20
56.90911066741378
 10
28.282828282828284
 20
54.261336220748134
 10
31.81818181818182
 20
51.67671746168039
 10
35.35353535353536
 20
49.15524618699248
 10
38.88888888888889
 20
46.696914393902595
 10
42.42424242424242
 20
44.301714280016725
 10
45.95959595959596
 20
41.96963824330663
 10
49.494949494949495
 20
39.70067888209661
 10
53.03030303030303
 20
37.49482899504145
 10
56.56565656565657
 20
35.35208158108242
 10
60.101010101010104
 20
33.27242983945163
 10
63.63636363636364
 20
31.255867169623567
 10
67.17171717171718
 20
29.302387171323918
 10
70.70707070707071
 20
27.411983644485517
 10
74.24242424242425
 20
25.584650589235093
 10
77.77777777777779
 20
23.82038220588008
 10
81.31313131313132
 20
22.11917289488658
 10
84.84848484848484
 20
20.481017256857324
 10
88.38383838383838
 20
18.905910092522852
 10
91.91919191919192
 20
17.393846402715102
 10
95.45454545454545
 20
15.944821388362973
 10
98.98989898989899
 20
14.55883045047031
 10
102.52525252525253
 20
13.235869190093876
 10
106.06060606060606
 20
11.975933408347746
 10
109.5959595959596
 20
10.77901910637687
 10
113.13131313131314
 20
9.645122485343869
 10
116.66666666666667
 20
8.574239946424608
 10
120.20202020202021
 20
7.566368090790586
 10
123.73737373737374
 20
6.621503719600117
 10
127.27272727272728
 20
5.739643833989517
 10
130.8080808080808
 20
4.9207856350642905
 10
134.34343434343435
 20
4.164926523881513
 10
137.87878787878788
 20
3.472064101454226
 10
141.41414141414143
 20
2.842196168733819
 10
144.94949494949495
 20
2.2753207266144324
 10
148.4848484848485
 20
1.7714359759109288
 10
152.02020202020202
 20
1.3305403173632966
 10
155.55555555555557
 20
0.9526323516366515
 10
159.0909090909091
 20
0.6377108793036101
 10
162.62626262626264
 20
0.38577490084429095
 10
166.16161616161617
 20
0.19682361665953269
 10
169.6969696969697
 20
0.07085642703564382
 10
173.23232323232324
 20
0.007872932170840563
 10
176.76767676767676
 20
0.007872932170840563
 10
180.3030303030303
 20
0.07085642703564382
 10
183.83838383838383
 20
0.19682361665953269
 10
187.37373737373738
 20
0.38577490084429095
 10
190.9090909090909
 20
0.6377108793036101
 10
194.44444444444446
 20
0.9526323516366515
 10
197.97979797979798
 20
1.3305403173632966
 10
201.51515151515153
 20
1.7714359759109288
 10
205.05050505050505
 20
2.2753207266144324
 10
208.5858585858586
 20
2.842196168733819
 10
212.12121212121212
 20
3.472064101454226
 10
215.65656565656568
 20
4.164926523881513
 10
219.1919191919192
 20
4.9207856350642905
 10
222.72727272727275
 20
5.739643833989517
 10
226.26262626262627
 20
6.621503719600117
 10
229.7979797979798
 20
7.566368090790586
 10
233.33333333333334
 20
8.574239946424608
 10
236.86868686868686
 20
9.645122485343869
 10
240.40404040404042
 20
10.77901910637687
 10
243.93939393939394
 20
11.975933408347746
 10
247.4747474747475
 20
13.235869190093876
 10
251.010101010101
 20
14.55883045047031
 10
254.54545454545456
 20
15.944821388362973
 10
258.0808080808081
 20
17.393846402715102
 10
261.6161616161616
 20
18.905910092522852
 10
265.1515151515152
 20
20.481017256857324
 10
268.6868686868687
 20
22.11917289488658
 10
272.22222222222223
 20
23.82038220588008
 10
275.75757575757575
 20
25.584650589235093
 10
279.29292929292933
 20
27.411983644485517
 10
282.82828282828285
 20
29.302387171323918
 10
286.3636363636364
 20
31.255867169623567
 10
289.8989898989899
 20
33.27242983945163
 10
293.4343434343434
 20
35.35208158108242
 10
296.969696969697
 20
37.49482899504145
 10
300.5050505050505
 20
39.70067888209661
 10
304.04040404040404
 20
41.96963824330663
 10
307.57575757575756
 20
44.301714280016725
 10
311.11111111111114
 20
46.696914393902595
 10
314.64646464646466
 20
49.15524618699248
 10
318.1818181818182
 20
51.67671746168039
 10
321.7171717171717
 20
54.261336220748134
 10
325.2525252525253
 20
56.90911066741378
 10
328.7878787878788
 20
59.62004920533167
 10
332.32323232323233
 20
62.39416043862762
 10
335.85858585858585
 20
65.2314531719431
 10
339.3939393939394
 20
68.13193641043509
 10
342.92929292929296
 20
71.09561935982023
 10
346.4646464646465
 20
74.12251142640568
 10
350.0
 20
77.21262221711986
  0
LWPOLYLINE
  5
41
330
17
100
AcDbEntity
  8
0
100
AcDbPolyline
 90
101
 70
0
 10
0.0
 20
77.21262221711986
 10
3.5
 20
74.15309958544991
 10
7.0
 20
71.15553772012257
 10
10.5
 20
68.21992729662588
 10
14.0
 20
65.34625918316421
 10
17.5
 20
62.53452444062739
 10
21.0
 20
59.78471432255553
 10
24.5
 20
57.0968202751301
 10
28.0
 20
54.47083393712117
 10
31.5
 20
51.906747139882924
 10
35.0
 20
49.404551907314044
 10
38.5
 20
46.96424045584885
 10
42.0
 20
44.58580519441333
 10
45.5
 20
42.2692387244118
 10
49.0
 20
40.01453383971375
 10
52.5
 20
37.82168352661422
 10
56.0
 20
35.69068096382051
 10
59.5
 20
33.62151952242138
 10
63.0
 20
31.614192765891428
 10
66.5
 20
29.668694450038252
 10
70.0
 20
27.785018523011228
 10
73.5
 20
25.963159125261868
 10
77.0
 20
24.203110589539403
 10
80.5
 20
22.50486744085996
 10
84.0
 20
20.868424396510946
 10
87.5
 20
19.2937763660114
 10
91.0
 20
17.78091845110318
 10
94.5
 20
16.329845945746563
 10
98.0
 20
14.940554336098193
 10
101.5
 20
13.61303930048467
 10
105.0
 20
12.34729670941575
 10
108.5
 20
11.143322625544691
 10
112.0
 20
10.001113303677073
 10
115.5
 20
8.920665190744351
 10
119.0
 20
7.901974925799457
 10
122.5
 20
6.945039339999163
 10
126.0
 20
6.049855456617314
 10
129.5
 20
5.216420491000755
 10
133.0
 20
4.44473185058696
 10
136.5
 20
3.734787134886405
 10
140.0
 20
3.0865841354781622
 10
143.5
 20
2.5001208359966816
 10
147.0
 20
1.9753954121317903
 10
150.5
 20
1.5124062316242863
 10
154.0
 20
1.11115185425272
 10
157.5
 20
0.7716310318333925
 10
161.0
 20
0.49384270822917076
 10
164.5
 20
0.2777860193142345
 10
168.0
 20
0.12346029300932865
 10
171.5
 20
0.030865049250917948
 10
175.0
 20
0.0
 10
178.5
 20
0.030865049250917948
 10
182.0
 20
0.12346029300932865
 10
185.5
 20
0.2777860193142345
 10
189.0
 20
0.49384270822917076
 10
192.5
 20
0.7716310318333925
 10
196.0
 20
1.11115185425272
 10
199.5
 20
1.5124062316242863
 10
203.0
 20
1.9753954121317903
 10
206.5
 20
2.5001208359966816
 10
210.0
 20
3.0865841354781622
 10
213.5
 20
3.734787134886405
 10
217.0
 20
4.44473185058696
 10
220.5
 20
5.216420491000755
 10
224.0
 20
6.049855456617314
 10
227.5
 20
6.945039339999163
 10
231.0
 20
7.901974925799457
 10
234.5
 20
8.920665190744351
 10
238.0
 20
10.001113303677073
 10
241.5
 20
11.143322625544691
 10
245.0
 20
12.34729670941575
 10
248.5
 20
13.61303930048467
 10
252.0
 20
14.940554336098193
 10
255.5
 20
16.329845945746563
 10
259.0
 20
17.78091845110318
 10
262.5
 20
19.2937763660114
 10
266.0
 20
20.868424396510946
 10
269.5
 20
22.50486744085996
 10
273.0
 20
24.203110589539403
 10
276.5
 20
25.963159125261868
 10
280.0
 20
27.785018523011228
 10
283.5
 20
29.668694450038252
 10
287.0
 20
31.614192765891428
 10
290.5
 20
33.62151952242138
 10
294.0
 20
35.69068096382051
 10
297.5
 20
37.82168352661422
 10
301.0
 20
40.01453383971375
 10
304.5
 20
42.2692387244118
 10
308.0
 20
44.58580519441333
 10
311.5
 20
46.96424045584885
 10
315.0
 20
49.404551907314044
 10
318.5
 20
51.906747139882924
 10
322.0
 20
54.47083393712117
 10
325.5
 20
57.0968202751301
 10
329.0
 20
59.78471432255553
 10
332.5
 20
62.53452444062739
 10
336.0
 20
65.34625918316421
 10
339.5
 20
68.21992729662588
 10
343.0
 20
71.15553772012257
 10
346.5
 20
74.15309958544991
 10
350.0
 20
77.21262221711986
  0
LWPOLYLINE
  5
42
330
17
100
AcDbEntity
  8
0
100
AcDbPolyline
 90
101
 70
0
 10
0.0
 20
77.21262221711986
 10
3.5
 20
74.15309958544991
 10
7.0
 20
71.15553772012257
 10
10.5
 20
68.21992729662588
 10
14.0
 20
65.34625918316421
 10
17.5
 20
62.53452444062739
 10
21.0
 20
59.78471432255553
 10
24.5
 20
57.0968202751301
 10
28.0
 20
54.47083393712117
 10
31.5
 20
51.906747139882924
 10
35.0
 20
49.404551907314044
 10
38.5
 20
46.96424045584885
 10
42.0
 20
44.58580519441333
 10
45.5
 20
42.2692387244118
 10
49.0
 20
40.01453383971375
 10
52.5
 20
37.82168352661422
 10
56.0
 20
35.69068096382051
 10
59.5
 20
33.62151952242138
 10
63.0
 20
31.614192765891428
 10
66.5
 20
29.668694450038252
 10
70.0
 20
27.785018523011228
 10
73.5
 20
25.963159125261868
 10
77.0
 20
24.203110589539403
 10
80.5
 20
22.50486744085996
 10
84.0
 20
20.868424396510946
 10
87.5
 20
19.2937763660114
 10
91.0
 20
17.78091845110318
 10
94.5
 20
16.329845945746563
 10
98.0
 20
14.940554336098193
 10
101.5
 20
13.61303930048467
 10
105.0
 20
12.34729670941575
 10
108.5
 20
11.143322625544691
 10
112.0
 20
10.001113303677073
 10
115.5
 20
8.920665190744351
 10
119.0
 20
7.901974925799457
 10
122.5
 20
6.945039339999163
 10
126.0
 20
6.049855456617314
 10
129.5
 20
5.216420491000755
 10
133.0
 20
4.44473185058696
 10
136.5
 20
3.734787134886405
 10
140.0
 20
3.0865841354781622
 10
143.5
 20
2.5001208359966816
 10
147.0
 20
1.9753954121317903
 10
150.5
 20
1.5124062316242863
 10
154.0
 20
1.11115185425272
 10
157.5
 20
0.7716310318333925
 10
161.0
 20
0.49384270822917076
 10
164.5
 20
0.2777860193142345
 10
168.0
 20
0.12346029300932865
 10
171.5
 20
0.030865049250917948
 10
175.0
 20
0.0
 10
178.5
 20
0.030865049250917948
 10
182.0
 20
0.12346029300932865
 10
185.5
 20
0.2777860193142345
 10
189.0
 20
0.49384270822917076
 10
192.5
 20
0.7716310318333925
 10
196.0
 20
1.11115185425272
 10
199.5
 20
1.5124062316242863
 10
203.0
 20
1.9753954121317903
 10
206.5
 20
2.5001208359966816
 10
210.0
 20
3.0865841354781622
 10
213.5
 20
3.734787134886405
 10
217.0
 20
4.44473185058696
 10
220.5
 20
5.216420491000755
 10
224.0
 20
6.049855456617314
 10
227.5
 20
6.945039339999163
 10
231.0
 20
7.901974925799457
 10
234.5
 20
8.920665190744351
 10
238.0
 20
10.001113303677073
 10
241.5
 20
11.143322625544691
 10
245.0
 20
12.34729670941575
 10
248.5
 20
13.61303930048467
 10
252.0
 20
14.940554336098193
 10
255.5
 20
16.329845945746563
 10
259.0
 20
17.78091845110318
 10
262.5
 20
19.2937763660114
 10
266.0
 20
20.868424396510946
 10
269.5
 20
22.50486744085996
 10
273.0
 20
24.203110589539403
 10
276.5
 20
25.963159125261868
 10
280.0
 20
27.785018523011228
 10
283.5
 20
29.668694450038252
 10
287.0
 20
31.614192765891428
 10
290.5
 20
33.62151952242138
 10
294.0
 20
35.69068096382051
 10
297.5
 20
37.82168352661422
 10
301.0
 20
40.01453383971375
 10
304.5
 20
42.2692387244118
 10
308.0
 20
44.58580519441333
 10
311.5
 20
46.96424045584885
 10
315.0
 20
49.404551907314044
 10
318.5
 20
51.906747139882924
 10
322.0
 20
54.47083393712117
 10
325.5
 20
57.0968202751301
 10
329.0
 20
59.78471432255553
 10
332.5
 20
62.53452444062739
 10
336.0
 20
65.34625918316421
 10
339.5
 20
68.21992729662588
 10
343.0
 20
71.15553772012257
 10
346.5
 20
74.15309958544991
 10
350.0
 20
77.21262221711986
  0
LWPOLYLINE
  5
43
330
17
100
AcDbEntity
  8
0
100
AcDbPolyline
 90
101
 70
0
 10
0.0
 20
77.21262221711986
 10
3.5
 20
74.15309958544991
 10
7.0
 20
71.15553772012257
 10
10.5
 20
68.21992729662588
 10
14.0
 20
65.34625918316421
 10
17.5
 20
62.53452444062739
 10
21.0
 20
59.78471432255553
 10
24.5
 20
57.0968202751301
 10
28.0
 20
54.47083393712117
 10
31.5
 20
51.906747139882924
 10
35.0
 20
49.404551907314044
 10
38.5
 20
46.96424045584885
 10
42.0
 20
44.58580519441333
 10
45.5
 20
42.2692387244118
 10
49.0
 20
40.01453383971375
 10
52.5
 20
37.82168352661422
 10
56.0
 20
35.69068096382051
 10
59.5
 20
33.62151952242138
 10
63.0
 20
31.614192765891428
 10
66.5
 20
29.668694450038252
 10
70.0
 20
27.785018523011228
 10
73.5
 20
25.963159125261868
 10
77.0
 20
24.203110589539403
 10
80.5
 20
22.50486744085996
 10
84.0
 20
20.868424396510946
 10
87.5
 20
19.2937763660114
 10
91.0
 20
17.78091845110318
 10
94.5
 20
16.329845945746563
 10
98.0
 20
14.940554336098193
 10
101.5
 20
13.61303930048467
 10
105.0
 20
12.34729670941575
 10
108.5
 20
11.143322625544691
 10
112.0
 20
10.001113303677073
 10
115.5
 20
8.920665190744351
 10
119.0
 20
7.901974925799457
 10
122.5
 20
6.945039339999163
 10
126.0
 20
6.049855456617314
 10
129.5
 20
5.216420491000755
 10
133.0
 20
4.44473185058696
 10
136.5
 20
3.734787134886405
 10
140.0
 20
3.0865841354781622
 10
143.5
 20
2.5001208359966816
 10
147.0
 20
1.9753954121317903
 10
150.5
 20
1.5124062316242863
 10
154.0
 20
1.11115185425272
 10
157.5
 20
0.7716310318333925
 10
161.0
 20
0.49384270822917076
 10
164.5
 20
0.2777860193142345
 10
168.0
 20
0.12346029300932865
 10
171.5
 20
0.030865049250917948
 10
175.0
 20
0.0
 10
178.5
 20
0.030865049250917948
 10
182.0
 20
0.12346029300932865
 10
185.5
 20
0.2777860193142345
 10
189.0
 20
0.49384270822917076
 10
192.5
 20
0.7716310318333925
 10
196.0
 20
1.11115185425272
 10
199.5
 20
1.5124062316242863
 10
203.0
 20
1.9753954121317903
 10
206.5
 20
2.5001208359966816
 10
210.0
 20
3.0865841354781622
 10
213.5
 20
3.734787134886405
 10
217.0
 20
4.44473185058696
 10
220.5
 20
5.216420491000755
 10
224.0
 20
6.049855456617314
 10
227.5
 20
6.945039339999163
 10
231.0
 20
7.901974925799457
 10
234.5
 20
8.920665190744351
 10
238.0
 20
10.001113303677073
 10
241.5
 20
11.143322625544691
 10
245.0
 20
12.34729670941575
 10
248.5
 20
13.61303930048467
 10
252.0
 20
14.940554336098193
 10
255.5
 20
16.329845945746563
 10
259.0
 20
17.78091845110318
 10
262.5
 20
19.2937763660114
 10
266.0
 20
20.868424396510946
 10
269.5
 20
22.50486744085996
 10
273.0
 20
24.203110589539403
 10
276.5
 20
25.963159125261868
 10
280.0
 20
27.785018523011228
 10
283.5
 20
29.668694450038252
 10
287.0
 20
31.614192765891428
 10
290.5
 20
33.62151952242138
 10
294.0
 20
35.69068096382051
 10
297.5
 20
37.82168352661422
 10
301.0
 20
40.01453383971375
 10
304.5
 20
42.2692387244118
 10
308.0
 20
44.58580519441333
 10
311.5
 20
46.96424045584885
 10
315.0
 20
49.404551907314044
 10
318.5
 20
51.906747139882924
 10
322.0
 20
54.47083393712117
 10
325.5
 20
57.0968202751301
 10
329.0
 20
59.78471432255553
 10
332.5
 20
62.53452444062739
 10
336.0
 20
65.34625918316421
 10
339.5
 20
68.21992729662588
 10
343.0
 20
71.15553772012257
 10
346.5
 20
74.15309958544991
 10
350.0
 20
77.21262221711986
  0
LWPOLYLINE
  5
44
330
17
100
AcDbEntity
  8
0
100
AcDbPolyline
 90
101
 70
0
 10
0.0
 20
127.21262221711984
 10
3.5
 20
124.15309958544992
 10
7.0
 20
121.15553772012257
 10
10.5
 20
118.2199272966259
 10
14.0
 20
115.34625918316422
 10
17.5
 20
112.5345244406274
 10
21.0
 20
109.78471432255553
 10
24.5
 20
107.0968202751301
 10
28.0
 20
104.47083393712117
 10
31.5
 20
101.90674713988292
 10
35.0
 20
99.40455190731404
 10
38.5
 20
96.96424045584885
 10
42.0
 20
94.58580519441334
 10
45.5
 20
92.26923872441179
 10
49.0
 20
90.01453383971375
 10
52.5
 20
87.82168352661422
 10
56.0
 20
85.69068096382051
 10
59.5
 20
83.62151952242138
 10
63.0
 20
81.61419276589143
 10
66.5
 20
79.66869445003825
 10
70.0
 20
77.78501852301122
 10
73.5
 20
75.96315912526187
 10
77.0
 20
74.2031105895394
 10
80.5
 20
72.50486744085995
 10
84.0
 20
70.86842439651095
 10
87.5
 20
69.2937763660114
 10
91.0
 20
67.78091845110318
 10
94.5
 20
66.32984594574657
 10
98.0
 20
64.94055433609819
 10
101.5
 20
63.61303930048467
 10
105.0
 20
62.34729670941575
 10
108.5
 20
61.14332262554469
 10
112.0
 20
60.00111330367707
 10
115.5
 20
58.920665190744344
 10
119.0
 20
57.90197492579946
 10
122.5
 20
56.94503933999917
 10
126.0
 20
56.04985545661731
 10
129.5
 20
55.21642049100075
 10
133.0
 20
54.44473185058696
 10
136.5
 20
53.7347871348864
 10
140.0
 20
53.08658413547816
 10
143.5
 20
52.50012083599668
 10
147.0
 20
51.97539541213179
 10
150.5
 20
51.51240623162429
 10
154.0
 20
51.111151854252725
 10
157.5
 20
50.77163103183339
 10
161.0
 20
50.49384270822917
 10
164.5
 20
50.277786019314235
 10
168.0
 20
50.12346029300933
 10
171.5
 20
50.03086504925092
 10
175.0
 20
50.0
 10
178.5
 20
50.03086504925092
 10
182.0
 20
50.12346029300933
 10
185.5
 20
50.277786019314235
 10
189.0
 20
50.49384270822917
 10
192.5
 20
50.77163103183339
 10
196.0
 20
51.111151854252725
 10
199.5
 20
51.51240623162429
 10
203.0
 20
51.97539541213179
 10
206.5
 20
52.50012083599668
 10
210.0
 20
53.08658413547816
 10
213.5
 20
53.7347871348864
 10
217.0
 20
54.44473185058696
 10
220.5
 20
55.21642049100075
 10
224.0
 20
56.04985545661731
 10
227.5
 20
56.94503933999917
 10
231.0
 20
57.90197492579946
 10
234.5
 20
58.920665190744344
 10
238.0
 20
60.00111330367707
 10
241.5
 20
61.14332262554469
 10
245.0
 20
62.34729670941575
 10
248.5
 20
63.61303930048467
 10
252.0
 20
64.94055433609819
 10
255.5
 20
66.32984594574657
 10
259.0
 20
67.78091845110318
 10
262.5
 20
69.2937763660114
 10
266.0
 20
70.86842439651095
 10
269.5
 20
72.50486744085995
 10
273.0
 20
74.2031105895394
 10
276.5
 20
75.96315912526187
 10
280.0
 20
77.78501852301122
 10
283.5
 20
79.66869445003825
 10
287.0
 20
81.61419276589143
 10
290.5
 20
83.62151952242138
 10
294.0
 20
85.69068096382051
 10
297.5
 20
87.82168352661422
 10
301.0
 20
90.01453383971375
 10
304.5
 20
92.26923872441179
 10
308.0
 20
94.58580519441334
 10
311.5
 20
96.96424045584885
 10
315.0
 20
99.40455190731404
 10
318.5
 20
101.90674713988292
 10
322.0
 20
104.47083393712117
 10
325.5
 20
107.0968202751301
 10
329.0
 20
109.78471432255553
 10
332.5
 20
112.5345244406274
 10
336.0
 20
115.34625918316422
 10
339.5
 20
118.2199272966259
 10
343.0
 20
121.15553772012257
 10
346.5
 20
124.15309958544992
 10
350.0
 20
127.21262221711984
  0
LWPOLYLINE
  5
45
330
17
100
AcDbEntity
  8
0
100
AcDbPolyline
 90
101
 70
0
 10
0.0
 20
177.21262221711984
 10
3.5
 20
174.15309958544992
 10
7.0
 20
171.15553772012254
 10
10.5
 20
168.21992729662588
 10
14.0
 20
165.34625918316422
 10
17.5
 20
162.53452444062737
 10
21.0
 20
159.78471432255554
 10
24.5
 20
157.09682027513009
 10
28.0
 20
154.47083393712117
 10
31.5
 20
151.90674713988292
 10
35.0
 20
149.40455190731404
 10
38.5
 20
146.96424045584885
 10
42.0
 20
144.58580519441335
 10
45.5
 20
142.2692387244118
 10
49.0
 20
140.01453383971375
 10
52.5
 20
137.8216835266142
 10
56.0
 20
135.6906809638205
 10
59.5
 20
133.62151952242138
 10
63.0
 20
131.61419276589143
 10
66.5
 20
129.66869445003826
 10
70.0
 20
127.78501852301122
 10
73.5
 20
125.96315912526187
 10
77.0
 20
124.2031105895394
 10
80.5
 20
122.50486744085997
 10
84.0
 20
120.86842439651095
 10
87.5
 20
119.2937763660114
 10
91.0
 20
117.78091845110318
 10
94.5
 20
116.32984594574657
 10
98.0
 20
114.94055433609819
 10
101.5
 20
113.61303930048467
 10
105.0
 20
112.34729670941576
 10
108.5
 20
111.1433226255447
 10
112.0
 20
110.00111330367707
 10
115.5
 20
108.92066519074434
 10
119.0
 20
107.90197492579946
 10
122.5
 20
106.94503933999917
 10
126.0
 20
106.04985545661732
 10
129.5
 20
105.21642049100075
 10
133.0
 20
104.44473185058696
 10
136.5
 20
103.7347871348864
 10
140.0
 20
103.08658413547816
 10
143.5
 20
102.50012083599668
 10
147.0
 20
101.97539541213177
 10
150.5
 20
101.51240623162428
 10
154.0
 20
101.11115185425271
 10
157.5
 20
100.7716310318334
 10
161.0
 20
100.49384270822918
 10
164.5
 20
100.27778601931423
 10
168.0
 20
100.12346029300932
 10
171.5
 20
100.03086504925092
 10
175.0
 20
100.0
 10
178.5
 20
100.03086504925092
 10
182.0
 20
100.12346029300932
 10
185.5
 20
100.27778601931423
 10
189.0
 20
100.49384270822918
 10
192.5
 20
100.7716310318334
 10
196.0
 20
101.11115185425271
 10
199.5
 20
101.51240623162428
 10
203.0
 20
101.97539541213177
 10
206.5
 20
102.50012083599668
 10
210.0
 20
103.08658413547816
 10
213.5
 20
103.7347871348864
 10
217.0
 20
104.44473185058696
 10
220.5
 20
105.21642049100075
 10
224.0
 20
106.04985545661732
 10
227.5
 20
106.94503933999917
 10
231.0
 20
107.90197492579946
 10
234.5
 20
108.92066519074434
 10
238.0
 20
110.00111330367707
 10
241.5
 20
111.1433226255447
 10
245.0
 20
112.34729670941576
 10
248.5
 20
113.61303930048467
 10
252.0
 20
114.94055433609819
 10
255.5
 20
116.32984594574657
 10
259.0
 20
117.78091845110318
 10
262.5
 20
119.2937763660114
 10
266.0
 20
120.86842439651095
 10
269.5
 20
122.50486744085997
 10
273.0
 20
124.2031105895394
 10
276.5
 20
125.96315912526187
 10
280.0
 20
127.78501852301122
 10
283.5
 20
129.66869445003826
 10
287.0
 20
131.61419276589143
 10
290.5
 20
133.62151952242138
 10
294.0
 20
135.6906809638205
 10
297.5
 20
137.8216835266142
 10
301.0
 20
140.01453383971375
 10
304.5
 20
142.2692387244118
 10
308.0
 20
144.58580519441335
 10
311.5
 20
146.96424045584885
 10
315.0
 20
149.40455190731404
 10
318.5
 20
151.90674713988292
 10
322.0
 20
154.47083393712117
 10
325.5
 20
157.09682027513009
 10
329.0
 20
159.78471432255554
 10
332.5
 20
162.53452444062737
 10
336.0
 20
165.34625918316422
 10
339.5
 20
168.21992729662588
 10
343.0
 20
171.15553772012254
 10
346.5
 20
174.15309958544992
 10
350.0
 20
177.21262221711984
  0
LWPOLYLINE
  5
46
330
17
100
AcDbEntity
  8
0
100
AcDbPolyline
 90
101
 70
0
 10
0.0
 20
177.21262221711984
 10
3.5
 20
174.15309958544992
 10
7.0
 20
171.15553772012254
 10
10.5
 20
168.21992729662588
 10
14.0
 20
165.34625918316422
 10
17.5
 20
162.53452444062737
 10
21.0
 20
159.78471432255554
 10
24.5
 20
157.09682027513009
 10
28.0
 20
154.47083393712117
 10
31.5
 20
151.90674713988292
 10
35.0
 20
149.40455190731404
 10
38.5
 20
146.96424045584885
 10
42.0
 20
144.58580519441335
 10
45.5
 20
142.2692387244118
 10
49.0
 20
140.01453383971375
 10
52.5
 20
137.8216835266142
 10
56.0
 20
135.6906809638205
 10
59.5
 20
133.62151952242138
 10
63.0
 20
131.61419276589143
 10
66.5
 20
129.66869445003826
 10
70.0
 20
127.78501852301122
 10
73.5
 20
125.96315912526187
 10
77.0
 20
124.2031105895394
 10
80.5
 20
122.50486744085997
 10
84.0
 20
120.86842439651095
 10
87.5
 20
119.2937763660114
 10
91.0
 20
117.78091845110318
 10
94.5
 20
116.32984594574657
 10
98.0
 20
114.94055433609819
 10
101.5
 20
113.61303930048467
 10
105.0
 20
112.34729670941576
 10
108.5
 20
111.1433226255447
 10
112.0
 20
110.00111330367707
 10
115.5
 20
108.92066519074434
 10
119.0
 20
107.90197492579946
 10
122.5
 20
106.94503933999917
 10
126.0
 20
106.04985545661732
 10
129.5
 20
105.21642049100075
 10
133.0
 20
104.44473185058696
 10
136.5
 20
103.7347871348864
 10
140.0
 20
103.08658413547816
 10
143.5
 20
102.50012083599668
 10
147.0
 20
101.97539541213177
 10
150.5
 20
101.51240623162428
 10
154.0
 20
101.11115185425271
 10
157.5
 20
100.7716310318334
 10
161.0
 20
100.49384270822918
 10
164.5
 20
100.27778601931423
 10
168.0
 20
100.12346029300932
 10
171.5
 20
100.03086504925092
 10
175.0
 20
100.0
 10
178.5
 20
100.03086504925092
 10
182.0
 20
100.12346029300932
 10
185.5
 20
100.27778601931423
 10
189.0
 20
100.49384270822918
 10
192.5
 20
100.7716310318334
 10
196.0
 20
101.11115185425271
 10
199.5
 20
101.51240623162428
 10
203.0
 20
101.97539541213177
 10
206.5
 20
102.50012083599668
 10
210.0
 20
103.08658413547816
 10
213.5
 20
103.7347871348864
 10
217.0
 20
104.44473185058696
 10
220.5
 20
105.21642049100075
 10
224.0
 20
106.04985545661732
 10
227.5
 20
106.94503933999917
 10
231.0
 20
107.90197492579946
 10
234.5
 20
108.92066519074434
 10
238.0
 20
110.00111330367707
 10
241.5
 20
111.1433226255447
 10
245.0
 20
112.34729670941576
 10
248.5
 20
113.61303930048467
 10
252.0
 20
114.94055433609819
 10
255.5
 20
116.32984594574657
 10
259.0
 20
117.78091845110318
 10
262.5
 20
119.2937763660114
 10
266.0
 20
120.86842439651095
 10
269.5
 20
122.50486744085997
 10
273.0
 20
124.2031105895394
 10
276.5
 20
125.96315912526187
 10
280.0
 20
127.78501852301122
 10
283.5
 20
129.66869445003826
 10
287.0
 20
131.61419276589143
 10
290.5
 20
133.62151952242138
 10
294.0
 20
135.6906809638205
 10
297.5
 20
137.8216835266142
 10
301.0
 20
140.01453383971375
 10
304.5
 20
142.2692387244118
 10
308.0
 20
144.58580519441335
 10
311.5
 20
146.96424045584885
 10
315.0
 20
149.40455190731404
 10
318.5
 20
151.90674713988292
 10
322.0
 20
154.47083393712117
 10
325.5
 20
157.09682027513009
 10
329.0
 20
159.78471432255554
 10
332.5
 20
162.53452444062737
 10
336.0
 20
165.34625918316422
 10
339.5
 20
168.21992729662588
 10
343.0
 20
171.15553772012254
 10
346.5
 20
174.15309958544992
 10
350.0
 20
177.21262221711984
  0
LWPOLYLINE
  5
47
330
17
100
AcDbEntity
  8
0
100
AcDbPolyline
 90
101
 70
0
 10
0.0
 20
177.21262221711984
 10
3.5
 20
174.15309958544992
 10
7.0
 20
171.15553772012254
 10
10.5
 20
168.21992729662588
 10
14.0
 20
165.34625918316422
 10
17.5
 20
162.53452444062737
 10
21.0
 20
159.78471432255554
 10
24.5
 20
157.09682027513009
 10
28.0
 20
154.47083393712117
 10
31.5
 20
151.90674713988292
 10
35.0
 20
149.40455190731404
 10
38.5
 20
146.96424045584885
 10
42.0
 20
144.58580519441335
 10
45.5
 20
142.2692387244118
 10
49.0
 20
140.01453383971375
 10
52.5
 20
137.8216835266142
 10
56.0
 20
135.6906809638205
 10
59.5
 20
133.62151952242138
 10
63.0
 20
131.61419276589143
 10
66.5
 20
129.66869445003826
 10
70.0
 20
127.78501852301122
 10
73.5
 20
125.96315912526187
 10
77.0
 20
124.2031105895394
 10
80.5
 20
122.50486744085997
 10
84.0
 20
120.86842439651095
 10
87.5
 20
119.2937763660114
 10
91.0
 20
117.78091845110318
 10
94.5
 20
116.32984594574657
 10
98.0
 20
114.94055433609819
 10
101.5
 20
113.61303930048467
 10
105.0
 20
112.34729670941576
 10
108.5
 20
111.1433226255447
 10
112.0
 20
110.00111330367707
 10
115.5
 20
108.92066519074434
 10
119.0
 20
107.90197492579946
 10
122.5
 20
106.94503933999917
 10
126.0
 20
106.04985545661732
 10
129.5
 20
105.21642049100075
 10
133.0
 20
104.44473185058696
 10
136.5
 20
103.7347871348864
 10
140.0
 20
103.08658413547816
 10
143.5
 20
102.50012083599668
 10
147.0
 20
101.97539541213177
 10
150.5
 20
101.51240623162428
 10
154.0
 20
101.11115185425271
 10
157.5
 20
100.7716310318334
 10
161.0
 20
100.49384270822918
 10
164.5
 20
100.27778601931423
 10
168.0
 20
100.12346029300932
 10
171.5
 20
100.03086504925092
 10
175.0
 20
100.0
 10
178.5
 20
100.03086504925092
 10
182.0
 20
100.12346029300932
 10
185.5
 20
100.27778601931423
 10
189.0
 20
100.49384270822918
 10
192.5
 20
100.7716310318334
 10
196.0
 20
101.11115185425271
 10
199.5
 20
101.51240623162428
 10
203.0
 20
101.97539541213177
 10
206.5
 20
102.50012083599668
 10
210.0
 20
103.08658413547816
 10
213.5
 20
103.7347871348864
 10
217.0
 20
104.44473185058696
 10
220.5
 20
105.21642049100075
 10
224.0
 20
106.04985545661732
 10
227.5
 20
106.94503933999917
 10
231.0
 20
107.90197492579946
 10
234.5
 20
108.92066519074434
 10
238.0
 20
110.00111330367707
 10
241.5
 20
111.1433226255447
 10
245.0
 20
112.34729670941576
 10
248.5
 20
113.61303930048467
 10
252.0
 20
114.94055433609819
 10
255.5
 20
116.32984594574657
 10
259.0
 20
117.78091845110318
 10
262.5
 20
119.2937763660114
 10
266.0
 20
120.86842439651095
 10
269.5
 20
122.50486744085997
 10
273.0
 20
124.2031105895394
 10
276.5
 20
125.96315912526187
 10
280.0
 20
127.78501852301122
 10
283.5
 20
129.66869445003826
 10
287.0
 20
131.61419276589143
 10
290.5
 20
133.62151952242138
 10
294.0
 20
135.6906809638205
 10
297.5
 20
137.8216835266142
 10
301.0
 20
140.01453383971375
 10
304.5
 20
142.2692387244118
 10
308.0
 20
144.58580519441335
 10
311.5
 20
146.96424045584885
 10
315.0
 20
149.40455190731404
 10
318.5
 20
151.90674713988292
 10
322.0
 20
154.47083393712117
 10
325.5
 20
157.09682027513009
 10
329.0
 20
159.78471432255554
 10
332.5
 20
162.53452444062737
 10
336.0
 20
165.34625918316422
 10
339.5
 20
168.21992729662588
 10
343.0
 20
171.15553772012254
 10
346.5
 20
174.15309958544992
 10
350.0
 20
177.21262221711984
  0
LWPOLYLINE
  5
48
330
17
100
AcDbEntity
  8
0
100
AcDbPolyline
 90
101
 70
0
 10
0.0
 20
177.21262221711984
 10
3.5
 20
174.15309958544992
 10
7.0
 20
171.15553772012254
 10
10.5
 20
168.21992729662588
 10
14.0
 20
165.34625918316422
 10
17.5
 20
162.53452444062737
 10
21.0
 20
159.78471432255554
 10
24.5
 20
157.09682027513009
 10
28.0
 20
154.47083393712117
 10
31.5
 20
151.90674713988292
 10
35.0
 20
149.40455190731404
 10
38.5
 20
146.96424045584885
 10
42.0
 20
144.58580519441335
 10
45.5
 20
142.2692387244118
 10
49.0
 20
140.01453383971375
 10
52.5
 20
137.8216835266142
 10
56.0
 20
135.6906809638205
 10
59.5
 20
133.62151952242138
 10
63.0
 20
131.61419276589143
 10
66.5
 20
129.66869445003826
 10
70.0
 20
127.78501852301122
 10
73.5
 20
125.96315912526187
 10
77.0
 20
124.2031105895394
 10
80.5
 20
122.50486744085997
 10
84.0
 20
120.86842439651095
 10
87.5
 20
119.2937763660114
 10
91.0
 20
117.78091845110318
 10
94.5
 20
116.32984594574657
 10
98.0
 20
114.94055433609819
 10
101.5
 20
113.61303930048467
 10
105.0
 20
112.34729670941576
 10
108.5
 20
111.1433226255447
 10
112.0
 20
110.00111330367707
 10
115.5
 20
108.92066519074434
 10
119.0
 20
107.90197492579946
 10
122.5
 20
106.94503933999917
 10
126.0
 20
106.04985545661732
 10
129.5
 20
105.21642049100075
 10
133.0
 20
104.44473185058696
 10
136.5
 20
103.7347871348864
 10
140.0
 20
103.08658413547816
 10
143.5
 20
102.50012083599668
 10
147.0
 20
101.97539541213177
 10
150.5
 20
101.51240623162428
 10
154.0
 20
101.11115185425271
 10
157.5
 20
100.7716310318334
 10
161.0
 20
100.49384270822918
 10
164.5
 20
100.27778601931423
 10
168.0
 20
100.12346029300932
 10
171.5
 20
100.03086504925092
 10
175.0
 20
100.0
 10
178.5
 20
100.03086504925092
 10
182.0
 20
100.12346029300932
 10
185.5
 20
100.27778601931423
 10
189.0
 20
100.49384270822918
 10
192.5
 20
100.7716310318334
 10
196.0
 20
101.11115185425271
 10
199.5
 20
101.51240623162428
 10
203.0
 20
101.97539541213177
 10
206.5
 20
102.50012083599668
 10
210.0
 20
103.08658413547816
 10
213.5
 20
103.7347871348864
 10
217.0
 20
104.44473185058696
 10
220.5
 20
105.21642049100075
 10
224.0
 20
106.04985545661732
 10
227.5
 20
106.94503933999917
 10
231.0
 20
107.90197492579946
 10
234.5
 20
108.92066519074434
 10
238.0
 20
110.00111330367707
 10
241.5
 20
111.1433226255447
 10
245.0
 20
112.34729670941576
 10
248.5
 20
113.61303930048467
 10
252.0
 20
114.94055433609819
 10
255.5
 20
116.32984594574657
 10
259.0
 20
117.78091845110318
 10
262.5
 20
119.2937763660114
 10
266.0
 20
120.86842439651095
 10
269.5
 20
122.50486744085997
 10
273.0
 20
124.2031105895394
 10
276.5
 20
125.96315912526187
 10
280.0
 20
127.78501852301122
 10
283.5
 20
129.66869445003826
 10
287.0
 20
131.61419276589143
 10
290.5
 20
133.62151952242138
 10
294.0
 20
135.6906809638205
 10
297.5
 20
137.8216835266142
 10
301.0
 20
140.01453383971375
 10
304.5
 20
142.2692387244118
 10
308.0
 20
144.58580519441335
 10
311.5
 20
146.96424045584885
 10
315.0
 20
149.40455190731404
 10
318.5
 20
151.90674713988292
 10
322.0
 20
154.47083393712117
 10
325.5
 20
157.09682027513009
 10
329.0
 20
159.78471432255554
 10
332.5
 20
162.53452444062737
 10
336.0
 20
165.34625918316422
 10
339.5
 20
168.21992729662588
 10
343.0
 20
171.15553772012254
 10
346.5
 20
174.15309958544992
 10
350.0
 20
177.21262221711984
  0
LWPOLYLINE
  5
49
330
17
100
AcDbEntity
  8
0
100
AcDbPolyline
 90
101
 70
0
 10
0.0
 20
197.21262221711984
 10
3.5
 20
194.15309958544992
 10
7.0
 20
191.15553772012254
 10
10.5
 20
188.21992729662588
 10
14.0
 20
185.34625918316422
 10
17.5
 20
182.53452444062737
 10
21.0
 20
179.78471432255554
 10
24.5
 20
177.0968202751301
 10
28.0
 20
174.47083393712117
 10
31.5
 20
171.90674713988295
 10
35.0
 20
169.40455190731404
 10
38.5
 20
166.96424045584882
 10
42.0
 20
164.58580519441335
 10
45.5
 20
162.2692387244118
 10
49.0
 20
160.01453383971375
 10
52.5
 20
157.8216835266142
 10
56.0
 20
155.6906809638205
 10
59.5
 20
153.62151952242138
 10
63.0
 20
151.61419276589143
 10
66.5
 20
149.66869445003826
 10
70.0
 20
147.78501852301122
 10
73.5
 20
145.96315912526188
 10
77.0
 20
144.2031105895394
 10
80.5
 20
142.50486744085998
 10
84.0
 20
140.86842439651096
 10
87.5
 20
139.2937763660114
 10
91.0
 20
137.78091845110316
 10
94.5
 20
136.32984594574657
 10
98.0
 20
134.9405543360982
 10
101.5
 20
133.61303930048467
 10
105.0
 20
132.34729670941576
 10
108.5
 20
131.1433226255447
 10
112.0
 20
130.00111330367707
 10
115.5
 20
128.92066519074436
 10
119.0
 20
127.90197492579946
 10
122.5
 20
126.94503933999917
 10
126.0
 20
126.04985545661732
 10
129.5
 20
125.21642049100075
 10
133.0
 20
124.44473185058696
 10
136.5
 20
123.7347871348864
 10
140.0
 20
123.08658413547816
 10
143.5
 20
122.50012083599668
 10
147.0
 20
121.97539541213177
 10
150.5
 20
121.51240623162428
 10
154.0
 20
121.11115185425271
 10
157.5
 20
120.7716310318334
 10
161.0
 20
120.49384270822918
 10
164.5
 20
120.27778601931423
 10
168.0
 20
120.12346029300932
 10
171.5
 20
120.03086504925092
 10
175.0
 20
120.0
 10
178.5
 20
120.03086504925092
 10
182.0
 20
120.12346029300932
 10
185.5
 20
120.27778601931423
 10
189.0
 20
120.49384270822918
 10
192.5
 20
120.7716310318334
 10
196.0
 20
121.11115185425271
 10
199.5
 20
121.51240623162428
 10
203.0
 20
121.97539541213177
 10
206.5
 20
122.50012083599668
 10
210.0
 20
123.08658413547816
 10
213.5
 20
123.7347871348864
 10
217.0
 20
124.44473185058696
 10
220.5
 20
125.21642049100075
 10
224.0
 20
126.04985545661732
 10
227.5
 20
126.94503933999917
 10
231.0
 20
127.90197492579946
 10
234.5
 20
128.92066519074436
 10
238.0
 20
130.00111330367707
 10
241.5
 20
131.1433226255447
 10
245.0
 20
132.34729670941576
 10
248.5
 20
133.61303930048467
 10
252.0
 20
134.9405543360982
 10
255.5
 20
136.32984594574657
 10
259.0
 20
137.78091845110316
 10
262.5
 20
139.2937763660114
 10
266.0
 20
140.86842439651096
 10
269.5
 20
142.50486744085998
 10
273.0
 20
144.2031105895394
 10
276.5
 20
145.96315912526188
 10
280.0
 20
147.78501852301122
 10
283.5
 20
149.66869445003826
 10
287.0
 20
151.61419276589143
 10
290.5
 20
153.62151952242138
 10
294.0
 20
155.6906809638205
 10
297.5
 20
157.8216835266142
 10
301.0
 20
160.01453383971375
 10
304.5
 20
162.2692387244118
 10
308.0
 20
164.58580519441335
 10
311.5
 20
166.96424045584882
 10
315.0
 20
169.40455190731404
 10
318.5
 20
171.90674713988295
 10
322.0
 20
174.47083393712117
 10
325.5
 20
177.0968202751301
 10
329.0
 20
179.78471432255554
 10
332.5
 20
182.53452444062737
 10
336.0
 20
185.34625918316422
 10
339.5
 20
188.21992729662588
 10
343.0
 20
191.15553772012254
 10
346.5
 20
194.15309958544992
 10
350.0
 20
197.21262221711984
  0
ENDSEC
  0
SECTION
  2
OBJECTS
  0
DICTIONARY
  5
A
330
0
100
AcDbDictionary
280
0
281
1
  3
ACAD_COLOR
350
B
  3
ACAD_GROUP
350
C
  3
ACAD_LAYOUT
350
D
  3
ACAD_MATERIAL
350
E
  3
ACAD_MLEADERSTYLE
350
F
  3
ACAD_MLINESTYLE
350
10
  3
ACAD_PLOTSETTINGS
350
11
  3
ACAD_PLOTSTYLENAME
350
12
  3
ACAD_SCALELIST
350
14
  3
ACAD_TABLESTYLE
350
15
  3
ACAD_VISUALSTYLE
350
16
  3
EZDXF_META
350
2D
  0
DICTIONARY
  5
B
330
A
100
AcDbDictionary
280
0
281
1
  0
DICTIONARY
  5
C
330
A
100
AcDbDictionary
280
0
281
1
  0
DICTIONARY
  5
D
330
A
100
AcDbDictionary
280
0
281
1
  3
Model
350
1A
  3
Layout1
350
1E
  0
DICTIONARY
  5
E
330
A
100
AcDbDictionary
280
0
281
1
  3
ByBlock
350
1F
  3
ByLayer
350
20
  3
Global
350
21
  0
DICTIONARY
  5
F
330
A
100
AcDbDictionary
280
0
281
1
  3
Standard
350
2C
  0
DICTIONARY
  5
10
330
A
100
AcDbDictionary
280
0
281
1
  3
Standard
350
22
  0
DICTIONARY
  5
11
330
A
100
AcDbDictionary
280
0
281
1
  0
ACDBDICTIONARYWDFLT
  5
12
330
A
100
AcDbDictionary
280
0
281
1
  3
Normal
350
13
100
AcDbDictionaryWithDefault
340
13
  0
ACDBPLACEHOLDER
  5
13
330
12
  0
DICTIONARY
  5
14
330
A
100
AcDbDictionary
280
0
281
1
  0
DICTIONARY
  5
15
330
A
100
AcDbDictionary
280
0
281
1
  0
DICTIONARY
  5
16
330
A
100
AcDbDictionary
280
0
281
1
  0
LAYOUT
  5
1A
330
D
100
AcDbPlotSettings
  1

  2
Adobe PDF
  4
A3
  6

 40
7.5
 41
20.0
 42
7.5
 43
20.0
 44
420.0
 45
297.0
 46
0.0
 47
0.0
 48
0.0
 49
0.0
140
0.0
141
0.0
142
1.0
143
1.0
 70
1024
 72
1
 73
0
 74
5
  7

 75
16
 76
0
 77
2
 78
300
147
1.0
148
0.0
149
0.0
100
AcDbLayout
  1
Model
 70
1
 71
0
 10
0.0
 20
0.0
 11
420.0
 21
297.0
 12
0.0
 22
0.0
 32
0.0
 14
1e+20
 24
1e+20
 34
1e+20
 15
-1e+20
 25
-1e+20
 35
-1e+20
146
0.0
 13
0.0
 23
0.0
 33
0.0
 16
1.0
 26
0.0
 36
0.0
 17
0.0
 27
1.0
 37
0.0
 76
1
330
17
  0
LAYOUT
  5
1E
330
D
100
AcDbPlotSettings
  1

  2
Adobe PDF
  4
A3
  6

 40
7.5
 41
20.0
 42
7.5
 43
20.0
 44
420.0
 45
297.0
 46
0.0
 47
0.0
 48
0.0
 49
0.0
140
0.0
141
0.0
142
1.0
143
1.0
 70
0
 72
1
 73
0
 74
5
  7

 75
16
 76
0
 77
2
 78
300
147
1.0
148
0.0
149
0.0
100
AcDbLayout
  1
Layout1
 70
1
 71
1
 10
0.0
 20
0.0
 11
420.0
 21
297.0
 12
0.0
 22
0.0
 32
0.0
 14
1e+20
 24
1e+20
 34
1e+20
 15
-1e+20
 25
-1e+20
 35
-1e+20
146
0.0
 13
0.0
 23
0.0
 33
0.0
 16
1.0
 26
0.0
 36
0.0
 17
0.0
 27
1.0
 37
0.0
 76
1
330
1B
  0
MATERIAL
  5
1F
102
{ACAD_REACTORS
330
E
102
}
330
E
100
AcDbMaterial
  1
ByBlock
  2

 70
0
 40
1.0
 71
1
 41
1.0
 91
-1023410177
 42
1.0
 72
1
  3

 73
1
 74
1
 75
1
 44
0.5
 73
0
 45
1.0
 46
1.0
 77
1
  4

 78
1
 79
1
170
1
 48
1.0
171
1
  6

172
1
173
1
174
1
140
1.0
141
1.0
175
1
  7

176
1
177
1
178
1
143
1.0
179
1
  8

270
1
271
1
272
1
145
1.0
146
1.0
273
1
  9

274
1
275
1
276
1
 42
1.0
 72
1
  3

 73
1
 74
1
 75
1
 94
63
  0
MATERIAL
  5
20
102
{ACAD_REACTORS
330
E
102
}
330
E
100
AcDbMaterial
  1
ByLayer
  2

 70
0
 40
1.0
 71
1
 41
1.0
 91
-1023410177
 42
1.0
 72
1
  3

 73
1
 74
1
 75
1
 44
0.5
 73
0
 45
1.0
 46
1.0
 77
1
  4

 78
1
 79
1
170
1
 48
1.0
171
1
  6

172
1
173
1
174
1
140
1.0
141
1.0
175
1
  7

176
1
177
1
178
1
143
1.0
179
1
  8

270
1
271
1
272
1
145
1.0
146
1.0
273
1
  9

274
1
275
1
276
1
 42
1.0
 72
1
  3

 73
1
 74
1
 75
1
 94
63
  0
MATERIAL
  5
21
102
{ACAD_REACTORS
330
E
102
}
330
E
100
AcDbMaterial
  1
Global
  2

 70
0
 40
1.0
 71
1
 41
1.0
 91
-1023410177
 42
1.0
 72
1
  3

 73
1
 74
1
 75
1
 44
0.5
 73
0
 45
1.0
 46
1.0
 77
1
  4

 78
1
 79
1
170
1
 48
1.0
171
1
  6

172
1
173
1
174
1
140
1.0
141
1.0
175
1
  7

176
1
177
1
178
1
143
1.0
179
1
  8

270
1
271
1
272
1
145
1.0
146
1.0
273
1
  9

274
1
275
1
276
1
 42
1.0
 72
1
  3

 73
1
 74
1
 75
1
 94
63
  0
MLINESTYLE
  5
22
102
{ACAD_REACTORS
330
10
102
}
330
10
100
AcDbMlineStyle
  2
Standard
 70
0
  3

 62
256
 51
90.0
 52
90.0
 71
2
 49
0.5
 62
256
  6
BYLAYER
 49
-0.5
 62
256
  6
BYLAYER
  0
MLEADERSTYLE
  5
2C
102
{ACAD_REACTORS
330
F
102
}
330
F
100
AcDbMLeaderStyle
179
2
170
2
171
1
172
0
 90
2
 40
0.0
 41
0.0
173
1
 91
-1056964608
 92
-2
290
1
 42
2.0
291
1
 43
8.0
  3
Standard
 44
4.0
300

342
29
174
1
175
1
176
0
178
1
 93
-1056964608
 45
4.0
292
0
297
0
 46
4.0
 94
-1056964608
 47
1.0
 49
1.0
140
1.0
294
1
141
0.0
177
0
142
1.0
295
0
296
0
143
3.75
271
0
272
9
273
9
  0
DICTIONARY
  5
2D
330
A
100
AcDbDictionary
281
1
  3
CREATED_BY_EZDXF
350
2E
  3
WRITTEN_BY_EZDXF
350
32
  0
DICTIONARYVAR
  5
2E
330
2D
100
DictionaryVariables
280
0
  1
1.0.3 @ 2023-09-03T03:30:44.010958+00:00
  0
DICTIONARYVAR
  5
32
330
2D
100
DictionaryVariables
280
0
  1
1.0.3 @ 2023-09-03T16:04:35.480018+00:00
  0
ENDSEC
  0
EOF
