  0
SECTION
  2
HEADER
  9
$ACADVER
  1
AC1027
  9
$ACADMAINTVER
 70
105
  9
$DWGCODEPAGE
  3
ANSI_1252
  9
$LASTSAVEDBY
  1
ezdxf
  9
$REQUIREDVERSIONS
160
0
  9
$INSBASE
 10
0.0
 20
0.0
 30
0.0
  9
$EXTMIN
 10
1e+20
 20
1e+20
 30
1e+20
  9
$EXTMAX
 10
-1e+20
 20
-1e+20
 30
-1e+20
  9
$LIMMIN
 10
0.0
 20
0.0
  9
$LIMMAX
 10
420.0
 20
297.0
  9
$ORTHOMODE
 70
0
  9
$REGENMODE
 70
1
  9
$FILLMODE
 70
1
  9
$QTEXTMODE
 70
0
  9
$MIRRTEXT
 70
1
  9
$LTSCALE
 40
1.0
  9
$ATTMODE
 70
1
  9
$TEXTSIZE
 40
2.5
  9
$TRACEWID
 40
1.0
  9
$TEXTSTYLE
  7
Standard
  9
$CLAYER
  8
0
  9
$CELTYPE
  6
ByLayer
  9
$CECOLOR
 62
256
  9
$CELTSCALE
 40
1.0
  9
$DISPSILH
 70
0
  9
$DIMSCALE
 40
1.0
  9
$DIMASZ
 40
2.5
  9
$DIMEXO
 40
0.625
  9
$DIMDLI
 40
3.75
  9
$DIMRND
 40
0.0
  9
$DIMDLE
 40
0.0
  9
$DIMEXE
 40
1.25
  9
$DIMTP
 40
0.0
  9
$DIMTM
 40
0.0
  9
$DIMTXT
 40
2.5
  9
$DIMCEN
 40
2.5
  9
$DIMTSZ
 40
0.0
  9
$DIMTOL
 70
0
  9
$DIMLIM
 70
0
  9
$DIMTIH
 70
0
  9
$DIMTOH
 70
0
  9
$DIMSE1
 70
0
  9
$DIMSE2
 70
0
  9
$DIMTAD
 70
1
  9
$DIMZIN
 70
8
  9
$DIMBLK
  1

  9
$DIMASO
 70
1
  9
$DIMSHO
 70
1
  9
$DIMPOST
  1

  9
$DIMAPOST
  1

  9
$DIMALT
 70
0
  9
$DIMALTD
 70
3
  9
$DIMALTF
 40
0.03937007874
  9
$DIMLFAC
 40
1.0
  9
$DIMTOFL
 70
1
  9
$DIMTVP
 40
0.0
  9
$DIMTIX
 70
0
  9
$DIMSOXD
 70
0
  9
$DIMSAH
 70
0
  9
$DIMBLK1
  1

  9
$DIMBLK2
  1

  9
$DIMSTYLE
  2
ISO-25
  9
$DIMCLRD
 70
0
  9
$DIMCLRE
 70
0
  9
$DIMCLRT
 70
0
  9
$DIMTFAC
 40
1.0
  9
$DIMGAP
 40
0.625
  9
$DIMJUST
 70
0
  9
$DIMSD1
 70
0
  9
$DIMSD2
 70
0
  9
$DIMTOLJ
 70
0
  9
$DIMTZIN
 70
8
  9
$DIMALTZ
 70
0
  9
$DIMALTTZ
 70
0
  9
$DIMUPT
 70
0
  9
$DIMDEC
 70
2
  9
$DIMTDEC
 70
2
  9
$DIMALTU
 70
2
  9
$DIMALTTD
 70
3
  9
$DIMTXSTY
  7
Standard
  9
$DIMAUNIT
 70
0
  9
$DIMADEC
 70
0
  9
$DIMALTRND
 40
0.0
  9
$DIMAZIN
 70
0
  9
$DIMDSEP
 70
44
  9
$DIMATFIT
 70
3
  9
$DIMFRAC
 70
0
  9
$DIMLDRBLK
  1

  9
$DIMLUNIT
 70
2
  9
$DIMLWD
 70
-2
  9
$DIMLWE
 70
-2
  9
$DIMTMOVE
 70
0
  9
$DIMFXL
 40
1.0
  9
$DIMFXLON
 70
0
  9
$DIMJOGANG
 40
0.785398163397
  9
$DIMTFILL
 70
0
  9
$DIMTFILLCLR
 70
0
  9
$DIMARCSYM
 70
0
  9
$DIMLTYPE
  6

  9
$DIMLTEX1
  6

  9
$DIMLTEX2
  6

  9
$DIMTXTDIRECTION
 70
0
  9
$LUNITS
 70
2
  9
$LUPREC
 70
4
  9
$SKETCHINC
 40
1.0
  9
$FILLETRAD
 40
10.0
  9
$AUNITS
 70
0
  9
$AUPREC
 70
2
  9
$MENU
  1
.
  9
$ELEVATION
 40
0.0
  9
$PELEVATION
 40
0.0
  9
$THICKNESS
 40
0.0
  9
$LIMCHECK
 70
0
  9
$CHAMFERA
 40
0.0
  9
$CHAMFERB
 40
0.0
  9
$CHAMFERC
 40
0.0
  9
$CHAMFERD
 40
0.0
  9
$SKPOLY
 70
0
  9
$TDCREATE
 40
2460191.606527778
  9
$TDUCREATE
 40
2458532.153996898
  9
$TDUPDATE
 40
2460191.606527778
  9
$TDUUPDATE
 40
2458532.1544311
  9
$TDINDWG
 40
0.0
  9
$TDUSRTIMER
 40
0.0
  9
$USRTIMER
 70
1
  9
$ANGBASE
 50
0.0
  9
$ANGDIR
 70
0
  9
$PDMODE
 70
0
  9
$PDSIZE
 40
0.0
  9
$PLINEWID
 40
0.0
  9
$SPLFRAME
 70
0
  9
$SPLINETYPE
 70
6
  9
$SPLINESEGS
 70
8
  9
$HANDSEED
  5
57
  9
$SURFTAB1
 70
6
  9
$SURFTAB2
 70
6
  9
$SURFTYPE
 70
6
  9
$SURFU
 70
6
  9
$SURFV
 70
6
  9
$UCSBASE
  2

  9
$UCSNAME
  2

  9
$UCSORG
 10
0.0
 20
0.0
 30
0.0
  9
$UCSXDIR
 10
1.0
 20
0.0
 30
0.0
  9
$UCSYDIR
 10
0.0
 20
1.0
 30
0.0
  9
$UCSORTHOREF
  2

  9
$UCSORTHOVIEW
 70
0
  9
$UCSORGTOP
 10
0.0
 20
0.0
 30
0.0
  9
$UCSORGBOTTOM
 10
0.0
 20
0.0
 30
0.0
  9
$UCSORGLEFT
 10
0.0
 20
0.0
 30
0.0
  9
$UCSORGRIGHT
 10
0.0
 20
0.0
 30
0.0
  9
$UCSORGFRONT
 10
0.0
 20
0.0
 30
0.0
  9
$UCSORGBACK
 10
0.0
 20
0.0
 30
0.0
  9
$PUCSBASE
  2

  9
$PUCSNAME
  2

  9
$PUCSORG
 10
0.0
 20
0.0
 30
0.0
  9
$PUCSXDIR
 10
1.0
 20
0.0
 30
0.0
  9
$PUCSYDIR
 10
0.0
 20
1.0
 30
0.0
  9
$PUCSORTHOREF
  2

  9
$PUCSORTHOVIEW
 70
0
  9
$PUCSORGTOP
 10
0.0
 20
0.0
 30
0.0
  9
$PUCSORGBOTTOM
 10
0.0
 20
0.0
 30
0.0
  9
$PUCSORGLEFT
 10
0.0
 20
0.0
 30
0.0
  9
$PUCSORGRIGHT
 10
0.0
 20
0.0
 30
0.0
  9
$PUCSORGFRONT
 10
0.0
 20
0.0
 30
0.0
  9
$PUCSORGBACK
 10
0.0
 20
0.0
 30
0.0
  9
$USERI1
 70
0
  9
$USERI2
 70
0
  9
$USERI3
 70
0
  9
$USERI4
 70
0
  9
$USERI5
 70
0
  9
$USERR1
 40
0.0
  9
$USERR2
 40
0.0
  9
$USERR3
 40
0.0
  9
$USERR4
 40
0.0
  9
$USERR5
 40
0.0
  9
$WORLDVIEW
 70
1
  9
$SHADEDGE
 70
3
  9
$SHADEDIF
 70
70
  9
$TILEMODE
 70
1
  9
$MAXACTVP
 70
64
  9
$PINSBASE
 10
0.0
 20
0.0
 30
0.0
  9
$PLIMCHECK
 70
0
  9
$PEXTMIN
 10
1e+20
 20
1e+20
 30
1e+20
  9
$PEXTMAX
 10
-1e+20
 20
-1e+20
 30
-1e+20
  9
$PLIMMIN
 10
0.0
 20
0.0
  9
$PLIMMAX
 10
420.0
 20
297.0
  9
$UNITMODE
 70
0
  9
$VISRETAIN
 70
1
  9
$PLINEGEN
 70
0
  9
$PSLTSCALE
 70
1
  9
$TREEDEPTH
 70
3020
  9
$CMLSTYLE
  2
Standard
  9
$CMLJUST
 70
0
  9
$CMLSCALE
 40
20.0
  9
$PROXYGRAPHICS
 70
1
  9
$MEASUREMENT
 70
1
  9
$CELWEIGHT
370
-1
  9
$ENDCAPS
280
0
  9
$JOINSTYLE
280
0
  9
$LWDISPLAY
290
0
  9
$INSUNITS
 70
6
  9
$HYPERLINKBASE
  1

  9
$STYLESHEET
  1

  9
$XEDIT
290
1
  9
$CEPSNTYPE
380
0
  9
$PSTYLEMODE
290
1
  9
$FINGERPRINTGUID
  2
{9E347CD0-7BC7-4DFA-97E5-FC4F336C19A5}
  9
$VERSIONGUID
  2
{9CC10BB9-A727-4BDA-9CE8-358151E072B1}
  9
$EXTNAMES
290
1
  9
$PSVPSCALE
 40
0.0
  9
$OLESTARTUP
290
0
  9
$SORTENTS
280
127
  9
$INDEXCTL
280
0
  9
$HIDETEXT
280
1
  9
$XCLIPFRAME
280
0
  9
$HALOGAP
280
0
  9
$OBSCOLOR
 70
257
  9
$OBSLTYPE
280
0
  9
$INTERSECTIONDISPLAY
280
0
  9
$INTERSECTIONCOLOR
 70
257
  9
$DIMASSOC
280
2
  9
$PROJECTNAME
  1

  9
$CAMERADISPLAY
290
0
  9
$LENSLENGTH
 40
50.0
  9
$CAMERAHEIGHT
 40
0.0
  9
$STEPSPERSEC
 40
24.0
  9
$STEPSIZE
 40
100.0
  9
$3DDWFPREC
 40
2.0
  9
$PSOLWIDTH
 40
0.005
  9
$PSOLHEIGHT
 40
0.08
  9
$LOFTANG1
 40
1.570796326795
  9
$LOFTANG2
 40
1.570796326795
  9
$LOFTMAG1
 40
0.0
  9
$LOFTMAG2
 40
0.0
  9
$LOFTPARAM
 70
7
  9
$LOFTNORMALS
280
1
  9
$LATITUDE
 40
37.795
  9
$LONGITUDE
 40
-122.394
  9
$NORTHDIRECTION
 40
0.0
  9
$TIMEZONE
 70
-8000
  9
$LIGHTGLYPHDISPLAY
280
1
  9
$TILEMODELIGHTSYNCH
280
1
  9
$CMATERIAL
347
20
  9
$SOLIDHIST
280
0
  9
$SHOWHIST
280
1
  9
$DWFFRAME
280
2
  9
$DGNFRAME
280
2
  9
$REALWORLDSCALE
290
1
  9
$INTERFERECOLOR
 62
256
  9
$CSHADOW
280
0
  9
$SHADOWPLANELOCATION
 40
0.0
  0
ENDSEC
  0
SECTION
  2
CLASSES
  0
CLASS
  1
ACDBDICTIONARYWDFLT
  2
AcDbDictionaryWithDefault
  3
ObjectDBX Classes
 90
0
 91
0
280
0
281
0
  0
CLASS
  1
SUN
  2
AcDbSun
  3
SCENEOE
 90
1153
 91
0
280
0
281
0
  0
CLASS
  1
VISUALSTYLE
  2
AcDbVisualStyle
  3
ObjectDBX Classes
 90
4095
 91
0
280
0
281
0
  0
CLASS
  1
MATERIAL
  2
AcDbMaterial
  3
ObjectDBX Classes
 90
1153
 91
0
280
0
281
0
  0
CLASS
  1
SCALE
  2
AcDbScale
  3
ObjectDBX Classes
 90
1153
 91
0
280
0
281
0
  0
CLASS
  1
TABLESTYLE
  2
AcDbTableStyle
  3
ObjectDBX Classes
 90
4095
 91
0
280
0
281
0
  0
CLASS
  1
MLEADERSTYLE
  2
AcDbMLeaderStyle
  3
ACDB_MLEADERSTYLE_CLASS
 90
4095
 91
0
280
0
281
0
  0
CLASS
  1
DICTIONARYVAR
  2
AcDbDictionaryVar
  3
ObjectDBX Classes
 90
0
 91
0
280
0
281
0
  0
CLASS
  1
CELLSTYLEMAP
  2
AcDbCellStyleMap
  3
ObjectDBX Classes
 90
1152
 91
0
280
0
281
0
  0
CLASS
  1
MENTALRAYRENDERSETTINGS
  2
AcDbMentalRayRenderSettings
  3
SCENEOE
 90
1024
 91
0
280
0
281
0
  0
CLASS
  1
ACDBDETAILVIEWSTYLE
  2
AcDbDetailViewStyle
  3
ObjectDBX Classes
 90
1025
 91
0
280
0
281
0
  0
CLASS
  1
ACDBSECTIONVIEWSTYLE
  2
AcDbSectionViewStyle
  3
ObjectDBX Classes
 90
1025
 91
0
280
0
281
0
  0
CLASS
  1
RASTERVARIABLES
  2
AcDbRasterVariables
  3
ISM
 90
0
 91
0
280
0
281
0
  0
CLASS
  1
ACDBPLACEHOLDER
  2
AcDbPlaceHolder
  3
ObjectDBX Classes
 90
0
 91
0
280
0
281
0
  0
CLASS
  1
LAYOUT
  2
AcDbLayout
  3
ObjectDBX Classes
 90
0
 91
0
280
0
281
0
  0
ENDSEC
  0
SECTION
  2
TABLES
  0
TABLE
  2
VPORT
  5
8
330
0
100
AcDbSymbolTable
 70
1
  0
VPORT
  5
23
330
8
100
AcDbSymbolTableRecord
100
AcDbViewportTableRecord
  2
*Active
 70
0
 10
0.0
 20
0.0
 11
1.0
 21
1.0
 12
0.0
 22
0.0
 13
0.0
 23
0.0
 14
0.5
 24
0.5
 15
0.5
 25
0.5
 16
0.0
 26
0.0
 36
1.0
 17
0.0
 27
0.0
 37
0.0
 40
1000.0
 41
1.34
 42
50.0
 43
0.0
 44
0.0
 50
0.0
 51
0.0
 71
0
 72
1000
 73
1
 74
3
 75
0
 76
0
 77
0
 78
0
281
0
 65
0
146
0.0
  0
ENDTAB
  0
TABLE
  2
LTYPE
  5
2
330
0
100
AcDbSymbolTable
 70
3
  0
LTYPE
  5
24
330
2
100
AcDbSymbolTableRecord
100
AcDbLinetypeTableRecord
  2
ByBlock
 70
0
  3

 72
65
 73
0
 40
0.0
  0
LTYPE
  5
25
330
2
100
AcDbSymbolTableRecord
100
AcDbLinetypeTableRecord
  2
ByLayer
 70
0
  3

 72
65
 73
0
 40
0.0
  0
LTYPE
  5
26
330
2
100
AcDbSymbolTableRecord
100
AcDbLinetypeTableRecord
  2
Continuous
 70
0
  3

 72
65
 73
0
 40
0.0
  0
ENDTAB
  0
TABLE
  2
LAYER
  5
1
330
0
100
AcDbSymbolTable
 70
2
  0
LAYER
  5
27
330
1
100
AcDbSymbolTableRecord
100
AcDbLayerTableRecord
  2
0
 70
0
 62
7
  6
Continuous
370
-3
390
13
347
21
  0
LAYER
  5
28
330
1
100
AcDbSymbolTableRecord
100
AcDbLayerTableRecord
  2
Defpoints
 70
0
 62
7
  6
Continuous
290
0
370
-3
390
13
347
21
  0
ENDTAB
  0
TABLE
  2
STYLE
  5
5
330
0
100
AcDbSymbolTable
 70
1
  0
STYLE
  5
29
330
5
100
AcDbSymbolTableRecord
100
AcDbTextStyleTableRecord
  2
Standard
 70
0
 40
0.0
 41
1.0
 50
0.0
 71
0
 42
2.5
  3
txt
  4

  0
ENDTAB
  0
TABLE
  2
VIEW
  5
7
330
0
100
AcDbSymbolTable
 70
0
  0
ENDTAB
  0
TABLE
  2
UCS
  5
6
330
0
100
AcDbSymbolTable
 70
0
  0
ENDTAB
  0
TABLE
  2
APPID
  5
3
330
0
100
AcDbSymbolTable
 70
3
  0
APPID
  5
2A
330
3
100
AcDbSymbolTableRecord
100
AcDbRegAppTableRecord
  2
ACAD
 70
0
  0
APPID
  5
34
330
3
100
AcDbSymbolTableRecord
100
AcDbRegAppTableRecord
  2
HATCHBACKGROUNDCOLOR
 70
0
  0
APPID
  5
35
330
3
100
AcDbSymbolTableRecord
100
AcDbRegAppTableRecord
  2
EZDXF
 70
0
  0
ENDTAB
  0
TABLE
  2
DIMSTYLE
  5
4
330
0
100
AcDbSymbolTable
 70
1
100
AcDbDimStyleTable
  0
DIMSTYLE
105
2B
330
4
100
AcDbSymbolTableRecord
100
AcDbDimStyleTableRecord
  2
Standard
 70
0
 40
1.0
 41
2.5
 42
0.625
 43
3.75
 44
1.25
 45
0.0
 46
0.0
 47
0.0
 48
0.0
 49
2.5
140
2.5
141
2.5
142
0.0
143
0.03937007874
144
1.0
145
0.0
146
1.0
147
0.625
148
0.0
 69
0
 70
0
 71
0
 72
0
 73
0
 74
0
 75
0
 76
0
 77
1
 78
8
 79
3
170
0
171
3
172
1
173
0
174
0
175
0
176
0
177
0
178
0
179
2
271
2
272
2
273
2
274
3
275
0
276
0
277
2
278
44
279
0
280
0
281
0
282
0
283
0
284
8
285
0
286
0
288
0
289
3
290
0
371
-2
372
-2
  0
ENDTAB
  0
TABLE
  2
BLOCK_RECORD
  5
9
330
0
100
AcDbSymbolTable
 70
2
  0
BLOCK_RECORD
  5
17
330
9
100
AcDbSymbolTableRecord
100
AcDbBlockTableRecord
  2
*Model_Space
340
1A
 70
0
280
1
281
0
  0
BLOCK_RECORD
  5
1B
330
9
100
AcDbSymbolTableRecord
100
AcDbBlockTableRecord
  2
*Paper_Space
340
1E
 70
0
280
1
281
0
  0
ENDTAB
  0
ENDSEC
  0
SECTION
  2
BLOCKS
  0
BLOCK
  5
18
330
17
100
AcDbEntity
  8
0
100
AcDbBlockBegin
  2
*Model_Space
 70
0
 10
0.0
 20
0.0
 30
0.0
  3
*Model_Space
  1

  0
ENDBLK
  5
19
330
17
100
AcDbEntity
  8
0
100
AcDbBlockEnd
  0
BLOCK
  5
1C
330
1B
100
AcDbEntity
  8
0
100
AcDbBlockBegin
  2
*Paper_Space
 70
0
 10
0.0
 20
0.0
 30
0.0
  3
*Paper_Space
  1

  0
ENDBLK
  5
1D
330
1B
100
AcDbEntity
  8
0
100
AcDbBlockEnd
  0
ENDSEC
  0
SECTION
  2
ENTITIES
  0
LWPOLYLINE
  5
2F
330
17
100
AcDbEntity
  8
0
100
AcDbPolyline
 90
2
 70
0
 10
100.0
 20
1333.6451
 10
100.0
 20
1433.6451
  0
LWPOLYLINE
  5
30
330
17
100
AcDbEntity
  8
0
100
AcDbPolyline
 90
2
 70
0
 10
200.0
 20
1274.5283
 10
200.0
 20
1374.5283
  0
LWPOLYLINE
  5
31
330
17
100
AcDbEntity
  8
0
100
AcDbPolyline
 90
2
 70
0
 10
300.0
 20
1257.5594
 10
300.0
 20
1357.5594
  0
LWPOLYLINE
  5
32
330
17
100
AcDbEntity
  8
0
100
AcDbPolyline
 90
2
 70
0
 10
400.0
 20
1282.2008
 10
400.0
 20
1382.2008
  0
LWPOLYLINE
  5
33
330
17
100
AcDbEntity
  8
0
100
AcDbPolyline
 90
2
 70
0
 10
500.0
 20
1323.8118
 10
500.0
 20
1423.8118
  0
LWPOLYLINE
  5
37
330
17
100
AcDbEntity
  8
0
100
AcDbPolyline
 90
352
 70
0
 10
0.0
 20
1356.4416
 10
8.6489
 20
1357.9059
 10
11.6826
 20
1358.2504
 10
12.8386
 20
1358.3817
 10
16.9872
 20
1358.1077
 10
19.029
 20
1358.0717
 10
28.9321
 20
1357.8971
 10
36.596
 20
1356.425
 10
40.4534
 20
1355.684
 10
63.0346
 20
1350.0
 10
80.0984
 20
1343.3077
 10
87.8075
 20
1340.0
 10
92.9356
 20
1337.5166
 10
100.0
 20
1333.6451
 10
106.651
 20
1330.0
 10
115.5001
 20
1325.9055
 10
118.1865
 20
1324.2557
 10
125.1164
 20
1320.0
 10
127.8314
 20
1318.3646
 10
139.4499
 20
1311.3663
 10
141.7514
 20
1310.0
 10
143.5848
 20
1308.9695
 10
145.7029
 20
1307.6448
 10
157.9269
 20
1300.0
 10
159.7824
 20
1298.7993
 10
165.092
 20
1295.3633
 10
172.8788
 20
1290.0491
 10
172.9507
 20
1290.0
 10
186.7912
 20
1281.7407
 10
186.9397
 20
1281.6521
 10
189.877
 20
1280.0
 10
193.9376
 20
1277.6253
 10
200.0
 20
1274.5283
 10
208.8641
 20
1270.0
 10
222.4238
 20
1264.0481
 10
224.3385
 20
1263.3002
 10
232.787
 20
1260.0
 10
234.9371
 20
1259.6338
 10
235.4819
 20
1259.5409
 10
244.6367
 20
1257.9814
 10
255.5253
 20
1257.116
 10
255.7717
 20
1257.0964
 10
256.6328
 20
1257.028
 10
258.5589
 20
1257.0174
 10
265.2894
 20
1256.9805
 10
286.3766
 20
1256.5681
 10
286.5928
 20
1256.5638
 10
287.0609
 20
1256.5547
 10
293.4226
 20
1256.8267
 10
293.4714
 20
1256.8287
 10
293.6123
 20
1256.8348
 10
300.0
 20
1257.5594
 10
300.7922
 20
1257.6492
 10
321.5161
 20
1260.0
 10
332.9907
 20
1262.0825
 10
338.8601
 20
1263.8783
 10
358.8685
 20
1270.0
 10
365.1178
 20
1272.2646
 10
375.0526
 20
1275.8645
 10
391.7005
 20
1280.0
 10
400.0
 20
1282.2008
 10
404.7704
 20
1283.4658
 10
411.1241
 20
1286.2943
 10
419.4484
 20
1290.0
 10
426.5064
 20
1292.9967
 10
433.3668
 20
1295.9096
 10
436.9768
 20
1297.0738
 10
442.8676
 20
1298.7503
 10
447.2587
 20
1300.0
 10
454.97
 20
1303.2548
 10
467.6161
 20
1308.5925
 10
471.3187
 20
1310.0
 10
476.7924
 20
1312.6461
 10
480.0633
 20
1314.2273
 10
490.9935
 20
1319.5842
 10
491.8419
 20
1320.0
 10
500.0
 20
1323.8118
 10
512.5736
 20
1329.6866
 10
512.7206
 20
1329.7553
 10
513.2594
 20
1330.0
 10
515.2019
 20
1330.9563
 10
532.4944
 20
1340.0
 10
539.9286
 20
1343.6862
 10
542.1653
 20
1344.7864
 10
552.7649
 20
1350.0
 10
561.7795
 20
1353.0794
 10
566.9746
 20
1354.8111
 10
582.5413
 20
1360.0
 10
586.0607
 20
1360.4614
 10
587.2906
 20
1360.5808
 10
623.8143
 20
1364.1266
 10
626.8386
 20
1364.2519
 10
636.8798
 20
1364.6678
 10
661.3075
 20
1365.2145
 10
667.4132
 20
1364.8406
 10
697.4574
 20
1363.0012
 10
712.6543
 20
1362.7046
 10
721.8542
 20
1361.9689
 10
746.4754
 20
1360.0
 10
764.2766
 20
1358.8107
 10
774.7695
 20
1357.6921
 10
813.6202
 20
1357.5929
 10
821.2377
 20
1358.7049
 10
831.8266
 20
1360.0
 10
848.9644
 20
1363.051
 10
856.7029
 20
1363.5734
 10
858.1169
 20
1363.8872
 10
872.1719
 20
1367.0065
 10
872.5197
 20
1367.0837
 10
874.2834
 20
1367.4751
 10
879.351
 20
1367.8911
 10
905.0413
 20
1370.0
 10
937.3403
 20
1373.7741
 10
959.8228
 20
1375.8388
 10
960.1196
 20
1375.835
 10
981.6139
 20
1375.5619
 10
985.8937
 20
1375.6195
 10
1008.3268
 20
1375.9215
 10
1014.9286
 20
1377.1277
 10
1043.729
 20
1379.1757
 10
1049.7631
 20
1380.0
 10
1055.5566
 20
1380.8263
 10
1060.6534
 20
1381.5859
 10
1060.8111
 20
1381.6156
 10
1083.5661
 20
1385.8983
 10
1084.2274
 20
1386.0014
 10
1109.8734
 20
1390.0
 10
1116.9019
 20
1390.7764
 10
1130.0083
 20
1391.1331
 10
1165.05
 20
1392.0869
 10
1175.508
 20
1391.7162
 10
1215.7346
 20
1390.2905
 10
1219.4317
 20
1390.0
 10
1223.4028
 20
1390.0
 10
1224.4695
 20
1390.0
 10
1247.3763
 20
1390.0
 10
1248.3351
 20
1390.0
 10
1252.408
 20
1390.0
 10
1256.8774
 20
1390.0
 10
1274.0317
 20
1390.0
 10
1278.4437
 20
1390.2492
 10
1297.5631
 20
1391.3288
 10
1303.8216
 20
1391.9797
 10
1307.4663
 20
1392.1588
 10
1338.3973
 20
1393.6789
 10
1359.591
 20
1395.1764
 10
1364.2905
 20
1395.4055
 10
1377.7267
 20
1396.0607
 10
1388.2688
 20
1397.2052
 10
1410.352
 20
1399.6027
 10
1413.3637
 20
1400.0
 10
1434.9511
 20
1403.231
 10
1444.0343
 20
1404.74
 10
1475.6982
 20
1410.0
 10
1505.7196
 20
1413.4255
 10
1517.0171
 20
1414.8043
 10
1526.7541
 20
1415.5645
 10
1557.6465
 20
1417.9765
 10
1566.8575
 20
1419.0405
 10
1567.9366
 20
1419.1652
 10
1575.8636
 20
1419.9403
 10
1576.7058
 20
1419.9346
 10
1577.5579
 20
1419.932
 10
1595.4357
 20
1419.7837
 10
1596.3402
 20
1419.7793
 10
1599.7811
 20
1419.7623
 10
1630.2244
 20
1419.5846
 10
1659.6226
 20
1419.7515
 10
1665.0687
 20
1419.7657
 10
1683.6132
 20
1419.8138
 10
1686.961
 20
1419.8216
 10
1698.5256
 20
1419.8485
 10
1699.6204
 20
1419.8518
 10
1703.539
 20
1419.8639
 10
1716.8762
 20
1419.8939
 10
1724.8701
 20
1419.9119
 10
1730.1589
 20
1419.9356
 10
1745.1608
 20
1419.9361
 10
1747.8147
 20
1419.9433
 10
1753.3738
 20
1419.9652
 10
1761.6931
 20
1419.9526
 10
1761.8407
 20
1419.9334
 10
1763.3883
 20
1419.7325
 10
1763.6549
 20
1419.7045
 10
1766.5169
 20
1419.4039
 10
1767.321
 20
1419.3194
 10
1775.4469
 20
1418.4657
 10
1791.7061
 20
1417.4975
 10
1793.9014
 20
1417.3668
 10
1796.6717
 20
1417.2018
 10
1827.6729
 20
1416.8522
 10
1831.9657
 20
1416.8038
 10
1837.2638
 20
1416.744
 10
1867.8618
 20
1417.0375
 10
1872.2033
 20
1417.0792
 10
1877.4483
 20
1417.1295
 10
1882.4149
 20
1417.1483
 10
1888.4151
 20
1417.171
 10
1901.4633
 20
1417.2832
 10
1903.1721
 20
1417.2979
 10
1905.4347
 20
1417.3174
 10
1908.0967
 20
1417.4087
 10
1911.6213
 20
1417.5297
 10
1919.2948
 20
1417.1422
 10
1929.4549
 20
1416.6291
 10
1952.8387
 20
1414.8403
 10
1983.8006
 20
1412.4719
 10
1988.8475
 20
1411.7761
 10
2001.7292
 20
1410.0
 10
2002.079
 20
1410.0
 10
2046.0676
 20
1410.0
 10
2063.3708
 20
1410.0
 10
2093.6824
 20
1414.8818
 10
2097.8708
 20
1415.1621
 10
2115.1002
 20
1416.3152
 10
2118.3995
 20
1416.3575
 10
2129.7355
 20
1416.5026
 10
2138.0306
 20
1417.3581
 10
2143.2088
 20
1417.8921
 10
2158.5925
 20
1417.1771
 10
2190.4276
 20
1419.2138
 10
2236.7064
 20
1417.6849
 10
2253.2383
 20
1417.6105
 10
2262.3203
 20
1417.0551
 10
2294.353
 20
1413.196
 10
2309.2329
 20
1411.9797
 10
2333.4524
 20
1410.0
 10
2333.5774
 20
1409.9963
 10
2333.5888
 20
1409.9959
 10
2333.6236
 20
1409.9967
 10
2333.9193
 20
1409.9949
 10
2345.6599
 20
1409.9779
 10
2346.5479
 20
1410.0
 10
2356.8865
 20
1410.723
 10
2364.1114
 20
1412.3299
 10
2398.5991
 20
1420.0
 10
2406.2858
 20
1422.4557
 10
2414.7846
 20
1425.1024
 10
2430.5111
 20
1430.0
 10
2452.1785
 20
1435.8472
 10
2453.7312
 20
1436.1232
 10
2470.5229
 20
1439.1073
 10
2477.02
 20
1440.0
 10
2493.791
 20
1440.0
 10
2514.5212
 20
1440.0
 10
2519.4576
 20
1440.0
 10
2521.1304
 20
1440.0
 10
2526.0332
 20
1440.0
 10
2527.8177
 20
1440.0
 10
2528.2958
 20
1440.0
 10
2529.6757
 20
1440.0
 10
2554.949
 20
1434.4089
 10
2561.4427
 20
1432.3556
 10
2568.4316
 20
1430.0
 10
2570.857
 20
1428.9913
 10
2590.5788
 20
1420.7886
 10
2591.8363
 20
1420.0
 10
2593.9203
 20
1419.0404
 10
2594.3372
 20
1418.7957
 10
2609.3236
 20
1410.0
 10
2610.2784
 20
1409.4617
 10
2615.0539
 20
1406.7688
 10
2624.5659
 20
1401.2427
 10
2626.7049
 20
1400.0
 10
2630.9626
 20
1397.1624
 10
2642.46
 20
1390.0
 10
2646.1095
 20
1387.6464
 10
2656.6661
 20
1380.8383
 10
2657.5701
 20
1380.2343
 10
2657.9208
 20
1380.0
 10
2658.9217
 20
1379.2249
 10
2670.7942
 20
1370.0
 10
2673.9251
 20
1367.7412
 10
2678.3093
 20
1364.5781
 10
2685.2766
 20
1360.0
 10
2691.7721
 20
1356.3185
 10
2698.779
 20
1352.3472
 10
2704.1485
 20
1350.0
 10
2717.2268
 20
1344.7851
 10
2717.2852
 20
1344.7579
 10
2727.4878
 20
1340.0
 10
2727.5022
 20
1339.9964
 10
2729.2896
 20
1339.5513
 10
2729.345
 20
1339.5375
 10
2736.1004
 20
1337.855
 10
2736.1265
 20
1337.8547
 10
2739.2962
 20
1337.8187
 10
2739.569
 20
1337.8264
 10
2760.7226
 20
1338.4203
 10
2761.0648
 20
1338.4299
 10
2772.798
 20
1339.495
 10
2785.3194
 20
1340.0
 10
2788.7496
 20
1341.3237
 10
2797.0564
 20
1344.5293
 10
2808.1058
 20
1349.9857
 10
2808.1349
 20
1350.0
 10
2813.0789
 20
1352.3453
 10
2827.3383
 20
1360.0
 10
2833.8626
 20
1363.0782
 10
2844.8821
 20
1368.2771
 10
2846.9281
 20
1369.5118
 10
2847.7371
 20
1370.0
 10
2859.416
 20
1375.0533
 10
2869.5188
 20
1380.0
 10
2876.4279
 20
1381.6053
 10
2912.3826
 20
1389.9589
 10
2912.5208
 20
1390.0
 10
2912.6966
 20
1390.0228
 10
2912.8056
 20
1390.0354
 10
2913.0907
 20
1390.0813
 10
2913.2857
 20
1390.1163
 10
2968.3703
 20
1400.0
 10
2975.1452
 20
1401.3758
 10
3010.1597
 20
1408.4861
 10
3016.2391
 20
1409.8633
 10
3016.8428
 20
1410.0
 10
3018.1404
 20
1410.3223
 10
3020.5514
 20
1410.7795
 10
3045.7923
 20
1415.1338
 10
3050.8049
 20
1415.6427
 10
3068.8673
 20
1417.4765
 10
3076.0692
 20
1417.9413
 10
3092.3654
 20
1417.4809
 10
3099.6878
 20
1417.3022
 10
3150.3373
 20
1416.0668
 10
3157.2067
 20
1416.2778
 10
3163.1373
 20
1416.7845
 10
3185.2369
 20
1418.6724
 10
3191.4358
 20
1419.6553
 10
3193.6103
 20
1420.0
 10
3219.2271
 20
1423.1179
 10
3253.8319
 20
1430.0
 10
3275.8463
 20
1430.6501
 10
3282.6886
 20
1430.7283
 10
3297.94
 20
1430.9028
 10
3303.1019
 20
1430.7603
 10
3304.1307
 20
1430.7213
 10
3321.8674
 20
1430.0501
 10
3322.1962
 20
1430.0377
 10
3323.1907
 20
1430.0
 10
3327.881
 20
1429.3735
 10
3342.0685
 20
1427.4783
 10
3346.1787
 20
1426.5565
 10
3358.6112
 20
1423.7684
 10
3381.9429
 20
1420.0
 10
3382.828
 20
1419.8559
 10
3403.194
 20
1416.5387
 10
3403.8986
 20
1416.4517
 10
3415.1066
 20
1415.0674
 10
3415.2813
 20
1415.0458
 10
3418.8668
 20
1414.603
 10
3426.4334
 20
1413.8942
  0
LWPOLYLINE
  5
38
330
17
100
AcDbEntity
  8
0
100
AcDbPolyline
 90
353
 70
0
 10
0.0
 20
1356.4416
 10
0.0
 20
1356.4416
 10
8.6489
 20
1357.9059
 10
11.6826
 20
1358.2504
 10
12.8386
 20
1358.3817
 10
16.9872
 20
1358.1077
 10
19.029
 20
1358.0717
 10
28.9321
 20
1357.8971
 10
36.596
 20
1356.425
 10
40.4534
 20
1355.684
 10
63.0346
 20
1350.0
 10
80.0984
 20
1343.3077
 10
87.8075
 20
1340.0
 10
92.9356
 20
1337.5166
 10
100.0
 20
1333.6451
 10
106.651
 20
1330.0
 10
115.5001
 20
1325.9055
 10
118.1865
 20
1324.2557
 10
125.1164
 20
1320.0
 10
127.8314
 20
1318.3646
 10
139.4499
 20
1311.3663
 10
141.7514
 20
1310.0
 10
143.5848
 20
1308.9695
 10
145.7029
 20
1307.6448
 10
157.9269
 20
1300.0
 10
159.7824
 20
1298.7993
 10
165.092
 20
1295.3633
 10
172.8788
 20
1290.0491
 10
172.9507
 20
1290.0
 10
186.7912
 20
1281.7407
 10
186.9397
 20
1281.6521
 10
189.877
 20
1280.0
 10
193.9376
 20
1277.6253
 10
200.0
 20
1274.5283
 10
208.8641
 20
1270.0
 10
222.4238
 20
1264.0481
 10
224.3385
 20
1263.3002
 10
232.787
 20
1260.0
 10
234.9371
 20
1259.6338
 10
235.4819
 20
1259.5409
 10
244.6367
 20
1257.9814
 10
255.5253
 20
1257.116
 10
255.7717
 20
1257.0964
 10
256.6328
 20
1257.028
 10
258.5589
 20
1257.0174
 10
265.2894
 20
1256.9805
 10
286.3766
 20
1256.5681
 10
286.5928
 20
1256.5638
 10
287.0609
 20
1256.5547
 10
293.4226
 20
1256.8267
 10
293.4714
 20
1256.8287
 10
293.6123
 20
1256.8348
 10
300.0
 20
1257.5594
 10
300.7922
 20
1257.6492
 10
321.5161
 20
1260.0
 10
332.9907
 20
1262.0825
 10
338.8601
 20
1263.8783
 10
358.8685
 20
1270.0
 10
365.1178
 20
1272.2646
 10
375.0526
 20
1275.8645
 10
391.7005
 20
1280.0
 10
400.0
 20
1282.2008
 10
404.7704
 20
1283.4658
 10
411.1241
 20
1286.2943
 10
419.4484
 20
1290.0
 10
426.5064
 20
1292.9967
 10
433.3668
 20
1295.9096
 10
436.9768
 20
1297.0738
 10
442.8676
 20
1298.7503
 10
447.2587
 20
1300.0
 10
454.97
 20
1303.2548
 10
467.6161
 20
1308.5925
 10
471.3187
 20
1310.0
 10
476.7924
 20
1312.6461
 10
480.0633
 20
1314.2273
 10
490.9935
 20
1319.5842
 10
491.8419
 20
1320.0
 10
500.0
 20
1323.8118
 10
512.5736
 20
1329.6866
 10
512.7206
 20
1329.7553
 10
513.2594
 20
1330.0
 10
515.2019
 20
1330.9563
 10
532.4944
 20
1340.0
 10
539.9286
 20
1343.6862
 10
542.1653
 20
1344.7864
 10
552.7649
 20
1350.0
 10
561.7795
 20
1353.0794
 10
566.9746
 20
1354.8111
 10
582.5413
 20
1360.0
 10
586.0607
 20
1360.4614
 10
587.2906
 20
1360.5808
 10
623.8143
 20
1364.1266
 10
626.8386
 20
1364.2519
 10
636.8798
 20
1364.6678
 10
661.3075
 20
1365.2145
 10
667.4132
 20
1364.8406
 10
697.4574
 20
1363.0012
 10
712.6543
 20
1362.7046
 10
721.8542
 20
1361.9689
 10
746.4754
 20
1360.0
 10
764.2766
 20
1358.8107
 10
774.7695
 20
1357.6921
 10
813.6202
 20
1357.5929
 10
821.2377
 20
1358.7049
 10
831.8266
 20
1360.0
 10
848.9644
 20
1363.051
 10
856.7029
 20
1363.5734
 10
858.1169
 20
1363.8872
 10
872.1719
 20
1367.0065
 10
872.5197
 20
1367.0837
 10
874.2834
 20
1367.4751
 10
879.351
 20
1367.8911
 10
905.0413
 20
1370.0
 10
937.3403
 20
1373.7741
 10
959.8228
 20
1375.8388
 10
960.1196
 20
1375.835
 10
981.6139
 20
1375.5619
 10
985.8937
 20
1375.6195
 10
1008.3268
 20
1375.9215
 10
1014.9286
 20
1377.1277
 10
1043.729
 20
1379.1757
 10
1049.7631
 20
1380.0
 10
1055.5566
 20
1380.8263
 10
1060.6534
 20
1381.5859
 10
1060.8111
 20
1381.6156
 10
1083.5661
 20
1385.8983
 10
1084.2274
 20
1386.0014
 10
1109.8734
 20
1390.0
 10
1116.9019
 20
1390.7764
 10
1130.0083
 20
1391.1331
 10
1165.05
 20
1392.0869
 10
1175.508
 20
1391.7162
 10
1215.7346
 20
1390.2905
 10
1219.4317
 20
1390.0
 10
1223.4028
 20
1390.0
 10
1224.4695
 20
1390.0
 10
1247.3763
 20
1390.0
 10
1248.3351
 20
1390.0
 10
1252.408
 20
1390.0
 10
1256.8774
 20
1390.0
 10
1274.0317
 20
1390.0
 10
1278.4437
 20
1390.2492
 10
1297.5631
 20
1391.3288
 10
1303.8216
 20
1391.9797
 10
1307.4663
 20
1392.1588
 10
1338.3973
 20
1393.6789
 10
1359.591
 20
1395.1764
 10
1364.2905
 20
1395.4055
 10
1377.7267
 20
1396.0607
 10
1388.2688
 20
1397.2052
 10
1410.352
 20
1399.6027
 10
1413.3637
 20
1400.0
 10
1434.9511
 20
1403.231
 10
1444.0343
 20
1404.74
 10
1475.6982
 20
1410.0
 10
1505.7196
 20
1413.4255
 10
1517.0171
 20
1414.8043
 10
1526.7541
 20
1415.5645
 10
1557.6465
 20
1417.9765
 10
1566.8575
 20
1419.0405
 10
1567.9366
 20
1419.1652
 10
1575.8636
 20
1419.9403
 10
1576.7058
 20
1419.9346
 10
1577.5579
 20
1419.932
 10
1595.4357
 20
1419.7837
 10
1596.3402
 20
1419.7793
 10
1599.7811
 20
1419.7623
 10
1630.2244
 20
1419.5846
 10
1659.6226
 20
1419.7515
 10
1665.0687
 20
1419.7657
 10
1683.6132
 20
1419.8138
 10
1686.961
 20
1419.8216
 10
1698.5256
 20
1419.8485
 10
1699.6204
 20
1419.8518
 10
1703.539
 20
1419.8639
 10
1716.8762
 20
1419.8939
 10
1724.8701
 20
1419.9119
 10
1730.1589
 20
1419.9356
 10
1745.1608
 20
1419.9361
 10
1747.8147
 20
1419.9433
 10
1753.3738
 20
1419.9652
 10
1761.6931
 20
1419.9526
 10
1761.8407
 20
1419.9334
 10
1763.3883
 20
1419.7325
 10
1763.6549
 20
1419.7045
 10
1766.5169
 20
1419.4039
 10
1767.321
 20
1419.3194
 10
1775.4469
 20
1418.4657
 10
1791.7061
 20
1417.4975
 10
1793.9014
 20
1417.3668
 10
1796.6717
 20
1417.2018
 10
1827.6729
 20
1416.8522
 10
1831.9657
 20
1416.8038
 10
1837.2638
 20
1416.744
 10
1867.8618
 20
1417.0375
 10
1872.2033
 20
1417.0792
 10
1877.4483
 20
1417.1295
 10
1882.4149
 20
1417.1483
 10
1888.4151
 20
1417.171
 10
1901.4633
 20
1417.2832
 10
1903.1721
 20
1417.2979
 10
1905.4347
 20
1417.3174
 10
1908.0967
 20
1417.4087
 10
1911.6213
 20
1417.5297
 10
1919.2948
 20
1417.1422
 10
1929.4549
 20
1416.6291
 10
1952.8387
 20
1414.8403
 10
1983.8006
 20
1412.4719
 10
1988.8475
 20
1411.7761
 10
2001.7292
 20
1410.0
 10
2002.079
 20
1410.0
 10
2046.0676
 20
1410.0
 10
2063.3708
 20
1410.0
 10
2093.6824
 20
1414.8818
 10
2097.8708
 20
1415.1621
 10
2115.1002
 20
1416.3152
 10
2118.3995
 20
1416.3575
 10
2129.7355
 20
1416.5026
 10
2138.0306
 20
1417.3581
 10
2143.2088
 20
1417.8921
 10
2158.5925
 20
1417.1771
 10
2190.4276
 20
1419.2138
 10
2236.7064
 20
1417.6849
 10
2253.2383
 20
1417.6105
 10
2262.3203
 20
1417.0551
 10
2294.353
 20
1413.196
 10
2309.2329
 20
1411.9797
 10
2333.4524
 20
1410.0
 10
2333.5774
 20
1409.9963
 10
2333.5888
 20
1409.9959
 10
2333.6236
 20
1409.9967
 10
2333.9193
 20
1409.9949
 10
2345.6599
 20
1409.9779
 10
2346.5479
 20
1410.0
 10
2356.8865
 20
1410.723
 10
2364.1114
 20
1412.3299
 10
2398.5991
 20
1420.0
 10
2406.2858
 20
1422.4557
 10
2414.7846
 20
1425.1024
 10
2430.5111
 20
1430.0
 10
2452.1785
 20
1435.8472
 10
2453.7312
 20
1436.1232
 10
2470.5229
 20
1439.1073
 10
2477.02
 20
1440.0
 10
2493.791
 20
1440.0
 10
2514.5212
 20
1440.0
 10
2519.4576
 20
1440.0
 10
2521.1304
 20
1440.0
 10
2526.0332
 20
1440.0
 10
2527.8177
 20
1440.0
 10
2528.2958
 20
1440.0
 10
2529.6757
 20
1440.0
 10
2554.949
 20
1434.4089
 10
2561.4427
 20
1432.3556
 10
2568.4316
 20
1430.0
 10
2570.857
 20
1428.9913
 10
2590.5788
 20
1420.7886
 10
2591.8363
 20
1420.0
 10
2593.9203
 20
1419.0404
 10
2594.3372
 20
1418.7957
 10
2609.3236
 20
1410.0
 10
2610.2784
 20
1409.4617
 10
2615.0539
 20
1406.7688
 10
2624.5659
 20
1401.2427
 10
2626.7049
 20
1400.0
 10
2630.9626
 20
1397.1624
 10
2642.46
 20
1390.0
 10
2646.1095
 20
1387.6464
 10
2656.6661
 20
1380.8383
 10
2657.5701
 20
1380.2343
 10
2657.9208
 20
1380.0
 10
2658.9217
 20
1379.2249
 10
2670.7942
 20
1370.0
 10
2673.9251
 20
1367.7412
 10
2678.3093
 20
1364.5781
 10
2685.2766
 20
1360.0
 10
2691.7721
 20
1356.3185
 10
2698.779
 20
1352.3472
 10
2704.1485
 20
1350.0
 10
2717.2268
 20
1344.7851
 10
2717.2852
 20
1344.7579
 10
2727.4878
 20
1340.0
 10
2727.5022
 20
1339.9964
 10
2729.2896
 20
1339.5513
 10
2729.345
 20
1339.5375
 10
2736.1004
 20
1337.855
 10
2736.1265
 20
1337.8547
 10
2739.2962
 20
1337.8187
 10
2739.569
 20
1337.8264
 10
2760.7226
 20
1338.4203
 10
2761.0648
 20
1338.4299
 10
2772.798
 20
1339.495
 10
2785.3194
 20
1340.0
 10
2788.7496
 20
1341.3237
 10
2797.0564
 20
1344.5293
 10
2808.1058
 20
1349.9857
 10
2808.1349
 20
1350.0
 10
2813.0789
 20
1352.3453
 10
2827.3383
 20
1360.0
 10
2833.8626
 20
1363.0782
 10
2844.8821
 20
1368.2771
 10
2846.9281
 20
1369.5118
 10
2847.7371
 20
1370.0
 10
2859.416
 20
1375.0533
 10
2869.5188
 20
1380.0
 10
2876.4279
 20
1381.6053
 10
2912.3826
 20
1389.9589
 10
2912.5208
 20
1390.0
 10
2912.6966
 20
1390.0228
 10
2912.8056
 20
1390.0354
 10
2913.0907
 20
1390.0813
 10
2913.2857
 20
1390.1163
 10
2968.3703
 20
1400.0
 10
2975.1452
 20
1401.3758
 10
3010.1597
 20
1408.4861
 10
3016.2391
 20
1409.8633
 10
3016.8428
 20
1410.0
 10
3018.1404
 20
1410.3223
 10
3020.5514
 20
1410.7795
 10
3045.7923
 20
1415.1338
 10
3050.8049
 20
1415.6427
 10
3068.8673
 20
1417.4765
 10
3076.0692
 20
1417.9413
 10
3092.3654
 20
1417.4809
 10
3099.6878
 20
1417.3022
 10
3150.3373
 20
1416.0668
 10
3157.2067
 20
1416.2778
 10
3163.1373
 20
1416.7845
 10
3185.2369
 20
1418.6724
 10
3191.4358
 20
1419.6553
 10
3193.6103
 20
1420.0
 10
3219.2271
 20
1423.1179
 10
3253.8319
 20
1430.0
 10
3275.8463
 20
1430.6501
 10
3282.6886
 20
1430.7283
 10
3297.94
 20
1430.9028
 10
3303.1019
 20
1430.7603
 10
3304.1307
 20
1430.7213
 10
3321.8674
 20
1430.0501
 10
3322.1962
 20
1430.0377
 10
3323.1907
 20
1430.0
 10
3327.881
 20
1429.3735
 10
3342.0685
 20
1427.4783
 10
3346.1787
 20
1426.5565
 10
3358.6112
 20
1423.7684
 10
3381.9429
 20
1420.0
 10
3382.828
 20
1419.8559
 10
3403.194
 20
1416.5387
 10
3403.8986
 20
1416.4517
 10
3415.1066
 20
1415.0674
 10
3415.2813
 20
1415.0458
 10
3418.8668
 20
1414.603
 10
3426.4334
 20
1413.8942
  0
LWPOLYLINE
  5
39
330
17
100
AcDbEntity
  8
0
100
AcDbPolyline
 90
353
 70
0
 10
0.0
 20
1356.4416
 10
0.0
 20
1356.4416
 10
8.6489
 20
1357.9059
 10
11.6826
 20
1358.2504
 10
12.8386
 20
1358.3817
 10
16.9872
 20
1358.1077
 10
19.029
 20
1358.0717
 10
28.9321
 20
1357.8971
 10
36.596
 20
1356.425
 10
40.4534
 20
1355.684
 10
63.0346
 20
1350.0
 10
80.0984
 20
1343.3077
 10
87.8075
 20
1340.0
 10
92.9356
 20
1337.5166
 10
100.0
 20
1333.6451
 10
106.651
 20
1330.0
 10
115.5001
 20
1325.9055
 10
118.1865
 20
1324.2557
 10
125.1164
 20
1320.0
 10
127.8314
 20
1318.3646
 10
139.4499
 20
1311.3663
 10
141.7514
 20
1310.0
 10
143.5848
 20
1308.9695
 10
145.7029
 20
1307.6448
 10
157.9269
 20
1300.0
 10
159.7824
 20
1298.7993
 10
165.092
 20
1295.3633
 10
172.8788
 20
1290.0491
 10
172.9507
 20
1290.0
 10
186.7912
 20
1281.7407
 10
186.9397
 20
1281.6521
 10
189.877
 20
1280.0
 10
193.9376
 20
1277.6253
 10
200.0
 20
1274.5283
 10
208.8641
 20
1270.0
 10
222.4238
 20
1264.0481
 10
224.3385
 20
1263.3002
 10
232.787
 20
1260.0
 10
234.9371
 20
1259.6338
 10
235.4819
 20
1259.5409
 10
244.6367
 20
1257.9814
 10
255.5253
 20
1257.116
 10
255.7717
 20
1257.0964
 10
256.6328
 20
1257.028
 10
258.5589
 20
1257.0174
 10
265.2894
 20
1256.9805
 10
286.3766
 20
1256.5681
 10
286.5928
 20
1256.5638
 10
287.0609
 20
1256.5547
 10
293.4226
 20
1256.8267
 10
293.4714
 20
1256.8287
 10
293.6123
 20
1256.8348
 10
300.0
 20
1257.5594
 10
300.7922
 20
1257.6492
 10
321.5161
 20
1260.0
 10
332.9907
 20
1262.0825
 10
338.8601
 20
1263.8783
 10
358.8685
 20
1270.0
 10
365.1178
 20
1272.2646
 10
375.0526
 20
1275.8645
 10
391.7005
 20
1280.0
 10
400.0
 20
1282.2008
 10
404.7704
 20
1283.4658
 10
411.1241
 20
1286.2943
 10
419.4484
 20
1290.0
 10
426.5064
 20
1292.9967
 10
433.3668
 20
1295.9096
 10
436.9768
 20
1297.0738
 10
442.8676
 20
1298.7503
 10
447.2587
 20
1300.0
 10
454.97
 20
1303.2548
 10
467.6161
 20
1308.5925
 10
471.3187
 20
1310.0
 10
476.7924
 20
1312.6461
 10
480.0633
 20
1314.2273
 10
490.9935
 20
1319.5842
 10
491.8419
 20
1320.0
 10
500.0
 20
1323.8118
 10
512.5736
 20
1329.6866
 10
512.7206
 20
1329.7553
 10
513.2594
 20
1330.0
 10
515.2019
 20
1330.9563
 10
532.4944
 20
1340.0
 10
539.9286
 20
1343.6862
 10
542.1653
 20
1344.7864
 10
552.7649
 20
1350.0
 10
561.7795
 20
1353.0794
 10
566.9746
 20
1354.8111
 10
582.5413
 20
1360.0
 10
586.0607
 20
1360.4614
 10
587.2906
 20
1360.5808
 10
623.8143
 20
1364.1266
 10
626.8386
 20
1364.2519
 10
636.8798
 20
1364.6678
 10
661.3075
 20
1365.2145
 10
667.4132
 20
1364.8406
 10
697.4574
 20
1363.0012
 10
712.6543
 20
1362.7046
 10
721.8542
 20
1361.9689
 10
746.4754
 20
1360.0
 10
764.2766
 20
1358.8107
 10
774.7695
 20
1357.6921
 10
813.6202
 20
1357.5929
 10
821.2377
 20
1358.7049
 10
831.8266
 20
1360.0
 10
848.9644
 20
1363.051
 10
856.7029
 20
1363.5734
 10
858.1169
 20
1363.8872
 10
872.1719
 20
1367.0065
 10
872.5197
 20
1367.0837
 10
874.2834
 20
1367.4751
 10
879.351
 20
1367.8911
 10
905.0413
 20
1370.0
 10
937.3403
 20
1373.7741
 10
959.8228
 20
1375.8388
 10
960.1196
 20
1375.835
 10
981.6139
 20
1375.5619
 10
985.8937
 20
1375.6195
 10
1008.3268
 20
1375.9215
 10
1014.9286
 20
1377.1277
 10
1043.729
 20
1379.1757
 10
1049.7631
 20
1380.0
 10
1055.5566
 20
1380.8263
 10
1060.6534
 20
1381.5859
 10
1060.8111
 20
1381.6156
 10
1083.5661
 20
1385.8983
 10
1084.2274
 20
1386.0014
 10
1109.8734
 20
1390.0
 10
1116.9019
 20
1390.7764
 10
1130.0083
 20
1391.1331
 10
1165.05
 20
1392.0869
 10
1175.508
 20
1391.7162
 10
1215.7346
 20
1390.2905
 10
1219.4317
 20
1390.0
 10
1223.4028
 20
1390.0
 10
1224.4695
 20
1390.0
 10
1247.3763
 20
1390.0
 10
1248.3351
 20
1390.0
 10
1252.408
 20
1390.0
 10
1256.8774
 20
1390.0
 10
1274.0317
 20
1390.0
 10
1278.4437
 20
1390.2492
 10
1297.5631
 20
1391.3288
 10
1303.8216
 20
1391.9797
 10
1307.4663
 20
1392.1588
 10
1338.3973
 20
1393.6789
 10
1359.591
 20
1395.1764
 10
1364.2905
 20
1395.4055
 10
1377.7267
 20
1396.0607
 10
1388.2688
 20
1397.2052
 10
1410.352
 20
1399.6027
 10
1413.3637
 20
1400.0
 10
1434.9511
 20
1403.231
 10
1444.0343
 20
1404.74
 10
1475.6982
 20
1410.0
 10
1505.7196
 20
1413.4255
 10
1517.0171
 20
1414.8043
 10
1526.7541
 20
1415.5645
 10
1557.6465
 20
1417.9765
 10
1566.8575
 20
1419.0405
 10
1567.9366
 20
1419.1652
 10
1575.8636
 20
1419.9403
 10
1576.7058
 20
1419.9346
 10
1577.5579
 20
1419.932
 10
1595.4357
 20
1419.7837
 10
1596.3402
 20
1419.7793
 10
1599.7811
 20
1419.7623
 10
1630.2244
 20
1419.5846
 10
1659.6226
 20
1419.7515
 10
1665.0687
 20
1419.7657
 10
1683.6132
 20
1419.8138
 10
1686.961
 20
1419.8216
 10
1698.5256
 20
1419.8485
 10
1699.6204
 20
1419.8518
 10
1703.539
 20
1419.8639
 10
1716.8762
 20
1419.8939
 10
1724.8701
 20
1419.9119
 10
1730.1589
 20
1419.9356
 10
1745.1608
 20
1419.9361
 10
1747.8147
 20
1419.9433
 10
1753.3738
 20
1419.9652
 10
1761.6931
 20
1419.9526
 10
1761.8407
 20
1419.9334
 10
1763.3883
 20
1419.7325
 10
1763.6549
 20
1419.7045
 10
1766.5169
 20
1419.4039
 10
1767.321
 20
1419.3194
 10
1775.4469
 20
1418.4657
 10
1791.7061
 20
1417.4975
 10
1793.9014
 20
1417.3668
 10
1796.6717
 20
1417.2018
 10
1827.6729
 20
1416.8522
 10
1831.9657
 20
1416.8038
 10
1837.2638
 20
1416.744
 10
1867.8618
 20
1417.0375
 10
1872.2033
 20
1417.0792
 10
1877.4483
 20
1417.1295
 10
1882.4149
 20
1417.1483
 10
1888.4151
 20
1417.171
 10
1901.4633
 20
1417.2832
 10
1903.1721
 20
1417.2979
 10
1905.4347
 20
1417.3174
 10
1908.0967
 20
1417.4087
 10
1911.6213
 20
1417.5297
 10
1919.2948
 20
1417.1422
 10
1929.4549
 20
1416.6291
 10
1952.8387
 20
1414.8403
 10
1983.8006
 20
1412.4719
 10
1988.8475
 20
1411.7761
 10
2001.7292
 20
1410.0
 10
2002.079
 20
1410.0
 10
2046.0676
 20
1410.0
 10
2063.3708
 20
1410.0
 10
2093.6824
 20
1414.8818
 10
2097.8708
 20
1415.1621
 10
2115.1002
 20
1416.3152
 10
2118.3995
 20
1416.3575
 10
2129.7355
 20
1416.5026
 10
2138.0306
 20
1417.3581
 10
2143.2088
 20
1417.8921
 10
2158.5925
 20
1417.1771
 10
2190.4276
 20
1419.2138
 10
2236.7064
 20
1417.6849
 10
2253.2383
 20
1417.6105
 10
2262.3203
 20
1417.0551
 10
2294.353
 20
1413.196
 10
2309.2329
 20
1411.9797
 10
2333.4524
 20
1410.0
 10
2333.5774
 20
1409.9963
 10
2333.5888
 20
1409.9959
 10
2333.6236
 20
1409.9967
 10
2333.9193
 20
1409.9949
 10
2345.6599
 20
1409.9779
 10
2346.5479
 20
1410.0
 10
2356.8865
 20
1410.723
 10
2364.1114
 20
1412.3299
 10
2398.5991
 20
1420.0
 10
2406.2858
 20
1422.4557
 10
2414.7846
 20
1425.1024
 10
2430.5111
 20
1430.0
 10
2452.1785
 20
1435.8472
 10
2453.7312
 20
1436.1232
 10
2470.5229
 20
1439.1073
 10
2477.02
 20
1440.0
 10
2493.791
 20
1440.0
 10
2514.5212
 20
1440.0
 10
2519.4576
 20
1440.0
 10
2521.1304
 20
1440.0
 10
2526.0332
 20
1440.0
 10
2527.8177
 20
1440.0
 10
2528.2958
 20
1440.0
 10
2529.6757
 20
1440.0
 10
2554.949
 20
1434.4089
 10
2561.4427
 20
1432.3556
 10
2568.4316
 20
1430.0
 10
2570.857
 20
1428.9913
 10
2590.5788
 20
1420.7886
 10
2591.8363
 20
1420.0
 10
2593.9203
 20
1419.0404
 10
2594.3372
 20
1418.7957
 10
2609.3236
 20
1410.0
 10
2610.2784
 20
1409.4617
 10
2615.0539
 20
1406.7688
 10
2624.5659
 20
1401.2427
 10
2626.7049
 20
1400.0
 10
2630.9626
 20
1397.1624
 10
2642.46
 20
1390.0
 10
2646.1095
 20
1387.6464
 10
2656.6661
 20
1380.8383
 10
2657.5701
 20
1380.2343
 10
2657.9208
 20
1380.0
 10
2658.9217
 20
1379.2249
 10
2670.7942
 20
1370.0
 10
2673.9251
 20
1367.7412
 10
2678.3093
 20
1364.5781
 10
2685.2766
 20
1360.0
 10
2691.7721
 20
1356.3185
 10
2698.779
 20
1352.3472
 10
2704.1485
 20
1350.0
 10
2717.2268
 20
1344.7851
 10
2717.2852
 20
1344.7579
 10
2727.4878
 20
1340.0
 10
2727.5022
 20
1339.9964
 10
2729.2896
 20
1339.5513
 10
2729.345
 20
1339.5375
 10
2736.1004
 20
1337.855
 10
2736.1265
 20
1337.8547
 10
2739.2962
 20
1337.8187
 10
2739.569
 20
1337.8264
 10
2760.7226
 20
1338.4203
 10
2761.0648
 20
1338.4299
 10
2772.798
 20
1339.495
 10
2785.3194
 20
1340.0
 10
2788.7496
 20
1341.3237
 10
2797.0564
 20
1344.5293
 10
2808.1058
 20
1349.9857
 10
2808.1349
 20
1350.0
 10
2813.0789
 20
1352.3453
 10
2827.3383
 20
1360.0
 10
2833.8626
 20
1363.0782
 10
2844.8821
 20
1368.2771
 10
2846.9281
 20
1369.5118
 10
2847.7371
 20
1370.0
 10
2859.416
 20
1375.0533
 10
2869.5188
 20
1380.0
 10
2876.4279
 20
1381.6053
 10
2912.3826
 20
1389.9589
 10
2912.5208
 20
1390.0
 10
2912.6966
 20
1390.0228
 10
2912.8056
 20
1390.0354
 10
2913.0907
 20
1390.0813
 10
2913.2857
 20
1390.1163
 10
2968.3703
 20
1400.0
 10
2975.1452
 20
1401.3758
 10
3010.1597
 20
1408.4861
 10
3016.2391
 20
1409.8633
 10
3016.8428
 20
1410.0
 10
3018.1404
 20
1410.3223
 10
3020.5514
 20
1410.7795
 10
3045.7923
 20
1415.1338
 10
3050.8049
 20
1415.6427
 10
3068.8673
 20
1417.4765
 10
3076.0692
 20
1417.9413
 10
3092.3654
 20
1417.4809
 10
3099.6878
 20
1417.3022
 10
3150.3373
 20
1416.0668
 10
3157.2067
 20
1416.2778
 10
3163.1373
 20
1416.7845
 10
3185.2369
 20
1418.6724
 10
3191.4358
 20
1419.6553
 10
3193.6103
 20
1420.0
 10
3219.2271
 20
1423.1179
 10
3253.8319
 20
1430.0
 10
3275.8463
 20
1430.6501
 10
3282.6886
 20
1430.7283
 10
3297.94
 20
1430.9028
 10
3303.1019
 20
1430.7603
 10
3304.1307
 20
1430.7213
 10
3321.8674
 20
1430.0501
 10
3322.1962
 20
1430.0377
 10
3323.1907
 20
1430.0
 10
3327.881
 20
1429.3735
 10
3342.0685
 20
1427.4783
 10
3346.1787
 20
1426.5565
 10
3358.6112
 20
1423.7684
 10
3381.9429
 20
1420.0
 10
3382.828
 20
1419.8559
 10
3403.194
 20
1416.5387
 10
3403.8986
 20
1416.4517
 10
3415.1066
 20
1415.0674
 10
3415.2813
 20
1415.0458
 10
3418.8668
 20
1414.603
 10
3426.4334
 20
1413.8942
  0
LWPOLYLINE
  5
3A
330
17
100
AcDbEntity
  8
0
100
AcDbPolyline
 90
353
 70
0
 10
0.0
 20
1356.4416
 10
0.0
 20
1356.4416
 10
8.6489
 20
1357.9059
 10
11.6826
 20
1358.2504
 10
12.8386
 20
1358.3817
 10
16.9872
 20
1358.1077
 10
19.029
 20
1358.0717
 10
28.9321
 20
1357.8971
 10
36.596
 20
1356.425
 10
40.4534
 20
1355.684
 10
63.0346
 20
1350.0
 10
80.0984
 20
1343.3077
 10
87.8075
 20
1340.0
 10
92.9356
 20
1337.5166
 10
100.0
 20
1333.6451
 10
106.651
 20
1330.0
 10
115.5001
 20
1325.9055
 10
118.1865
 20
1324.2557
 10
125.1164
 20
1320.0
 10
127.8314
 20
1318.3646
 10
139.4499
 20
1311.3663
 10
141.7514
 20
1310.0
 10
143.5848
 20
1308.9695
 10
145.7029
 20
1307.6448
 10
157.9269
 20
1300.0
 10
159.7824
 20
1298.7993
 10
165.092
 20
1295.3633
 10
172.8788
 20
1290.0491
 10
172.9507
 20
1290.0
 10
186.7912
 20
1281.7407
 10
186.9397
 20
1281.6521
 10
189.877
 20
1280.0
 10
193.9376
 20
1277.6253
 10
200.0
 20
1274.5283
 10
208.8641
 20
1270.0
 10
222.4238
 20
1264.0481
 10
224.3385
 20
1263.3002
 10
232.787
 20
1260.0
 10
234.9371
 20
1259.6338
 10
235.4819
 20
1259.5409
 10
244.6367
 20
1257.9814
 10
255.5253
 20
1257.116
 10
255.7717
 20
1257.0964
 10
256.6328
 20
1257.028
 10
258.5589
 20
1257.0174
 10
265.2894
 20
1256.9805
 10
286.3766
 20
1256.5681
 10
286.5928
 20
1256.5638
 10
287.0609
 20
1256.5547
 10
293.4226
 20
1256.8267
 10
293.4714
 20
1256.8287
 10
293.6123
 20
1256.8348
 10
300.0
 20
1257.5594
 10
300.7922
 20
1257.6492
 10
321.5161
 20
1260.0
 10
332.9907
 20
1262.0825
 10
338.8601
 20
1263.8783
 10
358.8685
 20
1270.0
 10
365.1178
 20
1272.2646
 10
375.0526
 20
1275.8645
 10
391.7005
 20
1280.0
 10
400.0
 20
1282.2008
 10
404.7704
 20
1283.4658
 10
411.1241
 20
1286.2943
 10
419.4484
 20
1290.0
 10
426.5064
 20
1292.9967
 10
433.3668
 20
1295.9096
 10
436.9768
 20
1297.0738
 10
442.8676
 20
1298.7503
 10
447.2587
 20
1300.0
 10
454.97
 20
1303.2548
 10
467.6161
 20
1308.5925
 10
471.3187
 20
1310.0
 10
476.7924
 20
1312.6461
 10
480.0633
 20
1314.2273
 10
490.9935
 20
1319.5842
 10
491.8419
 20
1320.0
 10
500.0
 20
1323.8118
 10
512.5736
 20
1329.6866
 10
512.7206
 20
1329.7553
 10
513.2594
 20
1330.0
 10
515.2019
 20
1330.9563
 10
532.4944
 20
1340.0
 10
539.9286
 20
1343.6862
 10
542.1653
 20
1344.7864
 10
552.7649
 20
1350.0
 10
561.7795
 20
1353.0794
 10
566.9746
 20
1354.8111
 10
582.5413
 20
1360.0
 10
586.0607
 20
1360.4614
 10
587.2906
 20
1360.5808
 10
623.8143
 20
1364.1266
 10
626.8386
 20
1364.2519
 10
636.8798
 20
1364.6678
 10
661.3075
 20
1365.2145
 10
667.4132
 20
1364.8406
 10
697.4574
 20
1363.0012
 10
712.6543
 20
1362.7046
 10
721.8542
 20
1361.9689
 10
746.4754
 20
1360.0
 10
764.2766
 20
1358.8107
 10
774.7695
 20
1357.6921
 10
813.6202
 20
1357.5929
 10
821.2377
 20
1358.7049
 10
831.8266
 20
1360.0
 10
848.9644
 20
1363.051
 10
856.7029
 20
1363.5734
 10
858.1169
 20
1363.8872
 10
872.1719
 20
1367.0065
 10
872.5197
 20
1367.0837
 10
874.2834
 20
1367.4751
 10
879.351
 20
1367.8911
 10
905.0413
 20
1370.0
 10
937.3403
 20
1373.7741
 10
959.8228
 20
1375.8388
 10
960.1196
 20
1375.835
 10
981.6139
 20
1375.5619
 10
985.8937
 20
1375.6195
 10
1008.3268
 20
1375.9215
 10
1014.9286
 20
1377.1277
 10
1043.729
 20
1379.1757
 10
1049.7631
 20
1380.0
 10
1055.5566
 20
1380.8263
 10
1060.6534
 20
1381.5859
 10
1060.8111
 20
1381.6156
 10
1083.5661
 20
1385.8983
 10
1084.2274
 20
1386.0014
 10
1109.8734
 20
1390.0
 10
1116.9019
 20
1390.7764
 10
1130.0083
 20
1391.1331
 10
1165.05
 20
1392.0869
 10
1175.508
 20
1391.7162
 10
1215.7346
 20
1390.2905
 10
1219.4317
 20
1390.0
 10
1223.4028
 20
1390.0
 10
1224.4695
 20
1390.0
 10
1247.3763
 20
1390.0
 10
1248.3351
 20
1390.0
 10
1252.408
 20
1390.0
 10
1256.8774
 20
1390.0
 10
1274.0317
 20
1390.0
 10
1278.4437
 20
1390.2492
 10
1297.5631
 20
1391.3288
 10
1303.8216
 20
1391.9797
 10
1307.4663
 20
1392.1588
 10
1338.3973
 20
1393.6789
 10
1359.591
 20
1395.1764
 10
1364.2905
 20
1395.4055
 10
1377.7267
 20
1396.0607
 10
1388.2688
 20
1397.2052
 10
1410.352
 20
1399.6027
 10
1413.3637
 20
1400.0
 10
1434.9511
 20
1403.231
 10
1444.0343
 20
1404.74
 10
1475.6982
 20
1410.0
 10
1505.7196
 20
1413.4255
 10
1517.0171
 20
1414.8043
 10
1526.7541
 20
1415.5645
 10
1557.6465
 20
1417.9765
 10
1566.8575
 20
1419.0405
 10
1567.9366
 20
1419.1652
 10
1575.8636
 20
1419.9403
 10
1576.7058
 20
1419.9346
 10
1577.5579
 20
1419.932
 10
1595.4357
 20
1419.7837
 10
1596.3402
 20
1419.7793
 10
1599.7811
 20
1419.7623
 10
1630.2244
 20
1419.5846
 10
1659.6226
 20
1419.7515
 10
1665.0687
 20
1419.7657
 10
1683.6132
 20
1419.8138
 10
1686.961
 20
1419.8216
 10
1698.5256
 20
1419.8485
 10
1699.6204
 20
1419.8518
 10
1703.539
 20
1419.8639
 10
1716.8762
 20
1419.8939
 10
1724.8701
 20
1419.9119
 10
1730.1589
 20
1419.9356
 10
1745.1608
 20
1419.9361
 10
1747.8147
 20
1419.9433
 10
1753.3738
 20
1419.9652
 10
1761.6931
 20
1419.9526
 10
1761.8407
 20
1419.9334
 10
1763.3883
 20
1419.7325
 10
1763.6549
 20
1419.7045
 10
1766.5169
 20
1419.4039
 10
1767.321
 20
1419.3194
 10
1775.4469
 20
1418.4657
 10
1791.7061
 20
1417.4975
 10
1793.9014
 20
1417.3668
 10
1796.6717
 20
1417.2018
 10
1827.6729
 20
1416.8522
 10
1831.9657
 20
1416.8038
 10
1837.2638
 20
1416.744
 10
1867.8618
 20
1417.0375
 10
1872.2033
 20
1417.0792
 10
1877.4483
 20
1417.1295
 10
1882.4149
 20
1417.1483
 10
1888.4151
 20
1417.171
 10
1901.4633
 20
1417.2832
 10
1903.1721
 20
1417.2979
 10
1905.4347
 20
1417.3174
 10
1908.0967
 20
1417.4087
 10
1911.6213
 20
1417.5297
 10
1919.2948
 20
1417.1422
 10
1929.4549
 20
1416.6291
 10
1952.8387
 20
1414.8403
 10
1983.8006
 20
1412.4719
 10
1988.8475
 20
1411.7761
 10
2001.7292
 20
1410.0
 10
2002.079
 20
1410.0
 10
2046.0676
 20
1410.0
 10
2063.3708
 20
1410.0
 10
2093.6824
 20
1414.8818
 10
2097.8708
 20
1415.1621
 10
2115.1002
 20
1416.3152
 10
2118.3995
 20
1416.3575
 10
2129.7355
 20
1416.5026
 10
2138.0306
 20
1417.3581
 10
2143.2088
 20
1417.8921
 10
2158.5925
 20
1417.1771
 10
2190.4276
 20
1419.2138
 10
2236.7064
 20
1417.6849
 10
2253.2383
 20
1417.6105
 10
2262.3203
 20
1417.0551
 10
2294.353
 20
1413.196
 10
2309.2329
 20
1411.9797
 10
2333.4524
 20
1410.0
 10
2333.5774
 20
1409.9963
 10
2333.5888
 20
1409.9959
 10
2333.6236
 20
1409.9967
 10
2333.9193
 20
1409.9949
 10
2345.6599
 20
1409.9779
 10
2346.5479
 20
1410.0
 10
2356.8865
 20
1410.723
 10
2364.1114
 20
1412.3299
 10
2398.5991
 20
1420.0
 10
2406.2858
 20
1422.4557
 10
2414.7846
 20
1425.1024
 10
2430.5111
 20
1430.0
 10
2452.1785
 20
1435.8472
 10
2453.7312
 20
1436.1232
 10
2470.5229
 20
1439.1073
 10
2477.02
 20
1440.0
 10
2493.791
 20
1440.0
 10
2514.5212
 20
1440.0
 10
2519.4576
 20
1440.0
 10
2521.1304
 20
1440.0
 10
2526.0332
 20
1440.0
 10
2527.8177
 20
1440.0
 10
2528.2958
 20
1440.0
 10
2529.6757
 20
1440.0
 10
2554.949
 20
1434.4089
 10
2561.4427
 20
1432.3556
 10
2568.4316
 20
1430.0
 10
2570.857
 20
1428.9913
 10
2590.5788
 20
1420.7886
 10
2591.8363
 20
1420.0
 10
2593.9203
 20
1419.0404
 10
2594.3372
 20
1418.7957
 10
2609.3236
 20
1410.0
 10
2610.2784
 20
1409.4617
 10
2615.0539
 20
1406.7688
 10
2624.5659
 20
1401.2427
 10
2626.7049
 20
1400.0
 10
2630.9626
 20
1397.1624
 10
2642.46
 20
1390.0
 10
2646.1095
 20
1387.6464
 10
2656.6661
 20
1380.8383
 10
2657.5701
 20
1380.2343
 10
2657.9208
 20
1380.0
 10
2658.9217
 20
1379.2249
 10
2670.7942
 20
1370.0
 10
2673.9251
 20
1367.7412
 10
2678.3093
 20
1364.5781
 10
2685.2766
 20
1360.0
 10
2691.7721
 20
1356.3185
 10
2698.779
 20
1352.3472
 10
2704.1485
 20
1350.0
 10
2717.2268
 20
1344.7851
 10
2717.2852
 20
1344.7579
 10
2727.4878
 20
1340.0
 10
2727.5022
 20
1339.9964
 10
2729.2896
 20
1339.5513
 10
2729.345
 20
1339.5375
 10
2736.1004
 20
1337.855
 10
2736.1265
 20
1337.8547
 10
2739.2962
 20
1337.8187
 10
2739.569
 20
1337.8264
 10
2760.7226
 20
1338.4203
 10
2761.0648
 20
1338.4299
 10
2772.798
 20
1339.495
 10
2785.3194
 20
1340.0
 10
2788.7496
 20
1341.3237
 10
2797.0564
 20
1344.5293
 10
2808.1058
 20
1349.9857
 10
2808.1349
 20
1350.0
 10
2813.0789
 20
1352.3453
 10
2827.3383
 20
1360.0
 10
2833.8626
 20
1363.0782
 10
2844.8821
 20
1368.2771
 10
2846.9281
 20
1369.5118
 10
2847.7371
 20
1370.0
 10
2859.416
 20
1375.0533
 10
2869.5188
 20
1380.0
 10
2876.4279
 20
1381.6053
 10
2912.3826
 20
1389.9589
 10
2912.5208
 20
1390.0
 10
2912.6966
 20
1390.0228
 10
2912.8056
 20
1390.0354
 10
2913.0907
 20
1390.0813
 10
2913.2857
 20
1390.1163
 10
2968.3703
 20
1400.0
 10
2975.1452
 20
1401.3758
 10
3010.1597
 20
1408.4861
 10
3016.2391
 20
1409.8633
 10
3016.8428
 20
1410.0
 10
3018.1404
 20
1410.3223
 10
3020.5514
 20
1410.7795
 10
3045.7923
 20
1415.1338
 10
3050.8049
 20
1415.6427
 10
3068.8673
 20
1417.4765
 10
3076.0692
 20
1417.9413
 10
3092.3654
 20
1417.4809
 10
3099.6878
 20
1417.3022
 10
3150.3373
 20
1416.0668
 10
3157.2067
 20
1416.2778
 10
3163.1373
 20
1416.7845
 10
3185.2369
 20
1418.6724
 10
3191.4358
 20
1419.6553
 10
3193.6103
 20
1420.0
 10
3219.2271
 20
1423.1179
 10
3253.8319
 20
1430.0
 10
3275.8463
 20
1430.6501
 10
3282.6886
 20
1430.7283
 10
3297.94
 20
1430.9028
 10
3303.1019
 20
1430.7603
 10
3304.1307
 20
1430.7213
 10
3321.8674
 20
1430.0501
 10
3322.1962
 20
1430.0377
 10
3323.1907
 20
1430.0
 10
3327.881
 20
1429.3735
 10
3342.0685
 20
1427.4783
 10
3346.1787
 20
1426.5565
 10
3358.6112
 20
1423.7684
 10
3381.9429
 20
1420.0
 10
3382.828
 20
1419.8559
 10
3403.194
 20
1416.5387
 10
3403.8986
 20
1416.4517
 10
3415.1066
 20
1415.0674
 10
3415.2813
 20
1415.0458
 10
3418.8668
 20
1414.603
 10
3426.4334
 20
1413.8942
  0
LWPOLYLINE
  5
3B
330
17
100
AcDbEntity
  8
0
100
AcDbPolyline
 90
353
 70
0
 10
0.0
 20
1356.4416
 10
0.0
 20
1356.4416
 10
8.6489
 20
1357.9059
 10
11.6826
 20
1358.2504
 10
12.8386
 20
1358.3817
 10
16.9872
 20
1358.1077
 10
19.029
 20
1358.0717
 10
28.9321
 20
1357.8971
 10
36.596
 20
1356.425
 10
40.4534
 20
1355.684
 10
63.0346
 20
1350.0
 10
80.0984
 20
1343.3077
 10
87.8075
 20
1340.0
 10
92.9356
 20
1337.5166
 10
100.0
 20
1333.6451
 10
106.651
 20
1330.0
 10
115.5001
 20
1325.9055
 10
118.1865
 20
1324.2557
 10
125.1164
 20
1320.0
 10
127.8314
 20
1318.3646
 10
139.4499
 20
1311.3663
 10
141.7514
 20
1310.0
 10
143.5848
 20
1308.9695
 10
145.7029
 20
1307.6448
 10
157.9269
 20
1300.0
 10
159.7824
 20
1298.7993
 10
165.092
 20
1295.3633
 10
172.8788
 20
1290.0491
 10
172.9507
 20
1290.0
 10
186.7912
 20
1281.7407
 10
186.9397
 20
1281.6521
 10
189.877
 20
1280.0
 10
193.9376
 20
1277.6253
 10
200.0
 20
1274.5283
 10
208.8641
 20
1270.0
 10
222.4238
 20
1264.0481
 10
224.3385
 20
1263.3002
 10
232.787
 20
1260.0
 10
234.9371
 20
1259.6338
 10
235.4819
 20
1259.5409
 10
244.6367
 20
1257.9814
 10
255.5253
 20
1257.116
 10
255.7717
 20
1257.0964
 10
256.6328
 20
1257.028
 10
258.5589
 20
1257.0174
 10
265.2894
 20
1256.9805
 10
286.3766
 20
1256.5681
 10
286.5928
 20
1256.5638
 10
287.0609
 20
1256.5547
 10
293.4226
 20
1256.8267
 10
293.4714
 20
1256.8287
 10
293.6123
 20
1256.8348
 10
300.0
 20
1257.5594
 10
300.7922
 20
1257.6492
 10
321.5161
 20
1260.0
 10
332.9907
 20
1262.0825
 10
338.8601
 20
1263.8783
 10
358.8685
 20
1270.0
 10
365.1178
 20
1272.2646
 10
375.0526
 20
1275.8645
 10
391.7005
 20
1280.0
 10
400.0
 20
1282.2008
 10
404.7704
 20
1283.4658
 10
411.1241
 20
1286.2943
 10
419.4484
 20
1290.0
 10
426.5064
 20
1292.9967
 10
433.3668
 20
1295.9096
 10
436.9768
 20
1297.0738
 10
442.8676
 20
1298.7503
 10
447.2587
 20
1300.0
 10
454.97
 20
1303.2548
 10
467.6161
 20
1308.5925
 10
471.3187
 20
1310.0
 10
476.7924
 20
1312.6461
 10
480.0633
 20
1314.2273
 10
490.9935
 20
1319.5842
 10
491.8419
 20
1320.0
 10
500.0
 20
1323.8118
 10
512.5736
 20
1329.6866
 10
512.7206
 20
1329.7553
 10
513.2594
 20
1330.0
 10
515.2019
 20
1330.9563
 10
532.4944
 20
1340.0
 10
539.9286
 20
1343.6862
 10
542.1653
 20
1344.7864
 10
552.7649
 20
1350.0
 10
561.7795
 20
1353.0794
 10
566.9746
 20
1354.8111
 10
582.5413
 20
1360.0
 10
586.0607
 20
1360.4614
 10
587.2906
 20
1360.5808
 10
623.8143
 20
1364.1266
 10
626.8386
 20
1364.2519
 10
636.8798
 20
1364.6678
 10
661.3075
 20
1365.2145
 10
667.4132
 20
1364.8406
 10
697.4574
 20
1363.0012
 10
712.6543
 20
1362.7046
 10
721.8542
 20
1361.9689
 10
746.4754
 20
1360.0
 10
764.2766
 20
1358.8107
 10
774.7695
 20
1357.6921
 10
813.6202
 20
1357.5929
 10
821.2377
 20
1358.7049
 10
831.8266
 20
1360.0
 10
848.9644
 20
1363.051
 10
856.7029
 20
1363.5734
 10
858.1169
 20
1363.8872
 10
872.1719
 20
1367.0065
 10
872.5197
 20
1367.0837
 10
874.2834
 20
1367.4751
 10
879.351
 20
1367.8911
 10
905.0413
 20
1370.0
 10
937.3403
 20
1373.7741
 10
959.8228
 20
1375.8388
 10
960.1196
 20
1375.835
 10
981.6139
 20
1375.5619
 10
985.8937
 20
1375.6195
 10
1008.3268
 20
1375.9215
 10
1014.9286
 20
1377.1277
 10
1043.729
 20
1379.1757
 10
1049.7631
 20
1380.0
 10
1055.5566
 20
1380.8263
 10
1060.6534
 20
1381.5859
 10
1060.8111
 20
1381.6156
 10
1083.5661
 20
1385.8983
 10
1084.2274
 20
1386.0014
 10
1109.8734
 20
1390.0
 10
1116.9019
 20
1390.7764
 10
1130.0083
 20
1391.1331
 10
1165.05
 20
1392.0869
 10
1175.508
 20
1391.7162
 10
1215.7346
 20
1390.2905
 10
1219.4317
 20
1390.0
 10
1223.4028
 20
1390.0
 10
1224.4695
 20
1390.0
 10
1247.3763
 20
1390.0
 10
1248.3351
 20
1390.0
 10
1252.408
 20
1390.0
 10
1256.8774
 20
1390.0
 10
1274.0317
 20
1390.0
 10
1278.4437
 20
1390.2492
 10
1297.5631
 20
1391.3288
 10
1303.8216
 20
1391.9797
 10
1307.4663
 20
1392.1588
 10
1338.3973
 20
1393.6789
 10
1359.591
 20
1395.1764
 10
1364.2905
 20
1395.4055
 10
1377.7267
 20
1396.0607
 10
1388.2688
 20
1397.2052
 10
1410.352
 20
1399.6027
 10
1413.3637
 20
1400.0
 10
1434.9511
 20
1403.231
 10
1444.0343
 20
1404.74
 10
1475.6982
 20
1410.0
 10
1505.7196
 20
1413.4255
 10
1517.0171
 20
1414.8043
 10
1526.7541
 20
1415.5645
 10
1557.6465
 20
1417.9765
 10
1566.8575
 20
1419.0405
 10
1567.9366
 20
1419.1652
 10
1575.8636
 20
1419.9403
 10
1576.7058
 20
1419.9346
 10
1577.5579
 20
1419.932
 10
1595.4357
 20
1419.7837
 10
1596.3402
 20
1419.7793
 10
1599.7811
 20
1419.7623
 10
1630.2244
 20
1419.5846
 10
1659.6226
 20
1419.7515
 10
1665.0687
 20
1419.7657
 10
1683.6132
 20
1419.8138
 10
1686.961
 20
1419.8216
 10
1698.5256
 20
1419.8485
 10
1699.6204
 20
1419.8518
 10
1703.539
 20
1419.8639
 10
1716.8762
 20
1419.8939
 10
1724.8701
 20
1419.9119
 10
1730.1589
 20
1419.9356
 10
1745.1608
 20
1419.9361
 10
1747.8147
 20
1419.9433
 10
1753.3738
 20
1419.9652
 10
1761.6931
 20
1419.9526
 10
1761.8407
 20
1419.9334
 10
1763.3883
 20
1419.7325
 10
1763.6549
 20
1419.7045
 10
1766.5169
 20
1419.4039
 10
1767.321
 20
1419.3194
 10
1775.4469
 20
1418.4657
 10
1791.7061
 20
1417.4975
 10
1793.9014
 20
1417.3668
 10
1796.6717
 20
1417.2018
 10
1827.6729
 20
1416.8522
 10
1831.9657
 20
1416.8038
 10
1837.2638
 20
1416.744
 10
1867.8618
 20
1417.0375
 10
1872.2033
 20
1417.0792
 10
1877.4483
 20
1417.1295
 10
1882.4149
 20
1417.1483
 10
1888.4151
 20
1417.171
 10
1901.4633
 20
1417.2832
 10
1903.1721
 20
1417.2979
 10
1905.4347
 20
1417.3174
 10
1908.0967
 20
1417.4087
 10
1911.6213
 20
1417.5297
 10
1919.2948
 20
1417.1422
 10
1929.4549
 20
1416.6291
 10
1952.8387
 20
1414.8403
 10
1983.8006
 20
1412.4719
 10
1988.8475
 20
1411.7761
 10
2001.7292
 20
1410.0
 10
2002.079
 20
1410.0
 10
2046.0676
 20
1410.0
 10
2063.3708
 20
1410.0
 10
2093.6824
 20
1414.8818
 10
2097.8708
 20
1415.1621
 10
2115.1002
 20
1416.3152
 10
2118.3995
 20
1416.3575
 10
2129.7355
 20
1416.5026
 10
2138.0306
 20
1417.3581
 10
2143.2088
 20
1417.8921
 10
2158.5925
 20
1417.1771
 10
2190.4276
 20
1419.2138
 10
2236.7064
 20
1417.6849
 10
2253.2383
 20
1417.6105
 10
2262.3203
 20
1417.0551
 10
2294.353
 20
1413.196
 10
2309.2329
 20
1411.9797
 10
2333.4524
 20
1410.0
 10
2333.5774
 20
1409.9963
 10
2333.5888
 20
1409.9959
 10
2333.6236
 20
1409.9967
 10
2333.9193
 20
1409.9949
 10
2345.6599
 20
1409.9779
 10
2346.5479
 20
1410.0
 10
2356.8865
 20
1410.723
 10
2364.1114
 20
1412.3299
 10
2398.5991
 20
1420.0
 10
2406.2858
 20
1422.4557
 10
2414.7846
 20
1425.1024
 10
2430.5111
 20
1430.0
 10
2452.1785
 20
1435.8472
 10
2453.7312
 20
1436.1232
 10
2470.5229
 20
1439.1073
 10
2477.02
 20
1440.0
 10
2493.791
 20
1440.0
 10
2514.5212
 20
1440.0
 10
2519.4576
 20
1440.0
 10
2521.1304
 20
1440.0
 10
2526.0332
 20
1440.0
 10
2527.8177
 20
1440.0
 10
2528.2958
 20
1440.0
 10
2529.6757
 20
1440.0
 10
2554.949
 20
1434.4089
 10
2561.4427
 20
1432.3556
 10
2568.4316
 20
1430.0
 10
2570.857
 20
1428.9913
 10
2590.5788
 20
1420.7886
 10
2591.8363
 20
1420.0
 10
2593.9203
 20
1419.0404
 10
2594.3372
 20
1418.7957
 10
2609.3236
 20
1410.0
 10
2610.2784
 20
1409.4617
 10
2615.0539
 20
1406.7688
 10
2624.5659
 20
1401.2427
 10
2626.7049
 20
1400.0
 10
2630.9626
 20
1397.1624
 10
2642.46
 20
1390.0
 10
2646.1095
 20
1387.6464
 10
2656.6661
 20
1380.8383
 10
2657.5701
 20
1380.2343
 10
2657.9208
 20
1380.0
 10
2658.9217
 20
1379.2249
 10
2670.7942
 20
1370.0
 10
2673.9251
 20
1367.7412
 10
2678.3093
 20
1364.5781
 10
2685.2766
 20
1360.0
 10
2691.7721
 20
1356.3185
 10
2698.779
 20
1352.3472
 10
2704.1485
 20
1350.0
 10
2717.2268
 20
1344.7851
 10
2717.2852
 20
1344.7579
 10
2727.4878
 20
1340.0
 10
2727.5022
 20
1339.9964
 10
2729.2896
 20
1339.5513
 10
2729.345
 20
1339.5375
 10
2736.1004
 20
1337.855
 10
2736.1265
 20
1337.8547
 10
2739.2962
 20
1337.8187
 10
2739.569
 20
1337.8264
 10
2760.7226
 20
1338.4203
 10
2761.0648
 20
1338.4299
 10
2772.798
 20
1339.495
 10
2785.3194
 20
1340.0
 10
2788.7496
 20
1341.3237
 10
2797.0564
 20
1344.5293
 10
2808.1058
 20
1349.9857
 10
2808.1349
 20
1350.0
 10
2813.0789
 20
1352.3453
 10
2827.3383
 20
1360.0
 10
2833.8626
 20
1363.0782
 10
2844.8821
 20
1368.2771
 10
2846.9281
 20
1369.5118
 10
2847.7371
 20
1370.0
 10
2859.416
 20
1375.0533
 10
2869.5188
 20
1380.0
 10
2876.4279
 20
1381.6053
 10
2912.3826
 20
1389.9589
 10
2912.5208
 20
1390.0
 10
2912.6966
 20
1390.0228
 10
2912.8056
 20
1390.0354
 10
2913.0907
 20
1390.0813
 10
2913.2857
 20
1390.1163
 10
2968.3703
 20
1400.0
 10
2975.1452
 20
1401.3758
 10
3010.1597
 20
1408.4861
 10
3016.2391
 20
1409.8633
 10
3016.8428
 20
1410.0
 10
3018.1404
 20
1410.3223
 10
3020.5514
 20
1410.7795
 10
3045.7923
 20
1415.1338
 10
3050.8049
 20
1415.6427
 10
3068.8673
 20
1417.4765
 10
3076.0692
 20
1417.9413
 10
3092.3654
 20
1417.4809
 10
3099.6878
 20
1417.3022
 10
3150.3373
 20
1416.0668
 10
3157.2067
 20
1416.2778
 10
3163.1373
 20
1416.7845
 10
3185.2369
 20
1418.6724
 10
3191.4358
 20
1419.6553
 10
3193.6103
 20
1420.0
 10
3219.2271
 20
1423.1179
 10
3253.8319
 20
1430.0
 10
3275.8463
 20
1430.6501
 10
3282.6886
 20
1430.7283
 10
3297.94
 20
1430.9028
 10
3303.1019
 20
1430.7603
 10
3304.1307
 20
1430.7213
 10
3321.8674
 20
1430.0501
 10
3322.1962
 20
1430.0377
 10
3323.1907
 20
1430.0
 10
3327.881
 20
1429.3735
 10
3342.0685
 20
1427.4783
 10
3346.1787
 20
1426.5565
 10
3358.6112
 20
1423.7684
 10
3381.9429
 20
1420.0
 10
3382.828
 20
1419.8559
 10
3403.194
 20
1416.5387
 10
3403.8986
 20
1416.4517
 10
3415.1066
 20
1415.0674
 10
3415.2813
 20
1415.0458
 10
3418.8668
 20
1414.603
 10
3426.4334
 20
1413.8942
  0
LWPOLYLINE
  5
3C
330
17
100
AcDbEntity
  8
0
100
AcDbPolyline
 90
2
 70
0
 10
0.0
 20
1356.4416
 10
0.0
 20
1456.4416
  0
LWPOLYLINE
  5
3D
330
17
100
AcDbEntity
  8
0
100
AcDbPolyline
 90
2
 70
0
 10
100.0
 20
1333.6451
 10
100.0
 20
1433.6451
  0
LWPOLYLINE
  5
3E
330
17
100
AcDbEntity
  8
0
100
AcDbPolyline
 90
2
 70
0
 10
200.0
 20
1274.5283
 10
200.0
 20
1374.5283
  0
LWPOLYLINE
  5
3F
330
17
100
AcDbEntity
  8
0
100
AcDbPolyline
 90
2
 70
0
 10
300.0
 20
1257.5594
 10
300.0
 20
1357.5594
  0
LWPOLYLINE
  5
40
330
17
100
AcDbEntity
  8
0
100
AcDbPolyline
 90
2
 70
0
 10
400.0
 20
1282.2008
 10
400.0
 20
1382.2008
  0
LWPOLYLINE
  5
41
330
17
100
AcDbEntity
  8
0
100
AcDbPolyline
 90
2
 70
0
 10
500.0
 20
1323.8118
 10
500.0
 20
1423.8118
  0
LWPOLYLINE
  5
42
330
17
100
AcDbEntity
  8
0
100
AcDbPolyline
 90
353
 70
0
 10
0.0
 20
1356.4416
 10
0.0
 20
1356.4416
 10
8.6489
 20
1357.9059
 10
11.6826
 20
1358.2504
 10
12.8386
 20
1358.3817
 10
16.9872
 20
1358.1077
 10
19.029
 20
1358.0717
 10
28.9321
 20
1357.8971
 10
36.596
 20
1356.425
 10
40.4534
 20
1355.684
 10
63.0346
 20
1350.0
 10
80.0984
 20
1343.3077
 10
87.8075
 20
1340.0
 10
92.9356
 20
1337.5166
 10
100.0
 20
1333.6451
 10
106.651
 20
1330.0
 10
115.5001
 20
1325.9055
 10
118.1865
 20
1324.2557
 10
125.1164
 20
1320.0
 10
127.8314
 20
1318.3646
 10
139.4499
 20
1311.3663
 10
141.7514
 20
1310.0
 10
143.5848
 20
1308.9695
 10
145.7029
 20
1307.6448
 10
157.9269
 20
1300.0
 10
159.7824
 20
1298.7993
 10
165.092
 20
1295.3633
 10
172.8788
 20
1290.0491
 10
172.9507
 20
1290.0
 10
186.7912
 20
1281.7407
 10
186.9397
 20
1281.6521
 10
189.877
 20
1280.0
 10
193.9376
 20
1277.6253
 10
200.0
 20
1274.5283
 10
208.8641
 20
1270.0
 10
222.4238
 20
1264.0481
 10
224.3385
 20
1263.3002
 10
232.787
 20
1260.0
 10
234.9371
 20
1259.6338
 10
235.4819
 20
1259.5409
 10
244.6367
 20
1257.9814
 10
255.5253
 20
1257.116
 10
255.7717
 20
1257.0964
 10
256.6328
 20
1257.028
 10
258.5589
 20
1257.0174
 10
265.2894
 20
1256.9805
 10
286.3766
 20
1256.5681
 10
286.5928
 20
1256.5638
 10
287.0609
 20
1256.5547
 10
293.4226
 20
1256.8267
 10
293.4714
 20
1256.8287
 10
293.6123
 20
1256.8348
 10
300.0
 20
1257.5594
 10
300.7922
 20
1257.6492
 10
321.5161
 20
1260.0
 10
332.9907
 20
1262.0825
 10
338.8601
 20
1263.8783
 10
358.8685
 20
1270.0
 10
365.1178
 20
1272.2646
 10
375.0526
 20
1275.8645
 10
391.7005
 20
1280.0
 10
400.0
 20
1282.2008
 10
404.7704
 20
1283.4658
 10
411.1241
 20
1286.2943
 10
419.4484
 20
1290.0
 10
426.5064
 20
1292.9967
 10
433.3668
 20
1295.9096
 10
436.9768
 20
1297.0738
 10
442.8676
 20
1298.7503
 10
447.2587
 20
1300.0
 10
454.97
 20
1303.2548
 10
467.6161
 20
1308.5925
 10
471.3187
 20
1310.0
 10
476.7924
 20
1312.6461
 10
480.0633
 20
1314.2273
 10
490.9935
 20
1319.5842
 10
491.8419
 20
1320.0
 10
500.0
 20
1323.8118
 10
512.5736
 20
1329.6866
 10
512.7206
 20
1329.7553
 10
513.2594
 20
1330.0
 10
515.2019
 20
1330.9563
 10
532.4944
 20
1340.0
 10
539.9286
 20
1343.6862
 10
542.1653
 20
1344.7864
 10
552.7649
 20
1350.0
 10
561.7795
 20
1353.0794
 10
566.9746
 20
1354.8111
 10
582.5413
 20
1360.0
 10
586.0607
 20
1360.4614
 10
587.2906
 20
1360.5808
 10
623.8143
 20
1364.1266
 10
626.8386
 20
1364.2519
 10
636.8798
 20
1364.6678
 10
661.3075
 20
1365.2145
 10
667.4132
 20
1364.8406
 10
697.4574
 20
1363.0012
 10
712.6543
 20
1362.7046
 10
721.8542
 20
1361.9689
 10
746.4754
 20
1360.0
 10
764.2766
 20
1358.8107
 10
774.7695
 20
1357.6921
 10
813.6202
 20
1357.5929
 10
821.2377
 20
1358.7049
 10
831.8266
 20
1360.0
 10
848.9644
 20
1363.051
 10
856.7029
 20
1363.5734
 10
858.1169
 20
1363.8872
 10
872.1719
 20
1367.0065
 10
872.5197
 20
1367.0837
 10
874.2834
 20
1367.4751
 10
879.351
 20
1367.8911
 10
905.0413
 20
1370.0
 10
937.3403
 20
1373.7741
 10
959.8228
 20
1375.8388
 10
960.1196
 20
1375.835
 10
981.6139
 20
1375.5619
 10
985.8937
 20
1375.6195
 10
1008.3268
 20
1375.9215
 10
1014.9286
 20
1377.1277
 10
1043.729
 20
1379.1757
 10
1049.7631
 20
1380.0
 10
1055.5566
 20
1380.8263
 10
1060.6534
 20
1381.5859
 10
1060.8111
 20
1381.6156
 10
1083.5661
 20
1385.8983
 10
1084.2274
 20
1386.0014
 10
1109.8734
 20
1390.0
 10
1116.9019
 20
1390.7764
 10
1130.0083
 20
1391.1331
 10
1165.05
 20
1392.0869
 10
1175.508
 20
1391.7162
 10
1215.7346
 20
1390.2905
 10
1219.4317
 20
1390.0
 10
1223.4028
 20
1390.0
 10
1224.4695
 20
1390.0
 10
1247.3763
 20
1390.0
 10
1248.3351
 20
1390.0
 10
1252.408
 20
1390.0
 10
1256.8774
 20
1390.0
 10
1274.0317
 20
1390.0
 10
1278.4437
 20
1390.2492
 10
1297.5631
 20
1391.3288
 10
1303.8216
 20
1391.9797
 10
1307.4663
 20
1392.1588
 10
1338.3973
 20
1393.6789
 10
1359.591
 20
1395.1764
 10
1364.2905
 20
1395.4055
 10
1377.7267
 20
1396.0607
 10
1388.2688
 20
1397.2052
 10
1410.352
 20
1399.6027
 10
1413.3637
 20
1400.0
 10
1434.9511
 20
1403.231
 10
1444.0343
 20
1404.74
 10
1475.6982
 20
1410.0
 10
1505.7196
 20
1413.4255
 10
1517.0171
 20
1414.8043
 10
1526.7541
 20
1415.5645
 10
1557.6465
 20
1417.9765
 10
1566.8575
 20
1419.0405
 10
1567.9366
 20
1419.1652
 10
1575.8636
 20
1419.9403
 10
1576.7058
 20
1419.9346
 10
1577.5579
 20
1419.932
 10
1595.4357
 20
1419.7837
 10
1596.3402
 20
1419.7793
 10
1599.7811
 20
1419.7623
 10
1630.2244
 20
1419.5846
 10
1659.6226
 20
1419.7515
 10
1665.0687
 20
1419.7657
 10
1683.6132
 20
1419.8138
 10
1686.961
 20
1419.8216
 10
1698.5256
 20
1419.8485
 10
1699.6204
 20
1419.8518
 10
1703.539
 20
1419.8639
 10
1716.8762
 20
1419.8939
 10
1724.8701
 20
1419.9119
 10
1730.1589
 20
1419.9356
 10
1745.1608
 20
1419.9361
 10
1747.8147
 20
1419.9433
 10
1753.3738
 20
1419.9652
 10
1761.6931
 20
1419.9526
 10
1761.8407
 20
1419.9334
 10
1763.3883
 20
1419.7325
 10
1763.6549
 20
1419.7045
 10
1766.5169
 20
1419.4039
 10
1767.321
 20
1419.3194
 10
1775.4469
 20
1418.4657
 10
1791.7061
 20
1417.4975
 10
1793.9014
 20
1417.3668
 10
1796.6717
 20
1417.2018
 10
1827.6729
 20
1416.8522
 10
1831.9657
 20
1416.8038
 10
1837.2638
 20
1416.744
 10
1867.8618
 20
1417.0375
 10
1872.2033
 20
1417.0792
 10
1877.4483
 20
1417.1295
 10
1882.4149
 20
1417.1483
 10
1888.4151
 20
1417.171
 10
1901.4633
 20
1417.2832
 10
1903.1721
 20
1417.2979
 10
1905.4347
 20
1417.3174
 10
1908.0967
 20
1417.4087
 10
1911.6213
 20
1417.5297
 10
1919.2948
 20
1417.1422
 10
1929.4549
 20
1416.6291
 10
1952.8387
 20
1414.8403
 10
1983.8006
 20
1412.4719
 10
1988.8475
 20
1411.7761
 10
2001.7292
 20
1410.0
 10
2002.079
 20
1410.0
 10
2046.0676
 20
1410.0
 10
2063.3708
 20
1410.0
 10
2093.6824
 20
1414.8818
 10
2097.8708
 20
1415.1621
 10
2115.1002
 20
1416.3152
 10
2118.3995
 20
1416.3575
 10
2129.7355
 20
1416.5026
 10
2138.0306
 20
1417.3581
 10
2143.2088
 20
1417.8921
 10
2158.5925
 20
1417.1771
 10
2190.4276
 20
1419.2138
 10
2236.7064
 20
1417.6849
 10
2253.2383
 20
1417.6105
 10
2262.3203
 20
1417.0551
 10
2294.353
 20
1413.196
 10
2309.2329
 20
1411.9797
 10
2333.4524
 20
1410.0
 10
2333.5774
 20
1409.9963
 10
2333.5888
 20
1409.9959
 10
2333.6236
 20
1409.9967
 10
2333.9193
 20
1409.9949
 10
2345.6599
 20
1409.9779
 10
2346.5479
 20
1410.0
 10
2356.8865
 20
1410.723
 10
2364.1114
 20
1412.3299
 10
2398.5991
 20
1420.0
 10
2406.2858
 20
1422.4557
 10
2414.7846
 20
1425.1024
 10
2430.5111
 20
1430.0
 10
2452.1785
 20
1435.8472
 10
2453.7312
 20
1436.1232
 10
2470.5229
 20
1439.1073
 10
2477.02
 20
1440.0
 10
2493.791
 20
1440.0
 10
2514.5212
 20
1440.0
 10
2519.4576
 20
1440.0
 10
2521.1304
 20
1440.0
 10
2526.0332
 20
1440.0
 10
2527.8177
 20
1440.0
 10
2528.2958
 20
1440.0
 10
2529.6757
 20
1440.0
 10
2554.949
 20
1434.4089
 10
2561.4427
 20
1432.3556
 10
2568.4316
 20
1430.0
 10
2570.857
 20
1428.9913
 10
2590.5788
 20
1420.7886
 10
2591.8363
 20
1420.0
 10
2593.9203
 20
1419.0404
 10
2594.3372
 20
1418.7957
 10
2609.3236
 20
1410.0
 10
2610.2784
 20
1409.4617
 10
2615.0539
 20
1406.7688
 10
2624.5659
 20
1401.2427
 10
2626.7049
 20
1400.0
 10
2630.9626
 20
1397.1624
 10
2642.46
 20
1390.0
 10
2646.1095
 20
1387.6464
 10
2656.6661
 20
1380.8383
 10
2657.5701
 20
1380.2343
 10
2657.9208
 20
1380.0
 10
2658.9217
 20
1379.2249
 10
2670.7942
 20
1370.0
 10
2673.9251
 20
1367.7412
 10
2678.3093
 20
1364.5781
 10
2685.2766
 20
1360.0
 10
2691.7721
 20
1356.3185
 10
2698.779
 20
1352.3472
 10
2704.1485
 20
1350.0
 10
2717.2268
 20
1344.7851
 10
2717.2852
 20
1344.7579
 10
2727.4878
 20
1340.0
 10
2727.5022
 20
1339.9964
 10
2729.2896
 20
1339.5513
 10
2729.345
 20
1339.5375
 10
2736.1004
 20
1337.855
 10
2736.1265
 20
1337.8547
 10
2739.2962
 20
1337.8187
 10
2739.569
 20
1337.8264
 10
2760.7226
 20
1338.4203
 10
2761.0648
 20
1338.4299
 10
2772.798
 20
1339.495
 10
2785.3194
 20
1340.0
 10
2788.7496
 20
1341.3237
 10
2797.0564
 20
1344.5293
 10
2808.1058
 20
1349.9857
 10
2808.1349
 20
1350.0
 10
2813.0789
 20
1352.3453
 10
2827.3383
 20
1360.0
 10
2833.8626
 20
1363.0782
 10
2844.8821
 20
1368.2771
 10
2846.9281
 20
1369.5118
 10
2847.7371
 20
1370.0
 10
2859.416
 20
1375.0533
 10
2869.5188
 20
1380.0
 10
2876.4279
 20
1381.6053
 10
2912.3826
 20
1389.9589
 10
2912.5208
 20
1390.0
 10
2912.6966
 20
1390.0228
 10
2912.8056
 20
1390.0354
 10
2913.0907
 20
1390.0813
 10
2913.2857
 20
1390.1163
 10
2968.3703
 20
1400.0
 10
2975.1452
 20
1401.3758
 10
3010.1597
 20
1408.4861
 10
3016.2391
 20
1409.8633
 10
3016.8428
 20
1410.0
 10
3018.1404
 20
1410.3223
 10
3020.5514
 20
1410.7795
 10
3045.7923
 20
1415.1338
 10
3050.8049
 20
1415.6427
 10
3068.8673
 20
1417.4765
 10
3076.0692
 20
1417.9413
 10
3092.3654
 20
1417.4809
 10
3099.6878
 20
1417.3022
 10
3150.3373
 20
1416.0668
 10
3157.2067
 20
1416.2778
 10
3163.1373
 20
1416.7845
 10
3185.2369
 20
1418.6724
 10
3191.4358
 20
1419.6553
 10
3193.6103
 20
1420.0
 10
3219.2271
 20
1423.1179
 10
3253.8319
 20
1430.0
 10
3275.8463
 20
1430.6501
 10
3282.6886
 20
1430.7283
 10
3297.94
 20
1430.9028
 10
3303.1019
 20
1430.7603
 10
3304.1307
 20
1430.7213
 10
3321.8674
 20
1430.0501
 10
3322.1962
 20
1430.0377
 10
3323.1907
 20
1430.0
 10
3327.881
 20
1429.3735
 10
3342.0685
 20
1427.4783
 10
3346.1787
 20
1426.5565
 10
3358.6112
 20
1423.7684
 10
3381.9429
 20
1420.0
 10
3382.828
 20
1419.8559
 10
3403.194
 20
1416.5387
 10
3403.8986
 20
1416.4517
 10
3415.1066
 20
1415.0674
 10
3415.2813
 20
1415.0458
 10
3418.8668
 20
1414.603
 10
3426.4334
 20
1413.8942
  0
LWPOLYLINE
  5
43
330
17
100
AcDbEntity
  8
0
100
AcDbPolyline
 90
2
 70
0
 10
0.0
 20
1356.4416
 10
0.0
 20
1456.4416
  0
LWPOLYLINE
  5
44
330
17
100
AcDbEntity
  8
0
100
AcDbPolyline
 90
2
 70
0
 10
100.0
 20
1333.6451
 10
100.0
 20
1433.6451
  0
LWPOLYLINE
  5
45
330
17
100
AcDbEntity
  8
0
100
AcDbPolyline
 90
2
 70
0
 10
200.0
 20
1274.5283
 10
200.0
 20
1374.5283
  0
LWPOLYLINE
  5
46
330
17
100
AcDbEntity
  8
0
100
AcDbPolyline
 90
2
 70
0
 10
300.0
 20
1257.5594
 10
300.0
 20
1357.5594
  0
LWPOLYLINE
  5
47
330
17
100
AcDbEntity
  8
0
100
AcDbPolyline
 90
2
 70
0
 10
400.0
 20
1282.2008
 10
400.0
 20
1382.2008
  0
LWPOLYLINE
  5
48
330
17
100
AcDbEntity
  8
0
100
AcDbPolyline
 90
2
 70
0
 10
500.0
 20
1323.8118
 10
500.0
 20
1423.8118
  0
LWPOLYLINE
  5
49
330
17
100
AcDbEntity
  8
0
100
AcDbPolyline
 90
353
 70
0
 10
0.0
 20
1356.4416
 10
0.0
 20
1356.4416
 10
8.6489
 20
1357.9059
 10
11.6826
 20
1358.2504
 10
12.8386
 20
1358.3817
 10
16.9872
 20
1358.1077
 10
19.029
 20
1358.0717
 10
28.9321
 20
1357.8971
 10
36.596
 20
1356.425
 10
40.4534
 20
1355.684
 10
63.0346
 20
1350.0
 10
80.0984
 20
1343.3077
 10
87.8075
 20
1340.0
 10
92.9356
 20
1337.5166
 10
100.0
 20
1333.6451
 10
106.651
 20
1330.0
 10
115.5001
 20
1325.9055
 10
118.1865
 20
1324.2557
 10
125.1164
 20
1320.0
 10
127.8314
 20
1318.3646
 10
139.4499
 20
1311.3663
 10
141.7514
 20
1310.0
 10
143.5848
 20
1308.9695
 10
145.7029
 20
1307.6448
 10
157.9269
 20
1300.0
 10
159.7824
 20
1298.7993
 10
165.092
 20
1295.3633
 10
172.8788
 20
1290.0491
 10
172.9507
 20
1290.0
 10
186.7912
 20
1281.7407
 10
186.9397
 20
1281.6521
 10
189.877
 20
1280.0
 10
193.9376
 20
1277.6253
 10
200.0
 20
1274.5283
 10
208.8641
 20
1270.0
 10
222.4238
 20
1264.0481
 10
224.3385
 20
1263.3002
 10
232.787
 20
1260.0
 10
234.9371
 20
1259.6338
 10
235.4819
 20
1259.5409
 10
244.6367
 20
1257.9814
 10
255.5253
 20
1257.116
 10
255.7717
 20
1257.0964
 10
256.6328
 20
1257.028
 10
258.5589
 20
1257.0174
 10
265.2894
 20
1256.9805
 10
286.3766
 20
1256.5681
 10
286.5928
 20
1256.5638
 10
287.0609
 20
1256.5547
 10
293.4226
 20
1256.8267
 10
293.4714
 20
1256.8287
 10
293.6123
 20
1256.8348
 10
300.0
 20
1257.5594
 10
300.7922
 20
1257.6492
 10
321.5161
 20
1260.0
 10
332.9907
 20
1262.0825
 10
338.8601
 20
1263.8783
 10
358.8685
 20
1270.0
 10
365.1178
 20
1272.2646
 10
375.0526
 20
1275.8645
 10
391.7005
 20
1280.0
 10
400.0
 20
1282.2008
 10
404.7704
 20
1283.4658
 10
411.1241
 20
1286.2943
 10
419.4484
 20
1290.0
 10
426.5064
 20
1292.9967
 10
433.3668
 20
1295.9096
 10
436.9768
 20
1297.0738
 10
442.8676
 20
1298.7503
 10
447.2587
 20
1300.0
 10
454.97
 20
1303.2548
 10
467.6161
 20
1308.5925
 10
471.3187
 20
1310.0
 10
476.7924
 20
1312.6461
 10
480.0633
 20
1314.2273
 10
490.9935
 20
1319.5842
 10
491.8419
 20
1320.0
 10
500.0
 20
1323.8118
 10
512.5736
 20
1329.6866
 10
512.7206
 20
1329.7553
 10
513.2594
 20
1330.0
 10
515.2019
 20
1330.9563
 10
532.4944
 20
1340.0
 10
539.9286
 20
1343.6862
 10
542.1653
 20
1344.7864
 10
552.7649
 20
1350.0
 10
561.7795
 20
1353.0794
 10
566.9746
 20
1354.8111
 10
582.5413
 20
1360.0
 10
586.0607
 20
1360.4614
 10
587.2906
 20
1360.5808
 10
623.8143
 20
1364.1266
 10
626.8386
 20
1364.2519
 10
636.8798
 20
1364.6678
 10
661.3075
 20
1365.2145
 10
667.4132
 20
1364.8406
 10
697.4574
 20
1363.0012
 10
712.6543
 20
1362.7046
 10
721.8542
 20
1361.9689
 10
746.4754
 20
1360.0
 10
764.2766
 20
1358.8107
 10
774.7695
 20
1357.6921
 10
813.6202
 20
1357.5929
 10
821.2377
 20
1358.7049
 10
831.8266
 20
1360.0
 10
848.9644
 20
1363.051
 10
856.7029
 20
1363.5734
 10
858.1169
 20
1363.8872
 10
872.1719
 20
1367.0065
 10
872.5197
 20
1367.0837
 10
874.2834
 20
1367.4751
 10
879.351
 20
1367.8911
 10
905.0413
 20
1370.0
 10
937.3403
 20
1373.7741
 10
959.8228
 20
1375.8388
 10
960.1196
 20
1375.835
 10
981.6139
 20
1375.5619
 10
985.8937
 20
1375.6195
 10
1008.3268
 20
1375.9215
 10
1014.9286
 20
1377.1277
 10
1043.729
 20
1379.1757
 10
1049.7631
 20
1380.0
 10
1055.5566
 20
1380.8263
 10
1060.6534
 20
1381.5859
 10
1060.8111
 20
1381.6156
 10
1083.5661
 20
1385.8983
 10
1084.2274
 20
1386.0014
 10
1109.8734
 20
1390.0
 10
1116.9019
 20
1390.7764
 10
1130.0083
 20
1391.1331
 10
1165.05
 20
1392.0869
 10
1175.508
 20
1391.7162
 10
1215.7346
 20
1390.2905
 10
1219.4317
 20
1390.0
 10
1223.4028
 20
1390.0
 10
1224.4695
 20
1390.0
 10
1247.3763
 20
1390.0
 10
1248.3351
 20
1390.0
 10
1252.408
 20
1390.0
 10
1256.8774
 20
1390.0
 10
1274.0317
 20
1390.0
 10
1278.4437
 20
1390.2492
 10
1297.5631
 20
1391.3288
 10
1303.8216
 20
1391.9797
 10
1307.4663
 20
1392.1588
 10
1338.3973
 20
1393.6789
 10
1359.591
 20
1395.1764
 10
1364.2905
 20
1395.4055
 10
1377.7267
 20
1396.0607
 10
1388.2688
 20
1397.2052
 10
1410.352
 20
1399.6027
 10
1413.3637
 20
1400.0
 10
1434.9511
 20
1403.231
 10
1444.0343
 20
1404.74
 10
1475.6982
 20
1410.0
 10
1505.7196
 20
1413.4255
 10
1517.0171
 20
1414.8043
 10
1526.7541
 20
1415.5645
 10
1557.6465
 20
1417.9765
 10
1566.8575
 20
1419.0405
 10
1567.9366
 20
1419.1652
 10
1575.8636
 20
1419.9403
 10
1576.7058
 20
1419.9346
 10
1577.5579
 20
1419.932
 10
1595.4357
 20
1419.7837
 10
1596.3402
 20
1419.7793
 10
1599.7811
 20
1419.7623
 10
1630.2244
 20
1419.5846
 10
1659.6226
 20
1419.7515
 10
1665.0687
 20
1419.7657
 10
1683.6132
 20
1419.8138
 10
1686.961
 20
1419.8216
 10
1698.5256
 20
1419.8485
 10
1699.6204
 20
1419.8518
 10
1703.539
 20
1419.8639
 10
1716.8762
 20
1419.8939
 10
1724.8701
 20
1419.9119
 10
1730.1589
 20
1419.9356
 10
1745.1608
 20
1419.9361
 10
1747.8147
 20
1419.9433
 10
1753.3738
 20
1419.9652
 10
1761.6931
 20
1419.9526
 10
1761.8407
 20
1419.9334
 10
1763.3883
 20
1419.7325
 10
1763.6549
 20
1419.7045
 10
1766.5169
 20
1419.4039
 10
1767.321
 20
1419.3194
 10
1775.4469
 20
1418.4657
 10
1791.7061
 20
1417.4975
 10
1793.9014
 20
1417.3668
 10
1796.6717
 20
1417.2018
 10
1827.6729
 20
1416.8522
 10
1831.9657
 20
1416.8038
 10
1837.2638
 20
1416.744
 10
1867.8618
 20
1417.0375
 10
1872.2033
 20
1417.0792
 10
1877.4483
 20
1417.1295
 10
1882.4149
 20
1417.1483
 10
1888.4151
 20
1417.171
 10
1901.4633
 20
1417.2832
 10
1903.1721
 20
1417.2979
 10
1905.4347
 20
1417.3174
 10
1908.0967
 20
1417.4087
 10
1911.6213
 20
1417.5297
 10
1919.2948
 20
1417.1422
 10
1929.4549
 20
1416.6291
 10
1952.8387
 20
1414.8403
 10
1983.8006
 20
1412.4719
 10
1988.8475
 20
1411.7761
 10
2001.7292
 20
1410.0
 10
2002.079
 20
1410.0
 10
2046.0676
 20
1410.0
 10
2063.3708
 20
1410.0
 10
2093.6824
 20
1414.8818
 10
2097.8708
 20
1415.1621
 10
2115.1002
 20
1416.3152
 10
2118.3995
 20
1416.3575
 10
2129.7355
 20
1416.5026
 10
2138.0306
 20
1417.3581
 10
2143.2088
 20
1417.8921
 10
2158.5925
 20
1417.1771
 10
2190.4276
 20
1419.2138
 10
2236.7064
 20
1417.6849
 10
2253.2383
 20
1417.6105
 10
2262.3203
 20
1417.0551
 10
2294.353
 20
1413.196
 10
2309.2329
 20
1411.9797
 10
2333.4524
 20
1410.0
 10
2333.5774
 20
1409.9963
 10
2333.5888
 20
1409.9959
 10
2333.6236
 20
1409.9967
 10
2333.9193
 20
1409.9949
 10
2345.6599
 20
1409.9779
 10
2346.5479
 20
1410.0
 10
2356.8865
 20
1410.723
 10
2364.1114
 20
1412.3299
 10
2398.5991
 20
1420.0
 10
2406.2858
 20
1422.4557
 10
2414.7846
 20
1425.1024
 10
2430.5111
 20
1430.0
 10
2452.1785
 20
1435.8472
 10
2453.7312
 20
1436.1232
 10
2470.5229
 20
1439.1073
 10
2477.02
 20
1440.0
 10
2493.791
 20
1440.0
 10
2514.5212
 20
1440.0
 10
2519.4576
 20
1440.0
 10
2521.1304
 20
1440.0
 10
2526.0332
 20
1440.0
 10
2527.8177
 20
1440.0
 10
2528.2958
 20
1440.0
 10
2529.6757
 20
1440.0
 10
2554.949
 20
1434.4089
 10
2561.4427
 20
1432.3556
 10
2568.4316
 20
1430.0
 10
2570.857
 20
1428.9913
 10
2590.5788
 20
1420.7886
 10
2591.8363
 20
1420.0
 10
2593.9203
 20
1419.0404
 10
2594.3372
 20
1418.7957
 10
2609.3236
 20
1410.0
 10
2610.2784
 20
1409.4617
 10
2615.0539
 20
1406.7688
 10
2624.5659
 20
1401.2427
 10
2626.7049
 20
1400.0
 10
2630.9626
 20
1397.1624
 10
2642.46
 20
1390.0
 10
2646.1095
 20
1387.6464
 10
2656.6661
 20
1380.8383
 10
2657.5701
 20
1380.2343
 10
2657.9208
 20
1380.0
 10
2658.9217
 20
1379.2249
 10
2670.7942
 20
1370.0
 10
2673.9251
 20
1367.7412
 10
2678.3093
 20
1364.5781
 10
2685.2766
 20
1360.0
 10
2691.7721
 20
1356.3185
 10
2698.779
 20
1352.3472
 10
2704.1485
 20
1350.0
 10
2717.2268
 20
1344.7851
 10
2717.2852
 20
1344.7579
 10
2727.4878
 20
1340.0
 10
2727.5022
 20
1339.9964
 10
2729.2896
 20
1339.5513
 10
2729.345
 20
1339.5375
 10
2736.1004
 20
1337.855
 10
2736.1265
 20
1337.8547
 10
2739.2962
 20
1337.8187
 10
2739.569
 20
1337.8264
 10
2760.7226
 20
1338.4203
 10
2761.0648
 20
1338.4299
 10
2772.798
 20
1339.495
 10
2785.3194
 20
1340.0
 10
2788.7496
 20
1341.3237
 10
2797.0564
 20
1344.5293
 10
2808.1058
 20
1349.9857
 10
2808.1349
 20
1350.0
 10
2813.0789
 20
1352.3453
 10
2827.3383
 20
1360.0
 10
2833.8626
 20
1363.0782
 10
2844.8821
 20
1368.2771
 10
2846.9281
 20
1369.5118
 10
2847.7371
 20
1370.0
 10
2859.416
 20
1375.0533
 10
2869.5188
 20
1380.0
 10
2876.4279
 20
1381.6053
 10
2912.3826
 20
1389.9589
 10
2912.5208
 20
1390.0
 10
2912.6966
 20
1390.0228
 10
2912.8056
 20
1390.0354
 10
2913.0907
 20
1390.0813
 10
2913.2857
 20
1390.1163
 10
2968.3703
 20
1400.0
 10
2975.1452
 20
1401.3758
 10
3010.1597
 20
1408.4861
 10
3016.2391
 20
1409.8633
 10
3016.8428
 20
1410.0
 10
3018.1404
 20
1410.3223
 10
3020.5514
 20
1410.7795
 10
3045.7923
 20
1415.1338
 10
3050.8049
 20
1415.6427
 10
3068.8673
 20
1417.4765
 10
3076.0692
 20
1417.9413
 10
3092.3654
 20
1417.4809
 10
3099.6878
 20
1417.3022
 10
3150.3373
 20
1416.0668
 10
3157.2067
 20
1416.2778
 10
3163.1373
 20
1416.7845
 10
3185.2369
 20
1418.6724
 10
3191.4358
 20
1419.6553
 10
3193.6103
 20
1420.0
 10
3219.2271
 20
1423.1179
 10
3253.8319
 20
1430.0
 10
3275.8463
 20
1430.6501
 10
3282.6886
 20
1430.7283
 10
3297.94
 20
1430.9028
 10
3303.1019
 20
1430.7603
 10
3304.1307
 20
1430.7213
 10
3321.8674
 20
1430.0501
 10
3322.1962
 20
1430.0377
 10
3323.1907
 20
1430.0
 10
3327.881
 20
1429.3735
 10
3342.0685
 20
1427.4783
 10
3346.1787
 20
1426.5565
 10
3358.6112
 20
1423.7684
 10
3381.9429
 20
1420.0
 10
3382.828
 20
1419.8559
 10
3403.194
 20
1416.5387
 10
3403.8986
 20
1416.4517
 10
3415.1066
 20
1415.0674
 10
3415.2813
 20
1415.0458
 10
3418.8668
 20
1414.603
 10
3426.4334
 20
1413.8942
  0
LWPOLYLINE
  5
4A
330
17
100
AcDbEntity
  8
0
100
AcDbPolyline
 90
2
 70
0
 10
0.0
 20
1356.4416
 10
0.0
 20
1456.4416
  0
LWPOLYLINE
  5
4B
330
17
100
AcDbEntity
  8
0
100
AcDbPolyline
 90
2
 70
0
 10
100.0
 20
1333.6451
 10
100.0
 20
1433.6451
  0
LWPOLYLINE
  5
4C
330
17
100
AcDbEntity
  8
0
100
AcDbPolyline
 90
2
 70
0
 10
200.0
 20
1274.5283
 10
200.0
 20
1374.5283
  0
LWPOLYLINE
  5
4D
330
17
100
AcDbEntity
  8
0
100
AcDbPolyline
 90
2
 70
0
 10
300.0
 20
1257.5594
 10
300.0
 20
1357.5594
  0
LWPOLYLINE
  5
4E
330
17
100
AcDbEntity
  8
0
100
AcDbPolyline
 90
2
 70
0
 10
400.0
 20
1282.2008
 10
400.0
 20
1382.2008
  0
LWPOLYLINE
  5
4F
330
17
100
AcDbEntity
  8
0
100
AcDbPolyline
 90
2
 70
0
 10
500.0
 20
1323.8118
 10
500.0
 20
1423.8118
  0
LWPOLYLINE
  5
50
330
17
100
AcDbEntity
  8
0
100
AcDbPolyline
 90
353
 70
0
 10
0.0
 20
1356.4416
 10
0.0
 20
1356.4416
 10
8.6489
 20
1357.9059
 10
11.6826
 20
1358.2504
 10
12.8386
 20
1358.3817
 10
16.9872
 20
1358.1077
 10
19.029
 20
1358.0717
 10
28.9321
 20
1357.8971
 10
36.596
 20
1356.425
 10
40.4534
 20
1355.684
 10
63.0346
 20
1350.0
 10
80.0984
 20
1343.3077
 10
87.8075
 20
1340.0
 10
92.9356
 20
1337.5166
 10
100.0
 20
1333.6451
 10
106.651
 20
1330.0
 10
115.5001
 20
1325.9055
 10
118.1865
 20
1324.2557
 10
125.1164
 20
1320.0
 10
127.8314
 20
1318.3646
 10
139.4499
 20
1311.3663
 10
141.7514
 20
1310.0
 10
143.5848
 20
1308.9695
 10
145.7029
 20
1307.6448
 10
157.9269
 20
1300.0
 10
159.7824
 20
1298.7993
 10
165.092
 20
1295.3633
 10
172.8788
 20
1290.0491
 10
172.9507
 20
1290.0
 10
186.7912
 20
1281.7407
 10
186.9397
 20
1281.6521
 10
189.877
 20
1280.0
 10
193.9376
 20
1277.6253
 10
200.0
 20
1274.5283
 10
208.8641
 20
1270.0
 10
222.4238
 20
1264.0481
 10
224.3385
 20
1263.3002
 10
232.787
 20
1260.0
 10
234.9371
 20
1259.6338
 10
235.4819
 20
1259.5409
 10
244.6367
 20
1257.9814
 10
255.5253
 20
1257.116
 10
255.7717
 20
1257.0964
 10
256.6328
 20
1257.028
 10
258.5589
 20
1257.0174
 10
265.2894
 20
1256.9805
 10
286.3766
 20
1256.5681
 10
286.5928
 20
1256.5638
 10
287.0609
 20
1256.5547
 10
293.4226
 20
1256.8267
 10
293.4714
 20
1256.8287
 10
293.6123
 20
1256.8348
 10
300.0
 20
1257.5594
 10
300.7922
 20
1257.6492
 10
321.5161
 20
1260.0
 10
332.9907
 20
1262.0825
 10
338.8601
 20
1263.8783
 10
358.8685
 20
1270.0
 10
365.1178
 20
1272.2646
 10
375.0526
 20
1275.8645
 10
391.7005
 20
1280.0
 10
400.0
 20
1282.2008
 10
404.7704
 20
1283.4658
 10
411.1241
 20
1286.2943
 10
419.4484
 20
1290.0
 10
426.5064
 20
1292.9967
 10
433.3668
 20
1295.9096
 10
436.9768
 20
1297.0738
 10
442.8676
 20
1298.7503
 10
447.2587
 20
1300.0
 10
454.97
 20
1303.2548
 10
467.6161
 20
1308.5925
 10
471.3187
 20
1310.0
 10
476.7924
 20
1312.6461
 10
480.0633
 20
1314.2273
 10
490.9935
 20
1319.5842
 10
491.8419
 20
1320.0
 10
500.0
 20
1323.8118
 10
512.5736
 20
1329.6866
 10
512.7206
 20
1329.7553
 10
513.2594
 20
1330.0
 10
515.2019
 20
1330.9563
 10
532.4944
 20
1340.0
 10
539.9286
 20
1343.6862
 10
542.1653
 20
1344.7864
 10
552.7649
 20
1350.0
 10
561.7795
 20
1353.0794
 10
566.9746
 20
1354.8111
 10
582.5413
 20
1360.0
 10
586.0607
 20
1360.4614
 10
587.2906
 20
1360.5808
 10
623.8143
 20
1364.1266
 10
626.8386
 20
1364.2519
 10
636.8798
 20
1364.6678
 10
661.3075
 20
1365.2145
 10
667.4132
 20
1364.8406
 10
697.4574
 20
1363.0012
 10
712.6543
 20
1362.7046
 10
721.8542
 20
1361.9689
 10
746.4754
 20
1360.0
 10
764.2766
 20
1358.8107
 10
774.7695
 20
1357.6921
 10
813.6202
 20
1357.5929
 10
821.2377
 20
1358.7049
 10
831.8266
 20
1360.0
 10
848.9644
 20
1363.051
 10
856.7029
 20
1363.5734
 10
858.1169
 20
1363.8872
 10
872.1719
 20
1367.0065
 10
872.5197
 20
1367.0837
 10
874.2834
 20
1367.4751
 10
879.351
 20
1367.8911
 10
905.0413
 20
1370.0
 10
937.3403
 20
1373.7741
 10
959.8228
 20
1375.8388
 10
960.1196
 20
1375.835
 10
981.6139
 20
1375.5619
 10
985.8937
 20
1375.6195
 10
1008.3268
 20
1375.9215
 10
1014.9286
 20
1377.1277
 10
1043.729
 20
1379.1757
 10
1049.7631
 20
1380.0
 10
1055.5566
 20
1380.8263
 10
1060.6534
 20
1381.5859
 10
1060.8111
 20
1381.6156
 10
1083.5661
 20
1385.8983
 10
1084.2274
 20
1386.0014
 10
1109.8734
 20
1390.0
 10
1116.9019
 20
1390.7764
 10
1130.0083
 20
1391.1331
 10
1165.05
 20
1392.0869
 10
1175.508
 20
1391.7162
 10
1215.7346
 20
1390.2905
 10
1219.4317
 20
1390.0
 10
1223.4028
 20
1390.0
 10
1224.4695
 20
1390.0
 10
1247.3763
 20
1390.0
 10
1248.3351
 20
1390.0
 10
1252.408
 20
1390.0
 10
1256.8774
 20
1390.0
 10
1274.0317
 20
1390.0
 10
1278.4437
 20
1390.2492
 10
1297.5631
 20
1391.3288
 10
1303.8216
 20
1391.9797
 10
1307.4663
 20
1392.1588
 10
1338.3973
 20
1393.6789
 10
1359.591
 20
1395.1764
 10
1364.2905
 20
1395.4055
 10
1377.7267
 20
1396.0607
 10
1388.2688
 20
1397.2052
 10
1410.352
 20
1399.6027
 10
1413.3637
 20
1400.0
 10
1434.9511
 20
1403.231
 10
1444.0343
 20
1404.74
 10
1475.6982
 20
1410.0
 10
1505.7196
 20
1413.4255
 10
1517.0171
 20
1414.8043
 10
1526.7541
 20
1415.5645
 10
1557.6465
 20
1417.9765
 10
1566.8575
 20
1419.0405
 10
1567.9366
 20
1419.1652
 10
1575.8636
 20
1419.9403
 10
1576.7058
 20
1419.9346
 10
1577.5579
 20
1419.932
 10
1595.4357
 20
1419.7837
 10
1596.3402
 20
1419.7793
 10
1599.7811
 20
1419.7623
 10
1630.2244
 20
1419.5846
 10
1659.6226
 20
1419.7515
 10
1665.0687
 20
1419.7657
 10
1683.6132
 20
1419.8138
 10
1686.961
 20
1419.8216
 10
1698.5256
 20
1419.8485
 10
1699.6204
 20
1419.8518
 10
1703.539
 20
1419.8639
 10
1716.8762
 20
1419.8939
 10
1724.8701
 20
1419.9119
 10
1730.1589
 20
1419.9356
 10
1745.1608
 20
1419.9361
 10
1747.8147
 20
1419.9433
 10
1753.3738
 20
1419.9652
 10
1761.6931
 20
1419.9526
 10
1761.8407
 20
1419.9334
 10
1763.3883
 20
1419.7325
 10
1763.6549
 20
1419.7045
 10
1766.5169
 20
1419.4039
 10
1767.321
 20
1419.3194
 10
1775.4469
 20
1418.4657
 10
1791.7061
 20
1417.4975
 10
1793.9014
 20
1417.3668
 10
1796.6717
 20
1417.2018
 10
1827.6729
 20
1416.8522
 10
1831.9657
 20
1416.8038
 10
1837.2638
 20
1416.744
 10
1867.8618
 20
1417.0375
 10
1872.2033
 20
1417.0792
 10
1877.4483
 20
1417.1295
 10
1882.4149
 20
1417.1483
 10
1888.4151
 20
1417.171
 10
1901.4633
 20
1417.2832
 10
1903.1721
 20
1417.2979
 10
1905.4347
 20
1417.3174
 10
1908.0967
 20
1417.4087
 10
1911.6213
 20
1417.5297
 10
1919.2948
 20
1417.1422
 10
1929.4549
 20
1416.6291
 10
1952.8387
 20
1414.8403
 10
1983.8006
 20
1412.4719
 10
1988.8475
 20
1411.7761
 10
2001.7292
 20
1410.0
 10
2002.079
 20
1410.0
 10
2046.0676
 20
1410.0
 10
2063.3708
 20
1410.0
 10
2093.6824
 20
1414.8818
 10
2097.8708
 20
1415.1621
 10
2115.1002
 20
1416.3152
 10
2118.3995
 20
1416.3575
 10
2129.7355
 20
1416.5026
 10
2138.0306
 20
1417.3581
 10
2143.2088
 20
1417.8921
 10
2158.5925
 20
1417.1771
 10
2190.4276
 20
1419.2138
 10
2236.7064
 20
1417.6849
 10
2253.2383
 20
1417.6105
 10
2262.3203
 20
1417.0551
 10
2294.353
 20
1413.196
 10
2309.2329
 20
1411.9797
 10
2333.4524
 20
1410.0
 10
2333.5774
 20
1409.9963
 10
2333.5888
 20
1409.9959
 10
2333.6236
 20
1409.9967
 10
2333.9193
 20
1409.9949
 10
2345.6599
 20
1409.9779
 10
2346.5479
 20
1410.0
 10
2356.8865
 20
1410.723
 10
2364.1114
 20
1412.3299
 10
2398.5991
 20
1420.0
 10
2406.2858
 20
1422.4557
 10
2414.7846
 20
1425.1024
 10
2430.5111
 20
1430.0
 10
2452.1785
 20
1435.8472
 10
2453.7312
 20
1436.1232
 10
2470.5229
 20
1439.1073
 10
2477.02
 20
1440.0
 10
2493.791
 20
1440.0
 10
2514.5212
 20
1440.0
 10
2519.4576
 20
1440.0
 10
2521.1304
 20
1440.0
 10
2526.0332
 20
1440.0
 10
2527.8177
 20
1440.0
 10
2528.2958
 20
1440.0
 10
2529.6757
 20
1440.0
 10
2554.949
 20
1434.4089
 10
2561.4427
 20
1432.3556
 10
2568.4316
 20
1430.0
 10
2570.857
 20
1428.9913
 10
2590.5788
 20
1420.7886
 10
2591.8363
 20
1420.0
 10
2593.9203
 20
1419.0404
 10
2594.3372
 20
1418.7957
 10
2609.3236
 20
1410.0
 10
2610.2784
 20
1409.4617
 10
2615.0539
 20
1406.7688
 10
2624.5659
 20
1401.2427
 10
2626.7049
 20
1400.0
 10
2630.9626
 20
1397.1624
 10
2642.46
 20
1390.0
 10
2646.1095
 20
1387.6464
 10
2656.6661
 20
1380.8383
 10
2657.5701
 20
1380.2343
 10
2657.9208
 20
1380.0
 10
2658.9217
 20
1379.2249
 10
2670.7942
 20
1370.0
 10
2673.9251
 20
1367.7412
 10
2678.3093
 20
1364.5781
 10
2685.2766
 20
1360.0
 10
2691.7721
 20
1356.3185
 10
2698.779
 20
1352.3472
 10
2704.1485
 20
1350.0
 10
2717.2268
 20
1344.7851
 10
2717.2852
 20
1344.7579
 10
2727.4878
 20
1340.0
 10
2727.5022
 20
1339.9964
 10
2729.2896
 20
1339.5513
 10
2729.345
 20
1339.5375
 10
2736.1004
 20
1337.855
 10
2736.1265
 20
1337.8547
 10
2739.2962
 20
1337.8187
 10
2739.569
 20
1337.8264
 10
2760.7226
 20
1338.4203
 10
2761.0648
 20
1338.4299
 10
2772.798
 20
1339.495
 10
2785.3194
 20
1340.0
 10
2788.7496
 20
1341.3237
 10
2797.0564
 20
1344.5293
 10
2808.1058
 20
1349.9857
 10
2808.1349
 20
1350.0
 10
2813.0789
 20
1352.3453
 10
2827.3383
 20
1360.0
 10
2833.8626
 20
1363.0782
 10
2844.8821
 20
1368.2771
 10
2846.9281
 20
1369.5118
 10
2847.7371
 20
1370.0
 10
2859.416
 20
1375.0533
 10
2869.5188
 20
1380.0
 10
2876.4279
 20
1381.6053
 10
2912.3826
 20
1389.9589
 10
2912.5208
 20
1390.0
 10
2912.6966
 20
1390.0228
 10
2912.8056
 20
1390.0354
 10
2913.0907
 20
1390.0813
 10
2913.2857
 20
1390.1163
 10
2968.3703
 20
1400.0
 10
2975.1452
 20
1401.3758
 10
3010.1597
 20
1408.4861
 10
3016.2391
 20
1409.8633
 10
3016.8428
 20
1410.0
 10
3018.1404
 20
1410.3223
 10
3020.5514
 20
1410.7795
 10
3045.7923
 20
1415.1338
 10
3050.8049
 20
1415.6427
 10
3068.8673
 20
1417.4765
 10
3076.0692
 20
1417.9413
 10
3092.3654
 20
1417.4809
 10
3099.6878
 20
1417.3022
 10
3150.3373
 20
1416.0668
 10
3157.2067
 20
1416.2778
 10
3163.1373
 20
1416.7845
 10
3185.2369
 20
1418.6724
 10
3191.4358
 20
1419.6553
 10
3193.6103
 20
1420.0
 10
3219.2271
 20
1423.1179
 10
3253.8319
 20
1430.0
 10
3275.8463
 20
1430.6501
 10
3282.6886
 20
1430.7283
 10
3297.94
 20
1430.9028
 10
3303.1019
 20
1430.7603
 10
3304.1307
 20
1430.7213
 10
3321.8674
 20
1430.0501
 10
3322.1962
 20
1430.0377
 10
3323.1907
 20
1430.0
 10
3327.881
 20
1429.3735
 10
3342.0685
 20
1427.4783
 10
3346.1787
 20
1426.5565
 10
3358.6112
 20
1423.7684
 10
3381.9429
 20
1420.0
 10
3382.828
 20
1419.8559
 10
3403.194
 20
1416.5387
 10
3403.8986
 20
1416.4517
 10
3415.1066
 20
1415.0674
 10
3415.2813
 20
1415.0458
 10
3418.8668
 20
1414.603
 10
3426.4334
 20
1413.8942
  0
LWPOLYLINE
  5
51
330
17
100
AcDbEntity
  8
0
100
AcDbPolyline
 90
2
 70
0
 10
0.0
 20
1356.4416
 10
0.0
 20
1456.4416
  0
LWPOLYLINE
  5
52
330
17
100
AcDbEntity
  8
0
100
AcDbPolyline
 90
2
 70
0
 10
100.0
 20
1333.6451
 10
100.0
 20
1433.6451
  0
LWPOLYLINE
  5
53
330
17
100
AcDbEntity
  8
0
100
AcDbPolyline
 90
2
 70
0
 10
200.0
 20
1274.5283
 10
200.0
 20
1374.5283
  0
LWPOLYLINE
  5
54
330
17
100
AcDbEntity
  8
0
100
AcDbPolyline
 90
2
 70
0
 10
300.0
 20
1257.5594
 10
300.0
 20
1357.5594
  0
LWPOLYLINE
  5
55
330
17
100
AcDbEntity
  8
0
100
AcDbPolyline
 90
2
 70
0
 10
400.0
 20
1282.2008
 10
400.0
 20
1382.2008
  0
LWPOLYLINE
  5
56
330
17
100
AcDbEntity
  8
0
100
AcDbPolyline
 90
2
 70
0
 10
500.0
 20
1323.8118
 10
500.0
 20
1423.8118
  0
ENDSEC
  0
SECTION
  2
OBJECTS
  0
DICTIONARY
  5
A
330
0
100
AcDbDictionary
280
0
281
1
  3
ACAD_COLOR
350
B
  3
ACAD_GROUP
350
C
  3
ACAD_LAYOUT
350
D
  3
ACAD_MATERIAL
350
E
  3
ACAD_MLEADERSTYLE
350
F
  3
ACAD_MLINESTYLE
350
10
  3
ACAD_PLOTSETTINGS
350
11
  3
ACAD_PLOTSTYLENAME
350
12
  3
ACAD_SCALELIST
350
14
  3
ACAD_TABLESTYLE
350
15
  3
ACAD_VISUALSTYLE
350
16
  3
EZDXF_META
350
2D
  0
DICTIONARY
  5
B
330
A
100
AcDbDictionary
280
0
281
1
  0
DICTIONARY
  5
C
330
A
100
AcDbDictionary
280
0
281
1
  0
DICTIONARY
  5
D
330
A
100
AcDbDictionary
280
0
281
1
  3
Model
350
1A
  3
Layout1
350
1E
  0
DICTIONARY
  5
E
330
A
100
AcDbDictionary
280
0
281
1
  3
ByBlock
350
1F
  3
ByLayer
350
20
  3
Global
350
21
  0
DICTIONARY
  5
F
330
A
100
AcDbDictionary
280
0
281
1
  3
Standard
350
2C
  0
DICTIONARY
  5
10
330
A
100
AcDbDictionary
280
0
281
1
  3
Standard
350
22
  0
DICTIONARY
  5
11
330
A
100
AcDbDictionary
280
0
281
1
  0
ACDBDICTIONARYWDFLT
  5
12
330
A
100
AcDbDictionary
280
0
281
1
  3
Normal
350
13
100
AcDbDictionaryWithDefault
340
13
  0
ACDBPLACEHOLDER
  5
13
330
12
  0
DICTIONARY
  5
14
330
A
100
AcDbDictionary
280
0
281
1
  0
DICTIONARY
  5
15
330
A
100
AcDbDictionary
280
0
281
1
  0
DICTIONARY
  5
16
330
A
100
AcDbDictionary
280
0
281
1
  0
LAYOUT
  5
1A
330
D
100
AcDbPlotSettings
  1

  2
Adobe PDF
  4
A3
  6

 40
7.5
 41
20.0
 42
7.5
 43
20.0
 44
420.0
 45
297.0
 46
0.0
 47
0.0
 48
0.0
 49
0.0
140
0.0
141
0.0
142
1.0
143
1.0
 70
1024
 72
1
 73
0
 74
5
  7

 75
16
 76
0
 77
2
 78
300
147
1.0
148
0.0
149
0.0
100
AcDbLayout
  1
Model
 70
1
 71
0
 10
0.0
 20
0.0
 11
420.0
 21
297.0
 12
0.0
 22
0.0
 32
0.0
 14
1e+20
 24
1e+20
 34
1e+20
 15
-1e+20
 25
-1e+20
 35
-1e+20
146
0.0
 13
0.0
 23
0.0
 33
0.0
 16
1.0
 26
0.0
 36
0.0
 17
0.0
 27
1.0
 37
0.0
 76
1
330
17
  0
LAYOUT
  5
1E
330
D
100
AcDbPlotSettings
  1

  2
Adobe PDF
  4
A3
  6

 40
7.5
 41
20.0
 42
7.5
 43
20.0
 44
420.0
 45
297.0
 46
0.0
 47
0.0
 48
0.0
 49
0.0
140
0.0
141
0.0
142
1.0
143
1.0
 70
0
 72
1
 73
0
 74
5
  7

 75
16
 76
0
 77
2
 78
300
147
1.0
148
0.0
149
0.0
100
AcDbLayout
  1
Layout1
 70
1
 71
1
 10
0.0
 20
0.0
 11
420.0
 21
297.0
 12
0.0
 22
0.0
 32
0.0
 14
1e+20
 24
1e+20
 34
1e+20
 15
-1e+20
 25
-1e+20
 35
-1e+20
146
0.0
 13
0.0
 23
0.0
 33
0.0
 16
1.0
 26
0.0
 36
0.0
 17
0.0
 27
1.0
 37
0.0
 76
1
330
1B
  0
MATERIAL
  5
1F
102
{ACAD_REACTORS
330
E
102
}
330
E
100
AcDbMaterial
  1
ByBlock
  2

 70
0
 40
1.0
 71
1
 41
1.0
 91
-1023410177
 42
1.0
 72
1
  3

 73
1
 74
1
 75
1
 44
0.5
 73
0
 45
1.0
 46
1.0
 77
1
  4

 78
1
 79
1
170
1
 48
1.0
171
1
  6

172
1
173
1
174
1
140
1.0
141
1.0
175
1
  7

176
1
177
1
178
1
143
1.0
179
1
  8

270
1
271
1
272
1
145
1.0
146
1.0
273
1
  9

274
1
275
1
276
1
 42
1.0
 72
1
  3

 73
1
 74
1
 75
1
 94
63
  0
MATERIAL
  5
20
102
{ACAD_REACTORS
330
E
102
}
330
E
100
AcDbMaterial
  1
ByLayer
  2

 70
0
 40
1.0
 71
1
 41
1.0
 91
-1023410177
 42
1.0
 72
1
  3

 73
1
 74
1
 75
1
 44
0.5
 73
0
 45
1.0
 46
1.0
 77
1
  4

 78
1
 79
1
170
1
 48
1.0
171
1
  6

172
1
173
1
174
1
140
1.0
141
1.0
175
1
  7

176
1
177
1
178
1
143
1.0
179
1
  8

270
1
271
1
272
1
145
1.0
146
1.0
273
1
  9

274
1
275
1
276
1
 42
1.0
 72
1
  3

 73
1
 74
1
 75
1
 94
63
  0
MATERIAL
  5
21
102
{ACAD_REACTORS
330
E
102
}
330
E
100
AcDbMaterial
  1
Global
  2

 70
0
 40
1.0
 71
1
 41
1.0
 91
-1023410177
 42
1.0
 72
1
  3

 73
1
 74
1
 75
1
 44
0.5
 73
0
 45
1.0
 46
1.0
 77
1
  4

 78
1
 79
1
170
1
 48
1.0
171
1
  6

172
1
173
1
174
1
140
1.0
141
1.0
175
1
  7

176
1
177
1
178
1
143
1.0
179
1
  8

270
1
271
1
272
1
145
1.0
146
1.0
273
1
  9

274
1
275
1
276
1
 42
1.0
 72
1
  3

 73
1
 74
1
 75
1
 94
63
  0
MLINESTYLE
  5
22
102
{ACAD_REACTORS
330
10
102
}
330
10
100
AcDbMlineStyle
  2
Standard
 70
0
  3

 62
256
 51
90.0
 52
90.0
 71
2
 49
0.5
 62
256
  6
BYLAYER
 49
-0.5
 62
256
  6
BYLAYER
  0
MLEADERSTYLE
  5
2C
102
{ACAD_REACTORS
330
F
102
}
330
F
100
AcDbMLeaderStyle
179
2
170
2
171
1
172
0
 90
2
 40
0.0
 41
0.0
173
1
 91
-1056964608
 92
-2
290
1
 42
2.0
291
1
 43
8.0
  3
Standard
 44
4.0
300

342
29
174
1
175
1
176
0
178
1
 93
-1056964608
 45
4.0
292
0
297
0
 46
4.0
 94
-1056964608
 47
1.0
 49
1.0
140
1.0
294
1
141
0.0
177
0
142
1.0
295
0
296
0
143
3.75
271
0
272
9
273
9
  0
DICTIONARY
  5
2D
330
A
100
AcDbDictionary
281
1
  3
CREATED_BY_EZDXF
350
2E
  3
WRITTEN_BY_EZDXF
350
36
  0
DICTIONARYVAR
  5
2E
330
2D
100
DictionaryVariables
280
0
  1
1.0.3 @ 2023-08-28T02:07:23.240058+00:00
  0
DICTIONARYVAR
  5
36
330
2D
100
DictionaryVariables
280
0
  1
1.0.3 @ 2023-09-03T17:33:24.475619+00:00
  0
ENDSEC
  0
EOF
