  0
SECTION
  2
HEADER
  9
$ACADVER
  1
AC1027
  9
$ACADMAINTVER
 70
105
  9
$DWGCODEPAGE
  3
ANSI_1252
  9
$LASTSAVEDBY
  1
ezdxf
  9
$REQUIREDVERSIONS
160
0
  9
$INSBASE
 10
0.0
 20
0.0
 30
0.0
  9
$EXTMIN
 10
1e+20
 20
1e+20
 30
1e+20
  9
$EXTMAX
 10
-1e+20
 20
-1e+20
 30
-1e+20
  9
$LIMMIN
 10
0.0
 20
0.0
  9
$LIMMAX
 10
420.0
 20
297.0
  9
$ORTHOMODE
 70
0
  9
$REGENMODE
 70
1
  9
$FILLMODE
 70
1
  9
$QTEXTMODE
 70
0
  9
$MIRRTEXT
 70
1
  9
$LTSCALE
 40
1.0
  9
$ATTMODE
 70
1
  9
$TEXTSIZE
 40
2.5
  9
$TRACEWID
 40
1.0
  9
$TEXTSTYLE
  7
Standard
  9
$CLAYER
  8
0
  9
$CELTYPE
  6
ByLayer
  9
$CECOLOR
 62
256
  9
$CELTSCALE
 40
1.0
  9
$DISPSILH
 70
0
  9
$DIMSCALE
 40
1.0
  9
$DIMASZ
 40
2.5
  9
$DIMEXO
 40
0.625
  9
$DIMDLI
 40
3.75
  9
$DIMRND
 40
0.0
  9
$DIMDLE
 40
0.0
  9
$DIMEXE
 40
1.25
  9
$DIMTP
 40
0.0
  9
$DIMTM
 40
0.0
  9
$DIMTXT
 40
2.5
  9
$DIMCEN
 40
2.5
  9
$DIMTSZ
 40
0.0
  9
$DIMTOL
 70
0
  9
$DIMLIM
 70
0
  9
$DIMTIH
 70
0
  9
$DIMTOH
 70
0
  9
$DIMSE1
 70
0
  9
$DIMSE2
 70
0
  9
$DIMTAD
 70
1
  9
$DIMZIN
 70
8
  9
$DIMBLK
  1

  9
$DIMASO
 70
1
  9
$DIMSHO
 70
1
  9
$DIMPOST
  1

  9
$DIMAPOST
  1

  9
$DIMALT
 70
0
  9
$DIMALTD
 70
3
  9
$DIMALTF
 40
0.03937007874
  9
$DIMLFAC
 40
1.0
  9
$DIMTOFL
 70
1
  9
$DIMTVP
 40
0.0
  9
$DIMTIX
 70
0
  9
$DIMSOXD
 70
0
  9
$DIMSAH
 70
0
  9
$DIMBLK1
  1

  9
$DIMBLK2
  1

  9
$DIMSTYLE
  2
ISO-25
  9
$DIMCLRD
 70
0
  9
$DIMCLRE
 70
0
  9
$DIMCLRT
 70
0
  9
$DIMTFAC
 40
1.0
  9
$DIMGAP
 40
0.625
  9
$DIMJUST
 70
0
  9
$DIMSD1
 70
0
  9
$DIMSD2
 70
0
  9
$DIMTOLJ
 70
0
  9
$DIMTZIN
 70
8
  9
$DIMALTZ
 70
0
  9
$DIMALTTZ
 70
0
  9
$DIMUPT
 70
0
  9
$DIMDEC
 70
2
  9
$DIMTDEC
 70
2
  9
$DIMALTU
 70
2
  9
$DIMALTTD
 70
3
  9
$DIMTXSTY
  7
Standard
  9
$DIMAUNIT
 70
0
  9
$DIMADEC
 70
0
  9
$DIMALTRND
 40
0.0
  9
$DIMAZIN
 70
0
  9
$DIMDSEP
 70
44
  9
$DIMATFIT
 70
3
  9
$DIMFRAC
 70
0
  9
$DIMLDRBLK
  1

  9
$DIMLUNIT
 70
2
  9
$DIMLWD
 70
-2
  9
$DIMLWE
 70
-2
  9
$DIMTMOVE
 70
0
  9
$DIMFXL
 40
1.0
  9
$DIMFXLON
 70
0
  9
$DIMJOGANG
 40
0.785398163397
  9
$DIMTFILL
 70
0
  9
$DIMTFILLCLR
 70
0
  9
$DIMARCSYM
 70
0
  9
$DIMLTYPE
  6

  9
$DIMLTEX1
  6

  9
$DIMLTEX2
  6

  9
$DIMTXTDIRECTION
 70
0
  9
$LUNITS
 70
2
  9
$LUPREC
 70
4
  9
$SKETCHINC
 40
1.0
  9
$FILLETRAD
 40
10.0
  9
$AUNITS
 70
0
  9
$AUPREC
 70
2
  9
$MENU
  1
.
  9
$ELEVATION
 40
0.0
  9
$PELEVATION
 40
0.0
  9
$THICKNESS
 40
0.0
  9
$LIMCHECK
 70
0
  9
$CHAMFERA
 40
0.0
  9
$CHAMFERB
 40
0.0
  9
$CHAMFERC
 40
0.0
  9
$CHAMFERD
 40
0.0
  9
$SKPOLY
 70
0
  9
$TDCREATE
 40
2460211.925324074
  9
$TDUCREATE
 40
2458532.153996898
  9
$TDUPDATE
 40
2460211.925324074
  9
$TDUUPDATE
 40
2458532.1544311
  9
$TDINDWG
 40
0.0
  9
$TDUSRTIMER
 40
0.0
  9
$USRTIMER
 70
1
  9
$ANGBASE
 50
0.0
  9
$ANGDIR
 70
0
  9
$PDMODE
 70
0
  9
$PDSIZE
 40
0.0
  9
$PLINEWID
 40
0.0
  9
$SPLFRAME
 70
0
  9
$SPLINETYPE
 70
6
  9
$SPLINESEGS
 70
8
  9
$HANDSEED
  5
274
  9
$SURFTAB1
 70
6
  9
$SURFTAB2
 70
6
  9
$SURFTYPE
 70
6
  9
$SURFU
 70
6
  9
$SURFV
 70
6
  9
$UCSBASE
  2

  9
$UCSNAME
  2

  9
$UCSORG
 10
0.0
 20
0.0
 30
0.0
  9
$UCSXDIR
 10
1.0
 20
0.0
 30
0.0
  9
$UCSYDIR
 10
0.0
 20
1.0
 30
0.0
  9
$UCSORTHOREF
  2

  9
$UCSORTHOVIEW
 70
0
  9
$UCSORGTOP
 10
0.0
 20
0.0
 30
0.0
  9
$UCSORGBOTTOM
 10
0.0
 20
0.0
 30
0.0
  9
$UCSORGLEFT
 10
0.0
 20
0.0
 30
0.0
  9
$UCSORGRIGHT
 10
0.0
 20
0.0
 30
0.0
  9
$UCSORGFRONT
 10
0.0
 20
0.0
 30
0.0
  9
$UCSORGBACK
 10
0.0
 20
0.0
 30
0.0
  9
$PUCSBASE
  2

  9
$PUCSNAME
  2

  9
$PUCSORG
 10
0.0
 20
0.0
 30
0.0
  9
$PUCSXDIR
 10
1.0
 20
0.0
 30
0.0
  9
$PUCSYDIR
 10
0.0
 20
1.0
 30
0.0
  9
$PUCSORTHOREF
  2

  9
$PUCSORTHOVIEW
 70
0
  9
$PUCSORGTOP
 10
0.0
 20
0.0
 30
0.0
  9
$PUCSORGBOTTOM
 10
0.0
 20
0.0
 30
0.0
  9
$PUCSORGLEFT
 10
0.0
 20
0.0
 30
0.0
  9
$PUCSORGRIGHT
 10
0.0
 20
0.0
 30
0.0
  9
$PUCSORGFRONT
 10
0.0
 20
0.0
 30
0.0
  9
$PUCSORGBACK
 10
0.0
 20
0.0
 30
0.0
  9
$USERI1
 70
0
  9
$USERI2
 70
0
  9
$USERI3
 70
0
  9
$USERI4
 70
0
  9
$USERI5
 70
0
  9
$USERR1
 40
0.0
  9
$USERR2
 40
0.0
  9
$USERR3
 40
0.0
  9
$USERR4
 40
0.0
  9
$USERR5
 40
0.0
  9
$WORLDVIEW
 70
1
  9
$SHADEDGE
 70
3
  9
$SHADEDIF
 70
70
  9
$TILEMODE
 70
1
  9
$MAXACTVP
 70
64
  9
$PINSBASE
 10
0.0
 20
0.0
 30
0.0
  9
$PLIMCHECK
 70
0
  9
$PEXTMIN
 10
1e+20
 20
1e+20
 30
1e+20
  9
$PEXTMAX
 10
-1e+20
 20
-1e+20
 30
-1e+20
  9
$PLIMMIN
 10
0.0
 20
0.0
  9
$PLIMMAX
 10
420.0
 20
297.0
  9
$UNITMODE
 70
0
  9
$VISRETAIN
 70
1
  9
$PLINEGEN
 70
0
  9
$PSLTSCALE
 70
1
  9
$TREEDEPTH
 70
3020
  9
$CMLSTYLE
  2
Standard
  9
$CMLJUST
 70
0
  9
$CMLSCALE
 40
20.0
  9
$PROXYGRAPHICS
 70
1
  9
$MEASUREMENT
 70
1
  9
$CELWEIGHT
370
-1
  9
$ENDCAPS
280
0
  9
$JOINSTYLE
280
0
  9
$LWDISPLAY
290
0
  9
$INSUNITS
 70
6
  9
$HYPERLINKBASE
  1

  9
$STYLESHEET
  1

  9
$XEDIT
290
1
  9
$CEPSNTYPE
380
0
  9
$PSTYLEMODE
290
1
  9
$FINGERPRINTGUID
  2
{19DDA380-FE7B-41A7-9612-9FA7162BA4DB}
  9
$VERSIONGUID
  2
{5D37D2BD-E908-4DFD-A8E9-16B3B4D709DF}
  9
$EXTNAMES
290
1
  9
$PSVPSCALE
 40
0.0
  9
$OLESTARTUP
290
0
  9
$SORTENTS
280
127
  9
$INDEXCTL
280
0
  9
$HIDETEXT
280
1
  9
$XCLIPFRAME
280
0
  9
$HALOGAP
280
0
  9
$OBSCOLOR
 70
257
  9
$OBSLTYPE
280
0
  9
$INTERSECTIONDISPLAY
280
0
  9
$INTERSECTIONCOLOR
 70
257
  9
$DIMASSOC
280
2
  9
$PROJECTNAME
  1

  9
$CAMERADISPLAY
290
0
  9
$LENSLENGTH
 40
50.0
  9
$CAMERAHEIGHT
 40
0.0
  9
$STEPSPERSEC
 40
24.0
  9
$STEPSIZE
 40
100.0
  9
$3DDWFPREC
 40
2.0
  9
$PSOLWIDTH
 40
0.005
  9
$PSOLHEIGHT
 40
0.08
  9
$LOFTANG1
 40
1.570796326795
  9
$LOFTANG2
 40
1.570796326795
  9
$LOFTMAG1
 40
0.0
  9
$LOFTMAG2
 40
0.0
  9
$LOFTPARAM
 70
7
  9
$LOFTNORMALS
280
1
  9
$LATITUDE
 40
37.795
  9
$LONGITUDE
 40
-122.394
  9
$NORTHDIRECTION
 40
0.0
  9
$TIMEZONE
 70
-8000
  9
$LIGHTGLYPHDISPLAY
280
1
  9
$TILEMODELIGHTSYNCH
280
1
  9
$CMATERIAL
347
20
  9
$SOLIDHIST
280
0
  9
$SHOWHIST
280
1
  9
$DWFFRAME
280
2
  9
$DGNFRAME
280
2
  9
$REALWORLDSCALE
290
1
  9
$INTERFERECOLOR
 62
256
  9
$CSHADOW
280
0
  9
$SHADOWPLANELOCATION
 40
0.0
  0
ENDSEC
  0
SECTION
  2
CLASSES
  0
CLASS
  1
ACDBDICTIONARYWDFLT
  2
AcDbDictionaryWithDefault
  3
ObjectDBX Classes
 90
0
 91
0
280
0
281
0
  0
CLASS
  1
SUN
  2
AcDbSun
  3
SCENEOE
 90
1153
 91
0
280
0
281
0
  0
CLASS
  1
VISUALSTYLE
  2
AcDbVisualStyle
  3
ObjectDBX Classes
 90
4095
 91
0
280
0
281
0
  0
CLASS
  1
MATERIAL
  2
AcDbMaterial
  3
ObjectDBX Classes
 90
1153
 91
0
280
0
281
0
  0
CLASS
  1
SCALE
  2
AcDbScale
  3
ObjectDBX Classes
 90
1153
 91
0
280
0
281
0
  0
CLASS
  1
TABLESTYLE
  2
AcDbTableStyle
  3
ObjectDBX Classes
 90
4095
 91
0
280
0
281
0
  0
CLASS
  1
MLEADERSTYLE
  2
AcDbMLeaderStyle
  3
ACDB_MLEADERSTYLE_CLASS
 90
4095
 91
0
280
0
281
0
  0
CLASS
  1
DICTIONARYVAR
  2
AcDbDictionaryVar
  3
ObjectDBX Classes
 90
0
 91
0
280
0
281
0
  0
CLASS
  1
CELLSTYLEMAP
  2
AcDbCellStyleMap
  3
ObjectDBX Classes
 90
1152
 91
0
280
0
281
0
  0
CLASS
  1
MENTALRAYRENDERSETTINGS
  2
AcDbMentalRayRenderSettings
  3
SCENEOE
 90
1024
 91
0
280
0
281
0
  0
CLASS
  1
ACDBDETAILVIEWSTYLE
  2
AcDbDetailViewStyle
  3
ObjectDBX Classes
 90
1025
 91
0
280
0
281
0
  0
CLASS
  1
ACDBSECTIONVIEWSTYLE
  2
AcDbSectionViewStyle
  3
ObjectDBX Classes
 90
1025
 91
0
280
0
281
0
  0
CLASS
  1
RASTERVARIABLES
  2
AcDbRasterVariables
  3
ISM
 90
0
 91
0
280
0
281
0
  0
CLASS
  1
ACDBPLACEHOLDER
  2
AcDbPlaceHolder
  3
ObjectDBX Classes
 90
0
 91
0
280
0
281
0
  0
CLASS
  1
LAYOUT
  2
AcDbLayout
  3
ObjectDBX Classes
 90
0
 91
0
280
0
281
0
  0
ENDSEC
  0
SECTION
  2
TABLES
  0
TABLE
  2
VPORT
  5
8
330
0
100
AcDbSymbolTable
 70
1
  0
VPORT
  5
23
330
8
100
AcDbSymbolTableRecord
100
AcDbViewportTableRecord
  2
*Active
 70
0
 10
0.0
 20
0.0
 11
1.0
 21
1.0
 12
0.0
 22
0.0
 13
0.0
 23
0.0
 14
0.5
 24
0.5
 15
0.5
 25
0.5
 16
0.0
 26
0.0
 36
1.0
 17
0.0
 27
0.0
 37
0.0
 40
1000.0
 41
1.34
 42
50.0
 43
0.0
 44
0.0
 50
0.0
 51
0.0
 71
0
 72
1000
 73
1
 74
3
 75
0
 76
0
 77
0
 78
0
281
0
 65
0
146
0.0
  0
ENDTAB
  0
TABLE
  2
LTYPE
  5
2
330
0
100
AcDbSymbolTable
 70
3
  0
LTYPE
  5
24
330
2
100
AcDbSymbolTableRecord
100
AcDbLinetypeTableRecord
  2
ByBlock
 70
0
  3

 72
65
 73
0
 40
0.0
  0
LTYPE
  5
25
330
2
100
AcDbSymbolTableRecord
100
AcDbLinetypeTableRecord
  2
ByLayer
 70
0
  3

 72
65
 73
0
 40
0.0
  0
LTYPE
  5
26
330
2
100
AcDbSymbolTableRecord
100
AcDbLinetypeTableRecord
  2
Continuous
 70
0
  3

 72
65
 73
0
 40
0.0
  0
ENDTAB
  0
TABLE
  2
LAYER
  5
1
330
0
100
AcDbSymbolTable
 70
2
  0
LAYER
  5
27
330
1
100
AcDbSymbolTableRecord
100
AcDbLayerTableRecord
  2
0
 70
0
 62
7
  6
Continuous
370
-3
390
13
347
21
  0
LAYER
  5
28
330
1
100
AcDbSymbolTableRecord
100
AcDbLayerTableRecord
  2
Defpoints
 70
0
 62
7
  6
Continuous
290
0
370
-3
390
13
347
21
  0
ENDTAB
  0
TABLE
  2
STYLE
  5
5
330
0
100
AcDbSymbolTable
 70
1
  0
STYLE
  5
29
330
5
100
AcDbSymbolTableRecord
100
AcDbTextStyleTableRecord
  2
Standard
 70
0
 40
0.0
 41
1.0
 50
0.0
 71
0
 42
2.5
  3
txt
  4

  0
ENDTAB
  0
TABLE
  2
VIEW
  5
7
330
0
100
AcDbSymbolTable
 70
0
  0
ENDTAB
  0
TABLE
  2
UCS
  5
6
330
0
100
AcDbSymbolTable
 70
0
  0
ENDTAB
  0
TABLE
  2
APPID
  5
3
330
0
100
AcDbSymbolTable
 70
3
  0
APPID
  5
2A
330
3
100
AcDbSymbolTableRecord
100
AcDbRegAppTableRecord
  2
ACAD
 70
0
  0
APPID
  5
30
330
3
100
AcDbSymbolTableRecord
100
AcDbRegAppTableRecord
  2
HATCHBACKGROUNDCOLOR
 70
0
  0
APPID
  5
31
330
3
100
AcDbSymbolTableRecord
100
AcDbRegAppTableRecord
  2
EZDXF
 70
0
  0
ENDTAB
  0
TABLE
  2
DIMSTYLE
  5
4
330
0
100
AcDbSymbolTable
 70
1
100
AcDbDimStyleTable
  0
DIMSTYLE
105
2B
330
4
100
AcDbSymbolTableRecord
100
AcDbDimStyleTableRecord
  2
Standard
 70
0
 40
1.0
 41
2.5
 42
0.625
 43
3.75
 44
1.25
 45
0.0
 46
0.0
 47
0.0
 48
0.0
 49
2.5
140
2.5
141
2.5
142
0.0
143
0.03937007874
144
1.0
145
0.0
146
1.0
147
0.625
148
0.0
 69
0
 70
0
 71
0
 72
0
 73
0
 74
0
 75
0
 76
0
 77
1
 78
8
 79
3
170
0
171
3
172
1
173
0
174
0
175
0
176
0
177
0
178
0
179
2
271
2
272
2
273
2
274
3
275
0
276
0
277
2
278
44
279
0
280
0
281
0
282
0
283
0
284
8
285
0
286
0
288
0
289
3
290
0
371
-2
372
-2
  0
ENDTAB
  0
TABLE
  2
BLOCK_RECORD
  5
9
330
0
100
AcDbSymbolTable
 70
2
  0
BLOCK_RECORD
  5
17
330
9
100
AcDbSymbolTableRecord
100
AcDbBlockTableRecord
  2
*Model_Space
340
1A
 70
0
280
1
281
0
  0
BLOCK_RECORD
  5
1B
330
9
100
AcDbSymbolTableRecord
100
AcDbBlockTableRecord
  2
*Paper_Space
340
1E
 70
0
280
1
281
0
  0
ENDTAB
  0
ENDSEC
  0
SECTION
  2
BLOCKS
  0
BLOCK
  5
18
330
17
100
AcDbEntity
  8
0
100
AcDbBlockBegin
  2
*Model_Space
 70
0
 10
0.0
 20
0.0
 30
0.0
  3
*Model_Space
  1

  0
ENDBLK
  5
19
330
17
100
AcDbEntity
  8
0
100
AcDbBlockEnd
  0
BLOCK
  5
1C
330
1B
100
AcDbEntity
  8
0
100
AcDbBlockBegin
  2
*Paper_Space
 70
0
 10
0.0
 20
0.0
 30
0.0
  3
*Paper_Space
  1

  0
ENDBLK
  5
1D
330
1B
100
AcDbEntity
  8
0
100
AcDbBlockEnd
  0
ENDSEC
  0
SECTION
  2
ENTITIES
  0
LWPOLYLINE
  5
238
330
17
100
AcDbEntity
  8
0
100
AcDbPolyline
 90
353
 70
0
 10
0.0
 20
1356.4416
 10
0.0
 20
1356.4416
 10
8.6489
 20
1357.9059
 10
11.6826
 20
1358.2504
 10
12.8386
 20
1358.3817
 10
16.9872
 20
1358.1077
 10
19.029
 20
1358.0717
 10
28.9321
 20
1357.8971
 10
36.596
 20
1356.425
 10
40.4534
 20
1355.684
 10
63.0346
 20
1350.0
 10
80.0984
 20
1343.3077
 10
87.8075
 20
1340.0
 10
92.9356
 20
1337.5166
 10
100.0
 20
1333.6451
 10
106.651
 20
1330.0
 10
115.5001
 20
1325.9055
 10
118.1865
 20
1324.2557
 10
125.1164
 20
1320.0
 10
127.8314
 20
1318.3646
 10
139.4499
 20
1311.3663
 10
141.7514
 20
1310.0
 10
143.5848
 20
1308.9695
 10
145.7029
 20
1307.6448
 10
157.9269
 20
1300.0
 10
159.7824
 20
1298.7993
 10
165.092
 20
1295.3633
 10
172.8788
 20
1290.0491
 10
172.9507
 20
1290.0
 10
186.7912
 20
1281.7407
 10
186.9397
 20
1281.6521
 10
189.877
 20
1280.0
 10
193.9376
 20
1277.6253
 10
200.0
 20
1274.5283
 10
208.8641
 20
1270.0
 10
222.4238
 20
1264.0481
 10
224.3385
 20
1263.3002
 10
232.787
 20
1260.0
 10
234.9371
 20
1259.6338
 10
235.4819
 20
1259.5409
 10
244.6367
 20
1257.9814
 10
255.5253
 20
1257.116
 10
255.7717
 20
1257.0964
 10
256.6328
 20
1257.028
 10
258.5589
 20
1257.0174
 10
265.2894
 20
1256.9805
 10
286.3766
 20
1256.5681
 10
286.5928
 20
1256.5638
 10
287.0609
 20
1256.5547
 10
293.4226
 20
1256.8267
 10
293.4714
 20
1256.8287
 10
293.6123
 20
1256.8348
 10
300.0
 20
1257.5594
 10
300.7922
 20
1257.6492
 10
321.5161
 20
1260.0
 10
332.9907
 20
1262.0825
 10
338.8601
 20
1263.8783
 10
358.8685
 20
1270.0
 10
365.1178
 20
1272.2646
 10
375.0526
 20
1275.8645
 10
391.7005
 20
1280.0
 10
400.0
 20
1282.2008
 10
404.7704
 20
1283.4658
 10
411.1241
 20
1286.2943
 10
419.4484
 20
1290.0
 10
426.5064
 20
1292.9967
 10
433.3668
 20
1295.9096
 10
436.9768
 20
1297.0738
 10
442.8676
 20
1298.7503
 10
447.2587
 20
1300.0
 10
454.97
 20
1303.2548
 10
467.6161
 20
1308.5925
 10
471.3187
 20
1310.0
 10
476.7924
 20
1312.6461
 10
480.0633
 20
1314.2273
 10
490.9935
 20
1319.5842
 10
491.8419
 20
1320.0
 10
500.0
 20
1323.8118
 10
512.5736
 20
1329.6866
 10
512.7206
 20
1329.7553
 10
513.2594
 20
1330.0
 10
515.2019
 20
1330.9563
 10
532.4944
 20
1340.0
 10
539.9286
 20
1343.6862
 10
542.1653
 20
1344.7864
 10
552.7649
 20
1350.0
 10
561.7795
 20
1353.0794
 10
566.9746
 20
1354.8111
 10
582.5413
 20
1360.0
 10
586.0607
 20
1360.4614
 10
587.2906
 20
1360.5808
 10
623.8143
 20
1364.1266
 10
626.8386
 20
1364.2519
 10
636.8798
 20
1364.6678
 10
661.3075
 20
1365.2145
 10
667.4132
 20
1364.8406
 10
697.4574
 20
1363.0012
 10
712.6543
 20
1362.7046
 10
721.8542
 20
1361.9689
 10
746.4754
 20
1360.0
 10
764.2766
 20
1358.8107
 10
774.7695
 20
1357.6921
 10
813.6202
 20
1357.5929
 10
821.2377
 20
1358.7049
 10
831.8266
 20
1360.0
 10
848.9644
 20
1363.051
 10
856.7029
 20
1363.5734
 10
858.1169
 20
1363.8872
 10
872.1719
 20
1367.0065
 10
872.5197
 20
1367.0837
 10
874.2834
 20
1367.4751
 10
879.351
 20
1367.8911
 10
905.0413
 20
1370.0
 10
937.3403
 20
1373.7741
 10
959.8228
 20
1375.8388
 10
960.1196
 20
1375.835
 10
981.6139
 20
1375.5619
 10
985.8937
 20
1375.6195
 10
1008.3268
 20
1375.9215
 10
1014.9286
 20
1377.1277
 10
1043.729
 20
1379.1757
 10
1049.7631
 20
1380.0
 10
1055.5566
 20
1380.8263
 10
1060.6534
 20
1381.5859
 10
1060.8111
 20
1381.6156
 10
1083.5661
 20
1385.8983
 10
1084.2274
 20
1386.0014
 10
1109.8734
 20
1390.0
 10
1116.9019
 20
1390.7764
 10
1130.0083
 20
1391.1331
 10
1165.05
 20
1392.0869
 10
1175.508
 20
1391.7162
 10
1215.7346
 20
1390.2905
 10
1219.4317
 20
1390.0
 10
1223.4028
 20
1390.0
 10
1224.4695
 20
1390.0
 10
1247.3763
 20
1390.0
 10
1248.3351
 20
1390.0
 10
1252.408
 20
1390.0
 10
1256.8774
 20
1390.0
 10
1274.0317
 20
1390.0
 10
1278.4437
 20
1390.2492
 10
1297.5631
 20
1391.3288
 10
1303.8216
 20
1391.9797
 10
1307.4663
 20
1392.1588
 10
1338.3973
 20
1393.6789
 10
1359.591
 20
1395.1764
 10
1364.2905
 20
1395.4055
 10
1377.7267
 20
1396.0607
 10
1388.2688
 20
1397.2052
 10
1410.352
 20
1399.6027
 10
1413.3637
 20
1400.0
 10
1434.9511
 20
1403.231
 10
1444.0343
 20
1404.74
 10
1475.6982
 20
1410.0
 10
1505.7196
 20
1413.4255
 10
1517.0171
 20
1414.8043
 10
1526.7541
 20
1415.5645
 10
1557.6465
 20
1417.9765
 10
1566.8575
 20
1419.0405
 10
1567.9366
 20
1419.1652
 10
1575.8636
 20
1419.9403
 10
1576.7058
 20
1419.9346
 10
1577.5579
 20
1419.932
 10
1595.4357
 20
1419.7837
 10
1596.3402
 20
1419.7793
 10
1599.7811
 20
1419.7623
 10
1630.2244
 20
1419.5846
 10
1659.6226
 20
1419.7515
 10
1665.0687
 20
1419.7657
 10
1683.6132
 20
1419.8138
 10
1686.961
 20
1419.8216
 10
1698.5256
 20
1419.8485
 10
1699.6204
 20
1419.8518
 10
1703.539
 20
1419.8639
 10
1716.8762
 20
1419.8939
 10
1724.8701
 20
1419.9119
 10
1730.1589
 20
1419.9356
 10
1745.1608
 20
1419.9361
 10
1747.8147
 20
1419.9433
 10
1753.3738
 20
1419.9652
 10
1761.6931
 20
1419.9526
 10
1761.8407
 20
1419.9334
 10
1763.3883
 20
1419.7325
 10
1763.6549
 20
1419.7045
 10
1766.5169
 20
1419.4039
 10
1767.321
 20
1419.3194
 10
1775.4469
 20
1418.4657
 10
1791.7061
 20
1417.4975
 10
1793.9014
 20
1417.3668
 10
1796.6717
 20
1417.2018
 10
1827.6729
 20
1416.8522
 10
1831.9657
 20
1416.8038
 10
1837.2638
 20
1416.744
 10
1867.8618
 20
1417.0375
 10
1872.2033
 20
1417.0792
 10
1877.4483
 20
1417.1295
 10
1882.4149
 20
1417.1483
 10
1888.4151
 20
1417.171
 10
1901.4633
 20
1417.2832
 10
1903.1721
 20
1417.2979
 10
1905.4347
 20
1417.3174
 10
1908.0967
 20
1417.4087
 10
1911.6213
 20
1417.5297
 10
1919.2948
 20
1417.1422
 10
1929.4549
 20
1416.6291
 10
1952.8387
 20
1414.8403
 10
1983.8006
 20
1412.4719
 10
1988.8475
 20
1411.7761
 10
2001.7292
 20
1410.0
 10
2002.079
 20
1410.0
 10
2046.0676
 20
1410.0
 10
2063.3708
 20
1410.0
 10
2093.6824
 20
1414.8818
 10
2097.8708
 20
1415.1621
 10
2115.1002
 20
1416.3152
 10
2118.3995
 20
1416.3575
 10
2129.7355
 20
1416.5026
 10
2138.0306
 20
1417.3581
 10
2143.2088
 20
1417.8921
 10
2158.5925
 20
1417.1771
 10
2190.4276
 20
1419.2138
 10
2236.7064
 20
1417.6849
 10
2253.2383
 20
1417.6105
 10
2262.3203
 20
1417.0551
 10
2294.353
 20
1413.196
 10
2309.2329
 20
1411.9797
 10
2333.4524
 20
1410.0
 10
2333.5774
 20
1409.9963
 10
2333.5888
 20
1409.9959
 10
2333.6236
 20
1409.9967
 10
2333.9193
 20
1409.9949
 10
2345.6599
 20
1409.9779
 10
2346.5479
 20
1410.0
 10
2356.8865
 20
1410.723
 10
2364.1114
 20
1412.3299
 10
2398.5991
 20
1420.0
 10
2406.2858
 20
1422.4557
 10
2414.7846
 20
1425.1024
 10
2430.5111
 20
1430.0
 10
2452.1785
 20
1435.8472
 10
2453.7312
 20
1436.1232
 10
2470.5229
 20
1439.1073
 10
2477.02
 20
1440.0
 10
2493.791
 20
1440.0
 10
2514.5212
 20
1440.0
 10
2519.4576
 20
1440.0
 10
2521.1304
 20
1440.0
 10
2526.0332
 20
1440.0
 10
2527.8177
 20
1440.0
 10
2528.2958
 20
1440.0
 10
2529.6757
 20
1440.0
 10
2554.949
 20
1434.4089
 10
2561.4427
 20
1432.3556
 10
2568.4316
 20
1430.0
 10
2570.857
 20
1428.9913
 10
2590.5788
 20
1420.7886
 10
2591.8363
 20
1420.0
 10
2593.9203
 20
1419.0404
 10
2594.3372
 20
1418.7957
 10
2609.3236
 20
1410.0
 10
2610.2784
 20
1409.4617
 10
2615.0539
 20
1406.7688
 10
2624.5659
 20
1401.2427
 10
2626.7049
 20
1400.0
 10
2630.9626
 20
1397.1624
 10
2642.46
 20
1390.0
 10
2646.1095
 20
1387.6464
 10
2656.6661
 20
1380.8383
 10
2657.5701
 20
1380.2343
 10
2657.9208
 20
1380.0
 10
2658.9217
 20
1379.2249
 10
2670.7942
 20
1370.0
 10
2673.9251
 20
1367.7412
 10
2678.3093
 20
1364.5781
 10
2685.2766
 20
1360.0
 10
2691.7721
 20
1356.3185
 10
2698.779
 20
1352.3472
 10
2704.1485
 20
1350.0
 10
2717.2268
 20
1344.7851
 10
2717.2852
 20
1344.7579
 10
2727.4878
 20
1340.0
 10
2727.5022
 20
1339.9964
 10
2729.2896
 20
1339.5513
 10
2729.345
 20
1339.5375
 10
2736.1004
 20
1337.855
 10
2736.1265
 20
1337.8547
 10
2739.2962
 20
1337.8187
 10
2739.569
 20
1337.8264
 10
2760.7226
 20
1338.4203
 10
2761.0648
 20
1338.4299
 10
2772.798
 20
1339.495
 10
2785.3194
 20
1340.0
 10
2788.7496
 20
1341.3237
 10
2797.0564
 20
1344.5293
 10
2808.1058
 20
1349.9857
 10
2808.1349
 20
1350.0
 10
2813.0789
 20
1352.3453
 10
2827.3383
 20
1360.0
 10
2833.8626
 20
1363.0782
 10
2844.8821
 20
1368.2771
 10
2846.9281
 20
1369.5118
 10
2847.7371
 20
1370.0
 10
2859.416
 20
1375.0533
 10
2869.5188
 20
1380.0
 10
2876.4279
 20
1381.6053
 10
2912.3826
 20
1389.9589
 10
2912.5208
 20
1390.0
 10
2912.6966
 20
1390.0228
 10
2912.8056
 20
1390.0354
 10
2913.0907
 20
1390.0813
 10
2913.2857
 20
1390.1163
 10
2968.3703
 20
1400.0
 10
2975.1452
 20
1401.3758
 10
3010.1597
 20
1408.4861
 10
3016.2391
 20
1409.8633
 10
3016.8428
 20
1410.0
 10
3018.1404
 20
1410.3223
 10
3020.5514
 20
1410.7795
 10
3045.7923
 20
1415.1338
 10
3050.8049
 20
1415.6427
 10
3068.8673
 20
1417.4765
 10
3076.0692
 20
1417.9413
 10
3092.3654
 20
1417.4809
 10
3099.6878
 20
1417.3022
 10
3150.3373
 20
1416.0668
 10
3157.2067
 20
1416.2778
 10
3163.1373
 20
1416.7845
 10
3185.2369
 20
1418.6724
 10
3191.4358
 20
1419.6553
 10
3193.6103
 20
1420.0
 10
3219.2271
 20
1423.1179
 10
3253.8319
 20
1430.0
 10
3275.8463
 20
1430.6501
 10
3282.6886
 20
1430.7283
 10
3297.94
 20
1430.9028
 10
3303.1019
 20
1430.7603
 10
3304.1307
 20
1430.7213
 10
3321.8674
 20
1430.0501
 10
3322.1962
 20
1430.0377
 10
3323.1907
 20
1430.0
 10
3327.881
 20
1429.3735
 10
3342.0685
 20
1427.4783
 10
3346.1787
 20
1426.5565
 10
3358.6112
 20
1423.7684
 10
3381.9429
 20
1420.0
 10
3382.828
 20
1419.8559
 10
3403.194
 20
1416.5387
 10
3403.8986
 20
1416.4517
 10
3415.1066
 20
1415.0674
 10
3415.2813
 20
1415.0458
 10
3418.8668
 20
1414.603
 10
3426.4334
 20
1413.8942
  0
LWPOLYLINE
  5
239
330
17
100
AcDbEntity
  8
0
100
AcDbPolyline
 90
2
 70
0
 10
0.0
 20
1356.4416
 10
0.0
 20
1456.4416
  0
LWPOLYLINE
  5
23A
330
17
100
AcDbEntity
  8
0
100
AcDbPolyline
 90
2
 70
0
 10
100.0
 20
1333.6451
 10
100.0
 20
1433.6451
  0
LWPOLYLINE
  5
23B
330
17
100
AcDbEntity
  8
0
100
AcDbPolyline
 90
2
 70
0
 10
200.0
 20
1274.5283
 10
200.0
 20
1374.5283
  0
LWPOLYLINE
  5
23C
330
17
100
AcDbEntity
  8
0
100
AcDbPolyline
 90
2
 70
0
 10
300.0
 20
1257.5594
 10
300.0
 20
1357.5594
  0
LWPOLYLINE
  5
23D
330
17
100
AcDbEntity
  8
0
100
AcDbPolyline
 90
2
 70
0
 10
400.0
 20
1282.2008
 10
400.0
 20
1382.2008
  0
LWPOLYLINE
  5
23E
330
17
100
AcDbEntity
  8
0
100
AcDbPolyline
 90
2
 70
0
 10
500.0
 20
1323.8118
 10
500.0
 20
1423.8118
  0
LWPOLYLINE
  5
23F
330
17
100
AcDbEntity
  8
0
100
AcDbPolyline
 90
101
 70
0
 10
0.0
 20
1456.4416
 10
1.0
 20
1456.0112410400716
 10
2.0
 20
1455.5851333408962
 10
3.0
 20
1455.1632703947516
 10
4.0
 20
1454.7456457587427
 10
5.0
 20
1454.3322530547043
 10
6.0
 20
1453.923085969103
 10
7.0
 20
1453.5181382529415
 10
8.0
 20
1453.1174037216622
 10
9.0
 20
1452.720876255054
 10
10.0
 20
1452.3285497971574
 10
11.0
 20
1451.940418356173
 10
12.0
 20
1451.55647600437
 10
13.0
 20
1451.1767168779954
 10
14.0
 20
1450.8011351771838
 10
15.0
 20
1450.4297251658702
 10
16.0
 20
1450.0624811717012
 10
17.0
 20
1449.699397585949
 10
18.0
 20
1449.3404688634257
 10
19.0
 20
1448.9856895223982
 10
20.0
 20
1448.635054144505
 10
21.0
 20
1448.2885573746726
 10
22.0
 20
1447.9461939210355
 10
23.0
 20
1447.6079585548532
 10
24.0
 20
1447.2738461104316
 10
25.0
 20
1446.9438514850442
 10
26.0
 20
1446.6179696388533
 10
27.0
 20
1446.296195594834
 10
28.0
 20
1445.9785244386974
 10
29.0
 20
1445.664951318816
 10
30.0
 20
1445.3554714461495
 10
31.0
 20
1445.050080094172
 10
32.0
 20
1444.7487725987987
 10
33.0
 20
1444.4515443583161
 10
34.0
 20
1444.158390833311
 10
35.0
 20
1443.8693075466006
 10
36.0
 20
1443.5842900831653
 10
37.0
 20
1443.3033340900809
 10
38.0
 20
1443.0264352764514
 10
39.0
 20
1442.7535894133443
 10
40.0
 20
1442.4847923337259
 10
41.0
 20
1442.220039932397
 10
42.0
 20
1441.9593281659309
 10
43.0
 20
1441.7026530526116
 10
44.0
 20
1441.4500106723724
 10
45.0
 20
1441.2013971667373
 10
46.0
 20
1440.9568087387602
 10
47.0
 20
1440.7162416529684
 10
48.0
 20
1440.4796922353055
 10
49.0
 20
1440.247156873074
 10
50.0
 20
1440.0186320148814
 10
51.0
 20
1439.7941141705858
 10
52.0
 20
1439.573599911242
 10
53.0
 20
1439.3570858690498
 10
54.0
 20
1439.1445687373018
 10
55.0
 20
1438.936045270334
 10
56.0
 20
1438.731512283475
 10
57.0
 20
1438.5309666529981
 10
58.0
 20
1438.3344053160736
 10
59.0
 20
1438.1418252707215
 10
60.0
 20
1437.9532235757665
 10
61.0
 20
1437.7685973507923
 10
62.0
 20
1437.587943776098
 10
63.0
 20
1437.4112600926546
 10
64.0
 20
1437.2385436020638
 10
65.0
 20
1437.0697916665156
 10
66.0
 20
1436.9050017087488
 10
67.0
 20
1436.744171212012
 10
68.0
 20
1436.5872977200233
 10
69.0
 20
1436.4343788369356
 10
70.0
 20
1436.2854122272977
 10
71.0
 20
1436.140395616019
 10
72.0
 20
1435.9993267883365
 10
73.0
 20
1435.8622035897781
 10
74.0
 20
1435.7290239261324
 10
75.0
 20
1435.5997857634152
 10
76.0
 20
1435.4744871278388
 10
77.0
 20
1435.3531261057817
 10
78.0
 20
1435.2357008437598
 10
79.0
 20
1435.1222095483977
 10
80.0
 20
1435.0126504864018
 10
81.0
 20
1434.9070219845325
 10
82.0
 20
1434.8053224295809
 10
83.0
 20
1434.7075502683417
 10
84.0
 20
1434.6137040075914
 10
85.0
 20
1434.5237822140648
 10
86.0
 20
1434.4377835144326
 10
87.0
 20
1434.3557065952807
 10
88.0
 20
1434.2775502030913
 10
89.0
 20
1434.203313144222
 10
90.0
 20
1434.1329942848884
 10
91.0
 20
1434.0665925511469
 10
92.0
 20
1434.0041069288782
 10
93.0
 20
1433.9455364637718
 10
94.0
 20
1433.8908802613112
 10
95.0
 20
1433.84013748676
 10
96.0
 20
1433.7933073651507
 10
97.0
 20
1433.7503891812707
 10
98.0
 20
1433.7113822796528
 10
99.0
 20
1433.6762860645647
 10
100.0
 20
1433.6451
  0
LWPOLYLINE
  5
240
330
17
100
AcDbEntity
  8
0
100
AcDbPolyline
 90
101
 70
0
 10
100.0
 20
1433.6451
 10
101.0
 20
1432.8208966285595
 10
102.0
 20
1432.001751286536
 10
103.0
 20
1431.1876514635464
 10
104.0
 20
1430.3785847262639
 10
105.0
 20
1429.5745387182305
 10
106.0
 20
1428.775501159667
 10
107.0
 20
1427.9814598472854
 10
108.0
 20
1427.1924026541028
 10
109.0
 20
1426.4083175292562
 10
110.0
 20
1425.6291924978188
 10
111.0
 20
1424.8550156606166
 10
112.0
 20
1424.085775194046
 10
113.0
 20
1423.3214593498953
 10
114.0
 20
1422.5620564551632
 10
115.0
 20
1421.8075549118817
 10
116.0
 20
1421.0579431969384
 10
117.0
 20
1420.3132098619008
 10
118.0
 20
1419.5733435328414
 10
119.0
 20
1418.838332910164
 10
120.0
 20
1418.1081667684307
 10
121.0
 20
1417.3828339561917
 10
122.0
 20
1416.6623233958132
 10
123.0
 20
1415.9466240833099
 10
124.0
 20
1415.2357250881757
 10
125.0
 20
1414.5296155532178
 10
126.0
 20
1413.8282846943896
 10
127.0
 20
1413.1317218006272
 10
128.0
 20
1412.4399162336858
 10
129.0
 20
1411.7528574279759
 10
130.0
 20
1411.0705348904035
 10
131.0
 20
1410.3929382002088
 10
132.0
 20
1409.7200570088078
 10
133.0
 20
1409.0518810396334
 10
134.0
 20
1408.388400087979
 10
135.0
 20
1407.7296040208432
 10
136.0
 20
1407.075482776774
 10
137.0
 20
1406.426026365715
 10
138.0
 20
1405.7812248688542
 10
139.0
 20
1405.1410684384718
 10
140.0
 20
1404.5055472977888
 10
141.0
 20
1403.8746517408192
 10
142.0
 20
1403.2483721322212
 10
143.0
 20
1402.6266989071498
 10
144.0
 20
1402.009622571111
 10
145.0
 20
1401.3971336998165
 10
146.0
 20
1400.7892229390404
 10
147.0
 20
1400.1858810044757
 10
148.0
 20
1399.5870986815924
 10
149.0
 20
1398.9928668254975
 10
150.0
 20
1398.403176360795
 10
151.0
 20
1397.818018281447
 10
152.0
 20
1397.237383650636
 10
153.0
 20
1396.6612636006298
 10
154.0
 20
1396.0896493326443
 10
155.0
 20
1395.52253211671
 10
156.0
 20
1394.9599032915385
 10
157.0
 20
1394.4017542643905
 10
158.0
 20
1393.8480765109443
 10
159.0
 20
1393.2988615751656
 10
160.0
 20
1392.754101069178
 10
161.0
 20
1392.2137866731362
 10
162.0
 20
1391.6779101350974
 10
163.0
 20
1391.1464632708958
 10
164.0
 20
1390.6194379640183
 10
165.0
 20
1390.0968261654793
 10
166.0
 20
1389.578619893699
 10
167.0
 20
1389.0648112343806
 10
168.0
 20
1388.55539234039
 10
169.0
 20
1388.0503554316356
 10
170.0
 20
1387.5496927949491
 10
171.0
 20
1387.0533967839692
 10
172.0
 20
1386.5614598190232
 10
173.0
 20
1386.0738743870118
 10
174.0
 20
1385.5906330412947
 10
175.0
 20
1385.111728401576
 10
176.0
 20
1384.6371531537934
 10
177.0
 20
1384.1669000500037
 10
178.0
 20
1383.7009619082742
 10
179.0
 20
1383.2393316125722
 10
180.0
 20
1382.782002112657
 10
181.0
 20
1382.3289664239712
 10
182.0
 20
1381.8802176275349
 10
183.0
 20
1381.4357488698395
 10
184.0
 20
1380.995553362743
 10
185.0
 20
1380.559624383367
 10
186.0
 20
1380.1279552739936
 10
187.0
 20
1379.700539441963
 10
188.0
 20
1379.2773703595744
 10
189.0
 20
1378.8584415639848
 10
190.0
 20
1378.4437466571112
 10
191.0
 20
1378.0332793055322
 10
192.0
 20
1377.6270332403924
 10
193.0
 20
1377.2250022573055
 10
194.0
 20
1376.8271802162596
 10
195.0
 20
1376.4335610415244
 10
196.0
 20
1376.0441387215574
 10
197.0
 20
1375.658907308913
 10
198.0
 20
1375.2778609201505
 10
199.0
 20
1374.9009937357455
 10
200.0
 20
1374.5283
  0
LWPOLYLINE
  5
241
330
17
100
AcDbEntity
  8
0
100
AcDbPolyline
 90
101
 70
0
 10
200.0
 20
1374.5283
 10
201.0
 20
1374.1591186112846
 10
202.0
 20
1373.7941002323446
 10
203.0
 20
1373.4332392884426
 10
204.0
 20
1373.076530268336
 10
205.0
 20
1372.7239677241919
 10
206.0
 20
1372.3755462715048
 10
207.0
 20
1372.0312605890142
 10
208.0
 20
1371.691105418622
 10
209.0
 20
1371.3550755653148
 10
210.0
 20
1371.0231658970818
 10
211.0
 20
1370.695371344838
 10
212.0
 20
1370.3716869023467
 10
213.0
 20
1370.0521076261425
 10
214.0
 20
1369.7366286354563
 10
215.0
 20
1369.4252451121404
 10
216.0
 20
1369.117952300595
 10
217.0
 20
1368.814745507696
 10
218.0
 20
1368.5156201027226
 10
219.0
 20
1368.2205715172868
 10
220.0
 20
1367.929595245264
 10
221.0
 20
1367.642686842724
 10
222.0
 20
1367.359841927863
 10
223.0
 20
1367.0810561809367
 10
224.0
 20
1366.8063253441944
 10
225.0
 20
1366.5356452218139
 10
226.0
 20
1366.2690116798374
 10
227.0
 20
1366.0064206461088
 10
228.0
 20
1365.747868110211
 10
229.0
 20
1365.493350123404
 10
230.0
 20
1365.2428627985669
 10
231.0
 20
1364.9964023101356
 10
232.0
 20
1364.7539648940465
 10
233.0
 20
1364.5155468476785
 10
234.0
 20
1364.2811445297955
 10
235.0
 20
1364.0507543604922
 10
236.0
 20
1363.8243728211385
 10
237.0
 20
1363.6019964543261
 10
238.0
 20
1363.3836218638155
 10
239.0
 20
1363.1692457144848
 10
240.0
 20
1362.9588647322773
 10
241.0
 20
1362.752475704153
 10
242.0
 20
1362.5500754780394
 10
243.0
 20
1362.351660962782
 10
244.0
 20
1362.1572291280984
 10
245.0
 20
1361.9667770045314
 10
246.0
 20
1361.7803016834046
 10
247.0
 20
1361.5978003167766
 10
248.0
 20
1361.4192701173981
 10
249.0
 20
1361.2447083586696
 10
250.0
 20
1361.0741123745997
 10
251.0
 20
1360.9074795597642
 10
252.0
 20
1360.7448073692656
 10
253.0
 20
1360.5860933186962
 10
254.0
 20
1360.431334984098
 10
255.0
 20
1360.2805300019268
 10
256.0
 20
1360.1336760690162
 10
257.0
 20
1359.990770942542
 10
258.0
 20
1359.851812439988
 10
259.0
 20
1359.7167984391124
 10
260.0
 20
1359.5857268779166
 10
261.0
 20
1359.4585957546121
 10
262.0
 20
1359.335403127591
 10
263.0
 20
1359.2161471153956
 10
264.0
 20
1359.100825896691
 10
265.0
 20
1358.9894377102357
 10
266.0
 20
1358.881980854855
 10
267.0
 20
1358.7784536894164
 10
268.0
 20
1358.6788546328025
 10
269.0
 20
1358.5831821638888
 10
270.0
 20
1358.4914348215189
 10
271.0
 20
1358.4036112044828
 10
272.0
 20
1358.3197099714962
 10
273.0
 20
1358.2397298411786
 10
274.0
 20
1358.163669592035
 10
275.0
 20
1358.0915280624365
 10
276.0
 20
1358.0233041506024
 10
277.0
 20
1357.9589968145845
 10
278.0
 20
1357.8986050722501
 10
279.0
 20
1357.8421280012672
 10
280.0
 20
1357.7895647390906
 10
281.0
 20
1357.7409144829487
 10
282.0
 20
1357.6961764898317
 10
283.0
 20
1357.6553500764787
 10
284.0
 20
1357.6184346193695
 10
285.0
 20
1357.5854295547133
 10
286.0
 20
1357.5563343784406
 10
287.0
 20
1357.5311486461958
 10
288.0
 20
1357.5098719733305
 10
289.0
 20
1357.492504034897
 10
290.0
 20
1357.4790445656433
 10
291.0
 20
1357.4694933600103
 10
292.0
 20
1357.4638502721275
 10
293.0
 20
1357.4621152158106
 10
294.0
 20
1357.4642881645611
 10
295.0
 20
1357.4703691515654
 10
296.0
 20
1357.480358269695
 10
297.0
 20
1357.4942556715089
 10
298.0
 20
1357.5120615692547
 10
299.0
 20
1357.533776234873
 10
300.0
 20
1357.5594
  0
LWPOLYLINE
  5
242
330
17
100
AcDbEntity
  8
0
100
AcDbPolyline
 90
101
 70
0
 10
400.0
 20
1382.2008
 10
399.0
 20
1381.7509462567457
 10
398.0
 20
1381.3053743135179
 10
397.0
 20
1380.8640773653265
 10
396.0
 20
1380.4270486724708
 10
395.0
 20
1379.994281560438
 10
394.0
 20
1379.565769419799
 10
393.0
 20
1379.1415057061095
 10
392.0
 20
1378.7214839398086
 10
391.0
 20
1378.3056977061215
 10
390.0
 20
1377.8941406549593
 10
389.0
 20
1377.4868065008238
 10
388.0
 20
1377.083689022711
 10
387.0
 20
1376.684782064016
 10
386.0
 20
1376.2900795324388
 10
385.0
 20
1375.8995753998913
 10
384.0
 20
1375.5132637024058
 10
383.0
 20
1375.1311385400434
 10
382.0
 20
1374.7531940768035
 10
381.0
 20
1374.3794245405359
 10
380.0
 20
1374.0098242228516
 10
379.0
 20
1373.6443874790357
 10
378.0
 20
1373.2831087279615
 10
377.0
 20
1372.9259824520052
 10
376.0
 20
1372.5730031969622
 10
375.0
 20
1372.224165571962
 10
374.0
 20
1371.8794642493883
 10
373.0
 20
1371.5388939647953
 10
372.0
 20
1371.2024495168296
 10
371.0
 20
1370.8701257671485
 10
370.0
 20
1370.5419176403432
 10
369.0
 20
1370.2178201238603
 10
368.0
 20
1369.8978282679261
 10
367.0
 20
1369.5819371854702
 10
366.0
 20
1369.2701420520514
 10
365.0
 20
1368.9624381057836
 10
364.0
 20
1368.6588206472632
 10
363.0
 20
1368.3592850394978
 10
362.0
 20
1368.0638267078346
 10
361.0
 20
1367.7724411398915
 10
360.0
 20
1367.485123885487
 10
359.0
 20
1367.2018705565727
 10
358.0
 20
1366.9226768271676
 10
357.0
 20
1366.6475384332896
 10
356.0
 20
1366.376451172892
 10
355.0
 20
1366.1094109057997
 10
354.0
 20
1365.846413553644
 10
353.0
 20
1365.5874550998028
 10
352.0
 20
1365.332531589337
 10
351.0
 20
1365.0816391289313
 10
350.0
 20
1364.8347738868354
 10
349.0
 20
1364.5919320928033
 10
348.0
 20
1364.3531100380383
 10
347.0
 20
1364.1183040751341
 10
346.0
 20
1363.8875106180208
 10
345.0
 20
1363.660726141909
 10
344.0
 20
1363.4379471832367
 10
343.0
 20
1363.2191703396159
 10
342.0
 20
1363.0043922697805
 10
341.0
 20
1362.7936096935366
 10
340.0
 20
1362.5868193917104
 10
339.0
 20
1362.3840182061003
 10
338.0
 20
1362.185203039429
 10
337.0
 20
1361.990370855295
 10
336.0
 20
1361.7995186781268
 10
335.0
 20
1361.612643593138
 10
334.0
 20
1361.4297427462816
 10
333.0
 20
1361.2508133442077
 10
332.0
 20
1361.07585265422
 10
331.0
 20
1360.904858004234
 10
330.0
 20
1360.737826782737
 10
329.0
 20
1360.5747564387473
 10
328.0
 20
1360.4156444817759
 10
327.0
 20
1360.260488481788
 10
326.0
 20
1360.1092860691658
 10
325.0
 20
1359.9620349346735
 10
324.0
 20
1359.8187328294205
 10
323.0
 20
1359.6793775648275
 10
322.0
 20
1359.5439670125938
 10
321.0
 20
1359.4124991046638
 10
320.0
 20
1359.284971833196
 10
319.0
 20
1359.1613832505327
 10
318.0
 20
1359.0417314691688
 10
317.0
 20
1358.9260146617248
 10
316.0
 20
1358.8142310609173
 10
315.0
 20
1358.7063789595336
 10
314.0
 20
1358.6024567104039
 10
313.0
 20
1358.5024627263774
 10
312.0
 20
1358.4063954802978
 10
311.0
 20
1358.3142535049794
 10
310.0
 20
1358.2260353931856
 10
309.0
 20
1358.141739797607
 10
308.0
 20
1358.0613654308402
 10
307.0
 20
1357.9849110653688
 10
306.0
 20
1357.9123755335452
 10
305.0
 20
1357.8437577275718
 10
304.0
 20
1357.7790565994837
 10
303.0
 20
1357.7182711611342
 10
302.0
 20
1357.661400484179
 10
301.0
 20
1357.6084437000616
 10
300.0
 20
1357.5594
  0
LWPOLYLINE
  5
243
330
17
100
AcDbEntity
  8
0
100
AcDbPolyline
 90
101
 70
0
 10
500.0
 20
1423.8118
 10
499.0
 20
1423.1799275130477
 10
498.0
 20
1422.552673005262
 10
497.0
 20
1421.9300268969093
 10
496.0
 20
1421.3119796786368
 10
495.0
 20
1420.698521911329
 10
494.0
 20
1420.0896442259618
 10
493.0
 20
1419.4853373234614
 10
492.0
 20
1418.8855919745602
 10
491.0
 20
1418.2903990196573
 10
490.0
 20
1417.6997493686786
 10
489.0
 20
1417.1136340009364
 10
488.0
 20
1416.532043964994
 10
487.0
 20
1415.9549703785272
 10
486.0
 20
1415.3824044281887
 10
485.0
 20
1414.8143373694752
 10
484.0
 20
1414.2507605265914
 10
483.0
 20
1413.6916652923196
 10
482.0
 20
1413.137043127887
 10
481.0
 20
1412.5868855628357
 10
480.0
 20
1412.0411841948937
 10
479.0
 20
1411.4999306898455
 10
478.0
 20
1410.9631167814061
 10
477.0
 20
1410.430734271094
 10
476.0
 20
1409.9027750281061
 10
475.0
 20
1409.3792309891935
 10
474.0
 20
1408.860094158539
 10
473.0
 20
1408.3453566076332
 10
472.0
 20
1407.8350104751557
 10
471.0
 20
1407.329047966854
 10
470.0
 20
1406.8274613554238
 10
469.0
 20
1406.3302429803916
 10
468.0
 20
1405.8373852479986
 10
467.0
 20
1405.3488806310827
 10
466.0
 20
1404.8647216689656
 10
465.0
 20
1404.3849009673372
 10
464.0
 20
1403.9094111981442
 10
463.0
 20
1403.4382450994765
 10
462.0
 20
1402.9713954754582
 10
461.0
 20
1402.5088551961358
 10
460.0
 20
1402.0506171973707
 10
459.0
 20
1401.5966744807306
 10
458.0
 20
1401.1470201133827
 10
457.0
 20
1400.7016472279884
 10
456.0
 20
1400.2605490225974
 10
455.0
 20
1399.823718760545
 10
454.0
 20
1399.3911497703482
 10
453.0
 20
1398.962835445604
 10
452.0
 20
1398.538769244889
 10
451.0
 20
1398.1189446916594
 10
450.0
 20
1397.7033553741517
 10
449.0
 20
1397.2919949452846
 10
448.0
 20
1396.884857122563
 10
447.0
 20
1396.4819356879814
 10
446.0
 20
1396.0832244879284
 10
445.0
 20
1395.688717433094
 10
444.0
 20
1395.2984084983761
 10
443.0
 20
1394.9122917227876
 10
442.0
 20
1394.5303612093664
 10
441.0
 20
1394.152611125085
 10
440.0
 20
1393.779035700762
 10
439.0
 20
1393.4096292309723
 10
438.0
 20
1393.0443860739622
 10
437.0
 20
1392.6833006515612
 10
436.0
 20
1392.3263674490986
 10
435.0
 20
1391.9735810153177
 10
434.0
 20
1391.6249359622936
 10
433.0
 20
1391.2804269653504
 10
432.0
 20
1390.9400487629803
 10
431.0
 20
1390.6037961567629
 10
430.0
 20
1390.2716640112856
 10
429.0
 20
1389.9436472540658
 10
428.0
 20
1389.619740875473
 10
427.0
 20
1389.2999399286527
 10
426.0
 20
1388.9842395294497
 10
425.0
 20
1388.6726348563354
 10
424.0
 20
1388.3651211503322
 10
423.0
 20
1388.0616937149423
 10
422.0
 20
1387.7623479160752
 10
421.0
 20
1387.4670791819774
 10
420.0
 20
1387.1758830031615
 10
419.0
 20
1386.888754932339
 10
418.0
 20
1386.6056905843511
 10
417.0
 20
1386.3266856361024
 10
416.0
 20
1386.0517358264942
 10
415.0
 20
1385.7808369563604
 10
414.0
 20
1385.5139848884023
 10
413.0
 20
1385.2511755471262
 10
412.0
 20
1384.9924049187805
 10
411.0
 20
1384.7376690512954
 10
410.0
 20
1384.4869640542215
 10
409.0
 20
1384.2402860986708
 10
408.0
 20
1383.9976314172584
 10
407.0
 20
1383.7589963040448
 10
406.0
 20
1383.524377114479
 10
405.0
 20
1383.293770265343
 10
404.0
 20
1383.0671722346983
 10
403.0
 20
1382.8445795618297
 10
402.0
 20
1382.6259888471943
 10
401.0
 20
1382.4113967523692
 10
400.0
 20
1382.2008
  0
LWPOLYLINE
  5
244
330
17
100
AcDbEntity
  8
0
100
AcDbPolyline
 90
353
 70
0
 10
0.0
 20
1356.4416
 10
0.0
 20
1356.4416
 10
8.6489
 20
1357.9059
 10
11.6826
 20
1358.2504
 10
12.8386
 20
1358.3817
 10
16.9872
 20
1358.1077
 10
19.029
 20
1358.0717
 10
28.9321
 20
1357.8971
 10
36.596
 20
1356.425
 10
40.4534
 20
1355.684
 10
63.0346
 20
1350.0
 10
80.0984
 20
1343.3077
 10
87.8075
 20
1340.0
 10
92.9356
 20
1337.5166
 10
100.0
 20
1333.6451
 10
106.651
 20
1330.0
 10
115.5001
 20
1325.9055
 10
118.1865
 20
1324.2557
 10
125.1164
 20
1320.0
 10
127.8314
 20
1318.3646
 10
139.4499
 20
1311.3663
 10
141.7514
 20
1310.0
 10
143.5848
 20
1308.9695
 10
145.7029
 20
1307.6448
 10
157.9269
 20
1300.0
 10
159.7824
 20
1298.7993
 10
165.092
 20
1295.3633
 10
172.8788
 20
1290.0491
 10
172.9507
 20
1290.0
 10
186.7912
 20
1281.7407
 10
186.9397
 20
1281.6521
 10
189.877
 20
1280.0
 10
193.9376
 20
1277.6253
 10
200.0
 20
1274.5283
 10
208.8641
 20
1270.0
 10
222.4238
 20
1264.0481
 10
224.3385
 20
1263.3002
 10
232.787
 20
1260.0
 10
234.9371
 20
1259.6338
 10
235.4819
 20
1259.5409
 10
244.6367
 20
1257.9814
 10
255.5253
 20
1257.116
 10
255.7717
 20
1257.0964
 10
256.6328
 20
1257.028
 10
258.5589
 20
1257.0174
 10
265.2894
 20
1256.9805
 10
286.3766
 20
1256.5681
 10
286.5928
 20
1256.5638
 10
287.0609
 20
1256.5547
 10
293.4226
 20
1256.8267
 10
293.4714
 20
1256.8287
 10
293.6123
 20
1256.8348
 10
300.0
 20
1257.5594
 10
300.7922
 20
1257.6492
 10
321.5161
 20
1260.0
 10
332.9907
 20
1262.0825
 10
338.8601
 20
1263.8783
 10
358.8685
 20
1270.0
 10
365.1178
 20
1272.2646
 10
375.0526
 20
1275.8645
 10
391.7005
 20
1280.0
 10
400.0
 20
1282.2008
 10
404.7704
 20
1283.4658
 10
411.1241
 20
1286.2943
 10
419.4484
 20
1290.0
 10
426.5064
 20
1292.9967
 10
433.3668
 20
1295.9096
 10
436.9768
 20
1297.0738
 10
442.8676
 20
1298.7503
 10
447.2587
 20
1300.0
 10
454.97
 20
1303.2548
 10
467.6161
 20
1308.5925
 10
471.3187
 20
1310.0
 10
476.7924
 20
1312.6461
 10
480.0633
 20
1314.2273
 10
490.9935
 20
1319.5842
 10
491.8419
 20
1320.0
 10
500.0
 20
1323.8118
 10
512.5736
 20
1329.6866
 10
512.7206
 20
1329.7553
 10
513.2594
 20
1330.0
 10
515.2019
 20
1330.9563
 10
532.4944
 20
1340.0
 10
539.9286
 20
1343.6862
 10
542.1653
 20
1344.7864
 10
552.7649
 20
1350.0
 10
561.7795
 20
1353.0794
 10
566.9746
 20
1354.8111
 10
582.5413
 20
1360.0
 10
586.0607
 20
1360.4614
 10
587.2906
 20
1360.5808
 10
623.8143
 20
1364.1266
 10
626.8386
 20
1364.2519
 10
636.8798
 20
1364.6678
 10
661.3075
 20
1365.2145
 10
667.4132
 20
1364.8406
 10
697.4574
 20
1363.0012
 10
712.6543
 20
1362.7046
 10
721.8542
 20
1361.9689
 10
746.4754
 20
1360.0
 10
764.2766
 20
1358.8107
 10
774.7695
 20
1357.6921
 10
813.6202
 20
1357.5929
 10
821.2377
 20
1358.7049
 10
831.8266
 20
1360.0
 10
848.9644
 20
1363.051
 10
856.7029
 20
1363.5734
 10
858.1169
 20
1363.8872
 10
872.1719
 20
1367.0065
 10
872.5197
 20
1367.0837
 10
874.2834
 20
1367.4751
 10
879.351
 20
1367.8911
 10
905.0413
 20
1370.0
 10
937.3403
 20
1373.7741
 10
959.8228
 20
1375.8388
 10
960.1196
 20
1375.835
 10
981.6139
 20
1375.5619
 10
985.8937
 20
1375.6195
 10
1008.3268
 20
1375.9215
 10
1014.9286
 20
1377.1277
 10
1043.729
 20
1379.1757
 10
1049.7631
 20
1380.0
 10
1055.5566
 20
1380.8263
 10
1060.6534
 20
1381.5859
 10
1060.8111
 20
1381.6156
 10
1083.5661
 20
1385.8983
 10
1084.2274
 20
1386.0014
 10
1109.8734
 20
1390.0
 10
1116.9019
 20
1390.7764
 10
1130.0083
 20
1391.1331
 10
1165.05
 20
1392.0869
 10
1175.508
 20
1391.7162
 10
1215.7346
 20
1390.2905
 10
1219.4317
 20
1390.0
 10
1223.4028
 20
1390.0
 10
1224.4695
 20
1390.0
 10
1247.3763
 20
1390.0
 10
1248.3351
 20
1390.0
 10
1252.408
 20
1390.0
 10
1256.8774
 20
1390.0
 10
1274.0317
 20
1390.0
 10
1278.4437
 20
1390.2492
 10
1297.5631
 20
1391.3288
 10
1303.8216
 20
1391.9797
 10
1307.4663
 20
1392.1588
 10
1338.3973
 20
1393.6789
 10
1359.591
 20
1395.1764
 10
1364.2905
 20
1395.4055
 10
1377.7267
 20
1396.0607
 10
1388.2688
 20
1397.2052
 10
1410.352
 20
1399.6027
 10
1413.3637
 20
1400.0
 10
1434.9511
 20
1403.231
 10
1444.0343
 20
1404.74
 10
1475.6982
 20
1410.0
 10
1505.7196
 20
1413.4255
 10
1517.0171
 20
1414.8043
 10
1526.7541
 20
1415.5645
 10
1557.6465
 20
1417.9765
 10
1566.8575
 20
1419.0405
 10
1567.9366
 20
1419.1652
 10
1575.8636
 20
1419.9403
 10
1576.7058
 20
1419.9346
 10
1577.5579
 20
1419.932
 10
1595.4357
 20
1419.7837
 10
1596.3402
 20
1419.7793
 10
1599.7811
 20
1419.7623
 10
1630.2244
 20
1419.5846
 10
1659.6226
 20
1419.7515
 10
1665.0687
 20
1419.7657
 10
1683.6132
 20
1419.8138
 10
1686.961
 20
1419.8216
 10
1698.5256
 20
1419.8485
 10
1699.6204
 20
1419.8518
 10
1703.539
 20
1419.8639
 10
1716.8762
 20
1419.8939
 10
1724.8701
 20
1419.9119
 10
1730.1589
 20
1419.9356
 10
1745.1608
 20
1419.9361
 10
1747.8147
 20
1419.9433
 10
1753.3738
 20
1419.9652
 10
1761.6931
 20
1419.9526
 10
1761.8407
 20
1419.9334
 10
1763.3883
 20
1419.7325
 10
1763.6549
 20
1419.7045
 10
1766.5169
 20
1419.4039
 10
1767.321
 20
1419.3194
 10
1775.4469
 20
1418.4657
 10
1791.7061
 20
1417.4975
 10
1793.9014
 20
1417.3668
 10
1796.6717
 20
1417.2018
 10
1827.6729
 20
1416.8522
 10
1831.9657
 20
1416.8038
 10
1837.2638
 20
1416.744
 10
1867.8618
 20
1417.0375
 10
1872.2033
 20
1417.0792
 10
1877.4483
 20
1417.1295
 10
1882.4149
 20
1417.1483
 10
1888.4151
 20
1417.171
 10
1901.4633
 20
1417.2832
 10
1903.1721
 20
1417.2979
 10
1905.4347
 20
1417.3174
 10
1908.0967
 20
1417.4087
 10
1911.6213
 20
1417.5297
 10
1919.2948
 20
1417.1422
 10
1929.4549
 20
1416.6291
 10
1952.8387
 20
1414.8403
 10
1983.8006
 20
1412.4719
 10
1988.8475
 20
1411.7761
 10
2001.7292
 20
1410.0
 10
2002.079
 20
1410.0
 10
2046.0676
 20
1410.0
 10
2063.3708
 20
1410.0
 10
2093.6824
 20
1414.8818
 10
2097.8708
 20
1415.1621
 10
2115.1002
 20
1416.3152
 10
2118.3995
 20
1416.3575
 10
2129.7355
 20
1416.5026
 10
2138.0306
 20
1417.3581
 10
2143.2088
 20
1417.8921
 10
2158.5925
 20
1417.1771
 10
2190.4276
 20
1419.2138
 10
2236.7064
 20
1417.6849
 10
2253.2383
 20
1417.6105
 10
2262.3203
 20
1417.0551
 10
2294.353
 20
1413.196
 10
2309.2329
 20
1411.9797
 10
2333.4524
 20
1410.0
 10
2333.5774
 20
1409.9963
 10
2333.5888
 20
1409.9959
 10
2333.6236
 20
1409.9967
 10
2333.9193
 20
1409.9949
 10
2345.6599
 20
1409.9779
 10
2346.5479
 20
1410.0
 10
2356.8865
 20
1410.723
 10
2364.1114
 20
1412.3299
 10
2398.5991
 20
1420.0
 10
2406.2858
 20
1422.4557
 10
2414.7846
 20
1425.1024
 10
2430.5111
 20
1430.0
 10
2452.1785
 20
1435.8472
 10
2453.7312
 20
1436.1232
 10
2470.5229
 20
1439.1073
 10
2477.02
 20
1440.0
 10
2493.791
 20
1440.0
 10
2514.5212
 20
1440.0
 10
2519.4576
 20
1440.0
 10
2521.1304
 20
1440.0
 10
2526.0332
 20
1440.0
 10
2527.8177
 20
1440.0
 10
2528.2958
 20
1440.0
 10
2529.6757
 20
1440.0
 10
2554.949
 20
1434.4089
 10
2561.4427
 20
1432.3556
 10
2568.4316
 20
1430.0
 10
2570.857
 20
1428.9913
 10
2590.5788
 20
1420.7886
 10
2591.8363
 20
1420.0
 10
2593.9203
 20
1419.0404
 10
2594.3372
 20
1418.7957
 10
2609.3236
 20
1410.0
 10
2610.2784
 20
1409.4617
 10
2615.0539
 20
1406.7688
 10
2624.5659
 20
1401.2427
 10
2626.7049
 20
1400.0
 10
2630.9626
 20
1397.1624
 10
2642.46
 20
1390.0
 10
2646.1095
 20
1387.6464
 10
2656.6661
 20
1380.8383
 10
2657.5701
 20
1380.2343
 10
2657.9208
 20
1380.0
 10
2658.9217
 20
1379.2249
 10
2670.7942
 20
1370.0
 10
2673.9251
 20
1367.7412
 10
2678.3093
 20
1364.5781
 10
2685.2766
 20
1360.0
 10
2691.7721
 20
1356.3185
 10
2698.779
 20
1352.3472
 10
2704.1485
 20
1350.0
 10
2717.2268
 20
1344.7851
 10
2717.2852
 20
1344.7579
 10
2727.4878
 20
1340.0
 10
2727.5022
 20
1339.9964
 10
2729.2896
 20
1339.5513
 10
2729.345
 20
1339.5375
 10
2736.1004
 20
1337.855
 10
2736.1265
 20
1337.8547
 10
2739.2962
 20
1337.8187
 10
2739.569
 20
1337.8264
 10
2760.7226
 20
1338.4203
 10
2761.0648
 20
1338.4299
 10
2772.798
 20
1339.495
 10
2785.3194
 20
1340.0
 10
2788.7496
 20
1341.3237
 10
2797.0564
 20
1344.5293
 10
2808.1058
 20
1349.9857
 10
2808.1349
 20
1350.0
 10
2813.0789
 20
1352.3453
 10
2827.3383
 20
1360.0
 10
2833.8626
 20
1363.0782
 10
2844.8821
 20
1368.2771
 10
2846.9281
 20
1369.5118
 10
2847.7371
 20
1370.0
 10
2859.416
 20
1375.0533
 10
2869.5188
 20
1380.0
 10
2876.4279
 20
1381.6053
 10
2912.3826
 20
1389.9589
 10
2912.5208
 20
1390.0
 10
2912.6966
 20
1390.0228
 10
2912.8056
 20
1390.0354
 10
2913.0907
 20
1390.0813
 10
2913.2857
 20
1390.1163
 10
2968.3703
 20
1400.0
 10
2975.1452
 20
1401.3758
 10
3010.1597
 20
1408.4861
 10
3016.2391
 20
1409.8633
 10
3016.8428
 20
1410.0
 10
3018.1404
 20
1410.3223
 10
3020.5514
 20
1410.7795
 10
3045.7923
 20
1415.1338
 10
3050.8049
 20
1415.6427
 10
3068.8673
 20
1417.4765
 10
3076.0692
 20
1417.9413
 10
3092.3654
 20
1417.4809
 10
3099.6878
 20
1417.3022
 10
3150.3373
 20
1416.0668
 10
3157.2067
 20
1416.2778
 10
3163.1373
 20
1416.7845
 10
3185.2369
 20
1418.6724
 10
3191.4358
 20
1419.6553
 10
3193.6103
 20
1420.0
 10
3219.2271
 20
1423.1179
 10
3253.8319
 20
1430.0
 10
3275.8463
 20
1430.6501
 10
3282.6886
 20
1430.7283
 10
3297.94
 20
1430.9028
 10
3303.1019
 20
1430.7603
 10
3304.1307
 20
1430.7213
 10
3321.8674
 20
1430.0501
 10
3322.1962
 20
1430.0377
 10
3323.1907
 20
1430.0
 10
3327.881
 20
1429.3735
 10
3342.0685
 20
1427.4783
 10
3346.1787
 20
1426.5565
 10
3358.6112
 20
1423.7684
 10
3381.9429
 20
1420.0
 10
3382.828
 20
1419.8559
 10
3403.194
 20
1416.5387
 10
3403.8986
 20
1416.4517
 10
3415.1066
 20
1415.0674
 10
3415.2813
 20
1415.0458
 10
3418.8668
 20
1414.603
 10
3426.4334
 20
1413.8942
  0
LWPOLYLINE
  5
245
330
17
100
AcDbEntity
  8
0
100
AcDbPolyline
 90
2
 70
0
 10
0.0
 20
1356.4416
 10
0.0
 20
1456.4416
  0
LWPOLYLINE
  5
246
330
17
100
AcDbEntity
  8
0
100
AcDbPolyline
 90
2
 70
0
 10
100.0
 20
1333.6451
 10
100.0
 20
1433.6451
  0
LWPOLYLINE
  5
247
330
17
100
AcDbEntity
  8
0
100
AcDbPolyline
 90
2
 70
0
 10
200.0
 20
1274.5283
 10
200.0
 20
1374.5283
  0
LWPOLYLINE
  5
248
330
17
100
AcDbEntity
  8
0
100
AcDbPolyline
 90
2
 70
0
 10
300.0
 20
1257.5594
 10
300.0
 20
1357.5594
  0
LWPOLYLINE
  5
249
330
17
100
AcDbEntity
  8
0
100
AcDbPolyline
 90
2
 70
0
 10
400.0
 20
1282.2008
 10
400.0
 20
1382.2008
  0
LWPOLYLINE
  5
24A
330
17
100
AcDbEntity
  8
0
100
AcDbPolyline
 90
2
 70
0
 10
500.0
 20
1323.8118
 10
500.0
 20
1423.8118
  0
LWPOLYLINE
  5
24B
330
17
100
AcDbEntity
  8
0
100
AcDbPolyline
 90
101
 70
0
 10
0.0
 20
1456.4416
 10
1.0
 20
1456.0112410400716
 10
2.0
 20
1455.5851333408962
 10
3.0
 20
1455.1632703947516
 10
4.0
 20
1454.7456457587427
 10
5.0
 20
1454.3322530547043
 10
6.0
 20
1453.923085969103
 10
7.0
 20
1453.5181382529415
 10
8.0
 20
1453.1174037216622
 10
9.0
 20
1452.720876255054
 10
10.0
 20
1452.3285497971574
 10
11.0
 20
1451.940418356173
 10
12.0
 20
1451.55647600437
 10
13.0
 20
1451.1767168779954
 10
14.0
 20
1450.8011351771838
 10
15.0
 20
1450.4297251658702
 10
16.0
 20
1450.0624811717012
 10
17.0
 20
1449.699397585949
 10
18.0
 20
1449.3404688634257
 10
19.0
 20
1448.9856895223982
 10
20.0
 20
1448.635054144505
 10
21.0
 20
1448.2885573746726
 10
22.0
 20
1447.9461939210355
 10
23.0
 20
1447.6079585548532
 10
24.0
 20
1447.2738461104316
 10
25.0
 20
1446.9438514850442
 10
26.0
 20
1446.6179696388533
 10
27.0
 20
1446.296195594834
 10
28.0
 20
1445.9785244386974
 10
29.0
 20
1445.664951318816
 10
30.0
 20
1445.3554714461495
 10
31.0
 20
1445.050080094172
 10
32.0
 20
1444.7487725987987
 10
33.0
 20
1444.4515443583161
 10
34.0
 20
1444.158390833311
 10
35.0
 20
1443.8693075466006
 10
36.0
 20
1443.5842900831653
 10
37.0
 20
1443.3033340900809
 10
38.0
 20
1443.0264352764514
 10
39.0
 20
1442.7535894133443
 10
40.0
 20
1442.4847923337259
 10
41.0
 20
1442.220039932397
 10
42.0
 20
1441.9593281659309
 10
43.0
 20
1441.7026530526116
 10
44.0
 20
1441.4500106723724
 10
45.0
 20
1441.2013971667373
 10
46.0
 20
1440.9568087387602
 10
47.0
 20
1440.7162416529684
 10
48.0
 20
1440.4796922353055
 10
49.0
 20
1440.247156873074
 10
50.0
 20
1440.0186320148814
 10
51.0
 20
1439.7941141705858
 10
52.0
 20
1439.573599911242
 10
53.0
 20
1439.3570858690498
 10
54.0
 20
1439.1445687373018
 10
55.0
 20
1438.936045270334
 10
56.0
 20
1438.731512283475
 10
57.0
 20
1438.5309666529981
 10
58.0
 20
1438.3344053160736
 10
59.0
 20
1438.1418252707215
 10
60.0
 20
1437.9532235757665
 10
61.0
 20
1437.7685973507923
 10
62.0
 20
1437.587943776098
 10
63.0
 20
1437.4112600926546
 10
64.0
 20
1437.2385436020638
 10
65.0
 20
1437.0697916665156
 10
66.0
 20
1436.9050017087488
 10
67.0
 20
1436.744171212012
 10
68.0
 20
1436.5872977200233
 10
69.0
 20
1436.4343788369356
 10
70.0
 20
1436.2854122272977
 10
71.0
 20
1436.140395616019
 10
72.0
 20
1435.9993267883365
 10
73.0
 20
1435.8622035897781
 10
74.0
 20
1435.7290239261324
 10
75.0
 20
1435.5997857634152
 10
76.0
 20
1435.4744871278388
 10
77.0
 20
1435.3531261057817
 10
78.0
 20
1435.2357008437598
 10
79.0
 20
1435.1222095483977
 10
80.0
 20
1435.0126504864018
 10
81.0
 20
1434.9070219845325
 10
82.0
 20
1434.8053224295809
 10
83.0
 20
1434.7075502683417
 10
84.0
 20
1434.6137040075914
 10
85.0
 20
1434.5237822140648
 10
86.0
 20
1434.4377835144326
 10
87.0
 20
1434.3557065952807
 10
88.0
 20
1434.2775502030913
 10
89.0
 20
1434.203313144222
 10
90.0
 20
1434.1329942848884
 10
91.0
 20
1434.0665925511469
 10
92.0
 20
1434.0041069288782
 10
93.0
 20
1433.9455364637718
 10
94.0
 20
1433.8908802613112
 10
95.0
 20
1433.84013748676
 10
96.0
 20
1433.7933073651507
 10
97.0
 20
1433.7503891812707
 10
98.0
 20
1433.7113822796528
 10
99.0
 20
1433.6762860645647
 10
100.0
 20
1433.6451
  0
LWPOLYLINE
  5
24C
330
17
100
AcDbEntity
  8
0
100
AcDbPolyline
 90
101
 70
0
 10
100.0
 20
1433.6451
 10
101.0
 20
1432.8208966285595
 10
102.0
 20
1432.001751286536
 10
103.0
 20
1431.1876514635464
 10
104.0
 20
1430.3785847262639
 10
105.0
 20
1429.5745387182305
 10
106.0
 20
1428.775501159667
 10
107.0
 20
1427.9814598472854
 10
108.0
 20
1427.1924026541028
 10
109.0
 20
1426.4083175292562
 10
110.0
 20
1425.6291924978188
 10
111.0
 20
1424.8550156606166
 10
112.0
 20
1424.085775194046
 10
113.0
 20
1423.3214593498953
 10
114.0
 20
1422.5620564551632
 10
115.0
 20
1421.8075549118817
 10
116.0
 20
1421.0579431969384
 10
117.0
 20
1420.3132098619008
 10
118.0
 20
1419.5733435328414
 10
119.0
 20
1418.838332910164
 10
120.0
 20
1418.1081667684307
 10
121.0
 20
1417.3828339561917
 10
122.0
 20
1416.6623233958132
 10
123.0
 20
1415.9466240833099
 10
124.0
 20
1415.2357250881757
 10
125.0
 20
1414.5296155532178
 10
126.0
 20
1413.8282846943896
 10
127.0
 20
1413.1317218006272
 10
128.0
 20
1412.4399162336858
 10
129.0
 20
1411.7528574279759
 10
130.0
 20
1411.0705348904035
 10
131.0
 20
1410.3929382002088
 10
132.0
 20
1409.7200570088078
 10
133.0
 20
1409.0518810396334
 10
134.0
 20
1408.388400087979
 10
135.0
 20
1407.7296040208432
 10
136.0
 20
1407.075482776774
 10
137.0
 20
1406.426026365715
 10
138.0
 20
1405.7812248688542
 10
139.0
 20
1405.1410684384718
 10
140.0
 20
1404.5055472977888
 10
141.0
 20
1403.8746517408192
 10
142.0
 20
1403.2483721322212
 10
143.0
 20
1402.6266989071498
 10
144.0
 20
1402.009622571111
 10
145.0
 20
1401.3971336998165
 10
146.0
 20
1400.7892229390404
 10
147.0
 20
1400.1858810044757
 10
148.0
 20
1399.5870986815924
 10
149.0
 20
1398.9928668254975
 10
150.0
 20
1398.403176360795
 10
151.0
 20
1397.818018281447
 10
152.0
 20
1397.237383650636
 10
153.0
 20
1396.6612636006298
 10
154.0
 20
1396.0896493326443
 10
155.0
 20
1395.52253211671
 10
156.0
 20
1394.9599032915385
 10
157.0
 20
1394.4017542643905
 10
158.0
 20
1393.8480765109443
 10
159.0
 20
1393.2988615751656
 10
160.0
 20
1392.754101069178
 10
161.0
 20
1392.2137866731362
 10
162.0
 20
1391.6779101350974
 10
163.0
 20
1391.1464632708958
 10
164.0
 20
1390.6194379640183
 10
165.0
 20
1390.0968261654793
 10
166.0
 20
1389.578619893699
 10
167.0
 20
1389.0648112343806
 10
168.0
 20
1388.55539234039
 10
169.0
 20
1388.0503554316356
 10
170.0
 20
1387.5496927949491
 10
171.0
 20
1387.0533967839692
 10
172.0
 20
1386.5614598190232
 10
173.0
 20
1386.0738743870118
 10
174.0
 20
1385.5906330412947
 10
175.0
 20
1385.111728401576
 10
176.0
 20
1384.6371531537934
 10
177.0
 20
1384.1669000500037
 10
178.0
 20
1383.7009619082742
 10
179.0
 20
1383.2393316125722
 10
180.0
 20
1382.782002112657
 10
181.0
 20
1382.3289664239712
 10
182.0
 20
1381.8802176275349
 10
183.0
 20
1381.4357488698395
 10
184.0
 20
1380.995553362743
 10
185.0
 20
1380.559624383367
 10
186.0
 20
1380.1279552739936
 10
187.0
 20
1379.700539441963
 10
188.0
 20
1379.2773703595744
 10
189.0
 20
1378.8584415639848
 10
190.0
 20
1378.4437466571112
 10
191.0
 20
1378.0332793055322
 10
192.0
 20
1377.6270332403924
 10
193.0
 20
1377.2250022573055
 10
194.0
 20
1376.8271802162596
 10
195.0
 20
1376.4335610415244
 10
196.0
 20
1376.0441387215574
 10
197.0
 20
1375.658907308913
 10
198.0
 20
1375.2778609201505
 10
199.0
 20
1374.9009937357455
 10
200.0
 20
1374.5283
  0
LWPOLYLINE
  5
24D
330
17
100
AcDbEntity
  8
0
100
AcDbPolyline
 90
101
 70
0
 10
200.0
 20
1374.5283
 10
201.0
 20
1374.1591186112846
 10
202.0
 20
1373.7941002323446
 10
203.0
 20
1373.4332392884426
 10
204.0
 20
1373.076530268336
 10
205.0
 20
1372.7239677241919
 10
206.0
 20
1372.3755462715048
 10
207.0
 20
1372.0312605890142
 10
208.0
 20
1371.691105418622
 10
209.0
 20
1371.3550755653148
 10
210.0
 20
1371.0231658970818
 10
211.0
 20
1370.695371344838
 10
212.0
 20
1370.3716869023467
 10
213.0
 20
1370.0521076261425
 10
214.0
 20
1369.7366286354563
 10
215.0
 20
1369.4252451121404
 10
216.0
 20
1369.117952300595
 10
217.0
 20
1368.814745507696
 10
218.0
 20
1368.5156201027226
 10
219.0
 20
1368.2205715172868
 10
220.0
 20
1367.929595245264
 10
221.0
 20
1367.642686842724
 10
222.0
 20
1367.359841927863
 10
223.0
 20
1367.0810561809367
 10
224.0
 20
1366.8063253441944
 10
225.0
 20
1366.5356452218139
 10
226.0
 20
1366.2690116798374
 10
227.0
 20
1366.0064206461088
 10
228.0
 20
1365.747868110211
 10
229.0
 20
1365.493350123404
 10
230.0
 20
1365.2428627985669
 10
231.0
 20
1364.9964023101356
 10
232.0
 20
1364.7539648940465
 10
233.0
 20
1364.5155468476785
 10
234.0
 20
1364.2811445297955
 10
235.0
 20
1364.0507543604922
 10
236.0
 20
1363.8243728211385
 10
237.0
 20
1363.6019964543261
 10
238.0
 20
1363.3836218638155
 10
239.0
 20
1363.1692457144848
 10
240.0
 20
1362.9588647322773
 10
241.0
 20
1362.752475704153
 10
242.0
 20
1362.5500754780394
 10
243.0
 20
1362.351660962782
 10
244.0
 20
1362.1572291280984
 10
245.0
 20
1361.9667770045314
 10
246.0
 20
1361.7803016834046
 10
247.0
 20
1361.5978003167766
 10
248.0
 20
1361.4192701173981
 10
249.0
 20
1361.2447083586696
 10
250.0
 20
1361.0741123745997
 10
251.0
 20
1360.9074795597642
 10
252.0
 20
1360.7448073692656
 10
253.0
 20
1360.5860933186962
 10
254.0
 20
1360.431334984098
 10
255.0
 20
1360.2805300019268
 10
256.0
 20
1360.1336760690162
 10
257.0
 20
1359.990770942542
 10
258.0
 20
1359.851812439988
 10
259.0
 20
1359.7167984391124
 10
260.0
 20
1359.5857268779166
 10
261.0
 20
1359.4585957546121
 10
262.0
 20
1359.335403127591
 10
263.0
 20
1359.2161471153956
 10
264.0
 20
1359.100825896691
 10
265.0
 20
1358.9894377102357
 10
266.0
 20
1358.881980854855
 10
267.0
 20
1358.7784536894164
 10
268.0
 20
1358.6788546328025
 10
269.0
 20
1358.5831821638888
 10
270.0
 20
1358.4914348215189
 10
271.0
 20
1358.4036112044828
 10
272.0
 20
1358.3197099714962
 10
273.0
 20
1358.2397298411786
 10
274.0
 20
1358.163669592035
 10
275.0
 20
1358.0915280624365
 10
276.0
 20
1358.0233041506024
 10
277.0
 20
1357.9589968145845
 10
278.0
 20
1357.8986050722501
 10
279.0
 20
1357.8421280012672
 10
280.0
 20
1357.7895647390906
 10
281.0
 20
1357.7409144829487
 10
282.0
 20
1357.6961764898317
 10
283.0
 20
1357.6553500764787
 10
284.0
 20
1357.6184346193695
 10
285.0
 20
1357.5854295547133
 10
286.0
 20
1357.5563343784406
 10
287.0
 20
1357.5311486461958
 10
288.0
 20
1357.5098719733305
 10
289.0
 20
1357.492504034897
 10
290.0
 20
1357.4790445656433
 10
291.0
 20
1357.4694933600103
 10
292.0
 20
1357.4638502721275
 10
293.0
 20
1357.4621152158106
 10
294.0
 20
1357.4642881645611
 10
295.0
 20
1357.4703691515654
 10
296.0
 20
1357.480358269695
 10
297.0
 20
1357.4942556715089
 10
298.0
 20
1357.5120615692547
 10
299.0
 20
1357.533776234873
 10
300.0
 20
1357.5594
  0
LWPOLYLINE
  5
24E
330
17
100
AcDbEntity
  8
0
100
AcDbPolyline
 90
101
 70
0
 10
400.0
 20
1382.2008
 10
399.0
 20
1381.7509462567457
 10
398.0
 20
1381.3053743135179
 10
397.0
 20
1380.8640773653265
 10
396.0
 20
1380.4270486724708
 10
395.0
 20
1379.994281560438
 10
394.0
 20
1379.565769419799
 10
393.0
 20
1379.1415057061095
 10
392.0
 20
1378.7214839398086
 10
391.0
 20
1378.3056977061215
 10
390.0
 20
1377.8941406549593
 10
389.0
 20
1377.4868065008238
 10
388.0
 20
1377.083689022711
 10
387.0
 20
1376.684782064016
 10
386.0
 20
1376.2900795324388
 10
385.0
 20
1375.8995753998913
 10
384.0
 20
1375.5132637024058
 10
383.0
 20
1375.1311385400434
 10
382.0
 20
1374.7531940768035
 10
381.0
 20
1374.3794245405359
 10
380.0
 20
1374.0098242228516
 10
379.0
 20
1373.6443874790357
 10
378.0
 20
1373.2831087279615
 10
377.0
 20
1372.9259824520052
 10
376.0
 20
1372.5730031969622
 10
375.0
 20
1372.224165571962
 10
374.0
 20
1371.8794642493883
 10
373.0
 20
1371.5388939647953
 10
372.0
 20
1371.2024495168296
 10
371.0
 20
1370.8701257671485
 10
370.0
 20
1370.5419176403432
 10
369.0
 20
1370.2178201238603
 10
368.0
 20
1369.8978282679261
 10
367.0
 20
1369.5819371854702
 10
366.0
 20
1369.2701420520514
 10
365.0
 20
1368.9624381057836
 10
364.0
 20
1368.6588206472632
 10
363.0
 20
1368.3592850394978
 10
362.0
 20
1368.0638267078346
 10
361.0
 20
1367.7724411398915
 10
360.0
 20
1367.485123885487
 10
359.0
 20
1367.2018705565727
 10
358.0
 20
1366.9226768271676
 10
357.0
 20
1366.6475384332896
 10
356.0
 20
1366.376451172892
 10
355.0
 20
1366.1094109057997
 10
354.0
 20
1365.846413553644
 10
353.0
 20
1365.5874550998028
 10
352.0
 20
1365.332531589337
 10
351.0
 20
1365.0816391289313
 10
350.0
 20
1364.8347738868354
 10
349.0
 20
1364.5919320928033
 10
348.0
 20
1364.3531100380383
 10
347.0
 20
1364.1183040751341
 10
346.0
 20
1363.8875106180208
 10
345.0
 20
1363.660726141909
 10
344.0
 20
1363.4379471832367
 10
343.0
 20
1363.2191703396159
 10
342.0
 20
1363.0043922697805
 10
341.0
 20
1362.7936096935366
 10
340.0
 20
1362.5868193917104
 10
339.0
 20
1362.3840182061003
 10
338.0
 20
1362.185203039429
 10
337.0
 20
1361.990370855295
 10
336.0
 20
1361.7995186781268
 10
335.0
 20
1361.612643593138
 10
334.0
 20
1361.4297427462816
 10
333.0
 20
1361.2508133442077
 10
332.0
 20
1361.07585265422
 10
331.0
 20
1360.904858004234
 10
330.0
 20
1360.737826782737
 10
329.0
 20
1360.5747564387473
 10
328.0
 20
1360.4156444817759
 10
327.0
 20
1360.260488481788
 10
326.0
 20
1360.1092860691658
 10
325.0
 20
1359.9620349346735
 10
324.0
 20
1359.8187328294205
 10
323.0
 20
1359.6793775648275
 10
322.0
 20
1359.5439670125938
 10
321.0
 20
1359.4124991046638
 10
320.0
 20
1359.284971833196
 10
319.0
 20
1359.1613832505327
 10
318.0
 20
1359.0417314691688
 10
317.0
 20
1358.9260146617248
 10
316.0
 20
1358.8142310609173
 10
315.0
 20
1358.7063789595336
 10
314.0
 20
1358.6024567104039
 10
313.0
 20
1358.5024627263774
 10
312.0
 20
1358.4063954802978
 10
311.0
 20
1358.3142535049794
 10
310.0
 20
1358.2260353931856
 10
309.0
 20
1358.141739797607
 10
308.0
 20
1358.0613654308402
 10
307.0
 20
1357.9849110653688
 10
306.0
 20
1357.9123755335452
 10
305.0
 20
1357.8437577275718
 10
304.0
 20
1357.7790565994837
 10
303.0
 20
1357.7182711611342
 10
302.0
 20
1357.661400484179
 10
301.0
 20
1357.6084437000616
 10
300.0
 20
1357.5594
  0
LWPOLYLINE
  5
24F
330
17
100
AcDbEntity
  8
0
100
AcDbPolyline
 90
101
 70
0
 10
500.0
 20
1423.8118
 10
499.0
 20
1423.1799275130477
 10
498.0
 20
1422.552673005262
 10
497.0
 20
1421.9300268969093
 10
496.0
 20
1421.3119796786368
 10
495.0
 20
1420.698521911329
 10
494.0
 20
1420.0896442259618
 10
493.0
 20
1419.4853373234614
 10
492.0
 20
1418.8855919745602
 10
491.0
 20
1418.2903990196573
 10
490.0
 20
1417.6997493686786
 10
489.0
 20
1417.1136340009364
 10
488.0
 20
1416.532043964994
 10
487.0
 20
1415.9549703785272
 10
486.0
 20
1415.3824044281887
 10
485.0
 20
1414.8143373694752
 10
484.0
 20
1414.2507605265914
 10
483.0
 20
1413.6916652923196
 10
482.0
 20
1413.137043127887
 10
481.0
 20
1412.5868855628357
 10
480.0
 20
1412.0411841948937
 10
479.0
 20
1411.4999306898455
 10
478.0
 20
1410.9631167814061
 10
477.0
 20
1410.430734271094
 10
476.0
 20
1409.9027750281061
 10
475.0
 20
1409.3792309891935
 10
474.0
 20
1408.860094158539
 10
473.0
 20
1408.3453566076332
 10
472.0
 20
1407.8350104751557
 10
471.0
 20
1407.329047966854
 10
470.0
 20
1406.8274613554238
 10
469.0
 20
1406.3302429803916
 10
468.0
 20
1405.8373852479986
 10
467.0
 20
1405.3488806310827
 10
466.0
 20
1404.8647216689656
 10
465.0
 20
1404.3849009673372
 10
464.0
 20
1403.9094111981442
 10
463.0
 20
1403.4382450994765
 10
462.0
 20
1402.9713954754582
 10
461.0
 20
1402.5088551961358
 10
460.0
 20
1402.0506171973707
 10
459.0
 20
1401.5966744807306
 10
458.0
 20
1401.1470201133827
 10
457.0
 20
1400.7016472279884
 10
456.0
 20
1400.2605490225974
 10
455.0
 20
1399.823718760545
 10
454.0
 20
1399.3911497703482
 10
453.0
 20
1398.962835445604
 10
452.0
 20
1398.538769244889
 10
451.0
 20
1398.1189446916594
 10
450.0
 20
1397.7033553741517
 10
449.0
 20
1397.2919949452846
 10
448.0
 20
1396.884857122563
 10
447.0
 20
1396.4819356879814
 10
446.0
 20
1396.0832244879284
 10
445.0
 20
1395.688717433094
 10
444.0
 20
1395.2984084983761
 10
443.0
 20
1394.9122917227876
 10
442.0
 20
1394.5303612093664
 10
441.0
 20
1394.152611125085
 10
440.0
 20
1393.779035700762
 10
439.0
 20
1393.4096292309723
 10
438.0
 20
1393.0443860739622
 10
437.0
 20
1392.6833006515612
 10
436.0
 20
1392.3263674490986
 10
435.0
 20
1391.9735810153177
 10
434.0
 20
1391.6249359622936
 10
433.0
 20
1391.2804269653504
 10
432.0
 20
1390.9400487629803
 10
431.0
 20
1390.6037961567629
 10
430.0
 20
1390.2716640112856
 10
429.0
 20
1389.9436472540658
 10
428.0
 20
1389.619740875473
 10
427.0
 20
1389.2999399286527
 10
426.0
 20
1388.9842395294497
 10
425.0
 20
1388.6726348563354
 10
424.0
 20
1388.3651211503322
 10
423.0
 20
1388.0616937149423
 10
422.0
 20
1387.7623479160752
 10
421.0
 20
1387.4670791819774
 10
420.0
 20
1387.1758830031615
 10
419.0
 20
1386.888754932339
 10
418.0
 20
1386.6056905843511
 10
417.0
 20
1386.3266856361024
 10
416.0
 20
1386.0517358264942
 10
415.0
 20
1385.7808369563604
 10
414.0
 20
1385.5139848884023
 10
413.0
 20
1385.2511755471262
 10
412.0
 20
1384.9924049187805
 10
411.0
 20
1384.7376690512954
 10
410.0
 20
1384.4869640542215
 10
409.0
 20
1384.2402860986708
 10
408.0
 20
1383.9976314172584
 10
407.0
 20
1383.7589963040448
 10
406.0
 20
1383.524377114479
 10
405.0
 20
1383.293770265343
 10
404.0
 20
1383.0671722346983
 10
403.0
 20
1382.8445795618297
 10
402.0
 20
1382.6259888471943
 10
401.0
 20
1382.4113967523692
 10
400.0
 20
1382.2008
  0
LWPOLYLINE
  5
250
330
17
100
AcDbEntity
  8
0
100
AcDbPolyline
 90
353
 70
0
 10
0.0
 20
1356.4416
 10
0.0
 20
1356.4416
 10
8.6489
 20
1357.9059
 10
11.6826
 20
1358.2504
 10
12.8386
 20
1358.3817
 10
16.9872
 20
1358.1077
 10
19.029
 20
1358.0717
 10
28.9321
 20
1357.8971
 10
36.596
 20
1356.425
 10
40.4534
 20
1355.684
 10
63.0346
 20
1350.0
 10
80.0984
 20
1343.3077
 10
87.8075
 20
1340.0
 10
92.9356
 20
1337.5166
 10
100.0
 20
1333.6451
 10
106.651
 20
1330.0
 10
115.5001
 20
1325.9055
 10
118.1865
 20
1324.2557
 10
125.1164
 20
1320.0
 10
127.8314
 20
1318.3646
 10
139.4499
 20
1311.3663
 10
141.7514
 20
1310.0
 10
143.5848
 20
1308.9695
 10
145.7029
 20
1307.6448
 10
157.9269
 20
1300.0
 10
159.7824
 20
1298.7993
 10
165.092
 20
1295.3633
 10
172.8788
 20
1290.0491
 10
172.9507
 20
1290.0
 10
186.7912
 20
1281.7407
 10
186.9397
 20
1281.6521
 10
189.877
 20
1280.0
 10
193.9376
 20
1277.6253
 10
200.0
 20
1274.5283
 10
208.8641
 20
1270.0
 10
222.4238
 20
1264.0481
 10
224.3385
 20
1263.3002
 10
232.787
 20
1260.0
 10
234.9371
 20
1259.6338
 10
235.4819
 20
1259.5409
 10
244.6367
 20
1257.9814
 10
255.5253
 20
1257.116
 10
255.7717
 20
1257.0964
 10
256.6328
 20
1257.028
 10
258.5589
 20
1257.0174
 10
265.2894
 20
1256.9805
 10
286.3766
 20
1256.5681
 10
286.5928
 20
1256.5638
 10
287.0609
 20
1256.5547
 10
293.4226
 20
1256.8267
 10
293.4714
 20
1256.8287
 10
293.6123
 20
1256.8348
 10
300.0
 20
1257.5594
 10
300.7922
 20
1257.6492
 10
321.5161
 20
1260.0
 10
332.9907
 20
1262.0825
 10
338.8601
 20
1263.8783
 10
358.8685
 20
1270.0
 10
365.1178
 20
1272.2646
 10
375.0526
 20
1275.8645
 10
391.7005
 20
1280.0
 10
400.0
 20
1282.2008
 10
404.7704
 20
1283.4658
 10
411.1241
 20
1286.2943
 10
419.4484
 20
1290.0
 10
426.5064
 20
1292.9967
 10
433.3668
 20
1295.9096
 10
436.9768
 20
1297.0738
 10
442.8676
 20
1298.7503
 10
447.2587
 20
1300.0
 10
454.97
 20
1303.2548
 10
467.6161
 20
1308.5925
 10
471.3187
 20
1310.0
 10
476.7924
 20
1312.6461
 10
480.0633
 20
1314.2273
 10
490.9935
 20
1319.5842
 10
491.8419
 20
1320.0
 10
500.0
 20
1323.8118
 10
512.5736
 20
1329.6866
 10
512.7206
 20
1329.7553
 10
513.2594
 20
1330.0
 10
515.2019
 20
1330.9563
 10
532.4944
 20
1340.0
 10
539.9286
 20
1343.6862
 10
542.1653
 20
1344.7864
 10
552.7649
 20
1350.0
 10
561.7795
 20
1353.0794
 10
566.9746
 20
1354.8111
 10
582.5413
 20
1360.0
 10
586.0607
 20
1360.4614
 10
587.2906
 20
1360.5808
 10
623.8143
 20
1364.1266
 10
626.8386
 20
1364.2519
 10
636.8798
 20
1364.6678
 10
661.3075
 20
1365.2145
 10
667.4132
 20
1364.8406
 10
697.4574
 20
1363.0012
 10
712.6543
 20
1362.7046
 10
721.8542
 20
1361.9689
 10
746.4754
 20
1360.0
 10
764.2766
 20
1358.8107
 10
774.7695
 20
1357.6921
 10
813.6202
 20
1357.5929
 10
821.2377
 20
1358.7049
 10
831.8266
 20
1360.0
 10
848.9644
 20
1363.051
 10
856.7029
 20
1363.5734
 10
858.1169
 20
1363.8872
 10
872.1719
 20
1367.0065
 10
872.5197
 20
1367.0837
 10
874.2834
 20
1367.4751
 10
879.351
 20
1367.8911
 10
905.0413
 20
1370.0
 10
937.3403
 20
1373.7741
 10
959.8228
 20
1375.8388
 10
960.1196
 20
1375.835
 10
981.6139
 20
1375.5619
 10
985.8937
 20
1375.6195
 10
1008.3268
 20
1375.9215
 10
1014.9286
 20
1377.1277
 10
1043.729
 20
1379.1757
 10
1049.7631
 20
1380.0
 10
1055.5566
 20
1380.8263
 10
1060.6534
 20
1381.5859
 10
1060.8111
 20
1381.6156
 10
1083.5661
 20
1385.8983
 10
1084.2274
 20
1386.0014
 10
1109.8734
 20
1390.0
 10
1116.9019
 20
1390.7764
 10
1130.0083
 20
1391.1331
 10
1165.05
 20
1392.0869
 10
1175.508
 20
1391.7162
 10
1215.7346
 20
1390.2905
 10
1219.4317
 20
1390.0
 10
1223.4028
 20
1390.0
 10
1224.4695
 20
1390.0
 10
1247.3763
 20
1390.0
 10
1248.3351
 20
1390.0
 10
1252.408
 20
1390.0
 10
1256.8774
 20
1390.0
 10
1274.0317
 20
1390.0
 10
1278.4437
 20
1390.2492
 10
1297.5631
 20
1391.3288
 10
1303.8216
 20
1391.9797
 10
1307.4663
 20
1392.1588
 10
1338.3973
 20
1393.6789
 10
1359.591
 20
1395.1764
 10
1364.2905
 20
1395.4055
 10
1377.7267
 20
1396.0607
 10
1388.2688
 20
1397.2052
 10
1410.352
 20
1399.6027
 10
1413.3637
 20
1400.0
 10
1434.9511
 20
1403.231
 10
1444.0343
 20
1404.74
 10
1475.6982
 20
1410.0
 10
1505.7196
 20
1413.4255
 10
1517.0171
 20
1414.8043
 10
1526.7541
 20
1415.5645
 10
1557.6465
 20
1417.9765
 10
1566.8575
 20
1419.0405
 10
1567.9366
 20
1419.1652
 10
1575.8636
 20
1419.9403
 10
1576.7058
 20
1419.9346
 10
1577.5579
 20
1419.932
 10
1595.4357
 20
1419.7837
 10
1596.3402
 20
1419.7793
 10
1599.7811
 20
1419.7623
 10
1630.2244
 20
1419.5846
 10
1659.6226
 20
1419.7515
 10
1665.0687
 20
1419.7657
 10
1683.6132
 20
1419.8138
 10
1686.961
 20
1419.8216
 10
1698.5256
 20
1419.8485
 10
1699.6204
 20
1419.8518
 10
1703.539
 20
1419.8639
 10
1716.8762
 20
1419.8939
 10
1724.8701
 20
1419.9119
 10
1730.1589
 20
1419.9356
 10
1745.1608
 20
1419.9361
 10
1747.8147
 20
1419.9433
 10
1753.3738
 20
1419.9652
 10
1761.6931
 20
1419.9526
 10
1761.8407
 20
1419.9334
 10
1763.3883
 20
1419.7325
 10
1763.6549
 20
1419.7045
 10
1766.5169
 20
1419.4039
 10
1767.321
 20
1419.3194
 10
1775.4469
 20
1418.4657
 10
1791.7061
 20
1417.4975
 10
1793.9014
 20
1417.3668
 10
1796.6717
 20
1417.2018
 10
1827.6729
 20
1416.8522
 10
1831.9657
 20
1416.8038
 10
1837.2638
 20
1416.744
 10
1867.8618
 20
1417.0375
 10
1872.2033
 20
1417.0792
 10
1877.4483
 20
1417.1295
 10
1882.4149
 20
1417.1483
 10
1888.4151
 20
1417.171
 10
1901.4633
 20
1417.2832
 10
1903.1721
 20
1417.2979
 10
1905.4347
 20
1417.3174
 10
1908.0967
 20
1417.4087
 10
1911.6213
 20
1417.5297
 10
1919.2948
 20
1417.1422
 10
1929.4549
 20
1416.6291
 10
1952.8387
 20
1414.8403
 10
1983.8006
 20
1412.4719
 10
1988.8475
 20
1411.7761
 10
2001.7292
 20
1410.0
 10
2002.079
 20
1410.0
 10
2046.0676
 20
1410.0
 10
2063.3708
 20
1410.0
 10
2093.6824
 20
1414.8818
 10
2097.8708
 20
1415.1621
 10
2115.1002
 20
1416.3152
 10
2118.3995
 20
1416.3575
 10
2129.7355
 20
1416.5026
 10
2138.0306
 20
1417.3581
 10
2143.2088
 20
1417.8921
 10
2158.5925
 20
1417.1771
 10
2190.4276
 20
1419.2138
 10
2236.7064
 20
1417.6849
 10
2253.2383
 20
1417.6105
 10
2262.3203
 20
1417.0551
 10
2294.353
 20
1413.196
 10
2309.2329
 20
1411.9797
 10
2333.4524
 20
1410.0
 10
2333.5774
 20
1409.9963
 10
2333.5888
 20
1409.9959
 10
2333.6236
 20
1409.9967
 10
2333.9193
 20
1409.9949
 10
2345.6599
 20
1409.9779
 10
2346.5479
 20
1410.0
 10
2356.8865
 20
1410.723
 10
2364.1114
 20
1412.3299
 10
2398.5991
 20
1420.0
 10
2406.2858
 20
1422.4557
 10
2414.7846
 20
1425.1024
 10
2430.5111
 20
1430.0
 10
2452.1785
 20
1435.8472
 10
2453.7312
 20
1436.1232
 10
2470.5229
 20
1439.1073
 10
2477.02
 20
1440.0
 10
2493.791
 20
1440.0
 10
2514.5212
 20
1440.0
 10
2519.4576
 20
1440.0
 10
2521.1304
 20
1440.0
 10
2526.0332
 20
1440.0
 10
2527.8177
 20
1440.0
 10
2528.2958
 20
1440.0
 10
2529.6757
 20
1440.0
 10
2554.949
 20
1434.4089
 10
2561.4427
 20
1432.3556
 10
2568.4316
 20
1430.0
 10
2570.857
 20
1428.9913
 10
2590.5788
 20
1420.7886
 10
2591.8363
 20
1420.0
 10
2593.9203
 20
1419.0404
 10
2594.3372
 20
1418.7957
 10
2609.3236
 20
1410.0
 10
2610.2784
 20
1409.4617
 10
2615.0539
 20
1406.7688
 10
2624.5659
 20
1401.2427
 10
2626.7049
 20
1400.0
 10
2630.9626
 20
1397.1624
 10
2642.46
 20
1390.0
 10
2646.1095
 20
1387.6464
 10
2656.6661
 20
1380.8383
 10
2657.5701
 20
1380.2343
 10
2657.9208
 20
1380.0
 10
2658.9217
 20
1379.2249
 10
2670.7942
 20
1370.0
 10
2673.9251
 20
1367.7412
 10
2678.3093
 20
1364.5781
 10
2685.2766
 20
1360.0
 10
2691.7721
 20
1356.3185
 10
2698.779
 20
1352.3472
 10
2704.1485
 20
1350.0
 10
2717.2268
 20
1344.7851
 10
2717.2852
 20
1344.7579
 10
2727.4878
 20
1340.0
 10
2727.5022
 20
1339.9964
 10
2729.2896
 20
1339.5513
 10
2729.345
 20
1339.5375
 10
2736.1004
 20
1337.855
 10
2736.1265
 20
1337.8547
 10
2739.2962
 20
1337.8187
 10
2739.569
 20
1337.8264
 10
2760.7226
 20
1338.4203
 10
2761.0648
 20
1338.4299
 10
2772.798
 20
1339.495
 10
2785.3194
 20
1340.0
 10
2788.7496
 20
1341.3237
 10
2797.0564
 20
1344.5293
 10
2808.1058
 20
1349.9857
 10
2808.1349
 20
1350.0
 10
2813.0789
 20
1352.3453
 10
2827.3383
 20
1360.0
 10
2833.8626
 20
1363.0782
 10
2844.8821
 20
1368.2771
 10
2846.9281
 20
1369.5118
 10
2847.7371
 20
1370.0
 10
2859.416
 20
1375.0533
 10
2869.5188
 20
1380.0
 10
2876.4279
 20
1381.6053
 10
2912.3826
 20
1389.9589
 10
2912.5208
 20
1390.0
 10
2912.6966
 20
1390.0228
 10
2912.8056
 20
1390.0354
 10
2913.0907
 20
1390.0813
 10
2913.2857
 20
1390.1163
 10
2968.3703
 20
1400.0
 10
2975.1452
 20
1401.3758
 10
3010.1597
 20
1408.4861
 10
3016.2391
 20
1409.8633
 10
3016.8428
 20
1410.0
 10
3018.1404
 20
1410.3223
 10
3020.5514
 20
1410.7795
 10
3045.7923
 20
1415.1338
 10
3050.8049
 20
1415.6427
 10
3068.8673
 20
1417.4765
 10
3076.0692
 20
1417.9413
 10
3092.3654
 20
1417.4809
 10
3099.6878
 20
1417.3022
 10
3150.3373
 20
1416.0668
 10
3157.2067
 20
1416.2778
 10
3163.1373
 20
1416.7845
 10
3185.2369
 20
1418.6724
 10
3191.4358
 20
1419.6553
 10
3193.6103
 20
1420.0
 10
3219.2271
 20
1423.1179
 10
3253.8319
 20
1430.0
 10
3275.8463
 20
1430.6501
 10
3282.6886
 20
1430.7283
 10
3297.94
 20
1430.9028
 10
3303.1019
 20
1430.7603
 10
3304.1307
 20
1430.7213
 10
3321.8674
 20
1430.0501
 10
3322.1962
 20
1430.0377
 10
3323.1907
 20
1430.0
 10
3327.881
 20
1429.3735
 10
3342.0685
 20
1427.4783
 10
3346.1787
 20
1426.5565
 10
3358.6112
 20
1423.7684
 10
3381.9429
 20
1420.0
 10
3382.828
 20
1419.8559
 10
3403.194
 20
1416.5387
 10
3403.8986
 20
1416.4517
 10
3415.1066
 20
1415.0674
 10
3415.2813
 20
1415.0458
 10
3418.8668
 20
1414.603
 10
3426.4334
 20
1413.8942
  0
LWPOLYLINE
  5
251
330
17
100
AcDbEntity
  8
0
100
AcDbPolyline
 90
2
 70
0
 10
0.0
 20
1356.4416
 10
0.0
 20
1456.4416
  0
LWPOLYLINE
  5
252
330
17
100
AcDbEntity
  8
0
100
AcDbPolyline
 90
2
 70
0
 10
100.0
 20
1333.6451
 10
100.0
 20
1433.6451
  0
LWPOLYLINE
  5
253
330
17
100
AcDbEntity
  8
0
100
AcDbPolyline
 90
2
 70
0
 10
200.0
 20
1274.5283
 10
200.0
 20
1374.5283
  0
LWPOLYLINE
  5
254
330
17
100
AcDbEntity
  8
0
100
AcDbPolyline
 90
2
 70
0
 10
300.0
 20
1257.5594
 10
300.0
 20
1357.5594
  0
LWPOLYLINE
  5
255
330
17
100
AcDbEntity
  8
0
100
AcDbPolyline
 90
2
 70
0
 10
400.0
 20
1282.2008
 10
400.0
 20
1382.2008
  0
LWPOLYLINE
  5
256
330
17
100
AcDbEntity
  8
0
100
AcDbPolyline
 90
2
 70
0
 10
500.0
 20
1323.8118
 10
500.0
 20
1423.8118
  0
LWPOLYLINE
  5
257
330
17
100
AcDbEntity
  8
0
100
AcDbPolyline
 90
101
 70
0
 10
0.0
 20
1456.4416
 10
1.0
 20
1456.0112410400716
 10
2.0
 20
1455.5851333408962
 10
3.0
 20
1455.1632703947516
 10
4.0
 20
1454.7456457587427
 10
5.0
 20
1454.3322530547043
 10
6.0
 20
1453.923085969103
 10
7.0
 20
1453.5181382529415
 10
8.0
 20
1453.1174037216622
 10
9.0
 20
1452.720876255054
 10
10.0
 20
1452.3285497971574
 10
11.0
 20
1451.940418356173
 10
12.0
 20
1451.55647600437
 10
13.0
 20
1451.1767168779954
 10
14.0
 20
1450.8011351771838
 10
15.0
 20
1450.4297251658702
 10
16.0
 20
1450.0624811717012
 10
17.0
 20
1449.699397585949
 10
18.0
 20
1449.3404688634257
 10
19.0
 20
1448.9856895223982
 10
20.0
 20
1448.635054144505
 10
21.0
 20
1448.2885573746726
 10
22.0
 20
1447.9461939210355
 10
23.0
 20
1447.6079585548532
 10
24.0
 20
1447.2738461104316
 10
25.0
 20
1446.9438514850442
 10
26.0
 20
1446.6179696388533
 10
27.0
 20
1446.296195594834
 10
28.0
 20
1445.9785244386974
 10
29.0
 20
1445.664951318816
 10
30.0
 20
1445.3554714461495
 10
31.0
 20
1445.050080094172
 10
32.0
 20
1444.7487725987987
 10
33.0
 20
1444.4515443583161
 10
34.0
 20
1444.158390833311
 10
35.0
 20
1443.8693075466006
 10
36.0
 20
1443.5842900831653
 10
37.0
 20
1443.3033340900809
 10
38.0
 20
1443.0264352764514
 10
39.0
 20
1442.7535894133443
 10
40.0
 20
1442.4847923337259
 10
41.0
 20
1442.220039932397
 10
42.0
 20
1441.9593281659309
 10
43.0
 20
1441.7026530526116
 10
44.0
 20
1441.4500106723724
 10
45.0
 20
1441.2013971667373
 10
46.0
 20
1440.9568087387602
 10
47.0
 20
1440.7162416529684
 10
48.0
 20
1440.4796922353055
 10
49.0
 20
1440.247156873074
 10
50.0
 20
1440.0186320148814
 10
51.0
 20
1439.7941141705858
 10
52.0
 20
1439.573599911242
 10
53.0
 20
1439.3570858690498
 10
54.0
 20
1439.1445687373018
 10
55.0
 20
1438.936045270334
 10
56.0
 20
1438.731512283475
 10
57.0
 20
1438.5309666529981
 10
58.0
 20
1438.3344053160736
 10
59.0
 20
1438.1418252707215
 10
60.0
 20
1437.9532235757665
 10
61.0
 20
1437.7685973507923
 10
62.0
 20
1437.587943776098
 10
63.0
 20
1437.4112600926546
 10
64.0
 20
1437.2385436020638
 10
65.0
 20
1437.0697916665156
 10
66.0
 20
1436.9050017087488
 10
67.0
 20
1436.744171212012
 10
68.0
 20
1436.5872977200233
 10
69.0
 20
1436.4343788369356
 10
70.0
 20
1436.2854122272977
 10
71.0
 20
1436.140395616019
 10
72.0
 20
1435.9993267883365
 10
73.0
 20
1435.8622035897781
 10
74.0
 20
1435.7290239261324
 10
75.0
 20
1435.5997857634152
 10
76.0
 20
1435.4744871278388
 10
77.0
 20
1435.3531261057817
 10
78.0
 20
1435.2357008437598
 10
79.0
 20
1435.1222095483977
 10
80.0
 20
1435.0126504864018
 10
81.0
 20
1434.9070219845325
 10
82.0
 20
1434.8053224295809
 10
83.0
 20
1434.7075502683417
 10
84.0
 20
1434.6137040075914
 10
85.0
 20
1434.5237822140648
 10
86.0
 20
1434.4377835144326
 10
87.0
 20
1434.3557065952807
 10
88.0
 20
1434.2775502030913
 10
89.0
 20
1434.203313144222
 10
90.0
 20
1434.1329942848884
 10
91.0
 20
1434.0665925511469
 10
92.0
 20
1434.0041069288782
 10
93.0
 20
1433.9455364637718
 10
94.0
 20
1433.8908802613112
 10
95.0
 20
1433.84013748676
 10
96.0
 20
1433.7933073651507
 10
97.0
 20
1433.7503891812707
 10
98.0
 20
1433.7113822796528
 10
99.0
 20
1433.6762860645647
 10
100.0
 20
1433.6451
  0
LWPOLYLINE
  5
258
330
17
100
AcDbEntity
  8
0
100
AcDbPolyline
 90
101
 70
0
 10
100.0
 20
1433.6451
 10
101.0
 20
1432.8208966285595
 10
102.0
 20
1432.001751286536
 10
103.0
 20
1431.1876514635464
 10
104.0
 20
1430.3785847262639
 10
105.0
 20
1429.5745387182305
 10
106.0
 20
1428.775501159667
 10
107.0
 20
1427.9814598472854
 10
108.0
 20
1427.1924026541028
 10
109.0
 20
1426.4083175292562
 10
110.0
 20
1425.6291924978188
 10
111.0
 20
1424.8550156606166
 10
112.0
 20
1424.085775194046
 10
113.0
 20
1423.3214593498953
 10
114.0
 20
1422.5620564551632
 10
115.0
 20
1421.8075549118817
 10
116.0
 20
1421.0579431969384
 10
117.0
 20
1420.3132098619008
 10
118.0
 20
1419.5733435328414
 10
119.0
 20
1418.838332910164
 10
120.0
 20
1418.1081667684307
 10
121.0
 20
1417.3828339561917
 10
122.0
 20
1416.6623233958132
 10
123.0
 20
1415.9466240833099
 10
124.0
 20
1415.2357250881757
 10
125.0
 20
1414.5296155532178
 10
126.0
 20
1413.8282846943896
 10
127.0
 20
1413.1317218006272
 10
128.0
 20
1412.4399162336858
 10
129.0
 20
1411.7528574279759
 10
130.0
 20
1411.0705348904035
 10
131.0
 20
1410.3929382002088
 10
132.0
 20
1409.7200570088078
 10
133.0
 20
1409.0518810396334
 10
134.0
 20
1408.388400087979
 10
135.0
 20
1407.7296040208432
 10
136.0
 20
1407.075482776774
 10
137.0
 20
1406.426026365715
 10
138.0
 20
1405.7812248688542
 10
139.0
 20
1405.1410684384718
 10
140.0
 20
1404.5055472977888
 10
141.0
 20
1403.8746517408192
 10
142.0
 20
1403.2483721322212
 10
143.0
 20
1402.6266989071498
 10
144.0
 20
1402.009622571111
 10
145.0
 20
1401.3971336998165
 10
146.0
 20
1400.7892229390404
 10
147.0
 20
1400.1858810044757
 10
148.0
 20
1399.5870986815924
 10
149.0
 20
1398.9928668254975
 10
150.0
 20
1398.403176360795
 10
151.0
 20
1397.818018281447
 10
152.0
 20
1397.237383650636
 10
153.0
 20
1396.6612636006298
 10
154.0
 20
1396.0896493326443
 10
155.0
 20
1395.52253211671
 10
156.0
 20
1394.9599032915385
 10
157.0
 20
1394.4017542643905
 10
158.0
 20
1393.8480765109443
 10
159.0
 20
1393.2988615751656
 10
160.0
 20
1392.754101069178
 10
161.0
 20
1392.2137866731362
 10
162.0
 20
1391.6779101350974
 10
163.0
 20
1391.1464632708958
 10
164.0
 20
1390.6194379640183
 10
165.0
 20
1390.0968261654793
 10
166.0
 20
1389.578619893699
 10
167.0
 20
1389.0648112343806
 10
168.0
 20
1388.55539234039
 10
169.0
 20
1388.0503554316356
 10
170.0
 20
1387.5496927949491
 10
171.0
 20
1387.0533967839692
 10
172.0
 20
1386.5614598190232
 10
173.0
 20
1386.0738743870118
 10
174.0
 20
1385.5906330412947
 10
175.0
 20
1385.111728401576
 10
176.0
 20
1384.6371531537934
 10
177.0
 20
1384.1669000500037
 10
178.0
 20
1383.7009619082742
 10
179.0
 20
1383.2393316125722
 10
180.0
 20
1382.782002112657
 10
181.0
 20
1382.3289664239712
 10
182.0
 20
1381.8802176275349
 10
183.0
 20
1381.4357488698395
 10
184.0
 20
1380.995553362743
 10
185.0
 20
1380.559624383367
 10
186.0
 20
1380.1279552739936
 10
187.0
 20
1379.700539441963
 10
188.0
 20
1379.2773703595744
 10
189.0
 20
1378.8584415639848
 10
190.0
 20
1378.4437466571112
 10
191.0
 20
1378.0332793055322
 10
192.0
 20
1377.6270332403924
 10
193.0
 20
1377.2250022573055
 10
194.0
 20
1376.8271802162596
 10
195.0
 20
1376.4335610415244
 10
196.0
 20
1376.0441387215574
 10
197.0
 20
1375.658907308913
 10
198.0
 20
1375.2778609201505
 10
199.0
 20
1374.9009937357455
 10
200.0
 20
1374.5283
  0
LWPOLYLINE
  5
259
330
17
100
AcDbEntity
  8
0
100
AcDbPolyline
 90
101
 70
0
 10
200.0
 20
1374.5283
 10
201.0
 20
1374.1591186112846
 10
202.0
 20
1373.7941002323446
 10
203.0
 20
1373.4332392884426
 10
204.0
 20
1373.076530268336
 10
205.0
 20
1372.7239677241919
 10
206.0
 20
1372.3755462715048
 10
207.0
 20
1372.0312605890142
 10
208.0
 20
1371.691105418622
 10
209.0
 20
1371.3550755653148
 10
210.0
 20
1371.0231658970818
 10
211.0
 20
1370.695371344838
 10
212.0
 20
1370.3716869023467
 10
213.0
 20
1370.0521076261425
 10
214.0
 20
1369.7366286354563
 10
215.0
 20
1369.4252451121404
 10
216.0
 20
1369.117952300595
 10
217.0
 20
1368.814745507696
 10
218.0
 20
1368.5156201027226
 10
219.0
 20
1368.2205715172868
 10
220.0
 20
1367.929595245264
 10
221.0
 20
1367.642686842724
 10
222.0
 20
1367.359841927863
 10
223.0
 20
1367.0810561809367
 10
224.0
 20
1366.8063253441944
 10
225.0
 20
1366.5356452218139
 10
226.0
 20
1366.2690116798374
 10
227.0
 20
1366.0064206461088
 10
228.0
 20
1365.747868110211
 10
229.0
 20
1365.493350123404
 10
230.0
 20
1365.2428627985669
 10
231.0
 20
1364.9964023101356
 10
232.0
 20
1364.7539648940465
 10
233.0
 20
1364.5155468476785
 10
234.0
 20
1364.2811445297955
 10
235.0
 20
1364.0507543604922
 10
236.0
 20
1363.8243728211385
 10
237.0
 20
1363.6019964543261
 10
238.0
 20
1363.3836218638155
 10
239.0
 20
1363.1692457144848
 10
240.0
 20
1362.9588647322773
 10
241.0
 20
1362.752475704153
 10
242.0
 20
1362.5500754780394
 10
243.0
 20
1362.351660962782
 10
244.0
 20
1362.1572291280984
 10
245.0
 20
1361.9667770045314
 10
246.0
 20
1361.7803016834046
 10
247.0
 20
1361.5978003167766
 10
248.0
 20
1361.4192701173981
 10
249.0
 20
1361.2447083586696
 10
250.0
 20
1361.0741123745997
 10
251.0
 20
1360.9074795597642
 10
252.0
 20
1360.7448073692656
 10
253.0
 20
1360.5860933186962
 10
254.0
 20
1360.431334984098
 10
255.0
 20
1360.2805300019268
 10
256.0
 20
1360.1336760690162
 10
257.0
 20
1359.990770942542
 10
258.0
 20
1359.851812439988
 10
259.0
 20
1359.7167984391124
 10
260.0
 20
1359.5857268779166
 10
261.0
 20
1359.4585957546121
 10
262.0
 20
1359.335403127591
 10
263.0
 20
1359.2161471153956
 10
264.0
 20
1359.100825896691
 10
265.0
 20
1358.9894377102357
 10
266.0
 20
1358.881980854855
 10
267.0
 20
1358.7784536894164
 10
268.0
 20
1358.6788546328025
 10
269.0
 20
1358.5831821638888
 10
270.0
 20
1358.4914348215189
 10
271.0
 20
1358.4036112044828
 10
272.0
 20
1358.3197099714962
 10
273.0
 20
1358.2397298411786
 10
274.0
 20
1358.163669592035
 10
275.0
 20
1358.0915280624365
 10
276.0
 20
1358.0233041506024
 10
277.0
 20
1357.9589968145845
 10
278.0
 20
1357.8986050722501
 10
279.0
 20
1357.8421280012672
 10
280.0
 20
1357.7895647390906
 10
281.0
 20
1357.7409144829487
 10
282.0
 20
1357.6961764898317
 10
283.0
 20
1357.6553500764787
 10
284.0
 20
1357.6184346193695
 10
285.0
 20
1357.5854295547133
 10
286.0
 20
1357.5563343784406
 10
287.0
 20
1357.5311486461958
 10
288.0
 20
1357.5098719733305
 10
289.0
 20
1357.492504034897
 10
290.0
 20
1357.4790445656433
 10
291.0
 20
1357.4694933600103
 10
292.0
 20
1357.4638502721275
 10
293.0
 20
1357.4621152158106
 10
294.0
 20
1357.4642881645611
 10
295.0
 20
1357.4703691515654
 10
296.0
 20
1357.480358269695
 10
297.0
 20
1357.4942556715089
 10
298.0
 20
1357.5120615692547
 10
299.0
 20
1357.533776234873
 10
300.0
 20
1357.5594
  0
LWPOLYLINE
  5
25A
330
17
100
AcDbEntity
  8
0
100
AcDbPolyline
 90
101
 70
0
 10
400.0
 20
1382.2008
 10
399.0
 20
1381.7509462567457
 10
398.0
 20
1381.3053743135179
 10
397.0
 20
1380.8640773653265
 10
396.0
 20
1380.4270486724708
 10
395.0
 20
1379.994281560438
 10
394.0
 20
1379.565769419799
 10
393.0
 20
1379.1415057061095
 10
392.0
 20
1378.7214839398086
 10
391.0
 20
1378.3056977061215
 10
390.0
 20
1377.8941406549593
 10
389.0
 20
1377.4868065008238
 10
388.0
 20
1377.083689022711
 10
387.0
 20
1376.684782064016
 10
386.0
 20
1376.2900795324388
 10
385.0
 20
1375.8995753998913
 10
384.0
 20
1375.5132637024058
 10
383.0
 20
1375.1311385400434
 10
382.0
 20
1374.7531940768035
 10
381.0
 20
1374.3794245405359
 10
380.0
 20
1374.0098242228516
 10
379.0
 20
1373.6443874790357
 10
378.0
 20
1373.2831087279615
 10
377.0
 20
1372.9259824520052
 10
376.0
 20
1372.5730031969622
 10
375.0
 20
1372.224165571962
 10
374.0
 20
1371.8794642493883
 10
373.0
 20
1371.5388939647953
 10
372.0
 20
1371.2024495168296
 10
371.0
 20
1370.8701257671485
 10
370.0
 20
1370.5419176403432
 10
369.0
 20
1370.2178201238603
 10
368.0
 20
1369.8978282679261
 10
367.0
 20
1369.5819371854702
 10
366.0
 20
1369.2701420520514
 10
365.0
 20
1368.9624381057836
 10
364.0
 20
1368.6588206472632
 10
363.0
 20
1368.3592850394978
 10
362.0
 20
1368.0638267078346
 10
361.0
 20
1367.7724411398915
 10
360.0
 20
1367.485123885487
 10
359.0
 20
1367.2018705565727
 10
358.0
 20
1366.9226768271676
 10
357.0
 20
1366.6475384332896
 10
356.0
 20
1366.376451172892
 10
355.0
 20
1366.1094109057997
 10
354.0
 20
1365.846413553644
 10
353.0
 20
1365.5874550998028
 10
352.0
 20
1365.332531589337
 10
351.0
 20
1365.0816391289313
 10
350.0
 20
1364.8347738868354
 10
349.0
 20
1364.5919320928033
 10
348.0
 20
1364.3531100380383
 10
347.0
 20
1364.1183040751341
 10
346.0
 20
1363.8875106180208
 10
345.0
 20
1363.660726141909
 10
344.0
 20
1363.4379471832367
 10
343.0
 20
1363.2191703396159
 10
342.0
 20
1363.0043922697805
 10
341.0
 20
1362.7936096935366
 10
340.0
 20
1362.5868193917104
 10
339.0
 20
1362.3840182061003
 10
338.0
 20
1362.185203039429
 10
337.0
 20
1361.990370855295
 10
336.0
 20
1361.7995186781268
 10
335.0
 20
1361.612643593138
 10
334.0
 20
1361.4297427462816
 10
333.0
 20
1361.2508133442077
 10
332.0
 20
1361.07585265422
 10
331.0
 20
1360.904858004234
 10
330.0
 20
1360.737826782737
 10
329.0
 20
1360.5747564387473
 10
328.0
 20
1360.4156444817759
 10
327.0
 20
1360.260488481788
 10
326.0
 20
1360.1092860691658
 10
325.0
 20
1359.9620349346735
 10
324.0
 20
1359.8187328294205
 10
323.0
 20
1359.6793775648275
 10
322.0
 20
1359.5439670125938
 10
321.0
 20
1359.4124991046638
 10
320.0
 20
1359.284971833196
 10
319.0
 20
1359.1613832505327
 10
318.0
 20
1359.0417314691688
 10
317.0
 20
1358.9260146617248
 10
316.0
 20
1358.8142310609173
 10
315.0
 20
1358.7063789595336
 10
314.0
 20
1358.6024567104039
 10
313.0
 20
1358.5024627263774
 10
312.0
 20
1358.4063954802978
 10
311.0
 20
1358.3142535049794
 10
310.0
 20
1358.2260353931856
 10
309.0
 20
1358.141739797607
 10
308.0
 20
1358.0613654308402
 10
307.0
 20
1357.9849110653688
 10
306.0
 20
1357.9123755335452
 10
305.0
 20
1357.8437577275718
 10
304.0
 20
1357.7790565994837
 10
303.0
 20
1357.7182711611342
 10
302.0
 20
1357.661400484179
 10
301.0
 20
1357.6084437000616
 10
300.0
 20
1357.5594
  0
LWPOLYLINE
  5
25B
330
17
100
AcDbEntity
  8
0
100
AcDbPolyline
 90
101
 70
0
 10
500.0
 20
1423.8118
 10
499.0
 20
1423.1799275130477
 10
498.0
 20
1422.552673005262
 10
497.0
 20
1421.9300268969093
 10
496.0
 20
1421.3119796786368
 10
495.0
 20
1420.698521911329
 10
494.0
 20
1420.0896442259618
 10
493.0
 20
1419.4853373234614
 10
492.0
 20
1418.8855919745602
 10
491.0
 20
1418.2903990196573
 10
490.0
 20
1417.6997493686786
 10
489.0
 20
1417.1136340009364
 10
488.0
 20
1416.532043964994
 10
487.0
 20
1415.9549703785272
 10
486.0
 20
1415.3824044281887
 10
485.0
 20
1414.8143373694752
 10
484.0
 20
1414.2507605265914
 10
483.0
 20
1413.6916652923196
 10
482.0
 20
1413.137043127887
 10
481.0
 20
1412.5868855628357
 10
480.0
 20
1412.0411841948937
 10
479.0
 20
1411.4999306898455
 10
478.0
 20
1410.9631167814061
 10
477.0
 20
1410.430734271094
 10
476.0
 20
1409.9027750281061
 10
475.0
 20
1409.3792309891935
 10
474.0
 20
1408.860094158539
 10
473.0
 20
1408.3453566076332
 10
472.0
 20
1407.8350104751557
 10
471.0
 20
1407.329047966854
 10
470.0
 20
1406.8274613554238
 10
469.0
 20
1406.3302429803916
 10
468.0
 20
1405.8373852479986
 10
467.0
 20
1405.3488806310827
 10
466.0
 20
1404.8647216689656
 10
465.0
 20
1404.3849009673372
 10
464.0
 20
1403.9094111981442
 10
463.0
 20
1403.4382450994765
 10
462.0
 20
1402.9713954754582
 10
461.0
 20
1402.5088551961358
 10
460.0
 20
1402.0506171973707
 10
459.0
 20
1401.5966744807306
 10
458.0
 20
1401.1470201133827
 10
457.0
 20
1400.7016472279884
 10
456.0
 20
1400.2605490225974
 10
455.0
 20
1399.823718760545
 10
454.0
 20
1399.3911497703482
 10
453.0
 20
1398.962835445604
 10
452.0
 20
1398.538769244889
 10
451.0
 20
1398.1189446916594
 10
450.0
 20
1397.7033553741517
 10
449.0
 20
1397.2919949452846
 10
448.0
 20
1396.884857122563
 10
447.0
 20
1396.4819356879814
 10
446.0
 20
1396.0832244879284
 10
445.0
 20
1395.688717433094
 10
444.0
 20
1395.2984084983761
 10
443.0
 20
1394.9122917227876
 10
442.0
 20
1394.5303612093664
 10
441.0
 20
1394.152611125085
 10
440.0
 20
1393.779035700762
 10
439.0
 20
1393.4096292309723
 10
438.0
 20
1393.0443860739622
 10
437.0
 20
1392.6833006515612
 10
436.0
 20
1392.3263674490986
 10
435.0
 20
1391.9735810153177
 10
434.0
 20
1391.6249359622936
 10
433.0
 20
1391.2804269653504
 10
432.0
 20
1390.9400487629803
 10
431.0
 20
1390.6037961567629
 10
430.0
 20
1390.2716640112856
 10
429.0
 20
1389.9436472540658
 10
428.0
 20
1389.619740875473
 10
427.0
 20
1389.2999399286527
 10
426.0
 20
1388.9842395294497
 10
425.0
 20
1388.6726348563354
 10
424.0
 20
1388.3651211503322
 10
423.0
 20
1388.0616937149423
 10
422.0
 20
1387.7623479160752
 10
421.0
 20
1387.4670791819774
 10
420.0
 20
1387.1758830031615
 10
419.0
 20
1386.888754932339
 10
418.0
 20
1386.6056905843511
 10
417.0
 20
1386.3266856361024
 10
416.0
 20
1386.0517358264942
 10
415.0
 20
1385.7808369563604
 10
414.0
 20
1385.5139848884023
 10
413.0
 20
1385.2511755471262
 10
412.0
 20
1384.9924049187805
 10
411.0
 20
1384.7376690512954
 10
410.0
 20
1384.4869640542215
 10
409.0
 20
1384.2402860986708
 10
408.0
 20
1383.9976314172584
 10
407.0
 20
1383.7589963040448
 10
406.0
 20
1383.524377114479
 10
405.0
 20
1383.293770265343
 10
404.0
 20
1383.0671722346983
 10
403.0
 20
1382.8445795618297
 10
402.0
 20
1382.6259888471943
 10
401.0
 20
1382.4113967523692
 10
400.0
 20
1382.2008
  0
LWPOLYLINE
  5
25C
330
17
100
AcDbEntity
  8
0
100
AcDbPolyline
 90
353
 70
0
 10
0.0
 20
1356.4416
 10
0.0
 20
1356.4416
 10
8.6489
 20
1357.9059
 10
11.6826
 20
1358.2504
 10
12.8386
 20
1358.3817
 10
16.9872
 20
1358.1077
 10
19.029
 20
1358.0717
 10
28.9321
 20
1357.8971
 10
36.596
 20
1356.425
 10
40.4534
 20
1355.684
 10
63.0346
 20
1350.0
 10
80.0984
 20
1343.3077
 10
87.8075
 20
1340.0
 10
92.9356
 20
1337.5166
 10
100.0
 20
1333.6451
 10
106.651
 20
1330.0
 10
115.5001
 20
1325.9055
 10
118.1865
 20
1324.2557
 10
125.1164
 20
1320.0
 10
127.8314
 20
1318.3646
 10
139.4499
 20
1311.3663
 10
141.7514
 20
1310.0
 10
143.5848
 20
1308.9695
 10
145.7029
 20
1307.6448
 10
157.9269
 20
1300.0
 10
159.7824
 20
1298.7993
 10
165.092
 20
1295.3633
 10
172.8788
 20
1290.0491
 10
172.9507
 20
1290.0
 10
186.7912
 20
1281.7407
 10
186.9397
 20
1281.6521
 10
189.877
 20
1280.0
 10
193.9376
 20
1277.6253
 10
200.0
 20
1274.5283
 10
208.8641
 20
1270.0
 10
222.4238
 20
1264.0481
 10
224.3385
 20
1263.3002
 10
232.787
 20
1260.0
 10
234.9371
 20
1259.6338
 10
235.4819
 20
1259.5409
 10
244.6367
 20
1257.9814
 10
255.5253
 20
1257.116
 10
255.7717
 20
1257.0964
 10
256.6328
 20
1257.028
 10
258.5589
 20
1257.0174
 10
265.2894
 20
1256.9805
 10
286.3766
 20
1256.5681
 10
286.5928
 20
1256.5638
 10
287.0609
 20
1256.5547
 10
293.4226
 20
1256.8267
 10
293.4714
 20
1256.8287
 10
293.6123
 20
1256.8348
 10
300.0
 20
1257.5594
 10
300.7922
 20
1257.6492
 10
321.5161
 20
1260.0
 10
332.9907
 20
1262.0825
 10
338.8601
 20
1263.8783
 10
358.8685
 20
1270.0
 10
365.1178
 20
1272.2646
 10
375.0526
 20
1275.8645
 10
391.7005
 20
1280.0
 10
400.0
 20
1282.2008
 10
404.7704
 20
1283.4658
 10
411.1241
 20
1286.2943
 10
419.4484
 20
1290.0
 10
426.5064
 20
1292.9967
 10
433.3668
 20
1295.9096
 10
436.9768
 20
1297.0738
 10
442.8676
 20
1298.7503
 10
447.2587
 20
1300.0
 10
454.97
 20
1303.2548
 10
467.6161
 20
1308.5925
 10
471.3187
 20
1310.0
 10
476.7924
 20
1312.6461
 10
480.0633
 20
1314.2273
 10
490.9935
 20
1319.5842
 10
491.8419
 20
1320.0
 10
500.0
 20
1323.8118
 10
512.5736
 20
1329.6866
 10
512.7206
 20
1329.7553
 10
513.2594
 20
1330.0
 10
515.2019
 20
1330.9563
 10
532.4944
 20
1340.0
 10
539.9286
 20
1343.6862
 10
542.1653
 20
1344.7864
 10
552.7649
 20
1350.0
 10
561.7795
 20
1353.0794
 10
566.9746
 20
1354.8111
 10
582.5413
 20
1360.0
 10
586.0607
 20
1360.4614
 10
587.2906
 20
1360.5808
 10
623.8143
 20
1364.1266
 10
626.8386
 20
1364.2519
 10
636.8798
 20
1364.6678
 10
661.3075
 20
1365.2145
 10
667.4132
 20
1364.8406
 10
697.4574
 20
1363.0012
 10
712.6543
 20
1362.7046
 10
721.8542
 20
1361.9689
 10
746.4754
 20
1360.0
 10
764.2766
 20
1358.8107
 10
774.7695
 20
1357.6921
 10
813.6202
 20
1357.5929
 10
821.2377
 20
1358.7049
 10
831.8266
 20
1360.0
 10
848.9644
 20
1363.051
 10
856.7029
 20
1363.5734
 10
858.1169
 20
1363.8872
 10
872.1719
 20
1367.0065
 10
872.5197
 20
1367.0837
 10
874.2834
 20
1367.4751
 10
879.351
 20
1367.8911
 10
905.0413
 20
1370.0
 10
937.3403
 20
1373.7741
 10
959.8228
 20
1375.8388
 10
960.1196
 20
1375.835
 10
981.6139
 20
1375.5619
 10
985.8937
 20
1375.6195
 10
1008.3268
 20
1375.9215
 10
1014.9286
 20
1377.1277
 10
1043.729
 20
1379.1757
 10
1049.7631
 20
1380.0
 10
1055.5566
 20
1380.8263
 10
1060.6534
 20
1381.5859
 10
1060.8111
 20
1381.6156
 10
1083.5661
 20
1385.8983
 10
1084.2274
 20
1386.0014
 10
1109.8734
 20
1390.0
 10
1116.9019
 20
1390.7764
 10
1130.0083
 20
1391.1331
 10
1165.05
 20
1392.0869
 10
1175.508
 20
1391.7162
 10
1215.7346
 20
1390.2905
 10
1219.4317
 20
1390.0
 10
1223.4028
 20
1390.0
 10
1224.4695
 20
1390.0
 10
1247.3763
 20
1390.0
 10
1248.3351
 20
1390.0
 10
1252.408
 20
1390.0
 10
1256.8774
 20
1390.0
 10
1274.0317
 20
1390.0
 10
1278.4437
 20
1390.2492
 10
1297.5631
 20
1391.3288
 10
1303.8216
 20
1391.9797
 10
1307.4663
 20
1392.1588
 10
1338.3973
 20
1393.6789
 10
1359.591
 20
1395.1764
 10
1364.2905
 20
1395.4055
 10
1377.7267
 20
1396.0607
 10
1388.2688
 20
1397.2052
 10
1410.352
 20
1399.6027
 10
1413.3637
 20
1400.0
 10
1434.9511
 20
1403.231
 10
1444.0343
 20
1404.74
 10
1475.6982
 20
1410.0
 10
1505.7196
 20
1413.4255
 10
1517.0171
 20
1414.8043
 10
1526.7541
 20
1415.5645
 10
1557.6465
 20
1417.9765
 10
1566.8575
 20
1419.0405
 10
1567.9366
 20
1419.1652
 10
1575.8636
 20
1419.9403
 10
1576.7058
 20
1419.9346
 10
1577.5579
 20
1419.932
 10
1595.4357
 20
1419.7837
 10
1596.3402
 20
1419.7793
 10
1599.7811
 20
1419.7623
 10
1630.2244
 20
1419.5846
 10
1659.6226
 20
1419.7515
 10
1665.0687
 20
1419.7657
 10
1683.6132
 20
1419.8138
 10
1686.961
 20
1419.8216
 10
1698.5256
 20
1419.8485
 10
1699.6204
 20
1419.8518
 10
1703.539
 20
1419.8639
 10
1716.8762
 20
1419.8939
 10
1724.8701
 20
1419.9119
 10
1730.1589
 20
1419.9356
 10
1745.1608
 20
1419.9361
 10
1747.8147
 20
1419.9433
 10
1753.3738
 20
1419.9652
 10
1761.6931
 20
1419.9526
 10
1761.8407
 20
1419.9334
 10
1763.3883
 20
1419.7325
 10
1763.6549
 20
1419.7045
 10
1766.5169
 20
1419.4039
 10
1767.321
 20
1419.3194
 10
1775.4469
 20
1418.4657
 10
1791.7061
 20
1417.4975
 10
1793.9014
 20
1417.3668
 10
1796.6717
 20
1417.2018
 10
1827.6729
 20
1416.8522
 10
1831.9657
 20
1416.8038
 10
1837.2638
 20
1416.744
 10
1867.8618
 20
1417.0375
 10
1872.2033
 20
1417.0792
 10
1877.4483
 20
1417.1295
 10
1882.4149
 20
1417.1483
 10
1888.4151
 20
1417.171
 10
1901.4633
 20
1417.2832
 10
1903.1721
 20
1417.2979
 10
1905.4347
 20
1417.3174
 10
1908.0967
 20
1417.4087
 10
1911.6213
 20
1417.5297
 10
1919.2948
 20
1417.1422
 10
1929.4549
 20
1416.6291
 10
1952.8387
 20
1414.8403
 10
1983.8006
 20
1412.4719
 10
1988.8475
 20
1411.7761
 10
2001.7292
 20
1410.0
 10
2002.079
 20
1410.0
 10
2046.0676
 20
1410.0
 10
2063.3708
 20
1410.0
 10
2093.6824
 20
1414.8818
 10
2097.8708
 20
1415.1621
 10
2115.1002
 20
1416.3152
 10
2118.3995
 20
1416.3575
 10
2129.7355
 20
1416.5026
 10
2138.0306
 20
1417.3581
 10
2143.2088
 20
1417.8921
 10
2158.5925
 20
1417.1771
 10
2190.4276
 20
1419.2138
 10
2236.7064
 20
1417.6849
 10
2253.2383
 20
1417.6105
 10
2262.3203
 20
1417.0551
 10
2294.353
 20
1413.196
 10
2309.2329
 20
1411.9797
 10
2333.4524
 20
1410.0
 10
2333.5774
 20
1409.9963
 10
2333.5888
 20
1409.9959
 10
2333.6236
 20
1409.9967
 10
2333.9193
 20
1409.9949
 10
2345.6599
 20
1409.9779
 10
2346.5479
 20
1410.0
 10
2356.8865
 20
1410.723
 10
2364.1114
 20
1412.3299
 10
2398.5991
 20
1420.0
 10
2406.2858
 20
1422.4557
 10
2414.7846
 20
1425.1024
 10
2430.5111
 20
1430.0
 10
2452.1785
 20
1435.8472
 10
2453.7312
 20
1436.1232
 10
2470.5229
 20
1439.1073
 10
2477.02
 20
1440.0
 10
2493.791
 20
1440.0
 10
2514.5212
 20
1440.0
 10
2519.4576
 20
1440.0
 10
2521.1304
 20
1440.0
 10
2526.0332
 20
1440.0
 10
2527.8177
 20
1440.0
 10
2528.2958
 20
1440.0
 10
2529.6757
 20
1440.0
 10
2554.949
 20
1434.4089
 10
2561.4427
 20
1432.3556
 10
2568.4316
 20
1430.0
 10
2570.857
 20
1428.9913
 10
2590.5788
 20
1420.7886
 10
2591.8363
 20
1420.0
 10
2593.9203
 20
1419.0404
 10
2594.3372
 20
1418.7957
 10
2609.3236
 20
1410.0
 10
2610.2784
 20
1409.4617
 10
2615.0539
 20
1406.7688
 10
2624.5659
 20
1401.2427
 10
2626.7049
 20
1400.0
 10
2630.9626
 20
1397.1624
 10
2642.46
 20
1390.0
 10
2646.1095
 20
1387.6464
 10
2656.6661
 20
1380.8383
 10
2657.5701
 20
1380.2343
 10
2657.9208
 20
1380.0
 10
2658.9217
 20
1379.2249
 10
2670.7942
 20
1370.0
 10
2673.9251
 20
1367.7412
 10
2678.3093
 20
1364.5781
 10
2685.2766
 20
1360.0
 10
2691.7721
 20
1356.3185
 10
2698.779
 20
1352.3472
 10
2704.1485
 20
1350.0
 10
2717.2268
 20
1344.7851
 10
2717.2852
 20
1344.7579
 10
2727.4878
 20
1340.0
 10
2727.5022
 20
1339.9964
 10
2729.2896
 20
1339.5513
 10
2729.345
 20
1339.5375
 10
2736.1004
 20
1337.855
 10
2736.1265
 20
1337.8547
 10
2739.2962
 20
1337.8187
 10
2739.569
 20
1337.8264
 10
2760.7226
 20
1338.4203
 10
2761.0648
 20
1338.4299
 10
2772.798
 20
1339.495
 10
2785.3194
 20
1340.0
 10
2788.7496
 20
1341.3237
 10
2797.0564
 20
1344.5293
 10
2808.1058
 20
1349.9857
 10
2808.1349
 20
1350.0
 10
2813.0789
 20
1352.3453
 10
2827.3383
 20
1360.0
 10
2833.8626
 20
1363.0782
 10
2844.8821
 20
1368.2771
 10
2846.9281
 20
1369.5118
 10
2847.7371
 20
1370.0
 10
2859.416
 20
1375.0533
 10
2869.5188
 20
1380.0
 10
2876.4279
 20
1381.6053
 10
2912.3826
 20
1389.9589
 10
2912.5208
 20
1390.0
 10
2912.6966
 20
1390.0228
 10
2912.8056
 20
1390.0354
 10
2913.0907
 20
1390.0813
 10
2913.2857
 20
1390.1163
 10
2968.3703
 20
1400.0
 10
2975.1452
 20
1401.3758
 10
3010.1597
 20
1408.4861
 10
3016.2391
 20
1409.8633
 10
3016.8428
 20
1410.0
 10
3018.1404
 20
1410.3223
 10
3020.5514
 20
1410.7795
 10
3045.7923
 20
1415.1338
 10
3050.8049
 20
1415.6427
 10
3068.8673
 20
1417.4765
 10
3076.0692
 20
1417.9413
 10
3092.3654
 20
1417.4809
 10
3099.6878
 20
1417.3022
 10
3150.3373
 20
1416.0668
 10
3157.2067
 20
1416.2778
 10
3163.1373
 20
1416.7845
 10
3185.2369
 20
1418.6724
 10
3191.4358
 20
1419.6553
 10
3193.6103
 20
1420.0
 10
3219.2271
 20
1423.1179
 10
3253.8319
 20
1430.0
 10
3275.8463
 20
1430.6501
 10
3282.6886
 20
1430.7283
 10
3297.94
 20
1430.9028
 10
3303.1019
 20
1430.7603
 10
3304.1307
 20
1430.7213
 10
3321.8674
 20
1430.0501
 10
3322.1962
 20
1430.0377
 10
3323.1907
 20
1430.0
 10
3327.881
 20
1429.3735
 10
3342.0685
 20
1427.4783
 10
3346.1787
 20
1426.5565
 10
3358.6112
 20
1423.7684
 10
3381.9429
 20
1420.0
 10
3382.828
 20
1419.8559
 10
3403.194
 20
1416.5387
 10
3403.8986
 20
1416.4517
 10
3415.1066
 20
1415.0674
 10
3415.2813
 20
1415.0458
 10
3418.8668
 20
1414.603
 10
3426.4334
 20
1413.8942
  0
LWPOLYLINE
  5
25D
330
17
100
AcDbEntity
  8
0
100
AcDbPolyline
 90
2
 70
0
 10
0.0
 20
1356.4416
 10
0.0
 20
1456.4416
  0
LWPOLYLINE
  5
25E
330
17
100
AcDbEntity
  8
0
100
AcDbPolyline
 90
2
 70
0
 10
100.0
 20
1333.6451
 10
100.0
 20
1433.6451
  0
LWPOLYLINE
  5
25F
330
17
100
AcDbEntity
  8
0
100
AcDbPolyline
 90
2
 70
0
 10
200.0
 20
1274.5283
 10
200.0
 20
1374.5283
  0
LWPOLYLINE
  5
260
330
17
100
AcDbEntity
  8
0
100
AcDbPolyline
 90
2
 70
0
 10
300.0
 20
1257.5594
 10
300.0
 20
1357.5594
  0
LWPOLYLINE
  5
261
330
17
100
AcDbEntity
  8
0
100
AcDbPolyline
 90
2
 70
0
 10
400.0
 20
1282.2008
 10
400.0
 20
1382.2008
  0
LWPOLYLINE
  5
262
330
17
100
AcDbEntity
  8
0
100
AcDbPolyline
 90
2
 70
0
 10
500.0
 20
1323.8118
 10
500.0
 20
1423.8118
  0
LWPOLYLINE
  5
263
330
17
100
AcDbEntity
  8
0
100
AcDbPolyline
 90
101
 70
0
 10
0.0
 20
1456.4416
 10
1.0
 20
1456.1471425109905
 10
2.0
 20
1455.8540427394873
 10
3.0
 20
1455.5623001881177
 10
4.0
 20
1455.271914361812
 10
5.0
 20
1454.9828847678023
 10
6.0
 20
1454.6952109156227
 10
7.0
 20
1454.408892317108
 10
8.0
 20
1454.1239284863923
 10
9.0
 20
1453.8403189399087
 10
10.0
 20
1453.558063196389
 10
11.0
 20
1453.2771607768618
 10
12.0
 20
1452.997611204652
 10
13.0
 20
1452.7194140053814
 10
14.0
 20
1452.442568706965
 10
15.0
 20
1452.1670748396132
 10
16.0
 20
1451.892931935829
 10
17.0
 20
1451.620139530408
 10
18.0
 20
1451.3486971604386
 10
19.0
 20
1451.0786043652981
 10
20.0
 20
1450.8098606866556
 10
21.0
 20
1450.542465668469
 10
22.0
 20
1450.2764188569847
 10
23.0
 20
1450.0117198007372
 10
24.0
 20
1449.7483680505475
 10
25.0
 20
1449.4863631595238
 10
26.0
 20
1449.225704683059
 10
27.0
 20
1448.9663921788313
 10
28.0
 20
1448.7084252068025
 10
29.0
 20
1448.4518033292184
 10
30.0
 20
1448.1965261106066
 10
31.0
 20
1447.9425931177768
 10
32.0
 20
1447.69000391982
 10
33.0
 20
1447.4387580881069
 10
34.0
 20
1447.1888551962886
 10
35.0
 20
1446.9402948202946
 10
36.0
 20
1446.6930765383324
 10
37.0
 20
1446.4471999308878
 10
38.0
 20
1446.2026645807225
 10
39.0
 20
1445.9594700728744
 10
40.0
 20
1445.717615994657
 10
41.0
 20
1445.477101935658
 10
42.0
 20
1445.2379274877399
 10
43.0
 20
1445.0000922450372
 10
44.0
 20
1444.763595803958
 10
45.0
 20
1444.5284377631817
 10
46.0
 20
1444.294617723659
 10
47.0
 20
1444.0621352886117
 10
48.0
 20
1443.83099006353
 10
49.0
 20
1443.6011816561747
 10
50.0
 20
1443.3727096765745
 10
51.0
 20
1443.145573737026
 10
52.0
 20
1442.9197734520933
 10
53.0
 20
1442.695308438606
 10
54.0
 20
1442.4721783156608
 10
55.0
 20
1442.250382704619
 10
56.0
 20
1442.0299212291065
 10
57.0
 20
1441.8107935150133
 10
58.0
 20
1441.592999190493
 10
59.0
 20
1441.376537885961
 10
60.0
 20
1441.1614092340958
 10
61.0
 20
1440.9476128698363
 10
62.0
 20
1440.735148430383
 10
63.0
 20
1440.5240155551967
 10
64.0
 20
1440.314213885997
 10
65.0
 20
1440.1057430667634
 10
66.0
 20
1439.8986027437325
 10
67.0
 20
1439.6927925654
 10
68.0
 20
1439.4883121825183
 10
69.0
 20
1439.2851612480958
 10
70.0
 20
1439.083339417398
 10
71.0
 20
1438.882846347945
 10
72.0
 20
1438.683681699512
 10
73.0
 20
1438.485845134128
 10
74.0
 20
1438.289336316077
 10
75.0
 20
1438.094154911894
 10
76.0
 20
1437.9003005903687
 10
77.0
 20
1437.7077730225415
 10
78.0
 20
1437.5165718817043
 10
79.0
 20
1437.3266968434004
 10
80.0
 20
1437.1381475854232
 10
81.0
 20
1436.9509237878156
 10
82.0
 20
1436.7650251328698
 10
83.0
 20
1436.580451305127
 10
84.0
 20
1436.3972019913763
 10
85.0
 20
1436.2152768806545
 10
86.0
 20
1436.0346756642457
 10
87.0
 20
1435.8553980356799
 10
88.0
 20
1435.677443690734
 10
89.0
 20
1435.5008123274297
 10
90.0
 20
1435.3255036460343
 10
91.0
 20
1435.1515173490593
 10
92.0
 20
1434.97885314126
 10
93.0
 20
1434.807510729636
 10
94.0
 20
1434.6374898234292
 10
95.0
 20
1434.468790134124
 10
96.0
 20
1434.301411375447
 10
97.0
 20
1434.1353532633668
 10
98.0
 20
1433.9706155160923
 10
99.0
 20
1433.8071978540734
 10
100.0
 20
1433.6451
  0
LWPOLYLINE
  5
264
330
17
100
AcDbEntity
  8
0
100
AcDbPolyline
 90
101
 70
0
 10
100.0
 20
1433.6451
 10
101.0
 20
1432.9781760852413
 10
102.0
 20
1432.3128174015337
 10
103.0
 20
1431.649022819803
 10
104.0
 20
1430.986791213629
 10
105.0
 20
1430.3261214592442
 10
106.0
 20
1429.667012435531
 10
107.0
 20
1429.0094630240205
 10
108.0
 20
1428.3534721088904
 10
109.0
 20
1427.6990385769632
 10
110.0
 20
1427.0461613177038
 10
111.0
 20
1426.3948392232182
 10
112.0
 20
1425.7450711882514
 10
113.0
 20
1425.0968561101859
 10
114.0
 20
1424.4501928890386
 10
115.0
 20
1423.805080427461
 10
116.0
 20
1423.1615176307353
 10
117.0
 20
1422.5195034067733
 10
118.0
 20
1421.8790366661153
 10
119.0
 20
1421.2401163219272
 10
120.0
 20
1420.602741289999
 10
121.0
 20
1419.966910488743
 10
122.0
 20
1419.332622839192
 10
123.0
 20
1418.6998772649977
 10
124.0
 20
1418.0686726924284
 10
125.0
 20
1417.4390080503672
 10
126.0
 20
1416.8108822703107
 10
127.0
 20
1416.1842942863664
 10
128.0
 20
1415.5592430352522
 10
129.0
 20
1414.9357274562926
 10
130.0
 20
1414.313746491419
 10
131.0
 20
1413.6932990851667
 10
132.0
 20
1413.074384184673
 10
133.0
 20
1412.457000739676
 10
134.0
 20
1411.841147702513
 10
135.0
 20
1411.2268240281173
 10
136.0
 20
1410.6140286740185
 10
137.0
 20
1410.0027606003391
 10
138.0
 20
1409.3930187697938
 10
139.0
 20
1408.7848021476864
 10
140.0
 20
1408.1781097019093
 10
141.0
 20
1407.572940402942
 10
142.0
 20
1406.9692932238477
 10
143.0
 20
1406.3671671402728
 10
144.0
 20
1405.7665611304453
 10
145.0
 20
1405.1674741751724
 10
146.0
 20
1404.569905257839
 10
147.0
 20
1403.973853364406
 10
148.0
 20
1403.379317483409
 10
149.0
 20
1402.7862966059556
 10
150.0
 20
1402.1947897257246
 10
151.0
 20
1401.604795838964
 10
152.0
 20
1401.0163139444892
 10
153.0
 20
1400.429343043681
 10
154.0
 20
1399.8438821404852
 10
155.0
 20
1399.2599302414087
 10
156.0
 20
1398.6774863555202
 10
157.0
 20
1398.096549494447
 10
158.0
 20
1397.5171186723733
 10
159.0
 20
1396.9391929060396
 10
160.0
 20
1396.3627712147404
 10
161.0
 20
1395.7878526203222
 10
162.0
 20
1395.2144361471817
 10
163.0
 20
1394.6425208222659
 10
164.0
 20
1394.0721056750679
 10
165.0
 20
1393.503189737627
 10
166.0
 20
1392.935772044527
 10
167.0
 20
1392.3698516328939
 10
168.0
 20
1391.8054275423935
 10
169.0
 20
1391.2424988152322
 10
170.0
 20
1390.6810644961536
 10
171.0
 20
1390.1211236324361
 10
172.0
 20
1389.5626752738938
 10
173.0
 20
1389.0057184728732
 10
174.0
 20
1388.450252284251
 10
175.0
 20
1387.8962757654344
 10
176.0
 20
1387.3437879763583
 10
177.0
 20
1386.7927879794834
 10
178.0
 20
1386.2432748397953
 10
179.0
 20
1385.695247624803
 10
180.0
 20
1385.148705404537
 10
181.0
 20
1384.6036472515473
 10
182.0
 20
1384.0600722409024
 10
183.0
 20
1383.5179794501878
 10
184.0
 20
1382.9773679595048
 10
185.0
 20
1382.438236851467
 10
186.0
 20
1381.9005852112014
 10
187.0
 20
1381.3644121263446
 10
188.0
 20
1380.8297166870432
 10
189.0
 20
1380.29649798595
 10
190.0
 20
1379.7647551182254
 10
191.0
 20
1379.2344871815328
 10
192.0
 20
1378.705693276039
 10
193.0
 20
1378.1783725044122
 10
194.0
 20
1377.65252397182
 10
195.0
 20
1377.1281467859292
 10
196.0
 20
1376.6052400569024
 10
197.0
 20
1376.0838028973978
 10
198.0
 20
1375.563834422568
 10
199.0
 20
1375.0453337500571
 10
200.0
 20
1374.5283
  0
LWPOLYLINE
  5
265
330
17
100
AcDbEntity
  8
0
100
AcDbPolyline
 90
101
 70
0
 10
200.0
 20
1374.5283
 10
201.0
 20
1374.2929304440138
 10
202.0
 20
1374.0588989522025
 10
203.0
 20
1373.8262051274282
 10
204.0
 20
1373.5948485748233
 10
205.0
 20
1373.3648289017897
 10
206.0
 20
1373.1361457179974
 10
207.0
 20
1372.9087986353845
 10
208.0
 20
1372.6827872681565
 10
209.0
 20
1372.458111232786
 10
210.0
 20
1372.2347701480107
 10
211.0
 20
1372.012763634834
 10
212.0
 20
1371.792091316524
 10
213.0
 20
1371.5727528186133
 10
214.0
 20
1371.354747768897
 10
215.0
 20
1371.1380757974334
 10
216.0
 20
1370.9227365365434
 10
217.0
 20
1370.7087296208088
 10
218.0
 20
1370.4960546870727
 10
219.0
 20
1370.284711374438
 10
220.0
 20
1370.0746993242683
 10
221.0
 20
1369.8660181801852
 10
222.0
 20
1369.658667588069
 10
223.0
 20
1369.4526471960583
 10
224.0
 20
1369.2479566545487
 10
225.0
 20
1369.0445956161925
 10
226.0
 20
1368.8425637358978
 10
227.0
 20
1368.641860670829
 10
228.0
 20
1368.4424860804045
 10
229.0
 20
1368.2444396262974
 10
230.0
 20
1368.047720972435
 10
231.0
 20
1367.852329784997
 10
232.0
 20
1367.6582657324166
 10
233.0
 20
1367.4655284853782
 10
234.0
 20
1367.2741177168182
 10
235.0
 20
1367.0840331019242
 10
236.0
 20
1366.8952743181335
 10
237.0
 20
1366.7078410451336
 10
238.0
 20
1366.5217329648615
 10
239.0
 20
1366.3369497615033
 10
240.0
 20
1366.153491121492
 10
241.0
 20
1365.97135673351
 10
242.0
 20
1365.7905462884853
 10
243.0
 20
1365.6110594795937
 10
244.0
 20
1365.4328960022565
 10
245.0
 20
1365.2560555541413
 10
246.0
 20
1365.08053783516
 10
247.0
 20
1364.9063425474694
 10
248.0
 20
1364.7334693954706
 10
249.0
 20
1364.5619180858082
 10
250.0
 20
1364.3916883273696
 10
251.0
 20
1364.222779831285
 10
252.0
 20
1364.0551923109267
 10
253.0
 20
1363.8889254819087
 10
254.0
 20
1363.7239790620858
 10
255.0
 20
1363.5603527715543
 10
256.0
 20
1363.3980463326495
 10
257.0
 20
1363.2370594699473
 10
258.0
 20
1363.0773919102626
 10
259.0
 20
1362.9190433826486
 10
260.0
 20
1362.7620136183978
 10
261.0
 20
1362.6063023510396
 10
262.0
 20
1362.4519093163415
 10
263.0
 20
1362.2988342523074
 10
264.0
 20
1362.1470768991783
 10
265.0
 20
1361.9966369994304
 10
266.0
 20
1361.8475142977768
 10
267.0
 20
1361.699708541165
 10
268.0
 20
1361.5532194787768
 10
269.0
 20
1361.4080468620296
 10
270.0
 20
1361.2641904445738
 10
271.0
 20
1361.1216499822938
 10
272.0
 20
1360.9804252333065
 10
273.0
 20
1360.8405159579625
 10
274.0
 20
1360.7019219188433
 10
275.0
 20
1360.5646428807638
 10
276.0
 20
1360.4286786107689
 10
277.0
 20
1360.2940288781356
 10
278.0
 20
1360.1606934543715
 10
279.0
 20
1360.0286721132143
 10
280.0
 20
1359.8979646306311
 10
281.0
 20
1359.7685707848195
 10
282.0
 20
1359.6404903562059
 10
283.0
 20
1359.5137231274448
 10
284.0
 20
1359.3882688834206
 10
285.0
 20
1359.2641274112439
 10
286.0
 20
1359.1412985002548
 10
287.0
 20
1359.0197819420198
 10
288.0
 20
1358.8995775303322
 10
289.0
 20
1358.7806850612124
 10
290.0
 20
1358.663104332907
 10
291.0
 20
1358.5468351458883
 10
292.0
 20
1358.4318773028547
 10
293.0
 20
1358.3182306087292
 10
294.0
 20
1358.2058948706604
 10
295.0
 20
1358.0948698980208
 10
296.0
 20
1357.985155502408
 10
297.0
 20
1357.876751497643
 10
298.0
 20
1357.7696576997707
 10
299.0
 20
1357.6638739270593
 10
300.0
 20
1357.5594
  0
LWPOLYLINE
  5
266
330
17
100
AcDbEntity
  8
0
100
AcDbPolyline
 90
101
 70
0
 10
400.0
 20
1382.2008
 10
399.0
 20
1381.887593854658
 10
398.0
 20
1381.5757525107308
 10
397.0
 20
1381.2652754390424
 10
396.0
 20
1380.9561621127311
 10
395.0
 20
1380.6484120072505
 10
394.0
 20
1380.3420246003666
 10
393.0
 20
1380.0369993721583
 10
392.0
 20
1379.7333358050155
 10
391.0
 20
1379.4310333836397
 10
390.0
 20
1379.1300915950414
 10
389.0
 20
1378.8305099285399
 10
388.0
 20
1378.5322878757634
 10
387.0
 20
1378.2354249306466
 10
386.0
 20
1377.9399205894304
 10
385.0
 20
1377.6457743506617
 10
384.0
 20
1377.3529857151918
 10
383.0
 20
1377.061554186176
 10
382.0
 20
1376.7714792690717
 10
381.0
 20
1376.4827604716395
 10
380.0
 20
1376.1953973039401
 10
379.0
 20
1375.9093892783362
 10
378.0
 20
1375.6247359094882
 10
377.0
 20
1375.3414367143569
 10
376.0
 20
1375.0594912121996
 10
375.0
 20
1374.7788989245723
 10
374.0
 20
1374.4996593753262
 10
373.0
 20
1374.2217720906085
 10
372.0
 20
1373.9452365988607
 10
371.0
 20
1373.6700524308185
 10
370.0
 20
1373.396219119511
 10
369.0
 20
1373.1237362002591
 10
368.0
 20
1372.8526032106752
 10
367.0
 20
1372.5828196906632
 10
366.0
 20
1372.3143851824161
 10
365.0
 20
1372.0472992304167
 10
364.0
 20
1371.7815613814357
 10
363.0
 20
1371.5171711845321
 10
362.0
 20
1371.254128191051
 10
361.0
 20
1370.9924319546246
 10
360.0
 20
1370.7320820311693
 10
359.0
 20
1370.473077978887
 10
358.0
 20
1370.2154193582633
 10
357.0
 20
1369.9591057320665
 10
356.0
 20
1369.7041366653477
 10
355.0
 20
1369.4505117254398
 10
354.0
 20
1369.1982304819562
 10
353.0
 20
1368.9472925067903
 10
352.0
 20
1368.6976973741155
 10
351.0
 20
1368.4494446603835
 10
350.0
 20
1368.2025339443244
 10
349.0
 20
1367.9569648069453
 10
348.0
 20
1367.7127368315296
 10
347.0
 20
1367.4698496036374
 10
346.0
 20
1367.2283027111032
 10
345.0
 20
1366.9880957440362
 10
344.0
 20
1366.7492282948197
 10
343.0
 20
1366.5116999581096
 10
342.0
 20
1366.2755103308345
 10
341.0
 20
1366.0406590121945
 10
340.0
 20
1365.807145603661
 10
339.0
 20
1365.5749697089752
 10
338.0
 20
1365.344130934149
 10
337.0
 20
1365.1146288874622
 10
336.0
 20
1364.8864631794638
 10
335.0
 20
1364.6596334229698
 10
334.0
 20
1364.4341392330637
 10
333.0
 20
1364.2099802270952
 10
332.0
 20
1363.9871560246797
 10
331.0
 20
1363.765666247698
 10
330.0
 20
1363.5455105202948
 10
329.0
 20
1363.3266884688792
 10
328.0
 20
1363.1091997221229
 10
327.0
 20
1362.8930439109604
 10
326.0
 20
1362.6782206685882
 10
325.0
 20
1362.464729630464
 10
324.0
 20
1362.252570434306
 10
323.0
 20
1362.0417427200932
 10
322.0
 20
1361.8322461300627
 10
321.0
 20
1361.6240803087117
 10
320.0
 20
1361.4172449027951
 10
319.0
 20
1361.2117395613252
 10
318.0
 20
1361.0075639355719
 10
317.0
 20
1360.8047176790612
 10
316.0
 20
1360.603200447575
 10
315.0
 20
1360.4030118991504
 10
314.0
 20
1360.2041516940799
 10
313.0
 20
1360.0066194949086
 10
312.0
 20
1359.810414966437
 10
311.0
 20
1359.6155377757168
 10
310.0
 20
1359.4219875920535
 10
309.0
 20
1359.229764087004
 10
308.0
 20
1359.038866934376
 10
307.0
 20
1358.8492958102288
 10
306.0
 20
1358.661050392871
 10
305.0
 20
1358.4741303628614
 10
304.0
 20
1358.2885354030082
 10
303.0
 20
1358.104265198367
 10
302.0
 20
1357.921319436243
 10
301.0
 20
1357.739697806188
 10
300.0
 20
1357.5594
  0
LWPOLYLINE
  5
267
330
17
100
AcDbEntity
  8
0
100
AcDbPolyline
 90
101
 70
0
 10
500.0
 20
1423.8118
 10
499.0
 20
1423.3252364442194
 10
498.0
 20
1422.8401211586263
 10
497.0
 20
1422.356453320009
 10
496.0
 20
1421.874232107612
 10
495.0
 20
1421.393456703134
 10
494.0
 20
1420.9141262907283
 10
493.0
 20
1420.4362400569992
 10
492.0
 20
1419.959797191002
 10
491.0
 20
1419.4847968842419
 10
490.0
 20
1419.0112383306712
 10
489.0
 20
1418.5391207266894
 10
488.0
 20
1418.0684432711405
 10
487.0
 20
1417.5992051653132
 10
486.0
 20
1417.131405612938
 10
485.0
 20
1416.6650438201866
 10
484.0
 20
1416.2001189956713
 10
483.0
 20
1415.736630350442
 10
482.0
 20
1415.2745770979857
 10
481.0
 20
1414.8139584542257
 10
480.0
 20
1414.3547736375197
 10
479.0
 20
1413.8970218686577
 10
478.0
 20
1413.4407023708625
 10
477.0
 20
1412.9858143697868
 10
476.0
 20
1412.532357093513
 10
475.0
 20
1412.0803297725506
 10
474.0
 20
1411.6297316398363
 10
473.0
 20
1411.1805619307315
 10
472.0
 20
1410.732819883022
 10
471.0
 20
1410.2865047369164
 10
470.0
 20
1409.8416157350441
 10
469.0
 20
1409.3981521224548
 10
468.0
 20
1408.9561131466173
 10
467.0
 20
1408.5154980574173
 10
466.0
 20
1408.0763061071573
 10
465.0
 20
1407.6385365505546
 10
464.0
 20
1407.2021886447403
 10
463.0
 20
1406.767261649258
 10
462.0
 20
1406.333754826062
 10
461.0
 20
1405.9016674395175
 10
460.0
 20
1405.4709987563974
 10
459.0
 20
1405.0417480458823
 10
458.0
 20
1404.6139145795598
 10
457.0
 20
1404.1874976314216
 10
456.0
 20
1403.7624964778634
 10
455.0
 20
1403.3389103976833
 10
454.0
 20
1402.9167386720815
 10
453.0
 20
1402.4959805846565
 10
452.0
 20
1402.0766354214077
 10
451.0
 20
1401.6587024707312
 10
450.0
 20
1401.242181023419
 10
449.0
 20
1400.8270703726594
 10
448.0
 20
1400.413369814034
 10
447.0
 20
1400.0010786455177
 10
446.0
 20
1399.5901961674765
 10
445.0
 20
1399.1807216826676
 10
444.0
 20
1398.772654496237
 10
443.0
 20
1398.3659939157187
 10
442.0
 20
1397.960739251034
 10
441.0
 20
1397.5568898144898
 10
440.0
 20
1397.154444920777
 10
439.0
 20
1396.7534038869715
 10
438.0
 20
1396.3537660325296
 10
437.0
 20
1395.9555306792897
 10
436.0
 20
1395.5586971514706
 10
435.0
 20
1395.1632647756685
 10
434.0
 20
1394.769232880859
 10
433.0
 20
1394.3766007983925
 10
432.0
 20
1393.9853678619963
 10
431.0
 20
1393.595533407771
 10
430.0
 20
1393.2070967741906
 10
429.0
 20
1392.8200573021013
 10
428.0
 20
1392.43441433472
 10
427.0
 20
1392.0501672176335
 10
426.0
 20
1391.6673152987976
 10
425.0
 20
1391.2858579285346
 10
424.0
 20
1390.9057944595343
 10
423.0
 20
1390.5271242468516
 10
422.0
 20
1390.1498466479056
 10
421.0
 20
1389.7739610224785
 10
420.0
 20
1389.399466732715
 10
419.0
 20
1389.0263631431199
 10
418.0
 20
1388.654649620559
 10
417.0
 20
1388.2843255342566
 10
416.0
 20
1387.9153902557941
 10
415.0
 20
1387.547843159111
 10
414.0
 20
1387.181683620501
 10
413.0
 20
1386.8169110186136
 10
412.0
 20
1386.4535247344509
 10
411.0
 20
1386.091524151368
 10
410.0
 20
1385.7309086550717
 10
409.0
 20
1385.3716776336187
 10
408.0
 20
1385.0138304774152
 10
407.0
 20
1384.657366579216
 10
406.0
 20
1384.3022853341224
 10
405.0
 20
1383.9485861395835
 10
404.0
 20
1383.5962683953924
 10
403.0
 20
1383.2453315036862
 10
402.0
 20
1382.8957748689468
 10
401.0
 20
1382.5475978979966
 10
400.0
 20
1382.2008
  0
LWPOLYLINE
  5
268
330
17
100
AcDbEntity
  8
0
100
AcDbPolyline
 90
353
 70
0
 10
0.0
 20
1356.4416
 10
0.0
 20
1356.4416
 10
8.6489
 20
1357.9059
 10
11.6826
 20
1358.2504
 10
12.8386
 20
1358.3817
 10
16.9872
 20
1358.1077
 10
19.029
 20
1358.0717
 10
28.9321
 20
1357.8971
 10
36.596
 20
1356.425
 10
40.4534
 20
1355.684
 10
63.0346
 20
1350.0
 10
80.0984
 20
1343.3077
 10
87.8075
 20
1340.0
 10
92.9356
 20
1337.5166
 10
100.0
 20
1333.6451
 10
106.651
 20
1330.0
 10
115.5001
 20
1325.9055
 10
118.1865
 20
1324.2557
 10
125.1164
 20
1320.0
 10
127.8314
 20
1318.3646
 10
139.4499
 20
1311.3663
 10
141.7514
 20
1310.0
 10
143.5848
 20
1308.9695
 10
145.7029
 20
1307.6448
 10
157.9269
 20
1300.0
 10
159.7824
 20
1298.7993
 10
165.092
 20
1295.3633
 10
172.8788
 20
1290.0491
 10
172.9507
 20
1290.0
 10
186.7912
 20
1281.7407
 10
186.9397
 20
1281.6521
 10
189.877
 20
1280.0
 10
193.9376
 20
1277.6253
 10
200.0
 20
1274.5283
 10
208.8641
 20
1270.0
 10
222.4238
 20
1264.0481
 10
224.3385
 20
1263.3002
 10
232.787
 20
1260.0
 10
234.9371
 20
1259.6338
 10
235.4819
 20
1259.5409
 10
244.6367
 20
1257.9814
 10
255.5253
 20
1257.116
 10
255.7717
 20
1257.0964
 10
256.6328
 20
1257.028
 10
258.5589
 20
1257.0174
 10
265.2894
 20
1256.9805
 10
286.3766
 20
1256.5681
 10
286.5928
 20
1256.5638
 10
287.0609
 20
1256.5547
 10
293.4226
 20
1256.8267
 10
293.4714
 20
1256.8287
 10
293.6123
 20
1256.8348
 10
300.0
 20
1257.5594
 10
300.7922
 20
1257.6492
 10
321.5161
 20
1260.0
 10
332.9907
 20
1262.0825
 10
338.8601
 20
1263.8783
 10
358.8685
 20
1270.0
 10
365.1178
 20
1272.2646
 10
375.0526
 20
1275.8645
 10
391.7005
 20
1280.0
 10
400.0
 20
1282.2008
 10
404.7704
 20
1283.4658
 10
411.1241
 20
1286.2943
 10
419.4484
 20
1290.0
 10
426.5064
 20
1292.9967
 10
433.3668
 20
1295.9096
 10
436.9768
 20
1297.0738
 10
442.8676
 20
1298.7503
 10
447.2587
 20
1300.0
 10
454.97
 20
1303.2548
 10
467.6161
 20
1308.5925
 10
471.3187
 20
1310.0
 10
476.7924
 20
1312.6461
 10
480.0633
 20
1314.2273
 10
490.9935
 20
1319.5842
 10
491.8419
 20
1320.0
 10
500.0
 20
1323.8118
 10
512.5736
 20
1329.6866
 10
512.7206
 20
1329.7553
 10
513.2594
 20
1330.0
 10
515.2019
 20
1330.9563
 10
532.4944
 20
1340.0
 10
539.9286
 20
1343.6862
 10
542.1653
 20
1344.7864
 10
552.7649
 20
1350.0
 10
561.7795
 20
1353.0794
 10
566.9746
 20
1354.8111
 10
582.5413
 20
1360.0
 10
586.0607
 20
1360.4614
 10
587.2906
 20
1360.5808
 10
623.8143
 20
1364.1266
 10
626.8386
 20
1364.2519
 10
636.8798
 20
1364.6678
 10
661.3075
 20
1365.2145
 10
667.4132
 20
1364.8406
 10
697.4574
 20
1363.0012
 10
712.6543
 20
1362.7046
 10
721.8542
 20
1361.9689
 10
746.4754
 20
1360.0
 10
764.2766
 20
1358.8107
 10
774.7695
 20
1357.6921
 10
813.6202
 20
1357.5929
 10
821.2377
 20
1358.7049
 10
831.8266
 20
1360.0
 10
848.9644
 20
1363.051
 10
856.7029
 20
1363.5734
 10
858.1169
 20
1363.8872
 10
872.1719
 20
1367.0065
 10
872.5197
 20
1367.0837
 10
874.2834
 20
1367.4751
 10
879.351
 20
1367.8911
 10
905.0413
 20
1370.0
 10
937.3403
 20
1373.7741
 10
959.8228
 20
1375.8388
 10
960.1196
 20
1375.835
 10
981.6139
 20
1375.5619
 10
985.8937
 20
1375.6195
 10
1008.3268
 20
1375.9215
 10
1014.9286
 20
1377.1277
 10
1043.729
 20
1379.1757
 10
1049.7631
 20
1380.0
 10
1055.5566
 20
1380.8263
 10
1060.6534
 20
1381.5859
 10
1060.8111
 20
1381.6156
 10
1083.5661
 20
1385.8983
 10
1084.2274
 20
1386.0014
 10
1109.8734
 20
1390.0
 10
1116.9019
 20
1390.7764
 10
1130.0083
 20
1391.1331
 10
1165.05
 20
1392.0869
 10
1175.508
 20
1391.7162
 10
1215.7346
 20
1390.2905
 10
1219.4317
 20
1390.0
 10
1223.4028
 20
1390.0
 10
1224.4695
 20
1390.0
 10
1247.3763
 20
1390.0
 10
1248.3351
 20
1390.0
 10
1252.408
 20
1390.0
 10
1256.8774
 20
1390.0
 10
1274.0317
 20
1390.0
 10
1278.4437
 20
1390.2492
 10
1297.5631
 20
1391.3288
 10
1303.8216
 20
1391.9797
 10
1307.4663
 20
1392.1588
 10
1338.3973
 20
1393.6789
 10
1359.591
 20
1395.1764
 10
1364.2905
 20
1395.4055
 10
1377.7267
 20
1396.0607
 10
1388.2688
 20
1397.2052
 10
1410.352
 20
1399.6027
 10
1413.3637
 20
1400.0
 10
1434.9511
 20
1403.231
 10
1444.0343
 20
1404.74
 10
1475.6982
 20
1410.0
 10
1505.7196
 20
1413.4255
 10
1517.0171
 20
1414.8043
 10
1526.7541
 20
1415.5645
 10
1557.6465
 20
1417.9765
 10
1566.8575
 20
1419.0405
 10
1567.9366
 20
1419.1652
 10
1575.8636
 20
1419.9403
 10
1576.7058
 20
1419.9346
 10
1577.5579
 20
1419.932
 10
1595.4357
 20
1419.7837
 10
1596.3402
 20
1419.7793
 10
1599.7811
 20
1419.7623
 10
1630.2244
 20
1419.5846
 10
1659.6226
 20
1419.7515
 10
1665.0687
 20
1419.7657
 10
1683.6132
 20
1419.8138
 10
1686.961
 20
1419.8216
 10
1698.5256
 20
1419.8485
 10
1699.6204
 20
1419.8518
 10
1703.539
 20
1419.8639
 10
1716.8762
 20
1419.8939
 10
1724.8701
 20
1419.9119
 10
1730.1589
 20
1419.9356
 10
1745.1608
 20
1419.9361
 10
1747.8147
 20
1419.9433
 10
1753.3738
 20
1419.9652
 10
1761.6931
 20
1419.9526
 10
1761.8407
 20
1419.9334
 10
1763.3883
 20
1419.7325
 10
1763.6549
 20
1419.7045
 10
1766.5169
 20
1419.4039
 10
1767.321
 20
1419.3194
 10
1775.4469
 20
1418.4657
 10
1791.7061
 20
1417.4975
 10
1793.9014
 20
1417.3668
 10
1796.6717
 20
1417.2018
 10
1827.6729
 20
1416.8522
 10
1831.9657
 20
1416.8038
 10
1837.2638
 20
1416.744
 10
1867.8618
 20
1417.0375
 10
1872.2033
 20
1417.0792
 10
1877.4483
 20
1417.1295
 10
1882.4149
 20
1417.1483
 10
1888.4151
 20
1417.171
 10
1901.4633
 20
1417.2832
 10
1903.1721
 20
1417.2979
 10
1905.4347
 20
1417.3174
 10
1908.0967
 20
1417.4087
 10
1911.6213
 20
1417.5297
 10
1919.2948
 20
1417.1422
 10
1929.4549
 20
1416.6291
 10
1952.8387
 20
1414.8403
 10
1983.8006
 20
1412.4719
 10
1988.8475
 20
1411.7761
 10
2001.7292
 20
1410.0
 10
2002.079
 20
1410.0
 10
2046.0676
 20
1410.0
 10
2063.3708
 20
1410.0
 10
2093.6824
 20
1414.8818
 10
2097.8708
 20
1415.1621
 10
2115.1002
 20
1416.3152
 10
2118.3995
 20
1416.3575
 10
2129.7355
 20
1416.5026
 10
2138.0306
 20
1417.3581
 10
2143.2088
 20
1417.8921
 10
2158.5925
 20
1417.1771
 10
2190.4276
 20
1419.2138
 10
2236.7064
 20
1417.6849
 10
2253.2383
 20
1417.6105
 10
2262.3203
 20
1417.0551
 10
2294.353
 20
1413.196
 10
2309.2329
 20
1411.9797
 10
2333.4524
 20
1410.0
 10
2333.5774
 20
1409.9963
 10
2333.5888
 20
1409.9959
 10
2333.6236
 20
1409.9967
 10
2333.9193
 20
1409.9949
 10
2345.6599
 20
1409.9779
 10
2346.5479
 20
1410.0
 10
2356.8865
 20
1410.723
 10
2364.1114
 20
1412.3299
 10
2398.5991
 20
1420.0
 10
2406.2858
 20
1422.4557
 10
2414.7846
 20
1425.1024
 10
2430.5111
 20
1430.0
 10
2452.1785
 20
1435.8472
 10
2453.7312
 20
1436.1232
 10
2470.5229
 20
1439.1073
 10
2477.02
 20
1440.0
 10
2493.791
 20
1440.0
 10
2514.5212
 20
1440.0
 10
2519.4576
 20
1440.0
 10
2521.1304
 20
1440.0
 10
2526.0332
 20
1440.0
 10
2527.8177
 20
1440.0
 10
2528.2958
 20
1440.0
 10
2529.6757
 20
1440.0
 10
2554.949
 20
1434.4089
 10
2561.4427
 20
1432.3556
 10
2568.4316
 20
1430.0
 10
2570.857
 20
1428.9913
 10
2590.5788
 20
1420.7886
 10
2591.8363
 20
1420.0
 10
2593.9203
 20
1419.0404
 10
2594.3372
 20
1418.7957
 10
2609.3236
 20
1410.0
 10
2610.2784
 20
1409.4617
 10
2615.0539
 20
1406.7688
 10
2624.5659
 20
1401.2427
 10
2626.7049
 20
1400.0
 10
2630.9626
 20
1397.1624
 10
2642.46
 20
1390.0
 10
2646.1095
 20
1387.6464
 10
2656.6661
 20
1380.8383
 10
2657.5701
 20
1380.2343
 10
2657.9208
 20
1380.0
 10
2658.9217
 20
1379.2249
 10
2670.7942
 20
1370.0
 10
2673.9251
 20
1367.7412
 10
2678.3093
 20
1364.5781
 10
2685.2766
 20
1360.0
 10
2691.7721
 20
1356.3185
 10
2698.779
 20
1352.3472
 10
2704.1485
 20
1350.0
 10
2717.2268
 20
1344.7851
 10
2717.2852
 20
1344.7579
 10
2727.4878
 20
1340.0
 10
2727.5022
 20
1339.9964
 10
2729.2896
 20
1339.5513
 10
2729.345
 20
1339.5375
 10
2736.1004
 20
1337.855
 10
2736.1265
 20
1337.8547
 10
2739.2962
 20
1337.8187
 10
2739.569
 20
1337.8264
 10
2760.7226
 20
1338.4203
 10
2761.0648
 20
1338.4299
 10
2772.798
 20
1339.495
 10
2785.3194
 20
1340.0
 10
2788.7496
 20
1341.3237
 10
2797.0564
 20
1344.5293
 10
2808.1058
 20
1349.9857
 10
2808.1349
 20
1350.0
 10
2813.0789
 20
1352.3453
 10
2827.3383
 20
1360.0
 10
2833.8626
 20
1363.0782
 10
2844.8821
 20
1368.2771
 10
2846.9281
 20
1369.5118
 10
2847.7371
 20
1370.0
 10
2859.416
 20
1375.0533
 10
2869.5188
 20
1380.0
 10
2876.4279
 20
1381.6053
 10
2912.3826
 20
1389.9589
 10
2912.5208
 20
1390.0
 10
2912.6966
 20
1390.0228
 10
2912.8056
 20
1390.0354
 10
2913.0907
 20
1390.0813
 10
2913.2857
 20
1390.1163
 10
2968.3703
 20
1400.0
 10
2975.1452
 20
1401.3758
 10
3010.1597
 20
1408.4861
 10
3016.2391
 20
1409.8633
 10
3016.8428
 20
1410.0
 10
3018.1404
 20
1410.3223
 10
3020.5514
 20
1410.7795
 10
3045.7923
 20
1415.1338
 10
3050.8049
 20
1415.6427
 10
3068.8673
 20
1417.4765
 10
3076.0692
 20
1417.9413
 10
3092.3654
 20
1417.4809
 10
3099.6878
 20
1417.3022
 10
3150.3373
 20
1416.0668
 10
3157.2067
 20
1416.2778
 10
3163.1373
 20
1416.7845
 10
3185.2369
 20
1418.6724
 10
3191.4358
 20
1419.6553
 10
3193.6103
 20
1420.0
 10
3219.2271
 20
1423.1179
 10
3253.8319
 20
1430.0
 10
3275.8463
 20
1430.6501
 10
3282.6886
 20
1430.7283
 10
3297.94
 20
1430.9028
 10
3303.1019
 20
1430.7603
 10
3304.1307
 20
1430.7213
 10
3321.8674
 20
1430.0501
 10
3322.1962
 20
1430.0377
 10
3323.1907
 20
1430.0
 10
3327.881
 20
1429.3735
 10
3342.0685
 20
1427.4783
 10
3346.1787
 20
1426.5565
 10
3358.6112
 20
1423.7684
 10
3381.9429
 20
1420.0
 10
3382.828
 20
1419.8559
 10
3403.194
 20
1416.5387
 10
3403.8986
 20
1416.4517
 10
3415.1066
 20
1415.0674
 10
3415.2813
 20
1415.0458
 10
3418.8668
 20
1414.603
 10
3426.4334
 20
1413.8942
  0
LWPOLYLINE
  5
269
330
17
100
AcDbEntity
  8
0
100
AcDbPolyline
 90
2
 70
0
 10
0.0
 20
1356.4416
 10
0.0
 20
1456.4416
  0
LWPOLYLINE
  5
26A
330
17
100
AcDbEntity
  8
0
100
AcDbPolyline
 90
2
 70
0
 10
100.0
 20
1333.6451
 10
100.0
 20
1433.6451
  0
LWPOLYLINE
  5
26B
330
17
100
AcDbEntity
  8
0
100
AcDbPolyline
 90
2
 70
0
 10
200.0
 20
1274.5283
 10
200.0
 20
1374.5283
  0
LWPOLYLINE
  5
26C
330
17
100
AcDbEntity
  8
0
100
AcDbPolyline
 90
2
 70
0
 10
300.0
 20
1257.5594
 10
300.0
 20
1357.5594
  0
LWPOLYLINE
  5
26D
330
17
100
AcDbEntity
  8
0
100
AcDbPolyline
 90
2
 70
0
 10
400.0
 20
1282.2008
 10
400.0
 20
1382.2008
  0
LWPOLYLINE
  5
26E
330
17
100
AcDbEntity
  8
0
100
AcDbPolyline
 90
2
 70
0
 10
500.0
 20
1323.8118
 10
500.0
 20
1423.8118
  0
LWPOLYLINE
  5
26F
330
17
100
AcDbEntity
  8
0
100
AcDbPolyline
 90
101
 70
0
 10
0.0
 20
1456.4416
 10
1.0
 20
1453.4970251099032
 10
2.0
 20
1450.5660273948713
 10
3.0
 20
1447.6486018811756
 10
4.0
 20
1444.7447436181174
 10
5.0
 20
1441.8544476780212
 10
6.0
 20
1438.9777091562264
 10
7.0
 20
1436.114523171078
 10
8.0
 20
1433.2648848639212
 10
9.0
 20
1430.4287893990863
 10
10.0
 20
1427.606231963889
 10
11.0
 20
1424.7972077686165
 10
12.0
 20
1422.0017120465202
 10
13.0
 20
1419.2197400538118
 10
14.0
 20
1416.4512870696485
 10
15.0
 20
1413.6963483961297
 10
16.0
 20
1410.9549193582882
 10
17.0
 20
1408.2269953040811
 10
18.0
 20
1405.5125716043844
 10
19.0
 20
1402.8116436529801
 10
20.0
 20
1400.1242068665556
 10
21.0
 20
1397.4502566846902
 10
22.0
 20
1394.789788569847
 10
23.0
 20
1392.14279800737
 10
24.0
 20
1389.5092805054742
 10
25.0
 20
1386.8892315952362
 10
26.0
 20
1384.2826468305884
 10
27.0
 20
1381.6895217883118
 10
28.0
 20
1379.1098520680248
 10
29.0
 20
1376.5436332921834
 10
30.0
 20
1373.9908611060655
 10
31.0
 20
1371.4515311777682
 10
32.0
 20
1368.9256391981978
 10
33.0
 20
1366.4131808810685
 10
34.0
 20
1363.9141519628845
 10
35.0
 20
1361.4285482029443
 10
36.0
 20
1358.9563653833236
 10
37.0
 20
1356.4975993088776
 10
38.0
 20
1354.0522458072242
 10
39.0
 20
1351.6203007287434
 10
40.0
 20
1349.201759946569
 10
41.0
 20
1346.79661935658
 10
42.0
 20
1344.4048748773969
 10
43.0
 20
1342.0265224503705
 10
44.0
 20
1339.6615580395787
 10
45.0
 20
1337.309977631816
 10
46.0
 20
1334.9717772365896
 10
47.0
 20
1332.6469528861148
 10
48.0
 20
1330.335500635299
 10
49.0
 20
1328.0374165617463
 10
50.0
 20
1325.752696765744
 10
51.0
 20
1323.4813373702605
 10
52.0
 20
1321.223334520931
 10
53.0
 20
1318.9786843860593
 10
54.0
 20
1316.7473831566062
 10
55.0
 20
1314.5294270461886
 10
56.0
 20
1312.324812291064
 10
57.0
 20
1310.1335351501323
 10
58.0
 20
1307.955591904928
 10
59.0
 20
1305.7909788596087
 10
60.0
 20
1303.639692340956
 10
61.0
 20
1301.501728698362
 10
62.0
 20
1299.3770843038303
 10
63.0
 20
1297.2657555519659
 10
64.0
 20
1295.1677388599692
 10
65.0
 20
1293.0830306676316
 10
66.0
 20
1291.0116274373236
 10
67.0
 20
1288.953525653998
 10
68.0
 20
1286.9087218251807
 10
69.0
 20
1284.8772124809573
 10
70.0
 20
1282.8589941739792
 10
71.0
 20
1280.854063479448
 10
72.0
 20
1278.8624169951174
 10
73.0
 20
1276.8840513412804
 10
74.0
 20
1274.9189631607676
 10
75.0
 20
1272.96714911894
 10
76.0
 20
1271.0286059036857
 10
77.0
 20
1269.1033302254136
 10
78.0
 20
1267.1913188170424
 10
79.0
 20
1265.2925684340041
 10
80.0
 20
1263.4070758542312
 10
81.0
 20
1261.5348378781541
 10
82.0
 20
1259.6758513286964
 10
83.0
 20
1257.830113051269
 10
84.0
 20
1255.997619913762
 10
85.0
 20
1254.1783688065454
 10
86.0
 20
1252.3723566424555
 10
87.0
 20
1250.5795803567976
 10
88.0
 20
1248.8000369073382
 10
89.0
 20
1247.0337232742954
 10
90.0
 20
1245.2806364603418
 10
91.0
 20
1243.5407734905912
 10
92.0
 20
1241.8141314126
 10
93.0
 20
1240.1007072963598
 10
94.0
 20
1238.4004982342897
 10
95.0
 20
1236.713501341238
 10
96.0
 20
1235.0397137544692
 10
97.0
 20
1233.379132633667
 10
98.0
 20
1231.7317551609221
 10
99.0
 20
1230.0975785407325
 10
100.0
 20
1228.4765999999993
  0
LWPOLYLINE
  5
270
330
17
100
AcDbEntity
  8
0
100
AcDbPolyline
 90
101
 70
0
 10
100.0
 20
1433.6451
 10
101.0
 20
1426.9758608524132
 10
102.0
 20
1420.3222740153371
 10
103.0
 20
1413.68432819803
 10
104.0
 20
1407.0620121362904
 10
105.0
 20
1400.4553145924422
 10
106.0
 20
1393.8642243553097
 10
107.0
 20
1387.2887302402053
 10
108.0
 20
1380.728821088905
 10
109.0
 20
1374.1844857696308
 10
110.0
 20
1367.6557131770371
 10
111.0
 20
1361.1424922321814
 10
112.0
 20
1354.6448118825133
 10
113.0
 20
1348.162661101858
 10
114.0
 20
1341.696028890387
 10
115.0
 20
1335.2449042746098
 10
116.0
 20
1328.809276307352
 10
117.0
 20
1322.3891340677328
 10
118.0
 20
1315.9844666611527
 10
119.0
 20
1309.5952632192718
 10
120.0
 20
1303.2215128999887
 10
121.0
 20
1296.8632048874294
 10
122.0
 20
1290.52032839192
 10
123.0
 20
1284.1928726499777
 10
124.0
 20
1277.8808269242838
 10
125.0
 20
1271.5841805036725
 10
126.0
 20
1265.3029227031066
 10
127.0
 20
1259.0370428636647
 10
128.0
 20
1252.7865303525216
 10
129.0
 20
1246.551374562926
 10
130.0
 20
1240.3315649141898
 10
131.0
 20
1234.1270908516665
 10
132.0
 20
1227.9379418467288
 10
133.0
 20
1221.76410739676
 10
134.0
 20
1215.6055770251285
 10
135.0
 20
1209.462340281173
 10
136.0
 20
1203.334386740186
 10
137.0
 20
1197.221706003392
 10
138.0
 20
1191.1242876979375
 10
139.0
 20
1185.0421214768635
 10
140.0
 20
1178.9751970190944
 10
141.0
 20
1172.9235040294204
 10
142.0
 20
1166.8870322384762
 10
143.0
 20
1160.8657714027293
 10
144.0
 20
1154.8597113044527
 10
145.0
 20
1148.8688417517242
 10
146.0
 20
1142.89315257839
 10
147.0
 20
1136.93263364406
 10
148.0
 20
1130.9872748340902
 10
149.0
 20
1125.0570660595565
 10
150.0
 20
1119.1419972572467
 10
151.0
 20
1113.2420583896405
 10
152.0
 20
1107.3572394448913
 10
153.0
 20
1101.48753043681
 10
154.0
 20
1095.6329214048515
 10
155.0
 20
1089.7934024140866
 10
156.0
 20
1083.9689635552022
 10
157.0
 20
1078.1595949444686
 10
158.0
 20
1072.3652867237327
 10
159.0
 20
1066.5860290603969
 10
160.0
 20
1060.821812147404
 10
161.0
 20
1055.072626203221
 10
162.0
 20
1049.3384614718173
 10
163.0
 20
1043.6193082226587
 10
164.0
 20
1037.9151567506779
 10
165.0
 20
1032.225997376271
 10
166.0
 20
1026.5518204452715
 10
167.0
 20
1020.8926163289389
 10
168.0
 20
1015.2483754239365
 10
169.0
 20
1009.6190881523235
 10
170.0
 20
1004.0047449615352
 10
171.0
 20
998.4053363243609
 10
172.0
 20
992.8208527389388
 10
173.0
 20
987.2512847287317
 10
174.0
 20
981.6966228425106
 10
175.0
 20
976.1568576543439
 10
176.0
 20
970.6319797635822
 10
177.0
 20
965.1219797948331
 10
178.0
 20
959.6268483979527
 10
179.0
 20
954.14657624803
 10
180.0
 20
948.6811540453689
 10
181.0
 20
943.230572515472
 10
182.0
 20
937.7948224090239
 10
183.0
 20
932.3738945018792
 10
184.0
 20
926.9677795950479
 10
185.0
 20
921.5764685146701
 10
186.0
 20
916.1999521120133
 10
187.0
 20
910.8382212634463
 10
188.0
 20
905.491266870431
 10
189.0
 20
900.1590798595012
 10
190.0
 20
894.8416511822545
 10
191.0
 20
889.5389718153277
 10
192.0
 20
884.2510327603895
 10
193.0
 20
878.9778250441217
 10
194.0
 20
873.719339718201
 10
195.0
 20
868.4755678592926
 10
196.0
 20
863.2465005690235
 10
197.0
 20
858.0321289739798
 10
198.0
 20
852.8324442256815
 10
199.0
 20
847.6474375005712
 10
200.0
 20
842.4770999999996
  0
LWPOLYLINE
  5
271
330
17
100
AcDbEntity
  8
0
100
AcDbPolyline
 90
101
 70
0
 10
200.0
 20
1374.5283
 10
201.0
 20
1372.174604440139
 10
202.0
 20
1369.8342895220262
 10
203.0
 20
1367.507351274282
 10
204.0
 20
1365.1937857482342
 10
205.0
 20
1362.893589017897
 10
206.0
 20
1360.6067571799733
 10
207.0
 20
1358.333286353845
 10
208.0
 20
1356.0731726815661
 10
209.0
 20
1353.8264123278611
 10
210.0
 20
1351.5930014801072
 10
211.0
 20
1349.3729363483408
 10
212.0
 20
1347.1662131652413
 10
213.0
 20
1344.9728281861321
 10
214.0
 20
1342.7927776889687
 10
215.0
 20
1340.6260579743341
 10
216.0
 20
1338.4726653654338
 10
217.0
 20
1336.3325962080874
 10
218.0
 20
1334.2058468707269
 10
219.0
 20
1332.0924137443815
 10
220.0
 20
1329.9922932426825
 10
221.0
 20
1327.9054818018517
 10
222.0
 20
1325.8319758806906
 10
223.0
 20
1323.7717719605823
 10
224.0
 20
1321.7248665454872
 10
225.0
 20
1319.6912561619247
 10
226.0
 20
1317.6709373589788
 10
227.0
 20
1315.66390670829
 10
228.0
 20
1313.6701608040446
 10
229.0
 20
1311.689696262975
 10
230.0
 20
1309.722509724351
 10
231.0
 20
1307.768597849971
 10
232.0
 20
1305.8279573241657
 10
233.0
 20
1303.9005848537813
 10
234.0
 20
1301.9864771681828
 10
235.0
 20
1300.0856310192416
 10
236.0
 20
1298.1980431813342
 10
237.0
 20
1296.323710451337
 10
238.0
 20
1294.4626296486165
 10
239.0
 20
1292.6147976150332
 10
240.0
 20
1290.7802112149209
 10
241.0
 20
1288.9588673350995
 10
242.0
 20
1287.1507628848528
 10
243.0
 20
1285.3558947959375
 10
244.0
 20
1283.574260022566
 10
245.0
 20
1281.8058555414145
 10
246.0
 20
1280.0506783515998
 10
247.0
 20
1278.3087254746954
 10
248.0
 20
1276.579993954707
 10
249.0
 20
1274.8644808580827
 10
250.0
 20
1273.1621832736962
 10
251.0
 20
1271.47309831285
 10
252.0
 20
1269.7972231092667
 10
253.0
 20
1268.1345548190866
 10
254.0
 20
1266.4850906208599
 10
255.0
 20
1264.848827715544
 10
256.0
 20
1263.2257633264967
 10
257.0
 20
1261.615894699474
 10
258.0
 20
1260.0192191026254
 10
259.0
 20
1258.4357338264872
 10
260.0
 20
1256.8654361839783
 10
261.0
 20
1255.3083235103966
 10
262.0
 20
1253.7643931634148
 10
263.0
 20
1252.2336425230749
 10
264.0
 20
1250.7160689917825
 10
265.0
 20
1249.2116699943047
 10
266.0
 20
1247.720442977769
 10
267.0
 20
1246.2423854116491
 10
268.0
 20
1244.7774947877688
 10
269.0
 20
1243.325768620297
 10
270.0
 20
1241.8872044457398
 10
271.0
 20
1240.461799822939
 10
272.0
 20
1239.0495523330662
 10
273.0
 20
1237.6504595796255
 10
274.0
 20
1236.2645191884342
 10
275.0
 20
1234.8917288076375
 10
276.0
 20
1233.5320861076902
 10
277.0
 20
1232.1855887813572
 10
278.0
 20
1230.852234543716
 10
279.0
 20
1229.5320211321425
 10
280.0
 20
1228.2249463063106
 10
281.0
 20
1226.9310078481958
 10
282.0
 20
1225.6502035620583
 10
283.0
 20
1224.3825312744493
 10
284.0
 20
1223.127988834205
 10
285.0
 20
1221.8865741124396
 10
286.0
 20
1220.6582850025495
 10
287.0
 20
1219.4431194201986
 10
288.0
 20
1218.2410753033228
 10
289.0
 20
1217.052150612124
 10
290.0
 20
1215.876343329071
 10
291.0
 20
1214.7136514588833
 10
292.0
 20
1213.564073028547
 10
293.0
 20
1212.427606087292
 10
294.0
 20
1211.304248706603
 10
295.0
 20
1210.1939989802072
 10
296.0
 20
1209.0968550240796
 10
297.0
 20
1208.0128149764305
 10
298.0
 20
1206.941876997708
 10
299.0
 20
1205.8840392705943
 10
300.0
 20
1204.8393000000012
  0
LWPOLYLINE
  5
272
330
17
100
AcDbEntity
  8
0
100
AcDbPolyline
 90
101
 70
0
 10
400.0
 20
1382.2008
 10
399.0
 20
1379.0687385465799
 10
398.0
 20
1375.9503251073083
 10
397.0
 20
1372.8455543904233
 10
396.0
 20
1369.7544211273114
 10
395.0
 20
1366.6769200725043
 10
394.0
 20
1363.6130460036647
 10
393.0
 20
1360.5627937215822
 10
392.0
 20
1357.5261580501553
 10
391.0
 20
1354.5031338363972
 10
390.0
 20
1351.493715950413
 10
389.0
 20
1348.497899285399
 10
388.0
 20
1345.5156787576339
 10
387.0
 20
1342.5470493064645
 10
386.0
 20
1339.5920058943034
 10
385.0
 20
1336.650543506617
 10
384.0
 20
1333.7226571519186
 10
383.0
 20
1330.8083418617584
 10
382.0
 20
1327.9075926907167
 10
381.0
 20
1325.0204047163938
 10
380.0
 20
1322.1467730394008
 10
379.0
 20
1319.2866927833604
 10
378.0
 20
1316.440159094881
 10
377.0
 20
1313.6071671435668
 10
376.0
 20
1310.787712121996
 10
375.0
 20
1307.9817892457238
 10
374.0
 20
1305.189393753262
 10
373.0
 20
1302.4105209060845
 10
372.0
 20
1299.6451659886065
 10
371.0
 20
1296.893324308185
 10
370.0
 20
1294.1549911951104
 10
369.0
 20
1291.4301620025901
 10
368.0
 20
1288.718832106752
 10
367.0
 20
1286.0209969066314
 10
366.0
 20
1283.3366518241605
 10
365.0
 20
1280.6657923041669
 10
364.0
 20
1278.0084138143566
 10
363.0
 20
1275.3645118453207
 10
362.0
 20
1272.7340819105102
 10
361.0
 20
1270.1171195462452
 10
360.0
 20
1267.5136203116922
 10
359.0
 20
1264.9235797888687
 10
358.0
 20
1262.3469935826315
 10
357.0
 20
1259.783857320664
 10
356.0
 20
1257.2341666534774
 10
355.0
 20
1254.697917254398
 10
354.0
 20
1252.1751048195617
 10
353.0
 20
1249.665725067902
 10
352.0
 20
1247.1697737411546
 10
351.0
 20
1244.6872466038355
 10
350.0
 20
1242.2181394432428
 10
349.0
 20
1239.7624480694512
 10
348.0
 20
1237.3201683152963
 10
347.0
 20
1234.8912960363737
 10
346.0
 20
1232.4758271110315
 10
345.0
 20
1230.0737574403618
 10
344.0
 20
1227.6850829481964
 10
343.0
 20
1225.309799581096
 10
342.0
 20
1222.9479033083442
 10
341.0
 20
1220.599390121944
 10
340.0
 20
1218.2642560366087
 10
339.0
 20
1215.9424970897521
 10
338.0
 20
1213.6341093414896
 10
337.0
 20
1211.339088874622
 10
336.0
 20
1209.0574317946368
 10
335.0
 20
1206.7891342296969
 10
334.0
 20
1204.534192330636
 10
333.0
 20
1202.2926022709512
 10
332.0
 20
1200.0643602467976
 10
331.0
 20
1197.849462476979
 10
330.0
 20
1195.6479052029479
 10
329.0
 20
1193.4596846887914
 10
328.0
 20
1191.2847972212276
 10
327.0
 20
1189.1232391096044
 10
326.0
 20
1186.9750066858815
 10
325.0
 20
1184.84009630464
 10
324.0
 20
1182.7185043430616
 10
323.0
 20
1180.6102272009311
 10
322.0
 20
1178.5152613006267
 10
321.0
 20
1176.433603087117
 10
320.0
 20
1174.3652490279496
 10
319.0
 20
1172.310195613251
 10
318.0
 20
1170.268439355718
 10
317.0
 20
1168.2399767906115
 10
316.0
 20
1166.2248044757496
 10
315.0
 20
1164.222918991505
 10
314.0
 20
1162.2343169407977
 10
313.0
 20
1160.2589949490864
 10
312.0
 20
1158.296949664369
 10
311.0
 20
1156.348177757168
 10
310.0
 20
1154.412675920535
 10
309.0
 20
1152.49044087004
 10
308.0
 20
1150.581469343759
 10
307.0
 20
1148.6857581022864
 10
306.0
 20
1146.8033039287084
 10
305.0
 20
1144.9341036286137
 10
304.0
 20
1143.0781540300804
 10
303.0
 20
1141.2354519836708
 10
302.0
 20
1139.4059943624306
 10
301.0
 20
1137.5897780618777
 10
300.0
 20
1135.7867999999999
  0
LWPOLYLINE
  5
273
330
17
100
AcDbEntity
  8
0
100
AcDbPolyline
 90
101
 70
0
 10
500.0
 20
1423.8118
 10
499.0
 20
1418.9461644421945
 10
498.0
 20
1414.095011586264
 10
497.0
 20
1409.25833320009
 10
496.0
 20
1404.4361210761197
 10
495.0
 20
1399.628367031341
 10
494.0
 20
1394.835062907283
 10
493.0
 20
1390.0562005699921
 10
492.0
 20
1385.2917719100215
 10
491.0
 20
1380.5417688424195
 10
490.0
 20
1375.806183306713
 10
489.0
 20
1371.0850072668939
 10
488.0
 20
1366.3782327114043
 10
487.0
 20
1361.685851653131
 10
486.0
 20
1357.0078561293785
 10
485.0
 20
1352.344238201867
 10
484.0
 20
1347.6949899567135
 10
483.0
 20
1343.06010350442
 10
482.0
 20
1338.4395709798578
 10
481.0
 20
1333.8333845422578
 10
480.0
 20
1329.2415363751963
 10
479.0
 20
1324.6640186865766
 10
478.0
 20
1320.100823708625
 10
477.0
 20
1315.5519436978689
 10
476.0
 20
1311.0173709351295
 10
475.0
 20
1306.4970977255064
 10
474.0
 20
1301.9911163983627
 10
473.0
 20
1297.4994193073162
 10
472.0
 20
1293.0219988302224
 10
471.0
 20
1288.5588473691655
 10
470.0
 20
1284.1099573504425
 10
469.0
 20
1279.6753212245487
 10
468.0
 20
1275.2549314661728
 10
467.0
 20
1270.8487805741725
 10
466.0
 20
1266.4568610715723
 10
465.0
 20
1262.0791655055473
 10
464.0
 20
1257.7156864474043
 10
463.0
 20
1253.3664164925804
 10
462.0
 20
1249.0313482606214
 10
461.0
 20
1244.7104743951754
 10
460.0
 20
1240.4037875639738
 10
459.0
 20
1236.1112804588245
 10
458.0
 20
1231.832945795599
 10
457.0
 20
1227.5687763142173
 10
456.0
 20
1223.318764778634
 10
455.0
 20
1219.0829039768341
 10
454.0
 20
1214.861186720814
 10
453.0
 20
1210.653605846566
 10
452.0
 20
1206.4601542140776
 10
451.0
 20
1202.2808247073117
 10
450.0
 20
1198.1156102341913
 10
449.0
 20
1193.964503726595
 10
448.0
 20
1189.8274981403406
 10
447.0
 20
1185.7045864551778
 10
446.0
 20
1181.5957616747664
 10
445.0
 20
1177.5010168266772
 10
444.0
 20
1173.420344962371
 10
443.0
 20
1169.3537391571876
 10
442.0
 20
1165.3011925103401
 10
441.0
 20
1161.262698144897
 10
440.0
 20
1157.2382492077713
 10
439.0
 20
1153.2278388697146
 10
438.0
 20
1149.2314603252964
 10
437.0
 20
1145.2491067928986
 10
436.0
 20
1141.2807715147055
 10
435.0
 20
1137.3264477566859
 10
434.0
 20
1133.38612880859
 10
433.0
 20
1129.4598079839252
 10
432.0
 20
1125.547478619963
 10
431.0
 20
1121.6491340777097
 10
430.0
 20
1117.7647677419063
 10
429.0
 20
1113.8943730210137
 10
428.0
 20
1110.0379433472012
 10
427.0
 20
1106.1954721763364
 10
426.0
 20
1102.3669529879753
 10
425.0
 20
1098.5523792853458
 10
424.0
 20
1094.7517445953438
 10
423.0
 20
1090.9650424685174
 10
422.0
 20
1087.1922664790563
 10
421.0
 20
1083.4334102247858
 10
420.0
 20
1079.6884673271488
 10
419.0
 20
1075.9574314312
 10
418.0
 20
1072.2402962055912
 10
417.0
 20
1068.5370553425655
 10
416.0
 20
1064.847702557943
 10
415.0
 20
1061.1722315911106
 10
414.0
 20
1057.5106362050103
 10
413.0
 20
1053.8629101861359
 10
412.0
 20
1050.2290473445087
 10
411.0
 20
1046.6090415136812
 10
410.0
 20
1043.002886550717
 10
409.0
 20
1039.4105763361863
 10
408.0
 20
1035.832104774152
 10
407.0
 20
1032.2674657921596
 10
406.0
 20
1028.7166533412253
 10
405.0
 20
1025.179661395836
 10
404.0
 20
1021.6564839539236
 10
403.0
 20
1018.1471150368634
 10
402.0
 20
1014.6515486894671
 10
401.0
 20
1011.1697789799664
 10
400.0
 20
1007.7018000000015
  0
ENDSEC
  0
SECTION
  2
OBJECTS
  0
DICTIONARY
  5
A
330
0
100
AcDbDictionary
280
0
281
1
  3
ACAD_COLOR
350
B
  3
ACAD_GROUP
350
C
  3
ACAD_LAYOUT
350
D
  3
ACAD_MATERIAL
350
E
  3
ACAD_MLEADERSTYLE
350
F
  3
ACAD_MLINESTYLE
350
10
  3
ACAD_PLOTSETTINGS
350
11
  3
ACAD_PLOTSTYLENAME
350
12
  3
ACAD_SCALELIST
350
14
  3
ACAD_TABLESTYLE
350
15
  3
ACAD_VISUALSTYLE
350
16
  3
EZDXF_META
350
2D
  0
DICTIONARY
  5
B
330
A
100
AcDbDictionary
280
0
281
1
  0
DICTIONARY
  5
C
330
A
100
AcDbDictionary
280
0
281
1
  0
DICTIONARY
  5
D
330
A
100
AcDbDictionary
280
0
281
1
  3
Model
350
1A
  3
Layout1
350
1E
  0
DICTIONARY
  5
E
330
A
100
AcDbDictionary
280
0
281
1
  3
ByBlock
350
1F
  3
ByLayer
350
20
  3
Global
350
21
  0
DICTIONARY
  5
F
330
A
100
AcDbDictionary
280
0
281
1
  3
Standard
350
2C
  0
DICTIONARY
  5
10
330
A
100
AcDbDictionary
280
0
281
1
  3
Standard
350
22
  0
DICTIONARY
  5
11
330
A
100
AcDbDictionary
280
0
281
1
  0
ACDBDICTIONARYWDFLT
  5
12
330
A
100
AcDbDictionary
280
0
281
1
  3
Normal
350
13
100
AcDbDictionaryWithDefault
340
13
  0
ACDBPLACEHOLDER
  5
13
330
12
  0
DICTIONARY
  5
14
330
A
100
AcDbDictionary
280
0
281
1
  0
DICTIONARY
  5
15
330
A
100
AcDbDictionary
280
0
281
1
  0
DICTIONARY
  5
16
330
A
100
AcDbDictionary
280
0
281
1
  0
LAYOUT
  5
1A
330
D
100
AcDbPlotSettings
  1

  2
Adobe PDF
  4
A3
  6

 40
7.5
 41
20.0
 42
7.5
 43
20.0
 44
420.0
 45
297.0
 46
0.0
 47
0.0
 48
0.0
 49
0.0
140
0.0
141
0.0
142
1.0
143
1.0
 70
1024
 72
1
 73
0
 74
5
  7

 75
16
 76
0
 77
2
 78
300
147
1.0
148
0.0
149
0.0
100
AcDbLayout
  1
Model
 70
1
 71
0
 10
0.0
 20
0.0
 11
420.0
 21
297.0
 12
0.0
 22
0.0
 32
0.0
 14
1e+20
 24
1e+20
 34
1e+20
 15
-1e+20
 25
-1e+20
 35
-1e+20
146
0.0
 13
0.0
 23
0.0
 33
0.0
 16
1.0
 26
0.0
 36
0.0
 17
0.0
 27
1.0
 37
0.0
 76
1
330
17
  0
LAYOUT
  5
1E
330
D
100
AcDbPlotSettings
  1

  2
Adobe PDF
  4
A3
  6

 40
7.5
 41
20.0
 42
7.5
 43
20.0
 44
420.0
 45
297.0
 46
0.0
 47
0.0
 48
0.0
 49
0.0
140
0.0
141
0.0
142
1.0
143
1.0
 70
0
 72
1
 73
0
 74
5
  7

 75
16
 76
0
 77
2
 78
300
147
1.0
148
0.0
149
0.0
100
AcDbLayout
  1
Layout1
 70
1
 71
1
 10
0.0
 20
0.0
 11
420.0
 21
297.0
 12
0.0
 22
0.0
 32
0.0
 14
1e+20
 24
1e+20
 34
1e+20
 15
-1e+20
 25
-1e+20
 35
-1e+20
146
0.0
 13
0.0
 23
0.0
 33
0.0
 16
1.0
 26
0.0
 36
0.0
 17
0.0
 27
1.0
 37
0.0
 76
1
330
1B
  0
MATERIAL
  5
1F
102
{ACAD_REACTORS
330
E
102
}
330
E
100
AcDbMaterial
  1
ByBlock
  2

 70
0
 40
1.0
 71
1
 41
1.0
 91
-1023410177
 42
1.0
 72
1
  3

 73
1
 74
1
 75
1
 44
0.5
 73
0
 45
1.0
 46
1.0
 77
1
  4

 78
1
 79
1
170
1
 48
1.0
171
1
  6

172
1
173
1
174
1
140
1.0
141
1.0
175
1
  7

176
1
177
1
178
1
143
1.0
179
1
  8

270
1
271
1
272
1
145
1.0
146
1.0
273
1
  9

274
1
275
1
276
1
 42
1.0
 72
1
  3

 73
1
 74
1
 75
1
 94
63
  0
MATERIAL
  5
20
102
{ACAD_REACTORS
330
E
102
}
330
E
100
AcDbMaterial
  1
ByLayer
  2

 70
0
 40
1.0
 71
1
 41
1.0
 91
-1023410177
 42
1.0
 72
1
  3

 73
1
 74
1
 75
1
 44
0.5
 73
0
 45
1.0
 46
1.0
 77
1
  4

 78
1
 79
1
170
1
 48
1.0
171
1
  6

172
1
173
1
174
1
140
1.0
141
1.0
175
1
  7

176
1
177
1
178
1
143
1.0
179
1
  8

270
1
271
1
272
1
145
1.0
146
1.0
273
1
  9

274
1
275
1
276
1
 42
1.0
 72
1
  3

 73
1
 74
1
 75
1
 94
63
  0
MATERIAL
  5
21
102
{ACAD_REACTORS
330
E
102
}
330
E
100
AcDbMaterial
  1
Global
  2

 70
0
 40
1.0
 71
1
 41
1.0
 91
-1023410177
 42
1.0
 72
1
  3

 73
1
 74
1
 75
1
 44
0.5
 73
0
 45
1.0
 46
1.0
 77
1
  4

 78
1
 79
1
170
1
 48
1.0
171
1
  6

172
1
173
1
174
1
140
1.0
141
1.0
175
1
  7

176
1
177
1
178
1
143
1.0
179
1
  8

270
1
271
1
272
1
145
1.0
146
1.0
273
1
  9

274
1
275
1
276
1
 42
1.0
 72
1
  3

 73
1
 74
1
 75
1
 94
63
  0
MLINESTYLE
  5
22
102
{ACAD_REACTORS
330
10
102
}
330
10
100
AcDbMlineStyle
  2
Standard
 70
0
  3

 62
256
 51
90.0
 52
90.0
 71
2
 49
0.5
 62
256
  6
BYLAYER
 49
-0.5
 62
256
  6
BYLAYER
  0
MLEADERSTYLE
  5
2C
102
{ACAD_REACTORS
330
F
102
}
330
F
100
AcDbMLeaderStyle
179
2
170
2
171
1
172
0
 90
2
 40
0.0
 41
0.0
173
1
 91
-1056964608
 92
-2
290
1
 42
2.0
291
1
 43
8.0
  3
Standard
 44
4.0
300

342
29
174
1
175
1
176
0
178
1
 93
-1056964608
 45
4.0
292
0
297
0
 46
4.0
 94
-1056964608
 47
1.0
 49
1.0
140
1.0
294
1
141
0.0
177
0
142
1.0
295
0
296
0
143
3.75
271
0
272
9
273
9
  0
DICTIONARY
  5
2D
330
A
100
AcDbDictionary
281
1
  3
CREATED_BY_EZDXF
350
2E
  3
WRITTEN_BY_EZDXF
350
32
  0
DICTIONARYVAR
  5
2E
330
2D
100
DictionaryVariables
280
0
  1
1.0.3 @ 2023-09-23T20:42:48.239487+00:00
  0
DICTIONARYVAR
  5
32
330
2D
100
DictionaryVariables
280
0
  1
1.0.3 @ 2023-09-24T01:12:28.619540+00:00
  0
ENDSEC
  0
EOF
