  0
SECTION
  2
HEADER
  9
$ACADVER
  1
AC1027
  9
$ACADMAINTVER
 70
105
  9
$DWGCODEPAGE
  3
ANSI_1252
  9
$LASTSAVEDBY
  1
ezdxf
  9
$REQUIREDVERSIONS
160
0
  9
$INSBASE
 10
0.0
 20
0.0
 30
0.0
  9
$EXTMIN
 10
1e+20
 20
1e+20
 30
1e+20
  9
$EXTMAX
 10
-1e+20
 20
-1e+20
 30
-1e+20
  9
$LIMMIN
 10
0.0
 20
0.0
  9
$LIMMAX
 10
420.0
 20
297.0
  9
$ORTHOMODE
 70
0
  9
$REGENMODE
 70
1
  9
$FILLMODE
 70
1
  9
$QTEXTMODE
 70
0
  9
$MIRRTEXT
 70
1
  9
$LTSCALE
 40
1.0
  9
$ATTMODE
 70
1
  9
$TEXTSIZE
 40
2.5
  9
$TRACEWID
 40
1.0
  9
$TEXTSTYLE
  7
Standard
  9
$CLAYER
  8
0
  9
$CELTYPE
  6
ByLayer
  9
$CECOLOR
 62
256
  9
$CELTSCALE
 40
1.0
  9
$DISPSILH
 70
0
  9
$DIMSCALE
 40
1.0
  9
$DIMASZ
 40
2.5
  9
$DIMEXO
 40
0.625
  9
$DIMDLI
 40
3.75
  9
$DIMRND
 40
0.0
  9
$DIMDLE
 40
0.0
  9
$DIMEXE
 40
1.25
  9
$DIMTP
 40
0.0
  9
$DIMTM
 40
0.0
  9
$DIMTXT
 40
2.5
  9
$DIMCEN
 40
2.5
  9
$DIMTSZ
 40
0.0
  9
$DIMTOL
 70
0
  9
$DIMLIM
 70
0
  9
$DIMTIH
 70
0
  9
$DIMTOH
 70
0
  9
$DIMSE1
 70
0
  9
$DIMSE2
 70
0
  9
$DIMTAD
 70
1
  9
$DIMZIN
 70
8
  9
$DIMBLK
  1

  9
$DIMASO
 70
1
  9
$DIMSHO
 70
1
  9
$DIMPOST
  1

  9
$DIMAPOST
  1

  9
$DIMALT
 70
0
  9
$DIMALTD
 70
3
  9
$DIMALTF
 40
0.03937007874
  9
$DIMLFAC
 40
1.0
  9
$DIMTOFL
 70
1
  9
$DIMTVP
 40
0.0
  9
$DIMTIX
 70
0
  9
$DIMSOXD
 70
0
  9
$DIMSAH
 70
0
  9
$DIMBLK1
  1

  9
$DIMBLK2
  1

  9
$DIMSTYLE
  2
ISO-25
  9
$DIMCLRD
 70
0
  9
$DIMCLRE
 70
0
  9
$DIMCLRT
 70
0
  9
$DIMTFAC
 40
1.0
  9
$DIMGAP
 40
0.625
  9
$DIMJUST
 70
0
  9
$DIMSD1
 70
0
  9
$DIMSD2
 70
0
  9
$DIMTOLJ
 70
0
  9
$DIMTZIN
 70
8
  9
$DIMALTZ
 70
0
  9
$DIMALTTZ
 70
0
  9
$DIMUPT
 70
0
  9
$DIMDEC
 70
2
  9
$DIMTDEC
 70
2
  9
$DIMALTU
 70
2
  9
$DIMALTTD
 70
3
  9
$DIMTXSTY
  7
Standard
  9
$DIMAUNIT
 70
0
  9
$DIMADEC
 70
0
  9
$DIMALTRND
 40
0.0
  9
$DIMAZIN
 70
0
  9
$DIMDSEP
 70
44
  9
$DIMATFIT
 70
3
  9
$DIMFRAC
 70
0
  9
$DIMLDRBLK
  1

  9
$DIMLUNIT
 70
2
  9
$DIMLWD
 70
-2
  9
$DIMLWE
 70
-2
  9
$DIMTMOVE
 70
0
  9
$DIMFXL
 40
1.0
  9
$DIMFXLON
 70
0
  9
$DIMJOGANG
 40
0.785398163397
  9
$DIMTFILL
 70
0
  9
$DIMTFILLCLR
 70
0
  9
$DIMARCSYM
 70
0
  9
$DIMLTYPE
  6

  9
$DIMLTEX1
  6

  9
$DIMLTEX2
  6

  9
$DIMTXTDIRECTION
 70
0
  9
$LUNITS
 70
2
  9
$LUPREC
 70
4
  9
$SKETCHINC
 40
1.0
  9
$FILLETRAD
 40
10.0
  9
$AUNITS
 70
0
  9
$AUPREC
 70
2
  9
$MENU
  1
.
  9
$ELEVATION
 40
0.0
  9
$PELEVATION
 40
0.0
  9
$THICKNESS
 40
0.0
  9
$LIMCHECK
 70
0
  9
$CHAMFERA
 40
0.0
  9
$CHAMFERB
 40
0.0
  9
$CHAMFERC
 40
0.0
  9
$CHAMFERD
 40
0.0
  9
$SKPOLY
 70
0
  9
$TDCREATE
 40
2460212.6375694443
  9
$TDUCREATE
 40
2458532.153996898
  9
$TDUPDATE
 40
2460212.6375694443
  9
$TDUUPDATE
 40
2458532.1544311
  9
$TDINDWG
 40
0.0
  9
$TDUSRTIMER
 40
0.0
  9
$USRTIMER
 70
1
  9
$ANGBASE
 50
0.0
  9
$ANGDIR
 70
0
  9
$PDMODE
 70
0
  9
$PDSIZE
 40
0.0
  9
$PLINEWID
 40
0.0
  9
$SPLFRAME
 70
0
  9
$SPLINETYPE
 70
6
  9
$SPLINESEGS
 70
8
  9
$HANDSEED
  5
459
  9
$SURFTAB1
 70
6
  9
$SURFTAB2
 70
6
  9
$SURFTYPE
 70
6
  9
$SURFU
 70
6
  9
$SURFV
 70
6
  9
$UCSBASE
  2

  9
$UCSNAME
  2

  9
$UCSORG
 10
0.0
 20
0.0
 30
0.0
  9
$UCSXDIR
 10
1.0
 20
0.0
 30
0.0
  9
$UCSYDIR
 10
0.0
 20
1.0
 30
0.0
  9
$UCSORTHOREF
  2

  9
$UCSORTHOVIEW
 70
0
  9
$UCSORGTOP
 10
0.0
 20
0.0
 30
0.0
  9
$UCSORGBOTTOM
 10
0.0
 20
0.0
 30
0.0
  9
$UCSORGLEFT
 10
0.0
 20
0.0
 30
0.0
  9
$UCSORGRIGHT
 10
0.0
 20
0.0
 30
0.0
  9
$UCSORGFRONT
 10
0.0
 20
0.0
 30
0.0
  9
$UCSORGBACK
 10
0.0
 20
0.0
 30
0.0
  9
$PUCSBASE
  2

  9
$PUCSNAME
  2

  9
$PUCSORG
 10
0.0
 20
0.0
 30
0.0
  9
$PUCSXDIR
 10
1.0
 20
0.0
 30
0.0
  9
$PUCSYDIR
 10
0.0
 20
1.0
 30
0.0
  9
$PUCSORTHOREF
  2

  9
$PUCSORTHOVIEW
 70
0
  9
$PUCSORGTOP
 10
0.0
 20
0.0
 30
0.0
  9
$PUCSORGBOTTOM
 10
0.0
 20
0.0
 30
0.0
  9
$PUCSORGLEFT
 10
0.0
 20
0.0
 30
0.0
  9
$PUCSORGRIGHT
 10
0.0
 20
0.0
 30
0.0
  9
$PUCSORGFRONT
 10
0.0
 20
0.0
 30
0.0
  9
$PUCSORGBACK
 10
0.0
 20
0.0
 30
0.0
  9
$USERI1
 70
0
  9
$USERI2
 70
0
  9
$USERI3
 70
0
  9
$USERI4
 70
0
  9
$USERI5
 70
0
  9
$USERR1
 40
0.0
  9
$USERR2
 40
0.0
  9
$USERR3
 40
0.0
  9
$USERR4
 40
0.0
  9
$USERR5
 40
0.0
  9
$WORLDVIEW
 70
1
  9
$SHADEDGE
 70
3
  9
$SHADEDIF
 70
70
  9
$TILEMODE
 70
1
  9
$MAXACTVP
 70
64
  9
$PINSBASE
 10
0.0
 20
0.0
 30
0.0
  9
$PLIMCHECK
 70
0
  9
$PEXTMIN
 10
1e+20
 20
1e+20
 30
1e+20
  9
$PEXTMAX
 10
-1e+20
 20
-1e+20
 30
-1e+20
  9
$PLIMMIN
 10
0.0
 20
0.0
  9
$PLIMMAX
 10
420.0
 20
297.0
  9
$UNITMODE
 70
0
  9
$VISRETAIN
 70
1
  9
$PLINEGEN
 70
0
  9
$PSLTSCALE
 70
1
  9
$TREEDEPTH
 70
3020
  9
$CMLSTYLE
  2
Standard
  9
$CMLJUST
 70
0
  9
$CMLSCALE
 40
20.0
  9
$PROXYGRAPHICS
 70
1
  9
$MEASUREMENT
 70
1
  9
$CELWEIGHT
370
-1
  9
$ENDCAPS
280
0
  9
$JOINSTYLE
280
0
  9
$LWDISPLAY
290
0
  9
$INSUNITS
 70
6
  9
$HYPERLINKBASE
  1

  9
$STYLESHEET
  1

  9
$XEDIT
290
1
  9
$CEPSNTYPE
380
0
  9
$PSTYLEMODE
290
1
  9
$FINGERPRINTGUID
  2
{19DDA380-FE7B-41A7-9612-9FA7162BA4DB}
  9
$VERSIONGUID
  2
{64F0D34D-AF95-45FD-8175-37B4B2B5212F}
  9
$EXTNAMES
290
1
  9
$PSVPSCALE
 40
0.0
  9
$OLESTARTUP
290
0
  9
$SORTENTS
280
127
  9
$INDEXCTL
280
0
  9
$HIDETEXT
280
1
  9
$XCLIPFRAME
280
0
  9
$HALOGAP
280
0
  9
$OBSCOLOR
 70
257
  9
$OBSLTYPE
280
0
  9
$INTERSECTIONDISPLAY
280
0
  9
$INTERSECTIONCOLOR
 70
257
  9
$DIMASSOC
280
2
  9
$PROJECTNAME
  1

  9
$CAMERADISPLAY
290
0
  9
$LENSLENGTH
 40
50.0
  9
$CAMERAHEIGHT
 40
0.0
  9
$STEPSPERSEC
 40
24.0
  9
$STEPSIZE
 40
100.0
  9
$3DDWFPREC
 40
2.0
  9
$PSOLWIDTH
 40
0.005
  9
$PSOLHEIGHT
 40
0.08
  9
$LOFTANG1
 40
1.570796326795
  9
$LOFTANG2
 40
1.570796326795
  9
$LOFTMAG1
 40
0.0
  9
$LOFTMAG2
 40
0.0
  9
$LOFTPARAM
 70
7
  9
$LOFTNORMALS
280
1
  9
$LATITUDE
 40
37.795
  9
$LONGITUDE
 40
-122.394
  9
$NORTHDIRECTION
 40
0.0
  9
$TIMEZONE
 70
-8000
  9
$LIGHTGLYPHDISPLAY
280
1
  9
$TILEMODELIGHTSYNCH
280
1
  9
$CMATERIAL
347
20
  9
$SOLIDHIST
280
0
  9
$SHOWHIST
280
1
  9
$DWFFRAME
280
2
  9
$DGNFRAME
280
2
  9
$REALWORLDSCALE
290
1
  9
$INTERFERECOLOR
 62
256
  9
$CSHADOW
280
0
  9
$SHADOWPLANELOCATION
 40
0.0
  0
ENDSEC
  0
SECTION
  2
CLASSES
  0
CLASS
  1
ACDBDICTIONARYWDFLT
  2
AcDbDictionaryWithDefault
  3
ObjectDBX Classes
 90
0
 91
0
280
0
281
0
  0
CLASS
  1
SUN
  2
AcDbSun
  3
SCENEOE
 90
1153
 91
0
280
0
281
0
  0
CLASS
  1
VISUALSTYLE
  2
AcDbVisualStyle
  3
ObjectDBX Classes
 90
4095
 91
0
280
0
281
0
  0
CLASS
  1
MATERIAL
  2
AcDbMaterial
  3
ObjectDBX Classes
 90
1153
 91
0
280
0
281
0
  0
CLASS
  1
SCALE
  2
AcDbScale
  3
ObjectDBX Classes
 90
1153
 91
0
280
0
281
0
  0
CLASS
  1
TABLESTYLE
  2
AcDbTableStyle
  3
ObjectDBX Classes
 90
4095
 91
0
280
0
281
0
  0
CLASS
  1
MLEADERSTYLE
  2
AcDbMLeaderStyle
  3
ACDB_MLEADERSTYLE_CLASS
 90
4095
 91
0
280
0
281
0
  0
CLASS
  1
DICTIONARYVAR
  2
AcDbDictionaryVar
  3
ObjectDBX Classes
 90
0
 91
0
280
0
281
0
  0
CLASS
  1
CELLSTYLEMAP
  2
AcDbCellStyleMap
  3
ObjectDBX Classes
 90
1152
 91
0
280
0
281
0
  0
CLASS
  1
MENTALRAYRENDERSETTINGS
  2
AcDbMentalRayRenderSettings
  3
SCENEOE
 90
1024
 91
0
280
0
281
0
  0
CLASS
  1
ACDBDETAILVIEWSTYLE
  2
AcDbDetailViewStyle
  3
ObjectDBX Classes
 90
1025
 91
0
280
0
281
0
  0
CLASS
  1
ACDBSECTIONVIEWSTYLE
  2
AcDbSectionViewStyle
  3
ObjectDBX Classes
 90
1025
 91
0
280
0
281
0
  0
CLASS
  1
RASTERVARIABLES
  2
AcDbRasterVariables
  3
ISM
 90
0
 91
0
280
0
281
0
  0
CLASS
  1
ACDBPLACEHOLDER
  2
AcDbPlaceHolder
  3
ObjectDBX Classes
 90
0
 91
0
280
0
281
0
  0
CLASS
  1
LAYOUT
  2
AcDbLayout
  3
ObjectDBX Classes
 90
0
 91
0
280
0
281
0
  0
ENDSEC
  0
SECTION
  2
TABLES
  0
TABLE
  2
VPORT
  5
8
330
0
100
AcDbSymbolTable
 70
1
  0
VPORT
  5
23
330
8
100
AcDbSymbolTableRecord
100
AcDbViewportTableRecord
  2
*Active
 70
0
 10
0.0
 20
0.0
 11
1.0
 21
1.0
 12
0.0
 22
0.0
 13
0.0
 23
0.0
 14
0.5
 24
0.5
 15
0.5
 25
0.5
 16
0.0
 26
0.0
 36
1.0
 17
0.0
 27
0.0
 37
0.0
 40
1000.0
 41
1.34
 42
50.0
 43
0.0
 44
0.0
 50
0.0
 51
0.0
 71
0
 72
1000
 73
1
 74
3
 75
0
 76
0
 77
0
 78
0
281
0
 65
0
146
0.0
  0
ENDTAB
  0
TABLE
  2
LTYPE
  5
2
330
0
100
AcDbSymbolTable
 70
3
  0
LTYPE
  5
24
330
2
100
AcDbSymbolTableRecord
100
AcDbLinetypeTableRecord
  2
ByBlock
 70
0
  3

 72
65
 73
0
 40
0.0
  0
LTYPE
  5
25
330
2
100
AcDbSymbolTableRecord
100
AcDbLinetypeTableRecord
  2
ByLayer
 70
0
  3

 72
65
 73
0
 40
0.0
  0
LTYPE
  5
26
330
2
100
AcDbSymbolTableRecord
100
AcDbLinetypeTableRecord
  2
Continuous
 70
0
  3

 72
65
 73
0
 40
0.0
  0
ENDTAB
  0
TABLE
  2
LAYER
  5
1
330
0
100
AcDbSymbolTable
 70
2
  0
LAYER
  5
27
330
1
100
AcDbSymbolTableRecord
100
AcDbLayerTableRecord
  2
0
 70
0
 62
7
  6
Continuous
370
-3
390
13
347
21
  0
LAYER
  5
28
330
1
100
AcDbSymbolTableRecord
100
AcDbLayerTableRecord
  2
Defpoints
 70
0
 62
7
  6
Continuous
290
0
370
-3
390
13
347
21
  0
ENDTAB
  0
TABLE
  2
STYLE
  5
5
330
0
100
AcDbSymbolTable
 70
1
  0
STYLE
  5
29
330
5
100
AcDbSymbolTableRecord
100
AcDbTextStyleTableRecord
  2
Standard
 70
0
 40
0.0
 41
1.0
 50
0.0
 71
0
 42
2.5
  3
txt
  4

  0
ENDTAB
  0
TABLE
  2
VIEW
  5
7
330
0
100
AcDbSymbolTable
 70
0
  0
ENDTAB
  0
TABLE
  2
UCS
  5
6
330
0
100
AcDbSymbolTable
 70
0
  0
ENDTAB
  0
TABLE
  2
APPID
  5
3
330
0
100
AcDbSymbolTable
 70
3
  0
APPID
  5
2A
330
3
100
AcDbSymbolTableRecord
100
AcDbRegAppTableRecord
  2
ACAD
 70
0
  0
APPID
  5
30
330
3
100
AcDbSymbolTableRecord
100
AcDbRegAppTableRecord
  2
HATCHBACKGROUNDCOLOR
 70
0
  0
APPID
  5
31
330
3
100
AcDbSymbolTableRecord
100
AcDbRegAppTableRecord
  2
EZDXF
 70
0
  0
ENDTAB
  0
TABLE
  2
DIMSTYLE
  5
4
330
0
100
AcDbSymbolTable
 70
1
100
AcDbDimStyleTable
  0
DIMSTYLE
105
2B
330
4
100
AcDbSymbolTableRecord
100
AcDbDimStyleTableRecord
  2
Standard
 70
0
 40
1.0
 41
2.5
 42
0.625
 43
3.75
 44
1.25
 45
0.0
 46
0.0
 47
0.0
 48
0.0
 49
2.5
140
2.5
141
2.5
142
0.0
143
0.03937007874
144
1.0
145
0.0
146
1.0
147
0.625
148
0.0
 69
0
 70
0
 71
0
 72
0
 73
0
 74
0
 75
0
 76
0
 77
1
 78
8
 79
3
170
0
171
3
172
1
173
0
174
0
175
0
176
0
177
0
178
0
179
2
271
2
272
2
273
2
274
3
275
0
276
0
277
2
278
44
279
0
280
0
281
0
282
0
283
0
284
8
285
0
286
0
288
0
289
3
290
0
371
-2
372
-2
  0
ENDTAB
  0
TABLE
  2
BLOCK_RECORD
  5
9
330
0
100
AcDbSymbolTable
 70
2
  0
BLOCK_RECORD
  5
17
330
9
100
AcDbSymbolTableRecord
100
AcDbBlockTableRecord
  2
*Model_Space
340
1A
 70
0
280
1
281
0
  0
BLOCK_RECORD
  5
1B
330
9
100
AcDbSymbolTableRecord
100
AcDbBlockTableRecord
  2
*Paper_Space
340
1E
 70
0
280
1
281
0
  0
ENDTAB
  0
ENDSEC
  0
SECTION
  2
BLOCKS
  0
BLOCK
  5
18
330
17
100
AcDbEntity
  8
0
100
AcDbBlockBegin
  2
*Model_Space
 70
0
 10
0.0
 20
0.0
 30
0.0
  3
*Model_Space
  1

  0
ENDBLK
  5
19
330
17
100
AcDbEntity
  8
0
100
AcDbBlockEnd
  0
BLOCK
  5
1C
330
1B
100
AcDbEntity
  8
0
100
AcDbBlockBegin
  2
*Paper_Space
 70
0
 10
0.0
 20
0.0
 30
0.0
  3
*Paper_Space
  1

  0
ENDBLK
  5
1D
330
1B
100
AcDbEntity
  8
0
100
AcDbBlockEnd
  0
ENDSEC
  0
SECTION
  2
ENTITIES
  0
LWPOLYLINE
  5
407
330
17
100
AcDbEntity
  8
0
100
AcDbPolyline
 90
388
 70
0
 10
0.0
 20
1356.4416
 10
0.0
 20
1356.4416
 10
8.6489
 20
1357.9059
 10
11.6826
 20
1358.2504
 10
12.8386
 20
1358.3817
 10
16.9872
 20
1358.1077
 10
19.029
 20
1358.0717
 10
28.9321
 20
1357.8971
 10
36.596
 20
1356.425
 10
40.0
 20
1355.7711
 10
40.4534
 20
1355.684
 10
63.0346
 20
1350.0
 10
80.0984
 20
1343.3077
 10
87.8075
 20
1340.0
 10
92.9356
 20
1337.5166
 10
106.651
 20
1330.0
 10
115.5001
 20
1325.9055
 10
118.1865
 20
1324.2557
 10
125.1164
 20
1320.0
 10
127.32
 20
1318.6727
 10
127.8314
 20
1318.3646
 10
139.4499
 20
1311.3663
 10
141.7514
 20
1310.0
 10
143.5848
 20
1308.9695
 10
145.7029
 20
1307.6448
 10
157.9269
 20
1300.0
 10
159.7824
 20
1298.7993
 10
165.092
 20
1295.3633
 10
172.8788
 20
1290.0491
 10
172.9507
 20
1290.0
 10
186.7912
 20
1281.7407
 10
186.9397
 20
1281.6521
 10
189.877
 20
1280.0
 10
193.9376
 20
1277.6253
 10
205.48
 20
1271.7288
 10
208.8641
 20
1270.0
 10
222.4238
 20
1264.0481
 10
224.3385
 20
1263.3002
 10
232.787
 20
1260.0
 10
234.9371
 20
1259.6338
 10
235.4819
 20
1259.5409
 10
244.6367
 20
1257.9814
 10
244.64
 20
1257.9811
 10
255.5253
 20
1257.116
 10
255.7717
 20
1257.0964
 10
256.6328
 20
1257.028
 10
258.5589
 20
1257.0174
 10
265.2894
 20
1256.9805
 10
286.3766
 20
1256.5681
 10
286.5928
 20
1256.5638
 10
287.0609
 20
1256.5547
 10
290.29
 20
1256.6927
 10
293.4226
 20
1256.8267
 10
293.4714
 20
1256.8287
 10
293.6123
 20
1256.8348
 10
300.7922
 20
1257.6492
 10
321.5161
 20
1260.0
 10
332.9907
 20
1262.0825
 10
338.8601
 20
1263.8783
 10
355.82
 20
1269.0673
 10
358.8685
 20
1270.0
 10
365.1178
 20
1272.2646
 10
375.0526
 20
1275.8645
 10
391.7005
 20
1280.0
 10
404.7704
 20
1283.4658
 10
411.1241
 20
1286.2943
 10
419.4484
 20
1290.0
 10
426.5064
 20
1292.9967
 10
433.3668
 20
1295.9096
 10
436.9768
 20
1297.0738
 10
436.99
 20
1297.0775
 10
442.8676
 20
1298.7503
 10
447.2587
 20
1300.0
 10
454.97
 20
1303.2548
 10
467.6161
 20
1308.5925
 10
471.3187
 20
1310.0
 10
476.7924
 20
1312.6461
 10
480.0633
 20
1314.2273
 10
490.9935
 20
1319.5842
 10
491.8419
 20
1320.0
 10
512.5736
 20
1329.6866
 10
512.7206
 20
1329.7553
 10
513.2594
 20
1330.0
 10
515.2019
 20
1330.9563
 10
531.99
 20
1339.7362
 10
532.4944
 20
1340.0
 10
539.9286
 20
1343.6862
 10
542.1653
 20
1344.7864
 10
552.7649
 20
1350.0
 10
561.7795
 20
1353.0794
 10
566.9746
 20
1354.8111
 10
582.5413
 20
1360.0
 10
586.0607
 20
1360.4614
 10
587.2906
 20
1360.5808
 10
623.8143
 20
1364.1266
 10
626.8386
 20
1364.2519
 10
626.99
 20
1364.2582
 10
636.8798
 20
1364.6678
 10
661.3075
 20
1365.2145
 10
667.4132
 20
1364.8406
 10
697.4574
 20
1363.0012
 10
712.6543
 20
1362.7046
 10
721.8542
 20
1361.9689
 10
721.99
 20
1361.9581
 10
746.4754
 20
1360.0
 10
764.2766
 20
1358.8107
 10
774.7695
 20
1357.6921
 10
813.6202
 20
1357.5929
 10
816.99
 20
1358.0848
 10
821.2377
 20
1358.7049
 10
831.8266
 20
1360.0
 10
848.9644
 20
1363.051
 10
856.7029
 20
1363.5734
 10
858.1169
 20
1363.8872
 10
872.1719
 20
1367.0065
 10
872.5197
 20
1367.0837
 10
874.2834
 20
1367.4751
 10
879.351
 20
1367.8911
 10
905.0413
 20
1370.0
 10
911.99
 20
1370.812
 10
937.3403
 20
1373.7741
 10
959.8228
 20
1375.8388
 10
960.1196
 20
1375.835
 10
981.6139
 20
1375.5619
 10
985.8937
 20
1375.6195
 10
1006.99
 20
1375.9035
 10
1008.3268
 20
1375.9215
 10
1014.9286
 20
1377.1277
 10
1043.729
 20
1379.1757
 10
1049.7631
 20
1380.0
 10
1055.5566
 20
1380.8263
 10
1060.6534
 20
1381.5859
 10
1060.8111
 20
1381.6156
 10
1083.5661
 20
1385.8983
 10
1084.2274
 20
1386.0014
 10
1101.99
 20
1388.7709
 10
1109.8734
 20
1390.0
 10
1116.9019
 20
1390.7764
 10
1130.0083
 20
1391.1331
 10
1165.05
 20
1392.0869
 10
1175.508
 20
1391.7162
 10
1196.99
 20
1390.9549
 10
1215.7346
 20
1390.2905
 10
1219.4317
 20
1390.0
 10
1223.4028
 20
1390.0
 10
1224.4695
 20
1390.0
 10
1247.3763
 20
1390.0
 10
1248.3351
 20
1390.0
 10
1252.408
 20
1390.0
 10
1256.8774
 20
1390.0
 10
1274.0317
 20
1390.0
 10
1278.4437
 20
1390.2492
 10
1291.99
 20
1391.0141
 10
1297.5631
 20
1391.3288
 10
1303.8216
 20
1391.9797
 10
1307.4663
 20
1392.1588
 10
1338.3973
 20
1393.6789
 10
1359.591
 20
1395.1764
 10
1364.2905
 20
1395.4055
 10
1377.7267
 20
1396.0607
 10
1386.99
 20
1397.0664
 10
1388.2688
 20
1397.2052
 10
1410.352
 20
1399.6027
 10
1413.3637
 20
1400.0
 10
1434.9511
 20
1403.231
 10
1444.0343
 20
1404.74
 10
1475.6982
 20
1410.0
 10
1481.99
 20
1410.7179
 10
1505.7196
 20
1413.4255
 10
1517.0171
 20
1414.8043
 10
1526.7541
 20
1415.5645
 10
1557.6465
 20
1417.9765
 10
1566.8575
 20
1419.0405
 10
1567.9366
 20
1419.1652
 10
1575.8636
 20
1419.9403
 10
1576.7058
 20
1419.9346
 10
1576.99
 20
1419.9338
 10
1577.5579
 20
1419.932
 10
1595.4357
 20
1419.7837
 10
1596.3402
 20
1419.7793
 10
1599.7811
 20
1419.7623
 10
1630.2244
 20
1419.5846
 10
1659.6226
 20
1419.7515
 10
1665.0687
 20
1419.7657
 10
1671.99
 20
1419.7836
 10
1683.6132
 20
1419.8138
 10
1686.961
 20
1419.8216
 10
1698.5256
 20
1419.8485
 10
1699.6204
 20
1419.8518
 10
1703.539
 20
1419.8639
 10
1716.8762
 20
1419.8939
 10
1724.8701
 20
1419.9119
 10
1730.1589
 20
1419.9356
 10
1745.1608
 20
1419.9361
 10
1747.8147
 20
1419.9433
 10
1753.3738
 20
1419.9652
 10
1761.6931
 20
1419.9526
 10
1761.8407
 20
1419.9334
 10
1763.3883
 20
1419.7325
 10
1763.6549
 20
1419.7045
 10
1766.5169
 20
1419.4039
 10
1766.99
 20
1419.3541
 10
1767.321
 20
1419.3194
 10
1775.4469
 20
1418.4657
 10
1791.7061
 20
1417.4975
 10
1793.9014
 20
1417.3668
 10
1796.6717
 20
1417.2018
 10
1827.6729
 20
1416.8522
 10
1831.9657
 20
1416.8038
 10
1837.2638
 20
1416.744
 10
1861.99
 20
1416.9812
 10
1867.8618
 20
1417.0375
 10
1872.2033
 20
1417.0792
 10
1877.4483
 20
1417.1295
 10
1882.4149
 20
1417.1483
 10
1888.4151
 20
1417.171
 10
1901.4633
 20
1417.2832
 10
1903.1721
 20
1417.2979
 10
1905.4347
 20
1417.3174
 10
1908.0967
 20
1417.4087
 10
1911.6213
 20
1417.5297
 10
1919.2948
 20
1417.1422
 10
1929.4549
 20
1416.6291
 10
1952.8387
 20
1414.8403
 10
1956.99
 20
1414.5228
 10
1983.8006
 20
1412.4719
 10
1988.8475
 20
1411.7761
 10
2001.7292
 20
1410.0
 10
2002.079
 20
1410.0
 10
2046.0676
 20
1410.0
 10
2051.99
 20
1410.0
 10
2063.3708
 20
1410.0
 10
2093.6824
 20
1414.8818
 10
2097.8708
 20
1415.1621
 10
2115.1002
 20
1416.3152
 10
2118.3995
 20
1416.3575
 10
2129.7355
 20
1416.5026
 10
2138.0306
 20
1417.3581
 10
2143.2088
 20
1417.8921
 10
2146.99
 20
1417.7164
 10
2158.5925
 20
1417.1771
 10
2190.4276
 20
1419.2138
 10
2236.7064
 20
1417.6849
 10
2241.99
 20
1417.6611
 10
2253.2383
 20
1417.6105
 10
2262.3203
 20
1417.0551
 10
2294.353
 20
1413.196
 10
2309.2329
 20
1411.9797
 10
2333.4524
 20
1410.0
 10
2333.5774
 20
1409.9963
 10
2333.5888
 20
1409.9959
 10
2333.6236
 20
1409.9967
 10
2333.9193
 20
1409.9949
 10
2336.99
 20
1409.9904
 10
2345.6599
 20
1409.9779
 10
2346.5479
 20
1410.0
 10
2356.8865
 20
1410.723
 10
2364.1114
 20
1412.3299
 10
2398.5991
 20
1420.0
 10
2406.2858
 20
1422.4557
 10
2414.7846
 20
1425.1024
 10
2430.5111
 20
1430.0
 10
2431.99
 20
1430.3991
 10
2452.1785
 20
1435.8472
 10
2453.7312
 20
1436.1232
 10
2470.5229
 20
1439.1073
 10
2477.02
 20
1440.0
 10
2493.791
 20
1440.0
 10
2514.5212
 20
1440.0
 10
2519.4576
 20
1440.0
 10
2521.1304
 20
1440.0
 10
2526.0332
 20
1440.0
 10
2526.99
 20
1440.0
 10
2527.8177
 20
1440.0
 10
2528.2958
 20
1440.0
 10
2529.6757
 20
1440.0
 10
2554.949
 20
1434.4089
 10
2561.4427
 20
1432.3556
 10
2568.4316
 20
1430.0
 10
2570.857
 20
1428.9913
 10
2590.5788
 20
1420.7886
 10
2591.8363
 20
1420.0
 10
2593.9203
 20
1419.0404
 10
2594.3372
 20
1418.7957
 10
2609.3236
 20
1410.0
 10
2610.2784
 20
1409.4617
 10
2615.0539
 20
1406.7688
 10
2621.99
 20
1402.7392
 10
2624.5659
 20
1401.2427
 10
2626.7049
 20
1400.0
 10
2630.9626
 20
1397.1624
 10
2642.46
 20
1390.0
 10
2646.1095
 20
1387.6464
 10
2656.6661
 20
1380.8383
 10
2657.5701
 20
1380.2343
 10
2657.9208
 20
1380.0
 10
2658.9217
 20
1379.2249
 10
2670.7942
 20
1370.0
 10
2673.9251
 20
1367.7412
 10
2678.3093
 20
1364.5781
 10
2685.2766
 20
1360.0
 10
2691.7721
 20
1356.3185
 10
2698.779
 20
1352.3472
 10
2704.1485
 20
1350.0
 10
2716.99
 20
1344.8796
 10
2717.2268
 20
1344.7851
 10
2717.2852
 20
1344.7579
 10
2727.4878
 20
1340.0
 10
2727.5022
 20
1339.9964
 10
2729.2896
 20
1339.5513
 10
2729.345
 20
1339.5375
 10
2736.1004
 20
1337.855
 10
2736.1265
 20
1337.8547
 10
2739.2962
 20
1337.8187
 10
2739.569
 20
1337.8264
 10
2760.7226
 20
1338.4203
 10
2761.0648
 20
1338.4299
 10
2772.798
 20
1339.495
 10
2785.3194
 20
1340.0
 10
2788.7496
 20
1341.3237
 10
2797.0564
 20
1344.5293
 10
2806.99
 20
1349.4347
 10
2808.1058
 20
1349.9857
 10
2808.1349
 20
1350.0
 10
2813.0789
 20
1352.3453
 10
2827.3383
 20
1360.0
 10
2833.8626
 20
1363.0782
 10
2844.8821
 20
1368.2771
 10
2846.9281
 20
1369.5118
 10
2847.7371
 20
1370.0
 10
2859.416
 20
1375.0533
 10
2869.5188
 20
1380.0
 10
2876.4279
 20
1381.6053
 10
2896.99
 20
1386.3826
 10
2912.3826
 20
1389.9589
 10
2912.5208
 20
1390.0
 10
2912.6966
 20
1390.0228
 10
2912.8056
 20
1390.0354
 10
2913.0907
 20
1390.0813
 10
2913.2857
 20
1390.1163
 10
2968.3703
 20
1400.0
 10
2970.99
 20
1400.532
 10
2975.1452
 20
1401.3758
 10
3010.1597
 20
1408.4861
 10
3016.2391
 20
1409.8633
 10
3016.8428
 20
1410.0
 10
3018.1404
 20
1410.3223
 10
3020.5514
 20
1410.7795
 10
3044.99
 20
1414.9954
 10
3045.7923
 20
1415.1338
 10
3050.8049
 20
1415.6427
 10
3068.8673
 20
1417.4765
 10
3076.0692
 20
1417.9413
 10
3092.3654
 20
1417.4809
 10
3099.6878
 20
1417.3022
 10
3120.35
 20
1416.7983
 10
3150.3373
 20
1416.0668
 10
3157.2067
 20
1416.2778
 10
3163.1373
 20
1416.7845
 10
3185.2369
 20
1418.6724
 10
3191.4358
 20
1419.6553
 10
3193.6103
 20
1420.0
 10
3200.35
 20
1420.8203
 10
3219.2271
 20
1423.1179
 10
3253.8319
 20
1430.0
 10
3275.8463
 20
1430.6501
 10
3276.35
 20
1430.6558
 10
3282.6886
 20
1430.7283
 10
3297.94
 20
1430.9028
 10
3303.1019
 20
1430.7603
 10
3304.1307
 20
1430.7213
 10
3321.8674
 20
1430.0501
 10
3322.1962
 20
1430.0377
 10
3323.1907
 20
1430.0
 10
3327.881
 20
1429.3735
 10
3342.0685
 20
1427.4783
 10
3346.1787
 20
1426.5565
 10
3352.78
 20
1425.0761
 10
3358.6112
 20
1423.7684
 10
3381.9429
 20
1420.0
 10
3382.828
 20
1419.8559
 10
3403.194
 20
1416.5387
 10
3403.8986
 20
1416.4517
 10
3415.1066
 20
1415.0674
 10
3415.2813
 20
1415.0458
 10
3418.8668
 20
1414.603
 10
3426.28
 20
1413.9086
 10
3426.4334
 20
1413.8942
  0
LWPOLYLINE
  5
408
330
17
100
AcDbEntity
  8
0
100
AcDbPolyline
 90
2
 70
0
 10
0.0
 20
1356.4416
 10
0.0
 20
1456.4416
  0
LWPOLYLINE
  5
409
330
17
100
AcDbEntity
  8
0
100
AcDbPolyline
 90
2
 70
0
 10
40.0
 20
1355.7711
 10
40.0
 20
1455.7711
  0
LWPOLYLINE
  5
40A
330
17
100
AcDbEntity
  8
0
100
AcDbPolyline
 90
2
 70
0
 10
127.32
 20
1318.6727
 10
127.32
 20
1418.6727
  0
LWPOLYLINE
  5
40B
330
17
100
AcDbEntity
  8
0
100
AcDbPolyline
 90
2
 70
0
 10
205.48
 20
1271.7288
 10
205.48
 20
1371.7288
  0
LWPOLYLINE
  5
40C
330
17
100
AcDbEntity
  8
0
100
AcDbPolyline
 90
2
 70
0
 10
244.64
 20
1257.9811
 10
244.64
 20
1357.9811
  0
LWPOLYLINE
  5
40D
330
17
100
AcDbEntity
  8
0
100
AcDbPolyline
 90
2
 70
0
 10
290.29
 20
1256.6927
 10
290.29
 20
1356.6927
  0
LWPOLYLINE
  5
40E
330
17
100
AcDbEntity
  8
0
100
AcDbPolyline
 90
2
 70
0
 10
355.82
 20
1269.0673
 10
355.82
 20
1369.0673
  0
LWPOLYLINE
  5
40F
330
17
100
AcDbEntity
  8
0
100
AcDbPolyline
 90
2
 70
0
 10
436.99
 20
1297.0775
 10
436.99
 20
1397.0775
  0
LWPOLYLINE
  5
410
330
17
100
AcDbEntity
  8
0
100
AcDbPolyline
 90
2
 70
0
 10
531.99
 20
1339.7362
 10
531.99
 20
1439.7362
  0
LWPOLYLINE
  5
411
330
17
100
AcDbEntity
  8
0
100
AcDbPolyline
 90
2
 70
0
 10
626.99
 20
1364.2582
 10
626.99
 20
1464.2582
  0
LWPOLYLINE
  5
412
330
17
100
AcDbEntity
  8
0
100
AcDbPolyline
 90
2
 70
0
 10
721.99
 20
1361.9581
 10
721.99
 20
1461.9581
  0
LWPOLYLINE
  5
413
330
17
100
AcDbEntity
  8
0
100
AcDbPolyline
 90
2
 70
0
 10
816.99
 20
1358.0848
 10
816.99
 20
1458.0848
  0
LWPOLYLINE
  5
414
330
17
100
AcDbEntity
  8
0
100
AcDbPolyline
 90
2
 70
0
 10
911.99
 20
1370.812
 10
911.99
 20
1470.812
  0
LWPOLYLINE
  5
415
330
17
100
AcDbEntity
  8
0
100
AcDbPolyline
 90
2
 70
0
 10
1006.99
 20
1375.9035
 10
1006.99
 20
1475.9035
  0
LWPOLYLINE
  5
416
330
17
100
AcDbEntity
  8
0
100
AcDbPolyline
 90
2
 70
0
 10
1101.99
 20
1388.7709
 10
1101.99
 20
1488.7709
  0
LWPOLYLINE
  5
417
330
17
100
AcDbEntity
  8
0
100
AcDbPolyline
 90
2
 70
0
 10
1196.99
 20
1390.9549
 10
1196.99
 20
1490.9549
  0
LWPOLYLINE
  5
418
330
17
100
AcDbEntity
  8
0
100
AcDbPolyline
 90
2
 70
0
 10
1291.99
 20
1391.0141
 10
1291.99
 20
1491.0141
  0
LWPOLYLINE
  5
419
330
17
100
AcDbEntity
  8
0
100
AcDbPolyline
 90
2
 70
0
 10
1386.99
 20
1397.0664
 10
1386.99
 20
1497.0664
  0
LWPOLYLINE
  5
41A
330
17
100
AcDbEntity
  8
0
100
AcDbPolyline
 90
2
 70
0
 10
1481.99
 20
1410.7179
 10
1481.99
 20
1510.7179
  0
LWPOLYLINE
  5
41B
330
17
100
AcDbEntity
  8
0
100
AcDbPolyline
 90
2
 70
0
 10
1576.99
 20
1419.9338
 10
1576.99
 20
1519.9338
  0
LWPOLYLINE
  5
41C
330
17
100
AcDbEntity
  8
0
100
AcDbPolyline
 90
2
 70
0
 10
1671.99
 20
1419.7836
 10
1671.99
 20
1519.7836
  0
LWPOLYLINE
  5
41D
330
17
100
AcDbEntity
  8
0
100
AcDbPolyline
 90
2
 70
0
 10
1766.99
 20
1419.3541
 10
1766.99
 20
1519.3541
  0
LWPOLYLINE
  5
41E
330
17
100
AcDbEntity
  8
0
100
AcDbPolyline
 90
2
 70
0
 10
1861.99
 20
1416.9812
 10
1861.99
 20
1516.9812
  0
LWPOLYLINE
  5
41F
330
17
100
AcDbEntity
  8
0
100
AcDbPolyline
 90
2
 70
0
 10
1956.99
 20
1414.5228
 10
1956.99
 20
1514.5228
  0
LWPOLYLINE
  5
420
330
17
100
AcDbEntity
  8
0
100
AcDbPolyline
 90
2
 70
0
 10
2051.99
 20
1410.0
 10
2051.99
 20
1510.0
  0
LWPOLYLINE
  5
421
330
17
100
AcDbEntity
  8
0
100
AcDbPolyline
 90
2
 70
0
 10
2146.99
 20
1417.7164
 10
2146.99
 20
1517.7164
  0
LWPOLYLINE
  5
422
330
17
100
AcDbEntity
  8
0
100
AcDbPolyline
 90
2
 70
0
 10
2241.99
 20
1417.6611
 10
2241.99
 20
1517.6611
  0
LWPOLYLINE
  5
423
330
17
100
AcDbEntity
  8
0
100
AcDbPolyline
 90
2
 70
0
 10
2336.99
 20
1409.9904
 10
2336.99
 20
1509.9904
  0
LWPOLYLINE
  5
424
330
17
100
AcDbEntity
  8
0
100
AcDbPolyline
 90
2
 70
0
 10
2431.99
 20
1430.3991
 10
2431.99
 20
1530.3991
  0
LWPOLYLINE
  5
425
330
17
100
AcDbEntity
  8
0
100
AcDbPolyline
 90
2
 70
0
 10
2526.99
 20
1440.0
 10
2526.99
 20
1540.0
  0
LWPOLYLINE
  5
426
330
17
100
AcDbEntity
  8
0
100
AcDbPolyline
 90
2
 70
0
 10
2621.99
 20
1402.7392
 10
2621.99
 20
1502.7392
  0
LWPOLYLINE
  5
427
330
17
100
AcDbEntity
  8
0
100
AcDbPolyline
 90
2
 70
0
 10
2716.99
 20
1344.8796
 10
2716.99
 20
1444.8796
  0
LWPOLYLINE
  5
428
330
17
100
AcDbEntity
  8
0
100
AcDbPolyline
 90
2
 70
0
 10
2806.99
 20
1349.4347
 10
2806.99
 20
1449.4347
  0
LWPOLYLINE
  5
429
330
17
100
AcDbEntity
  8
0
100
AcDbPolyline
 90
2
 70
0
 10
2896.99
 20
1386.3826
 10
2896.99
 20
1486.3826
  0
LWPOLYLINE
  5
42A
330
17
100
AcDbEntity
  8
0
100
AcDbPolyline
 90
2
 70
0
 10
2970.99
 20
1400.532
 10
2970.99
 20
1500.532
  0
LWPOLYLINE
  5
42B
330
17
100
AcDbEntity
  8
0
100
AcDbPolyline
 90
2
 70
0
 10
3044.99
 20
1414.9954
 10
3044.99
 20
1514.9954
  0
LWPOLYLINE
  5
42C
330
17
100
AcDbEntity
  8
0
100
AcDbPolyline
 90
2
 70
0
 10
3120.35
 20
1416.7983
 10
3120.35
 20
1516.7983
  0
LWPOLYLINE
  5
42D
330
17
100
AcDbEntity
  8
0
100
AcDbPolyline
 90
2
 70
0
 10
3200.35
 20
1420.8203
 10
3200.35
 20
1520.8203
  0
LWPOLYLINE
  5
42E
330
17
100
AcDbEntity
  8
0
100
AcDbPolyline
 90
2
 70
0
 10
3276.35
 20
1430.6558
 10
3276.35
 20
1530.6558
  0
LWPOLYLINE
  5
42F
330
17
100
AcDbEntity
  8
0
100
AcDbPolyline
 90
2
 70
0
 10
3352.78
 20
1425.0761
 10
3352.78
 20
1525.0761
  0
LWPOLYLINE
  5
430
330
17
100
AcDbEntity
  8
0
100
AcDbPolyline
 90
2
 70
0
 10
3426.28
 20
1413.9086
 10
3426.28
 20
1513.9086
  0
LWPOLYLINE
  5
431
330
17
100
AcDbEntity
  8
0
 62
10
100
AcDbPolyline
 90
101
 70
0
 43
0.3
 10
0.0
 20
1456.4416
 10
0.4
 20
1456.3317107423102
 10
0.8
 20
1456.223906522866
 10
1.2000000000000002
 20
1456.1181873123953
 10
1.6
 20
1456.0145530821994
 10
2.0
 20
1455.9130038041358
 10
2.4000000000000004
 20
1455.8135394506337
 10
2.8000000000000003
 20
1455.7161599946883
 10
3.2
 20
1455.6208654098602
 10
3.6
 20
1455.5276556702763
 10
4.0
 20
1455.4365307506278
 10
4.4
 20
1455.3474906261747
 10
4.800000000000001
 20
1455.26053527274
 10
5.2
 20
1455.175664666716
 10
5.6000000000000005
 20
1455.0928787850587
 10
6.0
 20
1455.0121776052906
 10
6.4
 20
1454.9335611055014
 10
6.800000000000001
 20
1454.8570292643453
 10
7.2
 20
1454.782582061044
 10
7.6000000000000005
 20
1454.7102194753813
 10
8.0
 20
1454.6399414877146
 10
8.4
 20
1454.5717480789594
 10
8.8
 20
1454.5056392306014
 10
9.200000000000001
 20
1454.44161492469
 10
9.600000000000001
 20
1454.3796751438456
 10
10.0
 20
1454.3198198712478
 10
10.4
 20
1454.2620490906456
 10
10.8
 20
1454.206362786354
 10
11.200000000000001
 20
1454.1527609432533
 10
11.600000000000001
 20
1454.1012435467906
 10
12.0
 20
1454.051810582978
 10
12.4
 20
1454.0044620383946
 10
12.8
 20
1453.9591979001843
 10
13.200000000000001
 20
1453.9160181560574
 10
13.600000000000001
 20
1453.8749227942901
 10
14.0
 20
1453.8359118037229
 10
14.4
 20
1453.798985173767
 10
14.8
 20
1453.764142894395
 10
15.200000000000001
 20
1453.7313849561478
 10
15.600000000000001
 20
1453.7007113501302
 10
16.0
 20
1453.672122068013
 10
16.400000000000002
 20
1453.645617102036
 10
16.8
 20
1453.6211964450008
 10
17.2
 20
1453.5988600902783
 10
17.6
 20
1453.5786080318055
 10
18.0
 20
1453.5604402640802
 10
18.400000000000002
 20
1453.5443567821712
 10
18.8
 20
1453.5303575817134
 10
19.200000000000003
 20
1453.5184426589035
 10
19.6
 20
1453.5086120105063
 10
20.0
 20
1453.5008656338548
 10
20.400000000000002
 20
1453.495203526845
 10
20.8
 20
1453.4916256879378
 10
21.200000000000003
 20
1453.4901321161635
 10
21.6
 20
1453.490722811118
 10
22.0
 20
1453.4933977729584
 10
22.400000000000002
 20
1453.498157002412
 10
22.8
 20
1453.5050005007731
 10
23.200000000000003
 20
1453.5139282698974
 10
23.6
 20
1453.524940312211
 10
24.0
 20
1453.5380366307015
 10
24.400000000000002
 20
1453.553217228925
 10
24.8
 20
1453.5704821110044
 10
25.200000000000003
 20
1453.5898312816273
 10
25.6
 20
1453.6112647460454
 10
26.0
 20
1453.6347825100815
 10
26.400000000000002
 20
1453.6603845801174
 10
26.8
 20
1453.6880709631057
 10
27.200000000000003
 20
1453.7178416665636
 10
27.6
 20
1453.749696698574
 10
28.0
 20
1453.7836360677857
 10
28.400000000000002
 20
1453.819659783415
 10
28.8
 20
1453.857767855241
 10
29.200000000000003
 20
1453.8979602936104
 10
29.6
 20
1453.9402371094388
 10
30.0
 20
1453.9845983141997
 10
30.400000000000002
 20
1454.031043919942
 10
30.8
 20
1454.079573939275
 10
31.200000000000003
 20
1454.130188385374
 10
31.6
 20
1454.1828872719811
 10
32.0
 20
1454.237670613408
 10
32.4
 20
1454.294538424525
 10
32.800000000000004
 20
1454.3534907207734
 10
33.2
 20
1454.4145275181604
 10
33.6
 20
1454.4776488332577
 10
34.0
 20
1454.5428546832027
 10
34.4
 20
1454.6101450857004
 10
34.800000000000004
 20
1454.6795200590202
 10
35.2
 20
1454.750979621999
 10
35.6
 20
1454.8245237940375
 10
36.0
 20
1454.9001525951046
 10
36.4
 20
1454.977866045735
 10
36.800000000000004
 20
1455.0576641670273
 10
37.2
 20
1455.139546980648
 10
37.6
 20
1455.223514508829
 10
38.0
 20
1455.3095667743676
 10
38.400000000000006
 20
1455.3977038006308
 10
38.800000000000004
 20
1455.487925611545
 10
39.2
 20
1455.5802322316101
 10
39.6
 20
1455.674623685886
 10
40.0
 20
1455.7711000000004
  0
LWPOLYLINE
  5
432
330
17
100
AcDbEntity
  8
0
 62
10
100
AcDbPolyline
 90
101
 70
0
 43
0.3
 10
40.0
 20
1455.7711
 10
40.8732
 20
1454.9073636380629
 10
41.7464
 20
1454.0536077437212
 10
42.6196
 20
1453.2098312123142
 10
43.4928
 20
1452.3760329520985
 10
44.366
 20
1451.5522118842355
 10
45.2392
 20
1450.7383669428036
 10
46.1124
 20
1449.9344970747834
 10
46.9856
 20
1449.1406012400614
 10
47.8588
 20
1448.356678411435
 10
48.732
 20
1447.5827275745976
 10
49.605199999999996
 20
1446.8187477281533
 10
50.4784
 20
1446.0647378836022
 10
51.3516
 20
1445.3206970653464
 10
52.2248
 20
1444.5866243106846
 10
53.098
 20
1443.8625186698152
 10
53.971199999999996
 20
1443.1483792058316
 10
54.8444
 20
1442.4442049947256
 10
55.7176
 20
1441.7499951253765
 10
56.5908
 20
1441.0657486995622
 10
57.464
 20
1440.3914648319487
 10
58.337199999999996
 20
1439.7271426500934
 10
59.2104
 20
1439.0727812944433
 10
60.083600000000004
 20
1438.4283799183333
 10
60.9568
 20
1437.793937687985
 10
61.83
 20
1437.1694537825056
 10
62.703199999999995
 20
1436.554927393888
 10
63.5764
 20
1435.9503577270088
 10
64.4496
 20
1435.3557439996264
 10
65.3228
 20
1434.771085442383
 10
66.196
 20
1434.1963812987995
 10
67.0692
 20
1433.6316308252774
 10
67.94239999999999
 20
1433.0768332910982
 10
68.8156
 20
1432.5319879784188
 10
69.6888
 20
1431.9970941822764
 10
70.562
 20
1431.4721512105818
 10
71.4352
 20
1430.9571583841207
 10
72.3084
 20
1430.4521150365547
 10
73.1816
 20
1429.95702051442
 10
74.0548
 20
1429.47187417712
 10
74.928
 20
1428.9966753969345
 10
75.8012
 20
1428.5314235590158
 10
76.67439999999999
 20
1428.0761180613804
 10
77.54759999999999
 20
1427.6307583149191
 10
78.4208
 20
1427.1953437433888
 10
79.294
 20
1426.769873783417
 10
80.16720000000001
 20
1426.3543478844942
 10
81.0404
 20
1425.9487655089813
 10
81.9136
 20
1425.553126132102
 10
82.7868
 20
1425.1674292419475
 10
83.66
 20
1424.7916743394715
 10
84.5332
 20
1424.425860938493
 10
85.40639999999999
 20
1424.0699885656911
 10
86.2796
 20
1423.7240567606116
 10
87.1528
 20
1423.3880650756596
 10
88.026
 20
1423.0620130761026
 10
88.89920000000001
 20
1422.7459003400659
 10
89.7724
 20
1422.4397264585414
 10
90.6456
 20
1422.1434910353726
 10
91.5188
 20
1421.8571936872697
 10
92.392
 20
1421.5808340437975
 10
93.2652
 20
1421.3144117473778
 10
94.13839999999999
 20
1421.0579264532928
 10
95.0116
 20
1420.8113778296827
 10
95.8848
 20
1420.5747655575412
 10
96.758
 20
1420.348089330723
 10
97.6312
 20
1420.1313488559333
 10
98.5044
 20
1419.9245438527375
 10
99.3776
 20
1419.7276740535526
 10
100.2508
 20
1419.5407392036552
 10
101.124
 20
1419.3637390611732
 10
101.99719999999999
 20
1419.1966733970896
 10
102.87039999999999
 20
1419.039541995242
 10
103.7436
 20
1418.8923446523195
 10
104.6168
 20
1418.7550811778672
 10
105.49
 20
1418.6277513942823
 10
106.36319999999999
 20
1418.510355136816
 10
107.2364
 20
1418.4028922535722
 10
108.1096
 20
1418.3053626055041
 10
108.9828
 20
1418.2177660664236
 10
109.856
 20
1418.1401025229886
 10
110.72919999999999
 20
1418.0723718747117
 10
111.6024
 20
1418.0145740339608
 10
112.4756
 20
1417.9667089259474
 10
113.3488
 20
1417.9287764887442
 10
114.222
 20
1417.9007766732689
 10
115.09519999999999
 20
1417.882709443293
 10
115.9684
 20
1417.8745747754406
 10
116.8416
 20
1417.8763726591865
 10
117.7148
 20
1417.8881030968566
 10
118.588
 20
1417.909766103629
 10
119.46119999999999
 20
1417.9413617075309
 10
120.3344
 20
1417.9828899494457
 10
121.2076
 20
1418.0343508831058
 10
122.0808
 20
1418.0957445750955
 10
122.954
 20
1418.1670711048496
 10
123.8272
 20
1418.2483305646572
 10
124.7004
 20
1418.3395230596573
 10
125.5736
 20
1418.4406487078418
 10
126.4468
 20
1418.5517076400579
 10
127.32
 20
1418.6727
  0
LWPOLYLINE
  5
433
330
17
100
AcDbEntity
  8
0
 62
10
100
AcDbPolyline
 90
101
 70
0
 43
0.3
 10
127.32
 20
1418.6727
 10
128.1016
 20
1417.8080716505642
 10
128.8832
 20
1416.9514493710583
 10
129.66479999999999
 20
1416.1028322734521
 10
130.44639999999998
 20
1415.2622194780242
 10
131.22799999999998
 20
1414.4296101133446
 10
132.0096
 20
1413.6050033162808
 10
132.7912
 20
1412.788398231996
 10
133.5728
 20
1411.9797940139536
 10
134.3544
 20
1411.1791898239035
 10
135.136
 20
1410.386584831894
 10
135.9176
 20
1409.6019782162641
 10
136.6992
 20
1408.825369163645
 10
137.4808
 20
1408.056756868958
 10
138.26239999999999
 20
1407.296140535414
 10
139.04399999999998
 20
1406.543519374514
 10
139.82559999999998
 20
1405.7988926060464
 10
140.60719999999998
 20
1405.0622594580884
 10
141.3888
 20
1404.3336191670032
 10
142.1704
 20
1403.612970977438
 10
142.952
 20
1402.9003141423273
 10
143.7336
 20
1402.1956479228902
 10
144.5152
 20
1401.4989715886275
 10
145.2968
 20
1400.8102844173243
 10
146.0784
 20
1400.1295856950467
 10
146.85999999999999
 20
1399.4568747161427
 10
147.64159999999998
 20
1398.7921507832411
 10
148.42319999999998
 20
1398.1354132072497
 10
149.20479999999998
 20
1397.486661307355
 10
149.9864
 20
1396.8458944110246
 10
150.768
 20
1396.2131118539996
 10
151.5496
 20
1395.5883129803035
 10
152.3312
 20
1394.9714971422318
 10
153.1128
 20
1394.362663700356
 10
153.8944
 20
1393.761812023526
 10
154.676
 20
1393.1689414888626
 10
155.45759999999999
 20
1392.58405148176
 10
156.23919999999998
 20
1392.0071413958883
 10
157.02079999999998
 20
1391.4382106331893
 10
157.80239999999998
 20
1390.8772586038758
 10
158.584
 20
1390.324284726432
 10
159.3656
 20
1389.7792884276118
 10
160.1472
 20
1389.242269142442
 10
160.9288
 20
1388.713226314215
 10
161.7104
 20
1388.1921593944955
 10
162.492
 20
1387.6790678431134
 10
163.2736
 20
1387.1739511281692
 10
164.05519999999999
 20
1386.6768087260284
 10
164.83679999999998
 20
1386.187640121327
 10
165.6184
 20
1385.7064448069596
 10
166.39999999999998
 20
1385.2332222840946
 10
167.1816
 20
1384.7679720621604
 10
167.9632
 20
1384.3106936588513
 10
168.7448
 20
1383.8613866001244
 10
169.5264
 20
1383.4200504202063
 10
170.308
 20
1382.9866846615762
 10
171.0896
 20
1382.561288874986
 10
171.8712
 20
1382.1438626194426
 10
172.65279999999998
 20
1381.7344054622215
 10
173.43439999999998
 20
1381.3329169788512
 10
174.216
 20
1380.9393967531264
 10
174.99759999999998
 20
1380.5538443771013
 10
175.7792
 20
1380.1762594510924
 10
176.5608
 20
1379.8066415836688
 10
177.3424
 20
1379.4449903916645
 10
178.124
 20
1379.0913055001708
 10
178.9056
 20
1378.7455865425381
 10
179.6872
 20
1378.407833160372
 10
180.4688
 20
1378.078045003541
 10
181.25039999999998
 20
1377.7562217301627
 10
182.03199999999998
 20
1377.4423630066194
 10
182.8136
 20
1377.136468507547
 10
183.59519999999998
 20
1376.8385379158349
 10
184.3768
 20
1376.5485709226343
 10
185.1584
 20
1376.2665672273447
 10
185.94
 20
1375.992526537627
 10
186.7216
 20
1375.7264485693931
 10
187.5032
 20
1375.4683330468124
 10
188.2848
 20
1375.218179702305
 10
189.0664
 20
1374.9759882765504
 10
189.84799999999998
 20
1374.7417585184774
 10
190.62959999999998
 20
1374.5154901852688
 10
191.4112
 20
1374.297183042362
 10
192.19279999999998
 20
1374.0868368634478
 10
192.9744
 20
1373.8844514304687
 10
193.75599999999997
 20
1373.6900265336212
 10
194.5376
 20
1373.5035619713506
 10
195.3192
 20
1373.3250575503566
 10
196.1008
 20
1373.1545130855952
 10
196.8824
 20
1372.9919284002658
 10
197.664
 20
1372.8373033258258
 10
198.44559999999998
 20
1372.6906377019818
 10
199.22719999999998
 20
1372.5519313766888
 10
200.0088
 20
1372.421184206159
 10
200.79039999999998
 20
1372.2983960548527
 10
201.572
 20
1372.1835667954779
 10
202.35359999999997
 20
1372.076696308995
 10
203.1352
 20
1371.9777844846208
 10
203.9168
 20
1371.8868312198122
 10
204.6984
 20
1371.8038364202837
 10
205.48
 20
1371.7287999999994
  0
LWPOLYLINE
  5
434
330
17
100
AcDbEntity
  8
0
 62
10
100
AcDbPolyline
 90
101
 70
0
 43
0.3
 10
205.48
 20
1371.7288
 10
205.8716
 20
1371.4923391494242
 10
206.26319999999998
 20
1371.2578795533516
 10
206.6548
 20
1371.0254211507715
 10
207.04639999999998
 20
1370.7949638811904
 10
207.438
 20
1370.566507684637
 10
207.8296
 20
1370.3400525016639
 10
208.22119999999998
 20
1370.115598273337
 10
208.6128
 20
1369.8931449412512
 10
209.00439999999998
 20
1369.6726924475145
 10
209.396
 20
1369.4542407347633
 10
209.7876
 20
1369.2377897461465
 10
210.17919999999998
 20
1369.023339425341
 10
210.5708
 20
1368.81088971654
 10
210.9624
 20
1368.6004405644585
 10
211.35399999999998
 20
1368.3919919143316
 10
211.7456
 20
1368.185543711914
 10
212.13719999999998
 20
1367.9810959034853
 10
212.5288
 20
1367.778648435842
 10
212.9204
 20
1367.5782012562997
 10
213.31199999999998
 20
1367.3797543126982
 10
213.7036
 20
1367.1833075533966
 10
214.09519999999998
 20
1366.9888609272743
 10
214.4868
 20
1366.7964143837303
 10
214.8784
 20
1366.6059678726851
 10
215.26999999999998
 20
1366.4175213445794
 10
215.6616
 20
1366.2310747503734
 10
216.05319999999998
 20
1366.046628041551
 10
216.4448
 20
1365.8641811701123
 10
216.8364
 20
1365.6837340885809
 10
217.22799999999998
 20
1365.5052867499999
 10
217.6196
 20
1365.3288391079311
 10
218.01119999999997
 20
1365.1543911164574
 10
218.40279999999998
 20
1364.9819427301854
 10
218.7944
 20
1364.811493904238
 10
219.18599999999998
 20
1364.6430445942615
 10
219.5776
 20
1364.476594756418
 10
219.9692
 20
1364.3121443473942
 10
220.36079999999998
 20
1364.1496933243957
 10
220.7524
 20
1363.9892416451478
 10
221.14399999999998
 20
1363.8307892678968
 10
221.5356
 20
1363.674336151411
 10
221.9272
 20
1363.5198822549744
 10
222.31879999999998
 20
1363.3674275383974
 10
222.7104
 20
1363.2169719620033
 10
223.10199999999998
 20
1363.0685154866408
 10
223.4936
 20
1362.9220580736796
 10
223.8852
 20
1362.7775996850046
 10
224.27679999999998
 20
1362.6351402830276
 10
224.6684
 20
1362.4946798306728
 10
225.06
 20
1362.35621829139
 10
225.45159999999998
 20
1362.2197556291483
 10
225.8432
 20
1362.0852918084374
 10
226.23479999999998
 20
1361.9528267942633
 10
226.6264
 20
1361.822360552158
 10
227.01799999999997
 20
1361.6938930481708
 10
227.40959999999998
 20
1361.5674242488687
 10
227.8012
 20
1361.4429541213408
 10
228.19279999999998
 20
1361.3204826332005
 10
228.5844
 20
1361.2000097525731
 10
228.976
 20
1361.0815354481103
 10
229.36759999999998
 20
1360.965059688984
 10
229.7592
 20
1360.8505824448787
 10
230.15079999999998
 20
1360.7381036860097
 10
230.5424
 20
1360.6276233831045
 10
230.934
 20
1360.5191415074146
 10
231.32559999999998
 20
1360.4126580307077
 10
231.7172
 20
1360.3081729252747
 10
232.10879999999997
 20
1360.2056861639282
 10
232.50039999999998
 20
1360.1051977199959
 10
232.892
 20
1360.0067075673282
 10
233.28359999999998
 20
1359.9102156802974
 10
233.6752
 20
1359.8157220337905
 10
234.0668
 20
1359.7232266032195
 10
234.45839999999998
 20
1359.6327293645145
 10
234.85
 20
1359.5442302941276
 10
235.24159999999998
 20
1359.4577293690252
 10
235.6332
 20
1359.373226566699
 10
236.02479999999997
 20
1359.29072186516
 10
236.41639999999998
 20
1359.2102152429386
 10
236.808
 20
1359.1317066790834
 10
237.19959999999998
 20
1359.0551961531646
 10
237.5912
 20
1358.9806836452726
 10
237.9828
 20
1358.908169136017
 10
238.37439999999998
 20
1358.8376526065283
 10
238.766
 20
1358.7691340384554
 10
239.1576
 20
1358.7026134139674
 10
239.54919999999998
 20
1358.6380907157543
 10
239.94079999999997
 20
1358.575565927027
 10
240.33239999999998
 20
1358.5150390315132
 10
240.724
 20
1358.4565100134616
 10
241.11559999999997
 20
1358.3999788576423
 10
241.50719999999998
 20
1358.3454455493468
 10
241.8988
 20
1358.2929100743795
 10
242.29039999999998
 20
1358.2423724190737
 10
242.682
 20
1358.1938325702752
 10
243.0736
 20
1358.1472905153516
 10
243.46519999999998
 20
1358.102746242196
 10
243.8568
 20
1358.060199739212
 10
244.24839999999998
 20
1358.0196509953305
 10
244.64
 20
1357.9811000000002
  0
LWPOLYLINE
  5
435
330
17
100
AcDbEntity
  8
0
 62
10
100
AcDbPolyline
 90
101
 70
0
 43
0.3
 10
244.64
 20
1357.9811
 10
245.0965
 20
1357.8338168823789
 10
245.553
 20
1357.689249807817
 10
246.00949999999997
 20
1357.5473987251935
 10
246.46599999999998
 20
1357.4082635843438
 10
246.92249999999999
 20
1357.2718443360661
 10
247.379
 20
1357.1381409321207
 10
247.8355
 20
1357.007153325222
 10
248.292
 20
1356.878881469052
 10
248.74849999999998
 20
1356.7533253182498
 10
249.20499999999998
 20
1356.6304848284142
 10
249.6615
 20
1356.5103599561046
 10
250.118
 20
1356.392950658844
 10
250.5745
 20
1356.27825689511
 10
251.031
 20
1356.1662786243444
 10
251.48749999999998
 20
1356.0570158069495
 10
251.944
 20
1355.9504684042865
 10
252.4005
 20
1355.846636378677
 10
252.857
 20
1355.7455196934013
 10
253.3135
 20
1355.6471183127035
 10
253.76999999999998
 20
1355.5514322017855
 10
254.2265
 20
1355.4584613268103
 10
254.683
 20
1355.3682056548994
 10
255.1395
 20
1355.2806651541366
 10
255.596
 20
1355.1958397935662
 10
256.0525
 20
1355.1137295431897
 10
256.509
 20
1355.0343343739703
 10
256.9655
 20
1354.9576542578327
 10
257.422
 20
1354.883689167661
 10
257.8785
 20
1354.8124390772973
 10
258.335
 20
1354.743903961547
 10
258.7915
 20
1354.6780837961728
 10
259.248
 20
1354.6149785578998
 10
259.7045
 20
1354.5545882244119
 10
260.161
 20
1354.496912774353
 10
260.6175
 20
1354.4419521873265
 10
261.074
 20
1354.3897064438988
 10
261.5305
 20
1354.340175525593
 10
261.987
 20
1354.2933594148933
 10
262.4435
 20
1354.2492580952448
 10
262.9
 20
1354.2078715510531
 10
263.3565
 20
1354.1691997676812
 10
263.813
 20
1354.1332427314517
 10
264.2695
 20
1354.1000004296525
 10
264.726
 20
1354.0694728505287
 10
265.1825
 20
1354.0416599832806
 10
265.639
 20
1354.0165618180763
 10
266.0955
 20
1353.9941783460386
 10
266.552
 20
1353.9745095592534
 10
267.0085
 20
1353.9575554507644
 10
267.46500000000003
 20
1353.9433160145768
 10
267.9215
 20
1353.9317912456536
 10
268.378
 20
1353.922981139921
 10
268.8345
 20
1353.9168856942629
 10
269.291
 20
1353.9135049065235
 10
269.7475
 20
1353.9128387755075
 10
270.204
 20
1353.9148873009783
 10
270.6605
 20
1353.9196504836618
 10
271.117
 20
1353.9271283252422
 10
271.5735
 20
1353.9373208283648
 10
272.03000000000003
 20
1353.9502279966314
 10
272.4865
 20
1353.9658498346084
 10
272.943
 20
1353.9841863478186
 10
273.3995
 20
1354.0052375427479
 10
273.856
 20
1354.0290034268396
 10
274.3125
 20
1354.0554840084974
 10
274.769
 20
1354.0846792970879
 10
275.2255
 20
1354.1165893029333
 10
275.682
 20
1354.151214037318
 10
276.1385
 20
1354.1885535124889
 10
276.595
 20
1354.228607741646
 10
277.05150000000003
 20
1354.2713767389578
 10
277.50800000000004
 20
1354.3168605195465
 10
277.96450000000004
 20
1354.3650590994962
 10
278.421
 20
1354.4159724958524
 10
278.8775
 20
1354.4696007266202
 10
279.334
 20
1354.525943810761
 10
279.7905
 20
1354.5850017682037
 10
280.247
 20
1354.6467746198296
 10
280.7035
 20
1354.7112623874837
 10
281.16
 20
1354.7784650939727
 10
281.61650000000003
 20
1354.8483827630596
 10
282.07300000000004
 20
1354.9210154194707
 10
282.5295
 20
1354.9963630888897
 10
282.986
 20
1355.074425797962
 10
283.4425
 20
1355.1552035742943
 10
283.899
 20
1355.23869644645
 10
284.3555
 20
1355.324904443956
 10
284.812
 20
1355.4138275972987
 10
285.2685
 20
1355.5054659379214
 10
285.725
 20
1355.5998194982308
 10
286.1815
 20
1355.696888311595
 10
286.63800000000003
 20
1355.7966724123385
 10
287.09450000000004
 20
1355.8991718357481
 10
287.55100000000004
 20
1356.0043866180715
 10
288.00750000000005
 20
1356.112316796515
 10
288.464
 20
1356.222962409245
 10
288.9205
 20
1356.3363234953927
 10
289.377
 20
1356.45240009504
 10
289.8335
 20
1356.5711922492412
 10
290.29
 20
1356.6927000000007
  0
LWPOLYLINE
  5
436
330
17
100
AcDbEntity
  8
0
 62
10
100
AcDbPolyline
 90
101
 70
0
 43
0.3
 10
355.82
 20
1369.0673
 10
355.1647
 20
1368.666451964657
 10
354.5094
 20
1368.2712081262314
 10
353.8541
 20
1367.8815681967103
 10
353.1988
 20
1367.4975318921654
 10
352.5435
 20
1367.119098932749
 10
351.8882
 20
1366.7462690426971
 10
351.2329
 20
1366.3790419503337
 10
350.5776
 20
1366.0174173880582
 10
349.9223
 20
1365.661395092357
 10
349.267
 20
1365.3109748037964
 10
348.6117
 20
1364.9661562670292
 10
347.95640000000003
 20
1364.6269392307845
 10
347.3011
 20
1364.2933234478767
 10
346.6458
 20
1363.965308675201
 10
345.9905
 20
1363.6428946737353
 10
345.3352
 20
1363.326081208534
 10
344.6799
 20
1363.0148680487403
 10
344.0246
 20
1362.7092549675713
 10
343.3693
 20
1362.4092417423292
 10
342.714
 20
1362.1148281543933
 10
342.0587
 20
1361.826013989227
 10
341.40340000000003
 20
1361.5427990363723
 10
340.7481
 20
1361.265183089451
 10
340.0928
 20
1360.9931659461645
 10
339.4375
 20
1360.7267474082958
 10
338.7822
 20
1360.4659272817057
 10
338.1269
 20
1360.2107053763373
 10
337.4716
 20
1359.9610815062078
 10
336.8163
 20
1359.7170554894192
 10
336.161
 20
1359.4786271481505
 10
335.5057
 20
1359.24579630866
 10
334.85040000000004
 20
1359.0185628012825
 10
334.1951
 20
1358.7969264604365
 10
333.5398
 20
1358.5808871246143
 10
332.8845
 20
1358.3704446363886
 10
332.2292
 20
1358.1655988424106
 10
331.5739
 20
1357.9663495934121
 10
330.9186
 20
1357.7726967441986
 10
330.2633
 20
1357.5846401536564
 10
329.608
 20
1357.4021796847476
 10
328.9527
 20
1357.2253152045164
 10
328.29740000000004
 20
1357.0540465840825
 10
327.6421
 20
1356.8883736986395
 10
326.9868
 20
1356.7282964274655
 10
326.3315
 20
1356.57381465391
 10
325.6762
 20
1356.4249282654055
 10
325.0209
 20
1356.2816371534561
 10
324.36560000000003
 20
1356.143941213649
 10
323.7103
 20
1356.0118403456427
 10
323.055
 20
1355.885334453177
 10
322.3997
 20
1355.7644234440668
 10
321.7444
 20
1355.6491072302065
 10
321.08910000000003
 20
1355.5393857275637
 10
320.4338
 20
1355.435258856184
 10
319.7785
 20
1355.336726540193
 10
319.1232
 20
1355.2437887077886
 10
318.4679
 20
1355.156445291248
 10
317.81260000000003
 20
1355.0746962269236
 10
317.1573
 20
1354.9985414552468
 10
316.502
 20
1354.9279809207212
 10
315.8467
 20
1354.8630145719314
 10
315.1914
 20
1354.803642361537
 10
314.53610000000003
 20
1354.7498642462717
 10
313.8808
 20
1354.70168018695
 10
313.2255
 20
1354.659090148458
 10
312.5702
 20
1354.6220940997616
 10
311.9149
 20
1354.5906920139034
 10
311.25960000000003
 20
1354.564883867998
 10
310.6043
 20
1354.5446696432398
 10
309.949
 20
1354.5300493248992
 10
309.2937
 20
1354.5210229023232
 10
308.6384
 20
1354.517590368934
 10
307.98310000000004
 20
1354.5197517222293
 10
307.3278
 20
1354.527506963784
 10
306.6725
 20
1354.5408560992505
 10
306.0172
 20
1354.5597991383563
 10
305.3619
 20
1354.5843360949034
 10
304.70660000000004
 20
1354.614466986774
 10
304.0513
 20
1354.6501918359227
 10
303.396
 20
1354.6915106683825
 10
302.7407
 20
1354.7384235142626
 10
302.0854
 20
1354.7909304077496
 10
301.43010000000004
 20
1354.849031387103
 10
300.7748
 20
1354.9127264946605
 10
300.1195
 20
1354.9820157768384
 10
299.4642
 20
1355.0568992841281
 10
298.8089
 20
1355.1373770710943
 10
298.15360000000004
 20
1355.2234491963811
 10
297.49830000000003
 20
1355.3151157227126
 10
296.843
 20
1355.4123767168805
 10
296.1877
 20
1355.5152322497636
 10
295.5324
 20
1355.6236823963102
 10
294.87710000000004
 20
1355.7377272355477
 10
294.22180000000003
 20
1355.8573668505812
 10
293.5665
 20
1355.982601328589
 10
292.9112
 20
1356.1134307608324
 10
292.2559
 20
1356.2498552426443
 10
291.60060000000004
 20
1356.3918748734372
 10
290.94530000000003
 20
1356.5394897567003
 10
290.29
 20
1356.6927000000017
  0
LWPOLYLINE
  5
437
330
17
100
AcDbEntity
  8
0
 62
10
100
AcDbPolyline
 90
101
 70
0
 43
0.3
 10
436.99
 20
1397.0775
 10
436.17830000000004
 20
1396.3718539744375
 10
435.3666
 20
1395.674822636702
 10
434.55490000000003
 20
1394.98640520748
 10
433.7432
 20
1394.3066009170952
 10
432.9315
 20
1393.6354090054992
 10
432.1198
 20
1392.9728287222686
 10
431.3081
 20
1392.318859326614
 10
430.4964
 20
1391.6735000873718
 10
429.6847
 20
1391.0367502830009
 10
428.873
 20
1390.4086092015914
 10
428.0613
 20
1389.789076140855
 10
427.2496
 20
1389.1781504081264
 10
426.4379
 20
1388.5758313203683
 10
425.62620000000004
 20
1387.9821182041628
 10
424.8145
 20
1387.3970103957136
 10
424.0028
 20
1386.8205072408473
 10
423.1911
 20
1386.2526080950076
 10
422.37940000000003
 20
1385.6933123232614
 10
421.5677
 20
1385.1426193002926
 10
420.75600000000003
 20
1384.600528410405
 10
419.9443
 20
1384.0670390475161
 10
419.1326
 20
1383.5421506151663
 10
418.3209
 20
1383.0258625265067
 10
417.5092
 20
1382.5181742043073
 10
416.6975
 20
1382.01908508095
 10
415.8858
 20
1381.5285945984333
 10
415.0741
 20
1381.0467022083694
 10
414.2624
 20
1380.573407371983
 10
413.4507
 20
1380.1087095601113
 10
412.639
 20
1379.652608253201
 10
411.82730000000004
 20
1379.2051029413137
 10
411.0156
 20
1378.7661931241191
 10
410.2039
 20
1378.3358783109
 10
409.3922
 20
1377.914158020546
 10
408.58050000000003
 20
1377.501031781555
 10
407.7688
 20
1377.0964991320373
 10
406.9571
 20
1376.7005596197075
 10
406.1454
 20
1376.3132128018885
 10
405.3337
 20
1375.934458245511
 10
404.522
 20
1375.5642955271132
 10
403.7103
 20
1375.202724232835
 10
402.8986
 20
1374.8497439584276
 10
402.0869
 20
1374.5053543092445
 10
401.2752
 20
1374.1695549002436
 10
400.4635
 20
1373.842345355987
 10
399.6518
 20
1373.5237253106393
 10
398.8401
 20
1373.2136944079728
 10
398.02840000000003
 20
1372.9122523013607
 10
397.2167
 20
1372.6193986537746
 10
396.405
 20
1372.335133137797
 10
395.5933
 20
1372.059455435604
 10
394.7816
 20
1371.792365238976
 10
393.9699
 20
1371.5338622492984
 10
393.1582
 20
1371.283946177553
 10
392.3465
 20
1371.042616744321
 10
391.5348
 20
1370.8098736797901
 10
390.7231
 20
1370.5857167237414
 10
389.9114
 20
1370.37014562556
 10
389.0997
 20
1370.1631601442261
 10
388.288
 20
1369.9647600483245
 10
387.4763
 20
1369.774945116033
 10
386.6646
 20
1369.5937151351318
 10
385.8529
 20
1369.4210699029989
 10
385.0412
 20
1369.2570092266087
 10
384.22950000000003
 20
1369.101532922536
 10
383.4178
 20
1368.9546408169517
 10
382.6061
 20
1368.816332745622
 10
381.7944
 20
1368.6866085539161
 10
380.9827
 20
1368.5654680967964
 10
380.171
 20
1368.4529112388204
 10
379.3593
 20
1368.3489378541472
 10
378.5476
 20
1368.2535478265302
 10
377.7359
 20
1368.1667410493185
 10
376.9242
 20
1368.088517425459
 10
376.1125
 20
1368.0188768674952
 10
375.3008
 20
1367.9578192975655
 10
374.4891
 20
1367.9053446474047
 10
373.6774
 20
1367.8614528583444
 10
372.8657
 20
1367.8261438813108
 10
372.054
 20
1367.7994176768286
 10
371.2423
 20
1367.7812742150172
 10
370.43059999999997
 20
1367.7717134755892
 10
369.6189
 20
1367.7707354478553
 10
368.8072
 20
1367.7783401307247
 10
367.9955
 20
1367.794527532698
 10
367.1838
 20
1367.8192976718722
 10
366.3721
 20
1367.8526505759444
 10
365.5604
 20
1367.894586282203
 10
364.7487
 20
1367.9451048375315
 10
363.937
 20
1368.0042062984164
 10
363.1253
 20
1368.0718907309308
 10
362.3136
 20
1368.148158210753
 10
361.5019
 20
1368.2330088231492
 10
360.6902
 20
1368.3264426629903
 10
359.8785
 20
1368.428459834734
 10
359.0668
 20
1368.539060452443
 10
358.25509999999997
 20
1368.658244639773
 10
357.4434
 20
1368.7860125299765
 10
356.63169999999997
 20
1368.9223642659038
 10
355.82
 20
1369.0673000000004
  0
LWPOLYLINE
  5
438
330
17
100
AcDbEntity
  8
0
 62
10
100
AcDbPolyline
 90
101
 70
0
 43
0.3
 10
531.99
 20
1439.7362
 10
531.04
 20
1438.7261847815926
 10
530.09
 20
1437.727991618011
 10
529.14
 20
1436.741618980531
 10
528.19
 20
1435.7670653585344
 10
527.24
 20
1434.8043292595046
 10
526.29
 20
1433.8534092090201
 10
525.34
 20
1432.9143037507574
 10
524.39
 20
1431.9870114464861
 10
523.44
 20
1431.0715308760712
 10
522.49
 20
1430.167860637463
 10
521.54
 20
1429.2759993466984
 10
520.59
 20
1428.3959456379052
 10
519.64
 20
1427.527698163289
 10
518.69
 20
1426.6712555931372
 10
517.74
 20
1425.8266166158205
 10
516.79
 20
1424.99377993778
 10
515.84
 20
1424.172744283538
 10
514.89
 20
1423.363508395687
 10
513.94
 20
1422.566071034892
 10
512.99
 20
1421.7804309798858
 10
512.04
 20
1421.006587027468
 10
511.09000000000003
 20
1420.2445379925066
 10
510.14
 20
1419.4942827079312
 10
509.19
 20
1418.7558200247345
 10
508.24
 20
1418.02914881197
 10
507.29
 20
1417.3142679567477
 10
506.34000000000003
 20
1416.6111763642355
 10
505.39
 20
1415.9198729576572
 10
504.44
 20
1415.2403566782864
 10
503.49
 20
1414.5726264854559
 10
502.54
 20
1413.9166813565414
 10
501.59000000000003
 20
1413.272520286971
 10
500.64
 20
1412.6401422902172
 10
499.69
 20
1412.0195463978039
 10
498.74
 20
1411.4107316592933
 10
497.79
 20
1410.8136971422912
 10
496.84000000000003
 20
1410.2284419324485
 10
495.89
 20
1409.6549651334506
 10
494.94
 20
1409.0932658670251
 10
493.99
 20
1408.5433432729358
 10
493.04
 20
1408.0051965089833
 10
492.09000000000003
 20
1407.4788247510014
 10
491.14
 20
1406.964227192857
 10
490.19
 20
1406.4614030464495
 10
489.24
 20
1405.9703515417095
 10
488.29
 20
1405.4910719265977
 10
487.34000000000003
 20
1405.0235634671005
 10
486.39
 20
1404.5678254472366
 10
485.44
 20
1404.1238571690483
 10
484.49
 20
1403.6916579526
 10
483.54
 20
1403.2712271359871
 10
482.59000000000003
 20
1402.8625640753216
 10
481.64
 20
1402.4656681447414
 10
480.69
 20
1402.0805387364042
 10
479.74
 20
1401.7071752604918
 10
478.79
 20
1401.345577145198
 10
477.84000000000003
 20
1400.99574383674
 10
476.89
 20
1400.6576747993543
 10
475.94
 20
1400.3313695152904
 10
474.99
 20
1400.0168274848152
 10
474.04
 20
1399.714048226212
 10
473.09000000000003
 20
1399.4230312757766
 10
472.14
 20
1399.1437761878215
 10
471.19
 20
1398.8762825346673
 10
470.24
 20
1398.6205499066525
 10
469.29
 20
1398.3765779121265
 10
468.34000000000003
 20
1398.1443661774476
 10
467.39
 20
1397.923914346986
 10
466.44
 20
1397.7152220831238
 10
465.49
 20
1397.5182890662475
 10
464.54
 20
1397.33311499476
 10
463.59000000000003
 20
1397.1596995850666
 10
462.64
 20
1396.9980425715867
 10
461.69
 20
1396.8481437067408
 10
460.74
 20
1396.710002760962
 10
459.79
 20
1396.5836195226893
 10
458.84000000000003
 20
1396.4689937983694
 10
457.89
 20
1396.3661254124513
 10
456.94
 20
1396.275014207395
 10
455.99
 20
1396.1956600436638
 10
455.04
 20
1396.1280627997287
 10
454.09000000000003
 20
1396.0722223720647
 10
453.14
 20
1396.0281386751535
 10
452.19
 20
1395.99581164148
 10
451.24
 20
1395.9752412215373
 10
450.29
 20
1395.9664273838207
 10
449.34000000000003
 20
1395.9693701148335
 10
448.39
 20
1395.984069419081
 10
447.44
 20
1396.0105253190745
 10
446.49
 20
1396.0487378553335
 10
445.54
 20
1396.0987070863773
 10
444.59000000000003
 20
1396.1604330887335
 10
443.64
 20
1396.2339159569374
 10
442.69
 20
1396.3191558035242
 10
441.74
 20
1396.4161527590395
 10
440.79
 20
1396.524906972034
 10
439.84000000000003
 20
1396.6454186090614
 10
438.89
 20
1396.777687854684
 10
437.94
 20
1396.9217149114713
 10
436.99
 20
1397.077499999999
  0
LWPOLYLINE
  5
439
330
17
100
AcDbEntity
  8
0
 62
10
100
AcDbPolyline
 90
101
 70
0
 43
0.3
 10
626.99
 20
1464.2582
 10
626.04
 20
1463.430168610605
 10
625.09
 20
1462.6139377308364
 10
624.14
 20
1461.8095061106462
 10
623.19
 20
1461.016872518057
 10
622.24
 20
1460.2360357391558
 10
621.29
 20
1459.4669945781027
 10
620.34
 20
1458.7097478571177
 10
619.39
 20
1457.964294416487
 10
618.44
 20
1457.2306331145583
 10
617.49
 20
1456.5087628277352
 10
616.54
 20
1455.7986824504808
 10
615.59
 20
1455.1003908953167
 10
614.64
 20
1454.4138870928166
 10
613.69
 20
1453.7391699916075
 10
612.74
 20
1453.076238558367
 10
611.79
 20
1452.4250917778243
 10
610.84
 20
1451.7857286527537
 10
609.89
 20
1451.158148203978
 10
608.94
 20
1450.542349470366
 10
607.99
 20
1449.9383315088262
 10
607.04
 20
1449.3460933943145
 10
606.09
 20
1448.7656342198234
 10
605.14
 20
1448.1969530963863
 10
604.19
 20
1447.6400491530742
 10
603.24
 20
1447.0949215369956
 10
602.29
 20
1446.5615694132928
 10
601.34
 20
1446.0399919651438
 10
600.39
 20
1445.5301883937557
 10
599.44
 20
1445.0321579183733
 10
598.49
 20
1444.5458997762678
 10
597.54
 20
1444.07141322274
 10
596.59
 20
1443.6086975311175
 10
595.64
 20
1443.1577519927573
 10
594.69
 20
1442.7185759170413
 10
593.74
 20
1442.2911686313776
 10
592.79
 20
1441.8755294811954
 10
591.84
 20
1441.471657829947
 10
590.89
 20
1441.0795530591079
 10
589.94
 20
1440.6992145681756
 10
588.99
 20
1440.3306417746655
 10
588.04
 20
1439.9738341141103
 10
587.09
 20
1439.6287910400642
 10
586.14
 20
1439.2955120240997
 10
585.19
 20
1438.9739965557992
 10
584.24
 20
1438.6642441427693
 10
583.29
 20
1438.3662543106266
 10
582.34
 20
1438.080026603001
 10
581.39
 20
1437.8055605815416
 10
580.44
 20
1437.5428558259023
 10
579.49
 20
1437.291911933757
 10
578.54
 20
1437.0527285207875
 10
577.59
 20
1436.8253052206858
 10
576.64
 20
1436.6096416851553
 10
575.69
 20
1436.4057375839109
 10
574.74
 20
1436.213592604676
 10
573.79
 20
1436.0332064531824
 10
572.84
 20
1435.8645788531703
 10
571.89
 20
1435.7077095463885
 10
570.94
 20
1435.5625982925942
 10
569.99
 20
1435.4292448695494
 10
569.04
 20
1435.3076490730248
 10
568.09
 20
1435.1978107167997
 10
567.14
 20
1435.0997296326564
 10
566.19
 20
1435.013405670386
 10
565.24
 20
1434.9388386977826
 10
564.29
 20
1434.8760286006507
 10
563.34
 20
1434.824975282793
 10
562.39
 20
1434.7856786660254
 10
561.44
 20
1434.7581386901645
 10
560.49
 20
1434.7423553130327
 10
559.54
 20
1434.7383285104584
 10
558.59
 20
1434.7460582762742
 10
557.64
 20
1434.7655446223182
 10
556.69
 20
1434.7967875784354
 10
555.74
 20
1434.8397871924703
 10
554.79
 20
1434.8945435302794
 10
553.84
 20
1434.9610566757194
 10
552.89
 20
1435.039326730657
 10
551.94
 20
1435.1293538149603
 10
550.99
 20
1435.2311380665042
 10
550.04
 20
1435.3446796411708
 10
549.09
 20
1435.4699787128486
 10
548.14
 20
1435.6070354734295
 10
547.19
 20
1435.755850132817
 10
546.24
 20
1435.9164229189184
 10
545.29
 20
1436.0887540776475
 10
544.34
 20
1436.2728438729298
 10
543.39
 20
1436.4686925866947
 10
542.44
 20
1436.6763005188845
 10
541.49
 20
1436.8956679874468
 10
540.54
 20
1437.1267953283416
 10
539.59
 20
1437.3696828955362
 10
538.64
 20
1437.6243310610125
 10
537.69
 20
1437.8907402147588
 10
536.74
 20
1438.1689107647803
 10
535.79
 20
1438.4588431370908
 10
534.84
 20
1438.760537775719
 10
533.89
 20
1439.073995142706
 10
532.94
 20
1439.3992157181096
 10
531.99
 20
1439.7361999999994
  0
LWPOLYLINE
  5
43A
330
17
100
AcDbEntity
  8
0
 62
10
100
AcDbPolyline
 90
101
 70
0
 43
0.3
 10
626.99
 20
1464.2582
 10
627.94
 20
1463.6528547032058
 10
628.89
 20
1463.059289356765
 10
629.84
 20
1462.477503051639
 10
630.79
 20
1461.9074948968273
 10
631.74
 20
1461.3492640193708
 10
632.69
 20
1460.802809564343
 10
633.64
 20
1460.2681306948577
 10
634.59
 20
1459.7452265920576
 10
635.54
 20
1459.2340964551217
 10
636.49
 20
1458.7347395012591
 10
637.44
 20
1458.2471549657112
 10
638.39
 20
1457.771342101747
 10
639.34
 20
1457.3073001806656
 10
640.29
 20
1456.8550284917906
 10
641.24
 20
1456.4145263424737
 10
642.19
 20
1455.9857930580893
 10
643.14
 20
1455.5688279820386
 10
644.09
 20
1455.163630475745
 10
645.04
 20
1454.770199918651
 10
645.99
 20
1454.3885357082222
 10
646.94
 20
1454.018637259945
 10
647.89
 20
1453.6605040073232
 10
648.84
 20
1453.3141354018815
 10
649.79
 20
1452.9795309131573
 10
650.74
 20
1452.65669002871
 10
651.69
 20
1452.345612254111
 10
652.64
 20
1452.0462971129487
 10
653.59
 20
1451.7587441468258
 10
654.54
 20
1451.4829529153565
 10
655.49
 20
1451.2189229961712
 10
656.44
 20
1450.9666539849106
 10
657.39
 20
1450.7261454952275
 10
658.34
 20
1450.4973971587845
 10
659.29
 20
1450.2804086252581
 10
660.24
 20
1450.0751795623312
 10
661.19
 20
1449.8817096556988
 10
662.14
 20
1449.699998609063
 10
663.09
 20
1449.530046144135
 10
664.04
 20
1449.3718520006355
 10
664.99
 20
1449.2254159362933
 10
665.94
 20
1449.0907377268402
 10
666.89
 20
1448.967817166019
 10
667.84
 20
1448.856654065578
 10
668.79
 20
1448.7572482552753
 10
669.74
 20
1448.6695995828663
 10
670.69
 20
1448.5937079141236
 10
671.64
 20
1448.5295731328167
 10
672.59
 20
1448.477195140723
 10
673.54
 20
1448.4365738576305
 10
674.49
 20
1448.407709221323
 10
675.44
 20
1448.3906011875993
 10
676.39
 20
1448.3852497302548
 10
677.34
 20
1448.3916548410962
 10
678.29
 20
1448.4098165299326
 10
679.24
 20
1448.4397348245775
 10
680.19
 20
1448.4814097708504
 10
681.14
 20
1448.5348414325777
 10
682.09
 20
1448.6000298915876
 10
683.04
 20
1448.6769752477164
 10
683.99
 20
1448.7656776188046
 10
684.94
 20
1448.8661371406981
 10
685.89
 20
1448.9783539672508
 10
686.84
 20
1449.1023282703225
 10
687.79
 20
1449.2380602397752
 10
688.74
 20
1449.3855500834843
 10
689.69
 20
1449.5447980273284
 10
690.64
 20
1449.715804315191
 10
691.59
 20
1449.8985692089695
 10
692.54
 20
1450.0930929885649
 10
693.49
 20
1450.2993759518893
 10
694.44
 20
1450.517418414862
 10
695.39
 20
1450.7472207114124
 10
696.34
 20
1450.9887831934802
 10
697.29
 20
1451.242106231015
 10
698.24
 20
1451.5071902119803
 10
699.19
 20
1451.7840355423475
 10
700.14
 20
1452.0726426461038
 10
701.09
 20
1452.3730119652446
 10
702.04
 20
1452.685143959786
 10
702.99
 20
1453.0090391077538
 10
703.94
 20
1453.3446979051873
 10
704.89
 20
1453.692120866147
 10
705.84
 20
1454.0513085227062
 10
706.79
 20
1454.422261424957
 10
707.74
 20
1454.8049801410089
 10
708.69
 20
1455.1994652569929
 10
709.64
 20
1455.605717377059
 10
710.59
 20
1456.023737123374
 10
711.54
 20
1456.4535251361358
 10
712.49
 20
1456.8950820735554
 10
713.44
 20
1457.348408611876
 10
714.39
 20
1457.8135054453585
 10
715.34
 20
1458.2903732862967
 10
716.29
 20
1458.7790128650076
 10
717.24
 20
1459.2794249298365
 10
718.19
 20
1459.7916102471595
 10
719.14
 20
1460.315569601383
 10
720.09
 20
1460.8513037949444
 10
721.04
 20
1461.3988136483154
 10
721.99
 20
1461.9581000000007
  0
LWPOLYLINE
  5
43B
330
17
100
AcDbEntity
  8
0
 62
10
100
AcDbPolyline
 90
101
 70
0
 43
0.3
 10
721.99
 20
1461.9581
 10
722.94
 20
1461.3370000996356
 10
723.89
 20
1460.7276813934625
 10
724.84
 20
1460.1301429483176
 10
725.79
 20
1459.5443838490762
 10
726.74
 20
1458.970403198655
 10
727.69
 20
1458.408200118008
 10
728.64
 20
1457.8577737461299
 10
729.59
 20
1457.3191232400459
 10
730.54
 20
1456.7922477748189
 10
731.49
 20
1456.2771465435476
 10
732.44
 20
1455.7738187573577
 10
733.39
 20
1455.2822636454107
 10
734.34
 20
1454.8024804548918
 10
735.29
 20
1454.3344684510218
 10
736.24
 20
1453.8782269170424
 10
737.19
 20
1453.4337551542271
 10
738.14
 20
1453.0010524818717
 10
739.09
 20
1452.5801182372977
 10
740.04
 20
1452.1709517758466
 10
740.99
 20
1451.7735524708855
 10
741.94
 20
1451.3879197138037
 10
742.89
 20
1451.014052914006
 10
743.84
 20
1450.651951498922
 10
744.79
 20
1450.3016149139955
 10
745.74
 20
1449.9630426226904
 10
746.69
 20
1449.636234106488
 10
747.64
 20
1449.3211888648825
 10
748.59
 20
1449.0179064153872
 10
749.54
 20
1448.7263862935288
 10
750.49
 20
1448.4466280528477
 10
751.44
 20
1448.1786312648944
 10
752.39
 20
1447.922395519238
 10
753.34
 20
1447.6779204234547
 10
754.29
 20
1447.445205603134
 10
755.24
 20
1447.224250701875
 10
756.19
 20
1447.015055381288
 10
757.14
 20
1446.8176193209947
 10
758.09
 20
1446.63194221862
 10
759.04
 20
1446.4580237898058
 10
759.99
 20
1446.2958637681943
 10
760.94
 20
1446.1454619054425
 10
761.89
 20
1446.006817971209
 10
762.84
 20
1445.8799317531634
 10
763.79
 20
1445.7648030569794
 10
764.74
 20
1445.661431706341
 10
765.69
 20
1445.5698175429343
 10
766.64
 20
1445.4899604264538
 10
767.59
 20
1445.4218602345998
 10
768.54
 20
1445.3655168630758
 10
769.49
 20
1445.3209302255957
 10
770.44
 20
1445.2881002538727
 10
771.39
 20
1445.2670268976294
 10
772.34
 20
1445.2577101245906
 10
773.29
 20
1445.260149920489
 10
774.24
 20
1445.2743462890633
 10
775.19
 20
1445.3002992520508
 10
776.14
 20
1445.3380088492015
 10
777.09
 20
1445.3874751382652
 10
778.04
 20
1445.4486981949988
 10
778.99
 20
1445.521678113167
 10
779.94
 20
1445.606415004536
 10
780.89
 20
1445.7029089988798
 10
781.84
 20
1445.8111602439783
 10
782.79
 20
1445.9311689056167
 10
783.74
 20
1446.0629351675868
 10
784.69
 20
1446.2064592316874
 10
785.64
 20
1446.3617413177255
 10
786.59
 20
1446.5287816635098
 10
787.54
 20
1446.7075805248644
 10
788.49
 20
1446.8981381756166
 10
789.44
 20
1447.1004549076024
 10
790.39
 20
1447.314531030671
 10
791.34
 20
1447.5403668726738
 10
792.29
 20
1447.7779627794764
 10
793.24
 20
1448.0273191149556
 10
794.19
 20
1448.288436261
 10
795.14
 20
1448.5613146175024
 10
796.09
 20
1448.8459546023769
 10
797.04
 20
1449.142356651544
 10
797.99
 20
1449.4505212189429
 10
798.94
 20
1449.7704487765225
 10
799.89
 20
1450.1021398142498
 10
800.84
 20
1450.4455948401023
 10
801.79
 20
1450.8008143800823
 10
802.74
 20
1451.1677989782004
 10
803.69
 20
1451.5465491964937
 10
804.64
 20
1451.9370656150104
 10
805.59
 20
1452.339348831822
 10
806.54
 20
1452.753399463024
 10
807.49
 20
1453.1792181427284
 10
808.44
 20
1453.6168055230714
 10
809.39
 20
1454.0661622742148
 10
810.34
 20
1454.5272890843407
 10
811.29
 20
1455.0001866596633
 10
812.24
 20
1455.4848557244172
 10
813.19
 20
1455.9812970208698
 10
814.14
 20
1456.4895113093135
 10
815.09
 20
1457.009499368073
 10
816.04
 20
1457.5412619935055
 10
816.99
 20
1458.084799999999
  0
LWPOLYLINE
  5
43C
330
17
100
AcDbEntity
  8
0
 62
10
100
AcDbPolyline
 90
101
 70
0
 43
0.3
 10
911.99
 20
1470.812
 10
911.04
 20
1470.1022041442718
 10
910.09
 20
1469.4041970846106
 10
909.14
 20
1468.7179777520282
 10
908.19
 20
1468.0435450955865
 10
907.24
 20
1467.3808980823974
 10
906.29
 20
1466.7300356976266
 10
905.34
 20
1466.090956944485
 10
904.39
 20
1465.4636608442318
 10
903.44
 20
1464.8481464361662
 10
902.49
 20
1464.2444127776375
 10
901.54
 20
1463.6524589440342
 10
900.59
 20
1463.0722840287865
 10
899.64
 20
1462.5038871433596
 10
898.69
 20
1461.947267417264
 10
897.74
 20
1461.4024239980395
 10
896.79
 20
1460.8693560512645
 10
895.84
 20
1460.3480627605538
 10
894.89
 20
1459.8385433275507
 10
893.94
 20
1459.3407969719328
 10
892.99
 20
1458.854822931406
 10
892.04
 20
1458.3806204617078
 10
891.09
 20
1457.9181888366002
 10
890.14
 20
1457.4675273478763
 10
889.19
 20
1457.0286353053514
 10
888.24
 20
1456.6015120368695
 10
887.29
 20
1456.1861568882935
 10
886.34
 20
1455.7825692235144
 10
885.39
 20
1455.3907484244382
 10
884.44
 20
1455.0106938909987
 10
883.49
 20
1454.6424050411467
 10
882.54
 20
1454.2858813108508
 10
881.59
 20
1453.941122154099
 10
880.64
 20
1453.6081270428954
 10
879.69
 20
1453.2868954672635
 10
878.74
 20
1452.9774269352401
 10
877.79
 20
1452.6797209728777
 10
876.84
 20
1452.3937771242427
 10
875.89
 20
1452.1195949514154
 10
874.94
 20
1451.8571740344876
 10
873.99
 20
1451.6065139715668
 10
873.04
 20
1451.3676143787666
 10
872.09
 20
1451.1404748902182
 10
871.14
 20
1450.9250951580593
 10
870.19
 20
1450.7214748524375
 10
869.24
 20
1450.5296136615111
 10
868.29
 20
1450.3495112914463
 10
867.34
 20
1450.1811674664184
 10
866.39
 20
1450.0245819286104
 10
865.44
 20
1449.8797544382144
 10
864.49
 20
1449.746684773427
 10
863.54
 20
1449.6253727304552
 10
862.59
 20
1449.5158181235097
 10
861.64
 20
1449.4180207848092
 10
860.69
 20
1449.3319805645792
 10
859.74
 20
1449.2576973310488
 10
858.79
 20
1449.1951709704533
 10
857.84
 20
1449.144401387037
 10
856.89
 20
1449.1053885030442
 10
855.94
 20
1449.078132258727
 10
854.99
 20
1449.062632612345
 10
854.04
 20
1449.0588895401604
 10
853.09
 20
1449.0669030364395
 10
852.14
 20
1449.0866731134547
 10
851.19
 20
1449.118199801484
 10
850.24
 20
1449.1614831488098
 10
849.29
 20
1449.2165232217221
 10
848.34
 20
1449.2833201045116
 10
847.39
 20
1449.3618738994783
 10
846.44
 20
1449.4521847269264
 10
845.49
 20
1449.554252725166
 10
844.54
 20
1449.6680780505117
 10
843.59
 20
1449.7936608772884
 10
842.64
 20
1449.9310013978227
 10
841.69
 20
1450.080099822451
 10
840.74
 20
1450.2409563795154
 10
839.79
 20
1450.4135713153662
 10
838.84
 20
1450.59794489436
 10
837.89
 20
1450.7940773988655
 10
836.94
 20
1451.0019691292568
 10
835.99
 20
1451.2216204039146
 10
835.04
 20
1451.4530315592363
 10
834.09
 20
1451.6962029496244
 10
833.14
 20
1451.9511349474922
 10
832.19
 20
1452.2178279432671
 10
831.24
 20
1452.4962823453843
 10
830.29
 20
1452.7864985802937
 10
829.34
 20
1453.0884770924608
 10
828.39
 20
1453.402218344361
 10
827.44
 20
1453.7277228164833
 10
826.49
 20
1454.0649910073373
 10
825.54
 20
1454.4140234334443
 10
824.59
 20
1454.7748206293443
 10
823.64
 20
1455.1473831475923
 10
822.69
 20
1455.5317115587661
 10
821.74
 20
1455.92780645146
 10
820.79
 20
1456.3356684322866
 10
819.84
 20
1456.7552981258848
 10
818.89
 20
1457.1866961749115
 10
817.94
 20
1457.629863240048
 10
816.99
 20
1458.0848000000005
  0
LWPOLYLINE
  5
43D
330
17
100
AcDbEntity
  8
0
 62
10
100
AcDbPolyline
 90
101
 70
0
 43
0.3
 10
1006.99
 20
1475.9035
 10
1006.04
 20
1475.2701995010573
 10
1005.09
 20
1474.6486811816285
 10
1004.14
 20
1474.0389440898632
 10
1003.19
 20
1473.440987291957
 10
1002.24
 20
1472.8548098721446
 10
1001.29
 20
1472.2804109327035
 10
1000.34
 20
1471.7177895939483
 10
999.39
 20
1471.1669449942278
 10
998.44
 20
1470.6278762899315
 10
997.49
 20
1470.100582655483
 10
996.54
 20
1469.585063283335
 10
995.59
 20
1469.0813173839774
 10
994.64
 20
1468.589344185929
 10
993.69
 20
1468.1091429357357
 10
992.74
 20
1467.640712897978
 10
991.79
 20
1467.1840533552593
 10
990.84
 20
1466.7391636082093
 10
989.89
 20
1466.3060429754846
 10
988.94
 20
1465.884690793767
 10
987.99
 20
1465.4751064177592
 10
987.04
 20
1465.0772892201876
 10
986.09
 20
1464.6912385917985
 10
985.14
 20
1464.3169539413625
 10
984.19
 20
1463.9544346956636
 10
983.24
 20
1463.6036802995097
 10
982.29
 20
1463.264690215724
 10
981.34
 20
1462.937463925146
 10
980.39
 20
1462.6220009266333
 10
979.44
 20
1462.3183007370562
 10
978.49
 20
1462.0263628913024
 10
977.54
 20
1461.746186942273
 10
976.59
 20
1461.4777724608812
 10
975.64
 20
1461.2211190360515
 10
974.69
 20
1460.9762262747242
 10
973.74
 20
1460.7430938018479
 10
972.79
 20
1460.5217212603832
 10
971.84
 20
1460.3121083112987
 10
970.89
 20
1460.1142546335773
 10
969.94
 20
1459.928159924206
 10
968.99
 20
1459.7538238981847
 10
968.04
 20
1459.5912462885176
 10
967.09
 20
1459.4404268462192
 10
966.14
 20
1459.3013653403145
 10
965.19
 20
1459.1740615578278
 10
964.24
 20
1459.058515303796
 10
963.29
 20
1458.954726401264
 10
962.34
 20
1458.8626946912782
 10
961.39
 20
1458.7824200328923
 10
960.44
 20
1458.713902303168
 10
959.49
 20
1458.6571413971687
 10
958.54
 20
1458.61213722797
 10
957.59
 20
1458.578889726645
 10
956.64
 20
1458.5573988422761
 10
955.69
 20
1458.547664541952
 10
954.74
 20
1458.5496868107628
 10
953.79
 20
1458.5634656518062
 10
952.84
 20
1458.5890010861838
 10
951.89
 20
1458.6262931530032
 10
950.94
 20
1458.6753419093784
 10
949.99
 20
1458.7361474304248
 10
949.04
 20
1458.8087098092667
 10
948.09
 20
1458.8930291570314
 10
947.14
 20
1458.989105602853
 10
946.19
 20
1459.0969392938741
 10
945.24
 20
1459.2165303952374
 10
944.29
 20
1459.3478790900974
 10
943.34
 20
1459.4909855796134
 10
942.39
 20
1459.6458500829497
 10
941.44
 20
1459.8124728372813
 10
940.49
 20
1459.9908540977879
 10
939.54
 20
1460.1809941376591
 10
938.59
 20
1460.3828932480917
 10
937.64
 20
1460.5965517382942
 10
936.69
 20
1460.8219699354784
 10
935.74
 20
1461.0591481848712
 10
934.79
 20
1461.30808684971
 10
933.84
 20
1461.5687863112405
 10
932.89
 20
1461.8412469687219
 10
931.94
 20
1462.1254692394239
 10
930.99
 20
1462.421453558629
 10
930.04
 20
1462.7292003796342
 10
929.09
 20
1463.048710173751
 10
928.14
 20
1463.3799834303052
 10
927.19
 20
1463.7230206566387
 10
926.24
 20
1464.0778223781078
 10
925.29
 20
1464.4443891380888
 10
924.34
 20
1464.8227214979734
 10
923.39
 20
1465.212820037173
 10
922.44
 20
1465.6146853531206
 10
921.49
 20
1466.0283180612687
 10
920.54
 20
1466.4537187950905
 10
919.59
 20
1466.8908882060812
 10
918.64
 20
1467.3398269637632
 10
917.69
 20
1467.8005357556813
 10
916.74
 20
1468.2730152874033
 10
915.79
 20
1468.7572662825287
 10
914.84
 20
1469.2532894826816
 10
913.89
 20
1469.7610856475171
 10
912.94
 20
1470.2806555547174
 10
911.99
 20
1470.8120000000006
  0
LWPOLYLINE
  5
43E
330
17
100
AcDbEntity
  8
0
 62
10
100
AcDbPolyline
 90
101
 70
0
 43
0.3
 10
1101.99
 20
1488.7709
 10
1101.04
 20
1488.0596992526916
 10
1100.09
 20
1487.3602874300425
 10
1099.14
 20
1486.6726634609117
 10
1098.19
 20
1485.9968262922077
 10
1097.24
 20
1485.332774888897
 10
1096.29
 20
1484.6805082339886
 10
1095.34
 20
1484.0400253285459
 10
1094.39
 20
1483.411325191675
 10
1093.44
 20
1482.7944068605298
 10
1092.49
 20
1482.1892693903044
 10
1091.54
 20
1481.5959118542414
 10
1090.59
 20
1481.0143333436167
 10
1089.64
 20
1480.4445329677508
 10
1088.69
 20
1479.8865098540002
 10
1087.74
 20
1479.340263147758
 10
1086.79
 20
1478.8057920124556
 10
1085.84
 20
1478.2830956295545
 10
1084.89
 20
1477.7721731985523
 10
1083.94
 20
1477.2730239369766
 10
1082.99
 20
1476.7856470803847
 10
1082.04
 20
1476.310041882364
 10
1081.09
 20
1475.8462076145324
 10
1080.14
 20
1475.3941435665322
 10
1079.19
 20
1474.9538490460322
 10
1078.24
 20
1474.5253233787255
 10
1077.29
 20
1474.1085659083303
 10
1076.34
 20
1473.7035759965875
 10
1075.39
 20
1473.3103530232577
 10
1074.44
 20
1472.9288963861272
 10
1073.49
 20
1472.5592055009981
 10
1072.54
 20
1472.201279801692
 10
1071.59
 20
1471.8551187400499
 10
1070.64
 20
1471.520721785931
 10
1069.69
 20
1471.1980884272105
 10
1068.74
 20
1470.887218169776
 10
1067.79
 20
1470.5881105375363
 10
1066.84
 20
1470.300765072409
 10
1065.89
 20
1470.025181334329
 10
1064.94
 20
1469.7613589012446
 10
1063.99
 20
1469.5092973691103
 10
1063.04
 20
1469.2689963519003
 10
1062.09
 20
1469.0404554815948
 10
1061.14
 20
1468.823674408187
 10
1060.19
 20
1468.6186527996772
 10
1059.24
 20
1468.4253903420788
 10
1058.29
 20
1468.2438867394128
 10
1057.34
 20
1468.0741417137058
 10
1056.39
 20
1467.9161550049973
 10
1055.44
 20
1467.769926371333
 10
1054.49
 20
1467.6354555887635
 10
1053.54
 20
1467.5127424513485
 10
1052.59
 20
1467.4017867711555
 10
1051.64
 20
1467.3025883782557
 10
1050.69
 20
1467.2151471207303
 10
1049.74
 20
1467.1394628646606
 10
1048.79
 20
1467.0755354941396
 10
1047.84
 20
1467.0233649112618
 10
1046.89
 20
1466.982951036129
 10
1045.94
 20
1466.9542938068475
 10
1044.99
 20
1466.9373931795305
 10
1044.04
 20
1466.932249128293
 10
1043.09
 20
1466.9388616452584
 10
1042.14
 20
1466.9572307405513
 10
1041.19
 20
1466.9873564423071
 10
1040.24
 20
1467.0292387966608
 10
1039.29
 20
1467.0828778677558
 10
1038.34
 20
1467.1482737377373
 10
1037.39
 20
1467.2254265067625
 10
1036.44
 20
1467.3143362929864
 10
1035.49
 20
1467.415003232576
 10
1034.54
 20
1467.5274274797005
 10
1033.59
 20
1467.6516092065349
 10
1032.64
 20
1467.787548603265
 10
1031.69
 20
1467.935245878078
 10
1030.74
 20
1468.0947012571714
 10
1029.79
 20
1468.2659149847493
 10
1028.84
 20
1468.4488873230246
 10
1027.89
 20
1468.6436185522182
 10
1026.94
 20
1468.8501089705544
 10
1025.99
 20
1469.0683588942766
 10
1025.04
 20
1469.2983686576274
 10
1024.09
 20
1469.5401386128674
 10
1023.14
 20
1469.7936691302646
 10
1022.19
 20
1470.0589605980942
 10
1021.24
 20
1470.3360134226523
 10
1020.29
 20
1470.6248280282389
 10
1019.34
 20
1470.9254048571722
 10
1018.39
 20
1471.2377443697815
 10
1017.44
 20
1471.5618470444113
 10
1016.49
 20
1471.897713377422
 10
1015.54
 20
1472.245343883187
 10
1014.59
 20
1472.604739094102
 10
1013.64
 20
1472.9758995605728
 10
1012.69
 20
1473.3588258510308
 10
1011.74
 20
1473.7535185519228
 10
1010.79
 20
1474.1599782677138
 10
1009.84
 20
1474.5782056208966
 10
1008.89
 20
1475.008201251977
 10
1007.94
 20
1475.4499658194936
 10
1006.99
 20
1475.9035
  0
LWPOLYLINE
  5
43F
330
17
100
AcDbEntity
  8
0
 62
10
100
AcDbPolyline
 90
101
 70
0
 43
0.3
 10
1196.99
 20
1490.9549
 10
1196.04
 20
1490.3507173081275
 10
1195.09
 20
1489.758314476091
 10
1194.14
 20
1489.1776905966358
 10
1193.19
 20
1488.6088447805396
 10
1192.24
 20
1488.051776156623
 10
1191.29
 20
1487.5064838717421
 10
1190.34
 20
1486.9729670907886
 10
1189.39
 20
1486.4512249966833
 10
1188.44
 20
1485.9412567903878
 10
1187.49
 20
1485.4430616908908
 10
1186.54
 20
1484.95663893521
 10
1185.59
 20
1484.4819877783973
 10
1184.64
 20
1484.019107493528
 10
1183.69
 20
1483.567997371705
 10
1182.74
 20
1483.1286567220595
 10
1181.79
 20
1482.7010848717475
 10
1180.84
 20
1482.2852811659445
 10
1179.89
 20
1481.8812449678535
 10
1178.94
 20
1481.4889756586979
 10
1177.99
 20
1481.1084726377198
 10
1177.04
 20
1480.739735322185
 10
1176.09
 20
1480.3827631473766
 10
1175.14
 20
1480.0375555665923
 10
1174.19
 20
1479.7041120511544
 10
1173.24
 20
1479.3824320903946
 10
1172.29
 20
1479.0725151916674
 10
1171.34
 20
1478.7743608803353
 10
1170.39
 20
1478.4879686997776
 10
1169.44
 20
1478.2133382113914
 10
1168.49
 20
1477.9504689945813
 10
1167.54
 20
1477.699360646766
 10
1166.59
 20
1477.4600127833744
 10
1165.64
 20
1477.2324250378501
 10
1164.69
 20
1477.0165970616445
 10
1163.74
 20
1476.8125285242195
 10
1162.79
 20
1476.620219113045
 10
1161.84
 20
1476.4396685336023
 10
1160.89
 20
1476.2708765093807
 10
1159.94
 20
1476.1138427818769
 10
1158.99
 20
1475.968567110594
 10
1158.04
 20
1475.8350492730453
 10
1157.09
 20
1475.713289064751
 10
1156.14
 20
1475.6032862992329
 10
1155.19
 20
1475.505040808026
 10
1154.24
 20
1475.4185524406678
 10
1153.29
 20
1475.343821064703
 10
1152.34
 20
1475.2808465656792
 10
1151.39
 20
1475.2296288471532
 10
1150.44
 20
1475.1901678306858
 10
1149.49
 20
1475.1624634558425
 10
1148.54
 20
1475.1465156801937
 10
1147.59
 20
1475.1423244793154
 10
1146.64
 20
1475.1498898467917
 10
1145.69
 20
1475.1692117942046
 10
1144.74
 20
1475.2002903511484
 10
1143.79
 20
1475.243125565219
 10
1142.84
 20
1475.2977175020176
 10
1141.89
 20
1475.3640662451514
 10
1140.94
 20
1475.4421718962335
 10
1139.99
 20
1475.532034574881
 10
1139.04
 20
1475.6336544187172
 10
1138.09
 20
1475.7470315833716
 10
1137.14
 20
1475.8721662424819
 10
1136.19
 20
1476.0090585876878
 10
1135.24
 20
1476.1577088286408
 10
1134.29
 20
1476.3181171929957
 10
1133.34
 20
1476.4902839264175
 10
1132.39
 20
1476.6742092925763
 10
1131.44
 20
1476.869893573152
 10
1130.49
 20
1477.0773370678335
 10
1129.54
 20
1477.2965400943178
 10
1128.59
 20
1477.527502988312
 10
1127.64
 20
1477.7702261035338
 10
1126.69
 20
1478.0247098117088
 10
1125.74
 20
1478.2909545025782
 10
1124.79
 20
1478.5689605838932
 10
1123.84
 20
1478.8587284814153
 10
1122.89
 20
1479.160258638921
 10
1121.94
 20
1479.4735515182012
 10
1120.99
 20
1479.798607599061
 10
1120.04
 20
1480.1354273793177
 10
1119.09
 20
1480.4840113748107
 10
1118.14
 20
1480.8443601193885
 10
1117.19
 20
1481.2164741649244
 10
1116.24
 20
1481.600354081307
 10
1115.29
 20
1481.9960004564418
 10
1114.34
 20
1482.4034138962586
 10
1113.39
 20
1482.8225950247054
 10
1112.44
 20
1483.2535444837545
 10
1111.49
 20
1483.6962629333993
 10
1110.54
 20
1484.15075105166
 10
1109.59
 20
1484.6170095345783
 10
1108.64
 20
1485.0950390962244
 10
1107.69
 20
1485.584840468696
 10
1106.74
 20
1486.0864144021166
 10
1105.79
 20
1486.5997616646437
 10
1104.84
 20
1487.124883042461
 10
1103.89
 20
1487.6617793397863
 10
1102.94
 20
1488.2104513788715
 10
1101.99
 20
1488.7709000000016
  0
LWPOLYLINE
  5
440
330
17
100
AcDbEntity
  8
0
 62
10
100
AcDbPolyline
 90
101
 70
0
 43
0.3
 10
1291.99
 20
1491.0141
 10
1291.04
 20
1490.4311931463906
 10
1290.09
 20
1489.8600645270833
 10
1289.14
 20
1489.3007132674009
 10
1288.19
 20
1488.753138510705
 10
1287.24
 20
1488.217339418392
 10
1286.29
 20
1487.6933151698877
 10
1285.34
 20
1487.181064962658
 10
1284.39
 20
1486.6805880121954
 10
1283.44
 20
1486.1918835520255
 10
1282.49
 20
1485.7149508337036
 10
1281.54
 20
1485.2497891268126
 10
1280.59
 20
1484.796397718961
 10
1279.64
 20
1484.3547759157864
 10
1278.69
 20
1483.9249230409478
 10
1277.74
 20
1483.5068384361336
 10
1276.79
 20
1483.1005214610475
 10
1275.84
 20
1482.7059714934237
 10
1274.89
 20
1482.3231879290115
 10
1273.94
 20
1481.9521701815827
 10
1272.99
 20
1481.5929176829272
 10
1272.04
 20
1481.2454298828527
 10
1271.09
 20
1480.9097062491862
 10
1270.14
 20
1480.585746267773
 10
1269.19
 20
1480.273549442469
 10
1268.24
 20
1479.9731152951476
 10
1267.29
 20
1479.6844433657013
 10
1266.34
 20
1479.4075332120287
 10
1265.39
 20
1479.1423844100457
 10
1264.44
 20
1478.8889965536816
 10
1263.49
 20
1478.6473692548725
 10
1262.54
 20
1478.4175021435717
 10
1261.59
 20
1478.199394867739
 10
1260.64
 20
1477.9930470933446
 10
1259.69
 20
1477.7984585043716
 10
1258.74
 20
1477.6156288028076
 10
1257.79
 20
1477.4445577086526
 10
1256.84
 20
1477.2852449599104
 10
1255.89
 20
1477.1376903125988
 10
1254.94
 20
1477.0018935407384
 10
1253.99
 20
1476.8778544363565
 10
1253.04
 20
1476.7655728094894
 10
1252.09
 20
1476.6650484881777
 10
1251.14
 20
1476.5762813184729
 10
1250.19
 20
1476.499271164426
 10
1249.24
 20
1476.4340179080982
 10
1248.29
 20
1476.380521449554
 10
1247.34
 20
1476.338781706865
 10
1246.39
 20
1476.3087986161072
 10
1245.44
 20
1476.2905721313623
 10
1244.49
 20
1476.2841022247133
 10
1243.54
 20
1476.2893888862568
 10
1242.59
 20
1476.306432124086
 10
1241.64
 20
1476.3352319643025
 10
1240.69
 20
1476.375788451013
 10
1239.74
 20
1476.4281016463308
 10
1238.79
 20
1476.4921716303725
 10
1237.84
 20
1476.5679985012584
 10
1236.89
 20
1476.655582375119
 10
1235.94
 20
1476.7549233860873
 10
1234.99
 20
1476.8660216863038
 10
1234.04
 20
1476.9888774459123
 10
1233.09
 20
1477.1234908530666
 10
1232.14
 20
1477.269862113924
 10
1231.19
 20
1477.4279914526533
 10
1230.24
 20
1477.5978791114253
 10
1229.29
 20
1477.7795253504223
 10
1228.34
 20
1477.9729304478337
 10
1227.39
 20
1478.1780946998558
 10
1226.44
 20
1478.3950184206963
 10
1225.49
 20
1478.623701942573
 10
1224.54
 20
1478.864145615709
 10
1223.59
 20
1479.1163498083433
 10
1222.64
 20
1479.3803149067237
 10
1221.69
 20
1479.6560413151094
 10
1220.74
 20
1479.9435294557723
 10
1219.79
 20
1480.2427797689966
 10
1218.84
 20
1480.5537927130833
 10
1217.89
 20
1480.8765687643422
 10
1216.94
 20
1481.2111084171029
 10
1215.99
 20
1481.5574121837092
 10
1215.04
 20
1481.9154805945216
 10
1214.09
 20
1482.2853141979188
 10
1213.14
 20
1482.666913560294
 10
1212.19
 20
1483.0602792660652
 10
1211.24
 20
1483.465411917666
 10
1210.29
 20
1483.8823121355517
 10
1209.34
 20
1484.3109805582037
 10
1208.39
 20
1484.75141784212
 10
1207.44
 20
1485.2036246618272
 10
1206.49
 20
1485.6676017098732
 10
1205.54
 20
1486.143349696836
 10
1204.59
 20
1486.6308693513165
 10
1203.64
 20
1487.130161419948
 10
1202.69
 20
1487.6412266673879
 10
1201.74
 20
1488.1640658763283
 10
1200.79
 20
1488.6986798474916
 10
1199.84
 20
1489.2450693996325
 10
1198.89
 20
1489.8032353695417
 10
1197.94
 20
1490.3731786120438
 10
1196.99
 20
1490.9549000000006
  0
LWPOLYLINE
  5
441
330
17
100
AcDbEntity
  8
0
 62
10
100
AcDbPolyline
 90
101
 70
0
 43
0.3
 10
1386.99
 20
1497.0664
 10
1386.04
 20
1496.4234761577477
 10
1385.09
 20
1495.792335285779
 10
1384.14
 20
1495.172976417508
 10
1383.19
 20
1494.5653986043942
 10
1382.24
 20
1493.9696009159384
 10
1381.29
 20
1493.385582439684
 10
1380.34
 20
1492.8133422812116
 10
1379.39
 20
1492.2528795641429
 10
1378.44
 20
1491.7041934301349
 10
1377.49
 20
1491.1672830388807
 10
1376.54
 20
1490.642147568109
 10
1375.59
 20
1490.1287862135791
 10
1374.64
 20
1489.6271981890864
 10
1373.69
 20
1489.1373827264508
 10
1372.74
 20
1488.6593390755293
 10
1371.79
 20
1488.1930665041998
 10
1370.84
 20
1487.7385642983713
 10
1369.89
 20
1487.2958317619818
 10
1368.94
 20
1486.8648682169878
 10
1367.99
 20
1486.445673003375
 10
1367.04
 20
1486.0382454791506
 10
1366.09
 20
1485.6425850203448
 10
1365.14
 20
1485.258691021007
 10
1364.19
 20
1484.8865628932065
 10
1363.24
 20
1484.5262000670336
 10
1362.29
 20
1484.1776019906
 10
1361.34
 20
1483.8407681300266
 10
1360.39
 20
1483.5156979694589
 10
1359.44
 20
1483.2023910110554
 10
1358.49
 20
1482.9008467749904
 10
1357.54
 20
1482.611064799451
 10
1356.59
 20
1482.333044640639
 10
1355.64
 20
1482.0667858727716
 10
1354.69
 20
1481.8122880880744
 10
1353.74
 20
1481.5695508967872
 10
1352.79
 20
1481.338573927162
 10
1351.84
 20
1481.1193568254596
 10
1350.89
 20
1480.9118992559502
 10
1349.94
 20
1480.7162009009162
 10
1348.99
 20
1480.5322614606473
 10
1348.04
 20
1480.3600806534423
 10
1347.09
 20
1480.1996582156078
 10
1346.14
 20
1480.050993901458
 10
1345.19
 20
1479.9140874833179
 10
1344.24
 20
1479.7889387515136
 10
1343.29
 20
1479.6755475143837
 10
1342.34
 20
1479.5739135982694
 10
1341.39
 20
1479.4840368475195
 10
1340.44
 20
1479.4059171244903
 10
1339.49
 20
1479.3395543095403
 10
1338.54
 20
1479.2849483010348
 10
1337.59
 20
1479.2420990153491
 10
1336.64
 20
1479.2110063868568
 10
1335.69
 20
1479.1916703679399
 10
1334.74
 20
1479.1840909289886
 10
1333.79
 20
1479.1882680583901
 10
1332.84
 20
1479.2042017625465
 10
1331.89
 20
1479.2318920658568
 10
1330.94
 20
1479.27133901073
 10
1329.99
 20
1479.3225426575796
 10
1329.04
 20
1479.3855030848197
 10
1328.09
 20
1479.460220388878
 10
1327.14
 20
1479.54669468418
 10
1326.19
 20
1479.6449261031617
 10
1325.24
 20
1479.754914796262
 10
1324.29
 20
1479.8766609319289
 10
1323.34
 20
1480.010164696615
 10
1322.39
 20
1480.1554262947777
 10
1321.44
 20
1480.3124459488872
 10
1320.49
 20
1480.4812238994161
 10
1319.54
 20
1480.661760404844
 10
1318.59
 20
1480.8540557416627
 10
1317.64
 20
1481.0581102043686
 10
1316.69
 20
1481.273924105472
 10
1315.74
 20
1481.5014977754847
 10
1314.79
 20
1481.740831562937
 10
1313.84
 20
1481.9919258343664
 10
1312.89
 20
1482.2547809743185
 10
1311.94
 20
1482.5293973853522
 10
1310.99
 20
1482.8157754880444
 10
1310.04
 20
1483.113915720974
 10
1309.09
 20
1483.423818540745
 10
1308.14
 20
1483.7454844219656
 10
1307.19
 20
1484.0789138572675
 10
1306.24
 20
1484.4241073572903
 10
1305.29
 20
1484.7810654506966
 10
1304.34
 20
1485.1497886841642
 10
1303.39
 20
1485.5302776223864
 10
1302.44
 20
1485.9225328480788
 10
1301.49
 20
1486.3265549619755
 10
1300.54
 20
1486.742344582834
 10
1299.59
 20
1487.1699023474296
 10
1298.64
 20
1487.6092289105623
 10
1297.69
 20
1488.0603249450562
 10
1296.74
 20
1488.5231911417595
 10
1295.79
 20
1488.9978282095474
 10
1294.84
 20
1489.4842368753218
 10
1293.89
 20
1489.9824178840106
 10
1292.94
 20
1490.4923719985743
 10
1291.99
 20
1491.0141000000017
  0
LWPOLYLINE
  5
442
330
17
100
AcDbEntity
  8
0
 62
10
100
AcDbPolyline
 90
101
 70
0
 43
0.3
 10
1481.99
 20
1510.7179
 10
1481.04
 20
1509.99884184744
 10
1480.09
 20
1509.291573343433
 10
1479.14
 20
1508.5960934048053
 10
1478.19
 20
1507.9124009664372
 10
1477.24
 20
1507.240494981261
 10
1476.29
 20
1506.5803744202601
 10
1475.34
 20
1505.9320382724673
 10
1474.39
 20
1505.2954855449632
 10
1473.44
 20
1504.6707152628724
 10
1472.49
 20
1504.057726469369
 10
1471.54
 20
1503.4565182256665
 10
1470.59
 20
1502.8670896110223
 10
1469.64
 20
1502.2894397227296
 10
1468.69
 20
1501.7235676761259
 10
1467.74
 20
1501.169472604586
 10
1466.79
 20
1500.627153659517
 10
1465.84
 20
1500.096610010364
 10
1464.89
 20
1499.5778408446054
 10
1463.94
 20
1499.0708453677523
 10
1462.99
 20
1498.5756228033476
 10
1462.04
 20
1498.092172392961
 10
1461.09
 20
1497.620493396196
 10
1460.14
 20
1497.16058509068
 10
1459.19
 20
1496.712446772068
 10
1458.24
 20
1496.2760777540432
 10
1457.29
 20
1495.8514773683085
 10
1456.34
 20
1495.4386449645958
 10
1455.39
 20
1495.037579910656
 10
1454.44
 20
1494.6482815922618
 10
1453.49
 20
1494.2707494132067
 10
1452.54
 20
1493.9049827953056
 10
1451.59
 20
1493.5509811783909
 10
1450.64
 20
1493.2087440203118
 10
1449.69
 20
1492.878270796938
 10
1448.74
 20
1492.559561002151
 10
1447.79
 20
1492.2526141478506
 10
1446.84
 20
1491.9574297639529
 10
1445.89
 20
1491.6740073983847
 10
1444.94
 20
1491.4023466170886
 10
1443.99
 20
1491.1424470040192
 10
1443.04
 20
1490.894308161141
 10
1442.09
 20
1490.6579297084354
 10
1441.14
 20
1490.4333112838895
 10
1440.19
 20
1490.2204525435031
 10
1439.24
 20
1490.019353161285
 10
1438.29
 20
1489.8300128292535
 10
1437.34
 20
1489.6524312574365
 10
1436.39
 20
1489.4866081738714
 10
1435.44
 20
1489.3325433245984
 10
1434.49
 20
1489.1902364736723
 10
1433.54
 20
1489.0596874031487
 10
1432.59
 20
1488.9408959130956
 10
1431.64
 20
1488.8338618215842
 10
1430.69
 20
1488.738584964694
 10
1429.74
 20
1488.6550651965078
 10
1428.79
 20
1488.5833023891157
 10
1427.84
 20
1488.5232964326156
 10
1426.89
 20
1488.4750472351088
 10
1425.94
 20
1488.4385547227005
 10
1424.99
 20
1488.4138188395054
 10
1424.04
 20
1488.4008395476387
 10
1423.09
 20
1488.3996168272236
 10
1422.14
 20
1488.4101506763866
 10
1421.19
 20
1488.4324411112616
 10
1420.24
 20
1488.466488165985
 10
1419.29
 20
1488.5122918926988
 10
1418.34
 20
1488.5698523615536
 10
1417.39
 20
1488.6391696607009
 10
1416.44
 20
1488.7202438962995
 10
1415.49
 20
1488.8130751925132
 10
1414.54
 20
1488.9176636915124
 10
1413.59
 20
1489.0340095534746
 10
1412.64
 20
1489.16211295658
 10
1411.69
 20
1489.3019740970192
 10
1410.74
 20
1489.4535931889868
 10
1409.79
 20
1489.6169704646868
 10
1408.84
 20
1489.7921061743302
 10
1407.89
 20
1489.9790005861328
 10
1406.94
 20
1490.1776539863226
 10
1405.99
 20
1490.3880666791379
 10
1405.04
 20
1490.6102389868197
 10
1404.09
 20
1490.8441712496233
 10
1403.14
 20
1491.0898638258134
 10
1402.19
 20
1491.3473170916673
 10
1401.24
 20
1491.6165314414686
 10
1400.29
 20
1491.8975072875196
 10
1399.34
 20
1492.1902450601297
 10
1398.39
 20
1492.494745207623
 10
1397.44
 20
1492.8110081963396
 10
1396.49
 20
1493.1390345106306
 10
1395.54
 20
1493.4788246528683
 10
1394.59
 20
1493.8303791434346
 10
1393.64
 20
1494.1936985207321
 10
1392.69
 20
1494.5687833411803
 10
1391.74
 20
1494.955634179217
 10
1390.79
 20
1495.3542516273028
 10
1389.84
 20
1495.7646362959115
 10
1388.89
 20
1496.1867888135457
 10
1387.94
 20
1496.6207098267266
 10
1386.99
 20
1497.0663999999997
  0
LWPOLYLINE
  5
443
330
17
100
AcDbEntity
  8
0
 62
10
100
AcDbPolyline
 90
101
 70
0
 43
0.3
 10
1576.99
 20
1519.9338
 10
1576.04
 20
1519.259185433522
 10
1575.09
 20
1518.5963565261027
 10
1574.14
 20
1517.9453122626267
 10
1573.19
 20
1517.306051646027
 10
1572.24
 20
1516.6785736972831
 10
1571.29
 20
1516.0628774554202
 10
1570.34
 20
1515.458961977506
 10
1569.39
 20
1514.8668263386494
 10
1568.44
 20
1514.286469632003
 10
1567.49
 20
1513.7178909687557
 10
1566.54
 20
1513.1610894781368
 10
1565.59
 20
1512.6160643074084
 10
1564.64
 20
1512.0828146218741
 10
1563.69
 20
1511.5613396048645
 10
1562.74
 20
1511.05163845775
 10
1561.79
 20
1510.553710399925
 10
1560.84
 20
1510.0675546688196
 10
1559.89
 20
1509.5931705198932
 10
1558.94
 20
1509.130557226632
 10
1557.99
 20
1508.6797140805459
 10
1557.04
 20
1508.2406403911739
 10
1556.09
 20
1507.8133354860825
 10
1555.14
 20
1507.3977987108563
 10
1554.19
 20
1506.9940294291077
 10
1553.24
 20
1506.6020270224656
 10
1552.29
 20
1506.2217908905843
 10
1551.34
 20
1505.853320451136
 10
1550.39
 20
1505.4966151398137
 10
1549.44
 20
1505.1516744103249
 10
1548.49
 20
1504.818497734397
 10
1547.54
 20
1504.4970846017766
 10
1546.59
 20
1504.1874345202182
 10
1545.64
 20
1503.8895470155003
 10
1544.69
 20
1503.60342163141
 10
1543.74
 20
1503.3290579297477
 10
1542.79
 20
1503.066455490331
 10
1541.84
 20
1502.815613910986
 10
1540.89
 20
1502.576532807552
 10
1539.94
 20
1502.3492118138788
 10
1538.99
 20
1502.1336505818279
 10
1538.04
 20
1501.929848781266
 10
1537.09
 20
1501.7378061000766
 10
1536.14
 20
1501.5575222441485
 10
1535.19
 20
1501.388996937375
 10
1534.24
 20
1501.2322299216653
 10
1533.29
 20
1501.0872209569318
 10
1532.34
 20
1500.9539698210951
 10
1531.39
 20
1500.832476310081
 10
1530.44
 20
1500.7227402378235
 10
1529.49
 20
1500.624761436264
 10
1528.54
 20
1500.5385397553498
 10
1527.59
 20
1500.4640750630324
 10
1526.64
 20
1500.4013672452693
 10
1525.69
 20
1500.3504162060253
 10
1524.74
 20
1500.3112218672698
 10
1523.79
 20
1500.283784168976
 10
1522.84
 20
1500.2681030691233
 10
1521.89
 20
1500.2641785436967
 10
1520.94
 20
1500.272010586686
 10
1519.99
 20
1500.2915992100843
 10
1519.04
 20
1500.3229444438948
 10
1518.09
 20
1500.3660463361189
 10
1517.14
 20
1500.4209049527685
 10
1516.19
 20
1500.4875203778604
 10
1515.24
 20
1500.5658927134111
 10
1514.29
 20
1500.6560220794508
 10
1513.34
 20
1500.7579086140097
 10
1512.39
 20
1500.8715524731265
 10
1511.44
 20
1500.9969538308449
 10
1510.49
 20
1501.1341128792183
 10
1509.54
 20
1501.2830298283006
 10
1508.59
 20
1501.4437049061578
 10
1507.64
 20
1501.616138358862
 10
1506.69
 20
1501.8003304504955
 10
1505.74
 20
1501.9962814631429
 10
1504.79
 20
1502.2039916969031
 10
1503.84
 20
1502.423461469881
 10
1502.89
 20
1502.6546911181927
 10
1501.94
 20
1502.897680995963
 10
1500.99
 20
1503.1524314753285
 10
1500.04
 20
1503.4189429464395
 10
1499.09
 20
1503.6972158174513
 10
1498.14
 20
1503.9872505145377
 10
1497.19
 20
1504.289047481883
 10
1496.24
 20
1504.6026071816864
 10
1495.29
 20
1504.9279300941625
 10
1494.34
 20
1505.2650167175364
 10
1493.39
 20
1505.613867568056
 10
1492.44
 20
1505.9744831799794
 10
1491.49
 20
1506.3468641055883
 10
1490.54
 20
1506.7310109151774
 10
1489.59
 20
1507.126924197065
 10
1488.64
 20
1507.5346045575875
 10
1487.69
 20
1507.9540526211028
 10
1486.74
 20
1508.3852690299916
 10
1485.79
 20
1508.8282544446556
 10
1484.84
 20
1509.2830095435231
 10
1483.89
 20
1509.7495350230452
 10
1482.94
 20
1510.227831597703
 10
1481.99
 20
1510.7179000000003
  0
LWPOLYLINE
  5
444
330
17
100
AcDbEntity
  8
0
 62
10
100
AcDbPolyline
 90
101
 70
0
 43
0.3
 10
1576.99
 20
1519.9338
 10
1577.94
 20
1519.3499820137745
 10
1578.89
 20
1518.7779423302663
 10
1579.84
 20
1518.2176800733987
 10
1580.79
 20
1517.669194385139
 10
1581.74
 20
1517.1324844254855
 10
1582.69
 20
1516.6075493724736
 10
1583.64
 20
1516.094388422173
 10
1584.59
 20
1515.5930007886805
 10
1585.54
 20
1515.1033857041268
 10
1586.49
 20
1514.6255424186731
 10
1587.44
 20
1514.1594702005082
 10
1588.39
 20
1513.705168335846
 10
1589.34
 20
1513.262636128928
 10
1590.29
 20
1512.831872902023
 10
1591.24
 20
1512.4128779954208
 10
1592.19
 20
1512.0056507674346
 10
1593.14
 20
1511.610190594401
 10
1594.09
 20
1511.2264968706781
 10
1595.04
 20
1510.8545690086419
 10
1595.99
 20
1510.4944064386898
 10
1596.94
 20
1510.1460086092347
 10
1597.89
 20
1509.8093749867135
 10
1598.84
 20
1509.4845050555712
 10
1599.79
 20
1509.171398318275
 10
1600.74
 20
1508.8700542953056
 10
1601.69
 20
1508.580472525156
 10
1602.64
 20
1508.3026525643372
 10
1603.59
 20
1508.0365939873711
 10
1604.54
 20
1507.782296386791
 10
1605.49
 20
1507.5397593731436
 10
1606.44
 20
1507.3089825749844
 10
1607.39
 20
1507.0899656388824
 10
1608.34
 20
1506.8827082294167
 10
1609.29
 20
1506.6872100291732
 10
1610.24
 20
1506.5034707387479
 10
1611.19
 20
1506.3314900767489
 10
1612.14
 20
1506.1712677797886
 10
1613.09
 20
1506.0228036024873
 10
1614.04
 20
1505.8860973174747
 10
1614.99
 20
1505.7611487153854
 10
1615.94
 20
1505.647957604863
 10
1616.89
 20
1505.5465238125576
 10
1617.84
 20
1505.4568471831224
 10
1618.79
 20
1505.3789275792194
 10
1619.74
 20
1505.3127648815175
 10
1620.69
 20
1505.258358988685
 10
1621.64
 20
1505.215709817404
 10
1622.59
 20
1505.1848173023568
 10
1623.54
 20
1505.1656813962302
 10
1624.49
 20
1505.1583020697185
 10
1625.44
 20
1505.1626793115202
 10
1626.39
 20
1505.178813128341
 10
1627.34
 20
1505.2067035448868
 10
1628.29
 20
1505.2463506038746
 10
1629.24
 20
1505.2977543660188
 10
1630.19
 20
1505.3609149100485
 10
1631.14
 20
1505.435832332691
 10
1632.09
 20
1505.5225067486824
 10
1633.04
 20
1505.6209382907618
 10
1633.99
 20
1505.731127109679
 10
1634.94
 20
1505.853073374183
 10
1635.89
 20
1505.9867772710368
 10
1636.84
 20
1506.1322390050047
 10
1637.79
 20
1506.2894587988603
 10
1638.74
 20
1506.4584368933847
 10
1639.69
 20
1506.6391735473628
 10
1640.64
 20
1506.8316690375946
 10
1641.59
 20
1507.0359236588836
 10
1642.54
 20
1507.251937724043
 10
1643.49
 20
1507.4797115638955
 10
1644.44
 20
1507.7192455272746
 10
1645.39
 20
1507.9705399810243
 10
1646.34
 20
1508.233595309999
 10
1647.29
 20
1508.5084119170663
 10
1648.24
 20
1508.7949902231026
 10
1649.19
 20
1509.093330667001
 10
1650.14
 20
1509.4034337056648
 10
1651.09
 20
1509.7252998140164
 10
1652.04
 20
1510.0589294849874
 10
1652.99
 20
1510.4043232295292
 10
1653.94
 20
1510.7614815766078
 10
1654.89
 20
1511.1304050732078
 10
1655.84
 20
1511.5110942843316
 10
1656.79
 20
1511.9035497930008
 10
1657.74
 20
1512.307772200255
 10
1658.69
 20
1512.7237621251584
 10
1659.64
 20
1513.151520204795
 10
1660.59
 20
1513.5910470942695
 10
1661.54
 20
1514.0423434667134
 10
1662.49
 20
1514.5054100132832
 10
1663.44
 20
1514.9802474431588
 10
1664.39
 20
1515.4668564835476
 10
1665.34
 20
1515.9652378796898
 10
1666.29
 20
1516.475392394847
 10
1667.24
 20
1516.9973208103183
 10
1668.19
 20
1517.5310239254286
 10
1669.14
 20
1518.0765025575388
 10
1670.09
 20
1518.6337575420462
 10
1671.04
 20
1519.2027897323762
 10
1671.99
 20
1519.7836000000002
  0
LWPOLYLINE
  5
445
330
17
100
AcDbEntity
  8
0
 62
10
100
AcDbPolyline
 90
101
 70
0
 43
0.3
 10
1671.99
 20
1519.7836
 10
1672.94
 20
1519.1969855041998
 10
1673.89
 20
1518.622149521759
 10
1674.84
 20
1518.0590911723236
 10
1675.79
 20
1517.5078095935762
 10
1676.74
 20
1516.9683039412332
 10
1677.69
 20
1516.440573389048
 10
1678.64
 20
1515.9246171288087
 10
1679.59
 20
1515.4204343703332
 10
1680.54
 20
1514.9280243414694
 10
1681.49
 20
1514.4473862880998
 10
1682.44
 20
1513.9785194741314
 10
1683.39
 20
1513.5214231814998
 10
1684.34
 20
1513.0760967101664
 10
1685.29
 20
1512.6425393781194
 10
1686.24
 20
1512.2207505213694
 10
1687.19
 20
1511.8107294939523
 10
1688.14
 20
1511.4124756679262
 10
1689.09
 20
1511.0259884333695
 10
1690.04
 20
1510.6512671983799
 10
1690.99
 20
1510.2883113890775
 10
1691.94
 20
1509.9371204495974
 10
1692.89
 20
1509.5976938420977
 10
1693.84
 20
1509.270031046747
 10
1694.79
 20
1508.9541315617355
 10
1695.74
 20
1508.6499949032677
 10
1696.69
 20
1508.357620605558
 10
1697.64
 20
1508.0770082208405
 10
1698.59
 20
1507.8081573193622
 10
1699.54
 20
1507.5510674893778
 10
1700.49
 20
1507.305738337158
 10
1701.44
 20
1507.0721694869844
 10
1702.39
 20
1506.8503605811495
 10
1703.34
 20
1506.6403112799542
 10
1704.29
 20
1506.4420212617108
 10
1705.24
 20
1506.2554902227403
 10
1706.19
 20
1506.0807178773725
 10
1707.14
 20
1505.9177039579454
 10
1708.09
 20
1505.7664482148052
 10
1709.04
 20
1505.626950416305
 10
1709.99
 20
1505.4992103488064
 10
1710.94
 20
1505.3832278166747
 10
1711.89
 20
1505.2790026422863
 10
1712.84
 20
1505.1865346660215
 10
1713.79
 20
1505.1058237462657
 10
1714.74
 20
1505.0368697594108
 10
1715.69
 20
1504.9796725998535
 10
1716.64
 20
1504.9342321799995
 10
1717.59
 20
1504.9005484302556
 10
1718.54
 20
1504.8786212990362
 10
1719.49
 20
1504.8684507527614
 10
1720.44
 20
1504.8700367758518
 10
1721.39
 20
1504.883379370738
 10
1722.34
 20
1504.908478557856
 10
1723.29
 20
1504.9453343756413
 10
1724.24
 20
1504.9939468805414
 10
1725.19
 20
1505.0543161470036
 10
1726.14
 20
1505.1264422674858
 10
1727.09
 20
1505.2103253524435
 10
1728.04
 20
1505.3059655303464
 10
1728.99
 20
1505.4133629476653
 10
1729.94
 20
1505.5325177688799
 10
1730.89
 20
1505.6634301764711
 10
1731.84
 20
1505.806100370932
 10
1732.79
 20
1505.9605285707607
 10
1733.74
 20
1506.1267150124602
 10
1734.69
 20
1506.3046599505453
 10
1735.64
 20
1506.494363657536
 10
1736.59
 20
1506.695826423961
 10
1737.54
 20
1506.9090485583604
 10
1738.49
 20
1507.1340303872778
 10
1739.44
 20
1507.370772255274
 10
1740.39
 20
1507.6192745249143
 10
1741.34
 20
1507.8795375767766
 10
1742.29
 20
1508.1515618094536
 10
1743.24
 20
1508.4353476395465
 10
1744.19
 20
1508.7308955016683
 10
1745.14
 20
1509.0382058484493
 10
1746.09
 20
1509.3572791505312
 10
1747.04
 20
1509.6881158965698
 10
1747.99
 20
1510.0307165932406
 10
1748.94
 20
1510.385081765232
 10
1749.89
 20
1510.7512119552498
 10
1750.84
 20
1511.1291077240178
 10
1751.79
 20
1511.5187696502815
 10
1752.74
 20
1511.9201983307996
 10
1753.69
 20
1512.3333943803589
 10
1754.64
 20
1512.7583584317658
 10
1755.59
 20
1513.195091135844
 10
1756.54
 20
1513.6435931614478
 10
1757.49
 20
1514.1038651954534
 10
1758.44
 20
1514.5759079427594
 10
1759.39
 20
1515.0597221262963
 10
1760.34
 20
1515.5553084870207
 10
1761.29
 20
1516.062667783916
 10
1762.24
 20
1516.5818007939977
 10
1763.19
 20
1517.1127083123124
 10
1764.14
 20
1517.6553911519406
 10
1765.09
 20
1518.2098501439914
 10
1766.04
 20
1518.7760861376169
 10
1766.99
 20
1519.354099999999
  0
LWPOLYLINE
  5
446
330
17
100
AcDbEntity
  8
0
 62
10
100
AcDbPolyline
 90
101
 70
0
 43
0.3
 10
1766.99
 20
1519.3541
 10
1767.94
 20
1518.748025692415
 10
1768.89
 20
1518.153731392032
 10
1769.84
 20
1517.5712161886947
 10
1770.79
 20
1517.0004791902854
 10
1771.74
 20
1516.4415195227286
 10
1772.69
 20
1515.894336329984
 10
1773.64
 20
1515.3589287740458
 10
1774.59
 20
1514.8352960349425
 10
1775.54
 20
1514.3234373107393
 10
1776.49
 20
1513.8233518175273
 10
1777.44
 20
1513.3350387894316
 10
1778.39
 20
1512.8584974786065
 10
1779.34
 20
1512.3937271552345
 10
1780.29
 20
1511.9407271075258
 10
1781.24
 20
1511.4994966417144
 10
1782.19
 20
1511.0700350820614
 10
1783.14
 20
1510.6523417708502
 10
1784.09
 20
1510.2464160683908
 10
1785.04
 20
1509.852257353009
 10
1785.99
 20
1509.4698650210562
 10
1786.94
 20
1509.0992384869035
 10
1787.89
 20
1508.7403771829418
 10
1788.84
 20
1508.393280559576
 10
1789.79
 20
1508.0579480852339
 10
1790.74
 20
1507.7343792463553
 10
1791.69
 20
1507.4225735473995
 10
1792.64
 20
1507.1225305108385
 10
1793.59
 20
1506.8342496771627
 10
1794.54
 20
1506.5577306048692
 10
1795.49
 20
1506.292972870474
 10
1796.44
 20
1506.0399760685045
 10
1797.39
 20
1505.798739811497
 10
1798.34
 20
1505.569263730001
 10
1799.29
 20
1505.3515474725784
 10
1800.24
 20
1505.1455907057975
 10
1801.19
 20
1504.9513931142383
 10
1802.14
 20
1504.7689544004877
 10
1803.09
 20
1504.5982742851463
 10
1804.04
 20
1504.4393525068162
 10
1804.99
 20
1504.2921888221115
 10
1805.94
 20
1504.1567830056526
 10
1806.89
 20
1504.0331348500677
 10
1807.84
 20
1503.921244165992
 10
1808.79
 20
1503.8211107820619
 10
1809.74
 20
1503.7327345449282
 10
1810.69
 20
1503.6561153192422
 10
1811.64
 20
1503.5912529876634
 10
1812.59
 20
1503.5381474508547
 10
1813.54
 20
1503.4967986274858
 10
1814.49
 20
1503.4672064542312
 10
1815.44
 20
1503.4493708857724
 10
1816.39
 20
1503.4432918947923
 10
1817.34
 20
1503.448969471981
 10
1818.29
 20
1503.4664036260365
 10
1819.24
 20
1503.4955943836555
 10
1820.19
 20
1503.5365417895446
 10
1821.14
 20
1503.5892459064155
 10
1822.09
 20
1503.653706814983
 10
1823.04
 20
1503.7299246139692
 10
1823.99
 20
1503.8178994200991
 10
1824.94
 20
1503.9176313681062
 10
1825.89
 20
1504.0291206107293
 10
1826.84
 20
1504.15236731871
 10
1827.79
 20
1504.2873716808042
 10
1828.74
 20
1504.4341339037655
 10
1829.69
 20
1504.5926542123598
 10
1830.64
 20
1504.7629328493606
 10
1831.59
 20
1504.9449700755456
 10
1832.54
 20
1505.138766169706
 10
1833.49
 20
1505.3443214286342
 10
1834.44
 20
1505.561636167138
 10
1835.39
 20
1505.7907107180322
 10
1836.34
 20
1506.031545432143
 10
1837.29
 20
1506.2841406783043
 10
1838.24
 20
1506.5484968433657
 10
1839.19
 20
1506.824614332181
 10
1840.14
 20
1507.1124935676257
 10
1841.09
 20
1507.4121349905824
 10
1842.04
 20
1507.7235390599471
 10
1842.99
 20
1508.0467062526327
 10
1843.94
 20
1508.3816370635673
 10
1844.89
 20
1508.728332005691
 10
1845.84
 20
1509.086791609966
 10
1846.79
 20
1509.4570164253682
 10
1847.74
 20
1509.8390070188918
 10
1848.69
 20
1510.2327639755533
 10
1849.64
 20
1510.6382878983848
 10
1850.59
 20
1511.0555794084432
 10
1851.54
 20
1511.4846391448066
 10
1852.49
 20
1511.9254677645743
 10
1853.44
 20
1512.3780659428683
 10
1854.39
 20
1512.8424343728411
 10
1855.34
 20
1513.3185737656656
 10
1856.29
 20
1513.806484850545
 10
1857.24
 20
1514.3061683747105
 10
1858.19
 20
1514.8176251034213
 10
1859.14
 20
1515.3408558199658
 10
1860.09
 20
1515.8758613256684
 10
1861.04
 20
1516.422642439884
 10
1861.99
 20
1516.9811999999993
  0
LWPOLYLINE
  5
447
330
17
100
AcDbEntity
  8
0
 62
10
100
AcDbPolyline
 90
101
 70
0
 43
0.3
 10
1861.99
 20
1516.9812
 10
1862.94
 20
1516.3742695009344
 10
1863.89
 20
1515.779119075919
 10
1864.84
 20
1515.195747813491
 10
1865.79
 20
1514.6241548202213
 10
1866.74
 20
1514.0643392207235
 10
1867.69
 20
1513.516300157647
 10
1868.64
 20
1512.9800367916732
 10
1869.59
 20
1512.4555483015215
 10
1870.54
 20
1511.9428338839448
 10
1871.49
 20
1511.441892753725
 10
1872.44
 20
1510.952724143678
 10
1873.39
 20
1510.4753273046456
 10
1874.34
 20
1510.0097015055032
 10
1875.29
 20
1509.5558460331451
 10
1876.24
 20
1509.113760192501
 10
1877.19
 20
1508.6834433065196
 10
1878.14
 20
1508.2648947161736
 10
1879.09
 20
1507.8581137804638
 10
1880.04
 20
1507.463099876409
 10
1880.99
 20
1507.0798523990475
 10
1881.94
 20
1506.7083707614418
 10
1882.89
 20
1506.34865439467
 10
1883.84
 20
1506.0007027478332
 10
1884.79
 20
1505.6645152880467
 10
1885.74
 20
1505.340091500441
 10
1886.69
 20
1505.0274308881685
 10
1887.64
 20
1504.7265329723882
 10
1888.59
 20
1504.4373972922817
 10
1889.54
 20
1504.1600234050386
 10
1890.49
 20
1503.8944108858673
 10
1891.44
 20
1503.6405593279815
 10
1892.39
 20
1503.3984683426115
 10
1893.34
 20
1503.168137558998
 10
1894.29
 20
1502.9495666243934
 10
1895.24
 20
1502.7427552040554
 10
1896.19
 20
1502.5477029812564
 10
1897.14
 20
1502.3644096572782
 10
1898.09
 20
1502.192874951405
 10
1899.04
 20
1502.0330986009353
 10
1899.99
 20
1501.8850803611736
 10
1900.94
 20
1501.748820005432
 10
1901.89
 20
1501.6243173250284
 10
1902.84
 20
1501.5115721292884
 10
1903.79
 20
1501.4105842455438
 10
1904.74
 20
1501.321353519133
 10
1905.69
 20
1501.2438798134003
 10
1906.64
 20
1501.1781630096973
 10
1907.59
 20
1501.124203007376
 10
1908.54
 20
1501.0819997237977
 10
1909.49
 20
1501.0515530943323
 10
1910.44
 20
1501.0328630723475
 10
1911.39
 20
1501.0259296292204
 10
1912.34
 20
1501.0307527543318
 10
1913.29
 20
1501.0473324550712
 10
1914.24
 20
1501.075668756829
 10
1915.19
 20
1501.1157617029994
 10
1916.14
 20
1501.1676113549868
 10
1917.09
 20
1501.231217792199
 10
1918.04
 20
1501.306581112045
 10
1918.99
 20
1501.393701429948
 10
1919.94
 20
1501.4925788793269
 10
1920.89
 20
1501.603213611615
 10
1921.84
 20
1501.725605796245
 10
1922.79
 20
1501.8597556206637
 10
1923.74
 20
1502.0056632903152
 10
1924.69
 20
1502.1633290286582
 10
1925.64
 20
1502.332753077154
 10
1926.59
 20
1502.5139356952761
 10
1927.54
 20
1502.7068771605032
 10
1928.49
 20
1502.9115777683219
 10
1929.44
 20
1503.1280378322297
 10
1930.39
 20
1503.3562576837335
 10
1931.34
 20
1503.5962376723473
 10
1932.29
 20
1503.8479781655988
 10
1933.24
 20
1504.1114795490275
 10
1934.19
 20
1504.3867422261812
 10
1935.14
 20
1504.6737666186198
 10
1936.09
 20
1504.9725531659215
 10
1937.04
 20
1505.283102325673
 10
1937.99
 20
1505.605414573477
 10
1938.94
 20
1505.9394904029525
 10
1939.89
 20
1506.2853303257302
 10
1940.84
 20
1506.6429348714616
 10
1941.79
 20
1507.0123045878136
 10
1942.74
 20
1507.3934400404728
 10
1943.69
 20
1507.7863418131437
 10
1944.64
 20
1508.1910105075503
 10
1945.59
 20
1508.6074467434394
 10
1946.54
 20
1509.0356511585776
 10
1947.49
 20
1509.475624408754
 10
1948.44
 20
1509.9273671677865
 10
1949.39
 20
1510.39088012751
 10
1950.34
 20
1510.8661639977915
 10
1951.29
 20
1511.3532195065238
 10
1952.24
 20
1511.852047399625
 10
1953.19
 20
1512.3626484410456
 10
1954.14
 20
1512.8850234127651
 10
1955.09
 20
1513.4191731147953
 10
1956.04
 20
1513.9650983651816
 10
1956.99
 20
1514.5228000000004
  0
LWPOLYLINE
  5
448
330
17
100
AcDbEntity
  8
0
 62
10
100
AcDbPolyline
 90
101
 70
0
 43
0.3
 10
1956.99
 20
1514.5228
 10
1957.94
 20
1513.8951953025557
 10
1958.89
 20
1513.279372322235
 10
1959.84
 20
1512.67533011591
 10
1960.79
 20
1512.0830677584977
 10
1961.74
 20
1511.502584342954
 10
1962.69
 20
1510.9338789802744
 10
1963.64
 20
1510.3769507994944
 10
1964.59
 20
1509.8317989476845
 10
1965.54
 20
1509.29842258995
 10
1966.49
 20
1508.776820909431
 10
1967.44
 20
1508.2669931073012
 10
1968.3899999999999
 20
1507.7689384027638
 10
1969.34
 20
1507.2826560330543
 10
1970.29
 20
1506.8081452534361
 10
1971.24
 20
1506.3454053372013
 10
1972.19
 20
1505.8944355756691
 10
1973.1399999999999
 20
1505.4552352781839
 10
1974.09
 20
1505.0278037721143
 10
1975.04
 20
1504.6121404028563
 10
1975.99
 20
1504.2082445338237
 10
1976.94
 20
1503.8161155464568
 10
1977.8899999999999
 20
1503.4357528402122
 10
1978.84
 20
1503.0671558325691
 10
1979.79
 20
1502.710323959025
 10
1980.74
 20
1502.3652566730975
 10
1981.69
 20
1502.0319534463188
 10
1982.6399999999999
 20
1501.710413768237
 10
1983.59
 20
1501.4006371464213
 10
1984.54
 20
1501.102623106449
 10
1985.49
 20
1500.8163711919162
 10
1986.4399999999998
 20
1500.5418809644307
 10
1987.3899999999999
 20
1500.2791520036158
 10
1988.34
 20
1500.0281839071013
 10
1989.29
 20
1499.788976290536
 10
1990.24
 20
1499.5615287875737
 10
1991.1899999999998
 20
1499.3458410498813
 10
1992.1399999999999
 20
1499.1419127471363
 10
1993.09
 20
1498.9497435670246
 10
1994.04
 20
1498.7693332152423
 10
1994.99
 20
1498.6006814154905
 10
1995.9399999999998
 20
1498.443787909482
 10
1996.8899999999999
 20
1498.2986524569365
 10
1997.84
 20
1498.1652748355802
 10
1998.79
 20
1498.0436548411467
 10
1999.74
 20
1497.9337922873772
 10
2000.6899999999998
 20
1497.8356870060168
 10
2001.6399999999999
 20
1497.7493388468192
 10
2002.59
 20
1497.6747476775424
 10
2003.54
 20
1497.6119133839536
 10
2004.4899999999998
 20
1497.5608358698198
 10
2005.4399999999998
 20
1497.5215150569175
 10
2006.3899999999999
 20
1497.4939508850275
 10
2007.34
 20
1497.478143311935
 10
2008.29
 20
1497.4740923134304
 10
2009.2399999999998
 20
1497.481797883311
 10
2010.1899999999998
 20
1497.501260033377
 10
2011.1399999999999
 20
1497.5324787934346
 10
2012.09
 20
1497.5754542112957
 10
2013.04
 20
1497.6301863527758
 10
2013.9899999999998
 20
1497.696675301696
 10
2014.9399999999998
 20
1497.774921159885
 10
2015.8899999999999
 20
1497.864924047174
 10
2016.84
 20
1497.9666841014023
 10
2017.79
 20
1498.0802014784138
 10
2018.7399999999998
 20
1498.2054763520596
 10
2019.6899999999998
 20
1498.342508914196
 10
2020.6399999999999
 20
1498.4912993746893
 10
2021.59
 20
1498.6518479614072
 10
2022.54
 20
1498.8241549202294
 10
2023.4899999999998
 20
1499.0082205150406
 10
2024.4399999999998
 20
1499.2040450277395
 10
2025.3899999999999
 20
1499.4116287582242
 10
2026.34
 20
1499.63097202441
 10
2027.2899999999997
 20
1499.8620751622188
 10
2028.2399999999998
 20
1500.1049385255794
 10
2029.1899999999998
 20
1500.3595624864377
 10
2030.1399999999999
 20
1500.6259474347476
 10
2031.09
 20
1500.9040937784719
 10
2032.0399999999997
 20
1501.1940019435885
 10
2032.9899999999998
 20
1501.4956723740925
 10
2033.9399999999998
 20
1501.809105531985
 10
2034.8899999999999
 20
1502.1343018972887
 10
2035.84
 20
1502.4712619680354
 10
2036.7899999999997
 20
1502.8199862602758
 10
2037.7399999999998
 20
1503.1804753080798
 10
2038.6899999999998
 20
1503.5527296635305
 10
2039.6399999999999
 20
1503.936749896731
 10
2040.5899999999997
 20
1504.3325365958058
 10
2041.5399999999997
 20
1504.7400903668954
 10
2042.4899999999998
 20
1505.159411834166
 10
2043.4399999999998
 20
1505.5905016398028
 10
2044.3899999999999
 20
1506.0333604440166
 10
2045.3399999999997
 20
1506.487988925038
 10
2046.2899999999997
 20
1506.954387779127
 10
2047.2399999999998
 20
1507.4325577205689
 10
2048.1899999999996
 20
1507.9224994816743
 10
2049.14
 20
1508.4242138127852
 10
2050.0899999999997
 20
1508.9377014822712
 10
2051.04
 20
1509.4629632765323
 10
2051.99
 20
1509.9999999999998
  0
LWPOLYLINE
  5
449
330
17
100
AcDbEntity
  8
0
 62
10
100
AcDbPolyline
 90
101
 70
0
 43
0.3
 10
2146.99
 20
1517.7164
 10
2146.04
 20
1517.056807175915
 10
2145.0899999999997
 20
1516.4089987201883
 10
2144.14
 20
1515.77297364071
 10
2143.1899999999996
 20
1515.1487309634113
 10
2142.24
 20
1514.536269732274
 10
2141.29
 20
1513.9355890093195
 10
2140.3399999999997
 20
1513.3466878746133
 10
2139.39
 20
1512.769565426258
 10
2138.4399999999996
 20
1512.2042207803975
 10
2137.49
 20
1511.6506530712131
 10
2136.54
 20
1511.1088614509215
 10
2135.5899999999997
 20
1510.578845089777
 10
2134.64
 20
1510.060603176061
 10
2133.6899999999996
 20
1509.5541349160962
 10
2132.74
 20
1509.0594395342284
 10
2131.79
 20
1508.5765162728399
 10
2130.8399999999997
 20
1508.1053643923376
 10
2129.89
 20
1507.6459831711582
 10
2128.9399999999996
 20
1507.1983719057648
 10
2127.99
 20
1506.762529910645
 10
2127.04
 20
1506.3384565183114
 10
2126.0899999999997
 20
1505.9261510793006
 10
2125.14
 20
1505.5256129621712
 10
2124.1899999999996
 20
1505.1368415535042
 10
2123.24
 20
1504.7598362578988
 10
2122.29
 20
1504.3945964979785
 10
2121.3399999999997
 20
1504.0411217143796
 10
2120.39
 20
1503.6994113657615
 10
2119.4399999999996
 20
1503.3694649287966
 10
2118.49
 20
1503.0512818981774
 10
2117.54
 20
1502.7448617866105
 10
2116.5899999999997
 20
1502.4502041248143
 10
2115.64
 20
1502.1673084615256
 10
2114.6899999999996
 20
1501.8961743634932
 10
2113.74
 20
1501.6368014154762
 10
2112.79
 20
1501.3891892202505
 10
2111.8399999999997
 20
1501.1533373985988
 10
2110.89
 20
1500.929245589319
 10
2109.9399999999996
 20
1500.7169134492124
 10
2108.99
 20
1500.5163406530992
 10
2108.04
 20
1500.3275268938025
 10
2107.0899999999997
 20
1500.1504718821577
 10
2106.14
 20
1499.9851753470032
 10
2105.1899999999996
 20
1499.831637035193
 10
2104.24
 20
1499.6898567115838
 10
2103.29
 20
1499.55983415904
 10
2102.3399999999997
 20
1499.4415691784336
 10
2101.39
 20
1499.335061588644
 10
2100.4399999999996
 20
1499.2403112265533
 10
2099.49
 20
1499.1573179470563
 10
2098.54
 20
1499.0860816230468
 10
2097.5899999999997
 20
1499.0266021454293
 10
2096.64
 20
1498.9788794231097
 10
2095.6899999999996
 20
1498.9429133830013
 10
2094.74
 20
1498.918703970023
 10
2093.79
 20
1498.9062511470997
 10
2092.8399999999997
 20
1498.9055548951592
 10
2091.89
 20
1498.916615213133
 10
2090.9399999999996
 20
1498.9394321179639
 10
2089.99
 20
1498.9740056445914
 10
2089.04
 20
1499.0203358459676
 10
2088.0899999999997
 20
1499.0784227930453
 10
2087.14
 20
1499.148266574786
 10
2086.1899999999996
 20
1499.2298672981515
 10
2085.24
 20
1499.3232250881147
 10
2084.29
 20
1499.4283400876511
 10
2083.3399999999997
 20
1499.5452124577423
 10
2082.39
 20
1499.6738423773802
 10
2081.4399999999996
 20
1499.8142300435566
 10
2080.49
 20
1499.9663756712755
 10
2079.54
 20
1500.1302794935452
 10
2078.5899999999997
 20
1500.3059417613836
 10
2077.64
 20
1500.4933627438156
 10
2076.6899999999996
 20
1500.692542727874
 10
2075.74
 20
1500.9034820186
 10
2074.79
 20
1501.1261809390458
 10
2073.8399999999997
 20
1501.360639830273
 10
2072.89
 20
1501.6068590513507
 10
2071.9399999999996
 20
1501.864838979361
 10
2070.99
 20
1502.1345800094005
 10
2070.04
 20
1502.4160825545707
 10
2069.0899999999997
 20
1502.709347045991
 10
2068.14
 20
1503.014373932795
 10
2067.1899999999996
 20
1503.3311636821254
 10
2066.24
 20
1503.659716779142
 10
2065.29
 20
1504.0000337270205
 10
2064.3399999999997
 20
1504.352115046955
 10
2063.39
 20
1504.7159612781527
 10
2062.4399999999996
 20
1505.0915729778387
 10
2061.49
 20
1505.4789507212577
 10
2060.54
 20
1505.878095101678
 10
2059.5899999999997
 20
1506.2890067303827
 10
2058.64
 20
1506.7116862366777
 10
2057.6899999999996
 20
1507.146134267892
 10
2056.74
 20
1507.592351489379
 10
2055.79
 20
1508.0503385845159
 10
2054.8399999999997
 20
1508.5200962547044
 10
2053.89
 20
1509.0016252193714
 10
2052.9399999999996
 20
1509.494926215975
 10
2051.99
 20
1510.0000000000011
  0
LWPOLYLINE
  5
44A
330
17
100
AcDbEntity
  8
0
 62
10
100
AcDbPolyline
 90
101
 70
0
 43
0.3
 10
2146.99
 20
1517.7164
 10
2147.9399999999996
 20
1517.1335321948104
 10
2148.89
 20
1516.5624426209945
 10
2149.8399999999997
 20
1516.0031304039348
 10
2150.79
 20
1515.4555946870528
 10
2151.74
 20
1514.9198346318005
 10
2152.6899999999996
 20
1514.3958494176673
 10
2153.64
 20
1513.8836382421787
 10
2154.5899999999997
 20
1513.3832003208868
 10
2155.54
 20
1512.8945348873765
 10
2156.49
 20
1512.4176411932633
 10
2157.4399999999996
 20
1511.9525185081877
 10
2158.39
 20
1511.4991661198217
 10
2159.3399999999997
 20
1511.0575833338585
 10
2160.29
 20
1510.6277694740222
 10
2161.24
 20
1510.2097238820559
 10
2162.1899999999996
 20
1509.8034459177263
 10
2163.14
 20
1509.4089349588253
 10
2164.0899999999997
 20
1509.0261904011622
 10
2165.04
 20
1508.655211658568
 10
2165.99
 20
1508.2959981628946
 10
2166.9399999999996
 20
1507.9485493640088
 10
2167.89
 20
1507.6128647297962
 10
2168.8399999999997
 20
1507.2889437461608
 10
2169.79
 20
1506.9767859170224
 10
2170.74
 20
1506.6763907643106
 10
2171.6899999999996
 20
1506.3877578279787
 10
2172.64
 20
1506.1108866659836
 10
2173.5899999999997
 20
1505.8457768543042
 10
2174.54
 20
1505.5924279869243
 10
2175.49
 20
1505.3508396758452
 10
2176.4399999999996
 20
1505.121011551076
 10
2177.39
 20
1504.9029432606396
 10
2178.3399999999997
 20
1504.696634470564
 10
2179.29
 20
1504.5020848648908
 10
2180.24
 20
1504.31929414567
 10
2181.1899999999996
 20
1504.1482620329584
 10
2182.14
 20
1503.988988264823
 10
2183.0899999999997
 20
1503.8414725973373
 10
2184.04
 20
1503.7057148045833
 10
2184.99
 20
1503.58171467865
 10
2185.9399999999996
 20
1503.4694720296297
 10
2186.89
 20
1503.3689866856282
 10
2187.8399999999997
 20
1503.2802584927492
 10
2188.79
 20
1503.2032873151088
 10
2189.74
 20
1503.1380730348278
 10
2190.6899999999996
 20
1503.084615552029
 10
2191.64
 20
1503.042914784841
 10
2192.5899999999997
 20
1503.0129706694042
 10
2193.54
 20
1502.9947831598574
 10
2194.49
 20
1502.988352228345
 10
2195.4399999999996
 20
1502.9936778650201
 10
2196.39
 20
1503.0107600780389
 10
2197.3399999999997
 20
1503.0395988935625
 10
2198.29
 20
1503.0801943557556
 10
2199.24
 20
1503.1325465267912
 10
2200.1899999999996
 20
1503.1966554868459
 10
2201.14
 20
1503.2725213341025
 10
2202.0899999999997
 20
1503.360144184746
 10
2203.04
 20
1503.4595241729733
 10
2203.99
 20
1503.5706614509822
 10
2204.9399999999996
 20
1503.693556188978
 10
2205.89
 20
1503.8282085751725
 10
2206.8399999999997
 20
1503.9746188157858
 10
2207.79
 20
1504.1327871350413
 10
2208.74
 20
1504.3027137751733
 10
2209.6899999999996
 20
1504.4843989964218
 10
2210.64
 20
1504.6778430770376
 10
2211.5899999999997
 20
1504.8830463132763
 10
2212.54
 20
1505.1000090194054
 10
2213.49
 20
1505.3287315276996
 10
2214.4399999999996
 20
1505.5692141884463
 10
2215.39
 20
1505.821457369942
 10
2216.3399999999997
 20
1506.0854614584948
 10
2217.29
 20
1506.3612268584216
 10
2218.24
 20
1506.6487539920556
 10
2219.1899999999996
 20
1506.9480432997427
 10
2220.14
 20
1507.2590952398382
 10
2221.0899999999997
 20
1507.5819102887167
 10
2222.04
 20
1507.9164889407675
 10
2222.99
 20
1508.2628317083904
 10
2223.9399999999996
 20
1508.6209391220075
 10
2224.89
 20
1508.9908117300554
 10
2225.8399999999997
 20
1509.3724500989922
 10
2226.79
 20
1509.7658548132902
 10
2227.74
 20
1510.1710264754463
 10
2228.6899999999996
 20
1510.5879657059754
 10
2229.64
 20
1511.016673143415
 10
2230.5899999999997
 20
1511.457149444328
 10
2231.54
 20
1511.9093952832957
 10
2232.49
 20
1512.3734113529288
 10
2233.4399999999996
 20
1512.8491983638646
 10
2234.39
 20
1513.336757044763
 10
2235.3399999999997
 20
1513.8360881423162
 10
2236.29
 20
1514.347192421245
 10
2237.24
 20
1514.870070664299
 10
2238.1899999999996
 20
1515.4047236722588
 10
2239.14
 20
1515.9511522639425
 10
2240.0899999999997
 20
1516.5093572761966
 10
2241.04
 20
1517.079339563909
 10
2241.99
 20
1517.6610999999994
  0
LWPOLYLINE
  5
44B
330
17
100
AcDbEntity
  8
0
 62
10
100
AcDbPolyline
 90
101
 70
0
 43
0.3
 10
2241.99
 20
1517.6611
 10
2242.9399999999996
 20
1517.001964968189
 10
2243.89
 20
1516.354614265859
 10
2244.8399999999997
 20
1515.7190469016025
 10
2245.79
 20
1515.0952619020516
 10
2246.74
 20
1514.4832583118882
 10
2247.6899999999996
 20
1513.8830351938361
 10
2248.64
 20
1513.2945916286596
 10
2249.5899999999997
 20
1512.717926715164
 10
2250.54
 20
1512.1530395701916
 10
2251.49
 20
1511.5999293286277
 10
2252.4399999999996
 20
1511.0585951433864
 10
2253.39
 20
1510.5290361854222
 10
2254.3399999999997
 20
1510.0112516437227
 10
2255.29
 20
1509.505240725304
 10
2256.24
 20
1509.011002655216
 10
2257.1899999999996
 20
1508.5285366765413
 10
2258.14
 20
1508.0578420503878
 10
2259.0899999999997
 20
1507.598918055889
 10
2260.04
 20
1507.1517639902104
 10
2260.99
 20
1506.71637916854
 10
2261.9399999999996
 20
1506.2927629240914
 10
2262.89
 20
1505.8809146080996
 10
2263.8399999999997
 20
1505.4808335898242
 10
2264.79
 20
1505.0925192565446
 10
2265.74
 20
1504.7159710135643
 10
2266.6899999999996
 20
1504.3511882842001
 10
2267.64
 20
1503.9981705097948
 10
2268.5899999999997
 20
1503.6569171497042
 10
2269.54
 20
1503.327427681303
 10
2270.49
 20
1503.0097015999797
 10
2271.4399999999996
 20
1502.703738419143
 10
2272.39
 20
1502.4095376702116
 10
2273.3399999999997
 20
1502.1270989026211
 10
2274.29
 20
1501.8564216838197
 10
2275.24
 20
1501.5975055992699
 10
2276.1899999999996
 20
1501.3503502524416
 10
2277.14
 20
1501.1149552648196
 10
2278.0899999999997
 20
1500.8913202759009
 10
2279.04
 20
1500.679444943189
 10
2279.99
 20
1500.4793289422014
 10
2280.9399999999996
 20
1500.2909719664615
 10
2281.89
 20
1500.1143737275017
 10
2282.8399999999997
 20
1499.9495339548666
 10
2283.79
 20
1499.7964523961018
 10
2284.74
 20
1499.6551288167666
 10
2285.6899999999996
 20
1499.5255630004274
 10
2286.64
 20
1499.4077547486536
 10
2287.5899999999997
 20
1499.3017038810215
 10
2288.54
 20
1499.2074102351191
 10
2289.49
 20
1499.1248736665348
 10
2290.4399999999996
 20
1499.0540940488645
 10
2291.39
 20
1498.9950712737104
 10
2292.3399999999997
 20
1498.9478052506786
 10
2293.29
 20
1498.9122959073845
 10
2294.24
 20
1498.8885431894428
 10
2295.1899999999996
 20
1498.876547060479
 10
2296.14
 20
1498.8763075021193
 10
2297.0899999999997
 20
1498.8878245139979
 10
2298.04
 20
1498.9110981137528
 10
2298.99
 20
1498.946128337028
 10
2299.9399999999996
 20
1498.9929152374702
 10
2300.89
 20
1499.0514588867334
 10
2301.8399999999997
 20
1499.1217593744777
 10
2302.79
 20
1499.2038168083673
 10
2303.74
 20
1499.2976313140705
 10
2304.6899999999996
 20
1499.4032030352666
 10
2305.64
 20
1499.520532133633
 10
2306.5899999999997
 20
1499.649618788862
 10
2307.54
 20
1499.7904631986457
 10
2308.49
 20
1499.9430655786873
 10
2309.4399999999996
 20
1500.107426162694
 10
2310.39
 20
1500.2835452023858
 10
2311.3399999999997
 20
1500.4714229674814
 10
2312.29
 20
1500.6710597457193
 10
2313.24
 20
1500.8824558428375
 10
2314.1899999999996
 20
1501.1056115825877
 10
2315.14
 20
1501.3405273067299
 10
2316.0899999999997
 20
1501.5872033750359
 10
2317.04
 20
1501.8456401652877
 10
2317.99
 20
1502.1158380732777
 10
2318.9399999999996
 20
1502.3977975128103
 10
2319.89
 20
1502.6915189157041
 10
2320.8399999999997
 20
1502.9970027317895
 10
2321.79
 20
1503.3142494289125
 10
2322.74
 20
1503.643259492933
 10
2323.6899999999996
 20
1503.984033427725
 10
2324.64
 20
1504.336571755181
 10
2325.5899999999997
 20
1504.7008750152097
 10
2326.54
 20
1505.076943765738
 10
2327.49
 20
1505.4647785827085
 10
2328.4399999999996
 20
1505.8643800600887
 10
2329.39
 20
1506.2757488098628
 10
2330.3399999999997
 20
1506.6988854620379
 10
2331.29
 20
1507.133790664641
 10
2332.24
 20
1507.5804650837276
 10
2333.1899999999996
 20
1508.0389094033735
 10
2334.14
 20
1508.5091243256811
 10
2335.0899999999997
 20
1508.991110570778
 10
2336.04
 20
1509.4848688768227
 10
2336.99
 20
1509.9904
  0
LWPOLYLINE
  5
44C
330
17
100
AcDbEntity
  8
0
 62
10
100
AcDbPolyline
 90
101
 70
0
 43
0.3
 10
2431.99
 20
1530.3991
 10
2431.04
 20
1529.6123120586462
 10
2430.0899999999997
 20
1528.8373203361662
 10
2429.14
 20
1528.074123645667
 10
2428.1899999999996
 20
1527.3227208183248
 10
2427.24
 20
1526.5831107033723
 10
2426.29
 20
1525.8552921681048
 10
2425.3399999999997
 20
1525.139264097876
 10
2424.39
 20
1524.4350253960986
 10
2423.4399999999996
 20
1523.7425749842353
 10
2422.49
 20
1523.0619118018108
 10
2421.54
 20
1522.3930348063923
 10
2420.5899999999997
 20
1521.7359429736048
 10
2419.64
 20
1521.0906352971206
 10
2418.6899999999996
 20
1520.4571107886532
 10
2417.74
 20
1519.8353684779722
 10
2416.79
 20
1519.2254074128834
 10
2415.8399999999997
 20
1518.6272266592375
 10
2414.89
 20
1518.0408253009286
 10
2413.9399999999996
 20
1517.46620243989
 10
2412.99
 20
1516.903357196093
 10
2412.04
 20
1516.3522887075446
 10
2411.0899999999997
 20
1515.8129961302914
 10
2410.14
 20
1515.2854786384125
 10
2409.1899999999996
 20
1514.769735424018
 10
2408.24
 20
1514.2657656972572
 10
2407.29
 20
1513.7735686863043
 10
2406.3399999999997
 20
1513.293143637363
 10
2405.39
 20
1512.8244898146704
 10
2404.4399999999996
 20
1512.3676065004865
 10
2403.49
 20
1511.9224929951013
 10
2402.54
 20
1511.489148616825
 10
2401.5899999999997
 20
1511.0675727020011
 10
2400.64
 20
1510.657764604986
 10
2399.6899999999996
 20
1510.2597236981644
 10
2398.74
 20
1509.873449371941
 10
2397.79
 20
1509.4989410347416
 10
2396.8399999999997
 20
1509.1361981130112
 10
2395.89
 20
1508.7852200512114
 10
2394.9399999999996
 20
1508.4460063118245
 10
2393.99
 20
1508.1185563753477
 10
2393.04
 20
1507.8028697402958
 10
2392.0899999999997
 20
1507.4989459231967
 10
2391.14
 20
1507.2067844585968
 10
2390.1899999999996
 20
1506.9263848990515
 10
2389.24
 20
1506.6577468151345
 10
2388.29
 20
1506.4008697954278
 10
2387.3399999999997
 20
1506.155753446526
 10
2386.39
 20
1505.92239739304
 10
2385.4399999999996
 20
1505.7008012775823
 10
2384.49
 20
1505.4909647607865
 10
2383.54
 20
1505.2928875212867
 10
2382.5899999999997
 20
1505.1065692557302
 10
2381.64
 20
1504.9320096787733
 10
2380.6899999999996
 20
1504.7692085230797
 10
2379.74
 20
1504.6181655393214
 10
2378.79
 20
1504.4788804961786
 10
2377.8399999999997
 20
1504.3513531803355
 10
2376.89
 20
1504.2355833964873
 10
2375.9399999999996
 20
1504.1315709673333
 10
2374.99
 20
1504.0393157335789
 10
2374.04
 20
1503.9588175539386
 10
2373.0899999999997
 20
1503.8900763051263
 10
2372.14
 20
1503.83309188187
 10
2371.1899999999996
 20
1503.7878641968966
 10
2370.24
 20
1503.7543931809396
 10
2369.29
 20
1503.7326787827396
 10
2368.3399999999997
 20
1503.7227209690393
 10
2367.39
 20
1503.724519724592
 10
2366.4399999999996
 20
1503.73807505215
 10
2365.49
 20
1503.763386972475
 10
2364.54
 20
1503.800455524328
 10
2363.5899999999997
 20
1503.849280764484
 10
2362.64
 20
1503.9098627677142
 10
2361.6899999999996
 20
1503.9822016268033
 10
2360.74
 20
1504.0662974525328
 10
2359.79
 20
1504.1621503736978
 10
2358.8399999999997
 20
1504.2697605370965
 10
2357.89
 20
1504.3891281075305
 10
2356.9399999999996
 20
1504.52025326781
 10
2355.99
 20
1504.6631362187534
 10
2355.04
 20
1504.8177771791827
 10
2354.0899999999997
 20
1504.98417638593
 10
2353.14
 20
1505.1623340938322
 10
2352.1899999999996
 20
1505.3522505757385
 10
2351.24
 20
1505.5539261225026
 10
2350.29
 20
1505.7673610429872
 10
2349.3399999999997
 20
1505.9925556640665
 10
2348.39
 20
1506.229510330625
 10
2347.4399999999996
 20
1506.4782254055542
 10
2346.49
 20
1506.7387012697584
 10
2345.54
 20
1507.0109383221545
 10
2344.5899999999997
 20
1507.2949369796693
 10
2343.64
 20
1507.590697677245
 10
2342.6899999999996
 20
1507.8982208678372
 10
2341.74
 20
1508.2175070224098
 10
2340.79
 20
1508.5485566299508
 10
2339.8399999999997
 20
1508.891370197455
 10
2338.89
 20
1509.2459482499407
 10
2337.9399999999996
 20
1509.6122913304384
 10
2336.99
 20
1509.9903999999985
  0
LWPOLYLINE
  5
44D
330
17
100
AcDbEntity
  8
0
 62
10
100
AcDbPolyline
 90
101
 70
0
 43
0.3
 10
2526.99
 20
1540.0
 10
2526.04
 20
1539.3215283336162
 10
2525.0899999999997
 20
1538.6548426624079
 10
2524.14
 20
1537.9999419653543
 10
2523.1899999999996
 20
1537.3568252394828
 10
2522.24
 20
1536.725491499868
 10
2521.29
 20
1536.1059397796273
 10
2520.3399999999997
 20
1535.4981691299242
 10
2519.39
 20
1534.9021786199676
 10
2518.4399999999996
 20
1534.317967337001
 10
2517.49
 20
1533.7455343863135
 10
2516.54
 20
1533.1848788912282
 10
2515.5899999999997
 20
1532.6359999931096
 10
2514.64
 20
1532.0988968513554
 10
2513.6899999999996
 20
1531.573568643398
 10
2512.74
 20
1531.0600145647015
 10
2511.79
 20
1530.558233828765
 10
2510.8399999999997
 20
1530.0682256671168
 10
2509.89
 20
1529.5899893293154
 10
2508.9399999999996
 20
1529.1235240829458
 10
2507.99
 20
1528.6688292136205
 10
2507.04
 20
1528.2259040249824
 10
2506.0899999999997
 20
1527.7947478386948
 10
2505.14
 20
1527.3753599944469
 10
2504.1899999999996
 20
1526.9677398499512
 10
2503.24
 20
1526.5718867809424
 10
2502.29
 20
1526.187800181174
 10
2501.3399999999997
 20
1525.8154794624234
 10
2500.39
 20
1525.4549240544848
 10
2499.4399999999996
 20
1525.1061334051724
 10
2498.49
 20
1524.7691069803166
 10
2497.54
 20
1524.443844263764
 10
2496.5899999999997
 20
1524.1303447573787
 10
2495.64
 20
1523.828607981043
 10
2494.6899999999996
 20
1523.538633472646
 10
2493.74
 20
1523.260420788096
 10
2492.79
 20
1522.993969501316
 10
2491.8399999999997
 20
1522.7392792042344
 10
2490.89
 20
1522.4963495067998
 10
2489.9399999999996
 20
1522.2651800369674
 10
2488.99
 20
1522.0457704407015
 10
2488.04
 20
1521.8381203819808
 10
2487.0899999999997
 20
1521.6422295427897
 10
2486.14
 20
1521.458097623126
 10
2485.1899999999996
 20
1521.2857243409921
 10
2484.24
 20
1521.1251094323998
 10
2483.29
 20
1520.9762526513698
 10
2482.3399999999997
 20
1520.8391537699292
 10
2481.39
 20
1520.7138125781144
 10
2480.4399999999996
 20
1520.6002288839634
 10
2479.49
 20
1520.4984025135282
 10
2478.54
 20
1520.4083333108588
 10
2477.5899999999997
 20
1520.3300211380172
 10
2476.64
 20
1520.26346587507
 10
2475.6899999999996
 20
1520.2086674200864
 10
2474.74
 20
1520.165625689146
 10
2473.79
 20
1520.1343406163282
 10
2472.8399999999997
 20
1520.1148121537196
 10
2471.89
 20
1520.107040271416
 10
2470.9399999999996
 20
1520.111024957513
 10
2469.99
 20
1520.1267662181126
 10
2469.04
 20
1520.1542640773223
 10
2468.0899999999997
 20
1520.193518577256
 10
2467.14
 20
1520.2445297780314
 10
2466.1899999999996
 20
1520.3072977577706
 10
2465.24
 20
1520.3818226126027
 10
2464.29
 20
1520.468104456662
 10
2463.3399999999997
 20
1520.566143422088
 10
2462.39
 20
1520.6759396590248
 10
2461.4399999999996
 20
1520.7974933356254
 10
2460.49
 20
1520.9308046380488
 10
2459.54
 20
1521.0758737704584
 10
2458.5899999999997
 20
1521.232700955027
 10
2457.64
 20
1521.4012864319327
 10
2456.6899999999996
 20
1521.5816304593618
 10
2455.74
 20
1521.7737333135115
 10
2454.79
 20
1521.9775952885827
 10
2453.8399999999997
 20
1522.1932166967897
 10
2452.89
 20
1522.4205978683526
 10
2451.9399999999996
 20
1522.6597391515052
 10
2450.99
 20
1522.9106409124884
 10
2450.04
 20
1523.1733035355542
 10
2449.0899999999997
 20
1523.4477274229707
 10
2448.14
 20
1523.7339129950126
 10
2447.1899999999996
 20
1524.0318606899696
 10
2446.24
 20
1524.341570964148
 10
2445.29
 20
1524.6630442918622
 10
2444.3399999999997
 20
1524.9962811654489
 10
2443.39
 20
1525.3412820952537
 10
2442.4399999999996
 20
1525.6980476096417
 10
2441.49
 20
1526.0665782549975
 10
2440.54
 20
1526.4468745957208
 10
2439.5899999999997
 20
1526.8389372142292
 10
2438.64
 20
1527.242766710965
 10
2437.6899999999996
 20
1527.6583637043882
 10
2436.74
 20
1528.0857288309799
 10
2435.79
 20
1528.5248627452456
 10
2434.8399999999997
 20
1528.9757661197132
 10
2433.89
 20
1529.4384396449373
 10
2432.9399999999996
 20
1529.9128840294982
 10
2431.99
 20
1530.3991000000012
  0
LWPOLYLINE
  5
44E
330
17
100
AcDbEntity
  8
0
 62
10
100
AcDbPolyline
 90
101
 70
0
 43
0.3
 10
2526.99
 20
1540.0
 10
2527.9399999999996
 20
1539.044169474485
 10
2528.89
 20
1538.100154144232
 10
2529.8399999999997
 20
1537.16795256349
 10
2530.79
 20
1536.2475633046024
 10
2531.74
 20
1535.3389849580071
 10
2532.6899999999996
 20
1534.4422161322213
 10
2533.64
 20
1533.5572554538567
 10
2534.5899999999997
 20
1532.6841015676055
 10
2535.54
 20
1531.8227531362415
 10
2536.49
 20
1530.973208840619
 10
2537.4399999999996
 20
1530.1354673796695
 10
2538.39
 20
1529.3095274704028
 10
2539.3399999999997
 20
1528.4953878479002
 10
2540.29
 20
1527.693047265316
 10
2541.24
 20
1526.9025044938764
 10
2542.1899999999996
 20
1526.1237583228701
 10
2543.14
 20
1525.3568075596581
 10
2544.0899999999997
 20
1524.6016510296636
 10
2545.04
 20
1523.8582875763734
 10
2545.99
 20
1523.126716061333
 10
2546.9399999999996
 20
1522.4069353641507
 10
2547.89
 20
1521.6989443824891
 10
2548.8399999999997
 20
1521.0027420320673
 10
2549.79
 20
1520.3183272466604
 10
2550.74
 20
1519.6456989780945
 10
2551.6899999999996
 20
1518.9848561962451
 10
2552.64
 20
1518.3357978890404
 10
2553.5899999999997
 20
1517.698523062455
 10
2554.54
 20
1517.0730307405088
 10
2555.49
 20
1516.4593199652682
 10
2556.4399999999996
 20
1515.85738979684
 10
2557.39
 20
1515.2672393133753
 10
2558.3399999999997
 20
1514.6888676110684
 10
2559.29
 20
1514.1222738041452
 10
2560.24
 20
1513.5674570248757
 10
2561.1899999999996
 20
1513.0244164235633
 10
2562.14
 20
1512.4931511685472
 10
2563.0899999999997
 20
1511.9736604462025
 10
2564.04
 20
1511.4659434609316
 10
2564.99
 20
1510.9699994351752
 10
2565.9399999999996
 20
1510.4858276093976
 10
2566.89
 20
1510.013427242097
 10
2567.8399999999997
 20
1509.5527976097953
 10
2568.79
 20
1509.1039380070456
 10
2569.74
 20
1508.6668477464225
 10
2570.6899999999996
 20
1508.2415261585281
 10
2571.64
 20
1507.8279725919879
 10
2572.5899999999997
 20
1507.4261864134467
 10
2573.54
 20
1507.0361670075758
 10
2574.49
 20
1506.6579137770627
 10
2575.4399999999996
 20
1506.2914261426192
 10
2576.39
 20
1505.9367035429718
 10
2577.3399999999997
 20
1505.5937454348684
 10
2578.29
 20
1505.2625512930706
 10
2579.24
 20
1504.943120610359
 10
2580.1899999999996
 20
1504.6354528975273
 10
2581.14
 20
1504.3395476833898
 10
2582.0899999999997
 20
1504.0554045147678
 10
2583.04
 20
1503.7830229564988
 10
2583.99
 20
1503.5224025914367
 10
2584.9399999999996
 20
1503.2735430204414
 10
2585.89
 20
1503.0364438623878
 10
2586.8399999999997
 20
1502.8111047541602
 10
2587.79
 20
1502.5975253506574
 10
2588.74
 20
1502.3957053247818
 10
2589.6899999999996
 20
1502.2056443674512
 10
2590.64
 20
1502.0273421875847
 10
2591.5899999999997
 20
1501.8607985121205
 10
2592.54
 20
1501.7060130859927
 10
2593.49
 20
1501.562985672155
 10
2594.4399999999996
 20
1501.4317160515568
 10
2595.39
 20
1501.3122040231647
 10
2596.3399999999997
 20
1501.2044494039455
 10
2597.29
 20
1501.1084520288723
 10
2598.24
 20
1501.0242117509308
 10
2599.1899999999996
 20
1500.951728441104
 10
2600.14
 20
1500.8910019883856
 10
2601.0899999999997
 20
1500.8420322997745
 10
2602.04
 20
1500.8048193002724
 10
2602.99
 20
1500.7793629328899
 10
2603.9399999999996
 20
1500.7656631586408
 10
2604.89
 20
1500.763719956542
 10
2605.8399999999997
 20
1500.7735333236194
 10
2606.79
 20
1500.7951032749015
 10
2607.74
 20
1500.8284298434228
 10
2608.6899999999996
 20
1500.873513080222
 10
2609.64
 20
1500.9303530543448
 10
2610.5899999999997
 20
1500.998949852839
 10
2611.54
 20
1501.0793035807615
 10
2612.49
 20
1501.1714143611719
 10
2613.4399999999996
 20
1501.2752823351377
 10
2614.39
 20
1501.3909076617301
 10
2615.3399999999997
 20
1501.51829051803
 10
2616.29
 20
1501.6574310991236
 10
2617.24
 20
1501.808329618099
 10
2618.1899999999996
 20
1501.9709863060607
 10
2619.14
 20
1502.1454014121118
 10
2620.0899999999997
 20
1502.331575203369
 10
2621.04
 20
1502.5295079649538
 10
2621.99
 20
1502.7392
  0
LWPOLYLINE
  5
44F
330
17
100
AcDbEntity
  8
0
 62
10
100
AcDbPolyline
 90
101
 70
0
 43
0.3
 10
2621.99
 20
1502.7392
 10
2622.9399999999996
 20
1501.5764960025258
 10
2623.89
 20
1500.425635410344
 10
2624.8399999999997
 20
1499.2866164609295
 10
2625.79
 20
1498.159437409884
 10
2626.74
 20
1497.0440965309463
 10
2627.6899999999996
 20
1495.9405921159837
 10
2628.64
 20
1494.8489224749924
 10
2629.5899999999997
 20
1493.7690859360905
 10
2630.54
 20
1492.7010808455225
 10
2631.49
 20
1491.6449055676485
 10
2632.4399999999996
 20
1490.60055848495
 10
2633.39
 20
1489.5680379980183
 10
2634.3399999999997
 20
1488.5473425255618
 10
2635.29
 20
1487.5384705043953
 10
2636.24
 20
1486.541420389443
 10
2637.1899999999996
 20
1485.5561906537343
 10
2638.14
 20
1484.5827797883996
 10
2639.0899999999997
 20
1483.6211863026715
 10
2640.04
 20
1482.671408723881
 10
2640.99
 20
1481.733445597453
 10
2641.9399999999996
 20
1480.8072954869078
 10
2642.89
 20
1479.892956973856
 10
2643.8399999999997
 20
1478.990428658
 10
2644.79
 20
1478.0997091571257
 10
2645.74
 20
1477.220797107108
 10
2646.6899999999996
 20
1476.353691161901
 10
2647.64
 20
1475.4983899935414
 10
2648.5899999999997
 20
1474.654892292147
 10
2649.54
 20
1473.8231967659094
 10
2650.49
 20
1473.0033021410964
 10
2651.4399999999996
 20
1472.1952071620472
 10
2652.39
 20
1471.3989105911733
 10
2653.3399999999997
 20
1470.6144112089569
 10
2654.29
 20
1469.8417078139435
 10
2655.24
 20
1469.0807992227503
 10
2656.1899999999996
 20
1468.3316842700503
 10
2657.14
 20
1467.5943618085832
 10
2658.0899999999997
 20
1466.86883070915
 10
2659.04
 20
1466.1550898606042
 10
2659.99
 20
1465.4531381698628
 10
2660.9399999999996
 20
1464.762974561893
 10
2661.89
 20
1464.0845979797177
 10
2662.8399999999997
 20
1463.4180073844097
 10
2663.79
 20
1462.7632017550936
 10
2664.74
 20
1462.1201800889412
 10
2665.6899999999996
 20
1461.4889414011725
 10
2666.64
 20
1460.869484725051
 10
2667.5899999999997
 20
1460.261809111887
 10
2668.54
 20
1459.6659136310327
 10
2669.49
 20
1459.0817973698797
 10
2670.4399999999996
 20
1458.5094594338605
 10
2671.39
 20
1457.9488989464464
 10
2672.3399999999997
 20
1457.4001150491433
 10
2673.29
 20
1456.8631069014973
 10
2674.24
 20
1456.3378736810855
 10
2675.1899999999996
 20
1455.8244145835188
 10
2676.14
 20
1455.322728822439
 10
2677.0899999999997
 20
1454.832815629522
 10
2678.04
 20
1454.3546742544704
 10
2678.99
 20
1453.888303965016
 10
2679.9399999999996
 20
1453.4337040469175
 10
2680.89
 20
1452.9908738039599
 10
2681.8399999999997
 20
1452.5598125579545
 10
2682.79
 20
1452.1405196487353
 10
2683.74
 20
1451.73299443416
 10
2684.6899999999996
 20
1451.3372362901077
 10
2685.64
 20
1450.953244610479
 10
2686.5899999999997
 20
1450.5810188071978
 10
2687.54
 20
1450.2205583101993
 10
2688.49
 20
1449.8718625674467
 10
2689.4399999999996
 20
1449.5349310449146
 10
2690.39
 20
1449.209763226595
 10
2691.3399999999997
 20
1448.8963586144982
 10
2692.29
 20
1448.59471672865
 10
2693.24
 20
1448.3048371070859
 10
2694.1899999999996
 20
1448.026719305861
 10
2695.14
 20
1447.7603628990394
 10
2696.0899999999997
 20
1447.5057674787017
 10
2697.04
 20
1447.262932654934
 10
2697.99
 20
1447.0318580558405
 10
2698.9399999999996
 20
1446.8125433275313
 10
2699.89
 20
1446.6049881341307
 10
2700.8399999999997
 20
1446.4091921577658
 10
2701.79
 20
1446.2251550985827
 10
2702.74
 20
1446.052876674726
 10
2703.6899999999996
 20
1445.8923566223561
 10
2704.64
 20
1445.7435946956368
 10
2705.5899999999997
 20
1445.6065906667422
 10
2706.54
 20
1445.4813443258508
 10
2707.49
 20
1445.3678554811506
 10
2708.4399999999996
 20
1445.266123958833
 10
2709.39
 20
1445.176149603097
 10
2710.3399999999997
 20
1445.0979322761502
 10
2711.29
 20
1445.0314718582033
 10
2712.24
 20
1444.9767682474715
 10
2713.1899999999996
 20
1444.9338213601761
 10
2714.14
 20
1444.9026311305481
 10
2715.0899999999997
 20
1444.883197510816
 10
2716.04
 20
1444.8755204712184
 10
2716.99
 20
1444.8796000000007
  0
LWPOLYLINE
  5
450
330
17
100
AcDbEntity
  8
0
 62
10
100
AcDbPolyline
 90
101
 70
0
 43
0.3
 10
2806.99
 20
1449.4347
 10
2806.0899999999997
 20
1448.8664942460882
 10
2805.1899999999996
 20
1448.3088607125871
 10
2804.29
 20
1447.7617986330167
 10
2803.39
 20
1447.225307255428
 10
2802.49
 20
1446.6993858424019
 10
2801.5899999999997
 20
1446.1840336710463
 10
2800.6899999999996
 20
1445.6792500330014
 10
2799.79
 20
1445.1850342344278
 10
2798.89
 20
1444.701385596017
 10
2797.99
 20
1444.2283034529835
 10
2797.0899999999997
 20
1443.765787155063
 10
2796.1899999999996
 20
1443.3138360665203
 10
2795.29
 20
1442.8724495661377
 10
2794.39
 20
1442.4416270472173
 10
2793.49
 20
1442.0213679175868
 10
2792.5899999999997
 20
1441.6116715995913
 10
2791.6899999999996
 20
1441.212537530091
 10
2790.79
 20
1440.8239651604706
 10
2789.89
 20
1440.4459539566258
 10
2788.99
 20
1440.0785033989748
 10
2788.0899999999997
 20
1439.7216129824476
 10
2787.1899999999996
 20
1439.3752822164902
 10
2786.29
 20
1439.0395106250653
 10
2785.39
 20
1438.7142977466438
 10
2784.49
 20
1438.3996431342168
 10
2783.5899999999997
 20
1438.0955463552816
 10
2782.6899999999996
 20
1437.8020069918546
 10
2781.79
 20
1437.519024640456
 10
2780.89
 20
1437.2465989121206
 10
2779.99
 20
1436.9847294323965
 10
2779.0899999999997
 20
1436.7334158413348
 10
2778.1899999999996
 20
1436.4926577935003
 10
2777.29
 20
1436.262454957967
 10
2776.39
 20
1436.0428070183148
 10
2775.49
 20
1435.8337136726336
 10
2774.5899999999997
 20
1435.63517463352
 10
2773.6899999999996
 20
1435.4471896280766
 10
2772.79
 20
1435.2697583979143
 10
2771.89
 20
1435.1028806991515
 10
2770.99
 20
1434.9465563024096
 10
2770.0899999999997
 20
1434.800784992818
 10
2769.1899999999996
 20
1434.6655665700116
 10
2768.29
 20
1434.5409008481274
 10
2767.39
 20
1434.4267876558117
 10
2766.49
 20
1434.3232268362108
 10
2765.5899999999997
 20
1434.2302182469823
 10
2764.6899999999996
 20
1434.1477617602807
 10
2763.79
 20
1434.0758572627676
 10
2762.89
 20
1434.0145046556106
 10
2761.99
 20
1433.9637038544774
 10
2761.0899999999997
 20
1433.9234547895435
 10
2760.1899999999996
 20
1433.8937574054828
 10
2759.29
 20
1433.874611661477
 10
2758.39
 20
1433.8660175312095
 10
2757.49
 20
1433.8679750028696
 10
2756.5899999999997
 20
1433.8804840791452
 10
2755.6899999999996
 20
1433.90354477723
 10
2754.79
 20
1433.9371571288239
 10
2753.89
 20
1433.9813211801275
 10
2752.99
 20
1434.036036991842
 10
2752.0899999999997
 20
1434.1013046391795
 10
2751.1899999999996
 20
1434.17712421185
 10
2750.29
 20
1434.2634958140677
 10
2749.39
 20
1434.3604195645553
 10
2748.49
 20
1434.467895596536
 10
2747.5899999999997
 20
1434.5859240577354
 10
2746.6899999999996
 20
1434.714505110388
 10
2745.79
 20
1434.8536389312326
 10
2744.89
 20
1435.003325711508
 10
2743.99
 20
1435.163565656966
 10
2743.0899999999997
 20
1435.3343589878584
 10
2742.1899999999996
 20
1435.5157059389444
 10
2741.29
 20
1435.7076067594874
 10
2740.39
 20
1435.9100617132613
 10
2739.49
 20
1436.1230710785458
 10
2738.5899999999997
 20
1436.3466351481245
 10
2737.6899999999996
 20
1436.5807542292932
 10
2736.79
 20
1436.8254286438519
 10
2735.89
 20
1437.0806587281113
 10
2734.99
 20
1437.3464448328928
 10
2734.0899999999997
 20
1437.6227873235232
 10
2733.1899999999996
 20
1437.9096865798422
 10
2732.29
 20
1438.2071429961982
 10
2731.39
 20
1438.515156981452
 10
2730.49
 20
1438.8337289589756
 10
2729.5899999999997
 20
1439.1628593666546
 10
2728.6899999999996
 20
1439.5025486568838
 10
2727.79
 20
1439.8527972965742
 10
2726.89
 20
1440.2136057671503
 10
2725.99
 20
1440.5849745645512
 10
2725.0899999999997
 20
1440.966904199232
 10
2724.1899999999996
 20
1441.3593951961632
 10
2723.29
 20
1441.7624480948314
 10
2722.39
 20
1442.176063449244
 10
2721.49
 20
1442.6002418279215
 10
2720.5899999999997
 20
1443.0349838139061
 10
2719.6899999999996
 20
1443.4802900047632
 10
2718.79
 20
1443.9361610125738
 10
2717.89
 20
1444.402597463944
 10
2716.99
 20
1444.8796
  0
LWPOLYLINE
  5
451
330
17
100
AcDbEntity
  8
0
 62
10
100
AcDbPolyline
 90
101
 70
0
 43
0.3
 10
2896.99
 20
1486.3826
 10
2896.0899999999997
 20
1485.4896733400217
 10
2895.1899999999996
 20
1484.607349474208
 10
2894.29
 20
1483.7356271897863
 10
2893.39
 20
1482.8745052885545
 10
2892.49
 20
1482.0239825868807
 10
2891.5899999999997
 20
1481.1840579157051
 10
2890.6899999999996
 20
1480.3547301205333
 10
2889.79
 20
1479.5359980614326
 10
2888.89
 20
1478.727860613041
 10
2887.99
 20
1477.9303166645545
 10
2887.0899999999997
 20
1477.14336511973
 10
2886.1899999999996
 20
1476.3670048968893
 10
2885.29
 20
1475.6012349289053
 10
2884.39
 20
1474.8460541632119
 10
2883.49
 20
1474.1014615617942
 10
2882.5899999999997
 20
1473.3674561011958
 10
2881.6899999999996
 20
1472.6440367725088
 10
2880.79
 20
1471.9312025813786
 10
2879.89
 20
1471.2289525479969
 10
2878.99
 20
1470.537285707107
 10
2878.0899999999997
 20
1469.8562011079991
 10
2877.1899999999996
 20
1469.1856978145063
 10
2876.29
 20
1468.5257749050063
 10
2875.39
 20
1467.8764314724206
 10
2874.49
 20
1467.2376666242133
 10
2873.5899999999997
 20
1466.609479482388
 10
2872.6899999999996
 20
1465.9918691834869
 10
2871.79
 20
1465.3848348785934
 10
2870.89
 20
1464.788375733322
 10
2869.99
 20
1464.2024909278305
 10
2869.0899999999997
 20
1463.6271796568026
 10
2868.1899999999996
 20
1463.0624411294648
 10
2867.29
 20
1462.5082745695706
 10
2866.39
 20
1461.964679215404
 10
2865.49
 20
1461.431654319782
 10
2864.5899999999997
 20
1460.909199150053
 10
2863.6899999999996
 20
1460.397312988086
 10
2862.79
 20
1459.8959951302866
 10
2861.89
 20
1459.4052448875796
 10
2860.99
 20
1458.9250615854194
 10
2860.0899999999997
 20
1458.455444563783
 10
2859.1899999999996
 20
1457.9963931771715
 10
2858.29
 20
1457.5479067946108
 10
2857.39
 20
1457.1099847996422
 10
2856.49
 20
1456.6826265903355
 10
2855.5899999999997
 20
1456.2658315792773
 10
2854.6899999999996
 20
1455.8595991935738
 10
2853.79
 20
1455.4639288748488
 10
2852.89
 20
1455.0788200792433
 10
2851.99
 20
1454.70427227742
 10
2851.0899999999997
 20
1454.3402849545532
 10
2850.1899999999996
 20
1453.9868576103356
 10
2849.29
 20
1453.6439897589696
 10
2848.39
 20
1453.3116809291814
 10
2847.49
 20
1452.9899306642005
 10
2846.5899999999997
 20
1452.6787385217772
 10
2845.6899999999996
 20
1452.3781040741694
 10
2844.79
 20
1452.0880269081495
 10
2843.89
 20
1451.808506625
 10
2842.99
 20
1451.5395428405127
 10
2842.0899999999997
 20
1451.2811351849937
 10
2841.1899999999996
 20
1451.0332833032526
 10
2840.29
 20
1450.7959868546138
 10
2839.39
 20
1450.5692455129083
 10
2838.49
 20
1450.3530589664736
 10
2837.5899999999997
 20
1450.1474269181585
 10
2836.6899999999996
 20
1449.952349085315
 10
2835.79
 20
1449.7678251998057
 10
2834.89
 20
1449.593855007998
 10
2833.99
 20
1449.4304382707678
 10
2833.0899999999997
 20
1449.2775747634926
 10
2832.1899999999996
 20
1449.1352642760603
 10
2831.29
 20
1449.00350661286
 10
2830.39
 20
1448.8823015927899
 10
2829.49
 20
1448.7716490492494
 10
2828.5899999999997
 20
1448.6715488301445
 10
2827.6899999999996
 20
1448.5820007978866
 10
2826.79
 20
1448.5030048293877
 10
2825.89
 20
1448.4345608160681
 10
2824.99
 20
1448.3766686638496
 10
2824.0899999999997
 20
1448.3293282931577
 10
2823.1899999999996
 20
1448.2925396389228
 10
2822.29
 20
1448.2663026505766
 10
2821.39
 20
1448.2506172920562
 10
2820.49
 20
1448.2454835418043
 10
2819.5899999999997
 20
1448.2509013927606
 10
2818.6899999999996
 20
1448.266870852374
 10
2817.79
 20
1448.2933919425939
 10
2816.89
 20
1448.3304646998752
 10
2815.99
 20
1448.378089175177
 10
2815.0899999999997
 20
1448.4362654339548
 10
2814.1899999999996
 20
1448.5049935561792
 10
2813.29
 20
1448.5842736363138
 10
2812.39
 20
1448.6741057833335
 10
2811.49
 20
1448.7744901207147
 10
2810.5899999999997
 20
1448.8854267864351
 10
2809.6899999999996
 20
1449.0069159329826
 10
2808.79
 20
1449.1389577273455
 10
2807.89
 20
1449.2815523510183
 10
2806.99
 20
1449.4347000000007
  0
LWPOLYLINE
  5
452
330
17
100
AcDbEntity
  8
0
 62
10
100
AcDbPolyline
 90
101
 70
0
 43
0.3
 10
2970.99
 20
1500.532
 10
2970.25
 20
1500.0370977397165
 10
2969.5099999999998
 20
1499.5493445887332
 10
2968.77
 20
1499.0687400938114
 10
2968.0299999999997
 20
1498.595283808348
 10
2967.29
 20
1498.1289752923885
 10
2966.5499999999997
 20
1497.669814112618
 10
2965.81
 20
1497.2177998423638
 10
2965.0699999999997
 20
1496.7729320615927
 10
2964.33
 20
1496.3352103569152
 10
2963.5899999999997
 20
1495.904634321579
 10
2962.85
 20
1495.481203555474
 10
2962.1099999999997
 20
1495.0649176651314
 10
2961.37
 20
1494.6557762637178
 10
2960.6299999999997
 20
1494.2537789710411
 10
2959.89
 20
1493.8589254135481
 10
2959.1499999999996
 20
1493.4712152243217
 10
2958.41
 20
1493.0906480430867
 10
2957.6699999999996
 20
1492.717223516201
 10
2956.93
 20
1492.3509412966632
 10
2956.1899999999996
 20
1491.9918010441058
 10
2955.45
 20
1491.639802424802
 10
2954.7099999999996
 20
1491.2949451116576
 10
2953.97
 20
1490.9572287842143
 10
2953.2299999999996
 20
1490.6266531286544
 10
2952.49
 20
1490.3032178377898
 10
2951.75
 20
1489.9869226110704
 10
2951.0099999999998
 20
1489.6777671545815
 10
2950.27
 20
1489.375751181041
 10
2949.5299999999997
 20
1489.0808744098026
 10
2948.79
 20
1488.7931365668526
 10
2948.0499999999997
 20
1488.5125373848136
 10
2947.31
 20
1488.239076602941
 10
2946.5699999999997
 20
1487.9727539671198
 10
2945.83
 20
1487.7135692298734
 10
2945.0899999999997
 20
1487.461522150356
 10
2944.35
 20
1487.2166124943528
 10
2943.6099999999997
 20
1486.9788400342832
 10
2942.87
 20
1486.7482045491993
 10
2942.1299999999997
 20
1486.5247058247842
 10
2941.39
 20
1486.3083436533502
 10
2940.6499999999996
 20
1486.0991178338488
 10
2939.91
 20
1485.8970281718532
 10
2939.1699999999996
 20
1485.7020744795761
 10
2938.43
 20
1485.514256575856
 10
2937.6899999999996
 20
1485.3335742861648
 10
2936.95
 20
1485.1600274426057
 10
2936.2099999999996
 20
1484.9936158839084
 10
2935.47
 20
1484.834339455436
 10
2934.7299999999996
 20
1484.6821980091847
 10
2933.99
 20
1484.537191403777
 10
2933.25
 20
1484.3993195044634
 10
2932.5099999999998
 20
1484.2685821831294
 10
2931.77
 20
1484.1449793182892
 10
2931.0299999999997
 20
1484.028510795084
 10
2930.29
 20
1483.9191765052858
 10
2929.5499999999997
 20
1483.8169763472958
 10
2928.81
 20
1483.721910226147
 10
2928.0699999999997
 20
1483.6339780534981
 10
2927.33
 20
1483.5531797476392
 10
2926.5899999999997
 20
1483.4795152334902
 10
2925.85
 20
1483.4129844425966
 10
2925.1099999999997
 20
1483.353587313135
 10
2924.37
 20
1483.3013237899124
 10
2923.6299999999997
 20
1483.2561938243632
 10
2922.89
 20
1483.2181973745485
 10
2922.1499999999996
 20
1483.1873344051628
 10
2921.41
 20
1483.1636048875266
 10
2920.6699999999996
 20
1483.147008799587
 10
2919.93
 20
1483.1375461259247
 10
2919.1899999999996
 20
1483.1352168577457
 10
2918.45
 20
1483.1400209928856
 10
2917.7099999999996
 20
1483.1519585358085
 10
2916.97
 20
1483.1710294976072
 10
2916.2299999999996
 20
1483.1972338960024
 10
2915.49
 20
1483.230571755347
 10
2914.75
 20
1483.2710431066173
 10
2914.0099999999998
 20
1483.3186479874223
 10
2913.27
 20
1483.3733864419983
 10
2912.5299999999997
 20
1483.4352585212118
 10
2911.79
 20
1483.5042642825558
 10
2911.0499999999997
 20
1483.580403790153
 10
2910.31
 20
1483.6636771147569
 10
2909.5699999999997
 20
1483.7540843337506
 10
2908.83
 20
1483.8516255311404
 10
2908.0899999999997
 20
1483.9563007975682
 10
2907.35
 20
1484.0681102303024
 10
2906.6099999999997
 20
1484.1870539332413
 10
2905.87
 20
1484.3131320169139
 10
2905.1299999999997
 20
1484.4463445984766
 10
2904.39
 20
1484.5866918017164
 10
2903.6499999999996
 20
1484.7341737570512
 10
2902.91
 20
1484.8887906015254
 10
2902.1699999999996
 20
1485.050542478817
 10
2901.43
 20
1485.219429539235
 10
2900.6899999999996
 20
1485.3954519397153
 10
2899.95
 20
1485.5786098438248
 10
2899.2099999999996
 20
1485.7689034217635
 10
2898.47
 20
1485.9663328503607
 10
2897.7299999999996
 20
1486.1708983130757
 10
2896.99
 20
1486.3826000000001
  0
LWPOLYLINE
  5
453
330
17
100
AcDbEntity
  8
0
 62
10
100
AcDbPolyline
 90
101
 70
0
 43
0.3
 10
3044.99
 20
1514.9954
 10
3044.25
 20
1514.4973524860463
 10
3043.5099999999998
 20
1514.006454282893
 10
3042.77
 20
1513.522704934375
 10
3042.0299999999997
 20
1513.046103990971
 10
3041.29
 20
1512.5766510098028
 10
3040.5499999999997
 20
1512.114345554633
 10
3039.81
 20
1511.659187195868
 10
3039.0699999999997
 20
1511.2111755105523
 10
3038.33
 20
1510.7703100823744
 10
3037.5899999999997
 20
1510.3365905016617
 10
3036.85
 20
1509.910016365385
 10
3036.1099999999997
 20
1509.4905872771517
 10
3035.37
 20
1509.078302847207
 10
3034.6299999999997
 20
1508.6731626924407
 10
3033.89
 20
1508.2751664363764
 10
3033.1499999999996
 20
1507.8843137091799
 10
3032.41
 20
1507.5006041476518
 10
3031.6699999999996
 20
1507.124037395235
 10
3030.93
 20
1506.7546131020026
 10
3030.1899999999996
 20
1506.392330924673
 10
3029.45
 20
1506.037190526594
 10
3028.7099999999996
 20
1505.6891915777553
 10
3027.97
 20
1505.3483337547818
 10
3027.2299999999996
 20
1505.0146167409314
 10
3026.49
 20
1504.6880402260986
 10
3025.75
 20
1504.3686039068157
 10
3025.0099999999998
 20
1504.0563074862462
 10
3024.27
 20
1503.751150674194
 10
3023.5299999999997
 20
1503.4531331870899
 10
3022.79
 20
1503.1622547480047
 10
3022.0499999999997
 20
1502.8785150866408
 10
3021.31
 20
1502.6019139393352
 10
3020.5699999999997
 20
1502.3324510490554
 10
3019.83
 20
1502.070126165408
 10
3019.0899999999997
 20
1501.8149390446251
 10
3018.35
 20
1501.5668894495798
 10
3017.6099999999997
 20
1501.325977149769
 10
3016.87
 20
1501.0922019213306
 10
3016.1299999999997
 20
1500.865563547026
 10
3015.39
 20
1500.6460618162548
 10
3014.6499999999996
 20
1500.4336965250461
 10
3013.91
 20
1500.2284674760606
 10
3013.1699999999996
 20
1500.0303744785913
 10
3012.43
 20
1499.8394173485594
 10
3011.6899999999996
 20
1499.6555959085197
 10
3010.95
 20
1499.4789099876562
 10
3010.2099999999996
 20
1499.3093594217867
 10
3009.47
 20
1499.1469440533565
 10
3008.7299999999996
 20
1498.9916637314395
 10
3007.99
 20
1498.8435183117465
 10
3007.25
 20
1498.70250765661
 10
3006.5099999999998
 20
1498.5686316350007
 10
3005.77
 20
1498.4418901225108
 10
3005.0299999999997
 20
1498.3222830013708
 10
3004.29
 20
1498.2098101604324
 10
3003.5499999999997
 20
1498.104471495182
 10
3002.81
 20
1498.0062669077363
 10
3002.0699999999997
 20
1497.9151963068377
 10
3001.33
 20
1497.8312596078579
 10
3000.5899999999997
 20
1497.7544567328018
 10
2999.85
 20
1497.684787610299
 10
2999.1099999999997
 20
1497.622252175611
 10
2998.37
 20
1497.5668503706252
 10
2997.6299999999997
 20
1497.5185821438622
 10
2996.89
 20
1497.477447450466
 10
2996.1499999999996
 20
1497.4434462522154
 10
2995.41
 20
1497.416578517515
 10
2994.6699999999996
 20
1497.3968442213952
 10
2993.93
 20
1497.3842433455202
 10
2993.1899999999996
 20
1497.3787758781798
 10
2992.45
 20
1497.3804418142947
 10
2991.7099999999996
 20
1497.3892411554104
 10
2990.97
 20
1497.4051739097076
 10
2990.2299999999996
 20
1497.428240091988
 10
2989.49
 20
1497.4584397236865
 10
2988.75
 20
1497.4957728328682
 10
2988.0099999999998
 20
1497.5402394542223
 10
2987.27
 20
1497.59183962907
 10
2986.5299999999997
 20
1497.65057340536
 10
2985.79
 20
1497.716440837672
 10
2985.0499999999997
 20
1497.7894419872105
 10
2984.31
 20
1497.869576921813
 10
2983.5699999999997
 20
1497.9568457159437
 10
2982.83
 20
1498.0512484506978
 10
2982.0899999999997
 20
1498.1527852137979
 10
2981.35
 20
1498.2614560995953
 10
2980.6099999999997
 20
1498.3772612090736
 10
2979.87
 20
1498.5002006498437
 10
2979.1299999999997
 20
1498.6302745361459
 10
2978.39
 20
1498.7674829888517
 10
2977.6499999999996
 20
1498.9118261354597
 10
2976.91
 20
1499.0633041101014
 10
2976.1699999999996
 20
1499.221917053536
 10
2975.43
 20
1499.387665113153
 10
2974.6899999999996
 20
1499.560548442975
 10
2973.95
 20
1499.7405672036527
 10
2973.2099999999996
 20
1499.9277215624666
 10
2972.47
 20
1500.1220116933268
 10
2971.7299999999996
 20
1500.32343777678
 10
2970.99
 20
1500.5320000000004
  0
LWPOLYLINE
  5
454
330
17
100
AcDbEntity
  8
0
 62
10
100
AcDbPolyline
 90
101
 70
0
 43
0.3
 10
3120.35
 20
1516.7983
 10
3119.5964
 20
1516.4139101194705
 10
3118.8428
 20
1516.036927685593
 10
3118.0892
 20
1515.6673523350655
 10
3117.3356
 20
1515.3051837117227
 10
3116.582
 20
1514.9504214665367
 10
3115.8284
 20
1514.6030652576192
 10
3115.0748
 20
1514.2631147502161
 10
3114.3212
 20
1513.9305696167135
 10
3113.5676
 20
1513.605429536632
 10
3112.814
 20
1513.28769419663
 10
3112.0604
 20
1512.9773632905021
 10
3111.3068
 20
1512.674436519177
 10
3110.5532
 20
1512.3789135907184
 10
3109.7996
 20
1512.0907942203298
 10
3109.046
 20
1511.810078130344
 10
3108.2924
 20
1511.5367650502299
 10
3107.5388
 20
1511.2708547165937
 10
3106.7852
 20
1511.012346873175
 10
3106.0316
 20
1510.7612412708418
 10
3105.278
 20
1510.5175376676043
 10
3104.5244
 20
1510.2812358285971
 10
3103.7708
 20
1510.0523355260975
 10
3103.0172
 20
1509.8308365395092
 10
3102.2635999999998
 20
1509.6167386553693
 10
3101.5099999999998
 20
1509.4100416673502
 10
3100.7563999999998
 20
1509.2107453762526
 10
3100.0027999999998
 20
1509.0188495900143
 10
3099.2491999999997
 20
1508.8343541237011
 10
3098.4955999999997
 20
1508.6572587995129
 10
3097.7419999999997
 20
1508.4875634467805
 10
3096.9883999999997
 20
1508.3252679019643
 10
3096.2347999999997
 20
1508.1703720086605
 10
3095.4811999999997
 20
1508.0228756175907
 10
3094.7275999999997
 20
1507.8827785866117
 10
3093.9739999999997
 20
1507.7500807807107
 10
3093.2203999999997
 20
1507.624782072004
 10
3092.4667999999997
 20
1507.5068823397412
 10
3091.7131999999997
 20
1507.3963814702972
 10
3090.9595999999997
 20
1507.2932793571845
 10
3090.2059999999997
 20
1507.1975759010384
 10
3089.4523999999997
 20
1507.10927100963
 10
3088.6987999999997
 20
1507.0283645978586
 10
3087.9451999999997
 20
1506.9548565877549
 10
3087.1915999999997
 20
1506.8887469084752
 10
3086.4379999999996
 20
1506.8300354963103
 10
3085.6843999999996
 20
1506.7787222946797
 10
3084.9307999999996
 20
1506.7348072541317
 10
3084.1771999999996
 20
1506.6982903323424
 10
3083.4235999999996
 20
1506.6691714941232
 10
3082.67
 20
1506.6474507114106
 10
3081.9164
 20
1506.633127963273
 10
3081.1628
 20
1506.6262032359052
 10
3080.4092
 20
1506.626676522634
 10
3079.6556
 20
1506.634547823918
 10
3078.902
 20
1506.6498171473404
 10
3078.1484
 20
1506.672484507617
 10
3077.3948
 20
1506.7025499265942
 10
3076.6412
 20
1506.7400134332445
 10
3075.8876
 20
1506.7848750636736
 10
3075.134
 20
1506.837134861113
 10
3074.3804
 20
1506.8967928759293
 10
3073.6268
 20
1506.9638491656128
 10
3072.8732
 20
1507.038303794789
 10
3072.1196
 20
1507.1201568352094
 10
3071.366
 20
1507.2094083657582
 10
3070.6124
 20
1507.3060584724478
 10
3069.8588
 20
1507.4101072484195
 10
3069.1052
 20
1507.52155479395
 10
3068.3516
 20
1507.6404012164417
 10
3067.598
 20
1507.7666466304263
 10
3066.8444
 20
1507.900291157572
 10
3066.0908
 20
1508.0413349266719
 10
3065.3372
 20
1508.1897780736515
 10
3064.5836
 20
1508.345620741569
 10
3063.83
 20
1508.5088630806115
 10
3063.0764
 20
1508.6795052480975
 10
3062.3228
 20
1508.8575474084794
 10
3061.5692
 20
1509.0429897333358
 10
3060.8156
 20
1509.235832401383
 10
3060.062
 20
1509.4360755984665
 10
3059.3084
 20
1509.6437195175606
 10
3058.5548
 20
1509.8587643587766
 10
3057.8012
 20
1510.0812103293574
 10
3057.0476
 20
1510.311057643676
 10
3056.294
 20
1510.5483065232388
 10
3055.5404
 20
1510.792957196688
 10
3054.7868
 20
1511.0450098997949
 10
3054.0332
 20
1511.3044648754685
 10
3053.2796
 20
1511.5713223737475
 10
3052.526
 20
1511.8455826518077
 10
3051.7724
 20
1512.1272459739585
 10
3051.0188
 20
1512.4163126116405
 10
3050.2652
 20
1512.7127828434318
 10
3049.5116
 20
1513.0166569550474
 10
3048.758
 20
1513.3279352393338
 10
3048.0044
 20
1513.6466179962727
 10
3047.2508
 20
1513.972705532986
 10
3046.4972
 20
1514.3061981637281
 10
3045.7436
 20
1514.6470962098897
 10
3044.99
 20
1514.9954
  0
LWPOLYLINE
  5
455
330
17
100
AcDbEntity
  8
0
 62
10
100
AcDbPolyline
 90
101
 70
0
 43
0.3
 10
3200.35
 20
1520.8203
 10
3199.5499999999997
 20
1520.3671716039446
 10
3198.75
 20
1519.922393393202
 10
3197.95
 20
1519.4859648847228
 10
3197.15
 20
1519.0578856045279
 10
3196.35
 20
1518.6381550877043
 10
3195.5499999999997
 20
1518.2267728784086
 10
3194.75
 20
1517.8237385298607
 10
3193.95
 20
1517.4290516043507
 10
3193.15
 20
1517.0427116732294
 10
3192.35
 20
1516.6647183169162
 10
3191.5499999999997
 20
1516.2950711248948
 10
3190.75
 20
1515.9337696957139
 10
3189.95
 20
1515.5808136369837
 10
3189.15
 20
1515.236202565379
 10
3188.35
 20
1514.8999361066376
 10
3187.5499999999997
 20
1514.5720138955617
 10
3186.75
 20
1514.252435576012
 10
3185.95
 20
1513.9412008009137
 10
3185.15
 20
1513.638309232252
 10
3184.35
 20
1513.3437605410757
 10
3183.5499999999997
 20
1513.057554407491
 10
3182.75
 20
1512.779690520668
 10
3181.95
 20
1512.5101685788325
 10
3181.15
 20
1512.2489882892735
 10
3180.35
 20
1511.996149368339
 10
3179.5499999999997
 20
1511.7516515414331
 10
3178.75
 20
1511.5154945430224
 10
3177.95
 20
1511.2876781166317
 10
3177.15
 20
1511.0682020148406
 10
3176.35
 20
1510.8570659992897
 10
3175.5499999999997
 20
1510.6542698406759
 10
3174.75
 20
1510.459813318754
 10
3173.95
 20
1510.2736962223385
 10
3173.15
 20
1510.0959183492948
 10
3172.35
 20
1509.9264795065515
 10
3171.5499999999997
 20
1509.7653795100885
 10
3170.75
 20
1509.6126181849465
 10
3169.95
 20
1509.4681953652196
 10
3169.15
 20
1509.3321108940577
 10
3168.35
 20
1509.2043646236689
 10
3167.5499999999997
 20
1509.0849564153152
 10
3166.75
 20
1508.9738861393125
 10
3165.95
 20
1508.8711536750352
 10
3165.15
 20
1508.7767589109112
 10
3164.35
 20
1508.6907017444246
 10
3163.5499999999997
 20
1508.6129820821134
 10
3162.75
 20
1508.5435998395692
 10
3161.95
 20
1508.482554941441
 10
3161.15
 20
1508.4298473214324
 10
3160.35
 20
1508.3854769223
 10
3159.5499999999997
 20
1508.3494436958565
 10
3158.75
 20
1508.3217476029656
 10
3157.95
 20
1508.3023886135522
 10
3157.15
 20
1508.291366706588
 10
3156.35
 20
1508.2886818701047
 10
3155.5499999999997
 20
1508.2943341011865
 10
3154.75
 20
1508.3083234059693
 10
3153.95
 20
1508.330649799651
 10
3153.15
 20
1508.361313306475
 10
3152.35
 20
1508.400313959743
 10
3151.5499999999997
 20
1508.4476518018148
 10
3150.75
 20
1508.503326884099
 10
3149.95
 20
1508.5673392670606
 10
3149.15
 20
1508.6396890202193
 10
3148.35
 20
1508.720376222153
 10
3147.5499999999997
 20
1508.8094009604881
 10
3146.75
 20
1508.9067633319114
 10
3145.95
 20
1509.0124634421625
 10
3145.15
 20
1509.1265014060332
 10
3144.35
 20
1509.2488773473772
 10
3143.5499999999997
 20
1509.379591399099
 10
3142.75
 20
1509.5186437031577
 10
3141.95
 20
1509.6660344105705
 10
3141.15
 20
1509.8217636814122
 10
3140.35
 20
1509.985831684809
 10
3139.5499999999997
 20
1510.1582385989464
 10
3138.75
 20
1510.3389846110647
 10
3137.95
 20
1510.5280699174639
 10
3137.15
 20
1510.7254947234962
 10
3136.35
 20
1510.9312592435742
 10
3135.5499999999997
 20
1511.1453637011664
 10
3134.75
 20
1511.3678083288005
 10
3133.95
 20
1511.5985933680595
 10
3133.15
 20
1511.8377190695853
 10
3132.35
 20
1512.08518569308
 10
3131.5499999999997
 20
1512.3409935073014
 10
3130.75
 20
1512.6051427900675
 10
3129.95
 20
1512.877633828257
 10
3129.15
 20
1513.158466917804
 10
3128.35
 20
1513.4476423637077
 10
3127.5499999999997
 20
1513.7451604800249
 10
3126.75
 20
1514.0510215898692
 10
3125.95
 20
1514.3652260254216
 10
3125.15
 20
1514.687774127922
 10
3124.35
 20
1515.0186662476685
 10
3123.5499999999997
 20
1515.3579027440258
 10
3122.75
 20
1515.705483985418
 10
3121.95
 20
1516.061410349332
 10
3121.15
 20
1516.4256822223217
 10
3120.35
 20
1516.7982999999988
  0
LWPOLYLINE
  5
456
330
17
100
AcDbEntity
  8
0
 62
10
100
AcDbPolyline
 90
101
 70
0
 43
0.3
 10
3276.35
 20
1530.6558
 10
3275.5899999999997
 20
1530.1847387517778
 10
3274.83
 20
1529.7212159160529
 10
3274.0699999999997
 20
1529.265231038501
 10
3273.31
 20
1528.816783672187
 10
3272.5499999999997
 20
1528.375873377563
 10
3271.79
 20
1527.9424997224723
 10
3271.0299999999997
 20
1527.5166622821387
 10
3270.27
 20
1527.0983606391799
 10
3269.5099999999998
 20
1526.687594383595
 10
3268.75
 20
1526.28436311277
 10
3267.99
 20
1525.888666431477
 10
3267.23
 20
1525.5005039518721
 10
3266.47
 20
1525.1198752934986
 10
3265.71
 20
1524.7467800832792
 10
3264.95
 20
1524.3812179555268
 10
3264.19
 20
1524.0231885519324
 10
3263.43
 20
1523.672691521572
 10
3262.67
 20
1523.3297265209064
 10
3261.91
 20
1522.994293213778
 10
3261.15
 20
1522.6663912714089
 10
3260.39
 20
1522.3460203724062
 10
3259.63
 20
1522.033180202758
 10
3258.87
 20
1521.7278704558335
 10
3258.11
 20
1521.43009083238
 10
3257.35
 20
1521.1398410405297
 10
3256.5899999999997
 20
1520.8571207957914
 10
3255.83
 20
1520.58192982106
 10
3255.0699999999997
 20
1520.314267846604
 10
3254.31
 20
1520.0541346100729
 10
3253.5499999999997
 20
1519.8015298564962
 10
3252.79
 20
1519.5564533382853
 10
3252.0299999999997
 20
1519.3189048152258
 10
3251.27
 20
1519.0888840544844
 10
3250.5099999999998
 20
1518.8663908306055
 10
3249.75
 20
1518.6514249255104
 10
3248.99
 20
1518.4439861285007
 10
3248.23
 20
1518.2440742362558
 10
3247.47
 20
1518.0516890528302
 10
3246.71
 20
1517.8668303896563
 10
3245.95
 20
1517.6894980655463
 10
3245.19
 20
1517.519691906687
 10
3244.43
 20
1517.3574117466403
 10
3243.67
 20
1517.2026574263487
 10
3242.91
 20
1517.0554287941304
 10
3242.15
 20
1516.915725705676
 10
3241.39
 20
1516.7835480240562
 10
3240.63
 20
1516.658895619718
 10
3239.87
 20
1516.541768370481
 10
3239.11
 20
1516.4321661615447
 10
3238.35
 20
1516.3300888854794
 10
3237.5899999999997
 20
1516.2355364422367
 10
3236.83
 20
1516.148508739139
 10
3236.0699999999997
 20
1516.0690056908866
 10
3235.31
 20
1515.9970272195524
 10
3234.5499999999997
 20
1515.9325732545894
 10
3233.79
 20
1515.8756437328225
 10
3233.0299999999997
 20
1515.8262385984494
 10
3232.27
 20
1515.7843578030484
 10
3231.5099999999998
 20
1515.7500013055687
 10
3230.75
 20
1515.7231690723354
 10
3229.99
 20
1515.7038610770492
 10
3229.23
 20
1515.6920773007862
 10
3228.47
 20
1515.6878177319952
 10
3227.71
 20
1515.6910823665012
 10
3226.95
 20
1515.701871207504
 10
3226.19
 20
1515.7201842655784
 10
3225.43
 20
1515.746021558675
 10
3224.67
 20
1515.779383112118
 10
3223.91
 20
1515.8202689586058
 10
3223.15
 20
1515.8686791382133
 10
3222.39
 20
1515.9246136983904
 10
3221.63
 20
1515.9880726939616
 10
3220.87
 20
1516.0590561871254
 10
3220.11
 20
1516.137564247458
 10
3219.35
 20
1516.223596951907
 10
3218.5899999999997
 20
1516.317154384798
 10
3217.83
 20
1516.418236637835
 10
3217.0699999999997
 20
1516.5268438100893
 10
3216.31
 20
1516.642976008016
 10
3215.5499999999997
 20
1516.7666333454408
 10
3214.79
 20
1516.8978159435671
 10
3214.0299999999997
 20
1517.0365239309745
 10
3213.27
 20
1517.1827574436174
 10
3212.5099999999998
 20
1517.336516624827
 10
3211.75
 20
1517.49780162531
 10
3210.99
 20
1517.6666126031523
 10
3210.23
 20
1517.8429497238133
 10
3209.47
 20
1518.0268131601317
 10
3208.71
 20
1518.2182030923182
 10
3207.95
 20
1518.4171197079675
 10
3207.19
 20
1518.623563202048
 10
3206.43
 20
1518.8375337769057
 10
3205.67
 20
1519.059031642262
 10
3204.91
 20
1519.2880570152222
 10
3204.15
 20
1519.5246101202638
 10
3203.39
 20
1519.768691189247
 10
3202.63
 20
1520.0203004614068
 10
3201.87
 20
1520.2794381833596
 10
3201.11
 20
1520.5461046090988
 10
3200.35
 20
1520.8203
  0
LWPOLYLINE
  5
457
330
17
100
AcDbEntity
  8
0
 62
10
100
AcDbPolyline
 90
101
 70
0
 43
0.3
 10
3276.35
 20
1530.6558
 10
3277.1142999999997
 20
1530.2231212413544
 10
3277.8786
 20
1529.7980640395692
 10
3278.6429
 20
1529.3806279732962
 10
3279.4072
 20
1528.9708126287417
 10
3280.1715
 20
1528.568617599664
 10
3280.9357999999997
 20
1528.174042487379
 10
3281.7001
 20
1527.7870869007527
 10
3282.4644
 20
1527.4077504562058
 10
3283.2287
 20
1527.0360327777119
 10
3283.993
 20
1526.6719334967956
 10
3284.7572999999998
 20
1526.315452252535
 10
3285.5216
 20
1525.9665886915595
 10
3286.2859
 20
1525.625342468048
 10
3287.0502
 20
1525.2917132437308
 10
3287.8145
 20
1524.9657006878901
 10
3288.5788
 20
1524.6473044773604
 10
3289.3431
 20
1524.3365242965194
 10
3290.1074
 20
1524.0333598373004
 10
3290.8717
 20
1523.737810799183
 10
3291.636
 20
1523.4498768891963
 10
3292.4003
 20
1523.169557821922
 10
3293.1646
 20
1522.896853319481
 10
3293.9289
 20
1522.6317631115537
 10
3294.6932
 20
1522.3742869353584
 10
3295.4575
 20
1522.124424535666
 10
3296.2218
 20
1521.882175664797
 10
3296.9861
 20
1521.6475400826137
 10
3297.7504
 20
1521.4205175565266
 10
3298.5147
 20
1521.2011078614962
 10
3299.279
 20
1520.9893107800249
 10
3300.0433
 20
1520.785126102166
 10
3300.8076
 20
1520.5885536255128
 10
3301.5719
 20
1520.399593155212
 10
3302.3362
 20
1520.2182445039473
 10
3303.1005
 20
1520.0445074919562
 10
3303.8648
 20
1519.8783819470152
 10
3304.6291
 20
1519.719867704449
 10
3305.3934
 20
1519.5689646071248
 10
3306.1577
 20
1519.425672505457
 10
3306.922
 20
1519.289991257405
 10
3307.6863
 20
1519.1619207284705
 10
3308.4506
 20
1519.0414607916994
 10
3309.2149
 20
1518.9286113276833
 10
3309.9792
 20
1518.823372224557
 10
3310.7435
 20
1518.725743378001
 10
3311.5078
 20
1518.6357246912348
 10
3312.2721
 20
1518.5533160750294
 10
3313.0364
 20
1518.4785174476933
 10
3313.8007000000002
 20
1518.4113287350785
 10
3314.565
 20
1518.3517498705855
 10
3315.3293
 20
1518.299780795154
 10
3316.0936
 20
1518.255421457269
 10
3316.8579
 20
1518.2186718129553
 10
3317.6222000000002
 20
1518.1895318257887
 10
3318.3865
 20
1518.1680014668786
 10
3319.1508
 20
1518.1540807148865
 10
3319.9151
 20
1518.1477695560102
 10
3320.6794
 20
1518.149067983996
 10
3321.4437000000003
 20
1518.1579760001289
 10
3322.208
 20
1518.1744936132386
 10
3322.9723
 20
1518.1986208397025
 10
3323.7366
 20
1518.2303577034331
 10
3324.5009
 20
1518.2697042358932
 10
3325.2652000000003
 20
1518.316660476084
 10
3326.0295
 20
1518.3712264705534
 10
3326.7938
 20
1518.4334022733913
 10
3327.5581
 20
1518.5031879462306
 10
3328.3224
 20
1518.580583558248
 10
3329.0867000000003
 20
1518.665589186165
 10
3329.851
 20
1518.758204914244
 10
3330.6153
 20
1518.858430834293
 10
3331.3796
 20
1518.9662670456642
 10
3332.1439
 20
1519.0817136552528
 10
3332.9082000000003
 20
1519.2047707774982
 10
3333.6725
 20
1519.3354385343841
 10
3334.4368
 20
1519.4737170554383
 10
3335.2011
 20
1519.6196064777314
 10
3335.9654
 20
1519.7731069458814
 10
3336.7297000000003
 20
1519.934218612051
 10
3337.494
 20
1520.1029416359415
 10
3338.2583
 20
1520.2792761848098
 10
3339.0226000000002
 20
1520.463222433447
 10
3339.7869
 20
1520.6547805641983
 10
3340.5512000000003
 20
1520.8539507669477
 10
3341.3155
 20
1521.0607332391285
 10
3342.0798
 20
1521.2751281857215
 10
3342.8441000000003
 20
1521.497135819247
 10
3343.6084
 20
1521.72675635978
 10
3344.3727000000003
 20
1521.9639900349339
 10
3345.137
 20
1522.208837079876
 10
3345.9013
 20
1522.4612977373133
 10
3346.6656000000003
 20
1522.7213722575084
 10
3347.4299
 20
1522.9890608982641
 10
3348.1942000000004
 20
1523.2643639249327
 10
3348.9585
 20
1523.5472816104161
 10
3349.7228
 20
1523.8378142351655
 10
3350.4871000000003
 20
1524.135962087178
 10
3351.2514
 20
1524.4417254619989
 10
3352.0157000000004
 20
1524.7551046627234
 10
3352.78
 20
1525.0760999999993
  0
LWPOLYLINE
  5
458
330
17
100
AcDbEntity
  8
0
 62
10
100
AcDbPolyline
 90
101
 70
0
 43
0.3
 10
3352.78
 20
1525.0761
 10
3353.5150000000003
 20
1524.6158237281663
 10
3354.25
 20
1524.1625983629738
 10
3354.985
 20
1523.7164234889394
 10
3355.7200000000003
 20
1523.2772986970422
 10
3356.4550000000004
 20
1522.845223584719
 10
3357.19
 20
1522.4201977558798
 10
3357.925
 20
1522.0022208208854
 10
3358.6600000000003
 20
1521.591292396566
 10
3359.395
 20
1521.187412106213
 10
3360.13
 20
1520.7905795795737
 10
3360.8650000000002
 20
1520.4007944528632
 10
3361.6000000000004
 20
1520.0180563687527
 10
3362.335
 20
1519.6423649763744
 10
3363.07
 20
1519.2737199313212
 10
3363.8050000000003
 20
1518.9121208956444
 10
3364.5400000000004
 20
1518.5575675378575
 10
3365.275
 20
1518.21005953293
 10
3366.01
 20
1517.869596562289
 10
3366.7450000000003
 20
1517.5361783138248
 10
3367.48
 20
1517.2098044818829
 10
3368.215
 20
1516.8904747672639
 10
3368.9500000000003
 20
1516.57818887723
 10
3369.6850000000004
 20
1516.272946525501
 10
3370.42
 20
1515.974747432251
 10
3371.155
 20
1515.6835913241111
 10
3371.8900000000003
 20
1515.399477934171
 10
3372.625
 20
1515.1224070019773
 10
3373.36
 20
1514.8523782735278
 10
3374.0950000000003
 20
1514.5893915012796
 10
3374.8300000000004
 20
1514.3334464441457
 10
3375.565
 20
1514.0845428674932
 10
3376.3
 20
1513.8426805431452
 10
3377.0350000000003
 20
1513.6078592493793
 10
3377.77
 20
1513.380078770929
 10
3378.505
 20
1513.1593388989781
 10
3379.2400000000002
 20
1512.9456394311705
 10
3379.9750000000004
 20
1512.7389801716004
 10
3380.71
 20
1512.539360930818
 10
3381.445
 20
1512.346781525826
 10
3382.1800000000003
 20
1512.1612417800802
 10
3382.9150000000004
 20
1511.9827415234915
 10
3383.65
 20
1511.8112805924225
 10
3384.385
 20
1511.6468588296925
 10
3385.1200000000003
 20
1511.4894760845689
 10
3385.855
 20
1511.3391322127748
 10
3386.59
 20
1511.1958270764842
 10
3387.3250000000003
 20
1511.0595605443286
 10
3388.0600000000004
 20
1510.930332491384
 10
3388.795
 20
1510.8081427991865
 10
3389.53
 20
1510.6929913557206
 10
3390.2650000000003
 20
1510.5848780554227
 10
3391.0
 20
1510.4838027991823
 10
3391.735
 20
1510.3897654943405
 10
3392.4700000000003
 20
1510.3027660546923
 10
3393.2050000000004
 20
1510.2228044004785
 10
3393.94
 20
1510.1498804584007
 10
3394.675
 20
1510.0839941616055
 10
3395.4100000000003
 20
1510.025145449692
 10
3396.145
 20
1509.9733342687118
 10
3396.88
 20
1509.9285605711716
 10
3397.6150000000002
 20
1509.8908243160204
 10
3398.3500000000004
 20
1509.8601254686685
 10
3399.085
 20
1509.836464000972
 10
3399.82
 20
1509.819839891239
 10
3400.5550000000003
 20
1509.8102531242312
 10
3401.2900000000004
 20
1509.8077036911595
 10
3402.025
 20
1509.8121915896854
 10
3402.76
 20
1509.8237168239257
 10
3403.4950000000003
 20
1509.842279404443
 10
3404.23
 20
1509.8678793482575
 10
3404.965
 20
1509.9005166788352
 10
3405.7000000000003
 20
1509.9401914260945
 10
3406.4350000000004
 20
1509.9869036264101
 10
3407.17
 20
1510.0406533226
 10
3407.905
 20
1510.1014405639426
 10
3408.6400000000003
 20
1510.1692654061608
 10
3409.375
 20
1510.2441279114328
 10
3410.11
 20
1510.326028148385
 10
3410.8450000000003
 20
1510.4149661921008
 10
3411.5800000000004
 20
1510.5109421241098
 10
3412.315
 20
1510.6139560323988
 10
3413.05
 20
1510.7240080114009
 10
3413.7850000000003
 20
1510.841098162006
 10
3414.52
 20
1510.9652265915522
 10
3415.255
 20
1511.0963934138329
 10
3415.9900000000002
 20
1511.2345987490933
 10
3416.7250000000004
 20
1511.37984272403
 10
3417.46
 20
1511.532125471791
 10
3418.195
 20
1511.6914471319803
 10
3418.9300000000003
 20
1511.8578078506525
 10
3419.6650000000004
 20
1512.0312077803133
 10
3420.4
 20
1512.2116470799256
 10
3421.135
 20
1512.3991259149034
 10
3421.8700000000003
 20
1512.5936444571153
 10
3422.605
 20
1512.795202884878
 10
3423.34
 20
1513.0038013829708
 10
3424.0750000000003
 20
1513.2194401426189
 10
3424.8100000000004
 20
1513.442119361506
 10
3425.545
 20
1513.6718392437695
 10
3426.28
 20
1513.9086000000002
  0
ENDSEC
  0
SECTION
  2
OBJECTS
  0
DICTIONARY
  5
A
330
0
100
AcDbDictionary
280
0
281
1
  3
ACAD_COLOR
350
B
  3
ACAD_GROUP
350
C
  3
ACAD_LAYOUT
350
D
  3
ACAD_MATERIAL
350
E
  3
ACAD_MLEADERSTYLE
350
F
  3
ACAD_MLINESTYLE
350
10
  3
ACAD_PLOTSETTINGS
350
11
  3
ACAD_PLOTSTYLENAME
350
12
  3
ACAD_SCALELIST
350
14
  3
ACAD_TABLESTYLE
350
15
  3
ACAD_VISUALSTYLE
350
16
  3
EZDXF_META
350
2D
  0
DICTIONARY
  5
B
330
A
100
AcDbDictionary
280
0
281
1
  0
DICTIONARY
  5
C
330
A
100
AcDbDictionary
280
0
281
1
  0
DICTIONARY
  5
D
330
A
100
AcDbDictionary
280
0
281
1
  3
Model
350
1A
  3
Layout1
350
1E
  0
DICTIONARY
  5
E
330
A
100
AcDbDictionary
280
0
281
1
  3
ByBlock
350
1F
  3
ByLayer
350
20
  3
Global
350
21
  0
DICTIONARY
  5
F
330
A
100
AcDbDictionary
280
0
281
1
  3
Standard
350
2C
  0
DICTIONARY
  5
10
330
A
100
AcDbDictionary
280
0
281
1
  3
Standard
350
22
  0
DICTIONARY
  5
11
330
A
100
AcDbDictionary
280
0
281
1
  0
ACDBDICTIONARYWDFLT
  5
12
330
A
100
AcDbDictionary
280
0
281
1
  3
Normal
350
13
100
AcDbDictionaryWithDefault
340
13
  0
ACDBPLACEHOLDER
  5
13
330
12
  0
DICTIONARY
  5
14
330
A
100
AcDbDictionary
280
0
281
1
  0
DICTIONARY
  5
15
330
A
100
AcDbDictionary
280
0
281
1
  0
DICTIONARY
  5
16
330
A
100
AcDbDictionary
280
0
281
1
  0
LAYOUT
  5
1A
330
D
100
AcDbPlotSettings
  1

  2
Adobe PDF
  4
A3
  6

 40
7.5
 41
20.0
 42
7.5
 43
20.0
 44
420.0
 45
297.0
 46
0.0
 47
0.0
 48
0.0
 49
0.0
140
0.0
141
0.0
142
1.0
143
1.0
 70
1024
 72
1
 73
0
 74
5
  7

 75
16
 76
0
 77
2
 78
300
147
1.0
148
0.0
149
0.0
100
AcDbLayout
  1
Model
 70
1
 71
0
 10
0.0
 20
0.0
 11
420.0
 21
297.0
 12
0.0
 22
0.0
 32
0.0
 14
1e+20
 24
1e+20
 34
1e+20
 15
-1e+20
 25
-1e+20
 35
-1e+20
146
0.0
 13
0.0
 23
0.0
 33
0.0
 16
1.0
 26
0.0
 36
0.0
 17
0.0
 27
1.0
 37
0.0
 76
1
330
17
  0
LAYOUT
  5
1E
330
D
100
AcDbPlotSettings
  1

  2
Adobe PDF
  4
A3
  6

 40
7.5
 41
20.0
 42
7.5
 43
20.0
 44
420.0
 45
297.0
 46
0.0
 47
0.0
 48
0.0
 49
0.0
140
0.0
141
0.0
142
1.0
143
1.0
 70
0
 72
1
 73
0
 74
5
  7

 75
16
 76
0
 77
2
 78
300
147
1.0
148
0.0
149
0.0
100
AcDbLayout
  1
Layout1
 70
1
 71
1
 10
0.0
 20
0.0
 11
420.0
 21
297.0
 12
0.0
 22
0.0
 32
0.0
 14
1e+20
 24
1e+20
 34
1e+20
 15
-1e+20
 25
-1e+20
 35
-1e+20
146
0.0
 13
0.0
 23
0.0
 33
0.0
 16
1.0
 26
0.0
 36
0.0
 17
0.0
 27
1.0
 37
0.0
 76
1
330
1B
  0
MATERIAL
  5
1F
102
{ACAD_REACTORS
330
E
102
}
330
E
100
AcDbMaterial
  1
ByBlock
  2

 70
0
 40
1.0
 71
1
 41
1.0
 91
-1023410177
 42
1.0
 72
1
  3

 73
1
 74
1
 75
1
 44
0.5
 73
0
 45
1.0
 46
1.0
 77
1
  4

 78
1
 79
1
170
1
 48
1.0
171
1
  6

172
1
173
1
174
1
140
1.0
141
1.0
175
1
  7

176
1
177
1
178
1
143
1.0
179
1
  8

270
1
271
1
272
1
145
1.0
146
1.0
273
1
  9

274
1
275
1
276
1
 42
1.0
 72
1
  3

 73
1
 74
1
 75
1
 94
63
  0
MATERIAL
  5
20
102
{ACAD_REACTORS
330
E
102
}
330
E
100
AcDbMaterial
  1
ByLayer
  2

 70
0
 40
1.0
 71
1
 41
1.0
 91
-1023410177
 42
1.0
 72
1
  3

 73
1
 74
1
 75
1
 44
0.5
 73
0
 45
1.0
 46
1.0
 77
1
  4

 78
1
 79
1
170
1
 48
1.0
171
1
  6

172
1
173
1
174
1
140
1.0
141
1.0
175
1
  7

176
1
177
1
178
1
143
1.0
179
1
  8

270
1
271
1
272
1
145
1.0
146
1.0
273
1
  9

274
1
275
1
276
1
 42
1.0
 72
1
  3

 73
1
 74
1
 75
1
 94
63
  0
MATERIAL
  5
21
102
{ACAD_REACTORS
330
E
102
}
330
E
100
AcDbMaterial
  1
Global
  2

 70
0
 40
1.0
 71
1
 41
1.0
 91
-1023410177
 42
1.0
 72
1
  3

 73
1
 74
1
 75
1
 44
0.5
 73
0
 45
1.0
 46
1.0
 77
1
  4

 78
1
 79
1
170
1
 48
1.0
171
1
  6

172
1
173
1
174
1
140
1.0
141
1.0
175
1
  7

176
1
177
1
178
1
143
1.0
179
1
  8

270
1
271
1
272
1
145
1.0
146
1.0
273
1
  9

274
1
275
1
276
1
 42
1.0
 72
1
  3

 73
1
 74
1
 75
1
 94
63
  0
MLINESTYLE
  5
22
102
{ACAD_REACTORS
330
10
102
}
330
10
100
AcDbMlineStyle
  2
Standard
 70
0
  3

 62
256
 51
90.0
 52
90.0
 71
2
 49
0.5
 62
256
  6
BYLAYER
 49
-0.5
 62
256
  6
BYLAYER
  0
MLEADERSTYLE
  5
2C
102
{ACAD_REACTORS
330
F
102
}
330
F
100
AcDbMLeaderStyle
179
2
170
2
171
1
172
0
 90
2
 40
0.0
 41
0.0
173
1
 91
-1056964608
 92
-2
290
1
 42
2.0
291
1
 43
8.0
  3
Standard
 44
4.0
300

342
29
174
1
175
1
176
0
178
1
 93
-1056964608
 45
4.0
292
0
297
0
 46
4.0
 94
-1056964608
 47
1.0
 49
1.0
140
1.0
294
1
141
0.0
177
0
142
1.0
295
0
296
0
143
3.75
271
0
272
9
273
9
  0
DICTIONARY
  5
2D
330
A
100
AcDbDictionary
281
1
  3
CREATED_BY_EZDXF
350
2E
  3
WRITTEN_BY_EZDXF
350
32
  0
DICTIONARYVAR
  5
2E
330
2D
100
DictionaryVariables
280
0
  1
1.0.3 @ 2023-09-23T20:42:48.239487+00:00
  0
DICTIONARYVAR
  5
32
330
2D
100
DictionaryVariables
280
0
  1
1.0.3 @ 2023-09-24T18:18:06.808760+00:00
  0
ENDSEC
  0
EOF
