  0
SECTION
  2
HEADER
  9
$ACADVER
  1
AC1027
  9
$ACADMAINTVER
 70
105
  9
$DWGCODEPAGE
  3
ANSI_1252
  9
$LASTSAVEDBY
  1
ezdxf
  9
$REQUIREDVERSIONS
160
0
  9
$INSBASE
 10
0.0
 20
0.0
 30
0.0
  9
$EXTMIN
 10
1e+20
 20
1e+20
 30
1e+20
  9
$EXTMAX
 10
-1e+20
 20
-1e+20
 30
-1e+20
  9
$LIMMIN
 10
0.0
 20
0.0
  9
$LIMMAX
 10
420.0
 20
297.0
  9
$ORTHOMODE
 70
0
  9
$REGENMODE
 70
1
  9
$FILLMODE
 70
1
  9
$QTEXTMODE
 70
0
  9
$MIRRTEXT
 70
1
  9
$LTSCALE
 40
1.0
  9
$ATTMODE
 70
1
  9
$TEXTSIZE
 40
2.5
  9
$TRACEWID
 40
1.0
  9
$TEXTSTYLE
  7
Standard
  9
$CLAYER
  8
0
  9
$CELTYPE
  6
ByLayer
  9
$CECOLOR
 62
256
  9
$CELTSCALE
 40
1.0
  9
$DISPSILH
 70
0
  9
$DIMSCALE
 40
1.0
  9
$DIMASZ
 40
2.5
  9
$DIMEXO
 40
0.625
  9
$DIMDLI
 40
3.75
  9
$DIMRND
 40
0.0
  9
$DIMDLE
 40
0.0
  9
$DIMEXE
 40
1.25
  9
$DIMTP
 40
0.0
  9
$DIMTM
 40
0.0
  9
$DIMTXT
 40
2.5
  9
$DIMCEN
 40
2.5
  9
$DIMTSZ
 40
0.0
  9
$DIMTOL
 70
0
  9
$DIMLIM
 70
0
  9
$DIMTIH
 70
0
  9
$DIMTOH
 70
0
  9
$DIMSE1
 70
0
  9
$DIMSE2
 70
0
  9
$DIMTAD
 70
1
  9
$DIMZIN
 70
8
  9
$DIMBLK
  1

  9
$DIMASO
 70
1
  9
$DIMSHO
 70
1
  9
$DIMPOST
  1

  9
$DIMAPOST
  1

  9
$DIMALT
 70
0
  9
$DIMALTD
 70
3
  9
$DIMALTF
 40
0.03937007874
  9
$DIMLFAC
 40
1.0
  9
$DIMTOFL
 70
1
  9
$DIMTVP
 40
0.0
  9
$DIMTIX
 70
0
  9
$DIMSOXD
 70
0
  9
$DIMSAH
 70
0
  9
$DIMBLK1
  1

  9
$DIMBLK2
  1

  9
$DIMSTYLE
  2
ISO-25
  9
$DIMCLRD
 70
0
  9
$DIMCLRE
 70
0
  9
$DIMCLRT
 70
0
  9
$DIMTFAC
 40
1.0
  9
$DIMGAP
 40
0.625
  9
$DIMJUST
 70
0
  9
$DIMSD1
 70
0
  9
$DIMSD2
 70
0
  9
$DIMTOLJ
 70
0
  9
$DIMTZIN
 70
8
  9
$DIMALTZ
 70
0
  9
$DIMALTTZ
 70
0
  9
$DIMUPT
 70
0
  9
$DIMDEC
 70
2
  9
$DIMTDEC
 70
2
  9
$DIMALTU
 70
2
  9
$DIMALTTD
 70
3
  9
$DIMTXSTY
  7
Standard
  9
$DIMAUNIT
 70
0
  9
$DIMADEC
 70
0
  9
$DIMALTRND
 40
0.0
  9
$DIMAZIN
 70
0
  9
$DIMDSEP
 70
44
  9
$DIMATFIT
 70
3
  9
$DIMFRAC
 70
0
  9
$DIMLDRBLK
  1

  9
$DIMLUNIT
 70
2
  9
$DIMLWD
 70
-2
  9
$DIMLWE
 70
-2
  9
$DIMTMOVE
 70
0
  9
$DIMFXL
 40
1.0
  9
$DIMFXLON
 70
0
  9
$DIMJOGANG
 40
0.785398163397
  9
$DIMTFILL
 70
0
  9
$DIMTFILLCLR
 70
0
  9
$DIMARCSYM
 70
0
  9
$DIMLTYPE
  6

  9
$DIMLTEX1
  6

  9
$DIMLTEX2
  6

  9
$DIMTXTDIRECTION
 70
0
  9
$LUNITS
 70
2
  9
$LUPREC
 70
4
  9
$SKETCHINC
 40
1.0
  9
$FILLETRAD
 40
10.0
  9
$AUNITS
 70
0
  9
$AUPREC
 70
2
  9
$MENU
  1
.
  9
$ELEVATION
 40
0.0
  9
$PELEVATION
 40
0.0
  9
$THICKNESS
 40
0.0
  9
$LIMCHECK
 70
0
  9
$CHAMFERA
 40
0.0
  9
$CHAMFERB
 40
0.0
  9
$CHAMFERC
 40
0.0
  9
$CHAMFERD
 40
0.0
  9
$SKPOLY
 70
0
  9
$TDCREATE
 40
2460240.4682754627
  9
$TDUCREATE
 40
2458532.153996898
  9
$TDUPDATE
 40
2460240.4682754627
  9
$TDUUPDATE
 40
2458532.1544311
  9
$TDINDWG
 40
0.0
  9
$TDUSRTIMER
 40
0.0
  9
$USRTIMER
 70
1
  9
$ANGBASE
 50
0.0
  9
$ANGDIR
 70
0
  9
$PDMODE
 70
0
  9
$PDSIZE
 40
0.0
  9
$PLINEWID
 40
0.0
  9
$SPLFRAME
 70
0
  9
$SPLINETYPE
 70
6
  9
$SPLINESEGS
 70
8
  9
$HANDSEED
  5
D2
  9
$SURFTAB1
 70
6
  9
$SURFTAB2
 70
6
  9
$SURFTYPE
 70
6
  9
$SURFU
 70
6
  9
$SURFV
 70
6
  9
$UCSBASE
  2

  9
$UCSNAME
  2

  9
$UCSORG
 10
0.0
 20
0.0
 30
0.0
  9
$UCSXDIR
 10
1.0
 20
0.0
 30
0.0
  9
$UCSYDIR
 10
0.0
 20
1.0
 30
0.0
  9
$UCSORTHOREF
  2

  9
$UCSORTHOVIEW
 70
0
  9
$UCSORGTOP
 10
0.0
 20
0.0
 30
0.0
  9
$UCSORGBOTTOM
 10
0.0
 20
0.0
 30
0.0
  9
$UCSORGLEFT
 10
0.0
 20
0.0
 30
0.0
  9
$UCSORGRIGHT
 10
0.0
 20
0.0
 30
0.0
  9
$UCSORGFRONT
 10
0.0
 20
0.0
 30
0.0
  9
$UCSORGBACK
 10
0.0
 20
0.0
 30
0.0
  9
$PUCSBASE
  2

  9
$PUCSNAME
  2

  9
$PUCSORG
 10
0.0
 20
0.0
 30
0.0
  9
$PUCSXDIR
 10
1.0
 20
0.0
 30
0.0
  9
$PUCSYDIR
 10
0.0
 20
1.0
 30
0.0
  9
$PUCSORTHOREF
  2

  9
$PUCSORTHOVIEW
 70
0
  9
$PUCSORGTOP
 10
0.0
 20
0.0
 30
0.0
  9
$PUCSORGBOTTOM
 10
0.0
 20
0.0
 30
0.0
  9
$PUCSORGLEFT
 10
0.0
 20
0.0
 30
0.0
  9
$PUCSORGRIGHT
 10
0.0
 20
0.0
 30
0.0
  9
$PUCSORGFRONT
 10
0.0
 20
0.0
 30
0.0
  9
$PUCSORGBACK
 10
0.0
 20
0.0
 30
0.0
  9
$USERI1
 70
0
  9
$USERI2
 70
0
  9
$USERI3
 70
0
  9
$USERI4
 70
0
  9
$USERI5
 70
0
  9
$USERR1
 40
0.0
  9
$USERR2
 40
0.0
  9
$USERR3
 40
0.0
  9
$USERR4
 40
0.0
  9
$USERR5
 40
0.0
  9
$WORLDVIEW
 70
1
  9
$SHADEDGE
 70
3
  9
$SHADEDIF
 70
70
  9
$TILEMODE
 70
1
  9
$MAXACTVP
 70
64
  9
$PINSBASE
 10
0.0
 20
0.0
 30
0.0
  9
$PLIMCHECK
 70
0
  9
$PEXTMIN
 10
1e+20
 20
1e+20
 30
1e+20
  9
$PEXTMAX
 10
-1e+20
 20
-1e+20
 30
-1e+20
  9
$PLIMMIN
 10
0.0
 20
0.0
  9
$PLIMMAX
 10
420.0
 20
297.0
  9
$UNITMODE
 70
0
  9
$VISRETAIN
 70
1
  9
$PLINEGEN
 70
0
  9
$PSLTSCALE
 70
1
  9
$TREEDEPTH
 70
3020
  9
$CMLSTYLE
  2
Standard
  9
$CMLJUST
 70
0
  9
$CMLSCALE
 40
20.0
  9
$PROXYGRAPHICS
 70
1
  9
$MEASUREMENT
 70
1
  9
$CELWEIGHT
370
-1
  9
$ENDCAPS
280
0
  9
$JOINSTYLE
280
0
  9
$LWDISPLAY
290
0
  9
$INSUNITS
 70
6
  9
$HYPERLINKBASE
  1

  9
$STYLESHEET
  1

  9
$XEDIT
290
1
  9
$CEPSNTYPE
380
0
  9
$PSTYLEMODE
290
1
  9
$FINGERPRINTGUID
  2
{0EFB460D-F302-4FA0-9C80-23BD9CC10866}
  9
$VERSIONGUID
  2
{BD82D6C2-22C7-4F19-980A-68688B117B08}
  9
$EXTNAMES
290
1
  9
$PSVPSCALE
 40
0.0
  9
$OLESTARTUP
290
0
  9
$SORTENTS
280
127
  9
$INDEXCTL
280
0
  9
$HIDETEXT
280
1
  9
$XCLIPFRAME
280
0
  9
$HALOGAP
280
0
  9
$OBSCOLOR
 70
257
  9
$OBSLTYPE
280
0
  9
$INTERSECTIONDISPLAY
280
0
  9
$INTERSECTIONCOLOR
 70
257
  9
$DIMASSOC
280
2
  9
$PROJECTNAME
  1

  9
$CAMERADISPLAY
290
0
  9
$LENSLENGTH
 40
50.0
  9
$CAMERAHEIGHT
 40
0.0
  9
$STEPSPERSEC
 40
24.0
  9
$STEPSIZE
 40
100.0
  9
$3DDWFPREC
 40
2.0
  9
$PSOLWIDTH
 40
0.005
  9
$PSOLHEIGHT
 40
0.08
  9
$LOFTANG1
 40
1.570796326795
  9
$LOFTANG2
 40
1.570796326795
  9
$LOFTMAG1
 40
0.0
  9
$LOFTMAG2
 40
0.0
  9
$LOFTPARAM
 70
7
  9
$LOFTNORMALS
280
1
  9
$LATITUDE
 40
37.795
  9
$LONGITUDE
 40
-122.394
  9
$NORTHDIRECTION
 40
0.0
  9
$TIMEZONE
 70
-8000
  9
$LIGHTGLYPHDISPLAY
280
1
  9
$TILEMODELIGHTSYNCH
280
1
  9
$CMATERIAL
347
20
  9
$SOLIDHIST
280
0
  9
$SHOWHIST
280
1
  9
$DWFFRAME
280
2
  9
$DGNFRAME
280
2
  9
$REALWORLDSCALE
290
1
  9
$INTERFERECOLOR
 62
256
  9
$CSHADOW
280
0
  9
$SHADOWPLANELOCATION
 40
0.0
  0
ENDSEC
  0
SECTION
  2
CLASSES
  0
CLASS
  1
ACDBDICTIONARYWDFLT
  2
AcDbDictionaryWithDefault
  3
ObjectDBX Classes
 90
0
 91
0
280
0
281
0
  0
CLASS
  1
SUN
  2
AcDbSun
  3
SCENEOE
 90
1153
 91
0
280
0
281
0
  0
CLASS
  1
VISUALSTYLE
  2
AcDbVisualStyle
  3
ObjectDBX Classes
 90
4095
 91
0
280
0
281
0
  0
CLASS
  1
MATERIAL
  2
AcDbMaterial
  3
ObjectDBX Classes
 90
1153
 91
0
280
0
281
0
  0
CLASS
  1
SCALE
  2
AcDbScale
  3
ObjectDBX Classes
 90
1153
 91
0
280
0
281
0
  0
CLASS
  1
TABLESTYLE
  2
AcDbTableStyle
  3
ObjectDBX Classes
 90
4095
 91
0
280
0
281
0
  0
CLASS
  1
MLEADERSTYLE
  2
AcDbMLeaderStyle
  3
ACDB_MLEADERSTYLE_CLASS
 90
4095
 91
0
280
0
281
0
  0
CLASS
  1
DICTIONARYVAR
  2
AcDbDictionaryVar
  3
ObjectDBX Classes
 90
0
 91
0
280
0
281
0
  0
CLASS
  1
CELLSTYLEMAP
  2
AcDbCellStyleMap
  3
ObjectDBX Classes
 90
1152
 91
0
280
0
281
0
  0
CLASS
  1
MENTALRAYRENDERSETTINGS
  2
AcDbMentalRayRenderSettings
  3
SCENEOE
 90
1024
 91
0
280
0
281
0
  0
CLASS
  1
ACDBDETAILVIEWSTYLE
  2
AcDbDetailViewStyle
  3
ObjectDBX Classes
 90
1025
 91
0
280
0
281
0
  0
CLASS
  1
ACDBSECTIONVIEWSTYLE
  2
AcDbSectionViewStyle
  3
ObjectDBX Classes
 90
1025
 91
0
280
0
281
0
  0
CLASS
  1
RASTERVARIABLES
  2
AcDbRasterVariables
  3
ISM
 90
0
 91
0
280
0
281
0
  0
CLASS
  1
ACDBPLACEHOLDER
  2
AcDbPlaceHolder
  3
ObjectDBX Classes
 90
0
 91
0
280
0
281
0
  0
CLASS
  1
LAYOUT
  2
AcDbLayout
  3
ObjectDBX Classes
 90
0
 91
0
280
0
281
0
  0
ENDSEC
  0
SECTION
  2
TABLES
  0
TABLE
  2
VPORT
  5
8
330
0
100
AcDbSymbolTable
 70
1
  0
VPORT
  5
23
330
8
100
AcDbSymbolTableRecord
100
AcDbViewportTableRecord
  2
*Active
 70
0
 10
0.0
 20
0.0
 11
1.0
 21
1.0
 12
0.0
 22
0.0
 13
0.0
 23
0.0
 14
0.5
 24
0.5
 15
0.5
 25
0.5
 16
0.0
 26
0.0
 36
1.0
 17
0.0
 27
0.0
 37
0.0
 40
1000.0
 41
1.34
 42
50.0
 43
0.0
 44
0.0
 50
0.0
 51
0.0
 71
0
 72
1000
 73
1
 74
3
 75
0
 76
0
 77
0
 78
0
281
0
 65
0
146
0.0
  0
ENDTAB
  0
TABLE
  2
LTYPE
  5
2
330
0
100
AcDbSymbolTable
 70
3
  0
LTYPE
  5
24
330
2
100
AcDbSymbolTableRecord
100
AcDbLinetypeTableRecord
  2
ByBlock
 70
0
  3

 72
65
 73
0
 40
0.0
  0
LTYPE
  5
25
330
2
100
AcDbSymbolTableRecord
100
AcDbLinetypeTableRecord
  2
ByLayer
 70
0
  3

 72
65
 73
0
 40
0.0
  0
LTYPE
  5
26
330
2
100
AcDbSymbolTableRecord
100
AcDbLinetypeTableRecord
  2
Continuous
 70
0
  3

 72
65
 73
0
 40
0.0
  0
ENDTAB
  0
TABLE
  2
LAYER
  5
1
330
0
100
AcDbSymbolTable
 70
2
  0
LAYER
  5
27
330
1
100
AcDbSymbolTableRecord
100
AcDbLayerTableRecord
  2
0
 70
0
 62
7
  6
Continuous
370
-3
390
13
347
21
  0
LAYER
  5
28
330
1
100
AcDbSymbolTableRecord
100
AcDbLayerTableRecord
  2
Defpoints
 70
0
 62
7
  6
Continuous
290
0
370
-3
390
13
347
21
  0
ENDTAB
  0
TABLE
  2
STYLE
  5
5
330
0
100
AcDbSymbolTable
 70
1
  0
STYLE
  5
29
330
5
100
AcDbSymbolTableRecord
100
AcDbTextStyleTableRecord
  2
Standard
 70
0
 40
0.0
 41
1.0
 50
0.0
 71
0
 42
2.5
  3
txt
  4

  0
ENDTAB
  0
TABLE
  2
VIEW
  5
7
330
0
100
AcDbSymbolTable
 70
0
  0
ENDTAB
  0
TABLE
  2
UCS
  5
6
330
0
100
AcDbSymbolTable
 70
0
  0
ENDTAB
  0
TABLE
  2
APPID
  5
3
330
0
100
AcDbSymbolTable
 70
3
  0
APPID
  5
2A
330
3
100
AcDbSymbolTableRecord
100
AcDbRegAppTableRecord
  2
ACAD
 70
0
  0
APPID
  5
30
330
3
100
AcDbSymbolTableRecord
100
AcDbRegAppTableRecord
  2
HATCHBACKGROUNDCOLOR
 70
0
  0
APPID
  5
31
330
3
100
AcDbSymbolTableRecord
100
AcDbRegAppTableRecord
  2
EZDXF
 70
0
  0
ENDTAB
  0
TABLE
  2
DIMSTYLE
  5
4
330
0
100
AcDbSymbolTable
 70
1
100
AcDbDimStyleTable
  0
DIMSTYLE
105
2B
330
4
100
AcDbSymbolTableRecord
100
AcDbDimStyleTableRecord
  2
Standard
 70
0
 40
1.0
 41
2.5
 42
0.625
 43
3.75
 44
1.25
 45
0.0
 46
0.0
 47
0.0
 48
0.0
 49
2.5
140
2.5
141
2.5
142
0.0
143
0.03937007874
144
1.0
145
0.0
146
1.0
147
0.625
148
0.0
 69
0
 70
0
 71
0
 72
0
 73
0
 74
0
 75
0
 76
0
 77
1
 78
8
 79
3
170
0
171
3
172
1
173
0
174
0
175
0
176
0
177
0
178
0
179
2
271
2
272
2
273
2
274
3
275
0
276
0
277
2
278
44
279
0
280
0
281
0
282
0
283
0
284
8
285
0
286
0
288
0
289
3
290
0
371
-2
372
-2
  0
ENDTAB
  0
TABLE
  2
BLOCK_RECORD
  5
9
330
0
100
AcDbSymbolTable
 70
2
  0
BLOCK_RECORD
  5
17
330
9
100
AcDbSymbolTableRecord
100
AcDbBlockTableRecord
  2
*Model_Space
340
1A
 70
0
280
1
281
0
  0
BLOCK_RECORD
  5
1B
330
9
100
AcDbSymbolTableRecord
100
AcDbBlockTableRecord
  2
*Paper_Space
340
1E
 70
0
280
1
281
0
  0
ENDTAB
  0
ENDSEC
  0
SECTION
  2
BLOCKS
  0
BLOCK
  5
18
330
17
100
AcDbEntity
  8
0
100
AcDbBlockBegin
  2
*Model_Space
 70
0
 10
0.0
 20
0.0
 30
0.0
  3
*Model_Space
  1

  0
ENDBLK
  5
19
330
17
100
AcDbEntity
  8
0
100
AcDbBlockEnd
  0
BLOCK
  5
1C
330
1B
100
AcDbEntity
  8
0
100
AcDbBlockBegin
  2
*Paper_Space
 70
0
 10
0.0
 20
0.0
 30
0.0
  3
*Paper_Space
  1

  0
ENDBLK
  5
1D
330
1B
100
AcDbEntity
  8
0
100
AcDbBlockEnd
  0
ENDSEC
  0
SECTION
  2
ENTITIES
  0
LWPOLYLINE
  5
82
330
17
100
AcDbEntity
  8
0
100
AcDbPolyline
 90
387
 70
0
 10
0.0
 20
1356.4416
 10
0.0
 20
1356.4416
 10
8.6489
 20
1357.9059
 10
11.6826
 20
1358.2504
 10
12.8386
 20
1358.3817
 10
16.9872
 20
1358.1077
 10
19.029
 20
1358.0717
 10
28.9321
 20
1357.8971
 10
36.596
 20
1356.425
 10
40.4534
 20
1355.684
 10
63.0346
 20
1350.0
 10
70.0
 20
1347.2682
 10
80.0984
 20
1343.3077
 10
87.8075
 20
1340.0
 10
92.9356
 20
1337.5166
 10
106.651
 20
1330.0
 10
115.5001
 20
1325.9055
 10
118.1865
 20
1324.2557
 10
125.1164
 20
1320.0
 10
127.8314
 20
1318.3646
 10
139.4499
 20
1311.3663
 10
141.7514
 20
1310.0
 10
143.5848
 20
1308.9695
 10
145.7029
 20
1307.6448
 10
157.32
 20
1300.3796
 10
157.9269
 20
1300.0
 10
159.7824
 20
1298.7993
 10
165.092
 20
1295.3633
 10
172.8788
 20
1290.0491
 10
172.9507
 20
1290.0
 10
186.7912
 20
1281.7407
 10
186.9397
 20
1281.6521
 10
189.877
 20
1280.0
 10
193.9376
 20
1277.6253
 10
208.8641
 20
1270.0
 10
222.4238
 20
1264.0481
 10
224.3385
 20
1263.3002
 10
232.787
 20
1260.0
 10
234.9371
 20
1259.6338
 10
235.48
 20
1259.5413
 10
235.4819
 20
1259.5409
 10
244.6367
 20
1257.9814
 10
255.5253
 20
1257.116
 10
255.7717
 20
1257.0964
 10
256.6328
 20
1257.028
 10
258.5589
 20
1257.0174
 10
265.2894
 20
1256.9805
 10
274.64
 20
1256.7976
 10
286.3766
 20
1256.5681
 10
286.5928
 20
1256.5638
 10
287.0609
 20
1256.5547
 10
293.4226
 20
1256.8267
 10
293.4714
 20
1256.8287
 10
293.6123
 20
1256.8348
 10
300.7922
 20
1257.6492
 10
320.29
 20
1259.861
 10
321.5161
 20
1260.0
 10
332.9907
 20
1262.0825
 10
338.8601
 20
1263.8783
 10
358.8685
 20
1270.0
 10
365.1178
 20
1272.2646
 10
375.0526
 20
1275.8645
 10
385.82
 20
1278.5393
 10
391.7005
 20
1280.0
 10
404.7704
 20
1283.4658
 10
411.1241
 20
1286.2943
 10
419.4484
 20
1290.0
 10
426.5064
 20
1292.9967
 10
433.3668
 20
1295.9096
 10
436.9768
 20
1297.0738
 10
442.8676
 20
1298.7503
 10
447.2587
 20
1300.0
 10
454.97
 20
1303.2548
 10
466.99
 20
1308.3282
 10
467.6161
 20
1308.5925
 10
471.3187
 20
1310.0
 10
476.7924
 20
1312.6461
 10
480.0633
 20
1314.2273
 10
490.9935
 20
1319.5842
 10
491.8419
 20
1320.0
 10
512.5736
 20
1329.6866
 10
512.7206
 20
1329.7553
 10
513.2594
 20
1330.0
 10
515.2019
 20
1330.9563
 10
532.4944
 20
1340.0
 10
539.9286
 20
1343.6862
 10
542.1653
 20
1344.7864
 10
552.7649
 20
1350.0
 10
561.7795
 20
1353.0794
 10
561.99
 20
1353.1496
 10
566.9746
 20
1354.8111
 10
582.5413
 20
1360.0
 10
586.0607
 20
1360.4614
 10
587.2906
 20
1360.5808
 10
623.8143
 20
1364.1266
 10
626.8386
 20
1364.2519
 10
636.8798
 20
1364.6678
 10
656.99
 20
1365.1178
 10
661.3075
 20
1365.2145
 10
667.4132
 20
1364.8406
 10
697.4574
 20
1363.0012
 10
712.6543
 20
1362.7046
 10
721.8542
 20
1361.9689
 10
746.4754
 20
1360.0
 10
751.99
 20
1359.6316
 10
764.2766
 20
1358.8107
 10
774.7695
 20
1357.6921
 10
813.6202
 20
1357.5929
 10
821.2377
 20
1358.7049
 10
831.8266
 20
1360.0
 10
846.99
 20
1362.6995
 10
848.9644
 20
1363.051
 10
856.7029
 20
1363.5734
 10
858.1169
 20
1363.8872
 10
872.1719
 20
1367.0065
 10
872.5197
 20
1367.0837
 10
874.2834
 20
1367.4751
 10
879.351
 20
1367.8911
 10
905.0413
 20
1370.0
 10
937.3403
 20
1373.7741
 10
941.99
 20
1374.2011
 10
959.8228
 20
1375.8388
 10
960.1196
 20
1375.835
 10
981.6139
 20
1375.5619
 10
985.8937
 20
1375.6195
 10
1008.3268
 20
1375.9215
 10
1014.9286
 20
1377.1277
 10
1036.99
 20
1378.6965
 10
1043.729
 20
1379.1757
 10
1049.7631
 20
1380.0
 10
1055.5566
 20
1380.8263
 10
1060.6534
 20
1381.5859
 10
1060.8111
 20
1381.6156
 10
1083.5661
 20
1385.8983
 10
1084.2274
 20
1386.0014
 10
1109.8734
 20
1390.0
 10
1116.9019
 20
1390.7764
 10
1130.0083
 20
1391.1331
 10
1131.99
 20
1391.1871
 10
1165.05
 20
1392.0869
 10
1175.508
 20
1391.7162
 10
1215.7346
 20
1390.2905
 10
1219.4317
 20
1390.0
 10
1223.4028
 20
1390.0
 10
1224.4695
 20
1390.0
 10
1226.99
 20
1390.0
 10
1247.3763
 20
1390.0
 10
1248.3351
 20
1390.0
 10
1252.408
 20
1390.0
 10
1256.8774
 20
1390.0
 10
1274.0317
 20
1390.0
 10
1278.4437
 20
1390.2492
 10
1297.5631
 20
1391.3288
 10
1303.8216
 20
1391.9797
 10
1307.4663
 20
1392.1588
 10
1321.99
 20
1392.8726
 10
1338.3973
 20
1393.6789
 10
1359.591
 20
1395.1764
 10
1364.2905
 20
1395.4055
 10
1377.7267
 20
1396.0607
 10
1388.2688
 20
1397.2052
 10
1410.352
 20
1399.6027
 10
1413.3637
 20
1400.0
 10
1416.99
 20
1400.5428
 10
1434.9511
 20
1403.231
 10
1444.0343
 20
1404.74
 10
1475.6982
 20
1410.0
 10
1505.7196
 20
1413.4255
 10
1511.99
 20
1414.1907
 10
1517.0171
 20
1414.8043
 10
1526.7541
 20
1415.5645
 10
1557.6465
 20
1417.9765
 10
1566.8575
 20
1419.0405
 10
1567.9366
 20
1419.1652
 10
1575.8636
 20
1419.9403
 10
1576.7058
 20
1419.9346
 10
1577.5579
 20
1419.932
 10
1595.4357
 20
1419.7837
 10
1596.3402
 20
1419.7793
 10
1599.7811
 20
1419.7623
 10
1606.99
 20
1419.7202
 10
1630.2244
 20
1419.5846
 10
1659.6226
 20
1419.7515
 10
1665.0687
 20
1419.7657
 10
1683.6132
 20
1419.8138
 10
1686.961
 20
1419.8216
 10
1698.5256
 20
1419.8485
 10
1699.6204
 20
1419.8518
 10
1701.99
 20
1419.8591
 10
1703.539
 20
1419.8639
 10
1716.8762
 20
1419.8939
 10
1724.8701
 20
1419.9119
 10
1730.1589
 20
1419.9356
 10
1745.1608
 20
1419.9361
 10
1747.8147
 20
1419.9433
 10
1753.3738
 20
1419.9652
 10
1761.6931
 20
1419.9526
 10
1761.8407
 20
1419.9334
 10
1763.3883
 20
1419.7325
 10
1763.6549
 20
1419.7045
 10
1766.5169
 20
1419.4039
 10
1767.321
 20
1419.3194
 10
1775.4469
 20
1418.4657
 10
1791.7061
 20
1417.4975
 10
1793.9014
 20
1417.3668
 10
1796.6717
 20
1417.2018
 10
1796.99
 20
1417.1982
 10
1827.6729
 20
1416.8522
 10
1831.9657
 20
1416.8038
 10
1837.2638
 20
1416.744
 10
1867.8618
 20
1417.0375
 10
1872.2033
 20
1417.0792
 10
1877.4483
 20
1417.1295
 10
1882.4149
 20
1417.1483
 10
1888.4151
 20
1417.171
 10
1891.99
 20
1417.2018
 10
1901.4633
 20
1417.2832
 10
1903.1721
 20
1417.2979
 10
1905.4347
 20
1417.3174
 10
1908.0967
 20
1417.4087
 10
1911.6213
 20
1417.5297
 10
1919.2948
 20
1417.1422
 10
1929.4549
 20
1416.6291
 10
1952.8387
 20
1414.8403
 10
1983.8006
 20
1412.4719
 10
1986.99
 20
1412.0322
 10
1988.8475
 20
1411.7761
 10
2001.7292
 20
1410.0
 10
2002.079
 20
1410.0
 10
2046.0676
 20
1410.0
 10
2063.3708
 20
1410.0
 10
2081.99
 20
1412.9987
 10
2093.6824
 20
1414.8818
 10
2097.8708
 20
1415.1621
 10
2115.1002
 20
1416.3152
 10
2118.3995
 20
1416.3575
 10
2129.7355
 20
1416.5026
 10
2138.0306
 20
1417.3581
 10
2143.2088
 20
1417.8921
 10
2158.5925
 20
1417.1771
 10
2176.99
 20
1418.3541
 10
2190.4276
 20
1419.2138
 10
2236.7064
 20
1417.6849
 10
2253.2383
 20
1417.6105
 10
2262.3203
 20
1417.0551
 10
2271.99
 20
1415.8902
 10
2294.353
 20
1413.196
 10
2309.2329
 20
1411.9797
 10
2333.4524
 20
1410.0
 10
2333.5774
 20
1409.9963
 10
2333.5888
 20
1409.9959
 10
2333.6236
 20
1409.9967
 10
2333.9193
 20
1409.9949
 10
2345.6599
 20
1409.9779
 10
2346.5479
 20
1410.0
 10
2356.8865
 20
1410.723
 10
2364.1114
 20
1412.3299
 10
2366.99
 20
1412.9701
 10
2398.5991
 20
1420.0
 10
2406.2858
 20
1422.4557
 10
2414.7846
 20
1425.1024
 10
2430.5111
 20
1430.0
 10
2452.1785
 20
1435.8472
 10
2453.7312
 20
1436.1232
 10
2461.99
 20
1437.5909
 10
2470.5229
 20
1439.1073
 10
2477.02
 20
1440.0
 10
2493.791
 20
1440.0
 10
2514.5212
 20
1440.0
 10
2519.4576
 20
1440.0
 10
2521.1304
 20
1440.0
 10
2526.0332
 20
1440.0
 10
2527.8177
 20
1440.0
 10
2528.2958
 20
1440.0
 10
2529.6757
 20
1440.0
 10
2554.949
 20
1434.4089
 10
2556.99
 20
1433.7635
 10
2561.4427
 20
1432.3556
 10
2568.4316
 20
1430.0
 10
2570.857
 20
1428.9913
 10
2590.5788
 20
1420.7886
 10
2591.8363
 20
1420.0
 10
2593.9203
 20
1419.0404
 10
2594.3372
 20
1418.7957
 10
2609.3236
 20
1410.0
 10
2610.2784
 20
1409.4617
 10
2615.0539
 20
1406.7688
 10
2624.5659
 20
1401.2427
 10
2626.7049
 20
1400.0
 10
2630.9626
 20
1397.1624
 10
2642.46
 20
1390.0
 10
2646.1095
 20
1387.6464
 10
2651.99
 20
1383.854
 10
2656.6661
 20
1380.8383
 10
2657.5701
 20
1380.2343
 10
2657.9208
 20
1380.0
 10
2658.9217
 20
1379.2249
 10
2670.7942
 20
1370.0
 10
2673.9251
 20
1367.7412
 10
2678.3093
 20
1364.5781
 10
2685.2766
 20
1360.0
 10
2691.7721
 20
1356.3185
 10
2698.779
 20
1352.3472
 10
2704.1485
 20
1350.0
 10
2717.2268
 20
1344.7851
 10
2717.2852
 20
1344.7579
 10
2727.4878
 20
1340.0
 10
2727.5022
 20
1339.9964
 10
2729.2896
 20
1339.5513
 10
2729.345
 20
1339.5375
 10
2736.1004
 20
1337.855
 10
2736.1265
 20
1337.8547
 10
2739.2962
 20
1337.8187
 10
2739.569
 20
1337.8264
 10
2746.99
 20
1338.0347
 10
2760.7226
 20
1338.4203
 10
2761.0648
 20
1338.4299
 10
2772.798
 20
1339.495
 10
2785.3194
 20
1340.0
 10
2788.7496
 20
1341.3237
 10
2797.0564
 20
1344.5293
 10
2808.1058
 20
1349.9857
 10
2808.1349
 20
1350.0
 10
2813.0789
 20
1352.3453
 10
2827.3383
 20
1360.0
 10
2833.8626
 20
1363.0782
 10
2836.99
 20
1364.5536
 10
2844.8821
 20
1368.2771
 10
2846.9281
 20
1369.5118
 10
2847.7371
 20
1370.0
 10
2859.416
 20
1375.0533
 10
2869.5188
 20
1380.0
 10
2876.4279
 20
1381.6053
 10
2912.3826
 20
1389.9589
 10
2912.5208
 20
1390.0
 10
2912.6966
 20
1390.0228
 10
2912.8056
 20
1390.0354
 10
2913.0907
 20
1390.0813
 10
2913.2857
 20
1390.1163
 10
2926.99
 20
1392.5752
 10
2968.3703
 20
1400.0
 10
2975.1452
 20
1401.3758
 10
3000.99
 20
1406.6241
 10
3010.1597
 20
1408.4861
 10
3016.2391
 20
1409.8633
 10
3016.8428
 20
1410.0
 10
3018.1404
 20
1410.3223
 10
3020.5514
 20
1410.7795
 10
3045.7923
 20
1415.1338
 10
3050.8049
 20
1415.6427
 10
3068.8673
 20
1417.4765
 10
3074.99
 20
1417.8716
 10
3076.0692
 20
1417.9413
 10
3092.3654
 20
1417.4809
 10
3099.6878
 20
1417.3022
 10
3150.3373
 20
1416.0668
 10
3150.35
 20
1416.0672
 10
3157.2067
 20
1416.2778
 10
3163.1373
 20
1416.7845
 10
3185.2369
 20
1418.6724
 10
3191.4358
 20
1419.6553
 10
3193.6103
 20
1420.0
 10
3219.2271
 20
1423.1179
 10
3230.35
 20
1425.33
 10
3253.8319
 20
1430.0
 10
3275.8463
 20
1430.6501
 10
3282.6886
 20
1430.7283
 10
3297.94
 20
1430.9028
 10
3303.1019
 20
1430.7603
 10
3304.1307
 20
1430.7213
 10
3306.35
 20
1430.6374
 10
3321.8674
 20
1430.0501
 10
3322.1962
 20
1430.0377
 10
3323.1907
 20
1430.0
 10
3327.881
 20
1429.3735
 10
3342.0685
 20
1427.4783
 10
3346.1787
 20
1426.5565
 10
3358.6112
 20
1423.7684
 10
3381.9429
 20
1420.0
 10
3382.78
 20
1419.8637
 10
3382.828
 20
1419.8559
 10
3403.194
 20
1416.5387
 10
3403.8986
 20
1416.4517
 10
3415.1066
 20
1415.0674
 10
3415.2813
 20
1415.0458
 10
3418.8668
 20
1414.603
 10
3426.4334
 20
1413.8942
  0
LWPOLYLINE
  5
83
330
17
100
AcDbEntity
  8
0
100
AcDbPolyline
 90
2
 70
0
 10
0.0
 20
1356.4416
 10
0.0
 20
1456.4416
  0
LWPOLYLINE
  5
84
330
17
100
AcDbEntity
  8
0
100
AcDbPolyline
 90
2
 70
0
 10
70.0
 20
1347.2682
 10
70.0
 20
1447.2682
  0
LWPOLYLINE
  5
85
330
17
100
AcDbEntity
  8
0
100
AcDbPolyline
 90
2
 70
0
 10
157.32
 20
1300.3796
 10
157.32
 20
1400.3796
  0
LWPOLYLINE
  5
86
330
17
100
AcDbEntity
  8
0
100
AcDbPolyline
 90
2
 70
0
 10
235.48
 20
1259.5413
 10
235.48
 20
1359.5413
  0
LWPOLYLINE
  5
87
330
17
100
AcDbEntity
  8
0
100
AcDbPolyline
 90
2
 70
0
 10
274.64
 20
1256.7976
 10
274.64
 20
1356.7976
  0
LWPOLYLINE
  5
88
330
17
100
AcDbEntity
  8
0
100
AcDbPolyline
 90
2
 70
0
 10
320.29
 20
1259.861
 10
320.29
 20
1359.861
  0
LWPOLYLINE
  5
89
330
17
100
AcDbEntity
  8
0
100
AcDbPolyline
 90
2
 70
0
 10
385.82
 20
1278.5393
 10
385.82
 20
1378.5393
  0
LWPOLYLINE
  5
8A
330
17
100
AcDbEntity
  8
0
100
AcDbPolyline
 90
2
 70
0
 10
466.99
 20
1308.3282
 10
466.99
 20
1408.3282
  0
LWPOLYLINE
  5
8B
330
17
100
AcDbEntity
  8
0
100
AcDbPolyline
 90
2
 70
0
 10
561.99
 20
1353.1496
 10
561.99
 20
1453.1496
  0
LWPOLYLINE
  5
8C
330
17
100
AcDbEntity
  8
0
100
AcDbPolyline
 90
2
 70
0
 10
656.99
 20
1365.1178
 10
656.99
 20
1465.1178
  0
LWPOLYLINE
  5
8D
330
17
100
AcDbEntity
  8
0
100
AcDbPolyline
 90
2
 70
0
 10
751.99
 20
1359.6316
 10
751.99
 20
1459.6316
  0
LWPOLYLINE
  5
8E
330
17
100
AcDbEntity
  8
0
100
AcDbPolyline
 90
2
 70
0
 10
846.99
 20
1362.6995
 10
846.99
 20
1462.6995
  0
LWPOLYLINE
  5
8F
330
17
100
AcDbEntity
  8
0
100
AcDbPolyline
 90
2
 70
0
 10
941.99
 20
1374.2011
 10
941.99
 20
1474.2011
  0
LWPOLYLINE
  5
90
330
17
100
AcDbEntity
  8
0
100
AcDbPolyline
 90
2
 70
0
 10
1036.99
 20
1378.6965
 10
1036.99
 20
1478.6965
  0
LWPOLYLINE
  5
91
330
17
100
AcDbEntity
  8
0
100
AcDbPolyline
 90
2
 70
0
 10
1131.99
 20
1391.1871
 10
1131.99
 20
1491.1871
  0
LWPOLYLINE
  5
92
330
17
100
AcDbEntity
  8
0
100
AcDbPolyline
 90
2
 70
0
 10
1226.99
 20
1390.0
 10
1226.99
 20
1490.0
  0
LWPOLYLINE
  5
93
330
17
100
AcDbEntity
  8
0
100
AcDbPolyline
 90
2
 70
0
 10
1321.99
 20
1392.8726
 10
1321.99
 20
1492.8726
  0
LWPOLYLINE
  5
94
330
17
100
AcDbEntity
  8
0
100
AcDbPolyline
 90
2
 70
0
 10
1416.99
 20
1400.5428
 10
1416.99
 20
1500.5428
  0
LWPOLYLINE
  5
95
330
17
100
AcDbEntity
  8
0
100
AcDbPolyline
 90
2
 70
0
 10
1511.99
 20
1414.1907
 10
1511.99
 20
1514.1907
  0
LWPOLYLINE
  5
96
330
17
100
AcDbEntity
  8
0
100
AcDbPolyline
 90
2
 70
0
 10
1606.99
 20
1419.7202
 10
1606.99
 20
1519.7202
  0
LWPOLYLINE
  5
97
330
17
100
AcDbEntity
  8
0
100
AcDbPolyline
 90
2
 70
0
 10
1701.99
 20
1419.8591
 10
1701.99
 20
1519.8591
  0
LWPOLYLINE
  5
98
330
17
100
AcDbEntity
  8
0
100
AcDbPolyline
 90
2
 70
0
 10
1796.99
 20
1417.1982
 10
1796.99
 20
1517.1982
  0
LWPOLYLINE
  5
99
330
17
100
AcDbEntity
  8
0
100
AcDbPolyline
 90
2
 70
0
 10
1891.99
 20
1417.2018
 10
1891.99
 20
1517.2018
  0
LWPOLYLINE
  5
9A
330
17
100
AcDbEntity
  8
0
100
AcDbPolyline
 90
2
 70
0
 10
1986.99
 20
1412.0322
 10
1986.99
 20
1512.0322
  0
LWPOLYLINE
  5
9B
330
17
100
AcDbEntity
  8
0
100
AcDbPolyline
 90
2
 70
0
 10
2081.99
 20
1412.9987
 10
2081.99
 20
1512.9987
  0
LWPOLYLINE
  5
9C
330
17
100
AcDbEntity
  8
0
100
AcDbPolyline
 90
2
 70
0
 10
2176.99
 20
1418.3541
 10
2176.99
 20
1518.3541
  0
LWPOLYLINE
  5
9D
330
17
100
AcDbEntity
  8
0
100
AcDbPolyline
 90
2
 70
0
 10
2271.99
 20
1415.8902
 10
2271.99
 20
1515.8902
  0
LWPOLYLINE
  5
9E
330
17
100
AcDbEntity
  8
0
100
AcDbPolyline
 90
2
 70
0
 10
2366.99
 20
1412.9701
 10
2366.99
 20
1512.9701
  0
LWPOLYLINE
  5
9F
330
17
100
AcDbEntity
  8
0
100
AcDbPolyline
 90
2
 70
0
 10
2461.99
 20
1437.5909
 10
2461.99
 20
1537.5909
  0
LWPOLYLINE
  5
A0
330
17
100
AcDbEntity
  8
0
100
AcDbPolyline
 90
2
 70
0
 10
2556.99
 20
1433.7635
 10
2556.99
 20
1533.7635
  0
LWPOLYLINE
  5
A1
330
17
100
AcDbEntity
  8
0
100
AcDbPolyline
 90
2
 70
0
 10
2651.99
 20
1383.854
 10
2651.99
 20
1483.854
  0
LWPOLYLINE
  5
A2
330
17
100
AcDbEntity
  8
0
100
AcDbPolyline
 90
2
 70
0
 10
2746.99
 20
1338.0347
 10
2746.99
 20
1438.0347
  0
LWPOLYLINE
  5
A3
330
17
100
AcDbEntity
  8
0
100
AcDbPolyline
 90
2
 70
0
 10
2836.99
 20
1364.5536
 10
2836.99
 20
1464.5536
  0
LWPOLYLINE
  5
A4
330
17
100
AcDbEntity
  8
0
100
AcDbPolyline
 90
2
 70
0
 10
2926.99
 20
1392.5752
 10
2926.99
 20
1492.5752
  0
LWPOLYLINE
  5
A5
330
17
100
AcDbEntity
  8
0
100
AcDbPolyline
 90
2
 70
0
 10
3000.99
 20
1406.6241
 10
3000.99
 20
1506.6241
  0
LWPOLYLINE
  5
A6
330
17
100
AcDbEntity
  8
0
100
AcDbPolyline
 90
2
 70
0
 10
3074.99
 20
1417.8716
 10
3074.99
 20
1517.8716
  0
LWPOLYLINE
  5
A7
330
17
100
AcDbEntity
  8
0
100
AcDbPolyline
 90
2
 70
0
 10
3150.35
 20
1416.0672
 10
3150.35
 20
1516.0672
  0
LWPOLYLINE
  5
A8
330
17
100
AcDbEntity
  8
0
100
AcDbPolyline
 90
2
 70
0
 10
3230.35
 20
1425.33
 10
3230.35
 20
1525.33
  0
LWPOLYLINE
  5
A9
330
17
100
AcDbEntity
  8
0
100
AcDbPolyline
 90
2
 70
0
 10
3306.35
 20
1430.6374
 10
3306.35
 20
1530.6374
  0
LWPOLYLINE
  5
AA
330
17
100
AcDbEntity
  8
0
100
AcDbPolyline
 90
2
 70
0
 10
3382.78
 20
1419.8637
 10
3382.78
 20
1519.8637
  0
LWPOLYLINE
  5
AB
330
17
100
AcDbEntity
  8
0
 62
10
100
AcDbPolyline
 90
101
 70
0
 43
0.3
 10
0.0
 20
1456.4416
 10
0.7
 20
1455.8753817032234
 10
1.4
 20
1455.3187687523832
 10
2.0999999999999996
 20
1454.7717601061242
 10
2.8
 20
1454.2343547410628
 10
3.5
 20
1453.7065516517769
 10
4.199999999999999
 20
1453.1883498508132
 10
4.8999999999999995
 20
1452.67974836868
 10
5.6
 20
1452.180746253845
 10
6.3
 20
1451.6913425727384
 10
7.0
 20
1451.211536409745
 10
7.699999999999999
 20
1450.7413268672062
 10
8.399999999999999
 20
1450.2807130654191
 10
9.1
 20
1449.8296941426302
 10
9.799999999999999
 20
1449.3882692550387
 10
10.5
 20
1448.9564375767939
 10
11.2
 20
1448.5341982999917
 10
11.899999999999999
 20
1448.1215506346728
 10
12.6
 20
1447.7184938088265
 10
13.299999999999999
 20
1447.3250270683805
 10
14.0
 20
1446.9411496772093
 10
14.7
 20
1446.5668609171228
 10
15.399999999999999
 20
1446.2021600878754
 10
16.099999999999998
 20
1445.8470465071541
 10
16.799999999999997
 20
1445.5015195105875
 10
17.5
 20
1445.165578451735
 10
18.2
 20
1444.8392227020943
 10
18.9
 20
1444.5224516510916
 10
19.599999999999998
 20
1444.2152647060875
 10
20.299999999999997
 20
1443.9176612923745
 10
21.0
 20
1443.6296408531723
 10
21.7
 20
1443.3512028496305
 10
22.4
 20
1443.082346760825
 10
23.099999999999998
 20
1442.8230720837596
 10
23.799999999999997
 20
1442.5733783333628
 10
24.5
 20
1442.3332650424886
 10
25.2
 20
1442.1027317619148
 10
25.9
 20
1441.8817780603417
 10
26.599999999999998
 20
1441.6704035243915
 10
27.299999999999997
 20
1441.46860775861
 10
28.0
 20
1441.27639038546
 10
28.7
 20
1441.0937510453284
 10
29.4
 20
1440.9206893965184
 10
30.099999999999998
 20
1440.7572051152526
 10
30.799999999999997
 20
1440.6032978956728
 10
31.499999999999996
 20
1440.4589674498372
 10
32.199999999999996
 20
1440.3242135077212
 10
32.9
 20
1440.1990358172163
 10
33.599999999999994
 20
1440.0834341441307
 10
34.3
 20
1439.9774082721888
 10
35.0
 20
1439.8809580030277
 10
35.699999999999996
 20
1439.7940831562025
 10
36.4
 20
1439.71678356918
 10
37.099999999999994
 20
1439.6490590973415
 10
37.8
 20
1439.590909613984
 10
38.5
 20
1439.5423350103167
 10
39.199999999999996
 20
1439.503335195463
 10
39.9
 20
1439.473910096457
 10
40.599999999999994
 20
1439.4540596582503
 10
41.3
 20
1439.4437838437034
 10
42.0
 20
1439.4430826335933
 10
42.699999999999996
 20
1439.4519560266065
 10
43.4
 20
1439.470404039345
 10
44.099999999999994
 20
1439.498426706323
 10
44.8
 20
1439.5360240799657
 10
45.5
 20
1439.5831962306152
 10
46.199999999999996
 20
1439.6399432465232
 10
46.9
 20
1439.7062652338577
 10
47.599999999999994
 20
1439.7821623166988
 10
48.3
 20
1439.8676346370405
 10
49.0
 20
1439.9626823547899
 10
49.699999999999996
 20
1440.0673056477701
 10
50.4
 20
1440.1815047117204
 10
51.099999999999994
 20
1440.3052797602911
 10
51.8
 20
1440.4386310250493
 10
52.5
 20
1440.5815587554816
 10
53.199999999999996
 20
1440.7340632189869
 10
53.9
 20
1440.8961447008815
 10
54.599999999999994
 20
1441.0678035044002
 10
55.3
 20
1441.2490399506964
 10
56.0
 20
1441.4398543788418
 10
56.699999999999996
 20
1441.6402471458246
 10
57.4
 20
1441.850218626557
 10
58.099999999999994
 20
1442.0697692138683
 10
58.8
 20
1442.2988993185113
 10
59.49999999999999
 20
1442.5376093691616
 10
60.199999999999996
 20
1442.7858998124143
 10
60.9
 20
1443.0437711127913
 10
61.599999999999994
 20
1443.3112237527375
 10
62.3
 20
1443.5882582326246
 10
62.99999999999999
 20
1443.87487507075
 10
63.699999999999996
 20
1444.1710748033395
 10
64.39999999999999
 20
1444.4768579845434
 10
65.1
 20
1444.7922251864481
 10
65.8
 20
1445.1171769990642
 10
66.5
 20
1445.451714030338
 10
67.19999999999999
 20
1445.7958369061475
 10
67.89999999999999
 20
1446.1495462703033
 10
68.6
 20
1446.5128427845514
 10
69.3
 20
1446.8857271285779
 10
70.0
 20
1447.2682000000004
  0
LWPOLYLINE
  5
AC
330
17
100
AcDbEntity
  8
0
 62
10
100
AcDbPolyline
 90
101
 70
0
 43
0.3
 10
70.0
 20
1447.2682
 10
70.8732
 20
1446.0587807343968
 10
71.7464
 20
1444.8644007686823
 10
72.6196
 20
1443.68505662574
 10
73.4928
 20
1442.5207448722272
 10
74.366
 20
1441.3714621185616
 10
75.2392
 20
1440.2372050189174
 10
76.1124
 20
1439.1179702712084
 10
76.9856
 20
1438.0137546170854
 10
77.8588
 20
1436.9245548419203
 10
78.732
 20
1435.8503677748022
 10
79.6052
 20
1434.7911902885226
 10
80.4784
 20
1433.7470192995715
 10
81.3516
 20
1432.717851768127
 10
82.2248
 20
1431.7036846980434
 10
83.098
 20
1430.7045151368468
 10
83.9712
 20
1429.7203401757233
 10
84.84440000000001
 20
1428.7511569495111
 10
85.7176
 20
1427.7969626366962
 10
86.5908
 20
1426.8577544593968
 10
87.464
 20
1425.9335296833615
 10
88.3372
 20
1425.0242856179589
 10
89.21039999999999
 20
1424.130019616168
 10
90.0836
 20
1423.2507290745746
 10
90.9568
 20
1422.386411433361
 10
91.83
 20
1421.5370641762986
 10
92.7032
 20
1420.702684830741
 10
93.5764
 20
1419.8832709676178
 10
94.4496
 20
1419.078820201426
 10
95.3228
 20
1418.289330190222
 10
96.196
 20
1417.5147986356192
 10
97.0692
 20
1416.7552232827773
 10
97.94239999999999
 20
1416.0106019203956
 10
98.8156
 20
1415.2809323807123
 10
99.6888
 20
1414.5662125394877
 10
100.562
 20
1413.8664403160078
 10
101.4352
 20
1413.1816136730752
 10
102.3084
 20
1412.5117306169993
 10
103.1816
 20
1411.8567891975981
 10
104.0548
 20
1411.2167875081848
 10
104.928
 20
1410.591723685566
 10
105.8012
 20
1409.9815959100365
 10
106.67439999999999
 20
1409.3864024053746
 10
107.54759999999999
 20
1408.8061414388324
 10
108.4208
 20
1408.240811321139
 10
109.294
 20
1407.6904104064852
 10
110.16720000000001
 20
1407.1549370925277
 10
111.0404
 20
1406.6343898203806
 10
111.9136
 20
1406.128767074609
 10
112.7868
 20
1405.6380673832296
 10
113.66
 20
1405.1622893177016
 10
114.5332
 20
1404.7014314929254
 10
115.40639999999999
 20
1404.255492567237
 10
116.2796
 20
1403.8244712424064
 10
117.1528
 20
1403.4083662636287
 10
118.026
 20
1403.0071764195286
 10
118.89920000000001
 20
1402.6209005421474
 10
119.7724
 20
1402.2495375069486
 10
120.6456
 20
1401.8930862328073
 10
121.5188
 20
1401.5515456820121
 10
122.392
 20
1401.2249148602593
 10
123.2652
 20
1400.913192816652
 10
124.13839999999999
 20
1400.6163786436944
 10
125.0116
 20
1400.3344714772916
 10
125.8848
 20
1400.067470496748
 10
126.758
 20
1399.8153749247606
 10
127.6312
 20
1399.5781840274212
 10
128.5044
 20
1399.3558971142133
 10
129.3776
 20
1399.148513538007
 10
130.2508
 20
1398.9560326950618
 10
131.124
 20
1398.7784540250218
 10
131.9972
 20
1398.6157770109128
 10
132.8704
 20
1398.4680011791459
 10
133.74360000000001
 20
1398.3351260995112
 10
134.6168
 20
1398.217151385177
 10
135.49
 20
1398.114076692695
 10
136.3632
 20
1398.025901721988
 10
137.2364
 20
1397.952626216359
 10
138.1096
 20
1397.894249962487
 10
138.9828
 20
1397.8507727904255
 10
139.856
 20
1397.8221945735997
 10
140.7292
 20
1397.8085152288156
 10
141.6024
 20
1397.8097347162459
 10
142.4756
 20
1397.8258530394432
 10
143.34879999999998
 20
1397.856870245331
 10
144.22199999999998
 20
1397.9027864242078
 10
145.09519999999998
 20
1397.9636017097446
 10
145.9684
 20
1398.039316278991
 10
146.8416
 20
1398.1299303523676
 10
147.7148
 20
1398.2354441936754
 10
148.588
 20
1398.3558581100865
 10
149.4612
 20
1398.491172452156
 10
150.33440000000002
 20
1398.6413876138154
 10
151.2076
 20
1398.8065040323734
 10
152.0808
 20
1398.9865221885245
 10
152.954
 20
1399.1814426063406
 10
153.8272
 20
1399.3912658532834
 10
154.7004
 20
1399.6159925401937
 10
155.5736
 20
1399.855623321305
 10
156.4468
 20
1400.1101588942356
 10
157.32
 20
1400.3796000000004
  0
LWPOLYLINE
  5
AD
330
17
100
AcDbEntity
  8
0
 62
10
100
AcDbPolyline
 90
101
 70
0
 43
0.3
 10
157.32
 20
1400.3796
 10
158.1016
 20
1399.3781995035363
 10
158.8832
 20
1398.3888323779388
 10
159.66479999999999
 20
1397.411496315528
 10
160.44639999999998
 20
1396.4461890366852
 10
161.22799999999998
 20
1395.4929082898461
 10
162.0096
 20
1394.5516518515037
 10
162.7912
 20
1393.622417526191
 10
163.5728
 20
1392.705203146488
 10
164.3544
 20
1391.8000065730075
 10
165.136
 20
1390.9068256943963
 10
165.9176
 20
1390.0256584273236
 10
166.6992
 20
1389.1565027164847
 10
167.4808
 20
1388.299356534589
 10
168.26239999999999
 20
1387.454217882358
 10
169.04399999999998
 20
1386.6210847885204
 10
169.82559999999998
 20
1385.7999553098095
 10
170.60719999999998
 20
1384.9908275309556
 10
171.3888
 20
1384.1936995646815
 10
172.1704
 20
1383.4085695517026
 10
172.952
 20
1382.6354356607144
 10
173.7336
 20
1381.8742960883988
 10
174.5152
 20
1381.125149059409
 10
175.2968
 20
1380.3879928263746
 10
176.0784
 20
1379.662825669892
 10
176.85999999999999
 20
1378.9496458985209
 10
177.64159999999998
 20
1378.2484518487827
 10
178.42319999999998
 20
1377.559241885155
 10
179.20479999999998
 20
1376.882014400069
 10
179.9864
 20
1376.2167678139015
 10
180.768
 20
1375.5635005749784
 10
181.5496
 20
1374.922211159565
 10
182.3312
 20
1374.2928980718657
 10
183.1128
 20
1373.675559844018
 10
183.8944
 20
1373.070195036093
 10
184.676
 20
1372.4768022360877
 10
185.45759999999999
 20
1371.895380059924
 10
186.23919999999998
 20
1371.3259271514446
 10
187.02079999999998
 20
1370.7684421824115
 10
187.80239999999998
 20
1370.2229238525
 10
188.584
 20
1369.6893708893
 10
189.3656
 20
1369.1677820483078
 10
190.1472
 20
1368.6581561129276
 10
190.9288
 20
1368.1604918944652
 10
191.7104
 20
1367.6747882321285
 10
192.492
 20
1367.2010439930216
 10
193.2736
 20
1366.7392580721446
 10
194.05519999999999
 20
1366.289429392391
 10
194.83679999999998
 20
1365.8515569045421
 10
195.6184
 20
1365.4256395872703
 10
196.39999999999998
 20
1365.011676447129
 10
197.1816
 20
1364.6096665185576
 10
197.9632
 20
1364.2196088638764
 10
198.7448
 20
1363.84150257328
 10
199.5264
 20
1363.4753467648452
 10
200.308
 20
1363.121140584518
 10
201.0896
 20
1362.77888320612
 10
201.8712
 20
1362.4485738313415
 10
202.65279999999998
 20
1362.130211689743
 10
203.43439999999998
 20
1361.8237960387487
 10
204.216
 20
1361.5293261636505
 10
204.99759999999998
 20
1361.2468013776029
 10
205.7792
 20
1360.9762210216222
 10
206.5608
 20
1360.7175844645835
 10
207.3424
 20
1360.4708911032233
 10
208.124
 20
1360.2361403621312
 10
208.9056
 20
1360.0133316937581
 10
209.6872
 20
1359.8024645784049
 10
210.4688
 20
1359.6035385242294
 10
211.25039999999998
 20
1359.4165530672387
 10
212.03199999999998
 20
1359.2415077712926
 10
212.8136
 20
1359.0784022281018
 10
213.59519999999998
 20
1358.9272360572268
 10
214.3768
 20
1358.7880089060723
 10
215.1584
 20
1358.660720449895
 10
215.94
 20
1358.5453703917979
 10
216.7216
 20
1358.4419584627278
 10
217.5032
 20
1358.350484421478
 10
218.2848
 20
1358.270948054687
 10
219.0664
 20
1358.2033491768395
 10
219.84799999999998
 20
1358.14768763026
 10
220.62959999999998
 20
1358.103963285119
 10
221.4112
 20
1358.0721760394324
 10
222.19279999999998
 20
1358.0523258190556
 10
222.9744
 20
1358.0444125776878
 10
223.75599999999997
 20
1358.0484362968723
 10
224.5376
 20
1358.0643969859955
 10
225.3192
 20
1358.092294682282
 10
226.1008
 20
1358.1321294508057
 10
226.8824
 20
1358.18390138448
 10
227.664
 20
1358.2476106040617
 10
228.44559999999998
 20
1358.323257258151
 10
229.22719999999998
 20
1358.4108415231922
 10
230.0088
 20
1358.5103636034744
 10
230.79039999999998
 20
1358.621823731131
 10
231.572
 20
1358.7452221661415
 10
232.35359999999997
 20
1358.8805591963298
 10
233.1352
 20
1359.0278351373677
 10
233.9168
 20
1359.1870503327727
 10
234.6984
 20
1359.3582051539108
 10
235.48
 20
1359.5412999999996
  0
LWPOLYLINE
  5
AE
330
17
100
AcDbEntity
  8
0
 62
10
100
AcDbPolyline
 90
101
 70
0
 43
0.3
 10
235.48
 20
1359.5413
 10
235.8716
 20
1359.3654856393591
 10
236.26319999999998
 20
1359.1926707160108
 10
236.6548
 20
1359.0228551287687
 10
237.04639999999998
 20
1358.8560387782052
 10
237.438
 20
1358.6922215666466
 10
237.8296
 20
1358.531403398176
 10
238.22119999999998
 20
1358.373584178634
 10
238.6128
 20
1358.218763815614
 10
239.00439999999998
 20
1358.0669422184696
 10
239.396
 20
1357.9181192983056
 10
239.7876
 20
1357.7722949679862
 10
240.17919999999998
 20
1357.6294691421288
 10
240.5708
 20
1357.4896417371062
 10
240.9624
 20
1357.352812671051
 10
241.35399999999998
 20
1357.2189818638458
 10
241.7456
 20
1357.0881492371334
 10
242.13719999999998
 20
1356.9603147143082
 10
242.5288
 20
1356.835478220522
 10
242.9204
 20
1356.7136396826825
 10
243.31199999999998
 20
1356.5947990294515
 10
243.7036
 20
1356.4789561912467
 10
244.09519999999998
 20
1356.3661111002405
 10
244.4868
 20
1356.256263690362
 10
244.8784
 20
1356.1494138972942
 10
245.26999999999998
 20
1356.0455616584738
 10
245.6616
 20
1355.9447069130965
 10
246.05319999999998
 20
1355.84684960211
 10
246.4448
 20
1355.7519896682172
 10
246.8364
 20
1355.660127055877
 10
247.22799999999998
 20
1355.5712617113024
 10
247.6196
 20
1355.4853935824628
 10
248.01119999999997
 20
1355.4025226190822
 10
248.40279999999998
 20
1355.322648772636
 10
248.7944
 20
1355.2457719963604
 10
249.18599999999998
 20
1355.1718922452412
 10
249.5776
 20
1355.1010094760227
 10
249.9692
 20
1355.0331236472002
 10
250.36079999999998
 20
1354.9682347190267
 10
250.7524
 20
1354.90634265351
 10
251.14399999999998
 20
1354.8474474144102
 10
251.5356
 20
1354.791548967245
 10
251.9272
 20
1354.7386472792848
 10
252.31879999999998
 20
1354.6887423195546
 10
252.7104
 20
1354.6418340588352
 10
253.10199999999998
 20
1354.597922469661
 10
253.4936
 20
1354.5570075263215
 10
253.8852
 20
1354.519089204859
 10
254.27679999999998
 20
1354.484167483075
 10
254.6684
 20
1354.4522423405192
 10
255.06
 20
1354.4233137585022
 10
255.45159999999998
 20
1354.397381720084
 10
255.8432
 20
1354.3744462100808
 10
256.2348
 20
1354.3545072150653
 10
256.6264
 20
1354.3375647233627
 10
257.018
 20
1354.323618725051
 10
257.4096
 20
1354.312669211967
 10
257.8012
 20
1354.3047161776992
 10
258.1928
 20
1354.2997596175896
 10
258.58439999999996
 20
1354.2977995287386
 10
258.976
 20
1354.2988359099957
 10
259.3676
 20
1354.3028687619692
 10
259.75919999999996
 20
1354.3098980870213
 10
260.1508
 20
1354.319923889266
 10
260.5424
 20
1354.3329461745734
 10
260.93399999999997
 20
1354.3489649505698
 10
261.3256
 20
1354.3679802266333
 10
261.7172
 20
1354.3899920138983
 10
262.1088
 20
1354.415000325251
 10
262.5004
 20
1354.4430051753366
 10
262.892
 20
1354.4740065805508
 10
263.2836
 20
1354.5080045590455
 10
263.67519999999996
 20
1354.5449991307266
 10
264.0668
 20
1354.5849903172552
 10
264.4584
 20
1354.6279781420471
 10
264.84999999999997
 20
1354.6739626302706
 10
265.2416
 20
1354.7229438088514
 10
265.6332
 20
1354.7749217064668
 10
266.02479999999997
 20
1354.8298963535533
 10
266.4164
 20
1354.8878677822956
 10
266.808
 20
1354.9488360266394
 10
267.1996
 20
1355.0128011222819
 10
267.59119999999996
 20
1355.0797631066732
 10
267.9828
 20
1355.1497220190222
 10
268.3744
 20
1355.2226779002904
 10
268.76599999999996
 20
1355.2986307931928
 10
269.1576
 20
1355.3775807422028
 10
269.5492
 20
1355.4595277935446
 10
269.94079999999997
 20
1355.544471995199
 10
270.3324
 20
1355.6324133969033
 10
270.724
 20
1355.723352050147
 10
271.1156
 20
1355.8172880081754
 10
271.5072
 20
1355.9142213259904
 10
271.8988
 20
1356.0141520603454
 10
272.2904
 20
1356.1170802697516
 10
272.682
 20
1356.2230060144755
 10
273.0736
 20
1356.3319293565364
 10
273.4652
 20
1356.4438503597114
 10
273.85679999999996
 20
1356.5587690895306
 10
274.2484
 20
1356.6766856132795
 10
274.64
 20
1356.7976000000003
  0
LWPOLYLINE
  5
AF
330
17
100
AcDbEntity
  8
0
 62
10
100
AcDbPolyline
 90
101
 70
0
 43
0.3
 10
320.29
 20
1359.861
 10
319.8335
 20
1359.6287130161252
 10
319.377
 20
1359.4005031932938
 10
318.9205
 20
1359.1763703499273
 10
318.464
 20
1358.9563143076898
 10
318.00750000000005
 20
1358.7403348914925
 10
317.55100000000004
 20
1358.528431929487
 10
317.09450000000004
 20
1358.3206052530695
 10
316.63800000000003
 20
1358.116854696879
 10
316.1815
 20
1357.9171800987972
 10
315.725
 20
1357.7215812999516
 10
315.2685
 20
1357.5300581447113
 10
314.812
 20
1357.3426104806858
 10
314.3555
 20
1357.1592381587302
 10
313.899
 20
1356.979941032942
 10
313.4425
 20
1356.8047189606598
 10
312.986
 20
1356.6335718024661
 10
312.5295
 20
1356.4664994221857
 10
312.07300000000004
 20
1356.3035016868823
 10
311.61650000000003
 20
1356.1445784668656
 10
311.16
 20
1355.9897296356874
 10
310.7035
 20
1355.8389550701368
 10
310.247
 20
1355.6922546502492
 10
309.7905
 20
1355.5496282593
 10
309.334
 20
1355.4110757838073
 10
308.8775
 20
1355.2765971135277
 10
308.421
 20
1355.1461921414618
 10
307.96450000000004
 20
1355.019860763851
 10
307.50800000000004
 20
1354.8976028801787
 10
307.05150000000003
 20
1354.7794183931667
 10
306.595
 20
1354.6653072087802
 10
306.1385
 20
1354.555269236225
 10
305.682
 20
1354.4493043879486
 10
305.2255
 20
1354.347412579637
 10
304.769
 20
1354.2495937302183
 10
304.3125
 20
1354.155847761863
 10
303.856
 20
1354.0661745999782
 10
303.3995
 20
1353.9805741732164
 10
302.943
 20
1353.8990464134667
 10
302.4865
 20
1353.8215912558624
 10
302.03000000000003
 20
1353.7482086387715
 10
301.5735
 20
1353.6788985038095
 10
301.117
 20
1353.613660795826
 10
300.6605
 20
1353.552495462915
 10
300.204
 20
1353.4954024564101
 10
299.7475
 20
1353.4423817308827
 10
299.291
 20
1353.393433244146
 10
298.8345
 20
1353.348556957254
 10
298.378
 20
1353.3077528345007
 10
297.9215
 20
1353.2710208434194
 10
297.46500000000003
 20
1353.238360954783
 10
297.0085
 20
1353.2097731426063
 10
296.552
 20
1353.1852573841406
 10
296.0955
 20
1353.1648136598826
 10
295.639
 20
1353.148441953564
 10
295.1825
 20
1353.13614225216
 10
294.726
 20
1353.1279145458818
 10
294.2695
 20
1353.1237588281842
 10
293.813
 20
1353.1236750957614
 10
293.3565
 20
1353.1276633485452
 10
292.9
 20
1353.1357235897096
 10
292.4435
 20
1353.147855825668
 10
291.987
 20
1353.1640600660742
 10
291.5305
 20
1353.1843363238195
 10
291.074
 20
1353.2086846150396
 10
290.6175
 20
1353.237104959105
 10
290.161
 20
1353.2695973786308
 10
289.7045
 20
1353.3061618994689
 10
289.248
 20
1353.346798550714
 10
288.7915
 20
1353.391507364697
 10
288.335
 20
1353.4402883769926
 10
287.8785
 20
1353.4931416264144
 10
287.422
 20
1353.5500671550144
 10
286.9655
 20
1353.611065008088
 10
286.509
 20
1353.676135234169
 10
286.0525
 20
1353.74527788503
 10
285.596
 20
1353.8184930156867
 10
285.1395
 20
1353.8957806843946
 10
284.683
 20
1353.9771409526463
 10
284.2265
 20
1354.0625738851807
 10
283.77
 20
1354.1520795499712
 10
283.3135
 20
1354.2456580182356
 10
282.85699999999997
 20
1354.3433093644305
 10
282.40049999999997
 20
1354.4450336662546
 10
281.944
 20
1354.5508310046448
 10
281.4875
 20
1354.660701463783
 10
281.031
 20
1354.7746451310866
 10
280.5745
 20
1354.892662097219
 10
280.118
 20
1355.0147524560814
 10
279.6615
 20
1355.140916304816
 10
279.205
 20
1355.271153743808
 10
278.7485
 20
1355.4054648766833
 10
278.292
 20
1355.5438498103083
 10
277.83549999999997
 20
1355.6863086547903
 10
277.37899999999996
 20
1355.8328415234805
 10
276.9225
 20
1355.9834485329689
 10
276.466
 20
1356.1381298030883
 10
276.0095
 20
1356.296885456913
 10
275.553
 20
1356.459715620761
 10
275.0965
 20
1356.6266204241906
 10
274.64
 20
1356.7976000000006
  0
LWPOLYLINE
  5
B0
330
17
100
AcDbEntity
  8
0
 62
10
100
AcDbPolyline
 90
101
 70
0
 43
0.3
 10
385.82
 20
1378.5393
 10
385.1647
 20
1377.9364766584426
 10
384.5094
 20
1377.342079084042
 10
383.8541
 20
1376.7561063022451
 10
383.1988
 20
1376.1785573523064
 10
382.5435
 20
1375.609431287298
 10
381.8882
 20
1375.048727174096
 10
381.2329
 20
1374.4964440933893
 10
380.5776
 20
1373.9525811396722
 10
379.9223
 20
1373.4171374212447
 10
379.267
 20
1372.890112060208
 10
378.6117
 20
1372.3715041924695
 10
377.95640000000003
 20
1371.8613129677365
 10
377.3011
 20
1371.3595375495163
 10
376.6458
 20
1370.866177115111
 10
375.9905
 20
1370.381230855625
 10
375.3352
 20
1369.9046979759555
 10
374.6799
 20
1369.4365776947932
 10
374.0246
 20
1368.9768692446237
 10
373.3693
 20
1368.525571871724
 10
372.714
 20
1368.0826848361592
 10
372.0587
 20
1367.648207411789
 10
371.40340000000003
 20
1367.2221388862547
 10
370.7481
 20
1366.80447856099
 10
370.0928
 20
1366.3952257512117
 10
369.4375
 20
1365.9943797859219
 10
368.7822
 20
1365.6019400079065
 10
368.1269
 20
1365.2179057737321
 10
367.4716
 20
1364.842276453751
 10
366.8163
 20
1364.4750514320917
 10
366.161
 20
1364.1162301066631
 10
365.5057
 20
1363.7658118891543
 10
364.85040000000004
 20
1363.4237962050295
 10
364.1951
 20
1363.0901824935318
 10
363.5398
 20
1362.7649702076794
 10
362.8845
 20
1362.4481588142621
 10
362.2292
 20
1362.1397477938483
 10
361.5739
 20
1361.8397366407755
 10
360.9186
 20
1361.5481248631559
 10
360.2633
 20
1361.264911982872
 10
359.608
 20
1360.9900975355754
 10
358.9527
 20
1360.7236810706916
 10
358.29740000000004
 20
1360.4656621514102
 10
357.6421
 20
1360.2160403546936
 10
356.9868
 20
1359.974815271269
 10
356.3315
 20
1359.7419865056306
 10
355.6762
 20
1359.5175536760405
 10
355.0209
 20
1359.3015164145258
 10
354.36560000000003
 20
1359.093874366879
 10
353.7103
 20
1358.8946271926561
 10
353.055
 20
1358.7037745651774
 10
352.3997
 20
1358.521316171528
 10
351.7444
 20
1358.347251712554
 10
351.08910000000003
 20
1358.181580902865
 10
350.4338
 20
1358.024303470833
 10
349.7785
 20
1357.8754191585915
 10
349.1232
 20
1357.7349277220326
 10
348.4679
 20
1357.6028289308115
 10
347.81260000000003
 20
1357.479122568344
 10
347.1573
 20
1357.3638084318059
 10
346.502
 20
1357.2568863321296
 10
345.8467
 20
1357.15835609401
 10
345.1914
 20
1357.0682175559002
 10
344.53610000000003
 20
1356.986470570011
 10
343.8808
 20
1356.9131150023145
 10
343.2255
 20
1356.8481507325382
 10
342.5702
 20
1356.7915776541681
 10
341.9149
 20
1356.7433956744496
 10
341.25960000000003
 20
1356.7036047143856
 10
340.6043
 20
1356.6722047087342
 10
339.949
 20
1356.6491956060147
 10
339.2937
 20
1356.6345773685016
 10
338.6384
 20
1356.6283499722263
 10
337.98310000000004
 20
1356.63051340698
 10
337.3278
 20
1356.6410676763094
 10
336.6725
 20
1356.6600127975187
 10
336.0172
 20
1356.6873488016693
 10
335.3619
 20
1356.7230757335815
 10
334.70660000000004
 20
1356.7671936518311
 10
334.0513
 20
1356.8197026287532
 10
333.396
 20
1356.8806027504393
 10
332.7407
 20
1356.9498941167403
 10
332.0854
 20
1357.0275768412628
 10
331.43010000000004
 20
1357.113651051373
 10
330.7748
 20
1357.2081168881964
 10
330.1195
 20
1357.3109745066158
 10
329.4642
 20
1357.4222240752724
 10
328.8089
 20
1357.5418657765688
 10
328.15360000000004
 20
1357.6698998066647
 10
327.49830000000003
 20
1357.8063263754818
 10
326.843
 20
1357.9511457067001
 10
326.1877
 20
1358.1043580377604
 10
325.5324
 20
1358.2659636198657
 10
324.87710000000004
 20
1358.4359627179783
 10
324.22180000000003
 20
1358.6143556108243
 10
323.5665
 20
1358.8011425908903
 10
322.9112
 20
1358.9963239644273
 10
322.2559
 20
1359.199900051448
 10
321.60060000000004
 20
1359.4118711857277
 10
320.94530000000003
 20
1359.6322377148101
 10
320.29
 20
1359.861
  0
LWPOLYLINE
  5
B1
330
17
100
AcDbEntity
  8
0
 62
10
100
AcDbPolyline
 90
101
 70
0
 43
0.3
 10
466.99
 20
1408.3282
 10
466.17830000000004
 20
1407.3913557657656
 10
465.3666
 20
1406.467469888946
 10
464.55490000000003
 20
1405.5565400454234
 10
463.7432
 20
1404.658563943667
 10
462.9315
 20
1403.7735393247358
 10
462.1198
 20
1402.9014639622687
 10
461.3081
 20
1402.0423356624797
 10
460.4964
 20
1401.196152264151
 10
459.6847
 20
1400.3629116386317
 10
458.873
 20
1399.5426116898252
 10
458.0613
 20
1398.7352503541929
 10
457.2496
 20
1397.9408256007425
 10
456.4379
 20
1397.1593354310248
 10
455.62620000000004
 20
1396.390777879128
 10
454.8145
 20
1395.635151011677
 10
454.0028
 20
1394.8924529278192
 10
453.1911
 20
1394.1626817592314
 10
452.37940000000003
 20
1393.4458356701061
 10
451.5677
 20
1392.741912857149
 10
450.75600000000003
 20
1392.0509115495788
 10
449.9443
 20
1391.3728300091177
 10
449.1326
 20
1390.7076665299878
 10
448.3209
 20
1390.0554194389101
 10
447.5092
 20
1389.4160870950957
 10
446.6975
 20
1388.789667890245
 10
445.8858
 20
1388.1761602485424
 10
445.0741
 20
1387.575562626654
 10
444.2624
 20
1386.9878735137186
 10
443.4507
 20
1386.413091431352
 10
442.639
 20
1385.851214933635
 10
441.82730000000004
 20
1385.3022426071168
 10
441.0156
 20
1384.7661730708055
 10
440.2039
 20
1384.2430049761685
 10
439.3922
 20
1383.7327370071291
 10
438.58050000000003
 20
1383.2353678800603
 10
437.7688
 20
1382.750896343784
 10
436.9571
 20
1382.2793211795672
 10
436.1454
 20
1381.8206412011193
 10
435.3337
 20
1381.3748552545876
 10
434.522
 20
1380.9419622185574
 10
433.7103
 20
1380.5219610040451
 10
432.8986
 20
1380.1148505545002
 10
432.0869
 20
1379.720629845797
 10
431.2752
 20
1379.3392978862373
 10
430.4635
 20
1378.9708537165452
 10
429.6518
 20
1378.6152964098671
 10
428.8401
 20
1378.2726250717626
 10
428.02840000000003
 20
1377.942838840213
 10
427.2167
 20
1377.625936885609
 10
426.405
 20
1377.321918410755
 10
425.5933
 20
1377.0307826508626
 10
424.7816
 20
1376.7525288735558
 10
423.9699
 20
1376.4871563788604
 10
423.1582
 20
1376.2346644992056
 10
422.3465
 20
1375.9950525994263
 10
421.5348
 20
1375.7683200767572
 10
420.7231
 20
1375.5544663608307
 10
419.9114
 20
1375.3534909136774
 10
419.0997
 20
1375.1653932297265
 10
418.288
 20
1374.9901728357993
 10
417.4763
 20
1374.8278292911134
 10
416.6646
 20
1374.6783621872792
 10
415.8529
 20
1374.541771148297
 10
415.0412
 20
1374.4180558305602
 10
414.22950000000003
 20
1374.3072159228523
 10
413.4178
 20
1374.209251146344
 10
412.6061
 20
1374.124161254596
 10
411.7944
 20
1374.0519460335565
 10
410.9827
 20
1373.9926053015627
 10
410.171
 20
1373.9461389093365
 10
409.3593
 20
1373.9125467399879
 10
408.5476
 20
1373.8918287090123
 10
407.7359
 20
1373.8839847642907
 10
406.9242
 20
1373.8890148860926
 10
406.1125
 20
1373.9069190870712
 10
405.3008
 20
1373.9376974122663
 10
404.4891
 20
1373.9813499391034
 10
403.6774
 20
1374.0378767773936
 10
402.8657
 20
1374.1072780693366
 10
402.054
 20
1374.189553989518
 10
401.2423
 20
1374.2847047449095
 10
400.43059999999997
 20
1374.3927305748716
 10
399.6189
 20
1374.5136317511533
 10
398.8072
 20
1374.6474085778934
 10
397.9955
 20
1374.79406139162
 10
397.1838
 20
1374.953590561252
 10
396.3721
 20
1375.1259964880985
 10
395.5604
 20
1375.311279605863
 10
394.7487
 20
1375.5094403806431
 10
393.937
 20
1375.7204793109297
 10
393.1253
 20
1375.9443969276106
 10
392.3136
 20
1376.1811937939724
 10
391.5019
 20
1376.4308705056992
 10
390.6902
 20
1376.693427690876
 10
389.8785
 20
1376.9688660099887
 10
389.0668
 20
1377.2571861559284
 10
388.25509999999997
 20
1377.5583888539918
 10
387.4434
 20
1377.8724748618808
 10
386.63169999999997
 20
1378.1994449697092
 10
385.82
 20
1378.5393000000004
  0
LWPOLYLINE
  5
B2
330
17
100
AcDbEntity
  8
0
 62
10
100
AcDbPolyline
 90
101
 70
0
 43
0.3
 10
561.99
 20
1453.1496
 10
561.04
 20
1451.8250143256219
 10
560.09
 20
1450.5182318240054
 10
559.14
 20
1449.2292479921716
 10
558.19
 20
1447.9580583884756
 10
557.24
 20
1446.704658632588
 10
556.29
 20
1445.4690444054797
 10
555.34
 20
1444.2512114494089
 10
554.39
 20
1443.0511555679043
 10
553.44
 20
1441.8688726257535
 10
552.49
 20
1440.7043585489864
 10
551.54
 20
1439.5576093248608
 10
550.59
 20
1438.4286210018497
 10
549.64
 20
1437.317389689628
 10
548.69
 20
1436.2239115590594
 10
547.74
 20
1435.14818284218
 10
546.79
 20
1434.090199832191
 10
545.84
 20
1433.04995888344
 10
544.89
 20
1432.027456411412
 10
543.94
 20
1431.0226888927168
 10
542.99
 20
1430.0356528650748
 10
542.04
 20
1429.066344927307
 10
541.09
 20
1428.1147617393249
 10
540.14
 20
1427.1809000221124
 10
539.19
 20
1426.264756557722
 10
538.24
 20
1425.3663281892623
 10
537.29
 20
1424.4856118208813
 10
536.34
 20
1423.6226044177613
 10
535.39
 20
1422.77730300611
 10
534.44
 20
1421.9497046731422
 10
533.49
 20
1421.13980656708
 10
532.54
 20
1420.3476058971344
 10
531.59
 20
1419.5730999335008
 10
530.64
 20
1418.816286007346
 10
529.69
 20
1418.0771615108033
 10
528.74
 20
1417.3557238969602
 10
527.79
 20
1416.6519706798495
 10
526.84
 20
1415.9658994344427
 10
525.89
 20
1415.297507796642
 10
524.94
 20
1414.6467934632678
 10
523.99
 20
1414.0137541920578
 10
523.04
 20
1413.3983878016516
 10
522.09
 20
1412.8006921715898
 10
521.14
 20
1412.220665242301
 10
520.19
 20
1411.6583050150996
 10
519.24
 20
1411.1136095521758
 10
518.29
 20
1410.5865769765917
 10
517.34
 20
1410.0772054722709
 10
516.39
 20
1409.5854932839952
 10
515.44
 20
1409.1114387173986
 10
514.49
 20
1408.6550401389586
 10
513.54
 20
1408.2162959759942
 10
512.59
 20
1407.7952047166596
 10
511.64
 20
1407.3917649099353
 10
510.69
 20
1407.0059751656293
 10
509.74
 20
1406.637834154368
 10
508.79
 20
1406.2873406075917
 10
507.84000000000003
 20
1405.9544933175523
 10
506.89
 20
1405.6392911373068
 10
505.94
 20
1405.3417329807176
 10
504.99
 20
1405.0618178224413
 10
504.04
 20
1404.7995446979346
 10
503.09000000000003
 20
1404.5549127034412
 10
502.14
 20
1404.3279209959967
 10
501.19
 20
1404.1185687934221
 10
500.24
 20
1403.92685537432
 10
499.29
 20
1403.752780078075
 10
498.34000000000003
 20
1403.5963423048504
 10
497.39
 20
1403.4575415155837
 10
496.44
 20
1403.3363772319883
 10
495.49
 20
1403.2328490365517
 10
494.54
 20
1403.1469565725292
 10
493.59000000000003
 20
1403.0786995439487
 10
492.64
 20
1403.028077715608
 10
491.69
 20
1402.9950909130703
 10
490.74
 20
1402.9797390226688
 10
489.79
 20
1402.9820219915027
 10
488.84000000000003
 20
1403.001939827439
 10
487.89
 20
1403.0394925991113
 10
486.94
 20
1403.0946804359219
 10
485.99
 20
1403.1675035280377
 10
485.04
 20
1403.257962126399
 10
484.09000000000003
 20
1403.366056542711
 10
483.14
 20
1403.4917871494501
 10
482.19
 20
1403.6351543798667
 10
481.24
 20
1403.7961587279826
 10
480.29
 20
1403.9748007485948
 10
479.34000000000003
 20
1404.171081057277
 10
478.39
 20
1404.385000330381
 10
477.44
 20
1404.6165593050416
 10
476.49
 20
1404.8657587791752
 10
475.54
 20
1405.1325996114872
 10
474.59000000000003
 20
1405.4170827214712
 10
473.64
 20
1405.719209089414
 10
472.69
 20
1406.0389797563957
 10
471.74
 20
1406.376395824301
 10
470.79
 20
1406.731458455814
 10
469.84000000000003
 20
1407.1041688744274
 10
468.89
 20
1407.4945283644456
 10
467.94
 20
1407.90253827099
 10
466.99
 20
1408.3282
  0
LWPOLYLINE
  5
B3
330
17
100
AcDbEntity
  8
0
 62
10
100
AcDbPolyline
 90
101
 70
0
 43
0.3
 10
656.99
 20
1465.1178
 10
656.04
 20
1464.1235615003638
 10
655.09
 20
1463.1470524648612
 10
654.14
 20
1462.1882695285867
 10
653.19
 20
1461.2472093877193
 10
652.24
 20
1460.3238687995051
 10
651.29
 20
1459.4182445822507
 10
650.34
 20
1458.5303336153102
 10
649.39
 20
1457.6601328390748
 10
648.44
 20
1456.8076392549626
 10
647.49
 20
1455.972849925409
 10
646.54
 20
1455.1557619738521
 10
645.59
 20
1454.3563725847323
 10
644.64
 20
1453.5746790034702
 10
643.69
 20
1452.810678536467
 10
642.74
 20
1452.0643685510936
 10
641.79
 20
1451.3357464756737
 10
640.84
 20
1450.624809799487
 10
639.89
 20
1449.9315560727503
 10
638.94
 20
1449.2559829066151
 10
637.99
 20
1448.5980879731583
 10
637.04
 20
1447.9578690053718
 10
636.09
 20
1447.3353237971544
 10
635.14
 20
1446.7304502033116
 10
634.19
 20
1446.1432461395373
 10
633.24
 20
1445.5737095824143
 10
632.29
 20
1445.0218385694047
 10
631.34
 20
1444.4876311988442
 10
630.39
 20
1443.971085629933
 10
629.44
 20
1443.4722000827323
 10
628.49
 20
1442.990972838157
 10
627.54
 20
1442.5274022379713
 10
626.59
 20
1442.0814866847775
 10
625.64
 20
1441.6532246420195
 10
624.69
 20
1441.2426146339685
 10
623.74
 20
1440.8496552457245
 10
622.79
 20
1440.4743451232084
 10
621.84
 20
1440.116682973158
 10
620.89
 20
1439.7766675631215
 10
619.94
 20
1439.4542977214578
 10
618.99
 20
1439.149572337328
 10
618.04
 20
1438.862490360694
 10
617.09
 20
1438.593050802314
 10
616.14
 20
1438.3412527337407
 10
615.19
 20
1438.1070952873138
 10
614.24
 20
1437.8905776561621
 10
613.29
 20
1437.691699094199
 10
612.34
 20
1437.510458916118
 10
611.39
 20
1437.3468564973932
 10
610.44
 20
1437.2008912742745
 10
609.49
 20
1437.0725627437873
 10
608.54
 20
1436.9618704637312
 10
607.59
 20
1436.8688140526772
 10
606.64
 20
1436.793393189966
 10
605.69
 20
1436.7356076157093
 10
604.74
 20
1436.6954571307867
 10
603.79
 20
1436.672941596846
 10
602.84
 20
1436.6680609363007
 10
601.89
 20
1436.6808151323326
 10
600.94
 20
1436.7112042288932
 10
599.99
 20
1436.7592283306963
 10
599.04
 20
1436.824887603227
 10
598.09
 20
1436.9081822727373
 10
597.14
 20
1437.009112626248
 10
596.19
 20
1437.1276790115487
 10
595.24
 20
1437.2638818372038
 10
594.29
 20
1437.4177215725479
 10
593.34
 20
1437.5891987476866
 10
592.39
 20
1437.7783139535088
 10
591.44
 20
1437.9850678416733
 10
590.49
 20
1438.2094611246262
 10
589.54
 20
1438.4514945755918
 10
588.59
 20
1438.7111690285808
 10
587.64
 20
1438.988485378394
 10
586.69
 20
1439.2834445806222
 10
585.74
 20
1439.596047651649
 10
584.79
 20
1439.9262956686591
 10
583.84
 20
1440.2741897696376
 10
582.89
 20
1440.6397311533756
 10
581.94
 20
1441.0229210794737
 10
580.99
 20
1441.4237608683486
 10
580.04
 20
1441.8422519012327
 10
579.09
 20
1442.278395620185
 10
578.14
 20
1442.7321935280906
 10
577.19
 20
1443.20364718867
 10
576.24
 20
1443.6927582264816
 10
575.29
 20
1444.1995283269289
 10
574.34
 20
1444.7239592362669
 10
573.39
 20
1445.2660527616056
 10
572.44
 20
1445.8258107709187
 10
571.49
 20
1446.4032351930473
 10
570.54
 20
1446.9983280177116
 10
569.59
 20
1447.6110912955112
 10
568.64
 20
1448.2415271379384
 10
567.69
 20
1448.889637717379
 10
566.74
 20
1449.5554252671266
 10
565.79
 20
1450.2388920813864
 10
564.84
 20
1450.940040515281
 10
563.89
 20
1451.658872984865
 10
562.94
 20
1452.3953919671262
 10
561.99
 20
1453.1495999999997
  0
LWPOLYLINE
  5
B4
330
17
100
AcDbEntity
  8
0
 62
10
100
AcDbPolyline
 90
101
 70
0
 43
0.3
 10
656.99
 20
1465.1178
 10
657.94
 20
1464.188616613472
 10
658.89
 20
1463.277150640344
 10
659.84
 20
1462.3833989398408
 10
660.79
 20
1461.5073584322263
 10
661.74
 20
1460.6490260987962
 10
662.69
 20
1459.8083989818663
 10
663.64
 20
1458.9854741847591
 10
664.59
 20
1458.1802488718004
 10
665.54
 20
1457.3927202683037
 10
666.49
 20
1456.6228856605617
 10
667.44
 20
1455.870742395841
 10
668.39
 20
1455.136287882368
 10
669.34
 20
1454.419519589321
 10
670.29
 20
1453.7204350468235
 10
671.24
 20
1453.0390318459358
 10
672.19
 20
1452.3753076386442
 10
673.14
 20
1451.7292601378538
 10
674.09
 20
1451.1008871173801
 10
675.04
 20
1450.4901864119452
 10
675.99
 20
1449.8971559171648
 10
676.94
 20
1449.3217935895448
 10
677.89
 20
1448.7640974464719
 10
678.84
 20
1448.2240655662092
 10
679.79
 20
1447.701696087888
 10
680.74
 20
1447.1969872114992
 10
681.69
 20
1446.7099371978936
 10
682.64
 20
1446.2405443687674
 10
683.59
 20
1445.7888071066643
 10
684.54
 20
1445.3547238549645
 10
685.49
 20
1444.9382931178823
 10
686.44
 20
1444.5395134604607
 10
687.39
 20
1444.1583835085623
 10
688.34
 20
1443.794901948871
 10
689.29
 20
1443.4490675288855
 10
690.24
 20
1443.1208790569096
 10
691.19
 20
1442.810335402055
 10
692.14
 20
1442.5174354942358
 10
693.09
 20
1442.2421783241628
 10
694.04
 20
1441.9845629433405
 10
694.99
 20
1441.7445884640636
 10
695.94
 20
1441.5222540594168
 10
696.89
 20
1441.317558963269
 10
697.84
 20
1441.1305024702717
 10
698.79
 20
1440.9610839358559
 10
699.74
 20
1440.8093027762307
 10
700.69
 20
1440.6751584683807
 10
701.64
 20
1440.5586505500648
 10
702.59
 20
1440.4597786198142
 10
703.54
 20
1440.37854233693
 10
704.49
 20
1440.3149414214859
 10
705.44
 20
1440.2689756543216
 10
706.39
 20
1440.2406448770455
 10
707.34
 20
1440.2299489920354
 10
708.29
 20
1440.2368879624332
 10
709.24
 20
1440.2614618121495
 10
710.19
 20
1440.3036706258642
 10
711.14
 20
1440.3635145490214
 10
712.09
 20
1440.4409937878336
 10
713.04
 20
1440.536108609283
 10
713.99
 20
1440.648859341123
 10
714.94
 20
1440.7792463718722
 10
715.89
 20
1440.9272701508278
 10
716.84
 20
1441.0929311880564
 10
717.79
 20
1441.276230054402
 10
718.74
 20
1441.4771673814842
 10
719.69
 20
1441.6957438617032
 10
720.64
 20
1441.9319602482408
 10
721.59
 20
1442.185817355065
 10
722.54
 20
1442.4573160569273
 10
723.49
 20
1442.7464572893728
 10
724.44
 20
1443.0532420487386
 10
725.39
 20
1443.3776713921595
 10
726.34
 20
1443.7197464375697
 10
727.29
 20
1444.07946836371
 10
728.24
 20
1444.4568384101283
 10
729.19
 20
1444.8518578771852
 10
730.14
 20
1445.2645281260575
 10
731.09
 20
1445.6948505787477
 10
732.04
 20
1446.1428267180806
 10
732.99
 20
1446.6084580877166
 10
733.94
 20
1447.0917462921502
 10
734.89
 20
1447.592692996722
 10
735.84
 20
1448.1112999276186
 10
736.79
 20
1448.6475688718826
 10
737.74
 20
1449.2015016774158
 10
738.69
 20
1449.7731002529895
 10
739.64
 20
1450.3623665682458
 10
740.59
 20
1450.9693026537082
 10
741.54
 20
1451.5939106007895
 10
742.49
 20
1452.2361925617938
 10
743.44
 20
1452.8961507499284
 10
744.39
 20
1453.5737874393124
 10
745.34
 20
1454.2691049649804
 10
746.29
 20
1454.982105722891
 10
747.24
 20
1455.71279216994
 10
748.19
 20
1456.4611668239636
 10
749.14
 20
1457.2272322637496
 10
750.09
 20
1458.010991129043
 10
751.04
 20
1458.8124461205616
 10
751.99
 20
1459.6316
  0
LWPOLYLINE
  5
B5
330
17
100
AcDbEntity
  8
0
 62
10
100
AcDbPolyline
 90
101
 70
0
 43
0.3
 10
846.99
 20
1462.6995
 10
846.04
 20
1461.794576936265
 10
845.09
 20
1460.907367000583
 10
844.14
 20
1460.037867135762
 10
843.19
 20
1459.1860743456346
 10
842.24
 20
1458.3519856950509
 10
841.29
 20
1457.5355983098657
 10
840.34
 20
1456.7369093769303
 10
839.39
 20
1455.9559161440807
 10
838.44
 20
1455.1926159201323
 10
837.49
 20
1454.447006074865
 10
836.54
 20
1453.71908403902
 10
835.59
 20
1453.0088473042856
 10
834.64
 20
1452.316293423294
 10
833.69
 20
1451.6414200096049
 10
832.74
 20
1450.9842247377073
 10
831.79
 20
1450.344705343004
 10
830.84
 20
1449.7228596218072
 10
829.89
 20
1449.118685431329
 10
828.94
 20
1448.532180689674
 10
827.99
 20
1447.963343375837
 10
827.04
 20
1447.4121715296874
 10
826.09
 20
1446.87866325197
 10
825.14
 20
1446.3628167042955
 10
824.19
 20
1445.8646301091342
 10
823.24
 20
1445.3841017498073
 10
822.29
 20
1444.9212299704875
 10
821.34
 20
1444.476013176187
 10
820.39
 20
1444.0484498327555
 10
819.44
 20
1443.6385384668745
 10
818.49
 20
1443.2462776660495
 10
817.54
 20
1442.8716660786083
 10
816.59
 20
1442.5147024136957
 10
815.64
 20
1442.1753854412684
 10
814.69
 20
1441.8537139920904
 10
813.74
 20
1441.5496869577305
 10
812.79
 20
1441.2633032905562
 10
811.84
 20
1440.9945620037317
 10
810.89
 20
1440.7434621712164
 10
809.94
 20
1440.5100029277562
 10
808.99
 20
1440.2941834688856
 10
808.04
 20
1440.0960030509239
 10
807.09
 20
1439.9154609909706
 10
806.14
 20
1439.7525566669042
 10
805.19
 20
1439.6072895173813
 10
804.24
 20
1439.4796590418332
 10
803.29
 20
1439.3696648004632
 10
802.34
 20
1439.2773064142484
 10
801.39
 20
1439.2025835649358
 10
800.44
 20
1439.14549599504
 10
799.49
 20
1439.106043507848
 10
798.54
 20
1439.0842259674123
 10
797.59
 20
1439.080043298551
 10
796.64
 20
1439.093495486852
 10
795.69
 20
1439.12458257867
 10
794.74
 20
1439.1733046811273
 10
793.79
 20
1439.2396619621109
 10
792.84
 20
1439.32365465028
 10
791.89
 20
1439.4252830350597
 10
790.94
 20
1439.5445474666462
 10
789.99
 20
1439.6814483560076
 10
789.04
 20
1439.8359861748838
 10
788.09
 20
1440.008161455789
 10
787.14
 20
1440.1979747920136
 10
786.19
 20
1440.4054268376249
 10
785.24
 20
1440.6305183074735
 10
784.29
 20
1440.8732499771902
 10
783.34
 20
1441.1336226831913
 10
782.39
 20
1441.4116373226827
 10
781.44
 20
1441.7072948536618
 10
780.49
 20
1442.020596294921
 10
779.54
 20
1442.3515427260484
 10
778.59
 20
1442.7001352874372
 10
777.64
 20
1443.0663751802842
 10
776.69
 20
1443.4502636665993
 10
775.74
 20
1443.8518020692034
 10
774.79
 20
1444.270991771739
 10
773.84
 20
1444.70783421867
 10
772.89
 20
1445.1623309152906
 10
771.94
 20
1445.6344834277288
 10
770.99
 20
1446.1242933829524
 10
770.04
 20
1446.6317624687717
 10
769.09
 20
1447.1568924338496
 10
768.14
 20
1447.6996850877076
 10
767.19
 20
1448.2601423007259
 10
766.24
 20
1448.8382660041573
 10
765.29
 20
1449.4340581901295
 10
764.34
 20
1450.0475209116541
 10
763.39
 20
1450.6786562826308
 10
762.44
 20
1451.3274664778592
 10
761.49
 20
1451.993953733042
 10
760.54
 20
1452.6781203447933
 10
759.59
 20
1453.379968670651
 10
758.64
 20
1454.099501129079
 10
757.69
 20
1454.8367201994777
 10
756.74
 20
1455.5916284221958
 10
755.79
 20
1456.3642283985325
 10
754.84
 20
1457.1545227907543
 10
753.89
 20
1457.9625143220946
 10
752.94
 20
1458.7882057767736
 10
751.99
 20
1459.6316000000006
  0
LWPOLYLINE
  5
B6
330
17
100
AcDbEntity
  8
0
 62
10
100
AcDbPolyline
 90
101
 70
0
 43
0.3
 10
941.99
 20
1474.2011
 10
941.04
 20
1473.211545779939
 10
940.09
 20
1472.2397201291
 10
939.14
 20
1471.2856196987157
 10
938.19
 20
1470.3492412010994
 10
937.24
 20
1469.4305814096306
 10
936.29
 20
1468.529637158744
 10
935.34
 20
1467.646405343921
 10
934.39
 20
1466.7808829216754
 10
933.44
 20
1465.9330669095482
 10
932.49
 20
1465.1029543860914
 10
931.54
 20
1464.2905424908595
 10
930.59
 20
1463.4958284244046
 10
929.64
 20
1462.7188094482592
 10
928.69
 20
1461.9594828849338
 10
927.74
 20
1461.2178461178992
 10
926.79
 20
1460.4938965915892
 10
925.84
 20
1459.7876318113806
 10
924.89
 20
1459.0990493435895
 10
923.94
 20
1458.4281468154645
 10
922.99
 20
1457.774921915175
 10
922.04
 20
1457.1393723918065
 10
921.09
 20
1456.5214960553496
 10
920.14
 20
1455.9212907766953
 10
919.19
 20
1455.3387544876252
 10
918.24
 20
1454.7738851808062
 10
917.29
 20
1454.2266809097844
 10
916.34
 20
1453.6971397889724
 10
915.39
 20
1453.1852599936537
 10
914.44
 20
1452.6910397599659
 10
913.49
 20
1452.2144773849002
 10
912.54
 20
1451.7555712262927
 10
911.59
 20
1451.314319702822
 10
910.64
 20
1450.8907212940023
 10
909.69
 20
1450.484774540175
 10
908.74
 20
1450.0964780425086
 10
907.79
 20
1449.7258304629916
 10
906.84
 20
1449.3728305244283
 10
905.89
 20
1449.0374770104333
 10
904.94
 20
1448.7197687654282
 10
903.99
 20
1448.4197046946385
 10
903.04
 20
1448.1372837640868
 10
902.09
 20
1447.8725050005935
 10
901.14
 20
1447.6253674917714
 10
900.19
 20
1447.3958703860212
 10
899.24
 20
1447.1840128925282
 10
898.29
 20
1446.9897942812663
 10
897.34
 20
1446.813213882984
 10
896.39
 20
1446.6542710892138
 10
895.44
 20
1446.5129653522627
 10
894.49
 20
1446.3892961852107
 10
893.54
 20
1446.2832631619133
 10
892.59
 20
1446.1948659169952
 10
891.64
 20
1446.1241041458557
 10
890.69
 20
1446.070977604657
 10
889.74
 20
1446.0354861103347
 10
888.79
 20
1446.0176295405897
 10
887.84
 20
1446.0174078338916
 10
886.89
 20
1446.0348209894764
 10
885.94
 20
1446.0698690673462
 10
884.99
 20
1446.1225521882736
 10
884.04
 20
1446.192870533794
 10
883.09
 20
1446.2808243462155
 10
882.14
 20
1446.3864139286143
 10
881.19
 20
1446.5096396448357
 10
880.24
 20
1446.650501919496
 10
879.29
 20
1446.809001237987
 10
878.34
 20
1446.9851381464732
 10
877.39
 20
1447.1789132518968
 10
876.44
 20
1447.3903272219768
 10
875.49
 20
1447.6193807852148
 10
874.54
 20
1447.8660747308945
 10
873.59
 20
1448.1304099090873
 10
872.64
 20
1448.4123872306525
 10
871.69
 20
1448.7120076672418
 10
870.74
 20
1449.0292722513025
 10
869.79
 20
1449.3641820760804
 10
868.84
 20
1449.7167382956247
 10
867.89
 20
1450.0869421247928
 10
866.94
 20
1450.4747948392508
 10
865.99
 20
1450.8802977754817
 10
865.04
 20
1451.3034523307874
 10
864.09
 20
1451.7442599632961
 10
863.14
 20
1452.2027221919648
 10
862.19
 20
1452.678840596586
 10
861.24
 20
1453.1726168177913
 10
860.29
 20
1453.6840525570624
 10
859.34
 20
1454.213149576728
 10
858.39
 20
1454.7599096999788
 10
857.44
 20
1455.324334810868
 10
856.49
 20
1455.906426854321
 10
855.54
 20
1456.5061878361403
 10
854.59
 20
1457.12361982301
 10
853.64
 20
1457.7587249425117
 10
852.69
 20
1458.411505383121
 10
851.74
 20
1459.081963394223
 10
850.79
 20
1459.7701012861141
 10
849.84
 20
1460.4759214300173
 10
848.89
 20
1461.199426258081
 10
847.94
 20
1461.940618263396
 10
846.99
 20
1462.6994999999997
  0
LWPOLYLINE
  5
B7
330
17
100
AcDbEntity
  8
0
 62
10
100
AcDbPolyline
 90
101
 70
0
 43
0.3
 10
1036.99
 20
1478.6965
 10
1036.04
 20
1477.7772569763254
 10
1035.09
 20
1476.8757295964701
 10
1034.14
 20
1475.991914753904
 10
1033.19
 20
1475.1258094031343
 10
1032.24
 20
1474.2774105596895
 10
1031.29
 20
1473.446715300116
 10
1030.34
 20
1472.63372076196
 10
1029.39
 20
1471.8384241437648
 10
1028.44
 20
1471.0608227050561
 10
1027.49
 20
1470.3009137663373
 10
1026.54
 20
1469.5586947090728
 10
1025.59
 20
1468.8341629756897
 10
1024.64
 20
1468.1273160695584
 10
1023.69
 20
1467.4381515549887
 10
1022.74
 20
1466.7666670572246
 10
1021.79
 20
1466.1128602624308
 10
1020.84
 20
1465.4767289176855
 10
1019.89
 20
1464.8582708309748
 10
1018.94
 20
1464.257483871186
 10
1017.99
 20
1463.6743659680958
 10
1017.04
 20
1463.108915112367
 10
1016.09
 20
1462.5611293555417
 10
1015.14
 20
1462.0310068100296
 10
1014.19
 20
1461.5185456491104
 10
1013.24
 20
1461.023744106917
 10
1012.29
 20
1460.5466004784391
 10
1011.34
 20
1460.08711311951
 10
1010.39
 20
1459.645280446804
 10
1009.44
 20
1459.2211009378339
 10
1008.49
 20
1458.814573130938
 10
1007.54
 20
1458.4256956252843
 10
1006.59
 20
1458.0544670808574
 10
1005.64
 20
1457.70088621846
 10
1004.69
 20
1457.364951819706
 10
1003.74
 20
1457.046662727014
 10
1002.79
 20
1456.7460178436083
 10
1001.84
 20
1456.4630161335108
 10
1000.89
 20
1456.1976566215408
 10
999.94
 20
1455.9499383933075
 10
998.99
 20
1455.7198605952135
 10
998.04
 20
1455.5074224344423
 10
997.09
 20
1455.3126231789659
 10
996.14
 20
1455.1354621575335
 10
995.19
 20
1454.975938759676
 10
994.24
 20
1454.8340524356975
 10
993.29
 20
1454.709802696682
 10
992.34
 20
1454.6031891144808
 10
991.39
 20
1454.5142113217205
 10
990.44
 20
1454.4428690117966
 10
989.49
 20
1454.3891619388748
 10
988.54
 20
1454.3530899178886
 10
987.59
 20
1454.3346528245377
 10
986.64
 20
1454.3338505952927
 10
985.69
 20
1454.3506832273874
 10
984.74
 20
1454.3851507788263
 10
983.79
 20
1454.4372533683772
 10
982.84
 20
1454.5069911755802
 10
981.89
 20
1454.5943644407403
 10
980.94
 20
1454.699373464932
 10
979.99
 20
1454.8220186100011
 10
979.04
 20
1454.9623002985659
 10
978.09
 20
1455.1202190140148
 10
977.14
 20
1455.2957753005114
 10
976.19
 20
1455.4889697629987
 10
975.24
 20
1455.6998030671937
 10
974.29
 20
1455.928275939598
 10
973.34
 20
1456.174389167494
 10
972.39
 20
1456.4381435989521
 10
971.44
 20
1456.7195401428294
 10
970.49
 20
1457.0185797687775
 10
969.54
 20
1457.3352635072424
 10
968.59
 20
1457.6695924494682
 10
967.64
 20
1458.0215677475032
 10
966.69
 20
1458.3911906142
 10
965.74
 20
1458.7784623232264
 10
964.79
 20
1459.1833842090616
 10
963.84
 20
1459.6059576670054
 10
962.89
 20
1460.0461841531844
 10
961.94
 20
1460.504065184552
 10
960.99
 20
1460.9796023388974
 10
960.04
 20
1461.4727972548528
 10
959.09
 20
1461.9836516318917
 10
958.14
 20
1462.5121672303435
 10
957.19
 20
1463.0583458713943
 10
956.24
 20
1463.6221894370938
 10
955.29
 20
1464.203699870362
 10
954.34
 20
1464.8028791749966
 10
953.39
 20
1465.419729415682
 10
952.44
 20
1466.0542527179907
 10
951.49
 20
1466.706451268396
 10
950.54
 20
1467.376327314276
 10
949.59
 20
1468.0638831639226
 10
948.64
 20
1468.769121186553
 10
947.69
 20
1469.4920438123104
 10
946.74
 20
1470.2326535322795
 10
945.79
 20
1470.990952898489
 10
944.84
 20
1471.7669445239267
 10
943.89
 20
1472.5606310825435
 10
942.94
 20
1473.3720153092647
 10
941.99
 20
1474.2010999999998
  0
LWPOLYLINE
  5
B8
330
17
100
AcDbEntity
  8
0
 62
10
100
AcDbPolyline
 90
101
 70
0
 43
0.3
 10
1131.99
 20
1491.1871
 10
1131.04
 20
1490.187616785324
 10
1130.09
 20
1489.2058640417686
 10
1129.14
 20
1488.2418383863583
 10
1128.19
 20
1487.2955364972054
 10
1127.24
 20
1486.3669551134967
 10
1126.29
 20
1485.456091035476
 10
1125.34
 20
1484.562941124444
 10
1124.39
 20
1483.6875023027396
 10
1123.44
 20
1482.8297715537303
 10
1122.49
 20
1481.9897459218048
 10
1121.54
 20
1481.1674225123588
 10
1120.59
 20
1480.3627984917914
 10
1119.64
 20
1479.5758710874852
 10
1118.69
 20
1478.806637587808
 10
1117.74
 20
1478.0550953420957
 10
1116.79
 20
1477.3212417606446
 10
1115.84
 20
1476.6050743147066
 10
1114.89
 20
1475.9065905364741
 10
1113.94
 20
1475.2257880190778
 10
1112.99
 20
1474.5626644165732
 10
1112.04
 20
1473.917217443935
 10
1111.09
 20
1473.289444877049
 10
1110.14
 20
1472.6793445527064
 10
1109.19
 20
1472.0869143685904
 10
1108.24
 20
1471.512152283277
 10
1107.29
 20
1470.9550563162213
 10
1106.34
 20
1470.4156245477523
 10
1105.39
 20
1469.8938551190704
 10
1104.44
 20
1469.3897462322357
 10
1103.49
 20
1468.9032961501641
 10
1102.54
 20
1468.4345031966209
 10
1101.59
 20
1467.983365756216
 10
1100.64
 20
1467.5498822743973
 10
1099.69
 20
1467.1340512574452
 10
1098.74
 20
1466.7358712724679
 10
1097.79
 20
1466.3553409473966
 10
1096.84
 20
1465.9924589709817
 10
1095.89
 20
1465.6472240927849
 10
1094.94
 20
1465.3196351231777
 10
1093.99
 20
1465.0096909333397
 10
1093.04
 20
1464.7173904552474
 10
1092.09
 20
1464.4427326816783
 10
1091.14
 20
1464.1857166662026
 10
1090.19
 20
1463.9463415231812
 10
1089.24
 20
1463.7246064277629
 10
1088.29
 20
1463.520510615881
 10
1087.34
 20
1463.3340533842531
 10
1086.39
 20
1463.1652340903752
 10
1085.44
 20
1463.0140521525207
 10
1084.49
 20
1462.8805070497394
 10
1083.54
 20
1462.7645983218547
 10
1082.59
 20
1462.6663255694637
 10
1081.64
 20
1462.5856884539312
 10
1080.69
 20
1462.5226866973956
 10
1079.74
 20
1462.4773200827603
 10
1078.79
 20
1462.4495884536996
 10
1077.84
 20
1462.439491714656
 10
1076.89
 20
1462.4470298308354
 10
1075.94
 20
1462.4722028282135
 10
1074.99
 20
1462.5150107935333
 10
1074.04
 20
1462.5754538743035
 10
1073.09
 20
1462.653532278804
 10
1072.14
 20
1462.74924627608
 10
1071.19
 20
1462.8625961959476
 10
1070.24
 20
1462.993582428994
 10
1069.29
 20
1463.1422054265784
 10
1068.34
 20
1463.3084657008324
 10
1067.39
 20
1463.4923638246646
 10
1066.44
 20
1463.6939004317614
 10
1065.49
 20
1463.9130762165876
 10
1064.54
 20
1464.1498919343885
 10
1063.59
 20
1464.404348401198
 10
1062.64
 20
1464.6764464938337
 10
1061.69
 20
1464.966187149905
 10
1060.74
 20
1465.2735713678157
 10
1059.79
 20
1465.5986002067655
 10
1058.84
 20
1465.9412747867555
 10
1057.89
 20
1466.3015962885902
 10
1056.94
 20
1466.6795659538857
 10
1055.99
 20
1467.0751850850663
 10
1055.04
 20
1467.488455045378
 10
1054.09
 20
1467.919377258888
 10
1053.14
 20
1468.3679532104884
 10
1052.19
 20
1468.8341844459062
 10
1051.24
 20
1469.3180725717045
 10
1050.29
 20
1469.8196192552887
 10
1049.34
 20
1470.338826224914
 10
1048.39
 20
1470.8756952696901
 10
1047.44
 20
1471.430228239589
 10
1046.49
 20
1472.002427045446
 10
1045.54
 20
1472.5922936589743
 10
1044.59
 20
1473.199830112767
 10
1043.64
 20
1473.8250385003018
 10
1042.69
 20
1474.467920975955
 10
1041.74
 20
1475.1284797550018
 10
1040.79
 20
1475.8067171136315
 10
1039.84
 20
1476.5026353889489
 10
1038.89
 20
1477.216236978982
 10
1037.94
 20
1477.9475243426966
 10
1036.99
 20
1478.6965
  0
LWPOLYLINE
  5
B9
330
17
100
AcDbEntity
  8
0
 62
10
100
AcDbPolyline
 90
101
 70
0
 43
0.3
 10
1131.99
 20
1491.1871
 10
1132.94
 20
1490.3010411684204
 10
1133.89
 20
1489.4326922111209
 10
1134.84
 20
1488.5820501359003
 10
1135.79
 20
1487.7491120115735
 10
1136.74
 20
1486.9338749679594
 10
1137.69
 20
1486.1363361958743
 10
1138.64
 20
1485.3564929471174
 10
1139.59
 20
1484.5943425344649
 10
1140.54
 20
1483.8498823316622
 10
1141.49
 20
1483.123109773409
 10
1142.44
 20
1482.4140223553563
 10
1143.39
 20
1481.7226176340937
 10
1144.34
 20
1481.0488932271458
 10
1145.29
 20
1480.3928468129568
 10
1146.24
 20
1479.7544761308889
 10
1147.19
 20
1479.133778981214
 10
1148.14
 20
1478.5307532251006
 10
1149.09
 20
1477.9453967846123
 10
1150.04
 20
1477.3777076426989
 10
1150.99
 20
1476.8276838431882
 10
1151.94
 20
1476.2953234907798
 10
1152.89
 20
1475.7806247510393
 10
1153.84
 20
1475.2835858503922
 10
1154.79
 20
1474.8042050761164
 10
1155.74
 20
1474.3424807763377
 10
1156.69
 20
1473.898411360022
 10
1157.64
 20
1473.4719952969745
 10
1158.59
 20
1473.0632311178279
 10
1159.54
 20
1472.6721174140407
 10
1160.49
 20
1472.2986528378947
 10
1161.44
 20
1471.942836102488
 10
1162.39
 20
1471.604665981727
 10
1163.34
 20
1471.2841413103292
 10
1164.29
 20
1470.9812609838132
 10
1165.24
 20
1470.6960239585005
 10
1166.19
 20
1470.4284292515058
 10
1167.14
 20
1470.1784759407376
 10
1168.09
 20
1469.9461631648953
 10
1169.04
 20
1469.7314901234618
 10
1169.99
 20
1469.5344560767069
 10
1170.94
 20
1469.355060345681
 10
1171.89
 20
1469.1933023122126
 10
1172.84
 20
1469.0491814189081
 10
1173.79
 20
1468.9226971691483
 10
1174.74
 20
1468.813849127088
 10
1175.69
 20
1468.722636917651
 10
1176.64
 20
1468.6490602265358
 10
1177.59
 20
1468.5931188002078
 10
1178.54
 20
1468.5548124459006
 10
1179.49
 20
1468.534141031616
 10
1180.44
 20
1468.5311044861235
 10
1181.39
 20
1468.5457027989607
 10
1182.34
 20
1468.5779360204297
 10
1183.29
 20
1468.6278042616027
 10
1184.24
 20
1468.6953076943178
 10
1185.19
 20
1468.7804465511808
 10
1186.14
 20
1468.883221125569
 10
1187.09
 20
1469.0036317716267
 10
1188.04
 20
1469.1416789042723
 10
1188.99
 20
1469.2973629991957
 10
1189.94
 20
1469.47068459286
 10
1190.89
 20
1469.661644282505
 10
1191.84
 20
1469.8702427261514
 10
1192.79
 20
1470.0964806425961
 10
1193.74
 20
1470.3403588114227
 10
1194.69
 20
1470.6018780729992
 10
1195.64
 20
1470.8810393284805
 10
1196.59
 20
1471.177843539815
 10
1197.54
 20
1471.4922917297465
 10
1198.49
 20
1471.8243849818155
 10
1199.44
 20
1472.174124440367
 10
1200.39
 20
1472.5415113105491
 10
1201.34
 20
1472.926546858324
 10
1202.29
 20
1473.329232410466
 10
1203.24
 20
1473.7495693545686
 10
1204.19
 20
1474.1875591390515
 10
1205.14
 20
1474.6432032731611
 10
1206.09
 20
1475.116503326979
 10
1207.04
 20
1475.607460931427
 10
1207.99
 20
1476.116077778273
 10
1208.94
 20
1476.6423556201314
 10
1209.89
 20
1477.1862962704797
 10
1210.84
 20
1477.747901603656
 10
1211.79
 20
1478.3271735548667
 10
1212.74
 20
1478.924114120198
 10
1213.69
 20
1479.5387253566178
 10
1214.64
 20
1480.1710093819845
 10
1215.59
 20
1480.8209683750547
 10
1216.54
 20
1481.488604575489
 10
1217.49
 20
1482.173920283862
 10
1218.44
 20
1482.8769178616708
 10
1219.39
 20
1483.5975997313396
 10
1220.34
 20
1484.3359683762303
 10
1221.29
 20
1485.0920263406501
 10
1222.24
 20
1485.8657762298633
 10
1223.19
 20
1486.6572207100944
 10
1224.14
 20
1487.466362508546
 10
1225.09
 20
1488.293204413398
 10
1226.04
 20
1489.1377492738234
 10
1226.99
 20
1489.999999999999
  0
LWPOLYLINE
  5
BA
330
17
100
AcDbEntity
  8
0
 62
10
100
AcDbPolyline
 90
101
 70
0
 43
0.3
 10
1321.99
 20
1492.8726
 10
1321.04
 20
1491.9696359343045
 10
1320.09
 20
1491.0843846555745
 10
1319.14
 20
1490.2168431133673
 10
1318.19
 20
1489.3670083182635
 10
1317.24
 20
1488.5348773418584
 10
1316.29
 20
1487.7204473167542
 10
1315.34
 20
1486.9237154365464
 10
1314.39
 20
1486.1446789558163
 10
1313.44
 20
1485.3833351901194
 10
1312.49
 20
1484.6396815159783
 10
1311.54
 20
1483.9137153708755
 10
1310.59
 20
1483.205434253239
 10
1309.64
 20
1482.5148357224393
 10
1308.69
 20
1481.841917398774
 10
1307.74
 20
1481.1866769634694
 10
1306.79
 20
1480.5491121586633
 10
1305.84
 20
1479.9292207874041
 10
1304.89
 20
1479.3270007136375
 10
1303.94
 20
1478.742449862203
 10
1302.99
 20
1478.1755662188268
 10
1302.04
 20
1477.6263478301116
 10
1301.09
 20
1477.094792803533
 10
1300.14
 20
1476.5808993074331
 10
1299.19
 20
1476.0846655710086
 10
1298.24
 20
1475.6060898843148
 10
1297.29
 20
1475.145170598251
 10
1296.34
 20
1474.7019061245567
 10
1295.39
 20
1474.27629493581
 10
1294.44
 20
1473.868335565418
 10
1293.49
 20
1473.4780266076132
 10
1292.54
 20
1473.1053667174506
 10
1291.59
 20
1472.7503546107978
 10
1290.64
 20
1472.4129890643367
 10
1289.69
 20
1472.0932689155582
 10
1288.74
 20
1471.7911930627517
 10
1287.79
 20
1471.5067604650098
 10
1286.84
 20
1471.2399701422203
 10
1285.89
 20
1470.9908211750628
 10
1284.94
 20
1470.7593127050088
 10
1283.99
 20
1470.5454439343139
 10
1283.04
 20
1470.349214126018
 10
1282.09
 20
1470.1706226039435
 10
1281.14
 20
1470.0096687526889
 10
1280.19
 20
1469.8663520176324
 10
1279.24
 20
1469.7406719049263
 10
1278.29
 20
1469.6326279814948
 10
1277.34
 20
1469.5422198750346
 10
1276.39
 20
1469.469447274013
 10
1275.44
 20
1469.4143099276673
 10
1274.49
 20
1469.3768076460028
 10
1273.54
 20
1469.3569402997905
 10
1272.59
 20
1469.3547078205702
 10
1271.64
 20
1469.3701102006523
 10
1270.69
 20
1469.4031474931073
 10
1269.74
 20
1469.4538198117796
 10
1268.79
 20
1469.522127331277
 10
1267.84
 20
1469.608070286978
 10
1266.89
 20
1469.711648975028
 10
1265.94
 20
1469.832863752344
 10
1264.99
 20
1469.9717150366141
 10
1264.04
 20
1470.1282033063
 10
1263.09
 20
1470.302329100636
 10
1262.14
 20
1470.4940930196335
 10
1261.19
 20
1470.703495724083
 10
1260.24
 20
1470.9305379355549
 10
1259.29
 20
1471.1752204364013
 10
1258.34
 20
1471.4375440697638
 10
1257.39
 20
1471.7175097395684
 10
1256.44
 20
1472.015118410536
 10
1255.49
 20
1472.3303711081824
 10
1254.54
 20
1472.6632689188204
 10
1253.59
 20
1473.013812989565
 10
1252.64
 20
1473.3820045283408
 10
1251.69
 20
1473.7678448038807
 10
1250.74
 20
1474.1713351457308
 10
1249.79
 20
1474.5924769442609
 10
1248.84
 20
1475.0312716506614
 10
1247.89
 20
1475.4877207769534
 10
1246.94
 20
1475.961825895992
 10
1245.99
 20
1476.453588641474
 10
1245.04
 20
1476.9630107079388
 10
1244.09
 20
1477.4900938507808
 10
1243.14
 20
1478.0348398862473
 10
1242.19
 20
1478.597250691454
 10
1241.24
 20
1479.1773282043835
 10
1240.29
 20
1479.775074423897
 10
1239.34
 20
1480.3904914097382
 10
1238.39
 20
1481.0235812825408
 10
1237.44
 20
1481.6743462238408
 10
1236.49
 20
1482.3427884760738
 10
1235.54
 20
1483.0289103425948
 10
1234.59
 20
1483.7327141876767
 10
1233.64
 20
1484.4542024365214
 10
1232.69
 20
1485.1933775752693
 10
1231.74
 20
1485.9502421510097
 10
1230.79
 20
1486.7247987717838
 10
1229.84
 20
1487.517050106597
 10
1228.89
 20
1488.326998885431
 10
1227.94
 20
1489.154647899247
 10
1226.99
 20
1489.9999999999998
  0
LWPOLYLINE
  5
BB
330
17
100
AcDbEntity
  8
0
 62
10
100
AcDbPolyline
 90
101
 70
0
 43
0.3
 10
1416.99
 20
1500.5428
 10
1416.04
 20
1499.5917019285287
 10
1415.09
 20
1498.6583252389341
 10
1414.14
 20
1497.7426667149382
 10
1413.19
 20
1496.8447232013198
 10
1412.24
 20
1495.9644916038988
 10
1411.29
 20
1495.1019688895276
 10
1410.34
 20
1494.2571520860834
 10
1409.39
 20
1493.4300382824538
 10
1408.44
 20
1492.6206246285265
 10
1407.49
 20
1491.8289083351842
 10
1406.54
 20
1491.0548866742906
 10
1405.59
 20
1490.298556978682
 10
1404.64
 20
1489.5599166421605
 10
1403.69
 20
1488.83896311948
 10
1402.74
 20
1488.1356939263433
 10
1401.79
 20
1487.450106639389
 10
1400.84
 20
1486.782198896187
 10
1399.89
 20
1486.1319683952272
 10
1398.94
 20
1485.4994128959106
 10
1397.99
 20
1484.8845302185466
 10
1397.04
 20
1484.2873182443411
 10
1396.09
 20
1483.7077749153905
 10
1395.14
 20
1483.1458982346753
 10
1394.19
 20
1482.6016862660515
 10
1393.24
 20
1482.075137134248
 10
1392.29
 20
1481.5662490248537
 10
1391.34
 20
1481.0750201843164
 10
1390.39
 20
1480.601448919934
 10
1389.44
 20
1480.145533599852
 10
1388.49
 20
1479.707272653053
 10
1387.54
 20
1479.286664569357
 10
1386.59
 20
1478.8837078994093
 10
1385.64
 20
1478.4984012546831
 10
1384.69
 20
1478.1307433074678
 10
1383.74
 20
1477.7807327908704
 10
1382.79
 20
1477.4483684988058
 10
1381.84
 20
1477.1336492859964
 10
1380.89
 20
1476.8365740679683
 10
1379.94
 20
1476.557141821042
 10
1378.99
 20
1476.2953515823388
 10
1378.04
 20
1476.0512024497648
 10
1377.09
 20
1475.8246935820227
 10
1376.14
 20
1475.6158241985938
 10
1375.19
 20
1475.4245935797467
 10
1374.24
 20
1475.2510010665292
 10
1373.29
 20
1475.0950460607667
 10
1372.34
 20
1474.956728025062
 10
1371.39
 20
1474.836046482792
 10
1370.44
 20
1474.733001018105
 10
1369.49
 20
1474.647591275924
 10
1368.54
 20
1474.5798169619375
 10
1367.59
 20
1474.5296778426066
 10
1366.64
 20
1474.4971737451592
 10
1365.69
 20
1474.4823045575904
 10
1364.74
 20
1474.4850702286637
 10
1363.79
 20
1474.5054707679096
 10
1362.84
 20
1474.543506245625
 10
1361.89
 20
1474.5991767928735
 10
1360.94
 20
1474.672482601489
 10
1359.99
 20
1474.7634239240713
 10
1359.04
 20
1474.872001073991
 10
1358.09
 20
1474.9982144253897
 10
1357.14
 20
1475.1420644131772
 10
1356.19
 20
1475.3035515330425
 10
1355.24
 20
1475.4826763414426
 10
1354.29
 20
1475.6794394556182
 10
1353.34
 20
1475.893841553583
 10
1352.39
 20
1476.1258833741356
 10
1351.44
 20
1476.3755657168579
 10
1350.49
 20
1476.6428894421167
 10
1349.54
 20
1476.9278554710709
 10
1348.59
 20
1477.2304647856704
 10
1347.64
 20
1477.550718428662
 10
1346.69
 20
1477.8886175035918
 10
1345.74
 20
1478.2441631748086
 10
1344.79
 20
1478.6173566674715
 10
1343.84
 20
1479.008199267548
 10
1342.89
 20
1479.4166923218243
 10
1341.94
 20
1479.842837237906
 10
1340.99
 20
1480.2866354842238
 10
1340.04
 20
1480.7480885900427
 10
1339.09
 20
1481.2271981454596
 10
1338.14
 20
1481.723965801415
 10
1337.19
 20
1482.2383932696946
 10
1336.24
 20
1482.7704823229412
 10
1335.29
 20
1483.3202347946526
 10
1334.34
 20
1483.887652579193
 10
1333.39
 20
1484.4727376318015
 10
1332.44
 20
1485.075491968592
 10
1331.49
 20
1485.6959176665657
 10
1330.54
 20
1486.3340168636191
 10
1329.59
 20
1486.9897917585458
 10
1328.64
 20
1487.6632446110464
 10
1327.69
 20
1488.3543777417415
 10
1326.74
 20
1489.0631935321708
 10
1325.79
 20
1489.789694424809
 10
1324.84
 20
1490.5338829230686
 10
1323.89
 20
1491.295761591312
 10
1322.94
 20
1492.075333054861
 10
1321.99
 20
1492.8726
  0
LWPOLYLINE
  5
BC
330
17
100
AcDbEntity
  8
0
 62
10
100
AcDbPolyline
 90
101
 70
0
 43
0.3
 10
1511.99
 20
1514.1907
 10
1511.04
 20
1513.1795969557345
 10
1510.09
 20
1512.1862266324285
 10
1509.14
 20
1511.2105856070762
 10
1508.19
 20
1510.2526705177643
 10
1507.24
 20
1509.3124780636595
 10
1506.29
 20
1508.3900050049997
 10
1505.34
 20
1507.4852481630799
 10
1504.39
 20
1506.5982044202449
 10
1503.44
 20
1505.7288707198725
 10
1502.49
 20
1504.8772440663704
 10
1501.54
 20
1504.043321525158
 10
1500.59
 20
1503.2271002226646
 10
1499.64
 20
1502.428577346312
 10
1498.69
 20
1501.647750144511
 10
1497.74
 20
1500.884615926647
 10
1496.79
 20
1500.139172063074
 10
1495.84
 20
1499.411415985103
 10
1494.89
 20
1498.7013451849953
 10
1493.94
 20
1498.0089572159527
 10
1492.99
 20
1497.334249692111
 10
1492.04
 20
1496.6772202885275
 10
1491.09
 20
1496.0378667411771
 10
1490.14
 20
1495.4161868469434
 10
1489.19
 20
1494.8121784636103
 10
1488.24
 20
1494.2258395098552
 10
1487.29
 20
1493.6571679652407
 10
1486.34
 20
1493.1061618702113
 10
1485.39
 20
1492.5728193260804
 10
1484.44
 20
1492.0571384950308
 10
1483.49
 20
1491.5591176001014
 10
1482.54
 20
1491.0787549251884
 10
1481.59
 20
1490.6160488150333
 10
1480.64
 20
1490.1709976752195
 10
1479.69
 20
1489.7435999721679
 10
1478.74
 20
1489.3338542331292
 10
1477.79
 20
1488.9417590461808
 10
1476.84
 20
1488.5673130602217
 10
1475.89
 20
1488.2105149849663
 10
1474.94
 20
1487.8713635909419
 10
1473.99
 20
1487.549857709485
 10
1473.04
 20
1487.2459962327314
 10
1472.09
 20
1486.9597781136213
 10
1471.14
 20
1486.6912023658908
 10
1470.19
 20
1486.440268064067
 10
1469.24
 20
1486.206974343468
 10
1468.29
 20
1485.991320400198
 10
1467.34
 20
1485.793305491145
 10
1466.39
 20
1485.6129289339813
 10
1465.44
 20
1485.4501901071553
 10
1464.49
 20
1485.3050884498923
 10
1463.54
 20
1485.1776234621952
 10
1462.59
 20
1485.0677947048375
 10
1461.64
 20
1484.9756017993657
 10
1460.69
 20
1484.9010444280984
 10
1459.74
 20
1484.8441223341204
 10
1458.79
 20
1484.804835321287
 10
1457.84
 20
1484.783183254222
 10
1456.89
 20
1484.7791660583136
 10
1455.94
 20
1484.7927837197212
 10
1454.99
 20
1484.8240362853676
 10
1454.04
 20
1484.8729238629464
 10
1453.09
 20
1484.9394466209149
 10
1452.14
 20
1485.023604788502
 10
1451.19
 20
1485.125398655703
 10
1450.24
 20
1485.2448285732848
 10
1449.29
 20
1485.3818949527856
 10
1448.34
 20
1485.536598266515
 10
1447.39
 20
1485.7089390475583
 10
1446.44
 20
1485.898917889776
 10
1445.49
 20
1486.1065354478062
 10
1444.54
 20
1486.3317924370679
 10
1443.59
 20
1486.574689633764
 10
1442.64
 20
1486.8352278748805
 10
1441.69
 20
1487.1134080581942
 10
1440.74
 20
1487.4092311422726
 10
1439.79
 20
1487.7226981464778
 10
1438.84
 20
1488.0538101509705
 10
1437.89
 20
1488.4025682967122
 10
1436.94
 20
1488.7689737854732
 10
1435.99
 20
1489.1530278798307
 10
1435.04
 20
1489.5547319031773
 10
1434.09
 20
1489.974087239727
 10
1433.14
 20
1490.411095334514
 10
1432.19
 20
1490.8657576934029
 10
1431.24
 20
1491.3380758830936
 10
1430.29
 20
1491.8280515311228
 10
1429.34
 20
1492.3356863258741
 10
1428.39
 20
1492.8609820165814
 10
1427.44
 20
1493.4039404133337
 10
1426.49
 20
1493.9645633870869
 10
1425.54
 20
1494.5428528696625
 10
1424.59
 20
1495.1388108537606
 10
1423.64
 20
1495.752439392962
 10
1422.69
 20
1496.3837406017403
 10
1421.74
 20
1497.0327166554648
 10
1420.79
 20
1497.6993697904109
 10
1419.84
 20
1498.3837023037638
 10
1418.89
 20
1499.085716553633
 10
1417.94
 20
1499.8054149590535
 10
1416.99
 20
1500.5428
  0
LWPOLYLINE
  5
BD
330
17
100
AcDbEntity
  8
0
 62
10
100
AcDbPolyline
 90
101
 70
0
 43
0.3
 10
1606.99
 20
1519.7202
 10
1606.04
 20
1518.7905821775275
 10
1605.09
 20
1517.8786818462263
 10
1604.14
 20
1516.9844958638257
 10
1603.19
 20
1516.1080211490932
 10
1602.24
 20
1515.2492546818276
 10
1601.29
 20
1514.4081935028485
 10
1600.34
 20
1513.5848347139847
 10
1599.39
 20
1512.7791754780646
 10
1598.44
 20
1511.9912130189075
 10
1597.49
 20
1511.2209446213105
 10
1596.54
 20
1510.468367631045
 10
1595.59
 20
1509.7334794548437
 10
1594.64
 20
1509.0162775603912
 10
1593.69
 20
1508.3167594763152
 10
1592.74
 20
1507.6349227921837
 10
1591.79
 20
1506.970765158487
 10
1590.84
 20
1506.3242842866377
 10
1589.89
 20
1505.6954779489597
 10
1588.94
 20
1505.0843439786802
 10
1587.99
 20
1504.4908802699233
 10
1587.04
 20
1503.9150847777005
 10
1586.09
 20
1503.3569555179065
 10
1585.14
 20
1502.8164905673123
 10
1584.19
 20
1502.2936880635548
 10
1583.24
 20
1501.7885462051363
 10
1582.29
 20
1501.3010632514133
 10
1581.34
 20
1500.8312375225914
 10
1580.39
 20
1500.379067399721
 10
1579.44
 20
1499.9445513246928
 10
1578.49
 20
1499.527687800228
 10
1577.54
 20
1499.1284753898772
 10
1576.59
 20
1498.7469127180152
 10
1575.64
 20
1498.382998469833
 10
1574.69
 20
1498.0367313913368
 10
1573.74
 20
1497.7081102893428
 10
1572.79
 20
1497.3971340314695
 10
1571.84
 20
1497.1038015461409
 10
1570.89
 20
1496.8281118225773
 10
1569.94
 20
1496.570063910792
 10
1568.99
 20
1496.3296569215904
 10
1568.04
 20
1496.1068900265666
 10
1567.09
 20
1495.9017624580986
 10
1566.14
 20
1495.714273509348
 10
1565.19
 20
1495.5444225342562
 10
1564.24
 20
1495.3922089475411
 10
1563.29
 20
1495.2576322246982
 10
1562.34
 20
1495.1406919019948
 10
1561.39
 20
1495.0413875764737
 10
1560.44
 20
1494.9597189059461
 10
1559.49
 20
1494.895685608995
 10
1558.54
 20
1494.8492874649694
 10
1557.59
 20
1494.8205243139898
 10
1556.64
 20
1494.8093960569431
 10
1555.69
 20
1494.8159026554806
 10
1554.74
 20
1494.840044132025
 10
1553.79
 20
1494.8818205697637
 10
1552.84
 20
1494.9412321126524
 10
1551.89
 20
1495.0182789654134
 10
1550.94
 20
1495.112961393539
 10
1549.99
 20
1495.2252797232925
 10
1549.04
 20
1495.3552343417043
 10
1548.09
 20
1495.5028256965782
 10
1547.14
 20
1495.6680542964932
 10
1546.19
 20
1495.8509207108016
 10
1545.24
 20
1496.051425569634
 10
1544.29
 20
1496.269569563901
 10
1543.34
 20
1496.5053534452923
 10
1542.39
 20
1496.7587780262863
 10
1541.44
 20
1497.0298441801447
 10
1540.49
 20
1497.3185528409215
 10
1539.54
 20
1497.624905003463
 10
1538.59
 20
1497.9489017234143
 10
1537.64
 20
1498.2905441172186
 10
1536.69
 20
1498.6498333621248
 10
1535.74
 20
1499.0267706961906
 10
1534.79
 20
1499.4213574182854
 10
1533.84
 20
1499.8335948880954
 10
1532.89
 20
1500.2634845261302
 10
1531.94
 20
1500.7110278137252
 10
1530.99
 20
1501.176226293047
 10
1530.04
 20
1501.659081567102
 10
1529.09
 20
1502.159595299735
 10
1528.14
 20
1502.677769215643
 10
1527.19
 20
1503.2136051003756
 10
1526.24
 20
1503.767104800344
 10
1525.29
 20
1504.3382702228243
 10
1524.34
 20
1504.9271033359676
 10
1523.39
 20
1505.533606168805
 10
1522.44
 20
1506.1577808112543
 10
1521.49
 20
1506.7996294141292
 10
1520.54
 20
1507.4591541891427
 10
1519.59
 20
1508.1363574089205
 10
1518.64
 20
1508.8312414070022
 10
1517.69
 20
1509.5438085778558
 10
1516.74
 20
1510.274061376879
 10
1515.79
 20
1511.0220023204165
 10
1514.84
 20
1511.7876339857587
 10
1513.89
 20
1512.57095901116
 10
1512.94
 20
1513.371980095841
 10
1511.99
 20
1514.1907
  0
LWPOLYLINE
  5
BE
330
17
100
AcDbEntity
  8
0
 62
10
100
AcDbPolyline
 90
101
 70
0
 43
0.3
 10
1701.99
 20
1519.8591
 10
1701.04
 20
1518.9835530248959
 10
1700.09
 20
1518.1257141407254
 10
1699.14
 20
1517.2855803915043
 10
1698.19
 20
1516.463148882255
 10
1697.24
 20
1515.6584167790022
 10
1696.29
 20
1514.8713813087606
 10
1695.34
 20
1514.1020397595219
 10
1694.39
 20
1513.3503894802502
 10
1693.44
 20
1512.6164278808715
 10
1692.49
 20
1511.9001524322628
 10
1691.54
 20
1511.2015606662467
 10
1690.59
 20
1510.5206501755806
 10
1689.64
 20
1509.857418613947
 10
1688.69
 20
1509.2118636959515
 10
1687.74
 20
1508.583983197106
 10
1686.79
 20
1507.9737749538285
 10
1685.84
 20
1507.3812368634322
 10
1684.89
 20
1506.8063668841214
 10
1683.94
 20
1506.2491630349784
 10
1682.99
 20
1505.7096233959608
 10
1682.04
 20
1505.1877461078984
 10
1681.09
 20
1504.6835293724776
 10
1680.14
 20
1504.1969714522436
 10
1679.19
 20
1503.7280706705915
 10
1678.24
 20
1503.276825411757
 10
1677.29
 20
1502.8432341208177
 10
1676.34
 20
1502.4272953036827
 10
1675.39
 20
1502.0290075270896
 10
1674.44
 20
1501.6483694185977
 10
1673.49
 20
1501.2853796665838
 10
1672.54
 20
1500.9400370202402
 10
1671.59
 20
1500.6123402895682
 10
1670.64
 20
1500.302288345373
 10
1669.69
 20
1500.0098801192635
 10
1668.74
 20
1499.735114603642
 10
1667.79
 20
1499.4779908517091
 10
1666.84
 20
1499.2385079774556
 10
1665.89
 20
1499.0166651556574
 10
1664.94
 20
1498.8124616218786
 10
1663.99
 20
1498.625896672463
 10
1663.04
 20
1498.456969664537
 10
1662.09
 20
1498.3056800160036
 10
1661.14
 20
1498.1720272055402
 10
1660.19
 20
1498.0560107725985
 10
1659.24
 20
1497.9576303174058
 10
1658.29
 20
1497.8768855009546
 10
1657.34
 20
1497.8137760450131
 10
1656.39
 20
1497.7683017321137
 10
1655.44
 20
1497.7404624055594
 10
1654.49
 20
1497.7302579694199
 10
1653.54
 20
1497.7376883885318
 10
1652.59
 20
1497.7627536885004
 10
1651.64
 20
1497.805453955696
 10
1650.69
 20
1497.8657893372579
 10
1649.74
 20
1497.943760041092
 10
1648.79
 20
1498.0393663358745
 10
1647.84
 20
1498.1526085510495
 10
1646.89
 20
1498.283487076834
 10
1645.94
 20
1498.432002364216
 10
1644.99
 20
1498.598154924956
 10
1644.04
 20
1498.7819453315901
 10
1643.09
 20
1498.9833742174344
 10
1642.14
 20
1499.2024422765817
 10
1641.19
 20
1499.4391502639087
 10
1640.24
 20
1499.6934989950757
 10
1639.29
 20
1499.9654893465295
 10
1638.34
 20
1500.2551222555082
 10
1637.39
 20
1500.562398720044
 10
1636.44
 20
1500.8873197989674
 10
1635.49
 20
1501.229886611905
 10
1634.54
 20
1501.590100339292
 10
1633.59
 20
1501.9679622223714
 10
1632.64
 20
1502.3634735631997
 10
1631.69
 20
1502.7766357246476
 10
1630.74
 20
1503.2074501304135
 10
1629.79
 20
1503.655918265016
 10
1628.84
 20
1504.1220416738113
 10
1627.89
 20
1504.6058219629906
 10
1626.94
 20
1505.1072607995895
 10
1625.99
 20
1505.626359911489
 10
1625.04
 20
1506.16312108743
 10
1624.09
 20
1506.717546177009
 10
1623.14
 20
1507.2896370906933
 10
1622.19
 20
1507.8793957998232
 10
1621.24
 20
1508.4868243366172
 10
1620.29
 20
1509.1119247941856
 10
1619.34
 20
1509.7546993265303
 10
1618.39
 20
1510.415150148556
 10
1617.44
 20
1511.0932795360786
 10
1616.49
 20
1511.7890898258283
 10
1615.54
 20
1512.5025834154667
 10
1614.59
 20
1513.2337627635843
 10
1613.64
 20
1513.982630389716
 10
1612.69
 20
1514.7491888743482
 10
1611.74
 20
1515.5334408589276
 10
1610.79
 20
1516.335389045868
 10
1609.84
 20
1517.1550361985633
 10
1608.89
 20
1517.9923851413967
 10
1607.94
 20
1518.8474387597462
 10
1606.99
 20
1519.7201999999993
  0
LWPOLYLINE
  5
BF
330
17
100
AcDbEntity
  8
0
 62
10
100
AcDbPolyline
 90
101
 70
0
 43
0.3
 10
1701.99
 20
1519.8591
 10
1702.94
 20
1518.9582593944122
 10
1703.89
 20
1518.075131206904
 10
1704.84
 20
1517.209712394345
 10
1705.79
 20
1516.3619999746327
 10
1706.74
 20
1515.5319910266762
 10
1707.69
 20
1514.71968269039
 10
1708.64
 20
1513.9250721666788
 10
1709.59
 20
1513.148156717434
 10
1710.54
 20
1512.3889336655213
 10
1711.49
 20
1511.6474003947715
 10
1712.44
 20
1510.9235543499713
 10
1713.39
 20
1510.2173930368554
 10
1714.34
 20
1509.528914022098
 10
1715.29
 20
1508.8581149333022
 10
1716.24
 20
1508.2049934589952
 10
1717.19
 20
1507.5695473486176
 10
1718.14
 20
1506.9517744125174
 10
1719.09
 20
1506.3516725219401
 10
1720.04
 20
1505.7692396090267
 10
1720.99
 20
1505.2044736667974
 10
1721.94
 20
1504.657372749155
 10
1722.89
 20
1504.1279349708705
 10
1723.84
 20
1503.6161585075815
 10
1724.79
 20
1503.1220415957823
 10
1725.74
 20
1502.6455825328178
 10
1726.69
 20
1502.1867796768845
 10
1727.64
 20
1501.7456314470141
 10
1728.59
 20
1501.3221363230764
 10
1729.54
 20
1500.91629284577
 10
1730.49
 20
1500.5280996166196
 10
1731.44
 20
1500.1575552979677
 10
1732.39
 20
1499.8046586129763
 10
1733.34
 20
1499.4694083456147
 10
1734.29
 20
1499.151803340661
 10
1735.24
 20
1498.8518425036948
 10
1736.19
 20
1498.5695248010968
 10
1737.14
 20
1498.3048492600415
 10
1738.09
 20
1498.0578149684984
 10
1739.04
 20
1497.8284210752226
 10
1739.99
 20
1497.6166667897562
 10
1740.94
 20
1497.4225513824279
 10
1741.89
 20
1497.2460741843438
 10
1742.84
 20
1497.087234587389
 10
1743.79
 20
1496.9460320442272
 10
1744.74
 20
1496.8224660682952
 10
1745.69
 20
1496.7165362338017
 10
1746.64
 20
1496.6282421757307
 10
1747.59
 20
1496.5575835898328
 10
1748.54
 20
1496.5045602326302
 10
1749.49
 20
1496.4691719214097
 10
1750.44
 20
1496.4514185342314
 10
1751.39
 20
1496.4513000099178
 10
1752.34
 20
1496.4688163480612
 10
1753.29
 20
1496.5039676090205
 10
1754.24
 20
1496.556753913921
 10
1755.19
 20
1496.627175444658
 10
1756.14
 20
1496.7152324438914
 10
1757.09
 20
1496.8209252150534
 10
1758.04
 20
1496.944254122346
 10
1758.99
 20
1497.0852195907423
 10
1759.94
 20
1497.2438221059872
 10
1760.89
 20
1497.4200622146022
 10
1761.84
 20
1497.6139405238832
 10
1762.79
 20
1497.8254577019081
 10
1763.74
 20
1498.0546144775308
 10
1764.69
 20
1498.301411640394
 10
1765.64
 20
1498.5658500409213
 10
1766.59
 20
1498.8479305903302
 10
1767.54
 20
1499.1476542606267
 10
1768.49
 20
1499.4650220846152
 10
1769.44
 20
1499.8000351558958
 10
1770.39
 20
1500.1526946288755
 10
1771.34
 20
1500.5230017187646
 10
1772.29
 20
1500.9109577015874
 10
1773.24
 20
1501.3165639141812
 10
1774.19
 20
1501.7398217542054
 10
1775.14
 20
1502.1807326801415
 10
1776.09
 20
1502.639298211306
 10
1777.04
 20
1503.1155199278433
 10
1777.99
 20
1503.6093994707462
 10
1778.94
 20
1504.120938541847
 10
1779.89
 20
1504.650138903833
 10
1780.84
 20
1505.1970023802521
 10
1781.79
 20
1505.7615308555116
 10
1782.74
 20
1506.3437262748942
 10
1783.69
 20
1506.9435906445574
 10
1784.64
 20
1507.561126031544
 10
1785.59
 20
1508.1963345637887
 10
1786.54
 20
1508.8492184301263
 10
1787.49
 20
1509.519779880296
 10
1788.44
 20
1510.2080212249539
 10
1789.39
 20
1510.9139448356748
 10
1790.34
 20
1511.6375531449676
 10
1791.29
 20
1512.3788486462784
 10
1792.24
 20
1513.1378338939999
 10
1793.19
 20
1513.914511503483
 10
1794.14
 20
1514.708884151042
 10
1795.09
 20
1515.5209545739658
 10
1796.04
 20
1516.3507255705306
 10
1796.99
 20
1517.1982
  0
LWPOLYLINE
  5
C0
330
17
100
AcDbEntity
  8
0
 62
10
100
AcDbPolyline
 90
101
 70
0
 43
0.3
 10
1891.99
 20
1517.2018
 10
1891.04
 20
1516.3276098013966
 10
1890.09
 20
1515.4711274651013
 10
1889.14
 20
1514.632350039803
 10
1888.19
 20
1513.8112746352012
 10
1887.24
 20
1513.007898421992
 10
1886.29
 20
1512.2222186318609
 10
1885.34
 20
1511.454232557473
 10
1884.39
 20
1510.7039375524623
 10
1883.44
 20
1509.9713310314248
 10
1882.49
 20
1509.256410469908
 10
1881.54
 20
1508.5591734044015
 10
1880.59
 20
1507.8796174323309
 10
1879.64
 20
1507.217740212048
 10
1878.69
 20
1506.5735394628232
 10
1877.74
 20
1505.9470129648364
 10
1876.79
 20
1505.338158559171
 10
1875.84
 20
1504.7469741478053
 10
1874.89
 20
1504.1734576936062
 10
1873.94
 20
1503.6176072203211
 10
1872.99
 20
1503.0794208125733
 10
1872.04
 20
1502.5588966158527
 10
1871.09
 20
1502.0560328365095
 10
1870.14
 20
1501.5708277417514
 10
1869.19
 20
1501.1032796596337
 10
1868.24
 20
1500.6533869790558
 10
1867.29
 20
1500.2211481497552
 10
1866.34
 20
1499.806561682299
 10
1865.39
 20
1499.4096261480872
 10
1864.44
 20
1499.0303401793365
 10
1863.49
 20
1498.6687024690866
 10
1862.54
 20
1498.324711771186
 10
1861.59
 20
1497.9983669002959
 10
1860.64
 20
1497.6896667318783
 10
1859.69
 20
1497.3986102022
 10
1858.74
 20
1497.125196308324
 10
1857.79
 20
1496.869424108107
 10
1856.84
 20
1496.6312927201948
 10
1855.89
 20
1496.410801324022
 10
1854.94
 20
1496.20794915981
 10
1853.99
 20
1496.022735528559
 10
1853.04
 20
1495.8551597920523
 10
1852.09
 20
1495.7052213728464
 10
1851.14
 20
1495.5729197542776
 10
1850.19
 20
1495.4582544804543
 10
1849.24
 20
1495.3612251562565
 10
1848.29
 20
1495.2818314473357
 10
1847.34
 20
1495.220073080113
 10
1846.39
 20
1495.1759498417791
 10
1845.44
 20
1495.1494615802906
 10
1844.49
 20
1495.1406082043734
 10
1843.54
 20
1495.1493896835213
 10
1842.59
 20
1495.175806047992
 10
1841.64
 20
1495.2198573888134
 10
1840.69
 20
1495.2815438577804
 10
1839.74
 20
1495.3608656674537
 10
1838.79
 20
1495.4578230911652
 10
1837.84
 20
1495.572416463017
 10
1836.89
 20
1495.704646177879
 10
1835.94
 20
1495.8545126913953
 10
1834.99
 20
1496.022016519985
 10
1834.04
 20
1496.2071582408396
 10
1833.09
 20
1496.4099384919302
 10
1832.14
 20
1496.6303579720077
 10
1831.19
 20
1496.8684174406042
 10
1830.24
 20
1497.1241177180373
 10
1829.29
 20
1497.3974596854125
 10
1828.34
 20
1497.6884442846251
 10
1827.39
 20
1497.9970725183632
 10
1826.44
 20
1498.3233454501162
 10
1825.49
 20
1498.6672642041706
 10
1824.54
 20
1499.0288299656183
 10
1823.59
 20
1499.4080439803618
 10
1822.64
 20
1499.8049075551157
 10
1821.69
 20
1500.219422057413
 10
1820.74
 20
1500.6515889156085
 10
1819.79
 20
1501.1014096188846
 10
1818.84
 20
1501.5688857172563
 10
1817.89
 20
1502.0540188215773
 10
1816.94
 20
1502.5568106035414
 10
1815.99
 20
1503.0772627956965
 10
1815.04
 20
1503.6153771914426
 10
1814.09
 20
1504.1711556450407
 10
1813.14
 20
1504.744600071621
 10
1812.19
 20
1505.3357124471875
 10
1811.24
 20
1505.9444948086252
 10
1810.29
 20
1506.570949253707
 10
1809.34
 20
1507.2150779411008
 10
1808.39
 20
1507.8768830903775
 10
1807.44
 20
1508.5563669820206
 10
1806.49
 20
1509.25353195743
 10
1805.54
 20
1509.9683804189308
 10
1804.59
 20
1510.7009148297839
 10
1803.64
 20
1511.4511377141946
 10
1802.69
 20
1512.2190516573187
 10
1801.74
 20
1513.0046593052734
 10
1800.79
 20
1513.807963365144
 10
1799.84
 20
1514.628966604997
 10
1798.89
 20
1515.4676718538874
 10
1797.94
 20
1516.324082001868
 10
1796.99
 20
1517.1981999999998
  0
LWPOLYLINE
  5
C1
330
17
100
AcDbEntity
  8
0
 62
10
100
AcDbPolyline
 90
101
 70
0
 43
0.3
 10
1891.99
 20
1517.2018
 10
1892.94
 20
1516.2757930577645
 10
1893.89
 20
1515.367502961388
 10
1894.84
 20
1514.4769265810417
 10
1895.79
 20
1513.6040608479282
 10
1896.74
 20
1512.7489027542865
 10
1897.69
 20
1511.9114493533662
 10
1898.64
 20
1511.0916977594297
 10
1899.59
 20
1510.2896451477354
 10
1900.54
 20
1509.5052887545294
 10
1901.49
 20
1508.7386258770364
 10
1902.44
 20
1507.9896538734508
 10
1903.39
 20
1507.258370162927
 10
1904.34
 20
1506.5447722255706
 10
1905.29
 20
1505.8488576024304
 10
1906.24
 20
1505.1706238954866
 10
1907.19
 20
1504.5100687676484
 10
1908.14
 20
1503.8671899427416
 10
1909.09
 20
1503.2419852055018
 10
1910.04
 20
1502.6344524015658
 10
1910.99
 20
1502.0445894374677
 10
1911.94
 20
1501.4723942806265
 10
1912.89
 20
1500.9178649593441
 10
1913.84
 20
1500.380999562795
 10
1914.79
 20
1499.8617962410217
 10
1915.74
 20
1499.3602532049247
 10
1916.69
 20
1498.8763687262647
 10
1917.64
 20
1498.4101411376464
 10
1918.59
 20
1497.9615688325196
 10
1919.54
 20
1497.5306502651706
 10
1920.49
 20
1497.117383950719
 10
1921.44
 20
1496.7217684651096
 10
1922.39
 20
1496.3438024451127
 10
1923.34
 20
1495.9834845883126
 10
1924.29
 20
1495.6408136531065
 10
1925.24
 20
1495.3157884587042
 10
1926.19
 20
1495.0084078851148
 10
1927.14
 20
1494.7186708731524
 10
1928.09
 20
1494.4465764244264
 10
1929.04
 20
1494.1921236013384
 10
1929.99
 20
1493.9553115270849
 10
1930.94
 20
1493.7361393856436
 10
1931.89
 20
1493.5346064217817
 10
1932.84
 20
1493.3507119410467
 10
1933.79
 20
1493.1844553097665
 10
1934.74
 20
1493.035835955043
 10
1935.69
 20
1492.904853364759
 10
1936.64
 20
1492.791507087566
 10
1937.59
 20
1492.6957967328908
 10
1938.54
 20
1492.6177219709289
 10
1939.49
 20
1492.557282532647
 10
1940.44
 20
1492.5144782097802
 10
1941.39
 20
1492.4893088548301
 10
1942.34
 20
1492.4817743810677
 10
1943.29
 20
1492.4918747625302
 10
1944.24
 20
1492.5196100340213
 10
1945.19
 20
1492.564980291113
 10
1946.14
 20
1492.627985690145
 10
1947.09
 20
1492.7086264482236
 10
1948.04
 20
1492.8069028432258
 10
1948.99
 20
1492.9228152137966
 10
1949.94
 20
1493.0563639593536
 10
1950.89
 20
1493.2075495400852
 10
1951.84
 20
1493.3763724769537
 10
1952.79
 20
1493.5628333516984
 10
1953.74
 20
1493.7669328068355
 10
1954.69
 20
1493.9886715456614
 10
1955.64
 20
1494.2280503322554
 10
1956.59
 20
1494.4850699914798
 10
1957.54
 20
1494.759731408987
 10
1958.49
 20
1495.0520355312176
 10
1959.44
 20
1495.36198336541
 10
1960.39
 20
1495.6895759795964
 10
1961.34
 20
1496.0348145026132
 10
1962.29
 20
1496.3977001241005
 10
1963.24
 20
1496.778234094508
 10
1964.19
 20
1497.1764177250998
 10
1965.14
 20
1497.5922523879549
 10
1966.09
 20
1498.025739515979
 10
1967.04
 20
1498.476880602904
 10
1967.99
 20
1498.9456772032956
 10
1968.94
 20
1499.4321309325544
 10
1969.89
 20
1499.9362434669297
 10
1970.84
 20
1500.458016543517
 10
1971.79
 20
1500.9974519602677
 10
1972.74
 20
1501.5545515759968
 10
1973.69
 20
1502.1293173103873
 10
1974.64
 20
1502.721751143994
 10
1975.59
 20
1503.3318551182554
 10
1976.54
 20
1503.9596313355012
 10
1977.49
 20
1504.6050819589516
 10
1978.44
 20
1505.2682092127352
 10
1979.39
 20
1505.949015381888
 10
1980.34
 20
1506.6475028123682
 10
1981.29
 20
1507.3636739110568
 10
1982.24
 20
1508.0975311457746
 10
1983.19
 20
1508.8490770452831
 10
1984.14
 20
1509.6183141992976
 10
1985.09
 20
1510.405245258493
 10
1986.04
 20
1511.2098729345194
 10
1986.99
 20
1512.0322
  0
LWPOLYLINE
  5
C2
330
17
100
AcDbEntity
  8
0
 62
10
100
AcDbPolyline
 90
101
 70
0
 43
0.3
 10
2081.99
 20
1512.9987
 10
2081.04
 20
1512.1148535400584
 10
2080.0899999999997
 20
1511.2487165772961
 10
2079.14
 20
1510.4002861271324
 10
2078.1899999999996
 20
1509.5695592660038
 10
2077.24
 20
1508.7565331313492
 10
2076.29
 20
1507.9612049216012
 10
2075.3399999999997
 20
1507.1835718961781
 10
2074.39
 20
1506.4236313754745
 10
2073.4399999999996
 20
1505.6813807408455
 10
2072.49
 20
1504.9568174346082
 10
2071.54
 20
1504.2499389600262
 10
2070.5899999999997
 20
1503.5607428812998
 10
2069.64
 20
1502.8892268235645
 10
2068.6899999999996
 20
1502.2353884728734
 10
2067.74
 20
1501.599225576201
 10
2066.79
 20
1500.9807359414212
 10
2065.8399999999997
 20
1500.3799174373135
 10
2064.89
 20
1499.796767993545
 10
2063.9399999999996
 20
1499.231285600672
 10
2062.99
 20
1498.6834683101265
 10
2062.04
 20
1498.15331423421
 10
2061.0899999999997
 20
1497.6408215460922
 10
2060.14
 20
1497.1459884797991
 10
2059.19
 20
1496.6688133302098
 10
2058.24
 20
1496.2092944530502
 10
2057.29
 20
1495.7674302648877
 10
2056.3399999999997
 20
1495.3432192431233
 10
2055.39
 20
1494.93665992599
 10
2054.44
 20
1494.5477509125444
 10
2053.49
 20
1494.176490862663
 10
2052.54
 20
1493.822878497042
 10
2051.5899999999997
 20
1493.4869125971834
 10
2050.64
 20
1493.1685920054008
 10
2049.69
 20
1492.8679156248063
 10
2048.74
 20
1492.5848824193167
 10
2047.79
 20
1492.3194914136411
 10
2046.84
 20
1492.0717416932807
 10
2045.8899999999999
 20
1491.8416324045288
 10
2044.9399999999998
 20
1491.629162754461
 10
2043.9899999999998
 20
1491.4343320109404
 10
2043.04
 20
1491.257139502608
 10
2042.09
 20
1491.0975846188867
 10
2041.1399999999999
 20
1490.955666809972
 10
2040.1899999999998
 20
1490.8313855868369
 10
2039.2399999999998
 20
1490.724740521228
 10
2038.29
 20
1490.6357312456607
 10
2037.34
 20
1490.5643574534245
 10
2036.3899999999999
 20
1490.5106188985742
 10
2035.4399999999998
 20
1490.4745153959348
 10
2034.4899999999998
 20
1490.4560468210998
 10
2033.54
 20
1490.4552131104297
 10
2032.59
 20
1490.4720142610493
 10
2031.6399999999999
 20
1490.5064503308554
 10
2030.6899999999998
 20
1490.5585214385085
 10
2029.74
 20
1490.6282277634389
 10
2028.79
 20
1490.7155695458418
 10
2027.84
 20
1490.820547086686
 10
2026.8899999999999
 20
1490.9431607477075
 10
2025.9399999999998
 20
1491.0834109514155
 10
2024.99
 20
1491.2412981810905
 10
2024.04
 20
1491.416822980788
 10
2023.09
 20
1491.6099859553415
 10
2022.1399999999999
 20
1491.8207877703614
 10
2021.1899999999998
 20
1492.0492291522387
 10
2020.24
 20
1492.2953108881484
 10
2019.29
 20
1492.559033826052
 10
2018.34
 20
1492.8403988746973
 10
2017.3899999999999
 20
1493.1394070036297
 10
2016.4399999999998
 20
1493.4560592431844
 10
2015.49
 20
1493.7903566844977
 10
2014.54
 20
1494.142300479509
 10
2013.59
 20
1494.511891840964
 10
2012.6399999999999
 20
1494.89913204242
 10
2011.69
 20
1495.3040224182485
 10
2010.74
 20
1495.7265643636401
 10
2009.79
 20
1496.1667593346124
 10
2008.84
 20
1496.624608848012
 10
2007.8899999999999
 20
1497.10011448152
 10
2006.94
 20
1497.5932778736565
 10
2005.99
 20
1498.1041007237886
 10
2005.04
 20
1498.6325847921382
 10
2004.09
 20
1499.1787318997801
 10
2003.1399999999999
 20
1499.742543928656
 10
2002.19
 20
1500.32402282158
 10
2001.24
 20
1500.9231705822388
 10
2000.29
 20
1501.5399892752064
 10
1999.34
 20
1502.1744810259504
 10
1998.3899999999999
 20
1502.8266480208324
 10
1997.44
 20
1503.4964925071226
 10
1996.49
 20
1504.184016793006
 10
1995.54
 20
1504.889223247588
 10
1994.59
 20
1505.612114300906
 10
1993.64
 20
1506.352692443932
 10
1992.69
 20
1507.1109602285896
 10
1991.74
 20
1507.8869202677563
 10
1990.79
 20
1508.6805752352748
 10
1989.84
 20
1509.49192786596
 10
1988.89
 20
1510.3209809556138
 10
1987.94
 20
1511.1677373610282
 10
1986.99
 20
1512.0321999999994
  0
LWPOLYLINE
  5
C3
330
17
100
AcDbEntity
  8
0
 62
10
100
AcDbPolyline
 90
101
 70
0
 43
0.3
 10
2176.99
 20
1518.3541
 10
2176.04
 20
1517.4262289401586
 10
2175.0899999999997
 20
1516.5160750590055
 10
2174.14
 20
1515.6236352202873
 10
2173.1899999999996
 20
1514.7489063487892
 10
2172.24
 20
1513.8918854303276
 10
2171.29
 20
1513.052569511734
 10
2170.3399999999997
 20
1512.2309557008514
 10
2169.39
 20
1511.4270411665225
 10
2168.4399999999996
 20
1510.6408231385772
 10
2167.49
 20
1509.8722989078256
 10
2166.54
 20
1509.1214658260476
 10
2165.5899999999997
 20
1508.3883213059858
 10
2164.64
 20
1507.6728628213316
 10
2163.6899999999996
 20
1506.9750879067242
 10
2162.74
 20
1506.294994157734
 10
2161.79
 20
1505.6325792308598
 10
2160.8399999999997
 20
1504.9878408435181
 10
2159.89
 20
1504.3607767740384
 10
2158.9399999999996
 20
1503.75138486165
 10
2157.99
 20
1503.1596630064794
 10
2157.04
 20
1502.5856091695423
 10
2156.0899999999997
 20
1502.0292213727337
 10
2155.14
 20
1501.4904976988257
 10
2154.1899999999996
 20
1500.969436291456
 10
2153.24
 20
1500.466035355125
 10
2152.29
 20
1499.9802931551892
 10
2151.3399999999997
 20
1499.5122080178526
 10
2150.39
 20
1499.0617783301634
 10
2149.4399999999996
 20
1498.6290025400083
 10
2148.49
 20
1498.2138791561067
 10
2147.54
 20
1497.816406748006
 10
2146.5899999999997
 20
1497.436583946074
 10
2145.64
 20
1497.074409441501
 10
2144.6899999999996
 20
1496.729881986285
 10
2143.74
 20
1496.4030003932357
 10
2142.79
 20
1496.0937635359705
 10
2141.8399999999997
 20
1495.8021703489026
 10
2140.89
 20
1495.528219827248
 10
2139.9399999999996
 20
1495.2719110270116
 10
2138.99
 20
1495.0332430649935
 10
2138.04
 20
1494.8122151187783
 10
2137.0899999999997
 20
1494.6088264267373
 10
2136.14
 20
1494.4230762880234
 10
2135.1899999999996
 20
1494.2549640625693
 10
2134.24
 20
1494.1044891710856
 10
2133.29
 20
1493.971651095057
 10
2132.3399999999997
 20
1493.8564493767453
 10
2131.39
 20
1493.758883619181
 10
2130.4399999999996
 20
1493.6789534861682
 10
2129.49
 20
1493.6166587022788
 10
2128.54
 20
1493.5719990528544
 10
2127.5899999999997
 20
1493.5449743840056
 10
2126.64
 20
1493.535584602608
 10
2125.6899999999996
 20
1493.5438296763061
 10
2124.74
 20
1493.569709633511
 10
2123.79
 20
1493.613224563402
 10
2122.8399999999997
 20
1493.674374615925
 10
2121.89
 20
1493.7531600017928
 10
2120.9399999999996
 20
1493.84958099249
 10
2119.99
 20
1493.963637920267
 10
2119.04
 20
1494.0953311781477
 10
2118.0899999999997
 20
1494.244661219928
 10
2117.14
 20
1494.4116285601763
 10
2116.1899999999996
 20
1494.596233774236
 10
2115.24
 20
1494.798477498232
 10
2114.29
 20
1495.0183604290635
 10
2113.3399999999997
 20
1495.2558833244143
 10
2112.39
 20
1495.511047002755
 10
2111.4399999999996
 20
1495.7838523433393
 10
2110.49
 20
1496.0743002862143
 10
2109.54
 20
1496.3823918322198
 10
2108.5899999999997
 20
1496.7081280429957
 10
2107.64
 20
1497.0515100409766
 10
2106.6899999999996
 20
1497.412539009409
 10
2105.74
 20
1497.7912161923416
 10
2104.79
 20
1498.187542894642
 10
2103.8399999999997
 20
1498.6015204819928
 10
2102.89
 20
1499.033150380897
 10
2101.9399999999996
 20
1499.4824340786884
 10
2100.99
 20
1499.9493731235307
 10
2100.04
 20
1500.4339691244274
 10
2099.0899999999997
 20
1500.9362237512219
 10
2098.14
 20
1501.456138734611
 10
2097.1899999999996
 20
1501.9937158661412
 10
2096.24
 20
1502.548956998226
 10
2095.29
 20
1503.121864044141
 10
2094.3399999999997
 20
1503.712438978041
 10
2093.39
 20
1504.320683834956
 10
2092.4399999999996
 20
1504.9466007108094
 10
2091.49
 20
1505.590191762416
 10
2090.54
 20
1506.2514592074945
 10
2089.5899999999997
 20
1506.930405324675
 10
2088.64
 20
1507.6270324535026
 10
2087.6899999999996
 20
1508.3413429944515
 10
2086.74
 20
1509.073339408929
 10
2085.79
 20
1509.823024219285
 10
2084.8399999999997
 20
1510.5904000088226
 10
2083.89
 20
1511.3754694218028
 10
2082.9399999999996
 20
1512.178235163458
 10
2081.99
 20
1512.9986999999996
  0
LWPOLYLINE
  5
C4
330
17
100
AcDbEntity
  8
0
 62
10
100
AcDbPolyline
 90
101
 70
0
 43
0.3
 10
2176.99
 20
1518.3541
 10
2177.9399999999996
 20
1517.4552353670651
 10
2178.89
 20
1516.5740828097225
 10
2179.8399999999997
 20
1515.710639291653
 10
2180.79
 20
1514.864901837559
 10
2181.74
 20
1514.0368675331558
 10
2182.6899999999996
 20
1513.2265335251607
 10
2183.64
 20
1512.4338970212837
 10
2184.5899999999997
 20
1511.6589552902174
 10
2185.54
 20
1510.9017056616287
 10
2186.49
 20
1510.1621455261482
 10
2187.4399999999996
 20
1509.4402723353628
 10
2188.39
 20
1508.7360836018038
 10
2189.3399999999997
 20
1508.0495768989438
 10
2190.29
 20
1507.3807498611818
 10
2191.24
 20
1506.7296001838404
 10
2192.1899999999996
 20
1506.0961256231542
 10
2193.14
 20
1505.4803239962655
 10
2194.0899999999997
 20
1504.8821931812142
 10
2195.04
 20
1504.3017311169292
 10
2195.99
 20
1503.7389358032265
 10
2196.9399999999996
 20
1503.193805300796
 10
2197.89
 20
1502.6663377312
 10
2198.8399999999997
 20
1502.156531276865
 10
2199.79
 20
1501.6643841810728
 10
2200.74
 20
1501.1898947479583
 10
2201.6899999999996
 20
1500.7330613425027
 10
2202.64
 20
1500.2938823905245
 10
2203.5899999999997
 20
1499.8723563786807
 10
2204.54
 20
1499.468481854454
 10
2205.49
 20
1499.0822574261533
 10
2206.4399999999996
 20
1498.7136817629073
 10
2207.39
 20
1498.3627535946587
 10
2208.3399999999997
 20
1498.029471712163
 10
2209.29
 20
1497.7138349669792
 10
2210.24
 20
1497.4158422714709
 10
2211.1899999999996
 20
1497.1354925987982
 10
2212.14
 20
1496.8727849829208
 10
2213.0899999999997
 20
1496.6277185185843
 10
2214.04
 20
1496.4002923613295
 10
2214.99
 20
1496.1905057274773
 10
2215.9399999999996
 20
1495.998357894135
 10
2216.89
 20
1495.8238481991896
 10
2217.8399999999997
 20
1495.6669760413079
 10
2218.79
 20
1495.5277408799307
 10
2219.74
 20
1495.4061422352756
 10
2220.6899999999996
 20
1495.3021796883306
 10
2221.64
 20
1495.2158528808563
 10
2222.5899999999997
 20
1495.1471615153844
 10
2223.54
 20
1495.0961053552148
 10
2224.49
 20
1495.062684224414
 10
2225.4399999999996
 20
1495.04689800782
 10
2226.39
 20
1495.0487466510326
 10
2227.3399999999997
 20
1495.068230160425
 10
2228.29
 20
1495.1053486031344
 10
2229.24
 20
1495.1601021070635
 10
2230.1899999999996
 20
1495.2324908608857
 10
2231.14
 20
1495.3225151140418
 10
2232.0899999999997
 20
1495.430175176742
 10
2233.04
 20
1495.555471419966
 10
2233.99
 20
1495.6984042754673
 10
2234.9399999999996
 20
1495.8589742357703
 10
2235.89
 20
1496.0371818541764
 10
2236.8399999999997
 20
1496.2330277447595
 10
2237.79
 20
1496.4465125823792
 10
2238.74
 20
1496.6776371026692
 10
2239.6899999999996
 20
1496.9264021020506
 10
2240.64
 20
1497.192808437732
 10
2241.5899999999997
 20
1497.4768570277092
 10
2242.54
 20
1497.7785488507704
 10
2243.49
 20
1498.0978849465014
 10
2244.4399999999996
 20
1498.4348664152865
 10
2245.39
 20
1498.7894944183136
 10
2246.3399999999997
 20
1499.1617701775767
 10
2247.29
 20
1499.5516949758844
 10
2248.24
 20
1499.9592701568579
 10
2249.1899999999996
 20
1500.3844971249416
 10
2250.14
 20
1500.827377345403
 10
2251.0899999999997
 20
1501.2879123443415
 10
2252.04
 20
1501.7661037086923
 10
2252.99
 20
1502.2619530862307
 10
2253.9399999999996
 20
1502.775462185581
 10
2254.89
 20
1503.3066327762183
 10
2255.8399999999997
 20
1503.855466688476
 10
2256.79
 20
1504.4219658135555
 10
2257.74
 20
1505.0061321035273
 10
2258.6899999999996
 20
1505.6079675713406
 10
2259.64
 20
1506.2274742908317
 10
2260.5899999999997
 20
1506.8646543967268
 10
2261.54
 20
1507.519510084656
 10
2262.49
 20
1508.1920436111516
 10
2263.4399999999996
 20
1508.8822572936647
 10
2264.39
 20
1509.5901535105695
 10
2265.3399999999997
 20
1510.315734701169
 10
2266.29
 20
1511.0590033657083
 10
2267.24
 20
1511.8199620653809
 10
2268.1899999999996
 20
1512.5986134223358
 10
2269.14
 20
1513.39496011969
 10
2270.0899999999997
 20
1514.2090049015355
 10
2271.04
 20
1515.040750572949
 10
2271.99
 20
1515.8902
  0
LWPOLYLINE
  5
C5
330
17
100
AcDbEntity
  8
0
 62
10
100
AcDbPolyline
 90
101
 70
0
 43
0.3
 10
2271.99
 20
1515.8902
 10
2272.9399999999996
 20
1514.9867594788786
 10
2273.89
 20
1514.1010318276115
 10
2274.8399999999997
 20
1513.2330139941141
 10
2275.79
 20
1512.3827029873269
 10
2276.74
 20
1511.550095877205
 10
2277.6899999999996
 20
1510.7351897947074
 10
2278.64
 20
1509.9379819317915
 10
2279.5899999999997
 20
1509.158469541397
 10
2280.54
 20
1508.39664993744
 10
2281.49
 20
1507.652520494806
 10
2282.4399999999996
 20
1506.9260786493337
 10
2283.39
 20
1506.2173218978137
 10
2284.3399999999997
 20
1505.5262477979768
 10
2285.29
 20
1504.8528539684833
 10
2286.24
 20
1504.1971380889206
 10
2287.1899999999996
 20
1503.559097899788
 10
2288.14
 20
1502.9387312024953
 10
2289.0899999999997
 20
1502.3360358593507
 10
2290.04
 20
1501.7510097935572
 10
2290.99
 20
1501.1836509892014
 10
2291.9399999999996
 20
1500.6339574912497
 10
2292.89
 20
1500.1019274055411
 10
2293.8399999999997
 20
1499.587558898778
 10
2294.79
 20
1499.0908501985243
 10
2295.74
 20
1498.6117995931966
 10
2296.6899999999996
 20
1498.1504054320555
 10
2297.64
 20
1497.7066661252086
 10
2298.5899999999997
 20
1497.280580143596
 10
2299.54
 20
1496.8721460189863
 10
2300.49
 20
1496.4813623439795
 10
2301.4399999999996
 20
1496.1082277719925
 10
2302.39
 20
1495.7527410172593
 10
2303.3399999999997
 20
1495.4149008548256
 10
2304.29
 20
1495.0947061205438
 10
2305.24
 20
1494.7921557110724
 10
2306.1899999999996
 20
1494.5072485838666
 10
2307.14
 20
1494.239983757179
 10
2308.0899999999997
 20
1493.9903603100554
 10
2309.04
 20
1493.7583773823305
 10
2309.99
 20
1493.5440341746248
 10
2310.9399999999996
 20
1493.3473299483453
 10
2311.89
 20
1493.168264025678
 10
2312.8399999999997
 20
1493.0068357895884
 10
2313.79
 20
1492.8630446838176
 10
2314.74
 20
1492.7368902128858
 10
2315.6899999999996
 20
1492.6283719420805
 10
2316.64
 20
1492.5374894974661
 10
2317.5899999999997
 20
1492.4642425658742
 10
2318.54
 20
1492.4086308949072
 10
2319.49
 20
1492.370654292936
 10
2320.4399999999996
 20
1492.3503126290975
 10
2321.39
 20
1492.347605833299
 10
2322.3399999999997
 20
1492.362533896212
 10
2323.29
 20
1492.3950968692773
 10
2324.24
 20
1492.445294864701
 10
2325.1899999999996
 20
1492.5131280554588
 10
2326.14
 20
1492.598596675293
 10
2327.0899999999997
 20
1492.7017010187171
 10
2328.04
 20
1492.8224414410117
 10
2328.99
 20
1492.9608183582309
 10
2329.9399999999996
 20
1493.1168322472013
 10
2330.89
 20
1493.290483645523
 10
2331.8399999999997
 20
1493.4817731515732
 10
2332.79
 20
1493.6907014245064
 10
2333.74
 20
1493.9172691842582
 10
2334.6899999999996
 20
1494.1614772115477
 10
2335.64
 20
1494.423326347879
 10
2336.5899999999997
 20
1494.7028174955458
 10
2337.54
 20
1494.9999516176315
 10
2338.49
 20
1495.3147297380178
 10
2339.4399999999996
 20
1495.647152941381
 10
2340.39
 20
1495.9972223732027
 10
2341.3399999999997
 20
1496.364939239771
 10
2342.29
 20
1496.7503048081821
 10
2343.24
 20
1497.1533204063487
 10
2344.1899999999996
 20
1497.573987423001
 10
2345.14
 20
1498.0123073076968
 10
2346.0899999999997
 20
1498.4682815708206
 10
2347.04
 20
1498.9419117835898
 10
2347.99
 20
1499.4331995780653
 10
2348.9399999999996
 20
1499.9421466471513
 10
2349.89
 20
1500.4687547446028
 10
2350.8399999999997
 20
1501.0130256850316
 10
2351.79
 20
1501.5749613439166
 10
2352.74
 20
1502.154563657603
 10
2353.6899999999996
 20
1502.7518346233123
 10
2354.64
 20
1503.366776299154
 10
2355.5899999999997
 20
1503.999390804123
 10
2356.54
 20
1504.649680318115
 10
2357.49
 20
1505.3176470819312
 10
2358.4399999999996
 20
1506.0032933972843
 10
2359.39
 20
1506.70662162681
 10
2360.3399999999997
 20
1507.4276341940724
 10
2361.29
 20
1508.1663335835726
 10
2362.24
 20
1508.9227223407586
 10
2363.1899999999996
 20
1509.696803072033
 10
2364.14
 20
1510.4885784447617
 10
2365.0899999999997
 20
1511.2980511872868
 10
2366.04
 20
1512.1252240889278
 10
2366.99
 20
1512.9701000000002
  0
LWPOLYLINE
  5
C6
330
17
100
AcDbEntity
  8
0
 62
10
100
AcDbPolyline
 90
101
 70
0
 43
0.3
 10
2461.99
 20
1537.5909
 10
2461.04
 20
1536.469559697195
 10
2460.0899999999997
 20
1535.3659747485544
 10
2459.14
 20
1534.2801413512902
 10
2458.1899999999996
 20
1533.2120557637836
 10
2457.24
 20
1532.1617143055691
 10
2456.29
 20
1531.129113357329
 10
2455.3399999999997
 20
1530.1142493608736
 10
2454.39
 20
1529.1171188191329
 10
2453.4399999999996
 20
1528.1377182961442
 10
2452.49
 20
1527.1760444170395
 10
2451.54
 20
1526.2320938680339
 10
2450.5899999999997
 20
1525.305863396415
 10
2449.64
 20
1524.397349810531
 10
2448.6899999999996
 20
1523.5065499797806
 10
2447.74
 20
1522.6334608345983
 10
2446.79
 20
1521.7780793664522
 10
2445.8399999999997
 20
1520.9404026278228
 10
2444.89
 20
1520.1204277322033
 10
2443.9399999999996
 20
1519.3181518540805
 10
2442.99
 20
1518.5335722289342
 10
2442.04
 20
1517.766686153218
 10
2441.0899999999997
 20
1517.0174909843568
 10
2440.14
 20
1516.2859841407376
 10
2439.1899999999996
 20
1515.5721631016954
 10
2438.24
 20
1514.8760254075119
 10
2437.29
 20
1514.1975686593978
 10
2436.3399999999997
 20
1513.5367905194937
 10
2435.39
 20
1512.893688710857
 10
2434.4399999999996
 20
1512.2682610174545
 10
2433.49
 20
1511.6605052841555
 10
2432.54
 20
1511.0704194167251
 10
2431.5899999999997
 20
1510.4980013818151
 10
2430.64
 20
1509.9432492069595
 10
2429.6899999999996
 20
1509.406160980563
 10
2428.74
 20
1508.886734851901
 10
2427.79
 20
1508.3849690311101
 10
2426.8399999999997
 20
1507.9008617891773
 10
2425.89
 20
1507.4344114579433
 10
2424.9399999999996
 20
1506.985616430089
 10
2423.99
 20
1506.5544751591344
 10
2423.04
 20
1506.1409861594313
 10
2422.0899999999997
 20
1505.745148006157
 10
2421.14
 20
1505.3669593353131
 10
2420.1899999999996
 20
1505.0064188437184
 10
2419.24
 20
1504.6635252890037
 10
2418.29
 20
1504.3382774896102
 10
2417.3399999999997
 20
1504.0306743247802
 10
2416.39
 20
1503.7407147345605
 10
2415.4399999999996
 20
1503.4683977197928
 10
2414.49
 20
1503.2137223421155
 10
2413.54
 20
1502.9766877239533
 10
2412.5899999999997
 20
1502.7572930485205
 10
2411.64
 20
1502.5555375598155
 10
2410.6899999999996
 20
1502.3714205626209
 10
2409.74
 20
1502.2049414224953
 10
2408.79
 20
1502.0560995657765
 10
2407.8399999999997
 20
1501.9248944795781
 10
2406.89
 20
1501.8113257117875
 10
2405.9399999999996
 20
1501.7153928710625
 10
2404.99
 20
1501.6370956268336
 10
2404.04
 20
1501.5764337093008
 10
2403.0899999999997
 20
1501.5334069094306
 10
2402.14
 20
1501.5080150789604
 10
2401.1899999999996
 20
1501.5002581303934
 10
2400.24
 20
1501.5101360370004
 10
2399.29
 20
1501.5376488328188
 10
2398.3399999999997
 20
1501.5827966126528
 10
2397.39
 20
1501.645579532077
 10
2396.4399999999996
 20
1501.725997807431
 10
2395.49
 20
1501.824051715823
 10
2394.54
 20
1501.9397415951337
 10
2393.5899999999997
 20
1502.0730678440125
 10
2392.64
 20
1502.2240309218819
 10
2391.6899999999996
 20
1502.3926313489383
 10
2390.74
 20
1502.5788697061523
 10
2389.79
 20
1502.7827466352762
 10
2388.8399999999997
 20
1503.0042628388367
 10
2387.89
 20
1503.2434190801469
 10
2386.9399999999996
 20
1503.5002161833033
 10
2385.99
 20
1503.7746550331894
 10
2385.04
 20
1504.066736575482
 10
2384.0899999999997
 20
1504.3764618166513
 10
2383.14
 20
1504.703831823961
 10
2382.1899999999996
 20
1505.0488477254821
 10
2381.24
 20
1505.411510710086
 10
2380.29
 20
1505.7918220274566
 10
2379.3399999999997
 20
1506.189782988089
 10
2378.39
 20
1506.6053949632985
 10
2377.4399999999996
 20
1507.0386593852204
 10
2376.49
 20
1507.4895777468191
 10
2375.54
 20
1507.9581516018939
 10
2374.5899999999997
 20
1508.4443825650787
 10
2373.64
 20
1508.948272311853
 10
2372.6899999999996
 20
1509.4698225785464
 10
2371.74
 20
1510.0090351623417
 10
2370.79
 20
1510.565911921286
 10
2369.8399999999997
 20
1511.140454774294
 10
2368.89
 20
1511.7326657011536
 10
2367.9399999999996
 20
1512.3425467425363
 10
2366.99
 20
1512.9701
  0
LWPOLYLINE
  5
C7
330
17
100
AcDbEntity
  8
0
 62
10
100
AcDbPolyline
 90
101
 70
0
 43
0.3
 10
2461.99
 20
1537.5909
 10
2462.9399999999996
 20
1536.6783582603678
 10
2463.89
 20
1535.7835309823358
 10
2464.8399999999997
 20
1534.9064150824647
 10
2465.79
 20
1534.047007538343
 10
2466.74
 20
1533.20530538858
 10
2467.6899999999996
 20
1532.3813057327968
 10
2468.64
 20
1531.5750057316138
 10
2469.5899999999997
 20
1530.78640260664
 10
2470.54
 20
1530.0154936404679
 10
2471.49
 20
1529.262276176661
 10
2472.4399999999996
 20
1528.526747619743
 10
2473.39
 20
1527.8089054351926
 10
2474.3399999999997
 20
1527.1087471494332
 10
2475.29
 20
1526.4262703498239
 10
2476.24
 20
1525.7614726846523
 10
2477.1899999999996
 20
1525.1143518631234
 10
2478.14
 20
1524.4849056553549
 10
2479.0899999999997
 20
1523.8731318923724
 10
2480.04
 20
1523.2790284660919
 10
2480.99
 20
1522.7025933293232
 10
2481.9399999999996
 20
1522.143824495756
 10
2482.89
 20
1521.6027200399565
 10
2483.8399999999997
 20
1521.0792780973604
 10
2484.79
 20
1520.5734968642646
 10
2485.74
 20
1520.0853745978209
 10
2486.6899999999996
 20
1519.614909616036
 10
2487.64
 20
1519.1621002977543
 10
2488.5899999999997
 20
1518.726945082665
 10
2489.54
 20
1518.3094424712865
 10
2490.49
 20
1517.9095910249684
 10
2491.4399999999996
 20
1517.5273893658818
 10
2492.39
 20
1517.1628361770174
 10
2493.3399999999997
 20
1516.8159302021795
 10
2494.29
 20
1516.486670245981
 10
2495.24
 20
1516.1750551738407
 10
2496.1899999999996
 20
1515.881083911981
 10
2497.14
 20
1515.6047554474208
 10
2498.0899999999997
 20
1515.3460688279727
 10
2499.04
 20
1515.105023162241
 10
2499.99
 20
1514.8816176196199
 10
2500.9399999999996
 20
1514.675851430285
 10
2501.89
 20
1514.4877238851986
 10
2502.8399999999997
 20
1514.3172343361014
 10
2503.79
 20
1514.1643821955104
 10
2504.74
 20
1514.0291669367198
 10
2505.6899999999996
 20
1513.9115880938004
 10
2506.64
 20
1513.8116452615907
 10
2507.5899999999997
 20
1513.7293380957028
 10
2508.54
 20
1513.66466631252
 10
2509.49
 20
1513.6176296891929
 10
2510.4399999999996
 20
1513.588228063638
 10
2511.39
 20
1513.5764613345436
 10
2512.3399999999997
 20
1513.582329461364
 10
2513.29
 20
1513.6058324643172
 10
2514.24
 20
1513.6469704243943
 10
2515.1899999999996
 20
1513.7057434833478
 10
2516.14
 20
1513.782151843703
 10
2517.0899999999997
 20
1513.87619576875
 10
2518.04
 20
1513.9878755825512
 10
2518.99
 20
1514.1171916699382
 10
2519.9399999999996
 20
1514.2641444765145
 10
2520.89
 20
1514.4287345086582
 10
2521.8399999999997
 20
1514.6109623335212
 10
2522.79
 20
1514.8108285790347
 10
2523.74
 20
1515.028333933908
 10
2524.6899999999996
 20
1515.2634791476294
 10
2525.64
 20
1515.5162650304776
 10
2526.5899999999997
 20
1515.7866924535126
 10
2527.54
 20
1516.074762348587
 10
2528.49
 20
1516.3804757083492
 10
2529.4399999999996
 20
1516.7038335862392
 10
2530.39
 20
1517.0448370965005
 10
2531.3399999999997
 20
1517.4034874141798
 10
2532.29
 20
1517.7797857751339
 10
2533.24
 20
1518.1737334760305
 10
2534.1899999999996
 20
1518.585331874354
 10
2535.14
 20
1519.0145823884118
 10
2536.0899999999997
 20
1519.4614864973353
 10
2537.04
 20
1519.9260457410917
 10
2537.99
 20
1520.4082617204804
 10
2538.9399999999996
 20
1520.9081360971472
 10
2539.89
 20
1521.4256705935848
 10
2540.8399999999997
 20
1521.9608669931392
 10
2541.79
 20
1522.5137271400174
 10
2542.74
 20
1523.0842529392917
 10
2543.6899999999996
 20
1523.672446356911
 10
2544.64
 20
1524.2783094196998
 10
2545.5899999999997
 20
1524.9018442153736
 10
2546.54
 20
1525.5430528925403
 10
2547.49
 20
1526.2019376607072
 10
2548.4399999999996
 20
1526.8785007902932
 10
2549.39
 20
1527.5727446126368
 10
2550.3399999999997
 20
1528.284671519995
 10
2551.29
 20
1529.014283965564
 10
2552.24
 20
1529.761584463477
 10
2553.1899999999996
 20
1530.5265755888224
 10
2554.14
 20
1531.3092599776433
 10
2555.0899999999997
 20
1532.1096403269555
 10
2556.04
 20
1532.9277193947473
 10
2556.99
 20
1533.7635
  0
LWPOLYLINE
  5
C8
330
17
100
AcDbEntity
  8
0
 62
10
100
AcDbPolyline
 90
101
 70
0
 43
0.3
 10
2556.99
 20
1533.7635
 10
2557.9399999999996
 20
1532.387659183625
 10
2558.89
 20
1531.0296348398438
 10
2559.8399999999997
 20
1529.6894222891085
 10
2560.79
 20
1528.3670169132445
 10
2561.74
 20
1527.0624141554422
 10
2562.6899999999996
 20
1525.7756095202346
 10
2563.64
 20
1524.5065985734855
 10
2564.5899999999997
 20
1523.2553769423725
 10
2565.54
 20
1522.0219403153717
 10
2566.49
 20
1520.8062844422468
 10
2567.4399999999996
 20
1519.6084051340276
 10
2568.39
 20
1518.4282982630002
 10
2569.3399999999997
 20
1517.2659597626953
 10
2570.29
 20
1516.121385627865
 10
2571.24
 20
1514.9945719144796
 10
2572.1899999999996
 20
1513.885514739706
 10
2573.14
 20
1512.7942102818997
 10
2574.0899999999997
 20
1511.7206547805888
 10
2575.04
 20
1510.6648445364604
 10
2575.99
 20
1509.6267759113493
 10
2576.9399999999996
 20
1508.606445328229
 10
2577.89
 20
1507.60384927119
 10
2578.8399999999997
 20
1506.6189842854374
 10
2579.79
 20
1505.6518469772718
 10
2580.74
 20
1504.7024340140845
 10
2581.6899999999996
 20
1503.770742124339
 10
2582.64
 20
1502.8567680975646
 10
2583.5899999999997
 20
1501.9605087843427
 10
2584.54
 20
1501.081961096299
 10
2585.49
 20
1500.2211220060879
 10
2586.4399999999996
 20
1499.3779885473866
 10
2587.39
 20
1498.552557814883
 10
2588.3399999999997
 20
1497.7448269642666
 10
2589.29
 20
1496.954793212217
 10
2590.24
 20
1496.1824538363978
 10
2591.1899999999996
 20
1495.4278061754394
 10
2592.14
 20
1494.6908476289418
 10
2593.0899999999997
 20
1493.9715756574533
 10
2594.04
 20
1493.269987782472
 10
2594.99
 20
1492.586081586431
 10
2595.9399999999996
 20
1491.9198547126903
 10
2596.89
 20
1491.2713048655316
 10
2597.8399999999997
 20
1490.64042981015
 10
2598.79
 20
1490.027227372643
 10
2599.74
 20
1489.4316954400078
 10
2600.6899999999996
 20
1488.8538319601296
 10
2601.64
 20
1488.293634941777
 10
2602.5899999999997
 20
1487.7511024545963
 10
2603.54
 20
1487.2262326290993
 10
2604.49
 20
1486.7190236566653
 10
2605.4399999999996
 20
1486.229473789525
 10
2606.39
 20
1485.7575813407643
 10
2607.3399999999997
 20
1485.3033446843135
 10
2608.29
 20
1484.8667622549387
 10
2609.24
 20
1484.4478325482435
 10
2610.1899999999996
 20
1484.0465541206584
 10
2611.14
 20
1483.6629255894372
 10
2612.0899999999997
 20
1483.2969456326537
 10
2613.04
 20
1482.948612989195
 10
2613.99
 20
1482.6179264587597
 10
2614.9399999999996
 20
1482.3048849018514
 10
2615.89
 20
1482.009487239776
 10
2616.8399999999997
 20
1481.7317324546357
 10
2617.79
 20
1481.47161958933
 10
2618.74
 20
1481.2291477475496
 10
2619.6899999999996
 20
1481.0043160937707
 10
2620.64
 20
1480.7971238532584
 10
2621.5899999999997
 20
1480.6075703120603
 10
2622.54
 20
1480.4356548170008
 10
2623.49
 20
1480.2813767756852
 10
2624.4399999999996
 20
1480.1447356564959
 10
2625.39
 20
1480.025730988587
 10
2626.3399999999997
 20
1479.924362361886
 10
2627.29
 20
1479.8406294270924
 10
2628.24
 20
1479.774531895674
 10
2629.1899999999996
 20
1479.7260695398704
 10
2630.14
 20
1479.6952421926858
 10
2631.0899999999997
 20
1479.682049747894
 10
2632.04
 20
1479.6864921600356
 10
2632.99
 20
1479.7085694444206
 10
2633.9399999999996
 20
1479.7482816771221
 10
2634.89
 20
1479.805628994982
 10
2635.8399999999997
 20
1479.8806115956122
 10
2636.79
 20
1479.973229737391
 10
2637.74
 20
1480.083483739466
 10
2638.6899999999996
 20
1480.2113739817573
 10
2639.64
 20
1480.3569009049545
 10
2640.5899999999997
 20
1480.5200650105214
 10
2641.54
 20
1480.7008668606989
 10
2642.49
 20
1480.8993070785004
 10
2643.4399999999996
 20
1481.1153863477248
 10
2644.39
 20
1481.3491054129452
 10
2645.3399999999997
 20
1481.6004650795255
 10
2646.29
 20
1481.8694662136124
 10
2647.24
 20
1482.1561097421445
 10
2648.1899999999996
 20
1482.4603966528512
 10
2649.14
 20
1482.7823279942597
 10
2650.0899999999997
 20
1483.121904875699
 10
2651.04
 20
1483.4791284672992
 10
2651.99
 20
1483.8540000000003
  0
LWPOLYLINE
  5
C9
330
17
100
AcDbEntity
  8
0
 62
10
100
AcDbPolyline
 90
101
 70
0
 43
0.3
 10
2651.99
 20
1483.854
 10
2652.9399999999996
 20
1482.5193639111783
 10
2653.89
 20
1481.202533563754
 10
2654.8399999999997
 20
1479.9035044201273
 10
2655.79
 20
1478.6222720040373
 10
2656.74
 20
1477.3588319005494
 10
2657.6899999999996
 20
1476.113179756038
 10
2658.64
 20
1474.8853112781692
 10
2659.5899999999997
 20
1473.6752222358948
 10
2660.54
 20
1472.4829084594253
 10
2661.49
 20
1471.3083658402288
 10
2662.4399999999996
 20
1470.1515903310058
 10
2663.39
 20
1469.0125779456787
 10
2664.3399999999997
 20
1467.8913247593825
 10
2665.29
 20
1466.787826908446
 10
2666.24
 20
1465.7020805903817
 10
2667.1899999999996
 20
1464.634082063868
 10
2668.14
 20
1463.583827648741
 10
2669.0899999999997
 20
1462.5513137259827
 10
2670.04
 20
1461.5365367377033
 10
2670.99
 20
1460.539493187132
 10
2671.9399999999996
 20
1459.5601796386081
 10
2672.89
 20
1458.5985927175607
 10
2673.8399999999997
 20
1457.6547291105064
 10
2674.79
 20
1456.728585565032
 10
2675.74
 20
1455.820158889785
 10
2676.6899999999996
 20
1454.9294459544624
 10
2677.64
 20
1454.0564436897998
 10
2678.5899999999997
 20
1453.2011490875634
 10
2679.54
 20
1452.3635592005335
 10
2680.49
 20
1451.5436711425034
 10
2681.4399999999996
 20
1450.7414820882595
 10
2682.39
 20
1449.9569892735776
 10
2683.3399999999997
 20
1449.1901899952136
 10
2684.29
 20
1448.4410816108907
 10
2685.24
 20
1447.7096615392952
 10
2686.1899999999996
 20
1446.9959272600609
 10
2687.14
 20
1446.299876313766
 10
2688.0899999999997
 20
1445.6215063019245
 10
2689.04
 20
1444.9608148869725
 10
2689.99
 20
1444.3177997922678
 10
2690.9399999999996
 20
1443.6924588020754
 10
2691.89
 20
1443.0847897615643
 10
2692.8399999999997
 20
1442.4947905767974
 10
2693.79
 20
1441.9224592147252
 10
2694.74
 20
1441.367793703181
 10
2695.6899999999996
 20
1440.8307921308678
 10
2696.64
 20
1440.3114526473596
 10
2697.5899999999997
 20
1439.8097734630906
 10
2698.54
 20
1439.325752849348
 10
2699.49
 20
1438.85938913827
 10
2700.4399999999996
 20
1438.4106807228366
 10
2701.39
 20
1437.9796260568653
 10
2702.3399999999997
 20
1437.566223655007
 10
2703.29
 20
1437.1704720927376
 10
2704.24
 20
1436.7923700063568
 10
2705.1899999999996
 20
1436.431916092982
 10
2706.14
 20
1436.0891091105418
 10
2707.0899999999997
 20
1435.7639478777749
 10
2708.04
 20
1435.456431274224
 10
2708.99
 20
1435.1665582402331
 10
2709.9399999999996
 20
1434.8943277769424
 10
2710.89
 20
1434.6397389462873
 10
2711.8399999999997
 20
1434.4027908709927
 10
2712.79
 20
1434.1834827345708
 10
2713.74
 20
1433.981813781318
 10
2714.6899999999996
 20
1433.7977833163136
 10
2715.64
 20
1433.631390705415
 10
2716.5899999999997
 20
1433.4826353752594
 10
2717.54
 20
1433.3515168132583
 10
2718.49
 20
1433.2380345675958
 10
2719.4399999999996
 20
1433.1421882472293
 10
2720.39
 20
1433.0639775218876
 10
2721.3399999999997
 20
1433.003402122067
 10
2722.29
 20
1432.960461839034
 10
2723.24
 20
1432.9351565248223
 10
2724.1899999999996
 20
1432.9274860922346
 10
2725.14
 20
1432.9374505148403
 10
2726.0899999999997
 20
1432.965049826973
 10
2727.04
 20
1433.0102841237385
 10
2727.99
 20
1433.0731535610053
 10
2728.9399999999996
 20
1433.1536583554134
 10
2729.89
 20
1433.25179878437
 10
2730.8399999999997
 20
1433.3675751860508
 10
2731.79
 20
1433.5009879594065
 10
2732.74
 20
1433.652037564156
 10
2733.6899999999996
 20
1433.820724520795
 10
2734.64
 20
1434.0070494105917
 10
2735.5899999999997
 20
1434.2110128755946
 10
2736.54
 20
1434.432615618633
 10
2737.49
 20
1434.6718584033144
 10
2738.4399999999996
 20
1434.9287420540352
 10
2739.39
 20
1435.2032674559775
 10
2740.3399999999997
 20
1435.4954355551151
 10
2741.29
 20
1435.8052473582156
 10
2742.24
 20
1436.132703932843
 10
2743.1899999999996
 20
1436.4778064073669
 10
2744.14
 20
1436.8405559709554
 10
2745.0899999999997
 20
1437.2209538735915
 10
2746.04
 20
1437.6190014260687
 10
2746.99
 20
1438.0347000000002
  0
LWPOLYLINE
  5
CA
330
17
100
AcDbEntity
  8
0
 62
10
100
AcDbPolyline
 90
101
 70
0
 43
0.3
 10
2836.99
 20
1464.5536
 10
2836.0899999999997
 20
1463.5029624243232
 10
2835.1899999999996
 20
1462.4682581144098
 10
2834.29
 20
1461.449483870257
 10
2833.39
 20
1460.4466365411272
 10
2832.49
 20
1459.4597130255388
 10
2831.5899999999997
 20
1458.4887102712592
 10
2830.6899999999996
 20
1457.533625275292
 10
2829.79
 20
1456.5944550838713
 10
2828.89
 20
1455.671196792449
 10
2827.99
 20
1454.7638475456852
 10
2827.0899999999997
 20
1453.8724045374468
 10
2826.1899999999996
 20
1452.9968650107871
 10
2825.29
 20
1452.1372262579512
 10
2824.39
 20
1451.293485620354
 10
2823.49
 20
1450.4656404885784
 10
2822.5899999999997
 20
1449.6536883023725
 10
2821.6899999999996
 20
1448.8576265506279
 10
2820.79
 20
1448.077452771388
 10
2819.89
 20
1447.313164551828
 10
2818.99
 20
1446.5647595282526
 10
2818.0899999999997
 20
1445.8322353860885
 10
2817.1899999999996
 20
1445.1155898598763
 10
2816.29
 20
1444.4148207332657
 10
2815.39
 20
1443.7299258390053
 10
2814.49
 20
1443.060903058938
 10
2813.5899999999997
 20
1442.407750323994
 10
2812.6899999999996
 20
1441.770465614183
 10
2811.79
 20
1441.1490469585917
 10
2810.89
 20
1440.5434924353758
 10
2809.99
 20
1439.9538001717494
 10
2809.0899999999997
 20
1439.379968343988
 10
2808.1899999999996
 20
1438.8219951774147
 10
2807.29
 20
1438.2798789464016
 10
2806.39
 20
1437.7536179743593
 10
2805.49
 20
1437.2432106337326
 10
2804.5899999999997
 20
1436.7486553459992
 10
2803.6899999999996
 20
1436.2699505816595
 10
2802.79
 20
1435.807094860236
 10
2801.89
 20
1435.3600867502648
 10
2800.99
 20
1434.928924869297
 10
2800.0899999999997
 20
1434.5136078838896
 10
2799.1899999999996
 20
1434.1141345095998
 10
2798.29
 20
1433.7305035109882
 10
2797.39
 20
1433.362713701608
 10
2796.49
 20
1433.010763944006
 10
2795.5899999999997
 20
1432.6746531497154
 10
2794.6899999999996
 20
1432.354380279255
 10
2793.79
 20
1432.0499443421245
 10
2792.89
 20
1431.7613443968032
 10
2791.99
 20
1431.488579550746
 10
2791.0899999999997
 20
1431.2316489603775
 10
2790.1899999999996
 20
1430.9905518310973
 10
2789.29
 20
1430.7652874172695
 10
2788.39
 20
1430.5558550222245
 10
2787.49
 20
1430.3622539982564
 10
2786.5899999999997
 20
1430.18448374662
 10
2785.6899999999996
 20
1430.0225437175284
 10
2784.79
 20
1429.8764334101568
 10
2783.89
 20
1429.7461523726304
 10
2782.99
 20
1429.6317002020337
 10
2782.0899999999997
 20
1429.5330765444046
 10
2781.1899999999996
 20
1429.4502810947295
 10
2780.29
 20
1429.3833135969512
 10
2779.39
 20
1429.3321738439606
 10
2778.49
 20
1429.2968616775977
 10
2777.5899999999997
 20
1429.2773769886553
 10
2776.6899999999996
 20
1429.273719716873
 10
2775.79
 20
1429.285889850939
 10
2774.89
 20
1429.3138874284932
 10
2773.99
 20
1429.3577125361212
 10
2773.0899999999997
 20
1429.4173653093621
 10
2772.1899999999996
 20
1429.4928459327002
 10
2771.29
 20
1429.5841546395734
 10
2770.39
 20
1429.6912917123702
 10
2769.49
 20
1429.814257482432
 10
2768.5899999999997
 20
1429.9530523300484
 10
2767.6899999999996
 20
1430.1076766844697
 10
2766.79
 20
1430.2781310238984
 10
2765.89
 20
1430.4644158754925
 10
2764.99
 20
1430.6665318153725
 10
2764.0899999999997
 20
1430.884479468616
 10
2763.1899999999996
 20
1431.1182595092646
 10
2762.29
 20
1431.367872660324
 10
2761.39
 20
1431.6333196937662
 10
2760.49
 20
1431.9146014305336
 10
2759.5899999999997
 20
1432.2117187405383
 10
2758.6899999999996
 20
1432.5246725426675
 10
2757.79
 20
1432.8534638047845
 10
2756.89
 20
1433.1980935437355
 10
2755.99
 20
1433.558562825348
 10
2755.0899999999997
 20
1433.934872764435
 10
2754.1899999999996
 20
1434.3270245248023
 10
2753.29
 20
1434.7350193192465
 10
2752.39
 20
1435.1588584095634
 10
2751.49
 20
1435.5985431065496
 10
2750.5899999999997
 20
1436.0540747700056
 10
2749.6899999999996
 20
1436.525454808745
 10
2748.79
 20
1437.0126846805908
 10
2747.89
 20
1437.515765892386
 10
2746.99
 20
1438.034700000001
  0
LWPOLYLINE
  5
CB
330
17
100
AcDbEntity
  8
0
 62
10
100
AcDbPolyline
 90
101
 70
0
 43
0.3
 10
2926.99
 20
1492.5752
 10
2926.0899999999997
 20
1491.5094583043772
 10
2925.1899999999996
 20
1490.4596529528797
 10
2924.29
 20
1489.4257806988016
 10
2923.39
 20
1488.4078383447102
 10
2922.49
 20
1487.405822742442
 10
2921.5899999999997
 20
1486.419730793089
 10
2920.6899999999996
 20
1485.4495594469895
 10
2919.79
 20
1484.495305703719
 10
2918.89
 20
1483.5569666120796
 10
2917.99
 20
1482.6345392700948
 10
2917.0899999999997
 20
1481.7280208249974
 10
2916.1899999999996
 20
1480.8374084732204
 10
2915.29
 20
1479.9626994603886
 10
2914.39
 20
1479.103891081313
 10
2913.49
 20
1478.2609806799765
 10
2912.5899999999997
 20
1477.4339656495335
 10
2911.6899999999996
 20
1476.622843432294
 10
2910.79
 20
1475.8276115197218
 10
2909.89
 20
1475.048267452423
 10
2908.99
 20
1474.284808820139
 10
2908.0899999999997
 20
1473.537233261742
 10
2907.1899999999996
 20
1472.8055384652228
 10
2906.29
 20
1472.0897221676887
 10
2905.39
 20
1471.389782155351
 10
2904.49
 20
1470.7057162635233
 10
2903.5899999999997
 20
1470.0375223766125
 10
2902.6899999999996
 20
1469.3851984281132
 10
2901.79
 20
1468.7487424005985
 10
2900.89
 20
1468.1281523257173
 10
2899.99
 20
1467.5234262841861
 10
2899.0899999999997
 20
1466.9345624057844
 10
2898.1899999999996
 20
1466.3615588693465
 10
2897.29
 20
1465.8044139027613
 10
2896.39
 20
1465.2631257829578
 10
2895.49
 20
1464.7376928359097
 10
2894.5899999999997
 20
1464.228113436623
 10
2893.6899999999996
 20
1463.7343860091346
 10
2892.79
 20
1463.256509026507
 10
2891.89
 20
1462.7944810108208
 10
2890.99
 20
1462.3483005331739
 10
2890.0899999999997
 20
1461.9179662136746
 10
2889.1899999999996
 20
1461.5034767214406
 10
2888.29
 20
1461.1048307745896
 10
2887.39
 20
1460.7220271402393
 10
2886.49
 20
1460.3550646345027
 10
2885.5899999999997
 20
1460.0039421224853
 10
2884.6899999999996
 20
1459.668658518276
 10
2883.79
 20
1459.3492127849556
 10
2882.89
 20
1459.0456039345806
 10
2881.99
 20
1458.757831028187
 10
2881.0899999999997
 20
1458.485893175787
 10
2880.1899999999996
 20
1458.2297895363668
 10
2879.29
 20
1457.9895193178793
 10
2878.39
 20
1457.7650817772478
 10
2877.49
 20
1457.5564762203594
 10
2876.5899999999997
 20
1457.363702002065
 10
2875.6899999999996
 20
1457.1867585261778
 10
2874.79
 20
1457.0256452454682
 10
2873.89
 20
1456.8803616616651
 10
2872.99
 20
1456.750907325454
 10
2872.0899999999997
 20
1456.6372818364748
 10
2871.1899999999996
 20
1456.53948484332
 10
2870.29
 20
1456.4575160435363
 10
2869.39
 20
1456.3913751836212
 10
2868.49
 20
1456.341062059021
 10
2867.5899999999997
 20
1456.306576514134
 10
2866.6899999999996
 20
1456.287918442309
 10
2865.79
 20
1456.2850877858414
 10
2864.89
 20
1456.2980845359773
 10
2863.99
 20
1456.3269087329106
 10
2863.0899999999997
 20
1456.371560465787
 10
2862.1899999999996
 20
1456.432039872698
 10
2861.29
 20
1456.5083471406876
 10
2860.39
 20
1456.600482505749
 10
2859.49
 20
1456.7084462528271
 10
2858.5899999999997
 20
1456.8322387158184
 10
2857.6899999999996
 20
1456.971860277574
 10
2856.79
 20
1457.1273113698956
 10
2855.89
 20
1457.2985924735449
 10
2854.99
 20
1457.485704118238
 10
2854.0899999999997
 20
1457.68864688265
 10
2853.1899999999996
 20
1457.9074213944168
 10
2852.29
 20
1458.1420283301388
 10
2851.39
 20
1458.3924684153753
 10
2850.49
 20
1458.6587424246597
 10
2849.5899999999997
 20
1458.940851181489
 10
2848.6899999999996
 20
1459.2387955583335
 10
2847.79
 20
1459.5525764766387
 10
2846.89
 20
1459.882194906827
 10
2845.99
 20
1460.2276518683025
 10
2845.0899999999997
 20
1460.5889484294485
 10
2844.1899999999996
 20
1460.9660857076392
 10
2843.29
 20
1461.359064869237
 10
2842.39
 20
1461.7678871296002
 10
2841.49
 20
1462.1925537530815
 10
2840.5899999999997
 20
1462.6330660530375
 10
2839.6899999999996
 20
1463.0894253918275
 10
2838.79
 20
1463.5616331808258
 10
2837.89
 20
1464.0496908804143
 10
2836.99
 20
1464.5535999999986
  0
LWPOLYLINE
  5
CC
330
17
100
AcDbEntity
  8
0
 62
10
100
AcDbPolyline
 90
101
 70
0
 43
0.3
 10
3000.99
 20
1506.6241
 10
3000.25
 20
1505.9531706965365
 10
2999.5099999999998
 20
1505.2929846896202
 10
2998.77
 20
1504.6435405989344
 10
2998.0299999999997
 20
1504.0048370666207
 10
2997.29
 20
1503.3768727572776
 10
2996.5499999999997
 20
1502.7596463579564
 10
2995.81
 20
1502.1531565781613
 10
2995.0699999999997
 20
1501.5574021498412
 10
2994.33
 20
1500.9723818273928
 10
2993.5899999999997
 20
1500.3980943876563
 10
2992.85
 20
1499.8345386299102
 10
2992.1099999999997
 20
1499.281713375871
 10
2991.37
 20
1498.7396174696926
 10
2990.6299999999997
 20
1498.2082497779597
 10
2989.89
 20
1497.687609189689
 10
2989.1499999999996
 20
1497.1776946163247
 10
2988.41
 20
1496.6785049917364
 10
2987.6699999999996
 20
1496.1900392722193
 10
2986.93
 20
1495.7122964364876
 10
2986.1899999999996
 20
1495.2452754856768
 10
2985.45
 20
1494.7889754433395
 10
2984.7099999999996
 20
1494.3433953554418
 10
2983.97
 20
1493.9085342903668
 10
2983.2299999999996
 20
1493.4843913389057
 10
2982.49
 20
1493.0709656142592
 10
2981.75
 20
1492.668256252038
 10
2981.0099999999998
 20
1492.276262410256
 10
2980.27
 20
1491.894983269333
 10
2979.5299999999997
 20
1491.5244180320897
 10
2978.79
 20
1491.1645659237483
 10
2978.0499999999997
 20
1490.8154261919294
 10
2977.31
 20
1490.4769981066522
 10
2976.5699999999997
 20
1490.149280960331
 10
2975.83
 20
1489.8322740677738
 10
2975.0899999999997
 20
1489.5259767661826
 10
2974.35
 20
1489.2303884151504
 10
2973.6099999999997
 20
1488.9455083966625
 10
2972.87
 20
1488.6713361150894
 10
2972.1299999999997
 20
1488.4078709971923
 10
2971.39
 20
1488.155112492119
 10
2970.6499999999996
 20
1487.913060071402
 10
2969.91
 20
1487.681713228956
 10
2969.1699999999996
 20
1487.4610714810822
 10
2968.43
 20
1487.251134366464
 10
2967.6899999999996
 20
1487.0519014461613
 10
2966.95
 20
1486.8633723036205
 10
2966.2099999999996
 20
1486.6855465446645
 10
2965.47
 20
1486.5184237974938
 10
2964.7299999999996
 20
1486.362003712689
 10
2963.99
 20
1486.2162859632062
 10
2963.25
 20
1486.0812702443804
 10
2962.5099999999998
 20
1485.9569562739186
 10
2961.77
 20
1485.8433437919057
 10
2961.0299999999997
 20
1485.7404325608006
 10
2960.29
 20
1485.648222365437
 10
2959.5499999999997
 20
1485.5667130130214
 10
2958.81
 20
1485.495904333133
 10
2958.0699999999997
 20
1485.4357961777266
 10
2957.33
 20
1485.386388421128
 10
2956.5899999999997
 20
1485.347680960034
 10
2955.85
 20
1485.3196737135156
 10
2955.1099999999997
 20
1485.3023666230158
 10
2954.37
 20
1485.2957596523486
 10
2953.6299999999997
 20
1485.2998527876994
 10
2952.89
 20
1485.314646037627
 10
2952.1499999999996
 20
1485.3401394330622
 10
2951.41
 20
1485.3763330273036
 10
2950.6699999999996
 20
1485.423226896028
 10
2949.93
 20
1485.4808211372783
 10
2949.1899999999996
 20
1485.5491158714747
 10
2948.45
 20
1485.6281112414074
 10
2947.7099999999996
 20
1485.7178074122394
 10
2946.97
 20
1485.8182045715073
 10
2946.2299999999996
 20
1485.9293029291232
 10
2945.49
 20
1486.0511027173688
 10
2944.75
 20
1486.183604190906
 10
2944.0099999999998
 20
1486.3268076267673
 10
2943.27
 20
1486.4807133243635
 10
2942.5299999999997
 20
1486.6453216054804
 10
2941.79
 20
1486.8206328142817
 10
2941.0499999999997
 20
1487.0066473173058
 10
2940.31
 20
1487.203365503475
 10
2939.5699999999997
 20
1487.4107877840866
 10
2938.83
 20
1487.6289145928183
 10
2938.0899999999997
 20
1487.8577463857312
 10
2937.35
 20
1488.0972836412652
 10
2936.6099999999997
 20
1488.347526860247
 10
2935.87
 20
1488.6084765658848
 10
2935.1299999999997
 20
1488.8801333037718
 10
2934.39
 20
1489.162497641888
 10
2933.6499999999996
 20
1489.4555701706022
 10
2932.91
 20
1489.7593515026683
 10
2932.1699999999996
 20
1490.0738422732356
 10
2931.43
 20
1490.3990431398386
 10
2930.6899999999996
 20
1490.7349547824106
 10
2929.95
 20
1491.0815779032725
 10
2929.2099999999996
 20
1491.4389132271463
 10
2928.47
 20
1491.8069615011486
 10
2927.7299999999996
 20
1492.1857234947943
 10
2926.99
 20
1492.5752000000002
  0
LWPOLYLINE
  5
CD
330
17
100
AcDbEntity
  8
0
 62
10
100
AcDbPolyline
 90
101
 70
0
 43
0.3
 10
3074.99
 20
1517.8716
 10
3074.25
 20
1517.2287662708127
 10
3073.5099999999998
 20
1516.5966722754779
 10
3072.77
 20
1515.975316692411
 10
3072.0299999999997
 20
1515.364698222483
 10
3071.29
 20
1514.764815589011
 10
3070.5499999999997
 20
1514.1756675377603
 10
3069.81
 20
1513.5972528369412
 10
3069.0699999999997
 20
1513.0295702772014
 10
3068.33
 20
1512.472618671632
 10
3067.5899999999997
 20
1511.9263968557566
 10
3066.85
 20
1511.3909036875352
 10
3066.1099999999997
 20
1510.8661380473577
 10
3065.37
 20
1510.3520988380449
 10
3064.6299999999997
 20
1509.848784984841
 10
3063.89
 20
1509.35619543542
 10
3063.1499999999996
 20
1508.8743291598728
 10
3062.41
 20
1508.4031851507143
 10
3061.6699999999996
 20
1507.9427624228767
 10
3060.93
 20
1507.4930600137072
 10
3060.1899999999996
 20
1507.0540769829668
 10
3059.45
 20
1506.6258124128308
 10
3058.7099999999996
 20
1506.2082654078836
 10
3057.97
 20
1505.8014350951166
 10
3057.2299999999996
 20
1505.405320623928
 10
3056.49
 20
1505.019921166124
 10
3055.75
 20
1504.645235915909
 10
3055.0099999999998
 20
1504.2812640898917
 10
3054.27
 20
1503.9280049270792
 10
3053.5299999999997
 20
1503.5854576888769
 10
3052.79
 20
1503.2536216590863
 10
3052.0499999999997
 20
1502.9324961439058
 10
3051.31
 20
1502.6220804719262
 10
3050.5699999999997
 20
1502.3223739941275
 10
3049.83
 20
1502.0333760838857
 10
3049.0899999999997
 20
1501.7550861369639
 10
3048.35
 20
1501.4875035715113
 10
3047.6099999999997
 20
1501.230627828067
 10
3046.87
 20
1500.9844583695556
 10
3046.1299999999997
 20
1500.7489946812857
 10
3045.39
 20
1500.5242362709491
 10
3044.6499999999996
 20
1500.3101826686216
 10
3043.91
 20
1500.1068334267582
 10
3043.1699999999996
 20
1499.914188120198
 10
3042.43
 20
1499.7322463461574
 10
3041.6899999999996
 20
1499.561007724232
 10
3040.95
 20
1499.4004718963959
 10
3040.2099999999996
 20
1499.250638527002
 10
3039.47
 20
1499.1115073027756
 10
3038.7299999999996
 20
1498.9830779328256
 10
3037.99
 20
1498.8653501486274
 10
3037.25
 20
1498.7583237040378
 10
3036.5099999999998
 20
1498.6619983752862
 10
3035.77
 20
1498.5763739609743
 10
3035.0299999999997
 20
1498.50145028208
 10
3034.29
 20
1498.4372271819507
 10
3033.5499999999997
 20
1498.3837045263108
 10
3032.81
 20
1498.3408822032538
 10
3032.0699999999997
 20
1498.308760123247
 10
3031.33
 20
1498.2873382191308
 10
3030.5899999999997
 20
1498.2766164461138
 10
3029.85
 20
1498.276594781781
 10
3029.1099999999997
 20
1498.2872732260862
 10
3028.37
 20
1498.3086518013558
 10
3027.6299999999997
 20
1498.3407305522887
 10
3026.89
 20
1498.3835095459547
 10
3026.1499999999996
 20
1498.4369888717968
 10
3025.41
 20
1498.5011686416292
 10
3024.6699999999996
 20
1498.5760489896393
 10
3023.93
 20
1498.6616300723852
 10
3023.1899999999996
 20
1498.7579120688026
 10
3022.45
 20
1498.8648951801965
 10
3021.7099999999996
 20
1498.982579630247
 10
3020.97
 20
1499.1109656650096
 10
3020.2299999999996
 20
1499.250053552913
 10
3019.49
 20
1499.3998435847636
 10
3018.75
 20
1499.5603360737416
 10
3018.0099999999998
 20
1499.7315313554045
 10
3017.27
 20
1499.9134297876883
 10
3016.5299999999997
 20
1500.1060317509064
 10
3015.79
 20
1500.3093376477505
 10
3015.0499999999997
 20
1500.5233479032927
 10
3014.31
 20
1500.7480629649872
 10
3013.5699999999997
 20
1500.983483302666
 10
3012.83
 20
1501.229609408548
 10
3012.0899999999997
 20
1501.4864417972333
 10
3011.35
 20
1501.753981005706
 10
3010.6099999999997
 20
1502.0322275933395
 10
3009.87
 20
1502.3211821418902
 10
3009.1299999999997
 20
1502.620845255506
 10
3008.39
 20
1502.9312175607208
 10
3007.6499999999996
 20
1503.252299706463
 10
3006.91
 20
1503.58409236405
 10
3006.1699999999996
 20
1503.9265962271954
 10
3005.43
 20
1504.2798120120058
 10
3004.6899999999996
 20
1504.6437404569847
 10
3003.95
 20
1505.0183823230338
 10
3003.2099999999996
 20
1505.403738393456
 10
3002.47
 20
1505.799809473954
 10
3001.7299999999996
 20
1506.2065963926311
 10
3000.99
 20
1506.6241000000002
  0
LWPOLYLINE
  5
CE
330
17
100
AcDbEntity
  8
0
 62
10
100
AcDbPolyline
 90
101
 70
0
 43
0.3
 10
3074.99
 20
1517.8716
 10
3075.7436
 20
1517.3037337652063
 10
3076.4972
 20
1516.7469953999275
 10
3077.2508
 20
1516.201383696954
 10
3078.0044
 20
1515.6668974732072
 10
3078.758
 20
1515.1435355697265
 10
3079.5116
 20
1514.6312968516777
 10
3080.2652
 20
1514.1301802083437
 10
3081.0188
 20
1513.6401845531252
 10
3081.7724
 20
1513.1613088235338
 10
3082.526
 20
1512.6935519811966
 10
3083.2796
 20
1512.2369130118504
 10
3084.0332
 20
1511.7913909253377
 10
3084.7868
 20
1511.3569847556073
 10
3085.5404
 20
1510.9336935607098
 10
3086.294
 20
1510.5215164228007
 10
3087.0476
 20
1510.1204524481302
 10
3087.8012
 20
1509.7305007670502
 10
3088.5548
 20
1509.351660534004
 10
3089.3084
 20
1508.983930927531
 10
3090.062
 20
1508.6273111502617
 10
3090.8156
 20
1508.281800428917
 10
3091.5692
 20
1507.9473980143066
 10
3092.3228
 20
1507.6241031813254
 10
3093.0764
 20
1507.3119152289544
 10
3093.83
 20
1507.0108334802587
 10
3094.5836
 20
1506.7208572823854
 10
3095.3372
 20
1506.4419860065627
 10
3096.0908
 20
1506.1742190480977
 10
3096.8444
 20
1505.9175558263744
 10
3097.598
 20
1505.671995784857
 10
3098.3516
 20
1505.4375383910824
 10
3099.1052
 20
1505.214183136662
 10
3099.8588
 20
1505.0019295372845
 10
3100.6124
 20
1504.8007771327061
 10
3101.366
 20
1504.6107254867568
 10
3102.1196
 20
1504.431774187336
 10
3102.8732
 20
1504.2639228464145
 10
3103.6268
 20
1504.1071711000288
 10
3104.3804
 20
1503.9615186082872
 10
3105.134
 20
1503.8269650553614
 10
3105.8876
 20
1503.7035101494919
 10
3106.6412
 20
1503.5911536229835
 10
3107.3948
 20
1503.4898952322073
 10
3108.1484
 20
1503.3997347575985
 10
3108.902
 20
1503.320672003659
 10
3109.6556
 20
1503.2527067989495
 10
3110.4092
 20
1503.195838996099
 10
3111.1628
 20
1503.1500684717967
 10
3111.9164
 20
1503.1153951267963
 10
3112.67
 20
1503.091818885914
 10
3113.4235999999996
 20
1503.0793396980275
 10
3114.1771999999996
 20
1503.0779575360775
 10
3114.9307999999996
 20
1503.0876723970664
 10
3115.6843999999996
 20
1503.1084843020612
 10
3116.4379999999996
 20
1503.1403932961878
 10
3117.1915999999997
 20
1503.183399448637
 10
3117.9451999999997
 20
1503.2375028526615
 10
3118.6987999999997
 20
1503.3027036255771
 10
3119.4523999999997
 20
1503.3790019087626
 10
3120.2059999999997
 20
1503.4663978676585
 10
3120.9595999999997
 20
1503.564891691772
 10
3121.7131999999997
 20
1503.6744835946736
 10
3122.4667999999997
 20
1503.7951738139955
 10
3123.2203999999997
 20
1503.926962611439
 10
3123.9739999999997
 20
1504.069850272769
 10
3124.7275999999997
 20
1504.223837107816
 10
3125.4811999999997
 20
1504.388923450481
 10
3126.2347999999997
 20
1504.5651096587274
 10
3126.9883999999997
 20
1504.7523961145926
 10
3127.7419999999997
 20
1504.950783224179
 10
3128.4955999999997
 20
1505.160271417662
 10
3129.2491999999997
 20
1505.3808611492857
 10
3130.0027999999998
 20
1505.612552897369
 10
3130.7563999999998
 20
1505.855347164302
 10
3131.5099999999998
 20
1506.1092444765484
 10
3132.2635999999998
 20
1506.3742453846496
 10
3133.0172
 20
1506.6503504632226
 10
3133.7708
 20
1506.9375603109618
 10
3134.5244
 20
1507.2358755506407
 10
3135.278
 20
1507.5452968291138
 10
3136.0316
 20
1507.8658248173172
 10
3136.7852
 20
1508.1974602102696
 10
3137.5388
 20
1508.5402037270765
 10
3138.2924
 20
1508.894056110927
 10
3139.046
 20
1509.2590181291023
 10
3139.7996
 20
1509.6350905729673
 10
3140.5532
 20
1510.022274257984
 10
3141.3068
 20
1510.4205700237046
 10
3142.0604
 20
1510.8299787337771
 10
3142.814
 20
1511.250501275946
 10
3143.5676
 20
1511.682138562054
 10
3144.3212
 20
1512.1248915280464
 10
3145.0748
 20
1512.5787611339688
 10
3145.8284
 20
1513.043748363974
 10
3146.582
 20
1513.5198542263215
 10
3147.3356
 20
1514.0070797533772
 10
3148.0892
 20
1514.505426001622
 10
3148.8428
 20
1515.0148940516483
 10
3149.5964
 20
1515.5354850081644
 10
3150.35
 20
1516.0672000000004
  0
LWPOLYLINE
  5
CF
330
17
100
AcDbEntity
  8
0
 62
10
100
AcDbPolyline
 90
101
 70
0
 43
0.3
 10
3230.35
 20
1525.33
 10
3229.5499999999997
 20
1524.6175024500765
 10
3228.75
 20
1523.9175591357161
 10
3227.95
 20
1523.2301683465412
 10
3227.15
 20
1522.555328402848
 10
3226.35
 20
1521.8930376556
 10
3225.5499999999997
 20
1521.2432944864279
 10
3224.75
 20
1520.606097307623
 10
3223.95
 20
1519.9814445621325
 10
3223.15
 20
1519.3693347235587
 10
3222.35
 20
1518.7697662961539
 10
3221.5499999999997
 20
1518.1827378148146
 10
3220.75
 20
1517.6082478450826
 10
3219.95
 20
1517.0462949831349
 10
3219.15
 20
1516.4968778557893
 10
3218.35
 20
1515.9599951204907
 10
3217.5499999999997
 20
1515.4356454653168
 10
3216.75
 20
1514.923827608969
 10
3215.95
 20
1514.4245403007717
 10
3215.15
 20
1513.9377823206692
 10
3214.35
 20
1513.4635524792216
 10
3213.5499999999997
 20
1513.0018496176037
 10
3212.75
 20
1512.552672607602
 10
3211.95
 20
1512.1160203516094
 10
3211.15
 20
1511.6918917826238
 10
3210.35
 20
1511.2802858642472
 10
3209.5499999999997
 20
1510.8812015906822
 10
3208.75
 20
1510.494637986728
 10
3207.95
 20
1510.1205941077794
 10
3207.15
 20
1509.7590690398272
 10
3206.35
 20
1509.4100618994473
 10
3205.5499999999997
 20
1509.073571833809
 10
3204.75
 20
1508.7495980206668
 10
3203.95
 20
1508.438139668361
 10
3203.15
 20
1508.1391960158128
 10
3202.35
 20
1507.8527663325249
 10
3201.5499999999997
 20
1507.5788499185794
 10
3200.75
 20
1507.317446104636
 10
3199.95
 20
1507.06855425193
 10
3199.15
 20
1506.8321737522695
 10
3198.35
 20
1506.608304028037
 10
3197.5499999999997
 20
1506.396944532185
 10
3196.75
 20
1506.1980947482368
 10
3195.95
 20
1506.0117541902844
 10
3195.15
 20
1505.837922402987
 10
3194.35
 20
1505.6765989615703
 10
3193.5499999999997
 20
1505.5277834718258
 10
3192.75
 20
1505.3914755701069
 10
3191.95
 20
1505.267674923333
 10
3191.15
 20
1505.1563812289862
 10
3190.35
 20
1505.0575942151095
 10
3189.5499999999997
 20
1504.9713136403072
 10
3188.75
 20
1504.8975392937448
 10
3187.95
 20
1504.836270995148
 10
3187.15
 20
1504.7875085948017
 10
3186.35
 20
1504.7512519735503
 10
3185.5499999999997
 20
1504.7275010427968
 10
3184.75
 20
1504.7162557445038
 10
3183.95
 20
1504.7175160511927
 10
3183.15
 20
1504.7312819659433
 10
3182.35
 20
1504.757553522393
 10
3181.5499999999997
 20
1504.7963307847392
 10
3180.75
 20
1504.8476138477395
 10
3179.95
 20
1504.911402836706
 10
3179.15
 20
1504.9876979075152
 10
3178.35
 20
1505.0764992466006
 10
3177.5499999999997
 20
1505.1778070709581
 10
3176.75
 20
1505.2916216281399
 10
3175.95
 20
1505.4179431962655
 10
3175.15
 20
1505.556772084012
 10
3174.35
 20
1505.7081086306225
 10
3173.5499999999997
 20
1505.8719532059004
 10
3172.75
 20
1506.0483062102167
 10
3171.95
 20
1506.237168074506
 10
3171.15
 20
1506.4385392602699
 10
3170.35
 20
1506.6524202595795
 10
3169.5499999999997
 20
1506.8788115950713
 10
3168.75
 20
1507.1177138199557
 10
3167.95
 20
1507.3691275180122
 10
3167.15
 20
1507.6330533035932
 10
3166.35
 20
1507.9094918216267
 10
3165.5499999999997
 20
1508.198443747618
 10
3164.75
 20
1508.4999097876466
 10
3163.95
 20
1508.8138906783743
 10
3163.15
 20
1509.1403871870432
 10
3162.35
 20
1509.479400111477
 10
3161.5499999999997
 20
1509.830930280088
 10
3160.75
 20
1510.194978551872
 10
3159.95
 20
1510.5715458164166
 10
3159.15
 20
1510.9606329938988
 10
3158.35
 20
1511.3622410350897
 10
3157.5499999999997
 20
1511.7763709213577
 10
3156.75
 20
1512.2030236646667
 10
3155.95
 20
1512.6422003075845
 10
3155.15
 20
1513.0939019232806
 10
3154.35
 20
1513.5581296155306
 10
3153.5499999999997
 20
1514.0348845187186
 10
3152.75
 20
1514.5241677978404
 10
3151.95
 20
1515.025980648506
 10
3151.15
 20
1515.5403242969437
 10
3150.35
 20
1516.0671999999997
  0
LWPOLYLINE
  5
D0
330
17
100
AcDbEntity
  8
0
 62
10
100
AcDbPolyline
 90
101
 70
0
 43
0.3
 10
3306.35
 20
1530.6374
 10
3305.5899999999997
 20
1530.0250424145345
 10
3304.83
 20
1529.4240070394892
 10
3304.0699999999997
 20
1528.8342925493753
 10
3303.31
 20
1528.255897643669
 10
3302.5499999999997
 20
1527.6888210468094
 10
3301.79
 20
1527.1330615081993
 10
3301.0299999999997
 20
1526.5886178021963
 10
3300.27
 20
1526.0554887281155
 10
3299.5099999999998
 20
1525.5336731102227
 10
3298.75
 20
1525.023169797736
 10
3297.99
 20
1524.5239776648189
 10
3297.23
 20
1524.0360956105822
 10
3296.47
 20
1523.5595225590766
 10
3295.71
 20
1523.094257459295
 10
3294.95
 20
1522.6402992851672
 10
3294.19
 20
1522.197647035561
 10
3293.43
 20
1521.766299734274
 10
3292.67
 20
1521.3462564300376
 10
3291.91
 20
1520.9375161965106
 10
3291.15
 20
1520.540078132282
 10
3290.39
 20
1520.1539413608639
 10
3289.63
 20
1519.7791050306905
 10
3288.87
 20
1519.4155683151184
 10
3288.11
 20
1519.0633304124267
 10
3287.35
 20
1518.7223905458059
 10
3286.5899999999997
 20
1518.3927479633692
 10
3285.83
 20
1518.0744019381407
 10
3285.0699999999997
 20
1517.7673517680562
 10
3284.31
 20
1517.4715967759662
 10
3283.5499999999997
 20
1517.1871363096275
 10
3282.79
 20
1516.9139697417083
 10
3282.0299999999997
 20
1516.6520964697818
 10
3281.27
 20
1516.401515916327
 10
3280.5099999999998
 20
1516.1622275287284
 10
3279.75
 20
1515.9342307792726
 10
3278.99
 20
1515.717525165146
 10
3278.23
 20
1515.5121102084413
 10
3277.47
 20
1515.3179854561465
 10
3276.71
 20
1515.1351504801496
 10
3275.95
 20
1514.9636048772363
 10
3275.19
 20
1514.8033482690898
 10
3274.43
 20
1514.654380302289
 10
3273.67
 20
1514.5167006483086
 10
3272.91
 20
1514.3903090035171
 10
3272.15
 20
1514.275205089178
 10
3271.39
 20
1514.1713886514478
 10
3270.63
 20
1514.0788594613741
 10
3269.87
 20
1513.9976173148987
 10
3269.11
 20
1513.9276620328562
 10
3268.35
 20
1513.8689934609688
 10
3267.5899999999997
 20
1513.8216114698541
 10
3266.83
 20
1513.7855159550172
 10
3266.0699999999997
 20
1513.7607068368557
 10
3265.31
 20
1513.7471840606577
 10
3264.5499999999997
 20
1513.7449475965982
 10
3263.79
 20
1513.7539974397475
 10
3263.0299999999997
 20
1513.7743336100639
 10
3262.27
 20
1513.8059561523933
 10
3261.5099999999998
 20
1513.8488651364755
 10
3260.75
 20
1513.9030606569409
 10
3259.99
 20
1513.968542833307
 10
3259.23
 20
1514.0453118099858
 10
3258.47
 20
1514.133367756279
 10
3257.71
 20
1514.2327108663815
 10
3256.95
 20
1514.3433413593773
 10
3256.19
 20
1514.465259479244
 10
3255.43
 20
1514.5984654948556
 10
3254.67
 20
1514.742959699976
 10
3253.91
 20
1514.898742413265
 10
3253.15
 20
1515.0658139782759
 10
3252.39
 20
1515.2441747634607
 10
3251.63
 20
1515.4338251621646
 10
3250.87
 20
1515.6347655926336
 10
3250.11
 20
1515.8469964980104
 10
3249.35
 20
1516.0705183463351
 10
3248.5899999999997
 20
1516.305331630553
 10
3247.83
 20
1516.5514368685067
 10
3247.0699999999997
 20
1516.8088346029424
 10
3246.31
 20
1517.0775254015123
 10
3245.5499999999997
 20
1517.357509856772
 10
3244.79
 20
1517.6487885861818
 10
3244.0299999999997
 20
1517.9513622321144
 10
3243.27
 20
1518.2652314618454
 10
3242.5099999999998
 20
1518.5903969675676
 10
3241.75
 20
1518.9268594663806
 10
3240.99
 20
1519.274619700302
 10
3240.23
 20
1519.6336784362607
 10
3239.47
 20
1520.004036466107
 10
3238.71
 20
1520.385694606605
 10
3237.95
 20
1520.7786536994456
 10
3237.19
 20
1521.182914611237
 10
3236.43
 20
1521.5984782335133
 10
3235.67
 20
1522.0253454827368
 10
3234.91
 20
1522.4635173002948
 10
3234.15
 20
1522.9129946525086
 10
3233.39
 20
1523.37377853063
 10
3232.63
 20
1523.8458699508453
 10
3231.87
 20
1524.3292699542797
 10
3231.11
 20
1524.823979606996
 10
3230.35
 20
1525.3299999999997
  0
LWPOLYLINE
  5
D1
330
17
100
AcDbEntity
  8
0
 62
10
100
AcDbPolyline
 90
101
 70
0
 43
0.3
 10
3306.35
 20
1530.6374
 10
3307.1142999999997
 20
1529.9638861500375
 10
3307.8786
 20
1529.3018301660886
 10
3308.6429
 20
1528.6512305715253
 10
3309.4072
 20
1528.0120859152678
 10
3310.1715
 20
1527.3843947717896
 10
3310.9357999999997
 20
1526.7681557411054
 10
3311.7001
 20
1526.1633674487746
 10
3312.4644
 20
1525.5700285458947
 10
3313.2287
 20
1524.9881377091015
 10
3313.993
 20
1524.4176936405636
 10
3314.7572999999998
 20
1523.8586950679787
 10
3315.5216
 20
1523.3111407445724
 10
3316.2859
 20
1522.7750294490982
 10
3317.0502
 20
1522.2503599858264
 10
3317.8145
 20
1521.7371311845536
 10
3318.5788
 20
1521.2353419005865
 10
3319.3431
 20
1520.744991014751
 10
3320.1074
 20
1520.2660774333829
 10
3320.8717
 20
1519.7986000883275
 10
3321.636
 20
1519.3425579369386
 10
3322.4003
 20
1518.8979499620712
 10
3323.1646
 20
1518.464775172086
 10
3323.9289
 20
1518.0430326008436
 10
3324.6932
 20
1517.6327213077018
 10
3325.4575
 20
1517.2338403775134
 10
3326.2218
 20
1516.8463889206282
 10
3326.9861
 20
1516.4703660728846
 10
3327.7504
 20
1516.1057709956133
 10
3328.5147
 20
1515.7526028756308
 10
3329.279
 20
1515.410860925244
 10
3330.0433
 20
1515.0805443822405
 10
3330.8076
 20
1514.7616525098927
 10
3331.5719
 20
1514.4541845969534
 10
3332.3362
 20
1514.1581399576544
 10
3333.1005
 20
1513.8735179317089
 10
3333.8648
 20
1513.600317884302
 10
3334.6291
 20
1513.3385392060989
 10
3335.3934
 20
1513.0881813132341
 10
3336.1577
 20
1512.8492436473184
 10
3336.922
 20
1512.621725675432
 10
3337.6863
 20
1512.4056268901252
 10
3338.4506
 20
1512.2009468094177
 10
3339.2149
 20
1512.0076849767972
 10
3339.9792
 20
1511.8258409612188
 10
3340.7435
 20
1511.6554143571034
 10
3341.5078
 20
1511.4964047843366
 10
3342.2721
 20
1511.3488118882663
 10
3343.0364
 20
1511.2126353397084
 10
3343.8007000000002
 20
1511.0878748349369
 10
3344.565
 20
1510.9745300956893
 10
3345.3293
 20
1510.8726008691674
 10
3346.0936
 20
1510.7820869280295
 10
3346.8579
 20
1510.702988070396
 10
3347.6222000000002
 20
1510.635304119848
 10
3348.3865
 20
1510.5790349254241
 10
3349.1508
 20
1510.534180361625
 10
3349.9151
 20
1510.5007403284055
 10
3350.6794
 20
1510.4787147511852
 10
3351.4437000000003
 20
1510.4681035808374
 10
3352.208
 20
1510.4689067936947
 10
3352.9723
 20
1510.4811243915492
 10
3353.7366
 20
1510.504756401651
 10
3354.5009
 20
1510.5398028767079
 10
3355.2652000000003
 20
1510.586263894886
 10
3356.0295
 20
1510.6441395598108
 10
3356.7938
 20
1510.7134300005678
 10
3357.5581
 20
1510.7941353716983
 10
3358.3224
 20
1510.8862558532062
 10
3359.0867000000003
 20
1510.9897916505545
 10
3359.851
 20
1511.1047429946661
 10
3360.6153
 20
1511.231110141924
 10
3361.3796
 20
1511.368893374175
 10
3362.1439
 20
1511.518092998726
 10
3362.9082000000003
 20
1511.678709348348
 10
3363.6725
 20
1511.8507427812744
 10
3364.4368
 20
1512.0341936812042
 10
3365.2011
 20
1512.2290624572988
 10
3365.9654
 20
1512.4353495441903
 10
3366.7297000000003
 20
1512.6530554019737
 10
3367.494
 20
1512.882180516213
 10
3368.2583
 20
1513.1227253979428
 10
3369.0226000000002
 20
1513.3746905836686
 10
3369.7869
 20
1513.6380766353636
 10
3370.5512000000003
 20
1513.9128841404765
 10
3371.3155
 20
1514.1991137119314
 10
3372.0798
 20
1514.4967659881254
 10
3372.8441000000003
 20
1514.8058416329325
 10
3373.6084
 20
1515.1263413357053
 10
3374.3727000000003
 20
1515.458265811279
 10
3375.137
 20
1515.8016157999664
 10
3375.9013
 20
1516.1563920675649
 10
3376.6656000000003
 20
1516.5225954053574
 10
3377.4299
 20
1516.9002266301127
 10
3378.1942000000004
 20
1517.2892865840886
 10
3378.9585
 20
1517.689776135031
 10
3379.7228
 20
1518.1016961761818
 10
3380.4871000000003
 20
1518.525047626275
 10
3381.2514
 20
1518.9598314295388
 10
3382.0157000000004
 20
1519.4060485557045
 10
3382.78
 20
1519.8637000000006
  0
ENDSEC
  0
SECTION
  2
OBJECTS
  0
DICTIONARY
  5
A
330
0
100
AcDbDictionary
280
0
281
1
  3
ACAD_COLOR
350
B
  3
ACAD_GROUP
350
C
  3
ACAD_LAYOUT
350
D
  3
ACAD_MATERIAL
350
E
  3
ACAD_MLEADERSTYLE
350
F
  3
ACAD_MLINESTYLE
350
10
  3
ACAD_PLOTSETTINGS
350
11
  3
ACAD_PLOTSTYLENAME
350
12
  3
ACAD_SCALELIST
350
14
  3
ACAD_TABLESTYLE
350
15
  3
ACAD_VISUALSTYLE
350
16
  3
EZDXF_META
350
2D
  0
DICTIONARY
  5
B
330
A
100
AcDbDictionary
280
0
281
1
  0
DICTIONARY
  5
C
330
A
100
AcDbDictionary
280
0
281
1
  0
DICTIONARY
  5
D
330
A
100
AcDbDictionary
280
0
281
1
  3
Model
350
1A
  3
Layout1
350
1E
  0
DICTIONARY
  5
E
330
A
100
AcDbDictionary
280
0
281
1
  3
ByBlock
350
1F
  3
ByLayer
350
20
  3
Global
350
21
  0
DICTIONARY
  5
F
330
A
100
AcDbDictionary
280
0
281
1
  3
Standard
350
2C
  0
DICTIONARY
  5
10
330
A
100
AcDbDictionary
280
0
281
1
  3
Standard
350
22
  0
DICTIONARY
  5
11
330
A
100
AcDbDictionary
280
0
281
1
  0
ACDBDICTIONARYWDFLT
  5
12
330
A
100
AcDbDictionary
280
0
281
1
  3
Normal
350
13
100
AcDbDictionaryWithDefault
340
13
  0
ACDBPLACEHOLDER
  5
13
330
12
  0
DICTIONARY
  5
14
330
A
100
AcDbDictionary
280
0
281
1
  0
DICTIONARY
  5
15
330
A
100
AcDbDictionary
280
0
281
1
  0
DICTIONARY
  5
16
330
A
100
AcDbDictionary
280
0
281
1
  0
LAYOUT
  5
1A
330
D
100
AcDbPlotSettings
  1

  2
Adobe PDF
  4
A3
  6

 40
7.5
 41
20.0
 42
7.5
 43
20.0
 44
420.0
 45
297.0
 46
0.0
 47
0.0
 48
0.0
 49
0.0
140
0.0
141
0.0
142
1.0
143
1.0
 70
1024
 72
1
 73
0
 74
5
  7

 75
16
 76
0
 77
2
 78
300
147
1.0
148
0.0
149
0.0
100
AcDbLayout
  1
Model
 70
1
 71
0
 10
0.0
 20
0.0
 11
420.0
 21
297.0
 12
0.0
 22
0.0
 32
0.0
 14
1e+20
 24
1e+20
 34
1e+20
 15
-1e+20
 25
-1e+20
 35
-1e+20
146
0.0
 13
0.0
 23
0.0
 33
0.0
 16
1.0
 26
0.0
 36
0.0
 17
0.0
 27
1.0
 37
0.0
 76
1
330
17
  0
LAYOUT
  5
1E
330
D
100
AcDbPlotSettings
  1

  2
Adobe PDF
  4
A3
  6

 40
7.5
 41
20.0
 42
7.5
 43
20.0
 44
420.0
 45
297.0
 46
0.0
 47
0.0
 48
0.0
 49
0.0
140
0.0
141
0.0
142
1.0
143
1.0
 70
0
 72
1
 73
0
 74
5
  7

 75
16
 76
0
 77
2
 78
300
147
1.0
148
0.0
149
0.0
100
AcDbLayout
  1
Layout1
 70
1
 71
1
 10
0.0
 20
0.0
 11
420.0
 21
297.0
 12
0.0
 22
0.0
 32
0.0
 14
1e+20
 24
1e+20
 34
1e+20
 15
-1e+20
 25
-1e+20
 35
-1e+20
146
0.0
 13
0.0
 23
0.0
 33
0.0
 16
1.0
 26
0.0
 36
0.0
 17
0.0
 27
1.0
 37
0.0
 76
1
330
1B
  0
MATERIAL
  5
1F
102
{ACAD_REACTORS
330
E
102
}
330
E
100
AcDbMaterial
  1
ByBlock
  2

 70
0
 40
1.0
 71
1
 41
1.0
 91
-1023410177
 42
1.0
 72
1
  3

 73
1
 74
1
 75
1
 44
0.5
 73
0
 45
1.0
 46
1.0
 77
1
  4

 78
1
 79
1
170
1
 48
1.0
171
1
  6

172
1
173
1
174
1
140
1.0
141
1.0
175
1
  7

176
1
177
1
178
1
143
1.0
179
1
  8

270
1
271
1
272
1
145
1.0
146
1.0
273
1
  9

274
1
275
1
276
1
 42
1.0
 72
1
  3

 73
1
 74
1
 75
1
 94
63
  0
MATERIAL
  5
20
102
{ACAD_REACTORS
330
E
102
}
330
E
100
AcDbMaterial
  1
ByLayer
  2

 70
0
 40
1.0
 71
1
 41
1.0
 91
-1023410177
 42
1.0
 72
1
  3

 73
1
 74
1
 75
1
 44
0.5
 73
0
 45
1.0
 46
1.0
 77
1
  4

 78
1
 79
1
170
1
 48
1.0
171
1
  6

172
1
173
1
174
1
140
1.0
141
1.0
175
1
  7

176
1
177
1
178
1
143
1.0
179
1
  8

270
1
271
1
272
1
145
1.0
146
1.0
273
1
  9

274
1
275
1
276
1
 42
1.0
 72
1
  3

 73
1
 74
1
 75
1
 94
63
  0
MATERIAL
  5
21
102
{ACAD_REACTORS
330
E
102
}
330
E
100
AcDbMaterial
  1
Global
  2

 70
0
 40
1.0
 71
1
 41
1.0
 91
-1023410177
 42
1.0
 72
1
  3

 73
1
 74
1
 75
1
 44
0.5
 73
0
 45
1.0
 46
1.0
 77
1
  4

 78
1
 79
1
170
1
 48
1.0
171
1
  6

172
1
173
1
174
1
140
1.0
141
1.0
175
1
  7

176
1
177
1
178
1
143
1.0
179
1
  8

270
1
271
1
272
1
145
1.0
146
1.0
273
1
  9

274
1
275
1
276
1
 42
1.0
 72
1
  3

 73
1
 74
1
 75
1
 94
63
  0
MLINESTYLE
  5
22
102
{ACAD_REACTORS
330
10
102
}
330
10
100
AcDbMlineStyle
  2
Standard
 70
0
  3

 62
256
 51
90.0
 52
90.0
 71
2
 49
0.5
 62
256
  6
BYLAYER
 49
-0.5
 62
256
  6
BYLAYER
  0
MLEADERSTYLE
  5
2C
102
{ACAD_REACTORS
330
F
102
}
330
F
100
AcDbMLeaderStyle
179
2
170
2
171
1
172
0
 90
2
 40
0.0
 41
0.0
173
1
 91
-1056964608
 92
-2
290
1
 42
2.0
291
1
 43
8.0
  3
Standard
 44
4.0
300

342
29
174
1
175
1
176
0
178
1
 93
-1056964608
 45
4.0
292
0
297
0
 46
4.0
 94
-1056964608
 47
1.0
 49
1.0
140
1.0
294
1
141
0.0
177
0
142
1.0
295
0
296
0
143
3.75
271
0
272
9
273
9
  0
DICTIONARY
  5
2D
330
A
100
AcDbDictionary
281
1
  3
CREATED_BY_EZDXF
350
2E
  3
WRITTEN_BY_EZDXF
350
32
  0
DICTIONARYVAR
  5
2E
330
2D
100
DictionaryVariables
280
0
  1
1.0.3 @ 2023-09-28T23:45:12.991091+00:00
  0
DICTIONARYVAR
  5
32
330
2D
100
DictionaryVariables
280
0
  1
1.0.3 @ 2023-10-22T14:14:19.310767+00:00
  0
ENDSEC
  0
EOF
