  0
SECTION
  2
HEADER
  9
$ACADVER
  1
AC1027
  9
$ACADMAINTVER
 70
105
  9
$DWGCODEPAGE
  3
ANSI_1252
  9
$LASTSAVEDBY
  1
ezdxf
  9
$REQUIREDVERSIONS
160
0
  9
$INSBASE
 10
0.0
 20
0.0
 30
0.0
  9
$EXTMIN
 10
1e+20
 20
1e+20
 30
1e+20
  9
$EXTMAX
 10
-1e+20
 20
-1e+20
 30
-1e+20
  9
$LIMMIN
 10
0.0
 20
0.0
  9
$LIMMAX
 10
420.0
 20
297.0
  9
$ORTHOMODE
 70
0
  9
$REGENMODE
 70
1
  9
$FILLMODE
 70
1
  9
$QTEXTMODE
 70
0
  9
$MIRRTEXT
 70
1
  9
$LTSCALE
 40
1.0
  9
$ATTMODE
 70
1
  9
$TEXTSIZE
 40
2.5
  9
$TRACEWID
 40
1.0
  9
$TEXTSTYLE
  7
Standard
  9
$CLAYER
  8
0
  9
$CELTYPE
  6
ByLayer
  9
$CECOLOR
 62
256
  9
$CELTSCALE
 40
1.0
  9
$DISPSILH
 70
0
  9
$DIMSCALE
 40
1.0
  9
$DIMASZ
 40
2.5
  9
$DIMEXO
 40
0.625
  9
$DIMDLI
 40
3.75
  9
$DIMRND
 40
0.0
  9
$DIMDLE
 40
0.0
  9
$DIMEXE
 40
1.25
  9
$DIMTP
 40
0.0
  9
$DIMTM
 40
0.0
  9
$DIMTXT
 40
2.5
  9
$DIMCEN
 40
2.5
  9
$DIMTSZ
 40
0.0
  9
$DIMTOL
 70
0
  9
$DIMLIM
 70
0
  9
$DIMTIH
 70
0
  9
$DIMTOH
 70
0
  9
$DIMSE1
 70
0
  9
$DIMSE2
 70
0
  9
$DIMTAD
 70
1
  9
$DIMZIN
 70
8
  9
$DIMBLK
  1

  9
$DIMASO
 70
1
  9
$DIMSHO
 70
1
  9
$DIMPOST
  1

  9
$DIMAPOST
  1

  9
$DIMALT
 70
0
  9
$DIMALTD
 70
3
  9
$DIMALTF
 40
0.03937007874
  9
$DIMLFAC
 40
1.0
  9
$DIMTOFL
 70
1
  9
$DIMTVP
 40
0.0
  9
$DIMTIX
 70
0
  9
$DIMSOXD
 70
0
  9
$DIMSAH
 70
0
  9
$DIMBLK1
  1

  9
$DIMBLK2
  1

  9
$DIMSTYLE
  2
ISO-25
  9
$DIMCLRD
 70
0
  9
$DIMCLRE
 70
0
  9
$DIMCLRT
 70
0
  9
$DIMTFAC
 40
1.0
  9
$DIMGAP
 40
0.625
  9
$DIMJUST
 70
0
  9
$DIMSD1
 70
0
  9
$DIMSD2
 70
0
  9
$DIMTOLJ
 70
0
  9
$DIMTZIN
 70
8
  9
$DIMALTZ
 70
0
  9
$DIMALTTZ
 70
0
  9
$DIMUPT
 70
0
  9
$DIMDEC
 70
2
  9
$DIMTDEC
 70
2
  9
$DIMALTU
 70
2
  9
$DIMALTTD
 70
3
  9
$DIMTXSTY
  7
Standard
  9
$DIMAUNIT
 70
0
  9
$DIMADEC
 70
0
  9
$DIMALTRND
 40
0.0
  9
$DIMAZIN
 70
0
  9
$DIMDSEP
 70
44
  9
$DIMATFIT
 70
3
  9
$DIMFRAC
 70
0
  9
$DIMLDRBLK
  1

  9
$DIMLUNIT
 70
2
  9
$DIMLWD
 70
-2
  9
$DIMLWE
 70
-2
  9
$DIMTMOVE
 70
0
  9
$DIMFXL
 40
1.0
  9
$DIMFXLON
 70
0
  9
$DIMJOGANG
 40
0.785398163397
  9
$DIMTFILL
 70
0
  9
$DIMTFILLCLR
 70
0
  9
$DIMARCSYM
 70
0
  9
$DIMLTYPE
  6

  9
$DIMLTEX1
  6

  9
$DIMLTEX2
  6

  9
$DIMTXTDIRECTION
 70
0
  9
$LUNITS
 70
2
  9
$LUPREC
 70
4
  9
$SKETCHINC
 40
1.0
  9
$FILLETRAD
 40
10.0
  9
$AUNITS
 70
0
  9
$AUPREC
 70
2
  9
$MENU
  1
.
  9
$ELEVATION
 40
0.0
  9
$PELEVATION
 40
0.0
  9
$THICKNESS
 40
0.0
  9
$LIMCHECK
 70
0
  9
$CHAMFERA
 40
0.0
  9
$CHAMFERB
 40
0.0
  9
$CHAMFERC
 40
0.0
  9
$CHAMFERD
 40
0.0
  9
$SKPOLY
 70
0
  9
$TDCREATE
 40
2460240.4682754627
  9
$TDUCREATE
 40
2458532.153996898
  9
$TDUPDATE
 40
2460240.4682754627
  9
$TDUUPDATE
 40
2458532.1544311
  9
$TDINDWG
 40
0.0
  9
$TDUSRTIMER
 40
0.0
  9
$USRTIMER
 70
1
  9
$ANGBASE
 50
0.0
  9
$ANGDIR
 70
0
  9
$PDMODE
 70
0
  9
$PDSIZE
 40
0.0
  9
$PLINEWID
 40
0.0
  9
$SPLFRAME
 70
0
  9
$SPLINETYPE
 70
6
  9
$SPLINESEGS
 70
8
  9
$HANDSEED
  5
38
  9
$SURFTAB1
 70
6
  9
$SURFTAB2
 70
6
  9
$SURFTYPE
 70
6
  9
$SURFU
 70
6
  9
$SURFV
 70
6
  9
$UCSBASE
  2

  9
$UCSNAME
  2

  9
$UCSORG
 10
0.0
 20
0.0
 30
0.0
  9
$UCSXDIR
 10
1.0
 20
0.0
 30
0.0
  9
$UCSYDIR
 10
0.0
 20
1.0
 30
0.0
  9
$UCSORTHOREF
  2

  9
$UCSORTHOVIEW
 70
0
  9
$UCSORGTOP
 10
0.0
 20
0.0
 30
0.0
  9
$UCSORGBOTTOM
 10
0.0
 20
0.0
 30
0.0
  9
$UCSORGLEFT
 10
0.0
 20
0.0
 30
0.0
  9
$UCSORGRIGHT
 10
0.0
 20
0.0
 30
0.0
  9
$UCSORGFRONT
 10
0.0
 20
0.0
 30
0.0
  9
$UCSORGBACK
 10
0.0
 20
0.0
 30
0.0
  9
$PUCSBASE
  2

  9
$PUCSNAME
  2

  9
$PUCSORG
 10
0.0
 20
0.0
 30
0.0
  9
$PUCSXDIR
 10
1.0
 20
0.0
 30
0.0
  9
$PUCSYDIR
 10
0.0
 20
1.0
 30
0.0
  9
$PUCSORTHOREF
  2

  9
$PUCSORTHOVIEW
 70
0
  9
$PUCSORGTOP
 10
0.0
 20
0.0
 30
0.0
  9
$PUCSORGBOTTOM
 10
0.0
 20
0.0
 30
0.0
  9
$PUCSORGLEFT
 10
0.0
 20
0.0
 30
0.0
  9
$PUCSORGRIGHT
 10
0.0
 20
0.0
 30
0.0
  9
$PUCSORGFRONT
 10
0.0
 20
0.0
 30
0.0
  9
$PUCSORGBACK
 10
0.0
 20
0.0
 30
0.0
  9
$USERI1
 70
0
  9
$USERI2
 70
0
  9
$USERI3
 70
0
  9
$USERI4
 70
0
  9
$USERI5
 70
0
  9
$USERR1
 40
0.0
  9
$USERR2
 40
0.0
  9
$USERR3
 40
0.0
  9
$USERR4
 40
0.0
  9
$USERR5
 40
0.0
  9
$WORLDVIEW
 70
1
  9
$SHADEDGE
 70
3
  9
$SHADEDIF
 70
70
  9
$TILEMODE
 70
1
  9
$MAXACTVP
 70
64
  9
$PINSBASE
 10
0.0
 20
0.0
 30
0.0
  9
$PLIMCHECK
 70
0
  9
$PEXTMIN
 10
1e+20
 20
1e+20
 30
1e+20
  9
$PEXTMAX
 10
-1e+20
 20
-1e+20
 30
-1e+20
  9
$PLIMMIN
 10
0.0
 20
0.0
  9
$PLIMMAX
 10
420.0
 20
297.0
  9
$UNITMODE
 70
0
  9
$VISRETAIN
 70
1
  9
$PLINEGEN
 70
0
  9
$PSLTSCALE
 70
1
  9
$TREEDEPTH
 70
3020
  9
$CMLSTYLE
  2
Standard
  9
$CMLJUST
 70
0
  9
$CMLSCALE
 40
20.0
  9
$PROXYGRAPHICS
 70
1
  9
$MEASUREMENT
 70
1
  9
$CELWEIGHT
370
-1
  9
$ENDCAPS
280
0
  9
$JOINSTYLE
280
0
  9
$LWDISPLAY
290
0
  9
$INSUNITS
 70
6
  9
$HYPERLINKBASE
  1

  9
$STYLESHEET
  1

  9
$XEDIT
290
1
  9
$CEPSNTYPE
380
0
  9
$PSTYLEMODE
290
1
  9
$FINGERPRINTGUID
  2
{B4494D14-A8E8-4CCC-AF33-94EFFB39C6D6}
  9
$VERSIONGUID
  2
{03815870-7BF3-4999-93C3-9110FF801BE0}
  9
$EXTNAMES
290
1
  9
$PSVPSCALE
 40
0.0
  9
$OLESTARTUP
290
0
  9
$SORTENTS
280
127
  9
$INDEXCTL
280
0
  9
$HIDETEXT
280
1
  9
$XCLIPFRAME
280
0
  9
$HALOGAP
280
0
  9
$OBSCOLOR
 70
257
  9
$OBSLTYPE
280
0
  9
$INTERSECTIONDISPLAY
280
0
  9
$INTERSECTIONCOLOR
 70
257
  9
$DIMASSOC
280
2
  9
$PROJECTNAME
  1

  9
$CAMERADISPLAY
290
0
  9
$LENSLENGTH
 40
50.0
  9
$CAMERAHEIGHT
 40
0.0
  9
$STEPSPERSEC
 40
24.0
  9
$STEPSIZE
 40
100.0
  9
$3DDWFPREC
 40
2.0
  9
$PSOLWIDTH
 40
0.005
  9
$PSOLHEIGHT
 40
0.08
  9
$LOFTANG1
 40
1.570796326795
  9
$LOFTANG2
 40
1.570796326795
  9
$LOFTMAG1
 40
0.0
  9
$LOFTMAG2
 40
0.0
  9
$LOFTPARAM
 70
7
  9
$LOFTNORMALS
280
1
  9
$LATITUDE
 40
37.795
  9
$LONGITUDE
 40
-122.394
  9
$NORTHDIRECTION
 40
0.0
  9
$TIMEZONE
 70
-8000
  9
$LIGHTGLYPHDISPLAY
280
1
  9
$TILEMODELIGHTSYNCH
280
1
  9
$CMATERIAL
347
20
  9
$SOLIDHIST
280
0
  9
$SHOWHIST
280
1
  9
$DWFFRAME
280
2
  9
$DGNFRAME
280
2
  9
$REALWORLDSCALE
290
1
  9
$INTERFERECOLOR
 62
256
  9
$CSHADOW
280
0
  9
$SHADOWPLANELOCATION
 40
0.0
  0
ENDSEC
  0
SECTION
  2
CLASSES
  0
CLASS
  1
ACDBDICTIONARYWDFLT
  2
AcDbDictionaryWithDefault
  3
ObjectDBX Classes
 90
0
 91
0
280
0
281
0
  0
CLASS
  1
SUN
  2
AcDbSun
  3
SCENEOE
 90
1153
 91
0
280
0
281
0
  0
CLASS
  1
VISUALSTYLE
  2
AcDbVisualStyle
  3
ObjectDBX Classes
 90
4095
 91
0
280
0
281
0
  0
CLASS
  1
MATERIAL
  2
AcDbMaterial
  3
ObjectDBX Classes
 90
1153
 91
0
280
0
281
0
  0
CLASS
  1
SCALE
  2
AcDbScale
  3
ObjectDBX Classes
 90
1153
 91
0
280
0
281
0
  0
CLASS
  1
TABLESTYLE
  2
AcDbTableStyle
  3
ObjectDBX Classes
 90
4095
 91
0
280
0
281
0
  0
CLASS
  1
MLEADERSTYLE
  2
AcDbMLeaderStyle
  3
ACDB_MLEADERSTYLE_CLASS
 90
4095
 91
0
280
0
281
0
  0
CLASS
  1
DICTIONARYVAR
  2
AcDbDictionaryVar
  3
ObjectDBX Classes
 90
0
 91
0
280
0
281
0
  0
CLASS
  1
CELLSTYLEMAP
  2
AcDbCellStyleMap
  3
ObjectDBX Classes
 90
1152
 91
0
280
0
281
0
  0
CLASS
  1
MENTALRAYRENDERSETTINGS
  2
AcDbMentalRayRenderSettings
  3
SCENEOE
 90
1024
 91
0
280
0
281
0
  0
CLASS
  1
ACDBDETAILVIEWSTYLE
  2
AcDbDetailViewStyle
  3
ObjectDBX Classes
 90
1025
 91
0
280
0
281
0
  0
CLASS
  1
ACDBSECTIONVIEWSTYLE
  2
AcDbSectionViewStyle
  3
ObjectDBX Classes
 90
1025
 91
0
280
0
281
0
  0
CLASS
  1
RASTERVARIABLES
  2
AcDbRasterVariables
  3
ISM
 90
0
 91
0
280
0
281
0
  0
CLASS
  1
ACDBPLACEHOLDER
  2
AcDbPlaceHolder
  3
ObjectDBX Classes
 90
0
 91
0
280
0
281
0
  0
CLASS
  1
LAYOUT
  2
AcDbLayout
  3
ObjectDBX Classes
 90
0
 91
0
280
0
281
0
  0
ENDSEC
  0
SECTION
  2
TABLES
  0
TABLE
  2
VPORT
  5
8
330
0
100
AcDbSymbolTable
 70
1
  0
VPORT
  5
23
330
8
100
AcDbSymbolTableRecord
100
AcDbViewportTableRecord
  2
*Active
 70
0
 10
0.0
 20
0.0
 11
1.0
 21
1.0
 12
0.0
 22
0.0
 13
0.0
 23
0.0
 14
0.5
 24
0.5
 15
0.5
 25
0.5
 16
0.0
 26
0.0
 36
1.0
 17
0.0
 27
0.0
 37
0.0
 40
1000.0
 41
1.34
 42
50.0
 43
0.0
 44
0.0
 50
0.0
 51
0.0
 71
0
 72
1000
 73
1
 74
3
 75
0
 76
0
 77
0
 78
0
281
0
 65
0
146
0.0
  0
ENDTAB
  0
TABLE
  2
LTYPE
  5
2
330
0
100
AcDbSymbolTable
 70
3
  0
LTYPE
  5
24
330
2
100
AcDbSymbolTableRecord
100
AcDbLinetypeTableRecord
  2
ByBlock
 70
0
  3

 72
65
 73
0
 40
0.0
  0
LTYPE
  5
25
330
2
100
AcDbSymbolTableRecord
100
AcDbLinetypeTableRecord
  2
ByLayer
 70
0
  3

 72
65
 73
0
 40
0.0
  0
LTYPE
  5
26
330
2
100
AcDbSymbolTableRecord
100
AcDbLinetypeTableRecord
  2
Continuous
 70
0
  3

 72
65
 73
0
 40
0.0
  0
ENDTAB
  0
TABLE
  2
LAYER
  5
1
330
0
100
AcDbSymbolTable
 70
2
  0
LAYER
  5
27
330
1
100
AcDbSymbolTableRecord
100
AcDbLayerTableRecord
  2
0
 70
0
 62
7
  6
Continuous
370
-3
390
13
347
21
  0
LAYER
  5
28
330
1
100
AcDbSymbolTableRecord
100
AcDbLayerTableRecord
  2
Defpoints
 70
0
 62
7
  6
Continuous
290
0
370
-3
390
13
347
21
  0
ENDTAB
  0
TABLE
  2
STYLE
  5
5
330
0
100
AcDbSymbolTable
 70
1
  0
STYLE
  5
29
330
5
100
AcDbSymbolTableRecord
100
AcDbTextStyleTableRecord
  2
Standard
 70
0
 40
0.0
 41
1.0
 50
0.0
 71
0
 42
2.5
  3
txt
  4

  0
ENDTAB
  0
TABLE
  2
VIEW
  5
7
330
0
100
AcDbSymbolTable
 70
0
  0
ENDTAB
  0
TABLE
  2
UCS
  5
6
330
0
100
AcDbSymbolTable
 70
0
  0
ENDTAB
  0
TABLE
  2
APPID
  5
3
330
0
100
AcDbSymbolTable
 70
3
  0
APPID
  5
2A
330
3
100
AcDbSymbolTableRecord
100
AcDbRegAppTableRecord
  2
ACAD
 70
0
  0
APPID
  5
30
330
3
100
AcDbSymbolTableRecord
100
AcDbRegAppTableRecord
  2
HATCHBACKGROUNDCOLOR
 70
0
  0
APPID
  5
31
330
3
100
AcDbSymbolTableRecord
100
AcDbRegAppTableRecord
  2
EZDXF
 70
0
  0
ENDTAB
  0
TABLE
  2
DIMSTYLE
  5
4
330
0
100
AcDbSymbolTable
 70
1
100
AcDbDimStyleTable
  0
DIMSTYLE
105
2B
330
4
100
AcDbSymbolTableRecord
100
AcDbDimStyleTableRecord
  2
Standard
 70
0
 40
1.0
 41
2.5
 42
0.625
 43
3.75
 44
1.25
 45
0.0
 46
0.0
 47
0.0
 48
0.0
 49
2.5
140
2.5
141
2.5
142
0.0
143
0.03937007874
144
1.0
145
0.0
146
1.0
147
0.625
148
0.0
 69
0
 70
0
 71
0
 72
0
 73
0
 74
0
 75
0
 76
0
 77
1
 78
8
 79
3
170
0
171
3
172
1
173
0
174
0
175
0
176
0
177
0
178
0
179
2
271
2
272
2
273
2
274
3
275
0
276
0
277
2
278
44
279
0
280
0
281
0
282
0
283
0
284
8
285
0
286
0
288
0
289
3
290
0
371
-2
372
-2
  0
ENDTAB
  0
TABLE
  2
BLOCK_RECORD
  5
9
330
0
100
AcDbSymbolTable
 70
2
  0
BLOCK_RECORD
  5
17
330
9
100
AcDbSymbolTableRecord
100
AcDbBlockTableRecord
  2
*Model_Space
340
1A
 70
0
280
1
281
0
  0
BLOCK_RECORD
  5
1B
330
9
100
AcDbSymbolTableRecord
100
AcDbBlockTableRecord
  2
*Paper_Space
340
1E
 70
0
280
1
281
0
  0
ENDTAB
  0
ENDSEC
  0
SECTION
  2
BLOCKS
  0
BLOCK
  5
18
330
17
100
AcDbEntity
  8
0
100
AcDbBlockBegin
  2
*Model_Space
 70
0
 10
0.0
 20
0.0
 30
0.0
  3
*Model_Space
  1

  0
ENDBLK
  5
19
330
17
100
AcDbEntity
  8
0
100
AcDbBlockEnd
  0
BLOCK
  5
1C
330
1B
100
AcDbEntity
  8
0
100
AcDbBlockBegin
  2
*Paper_Space
 70
0
 10
0.0
 20
0.0
 30
0.0
  3
*Paper_Space
  1

  0
ENDBLK
  5
1D
330
1B
100
AcDbEntity
  8
0
100
AcDbBlockEnd
  0
ENDSEC
  0
SECTION
  2
ENTITIES
  0
LWPOLYLINE
  5
2F
330
17
100
AcDbEntity
  8
0
100
AcDbPolyline
 90
101
 70
0
 10
0.0
 20
1456.4416
 10
1.0
 20
1455.5678879296768
 10
2.0
 20
1454.7072514158012
 10
3.0
 20
1453.8596889979265
 10
4.0
 20
1453.025199237788
 10
5.0
 20
1452.2037807193058
 10
6.0
 20
1451.3954320485816
 10
7.0
 20
1450.6001518538976
 10
8.0
 20
1449.817938785709
 10
9.0
 20
1449.0487915166455
 10
10.0
 20
1448.2927087415108
 10
11.0
 20
1447.5496891772798
 10
12.0
 20
1446.819731563088
 10
13.0
 20
1446.1028346602434
 10
14.0
 20
1445.3989972522133
 10
15.0
 20
1444.7082181446272
 10
16.0
 20
1444.0304961652755
 10
17.0
 20
1443.3658301641021
 10
18.0
 20
1442.7142190132106
 10
19.0
 20
1442.0756616068525
 10
20.0
 20
1441.4501568614373
 10
21.0
 20
1440.837703715518
 10
22.0
 20
1440.2383011297998
 10
23.0
 20
1439.6519480871293
 10
24.0
 20
1439.0786435925029
 10
25.0
 20
1438.5183866730545
 10
26.0
 20
1437.9711763780642
 10
27.0
 20
1437.4370117789467
 10
28.0
 20
1436.9158919692559
 10
29.0
 20
1436.4078160646834
 10
30.0
 20
1435.9127832030547
 10
31.0
 20
1435.4307925443288
 10
32.0
 20
1434.9618432705947
 10
33.0
 20
1434.505934586073
 10
34.0
 20
1434.063065717116
 10
35.0
 20
1433.6332359121993
 10
36.0
 20
1433.2164444419286
 10
37.0
 20
1432.8126905990327
 10
38.0
 20
1432.4219736983655
 10
39.0
 20
1432.0442930769038
 10
40.0
 20
1431.6796480937462
 10
41.0
 20
1431.328038130111
 10
42.0
 20
1430.9894625893378
 10
43.0
 20
1430.6639208968827
 10
44.0
 20
1430.351412500322
 10
45.0
 20
1430.0519368693463
 10
46.0
 20
1429.765493495766
 10
47.0
 20
1429.4920818934993
 10
48.0
 20
1429.2317015985877
 10
49.0
 20
1428.9843521691778
 10
50.0
 20
1428.7500331855329
 10
51.0
 20
1428.528744250029
 10
52.0
 20
1428.3204849871506
 10
53.0
 20
1428.1252550434945
 10
54.0
 20
1427.9430540877677
 10
55.0
 20
1427.773881810784
 10
56.0
 20
1427.61773792547
 10
57.0
 20
1427.474622166859
 10
58.0
 20
1427.3445342920895
 10
59.0
 20
1427.2274740804137
 10
60.0
 20
1427.1234413331845
 10
61.0
 20
1427.0324358738662
 10
62.0
 20
1426.9544575480263
 10
63.0
 20
1426.8895062233407
 10
64.0
 20
1426.8375817895928
 10
65.0
 20
1426.798684158668
 10
66.0
 20
1426.7728132645598
 10
67.0
 20
1426.7599690633658
 10
68.0
 20
1426.760151533292
 10
69.0
 20
1426.773360674647
 10
70.0
 20
1426.7995965098469
 10
71.0
 20
1426.838859083411
 10
72.0
 20
1426.891148461965
 10
73.0
 20
1426.9564647342431
 10
74.0
 20
1427.0348080110819
 10
75.0
 20
1427.1261784254261
 10
76.0
 20
1427.230576132323
 10
77.0
 20
1427.3480013089336
 10
78.0
 20
1427.4784541545187
 10
79.0
 20
1427.6219348904497
 10
80.0
 20
1427.778443760205
 10
81.0
 20
1427.9479810293706
 10
82.0
 20
1428.1305469856416
 10
83.0
 20
1428.3261419388216
 10
84.0
 20
1428.534766220822
 10
85.0
 20
1428.7564201856685
 10
86.0
 20
1428.9911042094932
 10
87.0
 20
1429.2388186905412
 10
88.0
 20
1429.4995640491688
 10
89.0
 20
1429.773340727847
 10
90.0
 20
1430.0601491911566
 10
91.0
 20
1430.359989925796
 10
92.0
 20
1430.6728634405756
 10
93.0
 20
1430.998770266425
 10
94.0
 20
1431.3377109563885
 10
95.0
 20
1431.6896860856273
 10
96.0
 20
1432.0546962514234
 10
97.0
 20
1432.4327420731756
 10
98.0
 20
1432.8238241924062
 10
99.0
 20
1433.2279432727603
 10
100.0
 20
1433.6451000000009
  0
LWPOLYLINE
  5
33
330
17
100
AcDbEntity
  8
0
100
AcDbPolyline
 90
101
 70
0
 10
0.0
 20
1456.4416
 10
1.0
 20
1454.263779296201
 10
2.0
 20
1452.1259381156397
 10
3.0
 20
1450.0280438081725
 10
4.0
 20
1447.9700643337433
 10
5.0
 20
1445.9519682618945
 10
6.0
 20
1443.9737247712874
 10
7.0
 20
1442.0353036492302
 10
8.0
 20
1440.13667529122
 10
9.0
 20
1438.2778107004851
 10
10.0
 20
1436.4586814875481
 10
11.0
 20
1434.6792598697873
 10
12.0
 20
1432.9395186710165
 10
13.0
 20
1431.239431321066
 10
14.0
 20
1429.5789718553801
 10
15.0
 20
1427.958114914619
 10
16.0
 20
1426.3768357442732
 10
17.0
 20
1424.8351101942812
 10
18.0
 20
1423.3329147186657
 10
19.0
 20
1421.8702263751713
 10
20.0
 20
1420.4470228249147
 10
21.0
 20
1419.0632823320427
 10
22.0
 20
1417.7189837634016
 10
23.0
 20
1416.414106588214
 10
24.0
 20
1415.148630877765
 10
25.0
 20
1413.9225373050972
 10
26.0
 20
1412.7358071447175
 10
27.0
 20
1411.5884222723087
 10
28.0
 20
1410.4803651644545
 10
29.0
 20
1409.4116188983712
 10
30.0
 20
1408.382167151649
 10
31.0
 20
1407.3919942020032
 10
32.0
 20
1406.4410849270337
 10
33.0
 20
1405.5294248039943
 10
34.0
 20
1404.6569999095711
 10
35.0
 20
1403.8237969196698
 10
36.0
 20
1403.0298031092102
 10
37.0
 20
1402.2750063519368
 10
38.0
 20
1401.5593951202268
 10
39.0
 20
1400.8829584849204
 10
40.0
 20
1400.2456861151504
 10
41.0
 20
1399.647568278185
 10
42.0
 20
1399.0885958392792
 10
43.0
 20
1398.5687602615355
 10
44.0
 20
1398.0880536057746
 10
45.0
 20
1397.646468530411
 10
46.0
 20
1397.2439982913445
 10
47.0
 20
1396.8806367418556
 10
48.0
 20
1396.5563783325097
 10
49.0
 20
1396.2712181110762
 10
50.0
 20
1396.0251517224506
 10
51.0
 20
1395.8181754085883
 10
52.0
 20
1395.6502860084458
 10
53.0
 20
1395.5214809579365
 10
54.0
 20
1395.4317582898868
 10
55.0
 20
1395.3811166340079
 10
56.0
 20
1395.369555216877
 10
57.0
 20
1395.3970738619225
 10
58.0
 20
1395.4636729894216
 10
59.0
 20
1395.5693536165097
 10
60.0
 20
1395.7141173571913
 10
61.0
 20
1395.8979664223687
 10
62.0
 20
1396.1209036198732
 10
63.0
 20
1396.3829323545099
 10
64.0
 20
1396.6840566281087
 10
65.0
 20
1397.0242810395848
 10
66.0
 20
1397.4036107850095
 10
67.0
 20
1397.82205165769
 10
68.0
 20
1398.2796100482585
 10
69.0
 20
1398.7762929447667
 10
70.0
 20
1399.312107932797
 10
71.0
 20
1399.8870631955742
 10
72.0
 20
1400.5011675140938
 10
73.0
 20
1401.1544302672526
 10
74.0
 20
1401.8468614319963
 10
75.0
 20
1402.5784715834684
 10
76.0
 20
1403.3492718951723
 10
77.0
 20
1404.1592741391426
 10
78.0
 20
1405.0084906861262
 10
79.0
 20
1405.8969345057676
 10
80.0
 20
1406.8246191668115
 10
81.0
 20
1407.7915588373062
 10
82.0
 20
1408.797768284821
 10
83.0
 20
1409.843262876674
 10
84.0
 20
1410.9280585801637
 10
85.0
 20
1412.0521719628139
 10
86.0
 20
1413.2156201926284
 10
87.0
 20
1414.4184210383507
 10
88.0
 20
1415.6605928697375
 10
89.0
 20
1416.9421546578365
 10
90.0
 20
1418.263125975279
 10
91.0
 20
1419.6235269965782
 10
92.0
 20
1421.0233784984362
 10
93.0
 20
1422.462701860061
 10
94.0
 20
1423.9415190634954
 10
95.0
 20
1425.4598526939503
 10
96.0
 20
1427.0177259401516
 10
97.0
 20
1428.6151625946916
 10
98.0
 20
1430.2521870543962
 10
99.0
 20
1431.9288243206943
 10
100.0
 20
1433.6450999999997
  0
LWPOLYLINE
  5
34
330
17
100
AcDbEntity
  8
0
100
AcDbPolyline
 90
101
 70
0
 10
0.0
 20
1456.4416
 10
1.0
 20
1447.6350297749962
 10
2.0
 20
1439.035689653417
 10
3.0
 20
1430.641478262674
 10
4.0
 20
1422.450344356337
 10
5.0
 20
1414.4602863128835
 10
6.0
 20
1406.669351646574
 10
7.0
 20
1399.075636530333
 10
8.0
 20
1391.6772853305224
 10
9.0
 20
1384.4724901534905
 10
10.0
 20
1377.4594904037867
 10
11.0
 20
1370.6365723539348
 10
12.0
 20
1364.0020687256592
 10
13.0
 20
1357.5543582824616
 10
14.0
 20
1351.2918654334483
 10
15.0
 20
1345.2130598483118
 10
16.0
 20
1339.3164560833723
 10
17.0
 20
1333.6006132185885
 10
18.0
 20
1328.0641345054487
 10
19.0
 20
1322.705667025654
 10
20.0
 20
1317.5239013605137
 10
21.0
 20
1312.5175712709702
 10
22.0
 20
1307.6854533881747
 10
23.0
 20
1303.0263669145402
 10
24.0
 20
1298.5391733351958
 10
25.0
 20
1294.2227761397753
 10
26.0
 20
1290.0761205544673
 10
27.0
 20
1286.0981932842678
 10
28.0
 20
1282.2880222653666
 10
29.0
 20
1278.6446764276086
 10
30.0
 20
1275.1672654669737
 10
31.0
 20
1271.8549396280193
 10
32.0
 20
1268.7068894962295
 10
33.0
 20
1265.722345800222
 10
34.0
 20
1262.9005792237676
 10
35.0
 20
1260.24090022757
 10
36.0
 20
1257.7426588807666
 10
37.0
 20
1255.4052447021104
 10
38.0
 20
1253.2280865107873
 10
39.0
 20
1251.2106522868428
 10
40.0
 20
1249.3524490411728
 10
41.0
 20
1247.6530226950563
 10
42.0
 20
1246.111957969194
 10
43.0
 20
1244.7288782822284
 10
44.0
 20
1243.503445658722
 10
45.0
 20
1242.4353606465668
 10
46.0
 20
1241.52436224381
 10
47.0
 20
1240.770227834873
 10
48.0
 20
1240.1727731361536
 10
49.0
 20
1239.731852150993
 10
50.0
 20
1239.4473571339993
 10
51.0
 20
1239.319218564718
 10
52.0
 20
1239.3474051306448
 10
53.0
 20
1239.5319237195727
 10
54.0
 20
1239.8728194212763
 10
55.0
 20
1240.370175538529
 10
56.0
 20
1241.02411360746
 10
57.0
 20
1241.8347934272533
 10
58.0
 20
1242.8024130991964
 10
59.0
 20
1243.92720907509
 10
60.0
 20
1245.2094562150282
 10
61.0
 20
1246.6494678545632
 10
62.0
 20
1248.247595881276
 10
63.0
 20
1250.0042308207628
 10
64.0
 20
1251.9198019320665
 10
65.0
 20
1253.9947773125725
 10
66.0
 20
1256.2296640123943
 10
67.0
 20
1258.62500815828
 10
68.0
 20
1261.1813950870642
 10
69.0
 20
1263.899449488705
 10
70.0
 20
1266.7798355589352
 10
71.0
 20
1269.823257161569
 10
72.0
 20
1273.0304580005002
 10
73.0
 20
1276.4022218014375
 10
74.0
 20
1279.9393725034188
 10
75.0
 20
1283.6427744601533
 10
76.0
 20
1287.513332651238
 10
77.0
 20
1291.5519929033032
 10
78.0
 20
1295.759742121138
 10
79.0
 20
1300.1376085288555
 10
80.0
 20
1304.6866619211535
 10
81.0
 20
1309.4080139247349
 10
82.0
 20
1314.3028182699493
 10
83.0
 20
1319.3722710727236
 10
84.0
 20
1324.6176111268503
 10
85.0
 20
1330.0401202067044
 10
86.0
 20
1335.641123380464
 10
87.0
 20
1341.4219893339086
 10
88.0
 20
1347.384130704879
 10
89.0
 20
1353.5290044284734
 10
90.0
 20
1359.8581120930728
 10
91.0
 20
1366.3730003072742
 10
92.0
 20
1373.0752610778268
 10
93.0
 20
1379.9665321986627
 10
94.0
 20
1387.0484976511145
 10
95.0
 20
1394.3228880154209
 10
96.0
 20
1401.7914808936187
 10
97.0
 20
1409.4561013439252
 10
98.0
 20
1417.318622326718
 10
99.0
 20
1425.3809651622198
 10
100.0
 20
1433.6451000000002
  0
LWPOLYLINE
  5
35
330
17
100
AcDbEntity
  8
0
100
AcDbPolyline
 90
101
 70
0
 10
0.0
 20
1456.4416
 10
1.0
 20
1455.2439418722925
 10
2.0
 20
1454.0659611142457
 10
3.0
 20
1452.907653228192
 10
4.0
 20
1451.7690137915752
 10
5.0
 20
1450.6500384569372
 10
6.0
 20
1449.5507229518976
 10
7.0
 20
1448.471063079143
 10
8.0
 20
1447.4110547164053
 10
9.0
 20
1446.370693816447
 10
10.0
 20
1445.349976407048
 10
11.0
 20
1444.3488985909914
 10
12.0
 20
1443.3674565460426
 10
13.0
 20
1442.4056465249432
 10
14.0
 20
1441.4634648553886
 10
15.0
 20
1440.5409079400179
 10
16.0
 20
1439.637972256401
 10
17.0
 20
1438.7546543570259
 10
18.0
 20
1437.8909508692782
 10
19.0
 20
1437.0468584954383
 10
20.0
 20
1436.2223740126626
 10
21.0
 20
1435.4174942729712
 10
22.0
 20
1434.6322162032418
 10
23.0
 20
1433.866536805188
 10
24.0
 20
1433.1204531553585
 10
25.0
 20
1432.3939624051154
 10
26.0
 20
1431.687061780635
 10
27.0
 20
1430.999748582885
 10
28.0
 20
1430.332020187626
 10
29.0
 20
1429.6838740453898
 10
30.0
 20
1429.055307681481
 10
31.0
 20
1428.4463186959576
 10
32.0
 20
1427.8569047636302
 10
33.0
 20
1427.2870636340451
 10
34.0
 20
1426.7367931314832
 10
35.0
 20
1426.2060911549484
 10
36.0
 20
1425.6949556781556
 10
37.0
 20
1425.2033847495316
 10
38.0
 20
1424.7313764922014
 10
39.0
 20
1424.2789291039805
 10
40.0
 20
1423.8460408573728
 10
41.0
 20
1423.4327100995597
 10
42.0
 20
1423.038935252396
 10
43.0
 20
1422.6647148124036
 10
44.0
 20
1422.310047350765
 10
45.0
 20
1421.9749315133186
 10
46.0
 20
1421.6593660205508
 10
47.0
 20
1421.3633496675984
 10
48.0
 20
1421.0868813242334
 10
49.0
 20
1420.8299599348707
 10
50.0
 20
1420.592584518551
 10
51.0
 20
1420.3747541689484
 10
52.0
 20
1420.1764680543617
 10
53.0
 20
1419.9977254177106
 10
54.0
 20
1419.8385255765354
 10
55.0
 20
1419.698867922992
 10
56.0
 20
1419.578751923851
 10
57.0
 20
1419.4781771204946
 10
58.0
 20
1419.397143128918
 10
59.0
 20
1419.335649639724
 10
60.0
 20
1419.293696418121
 10
61.0
 20
1419.271283303929
 10
62.0
 20
1419.2684102115716
 10
63.0
 20
1419.2850771300787
 10
64.0
 20
1419.321284123086
 10
65.0
 20
1419.3770313288367
 10
66.0
 20
1419.4523189601803
 10
67.0
 20
1419.5471473045734
 10
68.0
 20
1419.6615167240823
 10
69.0
 20
1419.795427655382
 10
70.0
 20
1419.9488806097602
 10
71.0
 20
1420.1218761731197
 10
72.0
 20
1420.3144150059761
 10
73.0
 20
1420.526497843466
 10
74.0
 20
1420.7581254953468
 10
75.0
 20
1421.0092988459992
 10
76.0
 20
1421.280018854433
 10
77.0
 20
1421.5702865542887
 10
78.0
 20
1421.8801030538427
 10
79.0
 20
1422.209469536011
 10
80.0
 20
1422.5583872583522
 10
81.0
 20
1422.9268575530764
 10
82.0
 20
1423.314881827046
 10
83.0
 20
1423.7224615617838
 10
84.0
 20
1424.149598313475
 10
85.0
 20
1424.5962937129789
 10
86.0
 20
1425.0625494658314
 10
87.0
 20
1425.5483673522515
 10
88.0
 20
1426.0537492271483
 10
89.0
 20
1426.57869702013
 10
90.0
 20
1427.1232127355074
 10
91.0
 20
1427.6872984523065
 10
92.0
 20
1428.2709563242715
 10
93.0
 20
1428.8741885798777
 10
94.0
 20
1429.4969975223357
 10
95.0
 20
1430.1393855296046
 10
96.0
 20
1430.8013550543956
 10
97.0
 20
1431.4829086241853
 10
98.0
 20
1432.1840488412272
 10
99.0
 20
1432.9047783825556
 10
100.0
 20
1433.6451000000009
  0
LWPOLYLINE
  5
36
330
17
100
AcDbEntity
  8
0
100
AcDbPolyline
 90
101
 70
0
 10
0.0
 20
1456.4416
 10
1.0
 20
1455.2439418722925
 10
2.0
 20
1454.0659611142457
 10
3.0
 20
1452.907653228192
 10
4.0
 20
1451.7690137915752
 10
5.0
 20
1450.6500384569372
 10
6.0
 20
1449.5507229518976
 10
7.0
 20
1448.471063079143
 10
8.0
 20
1447.4110547164053
 10
9.0
 20
1446.370693816447
 10
10.0
 20
1445.349976407048
 10
11.0
 20
1444.3488985909914
 10
12.0
 20
1443.3674565460426
 10
13.0
 20
1442.4056465249432
 10
14.0
 20
1441.4634648553886
 10
15.0
 20
1440.5409079400179
 10
16.0
 20
1439.637972256401
 10
17.0
 20
1438.7546543570259
 10
18.0
 20
1437.8909508692782
 10
19.0
 20
1437.0468584954383
 10
20.0
 20
1436.2223740126626
 10
21.0
 20
1435.4174942729712
 10
22.0
 20
1434.6322162032418
 10
23.0
 20
1433.866536805188
 10
24.0
 20
1433.1204531553585
 10
25.0
 20
1432.3939624051154
 10
26.0
 20
1431.687061780635
 10
27.0
 20
1430.999748582885
 10
28.0
 20
1430.332020187626
 10
29.0
 20
1429.6838740453898
 10
30.0
 20
1429.055307681481
 10
31.0
 20
1428.4463186959576
 10
32.0
 20
1427.8569047636302
 10
33.0
 20
1427.2870636340451
 10
34.0
 20
1426.7367931314832
 10
35.0
 20
1426.2060911549484
 10
36.0
 20
1425.6949556781556
 10
37.0
 20
1425.2033847495316
 10
38.0
 20
1424.7313764922014
 10
39.0
 20
1424.2789291039805
 10
40.0
 20
1423.8460408573728
 10
41.0
 20
1423.4327100995597
 10
42.0
 20
1423.038935252396
 10
43.0
 20
1422.6647148124036
 10
44.0
 20
1422.310047350765
 10
45.0
 20
1421.9749315133186
 10
46.0
 20
1421.6593660205508
 10
47.0
 20
1421.3633496675984
 10
48.0
 20
1421.0868813242334
 10
49.0
 20
1420.8299599348707
 10
50.0
 20
1420.592584518551
 10
51.0
 20
1420.3747541689484
 10
52.0
 20
1420.1764680543617
 10
53.0
 20
1419.9977254177106
 10
54.0
 20
1419.8385255765354
 10
55.0
 20
1419.698867922992
 10
56.0
 20
1419.578751923851
 10
57.0
 20
1419.4781771204946
 10
58.0
 20
1419.397143128918
 10
59.0
 20
1419.335649639724
 10
60.0
 20
1419.293696418121
 10
61.0
 20
1419.271283303929
 10
62.0
 20
1419.2684102115716
 10
63.0
 20
1419.2850771300787
 10
64.0
 20
1419.321284123086
 10
65.0
 20
1419.3770313288367
 10
66.0
 20
1419.4523189601803
 10
67.0
 20
1419.5471473045734
 10
68.0
 20
1419.6615167240823
 10
69.0
 20
1419.795427655382
 10
70.0
 20
1419.9488806097602
 10
71.0
 20
1420.1218761731197
 10
72.0
 20
1420.3144150059761
 10
73.0
 20
1420.526497843466
 10
74.0
 20
1420.7581254953468
 10
75.0
 20
1421.0092988459992
 10
76.0
 20
1421.280018854433
 10
77.0
 20
1421.5702865542887
 10
78.0
 20
1421.8801030538427
 10
79.0
 20
1422.209469536011
 10
80.0
 20
1422.5583872583522
 10
81.0
 20
1422.9268575530764
 10
82.0
 20
1423.314881827046
 10
83.0
 20
1423.7224615617838
 10
84.0
 20
1424.149598313475
 10
85.0
 20
1424.5962937129789
 10
86.0
 20
1425.0625494658314
 10
87.0
 20
1425.5483673522515
 10
88.0
 20
1426.0537492271483
 10
89.0
 20
1426.57869702013
 10
90.0
 20
1427.1232127355074
 10
91.0
 20
1427.6872984523065
 10
92.0
 20
1428.2709563242715
 10
93.0
 20
1428.8741885798777
 10
94.0
 20
1429.4969975223357
 10
95.0
 20
1430.1393855296046
 10
96.0
 20
1430.8013550543956
 10
97.0
 20
1431.4829086241853
 10
98.0
 20
1432.1840488412272
 10
99.0
 20
1432.9047783825556
 10
100.0
 20
1433.6451000000009
  0
LWPOLYLINE
  5
37
330
17
100
AcDbEntity
  8
0
100
AcDbPolyline
 90
101
 70
0
 10
0.0
 20
1456.4416
 10
1.0
 20
1455.2439418722925
 10
2.0
 20
1454.0659611142457
 10
3.0
 20
1452.907653228192
 10
4.0
 20
1451.7690137915752
 10
5.0
 20
1450.6500384569372
 10
6.0
 20
1449.5507229518976
 10
7.0
 20
1448.471063079143
 10
8.0
 20
1447.4110547164053
 10
9.0
 20
1446.370693816447
 10
10.0
 20
1445.349976407048
 10
11.0
 20
1444.3488985909914
 10
12.0
 20
1443.3674565460426
 10
13.0
 20
1442.4056465249432
 10
14.0
 20
1441.4634648553886
 10
15.0
 20
1440.5409079400179
 10
16.0
 20
1439.637972256401
 10
17.0
 20
1438.7546543570259
 10
18.0
 20
1437.8909508692782
 10
19.0
 20
1437.0468584954383
 10
20.0
 20
1436.2223740126626
 10
21.0
 20
1435.4174942729712
 10
22.0
 20
1434.6322162032418
 10
23.0
 20
1433.866536805188
 10
24.0
 20
1433.1204531553585
 10
25.0
 20
1432.3939624051154
 10
26.0
 20
1431.687061780635
 10
27.0
 20
1430.999748582885
 10
28.0
 20
1430.332020187626
 10
29.0
 20
1429.6838740453898
 10
30.0
 20
1429.055307681481
 10
31.0
 20
1428.4463186959576
 10
32.0
 20
1427.8569047636302
 10
33.0
 20
1427.2870636340451
 10
34.0
 20
1426.7367931314832
 10
35.0
 20
1426.2060911549484
 10
36.0
 20
1425.6949556781556
 10
37.0
 20
1425.2033847495316
 10
38.0
 20
1424.7313764922014
 10
39.0
 20
1424.2789291039805
 10
40.0
 20
1423.8460408573728
 10
41.0
 20
1423.4327100995597
 10
42.0
 20
1423.038935252396
 10
43.0
 20
1422.6647148124036
 10
44.0
 20
1422.310047350765
 10
45.0
 20
1421.9749315133186
 10
46.0
 20
1421.6593660205508
 10
47.0
 20
1421.3633496675984
 10
48.0
 20
1421.0868813242334
 10
49.0
 20
1420.8299599348707
 10
50.0
 20
1420.592584518551
 10
51.0
 20
1420.3747541689484
 10
52.0
 20
1420.1764680543617
 10
53.0
 20
1419.9977254177106
 10
54.0
 20
1419.8385255765354
 10
55.0
 20
1419.698867922992
 10
56.0
 20
1419.578751923851
 10
57.0
 20
1419.4781771204946
 10
58.0
 20
1419.397143128918
 10
59.0
 20
1419.335649639724
 10
60.0
 20
1419.293696418121
 10
61.0
 20
1419.271283303929
 10
62.0
 20
1419.2684102115716
 10
63.0
 20
1419.2850771300787
 10
64.0
 20
1419.321284123086
 10
65.0
 20
1419.3770313288367
 10
66.0
 20
1419.4523189601803
 10
67.0
 20
1419.5471473045734
 10
68.0
 20
1419.6615167240823
 10
69.0
 20
1419.795427655382
 10
70.0
 20
1419.9488806097602
 10
71.0
 20
1420.1218761731197
 10
72.0
 20
1420.3144150059761
 10
73.0
 20
1420.526497843466
 10
74.0
 20
1420.7581254953468
 10
75.0
 20
1421.0092988459992
 10
76.0
 20
1421.280018854433
 10
77.0
 20
1421.5702865542887
 10
78.0
 20
1421.8801030538427
 10
79.0
 20
1422.209469536011
 10
80.0
 20
1422.5583872583522
 10
81.0
 20
1422.9268575530764
 10
82.0
 20
1423.314881827046
 10
83.0
 20
1423.7224615617838
 10
84.0
 20
1424.149598313475
 10
85.0
 20
1424.5962937129789
 10
86.0
 20
1425.0625494658314
 10
87.0
 20
1425.5483673522515
 10
88.0
 20
1426.0537492271483
 10
89.0
 20
1426.57869702013
 10
90.0
 20
1427.1232127355074
 10
91.0
 20
1427.6872984523065
 10
92.0
 20
1428.2709563242715
 10
93.0
 20
1428.8741885798777
 10
94.0
 20
1429.4969975223357
 10
95.0
 20
1430.1393855296046
 10
96.0
 20
1430.8013550543956
 10
97.0
 20
1431.4829086241853
 10
98.0
 20
1432.1840488412272
 10
99.0
 20
1432.9047783825556
 10
100.0
 20
1433.6451000000009
  0
ENDSEC
  0
SECTION
  2
OBJECTS
  0
DICTIONARY
  5
A
330
0
100
AcDbDictionary
280
0
281
1
  3
ACAD_COLOR
350
B
  3
ACAD_GROUP
350
C
  3
ACAD_LAYOUT
350
D
  3
ACAD_MATERIAL
350
E
  3
ACAD_MLEADERSTYLE
350
F
  3
ACAD_MLINESTYLE
350
10
  3
ACAD_PLOTSETTINGS
350
11
  3
ACAD_PLOTSTYLENAME
350
12
  3
ACAD_SCALELIST
350
14
  3
ACAD_TABLESTYLE
350
15
  3
ACAD_VISUALSTYLE
350
16
  3
EZDXF_META
350
2D
  0
DICTIONARY
  5
B
330
A
100
AcDbDictionary
280
0
281
1
  0
DICTIONARY
  5
C
330
A
100
AcDbDictionary
280
0
281
1
  0
DICTIONARY
  5
D
330
A
100
AcDbDictionary
280
0
281
1
  3
Model
350
1A
  3
Layout1
350
1E
  0
DICTIONARY
  5
E
330
A
100
AcDbDictionary
280
0
281
1
  3
ByBlock
350
1F
  3
ByLayer
350
20
  3
Global
350
21
  0
DICTIONARY
  5
F
330
A
100
AcDbDictionary
280
0
281
1
  3
Standard
350
2C
  0
DICTIONARY
  5
10
330
A
100
AcDbDictionary
280
0
281
1
  3
Standard
350
22
  0
DICTIONARY
  5
11
330
A
100
AcDbDictionary
280
0
281
1
  0
ACDBDICTIONARYWDFLT
  5
12
330
A
100
AcDbDictionary
280
0
281
1
  3
Normal
350
13
100
AcDbDictionaryWithDefault
340
13
  0
ACDBPLACEHOLDER
  5
13
330
12
  0
DICTIONARY
  5
14
330
A
100
AcDbDictionary
280
0
281
1
  0
DICTIONARY
  5
15
330
A
100
AcDbDictionary
280
0
281
1
  0
DICTIONARY
  5
16
330
A
100
AcDbDictionary
280
0
281
1
  0
LAYOUT
  5
1A
330
D
100
AcDbPlotSettings
  1

  2
Adobe PDF
  4
A3
  6

 40
7.5
 41
20.0
 42
7.5
 43
20.0
 44
420.0
 45
297.0
 46
0.0
 47
0.0
 48
0.0
 49
0.0
140
0.0
141
0.0
142
1.0
143
1.0
 70
1024
 72
1
 73
0
 74
5
  7

 75
16
 76
0
 77
2
 78
300
147
1.0
148
0.0
149
0.0
100
AcDbLayout
  1
Model
 70
1
 71
0
 10
0.0
 20
0.0
 11
420.0
 21
297.0
 12
0.0
 22
0.0
 32
0.0
 14
1e+20
 24
1e+20
 34
1e+20
 15
-1e+20
 25
-1e+20
 35
-1e+20
146
0.0
 13
0.0
 23
0.0
 33
0.0
 16
1.0
 26
0.0
 36
0.0
 17
0.0
 27
1.0
 37
0.0
 76
1
330
17
  0
LAYOUT
  5
1E
330
D
100
AcDbPlotSettings
  1

  2
Adobe PDF
  4
A3
  6

 40
7.5
 41
20.0
 42
7.5
 43
20.0
 44
420.0
 45
297.0
 46
0.0
 47
0.0
 48
0.0
 49
0.0
140
0.0
141
0.0
142
1.0
143
1.0
 70
0
 72
1
 73
0
 74
5
  7

 75
16
 76
0
 77
2
 78
300
147
1.0
148
0.0
149
0.0
100
AcDbLayout
  1
Layout1
 70
1
 71
1
 10
0.0
 20
0.0
 11
420.0
 21
297.0
 12
0.0
 22
0.0
 32
0.0
 14
1e+20
 24
1e+20
 34
1e+20
 15
-1e+20
 25
-1e+20
 35
-1e+20
146
0.0
 13
0.0
 23
0.0
 33
0.0
 16
1.0
 26
0.0
 36
0.0
 17
0.0
 27
1.0
 37
0.0
 76
1
330
1B
  0
MATERIAL
  5
1F
102
{ACAD_REACTORS
330
E
102
}
330
E
100
AcDbMaterial
  1
ByBlock
  2

 70
0
 40
1.0
 71
1
 41
1.0
 91
-1023410177
 42
1.0
 72
1
  3

 73
1
 74
1
 75
1
 44
0.5
 73
0
 45
1.0
 46
1.0
 77
1
  4

 78
1
 79
1
170
1
 48
1.0
171
1
  6

172
1
173
1
174
1
140
1.0
141
1.0
175
1
  7

176
1
177
1
178
1
143
1.0
179
1
  8

270
1
271
1
272
1
145
1.0
146
1.0
273
1
  9

274
1
275
1
276
1
 42
1.0
 72
1
  3

 73
1
 74
1
 75
1
 94
63
  0
MATERIAL
  5
20
102
{ACAD_REACTORS
330
E
102
}
330
E
100
AcDbMaterial
  1
ByLayer
  2

 70
0
 40
1.0
 71
1
 41
1.0
 91
-1023410177
 42
1.0
 72
1
  3

 73
1
 74
1
 75
1
 44
0.5
 73
0
 45
1.0
 46
1.0
 77
1
  4

 78
1
 79
1
170
1
 48
1.0
171
1
  6

172
1
173
1
174
1
140
1.0
141
1.0
175
1
  7

176
1
177
1
178
1
143
1.0
179
1
  8

270
1
271
1
272
1
145
1.0
146
1.0
273
1
  9

274
1
275
1
276
1
 42
1.0
 72
1
  3

 73
1
 74
1
 75
1
 94
63
  0
MATERIAL
  5
21
102
{ACAD_REACTORS
330
E
102
}
330
E
100
AcDbMaterial
  1
Global
  2

 70
0
 40
1.0
 71
1
 41
1.0
 91
-1023410177
 42
1.0
 72
1
  3

 73
1
 74
1
 75
1
 44
0.5
 73
0
 45
1.0
 46
1.0
 77
1
  4

 78
1
 79
1
170
1
 48
1.0
171
1
  6

172
1
173
1
174
1
140
1.0
141
1.0
175
1
  7

176
1
177
1
178
1
143
1.0
179
1
  8

270
1
271
1
272
1
145
1.0
146
1.0
273
1
  9

274
1
275
1
276
1
 42
1.0
 72
1
  3

 73
1
 74
1
 75
1
 94
63
  0
MLINESTYLE
  5
22
102
{ACAD_REACTORS
330
10
102
}
330
10
100
AcDbMlineStyle
  2
Standard
 70
0
  3

 62
256
 51
90.0
 52
90.0
 71
2
 49
0.5
 62
256
  6
BYLAYER
 49
-0.5
 62
256
  6
BYLAYER
  0
MLEADERSTYLE
  5
2C
102
{ACAD_REACTORS
330
F
102
}
330
F
100
AcDbMLeaderStyle
179
2
170
2
171
1
172
0
 90
2
 40
0.0
 41
0.0
173
1
 91
-1056964608
 92
-2
290
1
 42
2.0
291
1
 43
8.0
  3
Standard
 44
4.0
300

342
29
174
1
175
1
176
0
178
1
 93
-1056964608
 45
4.0
292
0
297
0
 46
4.0
 94
-1056964608
 47
1.0
 49
1.0
140
1.0
294
1
141
0.0
177
0
142
1.0
295
0
296
0
143
3.75
271
0
272
9
273
9
  0
DICTIONARY
  5
2D
330
A
100
AcDbDictionary
281
1
  3
CREATED_BY_EZDXF
350
2E
  3
WRITTEN_BY_EZDXF
350
32
  0
DICTIONARYVAR
  5
2E
330
2D
100
DictionaryVariables
280
0
  1
1.0.3 @ 2023-09-26T11:49:34.623367+00:00
  0
DICTIONARYVAR
  5
32
330
2D
100
DictionaryVariables
280
0
  1
1.0.3 @ 2023-10-22T14:14:19.359784+00:00
  0
ENDSEC
  0
EOF
